<svg id="Layer_1" data-name="Layer 1" xmlns="http://www.w3.org/2000/svg" viewBox="0 0 30 30"><defs><style>.cls-1{fill:#fff;}.cls-2{fill:#b3becc;}.cls-3{fill:none;stroke:#fff;stroke-miterlimit:10;}</style></defs><title>icon_notification_on</title><path class="cls-1" d="M15,23.61a2.83,2.83,0,0,0,2.19-1l-5-1.79A2.85,2.85,0,0,0,15,23.61Z"/><path class="cls-2" d="M19,9l.11-.33A1,1,0,0,0,17.22,8l-.13.39a5.69,5.69,0,0,0-5.85,2.77c-.48,1.21-1.87,5.09-1.87,5.09l-3,1.35L21,22.84l-1.25-2.91,1.87-5S22.1,10.62,19,9Z"/><path class="cls-3" d="M19,9l.11-.33A1,1,0,0,0,17.22,8l-.13.39a5.69,5.69,0,0,0-5.85,2.77c-.48,1.21-1.87,5.09-1.87,5.09l-3,1.35L21,22.84l-1.25-2.91,1.87-5S22.1,10.62,19,9Z"/><path class="cls-1" d="M15,2A13,13,0,1,1,2,15,13,13,0,0,1,15,2m0-2A15,15,0,1,0,30,15,15,15,0,0,0,15,0Z"/></svg>