<?xml version="1.0" encoding="UTF-8"?>
<svg width="37px" height="23px" viewBox="0 0 37 23" version="1.1" xmlns="http://www.w3.org/2000/svg" xmlns:xlink="http://www.w3.org/1999/xlink">
    <!-- Generator: Sketch 44.1 (41455) - http://www.bohemiancoding.com/sketch -->
    <title>Voucher</title>
    <desc>Created with Sketch.</desc>
    <defs>
        <rect id="path-1" x="0" y="0" width="37" height="22.2" rx="2"></rect>
    </defs>
    <g id="Page-1" stroke="none" stroke-width="1" fill="none" fill-rule="evenodd">
        <g id="Changes" transform="translate(-483.000000, -757.000000)">
            <g id="Payment-Methods" transform="translate(50.000000, 50.000000)">
                <g id="Add-new-Payement" transform="translate(0.000000, 571.000000)">
                    <g id="Bloc" transform="translate(20.000000, 98.000000)">
                        <g id="OVH-Voucher" transform="translate(372.000000, 0.000000)">
                            <g id="Voucher" transform="translate(41.000000, 38.000000)">
                                <g id="Rectangle">
                                    <use fill="#FFFFFF" fill-rule="evenodd" xlink:href="#path-1"></use>
                                    <rect stroke="#CCCCCC" stroke-width="1" x="0.5" y="0.5" width="36" height="21.2" rx="2"></rect>
                                </g>
                                <path d="M27.7023963,5.66406387 C28.5269728,7.12891064 29,8.8212104 29,10.6256915 C29,13.0442338 28.1536433,15.2634458 26.7431512,16.9999382 L21.2257278,16.9999382 L22.9245764,14.0282153 L20.6784642,14.0282153 L23.3245942,9.40189544 L25.567332,9.40189544 L27.7023963,5.66406387 Z M16.7751925,17 L11.2574624,17 C9.84697019,15.2635076 9,13.0442956 9,10.6257533 C9,8.8187999 9.47456099,7.12464589 10.3012849,5.65825393 L13.8799717,11.9227917 L17.8338285,5 L23.633473,5 L16.7782601,16.9950554 L16.7810209,17 L16.7754992,17 L16.7751925,17 Z" id="Glyph-OVH" fill="#143F6C"></path>
                            </g>
                        </g>
                    </g>
                </g>
            </g>
        </g>
    </g>
</svg>