<?xml version="1.0" encoding="UTF-8"?>
<svg width="210px" height="208px" viewBox="0 0 210 208" version="1.1" xmlns="http://www.w3.org/2000/svg" xmlns:xlink="http://www.w3.org/1999/xlink">
    <!-- Generator: sketchtool 53.1 (72631) - https://sketchapp.com -->
    <title>3069C81F-DFC7-4C4F-BF1D-DA6F9EB47901</title>
    <desc>Created with sketchtool.</desc>
    <defs>
        <path d="M0.197944228,60.0036473 C0.197944228,92.941636 26.9363415,119.642617 59.9202205,119.642617 L59.9202205,119.642617 C92.9029619,119.642617 119.640222,92.941636 119.640222,60.0036473 L119.640222,60.0036473 C119.640222,27.0656587 92.9029619,0.363541419 59.9202205,0.363541419 L59.9202205,0.363541419 C26.9363415,0.363541419 0.197944228,27.0656587 0.197944228,60.0036473" id="path-1"></path>
        <linearGradient x1="7.96393337%" y1="50.0003467%" x2="93.5760744%" y2="50.0003467%" id="linearGradient-3">
            <stop stop-color="#F6C421" offset="0%"></stop>
            <stop stop-color="#ED7B11" offset="100%"></stop>
        </linearGradient>
        <path d="M2.22175332,0.174954308 C1.59265471,0.174954308 1.08414281,0.683912295 1.08414281,1.31102124 L1.08414281,1.31102124 L1.08414281,3.61723712 L11.5706364,3.61723712 L11.5706364,1.31102124 C11.5706364,0.683912295 11.0621245,0.174954308 10.4341635,0.174954308 L10.4341635,0.174954308 L2.22175332,0.174954308 Z" id="path-4"></path>
        <linearGradient x1="-0.00559665871%" y1="50.0057492%" x2="100.011447%" y2="50.0057492%" id="linearGradient-6">
            <stop stop-color="#F6C421" offset="0%"></stop>
            <stop stop-color="#ED7B11" offset="100%"></stop>
        </linearGradient>
        <polygon id="path-7" points="1.13466369 0.204492048 17.4740173 0.204492048 17.4740173 21.7223951 1.13466369 21.7223951"></polygon>
    </defs>
    <g id="Page-1" stroke="none" stroke-width="1" fill="none" fill-rule="evenodd">
        <g id="Assistance---Modal" transform="translate(-736.000000, -145.000000)">
            <g id="modal" transform="translate(542.000000, 80.000000)">
                <g id="illustration" transform="translate(188.000000, 51.000000)">
                    <circle id="Oval" fill="#E6F9FD" cx="111" cy="118" r="104"></circle>
                    <rect id="ZONE" x="0" y="14" width="221" height="208"></rect>
                    <g id="illustration/standard" transform="translate(5.000000, 0.000000)">
                        <g id="Group-196" transform="translate(1.189320, 41.626203)">
                            <g id="Group-3" transform="translate(42.091589, 7.747977)">
                                <mask id="mask-2" fill="white">
                                    <use xlink:href="#path-1"></use>
                                </mask>
                                <g id="Clip-2"></g>
                                <path d="M0.197944228,60.0036473 C0.197944228,92.941636 26.9363415,119.642617 59.9202205,119.642617 L59.9202205,119.642617 C92.9029619,119.642617 119.640222,92.941636 119.640222,60.0036473 L119.640222,60.0036473 C119.640222,27.0656587 92.9029619,0.363541419 59.9202205,0.363541419 L59.9202205,0.363541419 C26.9363415,0.363541419 0.197944228,27.0656587 0.197944228,60.0036473" id="Fill-1" fill="url(#linearGradient-3)" mask="url(#mask-2)"></path>
                            </g>
                            <g id="Group-50" transform="translate(71.669462, 27.061114)">
                                <path d="M6.29075857,86.4760518 C5.92331038,89.1537616 5.20889098,91.7837566 4.17025259,94.2785596 C17.4313782,94.9386145 29.5685447,85.3786112 42.836496,85.8864331 C45.9205581,86.0045841 49.02851,86.6703193 52.0659301,86.1238711 C55.1033501,85.578559 58.1669352,83.3166497 58.2590816,80.2356362 C58.3353015,77.6624446 56.4047765,75.5368633 54.7563789,73.5589708 C49.6780856,67.4707881 46.2277129,60.0397743 44.8546171,52.2361305 C44.3301786,49.2516826 44.0764915,46.135451 42.6431022,43.4656937 C41.209713,40.7948004 37.0597099,38.7033011 34.1383261,39.5235415 C32.5991391,39.9552469 30.6413114,49.0187889 29.2568394,49.8163079 C27.3854702,50.8944354 17.2516358,39.2168034 16.4837487,35.1996707 C13.223357,36.3493705 9.48289365,37.4150012 6.5751612,39.2826953 C4.96544233,40.3153801 3.37733807,41.501434 2.42857091,43.1600917 C1.57081258,44.6631083 1.31143739,46.4262842 1.11235555,48.1462895 C-0.0548328263,58.2413803 0.327404303,68.5148336 2.23972756,78.4985898 C2.61627664,80.4605774 4.48764592,87.344007 6.29075857,86.4760518" id="Fill-4" fill="#F5F5F6"></path>
                                <path d="M23.0833685,27.4660087 C23.0833685,27.4660087 19.4919321,24.3543213 20.0345724,19.478322 C20.576075,14.6023227 22.2039956,8.10061168 27.0866199,8.10061168 C31.9692442,8.10061168 36.8518685,5.93413203 42.2771329,11.8928031 C47.7012598,17.8526103 46.0733392,24.8950892 46.0733392,24.8950892 C46.0733392,24.8950892 40.8153034,24.7769382 38.561697,24.0237258 C36.3092282,23.2705135 30.8839637,25.4369931 30.8839637,25.4369931 L27.6292601,26.520801 L23.0833685,27.4660087 Z" id="Fill-6" fill="#5341F8"></path>
                                <path d="M36.7640449,5.20284574 C37.3806298,8.43609224 34.8835748,11.6261682 31.1863406,12.3293936 C27.4902441,13.0326191 23.9932294,10.9808822 23.3766445,7.74763568 C22.7600596,4.51552525 25.2571147,1.32431323 28.9543488,0.621087794 C32.6515829,-0.0810015725 36.14746,1.96959925 36.7640449,5.20284574" id="Fill-8" fill="#5341F8"></path>
                                <path d="M16.2365459,35.1887645 C16.2365459,35.1887645 21.6618104,32.4792448 22.2044506,30.8546691 C22.7470908,29.2289573 23.2897311,27.0624777 23.2897311,25.4367659 C23.2897311,23.8110541 22.2044506,21.1038066 23.8312337,20.0188627 C25.4591543,18.9350548 26.5444347,20.0188627 26.5444347,20.0188627 C26.5444347,20.0188627 27.6297151,20.5607666 27.6297151,21.6445745 C27.6297151,22.7283823 27.6297151,24.3540941 28.1712177,24.894862 C28.7138579,25.4367659 28.7138579,24.3540941 29.7991384,23.8110541 C30.8844188,23.2702863 36.8523235,19.4780948 37.3938261,18.9350548 C37.9364663,18.394287 39.5643869,24.3540941 41.1923076,24.3540941 C42.8190906,24.3540941 43.3617308,24.894862 43.3617308,24.894862 C43.3617308,24.894862 42.2764504,28.1462855 41.7338102,29.7708613 C41.1923076,31.396573 40.6485297,34.6468605 40.6485297,35.7306684 C40.6485297,36.8144763 40.6485297,36.8144763 39.5643869,36.8144763 L38.4791065,36.8144763 L36.795443,39.3354088 C36.491701,39.7909716 35.9786386,40.0624916 35.4325856,40.0590834 L33.918426,40.0499949 C33.918426,40.0499949 31.9696992,50.5961043 30.8844188,50.8994341 C29.7991384,51.2050361 26.5444347,49.8167623 24.9165141,47.6491466 C23.3909784,45.6178589 18.4071068,40.6066677 16.2365459,35.1887645" id="Fill-10" fill="#FCAE8B"></path>
                                <path d="M26.8155273,29.5007045 L26.8155273,32.750992 C26.8155273,33.8336638 25.7302469,36.0012795 28.4434479,37.6258553 C31.1555114,39.251567 34.1383261,40.064991 34.1383261,40.064991 C34.1383261,40.064991 30.3421199,38.9811831 28.7141992,38.4392792 C27.0862786,37.8985113 26.0021358,36.3602767 26.0021358,34.6470878 C26.0021358,33.5632799 26.8155273,29.5007045 26.8155273,29.5007045" id="Fill-12" fill="#F9895D"></path>
                                <polygon id="Fill-14" fill="#CDCED4" points="14.0668952 54.6916256 14.6095354 75.8213345 35.7668156 80.6973338 16.2363184 74.7375266"></polygon>
                                <path d="M35.7664743,80.6968793 C35.7664743,80.6968793 41.1917388,81.7795511 43.361162,80.6968793 C44.766111,79.995926 46.1699223,78.840546 46.9867267,78.1134631 C47.4406333,77.7078872 48.0856584,77.5954166 48.6544637,77.8158136 L56.1342527,80.7207368 C56.8031677,80.9808961 57.0397907,81.8079528 56.6086363,82.3805305 L54.8749179,84.6890186 C54.474479,85.221834 53.7884999,85.4569998 53.1446123,85.2820455 L48.6089593,84.0460047 C48.3734739,83.9823849 48.1209243,83.9994259 47.8968151,84.0959916 L44.4464424,85.5728786 C44.4464424,85.5728786 40.6490986,88.2812622 33.597051,86.6555504 C34.6811938,83.9471669 35.7664743,80.6968793 35.7664743,80.6968793" id="Fill-16" fill="#FCAE8B"></path>
                                <path d="M54.3686812,80.0356884 L56.0944364,78.2872814 C56.5892969,77.7862759 57.3503584,77.6590364 57.9805946,77.974863 L59.0943153,78.5303997 L56.9237544,82.3225911 L54.3686812,80.0356884 Z" id="Fill-18" fill="#FCAE8B"></path>
                                <path d="M47.1591884,77.9877005 C47.1591884,77.9877005 41.1912837,63.3608387 41.7339239,58.4848394 C41.7339239,66.6111262 45.2115992,79.5486565 45.2115992,79.5486565 L47.1591884,77.9877005 Z" id="Fill-20" fill="#CDCED4"></path>
                                <path d="M6.47186616,87.1982496 C6.47186616,86.6552096 31.4264902,87.1743922 31.4264902,87.1743922 L5.85983171,88.8864451 L6.47186616,87.1982496 Z" id="Fill-22" fill="#CDCED4"></path>
                                <path d="M29.2568394,112.118446 C29.2568394,112.118446 50.6848709,110.597252 62.4841671,104.044418 C54.2114635,103.450255 54.7541037,100.741872 29.2568394,112.118446" id="Fill-24" fill="#191D72"></path>
                                <path d="M71.5861887,105.484042 L103.84996,115.912001 C103.84996,115.912001 104.121849,108.326482 108.461833,107.784578 C103.204935,106.81324 104.121849,106.430386 95.9833836,106.70077 C87.8460557,106.97229 76.5291063,106.045259 71.5861887,105.484042" id="Fill-26" fill="#191D72"></path>
                                <path d="M65.5499136,87.3835421 C65.5499136,87.3835421 69.2471477,86.29519 72.5473558,86.6235133 C75.8475639,86.9518367 77.6563646,89.3580265 77.6563646,89.3580265 L70.8853069,88.0151953 L65.5499136,87.3835421 Z" id="Fill-28" fill="#191D72"></path>
                                <path d="M111.716423,106.29508 C111.716423,106.29508 113.750471,106.29508 114.428487,104.804561 C115.106502,103.315177 115.649143,99.7933693 115.649143,98.1687936 L115.649143,95.18889 C115.649143,95.18889 116.734423,95.0593784 118.497719,94.3118463 C120.261016,93.5631782 122.295063,93.0212743 124.465624,91.5318905 C126.635047,90.0413707 129.076359,88.7701118 130.297015,86.5627338 C131.517672,84.3542196 131.788423,81.1027961 133.551719,80.6972202 C133.808819,80.6370086 134.049993,80.5813413 134.271827,80.5302183 C135.292263,80.2927803 136.26492,81.0687141 136.26492,82.1138956 L136.26492,96.3385897 C136.26492,96.3385897 130.297015,92.2101225 127.177687,97.3565057 C124.058359,102.502889 122.973079,106.180338 122.295063,107.727661 C121.617047,109.274984 118.362344,113.337559 117.005174,114.286175 C115.649143,115.233655 113.20783,119.432558 113.20783,120.651558 C113.20783,121.870558 108.461719,117.264943 108.461719,117.264943 C108.461719,117.264943 106.291159,114.014655 111.716423,106.29508" id="Fill-30" fill="#191D72"></path>
                                <path d="M108.461264,96.9491121 L115.648688,96.4072082 C115.648688,96.4072082 115.920576,101.689919 114.429169,104.805015 C113.750016,106.719288 111.715968,106.295535 111.715968,106.295535 C111.715968,106.295535 109.032345,110.495574 108.605741,112.119014 C108.179137,113.742454 108.032385,115.234109 108.032385,115.234109 L104.252106,113.081263 C104.252106,113.081263 105.206561,109.275438 108.461264,107.784919 C107.647873,105.075399 105.206561,104.534631 108.461264,96.9491121" id="Fill-32" fill="#FCAE8B"></path>
                                <path d="M122.74806,106.590117 C122.74806,106.590117 125.373665,98.1116494 127.859344,96.407549 C130.345023,94.7034486 129.943446,94.3115055 133.409745,94.4660106 C136.38801,94.5977944 139.925978,98.3036447 134.229963,107.965894 C132.331291,111.125296 128.985578,111.6672 127.448666,114.647104 C125.911755,117.627007 122.816316,120.877295 122.148539,121.870217 C121.480762,122.86314 115.513994,127.0166 113.208058,120.651217 C115.874617,114.557354 114.091981,118.276838 114.091981,118.276838 C114.091981,118.276838 114.337705,116.45345 117.005402,114.285834 C119.673099,112.118219 121.665054,109.683627 122.74806,106.590117" id="Fill-34" fill="#CDCED4"></path>
                                <path d="M53.826041,86.5625065 L66.6241592,67.5811002 C66.9199379,67.1425783 67.4102481,66.8756026 67.9403746,66.8642419 L92.1498637,66.3632364 C92.6037703,66.3541479 92.8676959,66.8710584 92.5935318,67.2323276 L78.7920412,85.4003101 C78.512189,85.7683958 78.0889979,86.0001534 77.627128,86.0376436 L54.3686812,87.9189705 L35.7664743,87.0396547 L53.826041,86.5625065 Z" id="Fill-36" fill="#CDCED4"></path>
                                <path d="M121.554365,82.0415282 L101.266219,82.0415282 C99.3811986,82.0415282 97.8533877,80.5157903 97.8533877,78.6333274 L97.8533877,66.5069489 C97.8533877,64.624486 99.3811986,63.0987481 101.266219,63.0987481 L121.554365,63.0987481 C123.439386,63.0987481 124.967197,64.624486 124.967197,66.5069489 L124.967197,78.6333274 C124.967197,80.5157903 123.439386,82.0415282 121.554365,82.0415282" id="Fill-38" fill="#F4F8FB"></path>
                                <path d="M106.052829,79.4799244 L101.241874,79.4799244 C100.613913,79.4799244 100.104264,78.9709665 100.104264,78.3438575 L100.104264,70.5515744 C100.104264,69.9233294 100.613913,69.4155075 101.241874,69.4155075 L106.052829,69.4155075 C106.68079,69.4155075 107.19044,69.9233294 107.19044,70.5515744 L107.19044,78.3438575 C107.19044,78.9709665 106.68079,79.4799244 106.052829,79.4799244" id="Fill-40" fill="#FFFFFF"></path>
                                <path d="M121.636614,68.0426842 L101.242671,68.0426842 C100.61471,68.0426842 100.10506,67.5337262 100.10506,66.9066172 L100.10506,66.5248988 C100.10506,65.8966537 100.61471,65.3888318 101.242671,65.3888318 L121.636614,65.3888318 C122.264575,65.3888318 122.774225,65.8966537 122.774225,66.5248988 L122.774225,66.9066172 C122.774225,67.5337262 122.264575,68.0426842 121.636614,68.0426842" id="Fill-42" fill="#9FD6F0"></path>
                                <path d="M109.311742,79.4799244 L121.636614,79.4799244 C122.264575,79.4799244 122.774225,78.9709665 122.774225,78.3438575 L122.774225,70.5515744 C122.774225,69.9233294 122.264575,69.4155075 121.636614,69.4155075 L109.311742,69.4155075 C108.683781,69.4155075 108.174132,69.9233294 108.174132,70.5515744 L108.174132,78.3438575 C108.174132,78.9709665 108.683781,79.4799244 109.311742,79.4799244" id="Fill-44" fill="#2859C0"></path>
                                <path d="M106.964283,54.0847386 L73.6539096,54.0847386 C71.7700266,54.0847386 70.241078,52.5578646 70.241078,50.6765378 L70.241078,29.4525353 C70.241078,27.5712085 71.7700266,26.0443345 73.6539096,26.0443345 L106.964283,26.0443345 C108.849303,26.0443345 110.377114,27.5712085 110.377114,29.4525353 L110.377114,50.6765378 C110.377114,52.5578646 108.849303,54.0847386 106.964283,54.0847386" id="Fill-46" fill="#F4F8FB"></path>
                                <path d="M105.993332,50.2916383 L97.7809219,50.2916383 C97.152961,50.2916383 96.6433114,49.7838164 96.6433114,49.1555714 L96.6433114,38.8014573 C96.6433114,36.9189944 98.1711224,35.3932565 100.056143,35.3932565 L103.718111,35.3932565 C105.603132,35.3932565 107.130943,36.9189944 107.130943,38.8014573 L107.130943,49.1555714 C107.130943,49.7838164 106.621293,50.2916383 105.993332,50.2916383" id="Fill-48" fill="#FFFFFF"></path>
                            </g>
                            <g id="Group-53" transform="translate(167.228744, 62.279189)">
                                <mask id="mask-5" fill="white">
                                    <use xlink:href="#path-4"></use>
                                </mask>
                                <g id="Clip-52"></g>
                                <path d="M2.22175332,0.174954308 C1.59265471,0.174954308 1.08414281,0.683912295 1.08414281,1.31102124 L1.08414281,1.31102124 L1.08414281,3.61723712 L11.5706364,3.61723712 L11.5706364,1.31102124 C11.5706364,0.683912295 11.0621245,0.174954308 10.4341635,0.174954308 L10.4341635,0.174954308 L2.22175332,0.174954308 Z" id="Fill-51" fill="url(#linearGradient-6)" mask="url(#mask-5)"></path>
                            </g>
                            <g id="Group-70" transform="translate(71.669462, 36.149650)">
                                <path d="M103.642574,33.7542528 L99.1364986,33.7542528 C98.5085376,33.7542528 97.9988881,33.2452948 97.9988881,32.6181858 L97.9988881,32.112636 C97.9988881,31.484391 98.5085376,30.9765691 99.1364986,30.9765691 L103.642574,30.9765691 C104.270535,30.9765691 104.780184,31.484391 104.780184,32.112636 L104.780184,32.6181858 C104.780184,33.2452948 104.270535,33.7542528 103.642574,33.7542528" id="Fill-54" fill="#9FD6F0"></path>
                                <path d="M103.642574,39.6610056 L99.1364986,39.6610056 C98.5085376,39.6610056 97.9988881,39.1531837 97.9988881,38.5249386 L97.9988881,38.0193888 C97.9988881,37.3922799 98.5085376,36.8833219 99.1364986,36.8833219 L103.642574,36.8833219 C104.270535,36.8833219 104.780184,37.3922799 104.780184,38.0193888 L104.780184,38.5249386 C104.780184,39.1531837 104.270535,39.6610056 103.642574,39.6610056" id="Fill-56" fill="#9FD6F0"></path>
                                <path d="M105.676166,36.2305379 L100.720735,36.2305379 C100.215636,36.2305379 99.8072338,35.8226898 99.8072338,35.3182761 C99.8072338,34.8149985 100.215636,34.4082865 100.720735,34.4082865 L105.676166,34.4082865 C106.180128,34.4082865 106.58853,34.8149985 106.58853,35.3182761 C106.58853,35.8226898 106.180128,36.2305379 105.676166,36.2305379" id="Fill-58" fill="#4CBDE7"></path>
                                <path d="M105.993332,24.2729789 L74.7124561,24.2729789 C74.0844951,24.2729789 73.5748456,23.765157 73.5748456,23.136912 L73.5748456,21.4816625 C73.5748456,20.8534175 74.0844951,20.3455955 74.7124561,20.3455955 L105.993332,20.3455955 C106.621293,20.3455955 107.130943,20.8534175 107.130943,21.4816625 L107.130943,23.136912 C107.130943,23.765157 106.621293,24.2729789 105.993332,24.2729789" id="Fill-60" fill="#9FD6F0"></path>
                                <path d="M74.7123424,41.2031028 L94.0494457,41.2031028 C94.6774067,41.2031028 95.1870562,40.6952809 95.1870562,40.0670359 L95.1870562,27.440788 C95.1870562,26.813679 94.6774067,26.304721 94.0494457,26.304721 L74.7123424,26.304721 C74.0843814,26.304721 73.5747319,26.813679 73.5747319,27.440788 L73.5747319,40.0670359 C73.5747319,40.6952809 74.0843814,41.2031028 74.7123424,41.2031028" id="Fill-62" fill="#2859C0"></path>
                                <path d="M1.97864595,96.9791043 C1.52132653,97.0904388 1.04580534,97.2483521 0.715898291,97.8618283 C0.387128855,98.4741684 0.274505415,99.690896 0.599862019,100.503184 C0.822833678,101.059857 1.1720801,101.268893 1.49288627,101.442711 C5.84083361,103.780737 10.2297349,106.134668 14.5856456,106.499345 C16.9279856,106.695885 19.2339221,106.314166 21.5432714,106.021061 C30.7624669,104.850912 40.099974,105.097439 49.4283801,105.345101 C49.417004,104.523725 49.4044903,103.701212 49.3931142,102.879836 C45.8494575,100.701996 42.267122,101.464297 38.7428046,101.807389 C32.3642225,102.428817 25.8821179,101.604033 19.4034261,100.212351 C13.705135,98.9876706 7.5392861,95.6317289 1.97864595,96.9791043" id="Fill-64" fill="#F4F8FB"></path>
                                <path d="M23.9181471,0.177112835 C23.9181471,0.177112835 24.7850063,1.13027299 28.5539099,2.62306495 L23.5097449,0.624723208 L23.9181471,0.177112835 Z" id="Fill-66" fill="#191D72"></path>
                                <path d="M4.3016466,85.1524203 C4.3016466,85.1524203 -0.038337474,96.5301306 8.64163068,103.02957 C11.8963343,105.198321 29.2574082,103.02957 29.2574082,103.02957 C29.2574082,103.02957 48.2441276,93.820611 54.2120323,94.3613788 C60.1787994,94.9044188 85.1334234,98.6386709 95.9839524,97.6128024 C102.554791,96.9913738 108.461264,98.6966103 108.461264,98.6966103 C108.461264,98.6966103 105.206561,92.7368031 108.461264,87.8608038 C99.238656,86.778132 77.5387357,78.1099413 62.3493602,78.1099413 L31.4268315,78.1099413 C31.4268315,78.1099413 8.64163068,85.6943242 4.3016466,85.1524203" id="Fill-68" fill="#2D1AEF"></path>
                            </g>
                            <g id="Group-195" transform="translate(0.000000, 0.931575)">
                                <path d="M32.2380615,103.834359 C32.2380615,103.834359 32.3779876,122.436319 37.2344469,134.574059 C39.73719,138.540068 41.0408916,140.404354 48.9063306,140.404354 C56.7717697,140.404354 58.7421111,140.659969 60.702214,135.243202 C62.6634545,129.826435 68.1330858,110.720061 66.7952558,104.645511 C54.1666416,106.086044 50.1668031,106.892652 32.2380615,103.834359" id="Fill-72" fill="#D06114"></path>
                                <path d="M32.3085934,103.177485 C33.5929556,102.784406 52.5660236,97.1290651 66.7326872,104.255613 C66.7486138,104.263565 66.7463386,104.839551 66.7292744,104.84296 C58.0629576,106.618632 47.0315485,108.462469 32.3085934,103.720525 C32.2915292,103.714845 32.2915292,103.183166 32.3085934,103.177485" id="Fill-74" fill="#8E420E"></path>
                                <path d="M26.1829021,43.6892717 C24.354762,41.1001752 21.6370105,39.6062471 18.9317727,37.9975764 C24.0999373,35.4539225 28.6128381,36.3695924 31.3578923,40.4230793 L32.8766023,44.0709902 C32.8993545,44.9639388 33.1268766,45.7944037 33.5932969,46.5635211 C33.8947637,47.0645266 34.2383221,47.4587418 34.8844848,47.2190317 C35.4567029,47.0077232 35.4123361,46.4726357 35.3770702,46.0170729 C35.2837861,44.8741895 35.0050716,43.7687964 34.5215871,42.7224787 C34.145038,41.6363988 33.5512053,40.6741501 32.8606758,39.7641604 C33.0711337,38.9257431 33.4931872,39.8380048 33.7832779,39.6528259 C34.854907,40.4514809 35.9265361,41.2512721 36.9993028,42.0487911 C37.3940536,42.5043539 37.784254,42.9633249 38.1824177,43.4154796 C42.1572288,47.919985 43.5610402,52.9141352 41.0969758,58.646729 C40.3893821,59.7600746 39.4918074,60.6575675 38.2415734,61.1528926 C37.7717403,61.1438041 37.3030448,61.1403959 36.9651745,61.5527882 C35.1393096,61.7254704 36.218902,60.0872619 35.6535095,59.4362955 C33.9743964,57.5061178 32.1417059,55.8429158 29.924503,54.4739551 C26.9314498,52.6267103 23.6016639,51.9439341 20.3355841,50.9816854 C19.6587058,50.8442213 18.98069,50.7078932 18.3038117,50.5704291 C18.9681763,49.8956054 16.81923,48.3414658 19.0591851,48.1596951 L19.0955886,48.1801443 C19.1467811,48.6084415 19.0318825,49.1526176 19.6416417,49.2594079 C20.1444655,49.3491572 20.2821164,48.9651666 20.3435474,48.5550464 C21.2251955,46.5373915 19.8748518,45.5001624 18.4676277,44.6560647 C15.9876367,43.167817 13.2858118,42.1442207 10.4304094,41.3626066 C15.2629789,37.0251031 17.9101985,37.0660015 21.8815968,41.3955526 C22.923648,42.5316195 23.8041585,43.8142391 24.7574761,45.0298307 C25.2910155,45.9500449 25.7153442,47.6439207 26.9303122,46.9645527 C27.9120701,46.4146963 27.0679631,44.9298568 26.4673047,43.9585196 C26.4001857,43.8517293 26.2784614,43.7778849 26.1829021,43.6892717" id="Fill-76" fill="#1E5D59"></path>
                                <path d="M39.4941964,5.24499383 C39.5533521,6.00956688 40.1847259,6.36742796 40.6454582,6.83889574 C43.0037248,9.25417404 43.2744761,10.6026855 41.8604262,13.6916515 C40.9947046,15.5832029 39.9833689,17.4099986 39.1426747,19.3117746 C38.9071893,19.84459 38.2268983,20.6807353 39.0198128,21.1090325 C39.8491308,21.5555068 40.3212392,20.6739189 40.6852746,20.0422657 C42.0083156,17.7530908 42.8603859,15.2764649 43.5418145,12.7339471 C43.7101809,12.1068381 43.6771902,11.1411812 44.3108392,11.0128057 C45.1742856,10.8378514 45.3801931,11.9046182 45.7476413,12.4726517 C46.5075651,13.6439367 47.097985,14.9231481 47.7589367,16.1569167 C47.8112668,16.6772354 47.860184,17.1998262 47.9170645,17.7201448 C48.2560725,20.8034305 48.3812096,23.8514981 46.4575103,26.5621538 C45.4120462,27.2653792 44.5303981,28.2003623 43.1265867,28.3173772 C41.1357683,28.483243 40.7740082,29.8113052 41.183548,31.4972286 C41.4508864,32.5958053 42.0890859,33.6205377 41.8001329,34.8202244 C41.3632904,34.0090726 40.5294219,33.6250819 39.8764335,33.0468239 C39.7035167,32.9582107 39.5305999,32.8684614 39.3576831,32.7798481 L39.3713344,32.8059777 C38.779777,30.6985735 37.7786797,28.8149745 36.5079688,27.023397 C35.3225786,25.3488343 34.0586934,23.6947209 33.3556501,21.7225087 C33.7083093,19.148181 31.8392153,17.010103 31.9222609,14.481218 C31.9313617,14.2006095 31.65606,13.6848351 31.3193273,13.7825368 C29.9917358,14.1676635 29.7482872,12.7543963 28.8780151,12.4147123 C30.7607605,11.4842734 31.182814,9.70973688 31.3443547,7.89089372 C31.5525374,5.55286797 31.4069233,3.21484221 30.5434769,0.70640642 C33.3931912,1.43916959 35.5387246,2.99103703 37.7479642,4.41680103 C38.2906045,4.76784571 38.7012818,5.41540387 39.4941964,5.24499383" id="Fill-78" fill="#1E5D59"></path>
                                <path d="M28.0858969,25.425746 C25.2418707,26.6833721 22.2465422,27.0264644 19.1829571,26.7731214 C17.4276241,26.6265688 16.1523628,25.8233695 15.6393004,23.9727164 C15.1944947,22.3719981 14.5653961,20.8212668 13.905582,18.9274432 C16.1933167,19.9544477 18.2478413,20.5565632 20.2443477,21.2745575 C22.0793135,21.9334763 23.6446655,21.3631707 25.3124025,21.0871064 C25.9688038,20.9769079 26.8424887,20.63836 26.7196267,19.8874197 C26.5683245,18.9649334 25.6081813,19.3216584 25.013211,19.4227684 C23.1281904,19.7420032 21.2317937,19.8203918 19.3456354,19.6408932 C13.5665741,19.0887647 11.8021402,15.7918984 14.4186443,10.471697 C16.3571326,11.5691376 18.1795847,12.8915196 20.3103291,13.6061057 C21.0975556,13.8696732 22.2067259,14.4990543 22.5992015,13.3391299 C23.0189798,12.100817 21.7585073,12.1053612 20.947391,11.8997331 C20.3581088,11.7509083 19.7620009,11.6270771 19.1795443,11.4521227 C15.6643278,10.4058051 14.8884775,9.1618118 15.4356681,5.53889434 C15.6063097,4.40964381 15.9771707,3.28720968 15.722346,2.12614927 C15.3526226,0.444770205 16.3218667,1.10141689 17.0624512,1.34453522 C17.0214972,2.71235981 18.2319148,3.18723579 18.9781872,3.97680231 C20.8984738,6.00808999 22.9666497,7.90986604 24.4159655,10.3421853 C24.5479283,12.2644106 25.3522189,14.0593964 25.4170627,16.0316086 C25.4386773,16.6757585 25.4841817,18.3287359 26.2475184,18.3173752 C28.1234381,18.2901096 27.8595125,19.4648028 27.5671466,20.350935 C26.9664882,22.1754585 27.5068532,23.7795851 28.0858969,25.425746" id="Fill-80" fill="#208162"></path>
                                <path d="M28.0858969,25.425746 C27.5068532,23.7795851 26.9664882,22.1754585 27.5671466,20.350935 C27.8595125,19.4648028 28.1234381,18.2901096 26.2475184,18.3173752 C25.4841817,18.3287359 25.4386773,16.6757585 25.4170627,16.0316086 C25.3522189,14.0593964 24.5479283,12.2644106 24.4148278,10.3421853 C26.5228201,11.4555309 27.6012749,13.4731858 28.868573,15.3386077 C30.3292649,17.4914546 31.8570758,19.5965866 33.3564464,21.7221678 C34.0583521,23.6955161 35.3222374,25.3496296 36.5087651,27.0230562 C37.7783384,28.8146337 38.7794357,30.6993688 39.3709932,32.8056369 C38.0456769,32.4080134 36.9729102,32.6761252 35.884217,33.6429182 C34.4633414,34.9084968 32.7546505,35.7151043 30.7365294,35.473122 C30.8127493,35.1152609 31.0266201,34.641521 30.4942184,34.5426832 C29.928826,34.4393011 29.8071016,34.963028 29.6933406,35.3958695 L29.5147357,35.421999 L29.3622959,35.3265694 C29.2508101,34.8891836 28.8116924,34.4904241 29.1097464,34.0053235 C30.3338153,32.0160703 29.6671755,30.5357751 27.659293,29.3145032 C28.8424079,29.006629 28.9641323,28.2579609 28.8753986,27.4013665 C29.6557994,26.6776918 31.6648196,26.6538344 31.1381059,25.3428132 C30.6580343,24.1453986 29.1620765,25.7086267 28.0858969,25.425746" id="Fill-82" fill="#276E60"></path>
                                <g id="Group-86" transform="translate(15.926547, 0.000000)">
                                    <mask id="mask-8" fill="white">
                                        <use xlink:href="#path-7"></use>
                                    </mask>
                                    <g id="Clip-85"></g>
                                    <path d="M17.4296718,21.7223951 C15.9314388,19.5968138 14.4024903,17.4905457 12.942936,15.3388349 C11.6745003,13.472277 10.5960455,11.4557582 8.48919087,10.3412765 C7.03987509,7.91009325 4.97169919,6.0083172 3.05141266,3.97702952 C2.30514017,3.187463 1.09472259,2.71258702 1.13567657,1.34476243 C4.1821975,1.39020511 7.10244366,0.38137767 10.1182491,0.231416835 C13.2045864,0.0780477985 13.5322182,0.473399092 13.4980899,3.57145363 C13.4787505,5.33235738 13.1841094,7.03759385 12.4969927,8.6746663 C11.9429764,9.99364001 11.8701693,11.2808038 12.9520369,12.4145987 C13.8211713,12.7542827 14.06462,14.1675499 15.3922114,13.7824232 C15.7289441,13.6847215 16.0053835,14.2004959 15.9962826,14.4811044 C15.913237,17.0111255 17.7823311,19.1480674 17.4296718,21.7223951" id="Fill-84" fill="#25635F" mask="url(#mask-8)"></path>
                                </g>
                                <path d="M19.0594126,48.1592407 C16.8194576,48.3410114 18.9684038,49.895151 18.3040393,50.5699747 C15.5840125,50.5665665 12.8981141,49.8871985 10.1644361,50.1700792 C6.87560413,50.1712152 3.58563455,50.1734874 0.296802581,50.1746234 C0.807589697,49.1260336 1.65624713,48.3421475 2.43437272,47.5128186 C7.08264924,42.5572946 11.6399169,42.2289713 16.8535859,46.6255503 C17.5634548,47.2242576 18.6043684,47.2685642 19.0594126,48.1592407" id="Fill-87" fill="#25635F"></path>
                                <path d="M16.1232399,59.9370738 C16.2654412,59.7496228 16.3701014,59.6121587 16.473624,59.4758306 C16.3280098,59.3758567 16.17557,59.19295 16.0367815,59.2020385 C15.9048187,59.2088549 15.7865072,59.4201634 15.6625077,59.5417225 C15.7956081,59.6564653 15.9298461,59.771208 16.1232399,59.9370738 M10.1644361,50.1691703 C12.8981141,49.8874257 15.5840125,50.5667937 18.3040393,50.5702019 C18.9809175,50.707666 19.6577958,50.8439941 20.3358116,50.9814582 C20.3870041,51.9936938 20.1003262,52.9968409 21.3312208,53.745509 C22.104796,54.2158407 22.3789601,55.3348667 21.5576053,56.2584891 C19.5861263,58.4510983 17.5463907,60.5585024 14.6739241,61.5923233 C14.1244583,60.0177346 15.0641245,58.3170424 14.2621091,56.7651749 C14.8297768,55.9381182 16.2768173,55.205355 15.5453338,54.1738062 C14.8127126,53.1377132 13.6341481,54.2010719 12.6728673,54.5168985 C12.1131629,54.7032134 11.54322,54.8577185 10.9778276,55.0269925 C10.6774984,54.6305052 10.3771693,54.2328817 10.0768401,53.8363944 C11.9538974,52.658293 9.83452905,51.3847619 10.1644361,50.1691703" id="Fill-89" fill="#227961"></path>
                                <path d="M27.1477096,60.2965254 C26.6016565,61.6904795 25.5732566,62.7924644 24.8520116,64.0728119 C22.0125357,69.1089966 18.2368065,68.0842642 14.3393529,66.400613 C14.0333357,66.2688293 13.7523459,66.07797 13.4588424,65.9132403 C13.5282366,65.6712581 13.5987685,65.4315479 13.6693003,65.1895657 C17.3665344,63.0708008 21.1604655,61.0690509 23.2616321,57.0735035 C23.8463639,57.1530282 24.4868386,57.4313646 24.2377019,58.0482489 C23.8395382,59.0400354 24.7905806,59.4967343 24.8690757,60.2658516 C24.9043416,60.6146241 25.1568912,60.9259065 25.5129633,60.9440835 C25.9498057,60.9668049 25.9816588,60.5771339 26.030576,60.2363138 C26.0817685,59.8807249 25.9316039,59.2876979 26.5083725,59.3672226 C26.7586468,59.4024407 26.936114,59.9704742 27.1477096,60.2965254" id="Fill-91" fill="#227961"></path>
                                <path d="M10.1640948,50.1696247 C9.83418777,51.3840803 11.9535561,52.6576113 10.0764988,53.8368488 C10.376828,54.2333362 10.6771572,54.6309596 10.9774863,55.0263109 C10.4211948,55.2592046 9.87969219,55.5432213 9.30519888,55.7181756 C3.95387907,57.3404792 1.82085937,56.2180451 0.038223713,50.8558092 C-0.0516475169,50.5865613 0.0120586713,50.326402 0.297598908,50.1753051 C3.58643088,50.174169 6.87526285,50.1718969 10.1640948,50.1696247" id="Fill-93" fill="#208162"></path>
                                <path d="M41.8005879,34.8204516 C42.089541,33.6196288 41.4502039,32.5960325 41.184003,31.4974558 C40.7744632,29.8115325 41.1362234,28.4834702 43.1270418,28.3164684 C44.5308531,28.2005895 45.4113636,27.2656065 46.4568277,26.561245 C48.173482,25.8273457 48.5716456,27.138367 49.0938089,28.2573929 C48.333885,31.1543636 47.5750988,34.0524703 46.8163126,36.9517131 C46.6797994,36.9380803 46.5421485,36.9267197 46.4056352,36.9130869 C45.1747407,36.3223321 43.9449837,35.7315773 42.7152268,35.1408224 C42.4513011,35.1453667 42.1885131,35.149911 41.9257251,35.1544553 C41.8415419,35.0590256 41.8005879,34.9476911 41.8005879,34.8204516" id="Fill-95" fill="#082625"></path>
                                <path d="M28.8757399,27.4015937 C28.9644735,28.2581881 28.8416116,29.0068562 27.6596343,29.3147304 C29.6663792,30.5360023 30.333019,32.0162976 29.1100877,34.0044147 C28.8108961,34.4906513 29.2511514,34.8894108 29.3626372,35.3267966 C24.8702133,34.280479 21.2253093,31.9697188 18.1378344,27.7378695 C22.0216366,27.9287287 25.4515323,27.7106039 28.8757399,27.4015937" id="Fill-97" fill="#208162"></path>
                                <path d="M14.2618816,56.7651749 C15.063897,58.3170424 14.1242307,60.0177346 14.6736966,61.5923233 C14.6395683,61.7945432 14.6065776,61.9956271 14.5735869,62.1967109 C14.0457356,62.4977687 13.5121963,62.7863297 12.9923083,63.0987481 C10.3530519,64.6869697 8.04711543,64.0166902 6.56253372,61.2924017 C6.20987446,60.6448435 6.41009391,60.331289 6.91633059,59.9700198 C7.9788588,59.2122631 9.17107461,58.685128 10.4031068,58.3806621 C11.7921292,58.0352978 13.0605649,57.5058906 14.2618816,56.7651749" id="Fill-99" fill="#208162"></path>
                                <path d="M44.3018521,41.2031028 C43.7876522,40.0738523 43.2734522,38.9446018 42.7592523,37.8142152 C42.4816753,36.9269469 42.2029607,36.0396786 41.9253838,35.1546825 C42.1893094,35.1501382 42.4520974,35.1455939 42.7148855,35.1410497 C43.0061138,35.9476572 43.297342,36.7554008 43.5885703,37.5631444 C43.9582938,38.7605589 44.3268796,39.9568374 44.6977406,41.154252 C44.5669154,41.1792454 44.4349526,41.1951504 44.3018521,41.2031028" id="Fill-101" fill="#1E5D59"></path>
                                <path d="M20.3432061,48.5553872 C20.2817751,48.9643713 20.1441243,49.349498 19.6413004,49.2597487 C19.0326788,49.1518224 19.1475774,48.6087824 19.0952474,48.1804851 C19.5241265,48.2656901 19.8392446,48.7246612 20.3432061,48.5553872" id="Fill-103" fill="#25635F"></path>
                                <path d="M29.6934543,35.3962103 C29.8072154,34.9622327 29.9289397,34.4385059 30.4943321,34.543024 C31.0267339,34.6418619 30.8128631,35.1156018 30.7366432,35.4723268 C30.3885344,35.4484694 30.0415632,35.4212038 29.6934543,35.3962103" id="Fill-105" fill="#208162"></path>
                                <path d="M39.3575693,32.780189 C39.5304861,32.8688022 39.7034029,32.9574154 39.8763197,33.0460286 C39.7034029,32.9574154 39.5304861,32.8688022 39.3575693,32.780189" id="Fill-107" fill="#276E60"></path>
                                <path d="M29.1113391,73.4012847 C27.8269768,73.4694487 27.3821711,73.1411254 28.1420949,71.8301041 C29.2706045,69.8885657 31.0247999,68.637756 32.7232524,67.3051495 C34.2681275,66.956377 35.7049295,66.1281842 37.3601528,66.2690565 C38.510277,68.2514933 40.6239574,68.5071083 42.5260421,69.1433058 C42.2075112,69.7465574 42.7706284,70.1339562 42.8912151,70.6292814 C42.8195456,71.6062989 42.2643917,72.3674638 41.7661183,73.1558942 C40.4510406,75.2417131 39.1427885,77.3309402 37.8311236,79.4190313 C37.2918962,79.4190313 36.7071644,79.397446 36.4079728,79.9359417 C35.5752419,81.4332779 34.0599447,82.0263049 32.6959498,82.8249599 C29.7757036,82.8204157 27.5607759,84.4995226 25.1774819,86.2002148 C24.9169691,83.5020558 25.2355001,81.0935939 25.5767832,78.6874042 C26.1990562,76.7969888 26.5460274,74.7066256 28.9270462,74.0965577 L36.0894419,74.0965577 C36.0894419,73.7705065 36.0883043,73.4444552 36.0871667,73.1195401 C33.7903311,72.1391143 31.4502663,72.7968971 29.1113391,73.4012847" id="Fill-109" fill="#1E5D59"></path>
                                <path d="M48.7401257,97.2885689 C48.6422912,97.2987935 48.5433191,97.3101542 48.444347,97.3203788 C48.1952103,98.6950198 47.9358351,100.067389 47.7014874,101.444302 C47.5626989,102.263406 47.9802019,102.4963 48.7458138,102.447449 C49.4704717,102.40087 49.9050389,102.237276 49.6877553,101.37273 C49.3464721,100.017402 49.0529686,98.6495771 48.7401257,97.2885689 M51.0107963,101.968029 C51.1268326,98.2939881 50.4226517,94.7131052 49.4750221,90.7993546 C48.3476501,94.998258 49.9528185,98.4246358 51.0107963,101.968029 M47.1793241,105.500061 C43.2033754,105.246718 39.2479037,104.853639 35.3891289,103.800505 C35.6189262,103.358575 36.0557686,103.414242 36.445969,103.375616 C39.1955736,103.109776 41.9440406,102.821215 44.6981956,102.601954 C45.5684677,102.531518 46.3682078,102.536062 46.3101897,101.348872 C47.2464432,97.0579473 48.3180722,92.7738389 47.1338197,88.3477221 C47.3385896,88.0250791 47.5410843,87.7013 47.7447166,87.3763849 C47.8960188,87.9296495 48.0484586,88.4829141 48.2725678,89.3008823 C48.599062,87.7035722 48.5012275,86.4538985 48.1235409,85.2189938 C48.9335195,84.933841 49.1109868,84.2237991 49.2804907,83.5069409 C49.5023248,83.1025011 49.7252964,82.6969252 49.9482681,82.2924854 C49.8925252,84.0420284 49.4750221,85.8733683 49.8515712,87.5240736 C50.8310539,91.8059099 51.759344,96.084338 52.3531767,100.437746 C52.4134701,100.877404 52.1495444,101.723774 52.9879634,101.654474 C53.5783832,101.605623 53.6853186,100.951249 53.7433367,100.382079 C54.0277394,97.5498643 54.075519,94.7221937 53.9390058,91.8774821 C53.643227,85.7131829 52.4248462,79.6954363 51.2030525,73.6742816 C51.8378392,73.6720095 52.0471595,74.2900299 52.4976532,74.5570056 C54.3929123,83.389926 55.7762467,92.2694252 54.945791,101.350008 C54.6136088,102.451993 55.2688724,102.563328 56.128906,102.620131 C58.2505496,102.759867 60.3517162,103.042748 62.8555969,103.831178 C59.2903256,104.980878 56.0378971,104.946796 52.8821656,105.471659 C52.474901,105.481884 52.0687741,105.493244 51.6626471,105.502333 C51.5284091,105.450074 51.3964463,105.454618 51.2678963,105.518238 L50.0233504,105.528462 C49.0745832,105.518238 48.1269537,105.509149 47.1793241,105.500061" id="Fill-111" fill="#082625"></path>
                                <path d="M23.2622009,57.0736171 C23.2974668,55.5433349 22.4749744,55.8023582 21.5569227,56.257921 C22.3794151,55.3354347 22.1041134,54.2152727 21.3316759,53.744941 C20.0996437,52.9962729 20.3863215,51.9931258 20.3351291,50.9820262 C23.6023464,51.9431388 26.9309948,52.6270511 29.924048,54.4742959 C32.1423885,55.8432566 33.975079,57.5064586 35.6541921,59.4366363 C36.2184469,60.0864666 35.1388546,61.7258112 36.9647194,61.551993 C37.0159119,62.1370674 37.0659667,62.723278 37.1160216,63.3072164 C37.0989575,64.3626226 36.5267394,64.9386085 35.5802474,65.3623615 C34.3857564,65.8951769 33.2652101,66.592722 32.1139482,67.2198309 C29.5930033,67.8946547 27.0834346,68.6206014 24.0198495,68.8455427 C25.8343382,66.7540435 27.4577084,64.9329282 28.641961,62.8005305 C29.430325,61.3793108 30.1379188,59.9194648 30.0127816,58.2449021 C29.97069,57.6882293 29.9126719,56.8838939 29.1800507,56.7964168 C28.4952092,56.7134839 28.498622,57.4950979 28.2733752,57.9472526 C27.8865876,58.7243224 27.5214146,59.5127528 27.1482784,60.296639 C26.9366828,59.9705878 26.7592156,59.4025543 26.5078037,59.3673362 C25.9321727,59.2878116 26.0823373,59.8808385 26.0311449,60.2364274 C25.9822276,60.5772475 25.9503745,60.9669185 25.5135321,60.9441971 C25.1563224,60.9260201 24.9049105,60.6147377 24.8696445,60.2659652 C24.7911494,59.4968479 23.8389694,59.0390129 24.2382707,58.0483625 C24.4862698,57.4303421 23.8457951,57.1531418 23.2622009,57.0736171" id="Fill-113" fill="#276E60"></path>
                                <path d="M37.8311236,79.418804 C39.1427885,77.330713 40.4510406,75.2414859 41.7661183,73.155667 C42.2632541,72.3672366 42.8195456,71.6060717 42.8912151,70.6290542 C43.9241654,70.7165313 44.959391,70.8040085 45.9934789,70.8914856 L45.9604882,70.8664922 C46.0264696,71.3356878 46.3939178,71.1936794 46.6783205,71.219809 C46.8956041,71.3788583 47.1117501,71.5379077 47.3278961,71.6980932 C48.3221676,72.985257 50.502967,73.4964871 49.9978679,75.7652128 C48.2231955,76.7206451 46.4496608,77.6749413 44.676126,78.6292375 C44.3223291,78.3202273 43.9685322,78.0123532 43.6135978,77.704479 C43.1813058,77.3284409 42.6409408,76.991029 42.190447,77.4818099 C41.7501918,77.9600941 42.3645014,78.3077306 42.637528,78.6383261 C43.3974518,79.5574042 44.1926415,80.4480807 44.9730423,81.3501178 C43.7159827,81.8886136 42.1472178,81.5091672 41.1006162,82.6622751 C40.7445441,82.5679816 40.3896096,82.1646778 40.0346751,82.4475585 C39.6649517,82.744072 39.8992995,83.1394233 40.0915556,83.4881958 C40.306564,83.8790028 40.4931322,84.2857148 40.692214,84.6856104 C40.5147468,84.7412776 40.3054264,84.7526383 40.1666379,84.8594286 C39.0005872,85.7546493 36.6116051,84.9980288 36.6138803,87.4735186 C36.5217339,87.5541794 36.4136609,87.5916696 36.2907989,87.5871253 C35.4603433,86.9213901 34.6105482,87.361048 33.7664412,87.5462269 C34.5798328,84.5674594 36.5183211,82.1487729 37.8311236,79.418804" id="Fill-115" fill="#276E60"></path>
                                <path d="M37.8311236,79.4186851 C36.5183211,82.1487729 34.5798328,84.5674594 33.7664412,87.5462269 C32.2625202,90.229617 31.9280627,93.3515289 30.5504163,96.0814978 C30.1101611,95.3226051 29.6699058,94.5637124 29.2307882,93.8059557 C28.8394501,92.6960183 27.9236737,91.9359895 27.3161897,90.9726048 C24.8407492,87.0463575 25.1911333,87.1133854 29.1454674,85.5558376 C30.314931,85.0957305 31.6368344,85.0321108 32.8711418,84.7219645 C33.331874,84.6060857 33.7596156,84.2459525 33.8153585,83.7483551 C33.9029545,82.9610608 33.0736364,83.134879 32.6959498,82.8247327 C34.0599447,82.0260777 35.5752419,81.4330507 36.4079728,79.9357145 C36.7071644,79.3972188 37.2918962,79.418804 37.8311236,79.4186851" id="Fill-117" fill="#25635F"></path>
                                <path d="M32.695836,82.8248463 C33.0746603,83.1349926 33.9039783,82.9611744 33.8152447,83.7473327 C33.7606394,84.2460661 33.3317603,84.6061993 32.871028,84.7220781 C31.6367206,85.0322244 30.3148172,85.0958441 29.1453536,85.5559512 C25.1910195,87.113499 24.8406355,87.0464711 27.3160759,90.9727184 C27.9246975,91.9361031 28.8393364,92.6949959 29.2306744,93.8060693 C28.4662001,94.7399163 27.7017259,95.6771716 26.7438578,96.8518648 C25.613073,93.766307 24.7348377,90.7398247 23.4095214,87.9212426 C21.8953619,84.7016289 21.8111787,81.9546191 24.7519018,79.5563818 C25.0579191,79.305311 25.3025053,78.9781237 25.5766695,78.6872905 C25.2353863,81.0946164 24.917993,83.5019422 25.1785058,86.2001012 C27.5606622,84.499409 29.7755898,82.8203021 32.695836,82.8248463" id="Fill-119" fill="#F5F6F2"></path>
                                <path d="M36.6141079,87.473405 C36.6118326,84.9979152 39.0008147,85.7545357 40.1668655,84.859315 C40.3056539,84.7525247 40.5149743,84.741164 40.6913039,84.6854968 C41.8437033,86.0703623 42.472802,87.6813053 42.7685807,89.4376647 C43.2532028,92.3244108 41.1531738,94.5590545 38.2568174,94.2932148 C37.3285273,94.2080098 37.6402325,93.6286157 37.6618471,93.1298823 C37.7164524,91.8483988 37.8188374,90.5669153 37.8040484,89.2877039 C37.7949476,88.4856407 37.7062139,87.6188216 36.6141079,87.473405" id="Fill-121" fill="#208162"></path>
                                <path d="M41.1001611,82.6628432 C42.1479004,81.5085992 43.7166653,81.8880455 44.9725873,81.3506859 C45.5482182,82.0402785 46.1249867,82.7310072 46.69948,83.4205998 C48.8848298,84.4373797 47.0748915,81.4620204 48.5742621,81.7199076 C49.1487554,82.0936736 48.4946294,83.1240864 49.2807183,83.5069409 C49.1112143,84.2237991 48.9337471,84.933841 48.124906,85.2178577 C48.0509613,85.0372231 48.016833,84.8213704 47.8951087,84.6839063 C47.6482472,84.4067059 47.5151468,84.4453322 47.5526879,84.8543163 C47.6300454,85.6938698 47.6823755,86.5356954 47.7438065,87.3763849 C47.5413118,87.7013 47.3376795,88.0250791 47.1340472,88.3477221 C46.0601429,89.347461 44.9873762,90.3471999 43.6654728,91.5764244 C43.6120051,88.1807203 43.14786,85.171279 41.1001611,82.6628432" id="Fill-123" fill="#208162"></path>
                                <path d="M30.5505301,96.0814978 C31.9281764,93.3515289 32.2626339,90.229617 33.766555,87.5462269 C34.610662,87.361048 35.4593194,86.9213901 36.2909127,87.5871253 C35.9780698,89.2071568 36.8904334,90.7067651 36.7152414,92.3438376 C36.5764529,93.6321375 36.1543994,94.5830255 34.8575235,94.8352324 C33.3774922,95.1237934 32.1374968,96.2007848 30.5505301,96.0814978" id="Fill-125" fill="#208162"></path>
                                <path d="M29.1113391,73.4012847 C31.4502663,72.7968971 33.7903311,72.1391143 36.0871667,73.1195401 C36.0883043,73.4444552 36.0894419,73.7705065 36.0894419,74.0965577 L28.9270462,74.0965577 C28.9884771,73.8648 29.0499081,73.6330424 29.1113391,73.4012847" id="Fill-127" fill="#F5F6F2"></path>
                                <path d="M35.3970921,118.422368 C35.3379364,118.397374 35.2799183,118.371245 35.2207625,118.347387 C35.2765054,118.374653 35.3322483,118.401918 35.3891289,118.43032 C35.3891289,118.431456 35.3970921,118.422368 35.3970921,118.422368" id="Fill-129" fill="#D06114"></path>
                                <path d="M76.8881362,39.9627449 C72.3160796,44.003735 72.1477133,44.0446334 66.6667058,41.1999218 C65.4790405,40.5841736 64.4062738,39.7468922 63.2754889,39.0209455 C62.9649213,38.8209977 62.6759682,38.3552102 62.2516395,38.7187517 C61.8876041,39.030034 62.0605209,39.4753722 62.2106855,39.8457301 C62.7169222,41.0988119 63.7362212,41.8781538 64.8385658,42.5461612 C66.6894581,43.6720035 68.6723132,44.5013324 70.8337731,45.0443724 C70.3298117,45.8577963 69.4902551,45.8896062 68.7485331,46.1054589 C67.8247933,46.1565819 67.1274381,45.666937 66.385716,45.2045578 C64.6258326,44.1082532 62.7214726,43.3788982 60.620306,43.2664276 C59.0276513,43.4118442 58.2438377,43.0767044 58.8661106,41.1715202 C59.2062562,40.1308829 59.9218132,39.1595456 59.8069145,37.9768999 C61.7977329,34.6039172 64.6622361,32.020501 67.5347027,29.4416291 C68.6404601,29.1735173 69.2035773,27.9624699 70.3741785,27.8079648 C71.0624328,28.5009656 71.7495496,29.1939665 72.4378039,29.8869673 C71.9850349,30.6185944 69.9851157,30.017615 70.7712045,31.817145 C70.8030576,33.191786 70.6836085,34.5823319 71.2012213,35.9058499 C70.2228763,35.6718201 69.2524945,35.3821231 68.2616358,35.2219376 C67.6450509,35.1219637 66.7599899,34.7731912 66.4801377,35.5922954 C66.1798085,36.467067 67.1001354,36.5613605 67.6791792,36.8771872 C70.2160506,38.266597 73.0589393,37.9496343 75.7653147,38.2768216 C77.1816397,38.4472317 77.344318,38.843719 76.8881362,39.9627449" id="Fill-131" fill="#1E5D59"></path>
                                <path d="M67.5345889,29.4418563 C64.66326,32.0207282 61.7987567,34.6041444 59.8068007,37.9771272 C59.3096649,37.9282763 58.5815942,37.6283546 58.7829513,37.2602689 C59.5235357,35.8992607 57.8410098,33.7452778 60.2299918,32.9488949 C60.6986874,32.7921177 60.6827608,32.1968186 60.3460281,31.9389314 C59.619095,31.3845307 59.8591308,31.1664059 60.4802662,30.7369726 C60.8511272,30.4802215 61.2527037,29.8769699 60.5337338,29.4066382 C60.5405595,27.1390486 60.6634214,24.8805475 61.3698776,22.7027072 C61.7646284,21.4848435 62.3402593,20.3714979 63.4846955,19.6637282 C65.224102,18.9127879 67.0169761,19.3365409 69.0362348,19.3013228 C67.8360557,20.9065854 66.7871788,22.3368937 65.708724,23.7433445 C65.0898639,24.5522242 64.5449485,25.4054105 64.3288025,26.3960608 C64.1570233,27.1833552 64.040987,28.1785498 64.8919197,28.5670847 C65.8975674,29.029464 65.662082,27.5991557 66.2945934,27.3617177 C66.2331625,28.3375992 66.6745554,29.0146951 67.5345889,29.4418563" id="Fill-133" fill="#227961"></path>
                                <path d="M67.5345889,29.4418563 C66.6745554,29.0146951 66.2331625,28.3375992 66.2945934,27.3617177 C66.3014191,27.2378864 66.3207585,27.1140551 66.3537492,26.9947681 L66.69617,26.5255724 C67.4481305,24.1227909 69.0123449,22.2880428 70.8359346,20.6396097 C71.6299867,19.9227514 72.5833043,19.5717067 73.6390069,19.7148512 C76.0405026,20.0420384 78.4192462,20.4794242 80.557954,21.7245536 C79.2701789,22.4005134 77.9084591,22.9662747 76.7116928,23.7751544 C74.6355537,25.1804692 72.0850309,25.838252 70.3740647,27.808192 C69.2034635,27.9626971 68.6403463,29.1737445 67.5345889,29.4418563" id="Fill-135" fill="#208162"></path>
                                <path d="M70.3741785,27.8077376 C72.0840071,25.8389336 74.6356674,25.1800148 76.7118066,23.7747 C77.9085728,22.9658203 79.2702926,22.400059 80.5580677,21.7252352 C81.4476791,23.6826786 80.7935531,25.6321694 80.5114257,27.5805242 C80.4249673,28.171279 79.8800519,28.2178578 79.4557231,28.3666825 C77.1805021,29.1630654 74.8609143,29.766317 72.4378039,29.8867401 C71.7495496,29.1948753 71.0624328,28.5007384 70.3741785,27.8077376" id="Fill-137" fill="#25635F"></path>
                                <path d="M71.2012213,35.9055091 C70.6836085,34.5819911 70.8030576,33.1914452 70.7712045,31.8168042 C73.0418751,32.4643624 75.2397386,32.170121 77.5104092,31.6157204 C78.3920573,31.4010037 80.1462527,30.5614502 80.463646,32.4257361 C80.7981035,34.3956761 79.2714302,36.2236078 77.6309959,36.3485752 C75.4627103,36.5133049 73.3467547,36.0100273 71.2012213,35.9055091" id="Fill-139" fill="#25635F"></path>
                                <path d="M66.6958287,26.5252316 L66.3545455,26.9944273 C66.4683066,26.83765 66.5820676,26.6820089 66.6958287,26.5252316" id="Fill-141" fill="#227961"></path>
                                <path d="M60.5333926,29.406411 C61.2523624,29.8767427 60.8507859,30.4799942 60.4799249,30.7367454 C59.8587895,31.1661787 59.6187537,31.3843035 60.3456868,31.9387042 C60.6824195,32.1965914 60.6983461,32.7918905 60.2296506,32.9486677 C57.8406685,33.7450506 59.5231944,35.8990335 58.78261,37.2600417 C58.5823905,37.6281274 59.3093237,37.9280491 59.8064595,37.9768999 C59.9224957,39.1595456 59.2058011,40.1308829 58.8667932,41.1715202 C58.2445202,43.0767044 59.0271963,43.4118442 60.619851,43.2664276 C60.5754842,44.7444507 60.564108,46.2133852 61.1761425,47.6130197 C61.7142323,48.8433802 61.4594075,49.9646782 60.6187134,50.9769139 L60.4594479,51.064391 L60.5299797,51.1359633 L60.6187134,50.9769139 C60.9622717,51.1677731 61.0202899,51.505185 61.0657943,51.8494133 C61.0657943,51.8494133 61.0771704,51.8141952 61.0760328,51.8141952 C60.9315562,51.9141691 60.7870797,52.0118709 60.6426032,52.1118448 C60.2114488,52.5117403 59.4958918,52.8684653 59.8553767,53.5614662 C60.2159992,54.254467 60.9361067,53.7932238 61.4946734,53.7421008 C61.8894243,53.7057467 62.2739366,53.558058 62.664137,53.4603562 C62.9166866,53.8318501 63.6925369,54.2135686 63.3967582,54.525987 C62.2329827,55.7552114 64.0235816,57.0321507 63.1885755,58.2681915 C62.859806,58.7555642 63.441125,59.0600301 63.9689763,59.1054728 C64.2147002,59.346319 64.4615616,59.5871652 64.7072855,59.8280114 C64.4262957,60.6562042 63.5617117,59.6791866 63.2147405,60.2926628 C64.1009391,62.1330912 63.4092719,64.1382493 63.873417,66.0116237 C63.3023365,65.7355594 62.9803928,65.2322818 62.6095317,64.7426369 C59.8906426,61.1526654 57.9532919,57.0639605 55.3310997,53.4149135 C54.3641308,51.9039445 53.3971619,50.3918394 52.4301929,48.8797343 C52.7202836,48.2083188 53.0627044,47.5528081 53.2868137,46.8598073 C53.5291247,46.1111392 54.5279467,45.4863024 53.7293441,44.5376865 C51.8318098,43.222121 50.9308223,41.2090104 50.0013945,39.216349 C49.2005167,36.0035517 49.7579459,32.9054971 50.8011347,29.8494771 C51.1196656,29.2780354 51.4359214,28.7077298 51.9558094,27.7727467 C52.2970925,29.2098714 51.9683231,30.4288712 52.5223394,31.4581479 C52.4324682,32.1670536 52.7453111,32.7793937 53.0547411,33.3644682 C53.2572358,33.7495949 53.4688313,34.3153562 54.0501503,34.2017495 C54.6360197,34.0870068 54.6326069,33.5326061 54.6087171,33.0656826 C54.5871025,32.6680592 54.4858551,32.2738439 54.4187361,31.8784926 C54.2025901,30.7730995 53.954591,29.6733867 53.7759862,28.5634493 C53.4051251,26.2515531 53.8351419,24.1986802 55.817997,22.6945275 C56.486912,22.3082648 57.1569646,21.9231381 57.8258796,21.5380114 C58.9703157,21.2062798 60.1158895,20.8745483 61.5686181,20.4530675 C60.5129156,22.8456244 59.2581312,24.8257891 58.8394905,27.1354132 C58.7063901,27.8715846 58.5141339,28.591851 58.7723715,29.3189338 C58.9452883,29.8074426 59.0260586,30.4811303 59.6506068,30.5561107 C60.4412461,30.6504043 60.146605,29.729054 60.5333926,29.406411" id="Fill-143" fill="#276E60"></path>
                                <path d="M60.6183721,50.9772547 C61.4590662,49.963883 61.713891,48.843721 61.1758012,47.6133605 C60.5637668,46.213726 60.5751429,44.7447915 60.6195097,43.2667684 C62.7218139,43.379239 64.6250363,44.108594 66.3860573,45.2048986 C67.1277794,45.6672779 67.8251346,46.1569227 68.7477367,46.1057997 C69.1094969,47.5224752 70.6225188,47.9303232 71.3312502,49.0493491 C71.7567165,49.7184925 72.4313196,50.2285866 72.6997956,51.3203469 C68.7602505,51.2976256 64.8764482,51.0397384 61.065453,51.8497541 C61.0210862,51.5055258 60.9630681,51.168114 60.6183721,50.9772547" id="Fill-145" fill="#227961"></path>
                                <path d="M74.4184976,53.0829548 C75.2500909,53.9884001 75.390017,55.2244409 75.9406204,56.2639422 C76.2546009,57.210286 76.5674438,58.1554936 76.8802867,59.1018374 C76.8791491,59.7084971 77.0099743,60.4435324 75.9792992,59.8459612 C73.856518,58.6156007 71.5119027,58.0487033 69.1251959,57.6215422 C68.6565004,55.8390532 69.2742229,54.0645166 69.162737,52.2854358 C70.7849696,52.0161879 72.3537345,52.2820276 73.8997472,52.7591757 C73.8997472,52.7603118 73.9839304,52.6330723 73.9839304,52.6330723 C73.9486644,52.9568513 74.1966635,53.0079744 74.4184976,53.0829548" id="Fill-147" fill="#208162"></path>
                                <path d="M69.1631921,52.2853222 C69.2735403,54.064403 68.6558178,55.8389396 69.1245133,57.6202925 C68.4738001,57.6032515 67.8208117,57.5839384 67.1700985,57.5657613 C66.8913839,57.0783886 66.4397525,56.9738704 65.9676442,57.1408723 C65.6286363,57.2601593 65.8174796,57.5714416 65.8936995,57.8088796 C65.661627,57.848642 65.4295544,57.8884043 65.1974819,57.9270306 C64.8004558,57.900901 64.4489342,57.9611126 64.3090081,58.409859 C64.195247,58.6416167 64.0826236,58.8733743 63.9688625,59.105132 C63.4410113,59.0596893 62.8596923,58.7552234 63.1884617,58.2689867 C64.0234678,57.0329459 62.2328689,55.7560067 63.3966444,54.5267822 C63.6924232,54.2132278 62.9165728,53.8315093 62.6640233,53.4600154 C63.2988099,53.2021282 63.9222205,52.8897098 64.6434656,52.995364 C64.7754284,52.9351525 64.9062536,52.8772131 65.0382164,52.8170015 C65.8026907,52.7295244 66.5671649,52.6409111 67.3339144,52.553434 C67.6888489,52.5829717 68.0426457,52.604557 68.3179475,52.3125878 C68.5989373,52.3046353 68.8810647,52.2955468 69.1631921,52.2853222" id="Fill-149" fill="#227961"></path>
                                <path d="M68.3178337,52.3130422 C68.042532,52.6050114 67.6887351,52.5822901 67.3338006,52.5538884 C67.6125152,52.2766881 67.9492479,52.2323815 68.3178337,52.3130422" id="Fill-151" fill="#208162"></path>
                                <path d="M60.6422619,52.1121856 C60.7867384,52.0122117 60.931215,51.9133739 61.0756915,51.8134 C60.931215,51.9133739 60.7867384,52.0122117 60.6422619,52.1121856" id="Fill-153" fill="#227961"></path>
                                <path d="M65.0377614,52.8166607 C64.9069362,52.8768722 64.7761109,52.9348116 64.6441481,52.9950232 C64.7749733,52.9348116 64.9057985,52.8757362 65.0377614,52.8166607" id="Fill-155" fill="#208162"></path>
                                <path d="M37.1151115,63.3075572 C37.0661943,62.7224827 37.0161394,62.1374082 36.9649469,61.5523338 C37.3039549,61.1410775 37.7715128,61.1444857 38.2424835,61.1535743 C37.8909619,61.9101949 37.5610548,62.7520205 38.4574919,63.2836998 C39.3766812,63.8290119 39.4278737,62.6634072 39.8886059,62.3157708 C40.522255,61.8363505 41.1388399,61.2535482 41.5506549,60.5855408 C41.9601947,59.9186695 42.5892933,58.9711897 41.0967483,58.6462746 C43.5608126,52.9148169 42.1581389,47.9195306 38.1821902,43.4150252 C37.7840265,42.9640066 37.3938261,42.5038995 36.9990752,42.0483366 C37.8045035,42.0733301 38.807876,41.7972658 39.3789564,42.1744401 C41.439169,43.5365843 42.8043017,42.2051139 44.3025347,41.2031028 C44.4344975,41.1951504 44.5664603,41.1781094 44.6984231,41.155388 C48.3660794,41.1440273 50.9131893,43.0083132 52.6423573,46.0915989 C53.4091068,45.6985197 53.4000059,45.0100631 53.7287753,44.5385954 C54.5285155,45.4860752 53.5285559,46.110912 53.2862448,46.8595801 C53.0621356,47.5525809 52.7208524,48.2080916 52.4307617,48.8806432 C47.9519892,47.6866368 44.0113064,50.5972403 42.9647047,54.4859974 C42.2810008,57.023971 42.4288902,59.5289986 42.9794937,62.0283458 C43.358318,63.7472151 44.0613613,65.3661105 45.046532,66.8361811 C45.3309346,67.2599341 45.6585664,67.870002 46.2592248,67.7552592 C46.8030026,67.6518772 46.6949296,67.0054551 46.8268924,66.5646611 C47.5799906,64.0425925 48.4980422,61.5807355 49.7551018,59.2620228 C50.1475775,58.5383482 50.534365,57.2659532 51.5161229,57.7805916 C52.6685223,58.3838431 51.5252238,59.3176901 51.1998672,60.0072827 C49.7482762,63.0860241 47.5720273,65.9080144 47.9713286,69.6059123 C47.2227809,70.1398637 47.6709994,71.0407648 47.3285786,71.6985476 C47.111295,71.5383621 46.895149,71.3781767 46.679003,71.2191273 C46.4401048,71.1009764 46.200069,70.9839615 45.9611708,70.8658105 L45.9930239,70.8919401 C45.1147886,69.7604174 43.7451055,69.5990959 42.5255871,69.143533" id="Fill-157" fill="#082625"></path>
                                <path d="M32.876261,44.0709902 L34.5212458,42.7224787 C35.0058679,43.7687964 35.2845825,44.8741895 35.3767289,46.0170729 C35.4119948,46.4726357 35.4563616,47.0077232 34.8841436,47.2190317 C34.2379808,47.4587418 33.89556,47.0645266 33.5929556,46.5635211 C33.1265353,45.7944037 32.9001508,44.9639388 32.876261,44.0709902" id="Fill-159" fill="#082625"></path>
                                <path d="M16.1232399,59.9370738 C15.9298461,59.771208 15.7956081,59.6564653 15.6625077,59.5417225 C15.7865072,59.4201634 15.9048187,59.2088549 16.0367815,59.2020385 C16.17557,59.19295 16.3280098,59.3758567 16.473624,59.4758306 C16.3701014,59.6121587 16.2654412,59.7496228 16.1232399,59.9370738" id="Fill-161" fill="#208162"></path>
                                <path d="M47.9718974,69.6057987 C47.5725961,65.9079008 49.748845,63.0859105 51.1992984,60.0071691 C51.524655,59.3175765 52.6679535,58.3837295 51.5166917,57.7804779 C50.5349338,57.2658396 50.1470087,58.5382346 49.754533,59.2630453 C48.4974734,61.5817579 47.5794217,64.043615 46.8263236,66.5645475 C46.6943608,67.0053415 46.8024338,67.6517635 46.2597936,67.7551456 C45.6591352,67.8698884 45.3315034,67.2609565 45.0471008,66.8360675 C44.0607925,65.3671329 43.3588868,63.7471015 42.9800625,62.0282322 C42.429459,59.528885 42.2815696,57.0238574 42.9641359,54.4858838 C44.0118752,50.5971267 47.952558,47.6865232 52.4313306,48.8805296 C53.3971619,50.3914986 54.3641308,51.9036037 55.3310997,53.4145727 C54.6997259,53.8962651 55.1456692,54.4858838 55.3424758,54.8664663 C57.1854048,58.4518935 56.3287841,62.5621837 57.6336234,66.2896193 C58.1353096,67.7233358 57.8622831,69.4444772 59.1102418,70.6702934 C58.952114,72.8060992 59.0419852,74.9419051 59.5118183,77.0254518 C59.8496887,78.5227881 59.086352,78.3398813 58.2399698,77.9899727 C56.945369,77.452613 55.9021802,76.4028872 54.4801671,76.1097819 C53.8192154,75.5928714 53.1582637,75.0736888 52.497312,74.5567784 C52.0468182,74.2898027 51.8374979,73.6717822 51.2038488,73.6751904 C50.0468989,72.3812102 48.5498035,71.3576139 47.9718974,69.6057987" id="Fill-163" fill="#1E5D59"></path>
                                <path d="M46.5920896,79.2767957 C46.5841263,79.3699532 46.5750254,79.4631107 46.5670622,79.5562681 C46.6023281,79.5130976 46.6637591,79.4721992 46.6683095,79.4267565 C46.6728599,79.3801778 46.6205299,79.3267826 46.5920896,79.2767957 M49.9980954,75.7652128 C50.2677091,77.9430531 50.1653242,80.1186213 49.9491782,82.2919173 C49.7250689,82.6974932 49.5032349,83.1019331 49.2802632,83.5075089 C48.495312,83.1246544 49.149438,82.0931056 48.5738071,81.7193396 C47.0744364,81.4625885 48.8843748,84.4368117 46.7001626,83.4200318 C46.9083453,82.0374383 45.9743671,81.0263388 45.530699,79.8550537 C45.5636897,79.7993865 45.5966804,79.7437192 45.6285335,79.6880519 C45.5966804,79.7459913 45.5659649,79.8027947 45.5341118,79.8607341 C45.247434,79.4494779 44.9618937,79.0393577 44.6752159,78.6292375 C46.4498883,77.6749413 48.2234231,76.7206451 49.9980954,75.7652128" id="Fill-165" fill="#227961"></path>
                                <path d="M45.961057,70.8661513 C46.1999553,70.9843023 46.4399911,71.1013172 46.6788893,71.2194682 C46.3944866,71.1933386 46.0270385,71.335347 45.961057,70.8661513" id="Fill-167" fill="#E1935A"></path>
                                <path d="M59.1119482,70.6731336 C57.8617143,69.4450452 58.1347408,67.7227677 57.6330546,66.2901873 C56.3282153,62.5616156 57.1859737,58.4513255 55.341907,54.8670343 C55.146238,54.4864519 54.7002947,53.8956971 55.3305309,53.4151407 C57.9538607,57.0641877 59.8900738,61.1528926 62.6089629,64.7428642 C62.979824,65.232509 63.3029053,65.7346506 63.8728482,66.0107149 L63.8739858,66.0107149 C64.0082239,66.1470429 64.1424619,66.2833709 64.2778375,66.4185629 C64.4382406,66.776424 64.5258366,67.1979048 64.7715605,67.4841937 C67.3482483,70.4834104 69.7736339,73.6189551 72.7189075,76.2887124 C73.2968136,76.8124393 74.0328476,77.2839071 74.0464989,78.2200262 C71.1228399,77.8973832 68.3083916,78.8175974 65.4370626,78.9811911 C61.0788768,79.2311258 60.5976676,78.4699609 61.2938852,74.1313213 C61.5839759,72.3181585 62.5634585,70.714032 62.6374032,68.881556 C62.6692563,68.0806288 62.6510545,67.0922506 61.6545077,66.9275209 C60.8763821,66.8002814 60.4907322,67.5091871 60.0629906,68.1908273 C59.5635796,68.9894824 59.9424039,70.0596574 59.1119482,70.6731336" id="Fill-169" fill="#25635F"></path>
                                <path d="M74.0463852,78.2195718 C74.0327339,77.2845887 73.2966999,76.8131209 72.7187937,76.2893941 C69.7735201,73.6185007 67.3481345,70.482956 64.7714467,67.4848753 C64.5257229,67.1985864 64.4381269,66.7771056 64.2777238,66.4181085 C64.1423481,66.2829165 64.0081101,66.1465885 63.8738721,66.0113965 L63.8727344,66.0113965 C63.4085894,64.1380221 64.1013942,62.132864 63.2151956,60.2935716 C63.5621668,59.6800955 64.4256131,60.655977 64.7077406,59.8289202 C66.8703381,59.7528038 69.0147339,59.1881785 71.1955333,59.5914822 C71.1852948,61.623906 71.1773315,63.6563297 71.167093,65.6898896 C70.7074984,65.5774189 70.2444909,65.4797172 69.7905843,65.3490695 C69.0682016,65.1411692 68.3424061,65.1502578 68.1012327,65.9580014 C67.8384447,66.835045 68.5517264,67.1156536 69.2559073,67.2792472 C69.8463272,67.4178474 70.4435727,67.5314541 71.0339926,67.6734624 C73.8143126,68.3414698 75.4536094,69.8762962 75.6822691,72.0223267 C75.7004709,72.2983909 75.717535,72.5755913 75.7357368,72.8516555 C75.089574,74.1081455 74.9166572,75.4600652 74.8791161,76.8494751 C74.8631895,77.4390938 75.1874085,78.2900079 74.0463852,78.2195718" id="Fill-171" fill="#227961"></path>
                                <polygon id="Fill-173" fill="#227961" points="60.6183721 50.9772547 60.5296385 51.1363041 60.4591066 51.0647319"></polygon>
                                <path d="M76.5299027,79.6352248 C76.0009138,78.9888027 75.9224187,78.4707562 75.3319988,78.3912315 C75.2068617,78.3753266 74.9156334,78.637758 74.9338351,78.6843368 C75.1215409,79.1876144 75.4343838,79.5795575 76.5299027,79.6352248 M74.0464989,78.2196854 C75.1875223,78.2901215 74.8633033,77.4380713 74.8792298,76.8495887 C74.916771,75.4601788 75.0885502,74.1082592 75.7358505,72.8517691 C77.860907,74.0446394 78.6811241,77.6993667 77.3171291,79.8397168 C76.8484336,80.5770243 76.5537925,79.1410357 76.0509687,79.876071 C78.0986676,82.5833185 75.6357408,84.1170089 74.3218007,85.9835668 C72.8770353,85.3882678 72.7405221,83.745515 71.7519386,82.7900827 C71.0397944,82.1038982 70.3424391,80.4213831 69.3743326,81.3518219 C68.3880243,82.2993018 70.135394,82.9093697 70.7656302,83.5285262 C73.0761172,85.7983879 72.9828331,86.665207 71.3105457,89.4474349 C70.0512109,91.5423423 69.0364623,92.0933348 66.8761399,90.6925643 C65.255045,89.6417024 63.1231629,89.6314778 61.4008206,88.6215143 C60.3985857,88.0353037 60.108495,87.3991062 60.6590985,86.3312033 C61.3154998,85.0599444 62.0230935,83.8432167 63.073108,82.8525664 C63.4667213,82.4822085 63.8773986,82.1220753 64.2175442,81.7074109 C64.6634875,81.1609627 65.0252476,80.3941175 64.5383503,79.8613021 C63.9558938,79.2228325 63.2915292,79.8749349 62.7909806,80.2623337 C60.643172,81.9232636 59.9822203,84.4203387 59.1460766,87.1298584 C56.7093149,84.2646976 54.9460186,81.3006989 54.126939,77.8209259 C53.9915634,77.246076 53.9688111,76.5985179 54.4795983,76.108873 C55.902749,76.4031144 56.9459378,77.4528402 58.239401,77.9901999 C59.0857832,78.3401085 59.8491198,78.5230153 59.5123871,77.025679 C59.042554,74.9421323 58.9526828,72.8063264 59.109673,70.6705206 C59.9424039,70.0593166 59.5635796,68.9891415 60.0629906,68.1916226 C60.4907322,67.5088463 60.8763821,66.7999406 61.6545077,66.9271801 C62.6510545,67.0919098 62.6692563,68.080288 62.6374032,68.8812152 C62.5634585,70.7136912 61.5839759,72.3189537 61.2938852,74.1309805 C60.5976676,78.4707562 61.0777392,79.231921 65.4370626,78.9819863 C68.3083916,78.8172566 71.1228399,77.8981785 74.0464989,78.2196854" id="Fill-175" fill="#082625"></path>
                                <path d="M75.6828379,72.022213 C75.4530406,69.8761826 73.8137438,68.3413562 71.0334238,67.6733488 C70.4430039,67.5313405 69.846896,67.4177338 69.2553385,67.2791336 C68.5522953,67.11554 67.8390135,66.8360675 68.1006639,65.9578877 C68.3418373,65.1501442 69.0687704,65.1410556 69.7900155,65.3489559 C70.2439221,65.4796036 70.7080672,65.5773053 71.1676618,65.6886399 C72.9480222,66.7656313 74.7283827,67.8426228 76.5087431,68.9218864 C76.6077152,69.1229702 76.7066873,69.3240541 76.8056595,69.526274 C76.9171453,69.9659319 77.0604842,70.4010455 77.1287408,70.8486559 C77.2060984,71.3507975 77.4427213,72.0653836 77.207236,72.3300872 C76.7271643,72.869719 76.255056,71.919967 75.6828379,72.022213" id="Fill-177" fill="#082625"></path>
                                <path d="M74.4184976,53.0829548 C74.1966635,53.0079744 73.9486644,52.9568513 73.9839304,52.6330723 L74.4184976,53.0829548 Z" id="Fill-179" fill="#EE975B"></path>
                                <path d="M67.1696434,57.5662157 C66.7441771,57.6468765 66.3187108,57.7286733 65.8943821,57.809334 C65.8181622,57.5718961 65.6281812,57.2594776 65.9671891,57.1413267 C66.4404351,56.9743248 66.8920665,57.0777069 67.1696434,57.5662157" id="Fill-181" fill="#208162"></path>
                                <path d="M65.1977094,57.9268034 C64.9019307,58.0881249 64.6050143,58.2483103 64.3092356,58.4096318 C64.4491617,57.9608854 64.7995457,57.9018099 65.1977094,57.9268034" id="Fill-183" fill="#276E60"></path>
                                <path d="M46.5932272,79.2767957 C46.6205299,79.3267826 46.6728599,79.3801778 46.6683095,79.4267565 C46.6637591,79.4721992 46.6023281,79.5130976 46.5670622,79.5562681 C46.5750254,79.4631107 46.5841263,79.3699532 46.5932272,79.2767957" id="Fill-185" fill="#276E60"></path>
                                <path d="M45.5344531,79.8603933 C45.5651686,79.8024538 45.5970217,79.7456505 45.6288748,79.6888472 C45.5958841,79.7433784 45.5628934,79.7990456 45.5310403,79.8547129 C45.5310403,79.855849 45.5344531,79.8603933 45.5344531,79.8603933" id="Fill-187" fill="#276E60"></path>
                                <path d="M63.873417,66.0112829 C64.007655,66.1464749 64.1430307,66.2828029 64.2772687,66.4179949 C64.1430307,66.2828029 64.007655,66.1464749 63.873417,66.0112829" id="Fill-189" fill="#276E60"></path>
                                <path d="M77.6497665,62.0560659 C77.7976558,64.4315818 77.7544266,66.7752879 76.5087431,68.9201823 C74.7283827,67.8431908 72.9480222,66.7661994 71.1676618,65.6880719 C71.1767627,63.6556481 71.1858636,61.6232244 71.1949645,59.5908006 C73.614662,59.7112237 75.7681587,60.5280558 77.6497665,62.0560659" id="Fill-191" fill="#208162"></path>
                                <path d="M76.5299027,79.6352248 C75.4343838,79.5795575 75.1215409,79.1876144 74.9338351,78.6843368 C74.9156334,78.637758 75.2068617,78.3753266 75.3319988,78.3912315 C75.9224187,78.4707562 76.0009138,78.9888027 76.5299027,79.6352248" id="Fill-193" fill="#F5F6F2"></path>
                            </g>
                        </g>
                    </g>
                </g>
            </g>
        </g>
    </g>
</svg>