<?xml version="1.0"
		encoding="utf-8"?>
<svg version="1.1"
	 xmlns="http://www.w3.org/2000/svg"
	 xmlns:xlink="http://www.w3.org/1999/xlink"
     viewBox="0 0 681.06 55.64"
	 fill="#000E9C"
	 xml:space="preserve">
    <g transform="matrix(1 0 0 1 1241.33 419.7)">
		<g transform="matrix(1 0 0 1 -109.93 0)">
			<path vector-effect="non-scaling-stroke"
				  class="fill"
				  d="M-1058.26-417.01c7.89,14.22,6.41,31.79-3.74,44.49h-21.44l6.6-11.67
				h-8.73l10.29-18.15h8.78L-1058.26-417.01z M-1100.6-372.52h-21.86c-10.35-12.66-11.85-30.37-3.79-44.59l14.18,24.63l15.63-27.22
				h23l-27.15,47.16l0,0l0,0L-1100.6-372.52z"/>
		</g>
		<g transform="matrix(1 0 0 1 -41.24 0.67)">
			<path vector-effect="non-scaling-stroke"
				  class="fill"
				  d="M-1108.88-396.09c0-12.59,6.27-18.64,16.57-18.64
				s16.56,6.05,16.56,18.64s-6.31,18.6-16.56,18.6S-1108.88-383.62-1108.88-396.09z M-1105.16-396.09
				c0,10.35,4.72,15.28,12.85,15.28s12.84-4.93,12.84-15.28s-4.72-15.35-12.84-15.35S-1105.16-406.49-1105.16-396.09z"/>
		</g>
		<g transform="matrix(1 0 0 1 -8.38 0.66)">
			<path vector-effect="non-scaling-stroke"
				  class="fill"
				  d="M-1081.54-413.23c0.27-0.7,0.95-1.17,1.7-1.17
				c0.48,0,0.94,0.19,1.28,0.53c0.34,0.34,0.53,0.8,0.52,1.28c-0.01,0.27-0.06,0.54-0.16,0.79l-12.42,32.75
				c-0.24,0.74-0.92,1.24-1.7,1.24s-1.46-0.5-1.69-1.24l-12.42-32.75c-0.1-0.25-0.15-0.52-0.16-0.79c-0.01-0.48,0.18-0.94,0.52-1.28
				c0.34-0.34,0.8-0.53,1.28-0.53c0.75,0,1.43,0.47,1.7,1.17l10.77,28.56L-1081.54-413.23z"/>
		</g>
		<g transform="matrix(1 0 0 1 22.68 0.66)">
			<path vector-effect="non-scaling-stroke"
				  class="fill"
				  d="M-1101.55-394.92v15.29c0.05,0.68-0.28,1.33-0.86,1.68
				c-0.58,0.35-1.31,0.35-1.89,0c-0.58-0.35-0.91-1-0.86-1.68v-33c-0.05-0.68,0.28-1.33,0.86-1.68c0.58-0.35,1.31-0.35,1.89,0
				c0.58,0.35,0.91,1,0.86,1.68v14.42h18.48v-14.38c-0.05-0.68,0.28-1.33,0.86-1.68c0.58-0.35,1.31-0.35,1.89,0
				c0.58,0.35,0.91,1,0.86,1.68v33c0.05,0.68-0.28,1.33-0.86,1.68c-0.58,0.35-1.31,0.35-1.89,0s-0.91-1-0.86-1.68v-15.33H-1101.55z"
			/>
		</g>
		<g transform="matrix(1 0 0 1 51.44 6.44)">
			<path vector-effect="non-scaling-stroke"
				  class="fill"
				  d="M-1091.19-408.87c3.15-0.14,6.18,1.22,8.17,3.66
				c0.24,0.28,0.37,0.63,0.37,1c0.01,0.41-0.15,0.81-0.44,1.1c-0.29,0.29-0.69,0.45-1.1,0.44c-0.5,0-0.97-0.23-1.27-0.64
				c-1.39-1.71-3.53-2.64-5.73-2.49c-4.89,0-7.49,3.13-7.49,9.66s2.6,9.71,7.49,9.71c2.25-0.02,4.43-0.83,6.15-2.28
				c0.28-0.24,0.63-0.37,1-0.37c0.85,0,1.54,0.69,1.54,1.54c0,0.53-0.26,1.02-0.69,1.32c-2.23,1.9-5.07,2.92-8,2.87
				c-6.85,0-10.94-4.09-10.94-12.79C-1102.13-404.84-1098.04-408.87-1091.19-408.87z"/>
		</g>
		<g transform="matrix(1 0 0 1 69.72 -0.17)">
			<path vector-effect="non-scaling-stroke"
				  class="fill"
				  d="M-1092.53-413.52v30.32c0,2.12,0.69,3,2.12,3
				c0.6-0.05,1.18,0.25,1.49,0.76s0.31,1.16,0,1.67s-0.89,0.81-1.49,0.76c-3.55,0-5.52-2.13-5.52-6.21v-30.3
				c0.03-0.93,0.77-1.67,1.7-1.69C-1093.29-415.21-1092.53-414.45-1092.53-413.52z"/>
		</g>
		<g transform="matrix(1 0 0 1 87.28 6.44)">
			<path vector-effect="non-scaling-stroke"
				  class="fill"
				  d="M-1081.17-396.13c0,8.7-4.25,12.79-11.15,12.79s-11.14-4.09-11.14-12.79
				c0-8.7,4.3-12.74,11.14-12.74C-1085.48-408.87-1081.17-404.84-1081.17-396.13z M-1084.62-396.13c0-6.69-2.81-9.66-7.7-9.66
				s-7.69,3-7.69,9.66c0,6.66,2.81,9.71,7.69,9.71s7.74-2.92,7.74-9.71H-1084.62z"/>
		</g>
		<g transform="matrix(1 0 0 1 113.08 6.6)">
			<path vector-effect="non-scaling-stroke"
				  class="fill"
				  d="M-1098.78-407.01v13.85c0,3.45,1.11,6.42,6.47,6.42s6.48-3,6.48-6.42
				v-13.85c0.01-0.46,0.19-0.89,0.52-1.21c0.33-0.32,0.77-0.49,1.23-0.49c0.44,0.01,0.87,0.19,1.18,0.51
				c0.31,0.32,0.48,0.75,0.47,1.19v13.85c0,5-1.65,9.66-9.88,9.66s-9.87-4.62-9.87-9.66v-13.85c-0.01-0.45,0.17-0.89,0.49-1.21
				c0.32-0.32,0.76-0.5,1.21-0.49C-1099.54-408.7-1098.78-407.95-1098.78-407.01z"/>
		</g>
		<g transform="matrix(1 0 0 1 138.37 -0.03)">
			<path vector-effect="non-scaling-stroke"
				  class="fill"
				  d="M-1085.07-398.95v-14.71c0-0.94,0.76-1.7,1.7-1.7
				c0.94,0,1.7,0.76,1.7,1.7v26.33c0,7-4.35,10.46-10.4,10.46c-6.85,0-10.89-4.09-10.89-12.79c0-8.7,3.83-12.74,10.67-12.74
				C-1089.47-402.44-1086.8-401.17-1085.07-398.95z M-1085.07-394.65c0,0-2-4.67-7-4.67s-7.49,3.13-7.49,9.66
				c0,6.53,2.6,9.71,7.49,9.71c4.08,0,7-2.33,7-7.38V-394.65z"/>
		</g>
	</g>
    <g id="_x37_3379683-787c-4fcf-8e09-8c37de9198c9"
	   transform="matrix(1 0 0 1 1645.59 422.3)">
		<path d="M-1326.32-418.05h10.33c5.9,0,10.5,1.59,13.81,4.78c3.3,3.19,4.96,7.96,4.96,14.34c0,3.19-0.42,6-1.27,8.44
			c-0.85,2.44-2.06,4.47-3.66,6.11c-1.59,1.63-3.52,2.86-5.78,3.69c-2.26,0.83-4.83,1.24-7.7,1.24h-10.68V-418.05z M-1316.47-385.01
			c3.93,0,6.95-1.13,9.06-3.39c2.1-2.26,3.16-5.77,3.16-10.53c0-4.72-1.06-8.16-3.19-10.33s-5.13-3.25-9.03-3.25h-3.01v27.49
			H-1316.47z"/>
		<path d="M-1291.92-393.91c0-2.36,0.37-4.48,1.12-6.37c0.75-1.89,1.74-3.48,2.98-4.78c1.24-1.3,2.66-2.3,4.28-3.01
				c1.61-0.71,3.26-1.06,4.96-1.06c1.97,0,3.7,0.33,5.19,1c1.49,0.67,2.74,1.61,3.75,2.83c1,1.22,1.76,2.67,2.27,4.37
				c0.51,1.69,0.77,3.54,0.77,5.55c0,1.34-0.1,2.4-0.29,3.19h-18.41c0.31,2.64,1.23,4.66,2.74,6.08c1.51,1.42,3.45,2.12,5.81,2.12
				c1.26,0,2.43-0.19,3.51-0.56c1.08-0.37,2.15-0.89,3.22-1.56l2.3,4.25c-1.38,0.91-2.91,1.65-4.6,2.24s-3.46,0.88-5.31,0.88
				c-2.01,0-3.88-0.34-5.61-1.03c-1.73-0.69-3.24-1.68-4.54-2.98c-1.3-1.3-2.31-2.88-3.04-4.75
				C-1291.56-389.38-1291.92-391.52-1291.92-393.91z M-1272.51-396.51c0-2.32-0.48-4.13-1.45-5.43c-0.96-1.3-2.45-1.95-4.45-1.95
				c-1.73,0-3.25,0.62-4.54,1.86c-1.3,1.24-2.11,3.08-2.42,5.52H-1272.51z"/>
		<path d="M-1259.83-387.13c1.3,1.02,2.59,1.82,3.86,2.39c1.28,0.57,2.66,0.86,4.16,0.86c1.57,0,2.73-0.32,3.48-0.97
				c0.75-0.65,1.12-1.48,1.12-2.51c0-0.59-0.18-1.11-0.53-1.56c-0.35-0.45-0.83-0.86-1.42-1.21c-0.59-0.35-1.26-0.68-2.01-0.97
				c-0.75-0.29-1.5-0.6-2.24-0.92c-0.94-0.35-1.91-0.77-2.89-1.24c-0.98-0.47-1.86-1.04-2.63-1.71c-0.77-0.67-1.4-1.45-1.89-2.33
				c-0.49-0.88-0.74-1.94-0.74-3.16c0-2.56,0.94-4.64,2.83-6.25c1.89-1.61,4.46-2.42,7.73-2.42c2.01,0,3.81,0.35,5.43,1.06
				c1.61,0.71,3.01,1.51,4.19,2.42l-3.13,4.13c-1.02-0.75-2.06-1.35-3.1-1.8c-1.04-0.45-2.13-0.68-3.27-0.68
				c-1.46,0-2.53,0.3-3.22,0.91c-0.69,0.61-1.03,1.37-1.03,2.27c0,0.59,0.17,1.09,0.5,1.5c0.33,0.41,0.78,0.78,1.33,1.09
				c0.55,0.32,1.19,0.61,1.92,0.88c0.73,0.28,1.48,0.55,2.27,0.83c0.98,0.35,1.97,0.76,2.95,1.21c0.98,0.45,1.88,1.01,2.68,1.68
				c0.81,0.67,1.46,1.49,1.95,2.45c0.49,0.96,0.74,2.12,0.74,3.45c0,1.26-0.25,2.43-0.74,3.51c-0.49,1.08-1.21,2.03-2.15,2.83
				c-0.94,0.81-2.12,1.45-3.54,1.92s-3.03,0.71-4.84,0.71c-2.01,0-3.98-0.38-5.93-1.15c-1.95-0.77-3.63-1.72-5.04-2.86
				L-1259.83-387.13z"/>
		<path d="M-1231.27-413.5c-1.22,0-2.22-0.35-3.01-1.06c-0.79-0.71-1.18-1.63-1.18-2.77c0-1.14,0.39-2.07,1.18-2.8
				c0.79-0.73,1.79-1.09,3.01-1.09c1.22,0,2.22,0.36,3.01,1.09c0.79,0.73,1.18,1.66,1.18,2.8c0,1.14-0.39,2.06-1.18,2.77
				S-1230.05-413.5-1231.27-413.5z M-1234.69-408.43h6.79v28.97h-6.79V-408.43z"/>
		<path d="M-1221.18-374.21c0-1.22,0.35-2.35,1.06-3.39c0.71-1.04,1.73-1.98,3.07-2.8v-0.24
				c-0.75-0.47-1.37-1.1-1.86-1.89c-0.49-0.79-0.74-1.77-0.74-2.95c0-1.14,0.32-2.17,0.97-3.1c0.65-0.92,1.39-1.68,2.21-2.27v-0.24
				c-0.98-0.75-1.86-1.78-2.62-3.1c-0.77-1.32-1.15-2.84-1.15-4.57c0-1.65,0.31-3.13,0.94-4.42c0.63-1.3,1.46-2.39,2.51-3.27
				c1.04-0.89,2.25-1.55,3.63-2.01s2.83-0.68,4.37-0.68c0.79,0,1.54,0.07,2.27,0.21c0.73,0.14,1.39,0.31,1.98,0.5h10.38v5.01h-5.31
				c0.47,0.55,0.86,1.25,1.18,2.09c0.31,0.85,0.47,1.78,0.47,2.8c0,1.61-0.29,3.03-0.86,4.25c-0.57,1.22-1.35,2.24-2.33,3.07
				c-0.98,0.83-2.14,1.46-3.48,1.89c-1.34,0.43-2.77,0.65-4.31,0.65c-0.63,0-1.28-0.06-1.95-0.18c-0.67-0.12-1.34-0.31-2.01-0.59
				c-0.43,0.39-0.78,0.79-1.03,1.18c-0.26,0.39-0.38,0.92-0.38,1.59c0,0.83,0.34,1.48,1.03,1.95c0.69,0.47,1.92,0.71,3.69,0.71h5.13
				c3.5,0,6.15,0.56,7.94,1.68c1.79,1.12,2.68,2.94,2.68,5.46c0,1.42-0.36,2.75-1.09,4.01c-0.73,1.26-1.76,2.34-3.1,3.24
				c-1.34,0.91-2.96,1.62-4.87,2.15c-1.91,0.53-4.04,0.8-6.4,0.8c-1.73,0-3.33-0.16-4.81-0.47c-1.48-0.32-2.74-0.79-3.81-1.42
				c-1.06-0.63-1.9-1.42-2.51-2.36C-1220.88-371.85-1221.18-372.95-1221.18-374.21z M-1215.52-375.21c0,1.3,0.66,2.31,1.98,3.04
				c1.32,0.73,3.14,1.09,5.46,1.09c2.36,0,4.26-0.46,5.69-1.39c1.44-0.92,2.15-2.02,2.15-3.27c0-1.14-0.44-1.91-1.33-2.3
				c-0.88-0.39-2.15-0.59-3.81-0.59h-3.95c-1.57,0-2.89-0.14-3.95-0.41C-1214.77-377.91-1215.52-376.63-1215.52-375.21z
				 M-1208.79-392.91c1.38,0,2.56-0.5,3.54-1.5c0.98-1,1.48-2.45,1.48-4.34c0-1.81-0.48-3.22-1.45-4.22s-2.15-1.5-3.57-1.5
				s-2.62,0.49-3.6,1.47c-0.98,0.98-1.48,2.4-1.48,4.25c0,1.89,0.49,3.33,1.48,4.34C-1211.41-393.41-1210.21-392.91-1208.79-392.91z"
		/>
		<path d="M-1188.55-408.43h5.6l0.47,3.89h0.24c1.3-1.26,2.7-2.34,4.22-3.25c1.51-0.9,3.27-1.36,5.28-1.36
				c3.11,0,5.37,0.99,6.79,2.98s2.12,4.83,2.12,8.53v18.17h-6.79v-17.29c0-2.4-0.35-4.09-1.06-5.07c-0.71-0.98-1.87-1.47-3.48-1.47
				c-1.26,0-2.37,0.3-3.33,0.91c-0.96,0.61-2.06,1.5-3.28,2.68v20.24h-6.78V-408.43z"/>
		<path d="M-1141.47-389.08c1.38,1.3,2.95,2.35,4.72,3.16c1.77,0.81,3.54,1.21,5.31,1.21c2.2,0,3.87-0.45,5.01-1.36
				c1.14-0.9,1.71-2.1,1.71-3.6c0-0.79-0.15-1.46-0.44-2.01s-0.71-1.03-1.24-1.45c-0.53-0.41-1.16-0.8-1.89-1.15
				c-0.73-0.35-1.52-0.71-2.39-1.06l-5.31-2.3c-0.94-0.39-1.88-0.88-2.8-1.48c-0.92-0.59-1.76-1.3-2.51-2.12
				c-0.75-0.83-1.35-1.79-1.8-2.89c-0.45-1.1-0.68-2.36-0.68-3.78c0-1.53,0.32-2.96,0.97-4.28c0.65-1.32,1.54-2.47,2.68-3.45
				c1.14-0.98,2.51-1.75,4.1-2.3s3.33-0.83,5.22-0.83c2.24,0,4.4,0.44,6.49,1.33c2.08,0.89,3.87,2.08,5.37,3.57l-3.48,4.37
				c-1.26-1.02-2.56-1.83-3.89-2.42s-2.83-0.88-4.48-0.88c-1.85,0-3.32,0.4-4.43,1.21c-1.1,0.81-1.65,1.92-1.65,3.33
				c0,0.75,0.17,1.39,0.5,1.92c0.33,0.53,0.79,1,1.36,1.42c0.57,0.41,1.23,0.79,1.98,1.12c0.75,0.33,1.51,0.66,2.3,0.97l5.25,2.18
				c1.14,0.47,2.18,1.02,3.13,1.65c0.94,0.63,1.76,1.36,2.45,2.18s1.23,1.78,1.62,2.86c0.39,1.08,0.59,2.33,0.59,3.75
				c0,1.57-0.32,3.05-0.94,4.42c-0.63,1.38-1.54,2.59-2.74,3.63c-1.2,1.04-2.66,1.87-4.37,2.48s-3.65,0.91-5.81,0.91
				c-2.6,0-5.1-0.49-7.52-1.47c-2.42-0.98-4.55-2.38-6.4-4.19L-1141.47-389.08z"/>
		<path d="M-1110.88-373.18c0.37,0.1,0.74,0.15,1.09,0.15c1.53,0,2.76-0.46,3.69-1.39c0.92-0.92,1.62-2.12,2.09-3.57
				l0.53-1.83l-11.39-28.62h6.9l5.02,14.22c0.43,1.26,0.86,2.59,1.27,3.98c0.41,1.4,0.83,2.78,1.27,4.16h0.24
				c0.35-1.34,0.72-2.7,1.09-4.1c0.37-1.4,0.74-2.74,1.09-4.04l4.37-14.22h6.55l-10.5,30.27c-0.59,1.65-1.24,3.13-1.95,4.42
				c-0.71,1.3-1.52,2.41-2.45,3.33c-0.92,0.92-1.99,1.63-3.19,2.12c-1.2,0.49-2.59,0.74-4.16,0.74c-0.79,0-1.48-0.05-2.07-0.15
				c-0.59-0.1-1.16-0.25-1.71-0.44l1.24-5.31C-1111.58-373.36-1111.26-373.28-1110.88-373.18z"/>
		<path d="M-1081.77-387.13c1.3,1.02,2.59,1.82,3.86,2.39s2.67,0.86,4.16,0.86c1.57,0,2.73-0.32,3.48-0.97
				s1.12-1.48,1.12-2.51c0-0.59-0.18-1.11-0.53-1.56c-0.35-0.45-0.83-0.86-1.42-1.21c-0.59-0.35-1.26-0.68-2.01-0.97
				s-1.5-0.6-2.24-0.92c-0.94-0.35-1.91-0.77-2.89-1.24c-0.98-0.47-1.86-1.04-2.62-1.71c-0.77-0.67-1.4-1.45-1.89-2.33
				c-0.49-0.88-0.74-1.94-0.74-3.16c0-2.56,0.94-4.64,2.83-6.25c1.89-1.61,4.46-2.42,7.73-2.42c2.01,0,3.81,0.35,5.43,1.06
				c1.61,0.71,3.01,1.51,4.19,2.42l-3.13,4.13c-1.02-0.75-2.06-1.35-3.1-1.8c-1.04-0.45-2.13-0.68-3.28-0.68
				c-1.46,0-2.53,0.3-3.21,0.91c-0.69,0.61-1.03,1.37-1.03,2.27c0,0.59,0.17,1.09,0.5,1.5c0.33,0.41,0.78,0.78,1.33,1.09
				c0.55,0.32,1.19,0.61,1.92,0.88c0.73,0.28,1.48,0.55,2.27,0.83c0.98,0.35,1.97,0.76,2.95,1.21c0.98,0.45,1.88,1.01,2.68,1.68
				c0.81,0.67,1.45,1.49,1.95,2.45c0.49,0.96,0.74,2.12,0.74,3.45c0,1.26-0.25,2.43-0.74,3.51s-1.21,2.03-2.15,2.83
				c-0.94,0.81-2.12,1.45-3.54,1.92s-3.03,0.71-4.84,0.71c-2.01,0-3.98-0.38-5.93-1.15c-1.95-0.77-3.63-1.72-5.04-2.86
				L-1081.77-387.13z"/>
		<path d="M-1055.63-403.06h-4.13v-5.07l4.48-0.29l0.83-7.91h5.66v7.91h7.38v5.37h-7.38v13.81
				c0,3.38,1.36,5.07,4.07,5.07c0.51,0,1.03-0.06,1.56-0.18c0.53-0.12,1.01-0.27,1.45-0.47l1.18,5.02c-0.79,0.28-1.68,0.52-2.68,0.74
				c-1,0.22-2.08,0.32-3.22,0.32c-1.69,0-3.12-0.26-4.28-0.77c-1.16-0.51-2.1-1.23-2.83-2.15c-0.73-0.92-1.26-2.03-1.59-3.3
				c-0.33-1.28-0.5-2.7-0.5-4.28V-403.06z"/>
		<path d="M-1037.81-393.91c0-2.36,0.37-4.48,1.12-6.37c0.75-1.89,1.74-3.48,2.98-4.78c1.24-1.3,2.66-2.3,4.28-3.01
				c1.61-0.71,3.26-1.06,4.96-1.06c1.97,0,3.7,0.33,5.19,1s2.74,1.61,3.75,2.83c1,1.22,1.76,2.67,2.27,4.37
				c0.51,1.69,0.77,3.54,0.77,5.55c0,1.34-0.1,2.4-0.29,3.19h-18.41c0.31,2.64,1.23,4.66,2.74,6.08c1.51,1.42,3.45,2.12,5.81,2.12
				c1.26,0,2.43-0.19,3.51-0.56c1.08-0.37,2.15-0.89,3.22-1.56l2.3,4.25c-1.38,0.91-2.91,1.65-4.6,2.24
				c-1.69,0.59-3.46,0.88-5.31,0.88c-2.01,0-3.87-0.34-5.6-1.03c-1.73-0.69-3.25-1.68-4.54-2.98s-2.31-2.88-3.04-4.75
				C-1037.45-389.38-1037.81-391.52-1037.81-393.91z M-1018.4-396.51c0-2.32-0.48-4.13-1.45-5.43c-0.96-1.3-2.45-1.95-4.45-1.95
				c-1.73,0-3.25,0.62-4.54,1.86s-2.1,3.08-2.42,5.52H-1018.4z"/>
		<path d="M-1006.01-408.43h5.61l0.47,3.95h0.24c1.22-1.3,2.55-2.4,3.98-3.3c1.44-0.9,3.06-1.36,4.87-1.36
				c2.12,0,3.83,0.45,5.1,1.36c1.28,0.91,2.25,2.18,2.92,3.83c1.38-1.49,2.81-2.73,4.31-3.72c1.49-0.98,3.17-1.47,5.01-1.47
				c3.07,0,5.33,0.99,6.79,2.98s2.18,4.83,2.18,8.53v18.17h-6.84v-17.29c0-2.4-0.36-4.09-1.09-5.07c-0.73-0.98-1.84-1.47-3.33-1.47
				c-1.81,0-3.83,1.2-6.08,3.6v20.24h-6.79v-17.29c0-2.4-0.36-4.09-1.09-5.07c-0.73-0.98-1.86-1.47-3.39-1.47
				c-1.81,0-3.83,1.2-6.08,3.6v20.24h-6.79V-408.43z"/>
	</g>
</svg>
