<svg xmlns="http://www.w3.org/2000/svg" width="600.079" height="64" viewBox="0 0 600.079 64">
  <g id="Illus_golobal_FR" data-name="Illus golobal FR" transform="translate(-343.921 -213)">
    <g id="Operations_FR" data-name="Operations FR" transform="translate(48.008 -65.971)">
      <g id="illus_ope" data-name="illus ope">
        <rect id="area" width="32" height="32" transform="translate(586.992 294.971)" fill="#fff"/>
        <g id="Icons_concept_Gear_Gear" data-name="Icons/concept/Gear/Gear" transform="translate(588.036 296.017)">
          <path id="Color" d="M16.414.086a1.4,1.4,0,0,1,1.276,1.4V2.733a.471.471,0,0,0,.372.47,12.071,12.071,0,0,1,2.932,1.2.467.467,0,0,0,.573-.064l.95-.949a1.386,1.386,0,0,1,1.852-.033,13.708,13.708,0,0,1,1.221,1,12.955,12.955,0,0,1,.941,1.156A1.409,1.409,0,0,1,26.51,7.39l-.953.952a.462.462,0,0,0-.122.524,12.068,12.068,0,0,1,1.2,2.93.471.471,0,0,0,.48.36h1.316a1.4,1.4,0,0,1,1.4,1.263,13.081,13.081,0,0,1,0,3.07,1.4,1.4,0,0,1-1.4,1.276h-.009l-1.236-.028a.473.473,0,0,0-.471.375,12.079,12.079,0,0,1-1.2,2.881.467.467,0,0,0,.064.573l.949.95a1.386,1.386,0,0,1,.034,1.852,13.756,13.756,0,0,1-.983,1.206c-.329.33-.675.643-1.031.935a1.4,1.4,0,0,1-1.893-.084l-.933-.933a.473.473,0,0,0-.589-.057,12.068,12.068,0,0,1-2.93,1.2.471.471,0,0,0-.36.48v1.363a1.4,1.4,0,0,1-1.263,1.4,13.081,13.081,0,0,1-3.07,0,1.4,1.4,0,0,1-1.276-1.4V27.186a.471.471,0,0,0-.372-.47,12.061,12.061,0,0,1-2.932-1.2.467.467,0,0,0-.573.064l-.95.949a1.386,1.386,0,0,1-1.852.033,13.687,13.687,0,0,1-1.221-1,13.09,13.09,0,0,1-.94-1.156,1.409,1.409,0,0,1,.021-1.873l.948-.948a.463.463,0,0,0,.128-.5,12.118,12.118,0,0,1-1.2-2.885.471.471,0,0,0-.48-.36H1.488a1.4,1.4,0,0,1-1.4-1.263,13.081,13.081,0,0,1,0-3.07,1.4,1.4,0,0,1,1.4-1.276H2.733a.471.471,0,0,0,.471-.372,12.108,12.108,0,0,1,1.2-2.932.467.467,0,0,0-.064-.573L3.395,7.4a1.386,1.386,0,0,1-.034-1.852,13.407,13.407,0,0,1,1-1.222,13.252,13.252,0,0,1,1.156-.94,1.409,1.409,0,0,1,1.873.021l.941.941a.469.469,0,0,0,.46.134,12.068,12.068,0,0,1,2.93-1.2.471.471,0,0,0,.36-.48V1.488a1.4,1.4,0,0,1,1.263-1.4A13.081,13.081,0,0,1,16.414.086Zm-2.973.931a.468.468,0,0,0-.425.469V2.792a1.4,1.4,0,0,1-1.068,1.4A11.4,11.4,0,0,0,9.2,5.322a1.4,1.4,0,0,1-1.537-.317L6.75,4.091a.484.484,0,0,0-.651.027A13.407,13.407,0,0,0,5.02,4.99,13.689,13.689,0,0,0,4.085,6.14a.464.464,0,0,0-.014.616l.937.937a1.4,1.4,0,0,1,.2,1.711,11.139,11.139,0,0,0-1.1,2.68,1.4,1.4,0,0,1-1.39,1.08H1.484a.471.471,0,0,0-.469.438,12.22,12.22,0,0,0,0,2.876.468.468,0,0,0,.469.425H2.792a1.4,1.4,0,0,1,1.4,1.064,11.345,11.345,0,0,0,1.124,2.687,1.4,1.4,0,0,1-.31,1.6l-.914.913a.484.484,0,0,0,.027.651A13.232,13.232,0,0,0,4.989,24.9a14.008,14.008,0,0,0,1.151.936.464.464,0,0,0,.616.014l.937-.937a1.4,1.4,0,0,1,1.712-.2,11.092,11.092,0,0,0,2.68,1.1,1.4,1.4,0,0,1,1.08,1.39v1.283a.471.471,0,0,0,.438.469,12.22,12.22,0,0,0,2.876,0,.468.468,0,0,0,.425-.469V27.127a1.4,1.4,0,0,1,1.068-1.4,11.1,11.1,0,0,0,2.678-1.1,1.4,1.4,0,0,1,1.727.2l.935.935a.469.469,0,0,0,.635.025c.336-.276.659-.568.951-.86a13.818,13.818,0,0,0,.936-1.151.464.464,0,0,0,.014-.616l-.937-.937a1.4,1.4,0,0,1-.2-1.713,11.109,11.109,0,0,0,1.1-2.632,1.4,1.4,0,0,1,1.4-1.08l1.229.028a.471.471,0,0,0,.465-.438,12.22,12.22,0,0,0,0-2.876.468.468,0,0,0-.469-.425H27.127a1.4,1.4,0,0,1-1.4-1.068A11.225,11.225,0,0,0,24.609,9.3a1.394,1.394,0,0,1,.3-1.638l.914-.913A.484.484,0,0,0,25.8,6.1a13.076,13.076,0,0,0-.871-1.078,14.029,14.029,0,0,0-1.151-.936.464.464,0,0,0-.616-.014l-.937.937a1.4,1.4,0,0,1-1.712.2,11.1,11.1,0,0,0-2.68-1.1,1.4,1.4,0,0,1-1.08-1.39V1.484a.471.471,0,0,0-.438-.469A12.22,12.22,0,0,0,13.44,1.017Zm1.519,9.268a4.675,4.675,0,1,1-4.675,4.675A4.675,4.675,0,0,1,14.96,10.285Zm0,.935a3.74,3.74,0,1,0,3.74,3.74A3.74,3.74,0,0,0,14.96,11.22Z" fill="#0050d7" fill-rule="evenodd"/>
        </g>
      </g>
      <text id="Title" transform="translate(623 317)" fill="#4d5592" font-size="16" font-family="SourceSansPro-Regular, Source Sans Pro"><tspan x="0" y="0">Opérations</tspan></text>
    </g>
    <g id="Manufacturing_FR" data-name="Manufacturing FR" transform="translate(-175 -15)">
      <g id="Manufacturing_illus" data-name="Manufacturing illus" transform="translate(-1)">
        <rect id="area-2" data-name="area" width="32" height="32" transform="translate(520 244)" fill="#fff"/>
        <g id="manufacturing" transform="translate(515.871 233.72)">
          <path id="Tracé_29582" data-name="Tracé 29582" d="M33.505,35.54H9.828L9.48,19.43l24.025,3.81Z" transform="translate(1.661 2.14)" fill="none" stroke="#204fce" stroke-linejoin="round" stroke-width="1"/>
          <path id="Tracé_29583" data-name="Tracé 29583" d="M11.489,37.68H4.55l.682-24.6h5.562Z" fill="none" stroke="#204fce" stroke-linejoin="round" stroke-width="1"/>
          <line id="Ligne_23" data-name="Ligne 23" x2="3.864" transform="translate(13.935 28.896)" fill="none" stroke="#204fce" stroke-linejoin="round" stroke-width="1"/>
          <line id="Ligne_24" data-name="Ligne 24" x2="3.877" transform="translate(21.021 28.896)" fill="none" stroke="#204fce" stroke-linejoin="round" stroke-width="1"/>
          <line id="Ligne_25" data-name="Ligne 25" x2="3.877" transform="translate(28.121 28.896)" fill="none" stroke="#204fce" stroke-linejoin="round" stroke-width="1"/>
        </g>
      </g>
      <text id="Title-2" data-name="Title" transform="translate(555 267)" fill="#4d5592" font-size="16" font-family="SourceSansPro-Regular, Source Sans Pro"><tspan x="0" y="0">Fabrication</tspan></text>
    </g>
    <g id="Electricity_FR" data-name="Electricity FR" transform="translate(154 1)">
      <g id="Illus">
        <rect id="Rectangle_4944" data-name="Rectangle 4944" width="32" height="32" transform="translate(344 228)" fill="#fff"/>
        <g id="Datacenter" transform="translate(344.413 228.49)">
          <rect id="Rectangle_4940" data-name="Rectangle 4940" width="29.985" height="25.434" transform="translate(28.304 0.51) rotate(90)" fill="none" stroke="#204fce" stroke-linejoin="round" stroke-width="1"/>
          <line id="Ligne_20" data-name="Ligne 20" transform="translate(9.841 15.507)" fill="none" stroke="#204fce" stroke-linecap="round" stroke-width="1.5"/>
          <rect id="Rectangle_4941" data-name="Rectangle 4941" width="18.947" height="6.719" rx="1.1" transform="translate(6.113 12.148)" fill="none" stroke="#204fce" stroke-linejoin="round" stroke-width="1"/>
          <line id="Ligne_21" data-name="Ligne 21" transform="translate(9.841 8.788)" fill="none" stroke="#204fce" stroke-linecap="round" stroke-width="1.5"/>
          <rect id="Rectangle_4942" data-name="Rectangle 4942" width="18.947" height="6.719" rx="1.1" transform="translate(6.113 5.419)" fill="none" stroke="#204fce" stroke-linejoin="round" stroke-width="1"/>
          <line id="Ligne_22" data-name="Ligne 22" transform="translate(9.841 22.236)" fill="none" stroke="#204fce" stroke-linecap="round" stroke-width="1.5"/>
          <rect id="Rectangle_4943" data-name="Rectangle 4943" width="18.947" height="6.719" rx="1.1" transform="translate(6.113 18.867)" fill="none" stroke="#204fce" stroke-linejoin="round" stroke-width="1"/>
        </g>
      </g>
      <text id="Title-3" data-name="Title" transform="translate(380 249)" fill="#4d5592" font-size="14" font-family="SourceSansPro-Regular, Source Sans Pro"><tspan x="0" y="0">Électricité</tspan></text>
    </g>
    <text id="_" data-name="=" transform="translate(771 253)" fill="#00185e" font-size="20" font-family="SourceSansPro-Semibold, Source Sans Pro" font-weight="600"><tspan x="-10" y="0">=</tspan></text>
    <text id="_2" data-name="+" transform="translate(619 253)" fill="#00185e" font-size="20" font-family="SourceSansPro-Semibold, Source Sans Pro" font-weight="600"><tspan x="-10" y="0">+</tspan></text>
    <text id="_3" data-name="+" transform="translate(482 253)" fill="#00185e" font-size="20" font-family="SourceSansPro-Semibold, Source Sans Pro" font-weight="600"><tspan x="-10" y="0">+</tspan></text>
    <g id="CO2_FR" data-name="CO2 FR" transform="translate(390 -625)">
      <g id="PUE" transform="translate(-6 -56)">
        <g id="PUE-2" data-name="PUE" transform="translate(403 894)">
          <rect id="Rectangle_4931" data-name="Rectangle 4931" width="64" height="64" fill="#fff"/>
          <g id="PUE-3" data-name="PUE" transform="translate(7.05 2.585)">
            <g id="Groupe_248074" data-name="Groupe 248074" transform="translate(20.284 32.14)">
              <path id="Tracé_358202" data-name="Tracé 358202" d="M13.45,28.426a10.843,10.843,0,0,0,10.4,10.422c10.312-.256,19.213-11.154,19.213-11.154s-9.579-10.44-19.744-10.2A10.861,10.861,0,0,0,13.45,28.426Z" transform="translate(-13.45 -17.488)" fill="none" stroke="#204fce" stroke-linejoin="round" stroke-width="1"/>
            </g>
            <path id="Tracé_29551" data-name="Tracé 29551" d="M34.384,22.79A24.653,24.653,0,0,0,9.42,33.669L9.09,34.75" transform="translate(3.209 18.75)" fill="none" stroke="#204fce" stroke-linejoin="round" stroke-width="1"/>
            <path id="Tracé_29552" data-name="Tracé 29552" d="M26.945,15.057a12.29,12.29,0,1,1-24.561,0V5.35H26.945Z" transform="translate(-2.375 4.559)" fill="none" stroke="#204fce" stroke-linejoin="round" stroke-width="1"/>
            <line id="Ligne_10" data-name="Ligne 10" y1="9.671" transform="translate(7.683)" fill="none" stroke="#204fce" stroke-linejoin="round" stroke-width="1"/>
            <line id="Ligne_11" data-name="Ligne 11" y1="9.671" transform="translate(16.969)" fill="none" stroke="#204fce" stroke-linejoin="round" stroke-width="1"/>
            <line id="Ligne_12" data-name="Ligne 12" y2="26.924" transform="translate(12.299 31.906)" fill="none" stroke="#204fce" stroke-linejoin="round" stroke-width="1"/>
            <line id="Ligne_13" data-name="Ligne 13" x2="24.561" transform="translate(0.009 13.352)" fill="none" stroke="#204fce" stroke-linejoin="round" stroke-width="1"/>
            <path id="Tracé_29553" data-name="Tracé 29553" d="M12.531,8.97,7.11,14.7l7.143-.275L9.564,20.655" transform="translate(1.562 7.569)" fill="none" stroke="#204fce" stroke-linejoin="round" stroke-width="1"/>
          </g>
        </g>
      </g>
      <text id="Title-4" data-name="Title" transform="translate(461 856)" fill="#00185e" font-size="16" font-family="SourceSansPro-Semibold, Source Sans Pro" font-weight="600"><tspan x="0" y="0">Émissions</tspan><tspan x="0" y="20">de Gaz à Effet</tspan><tspan x="0" y="40">de Serre</tspan></text>
      <g id="CO2_illus" data-name="CO2 illus" transform="translate(407.92 860.57)">
        <rect id="Rectangle_5241" data-name="Rectangle 5241" width="64" height="64" transform="translate(-10.92 -22.57)" fill="#fff"/>
        <g id="CO2" transform="translate(-2.92 -10.57)">
          <path id="Tracé_29584" data-name="Tracé 29584" d="M.51,22.176A12.254,12.254,0,0,0,11.416,34.43a12.254,12.254,0,0,0,15.056,3.446,6.709,6.709,0,0,0,11.212-4.718h.674a9.588,9.588,0,0,0,3.936-18.38A12.254,12.254,0,0,0,22.046,6.553a6.632,6.632,0,0,0-3.063-.781,6.739,6.739,0,0,0-6.127,4.09A12.254,12.254,0,0,0,.51,22.176Z" transform="translate(-0.51 -3.548)" fill="none" stroke="#204fce" stroke-linejoin="round" stroke-width="1" fill-rule="evenodd"/>
          <path id="Tracé_29585" data-name="Tracé 29585" d="M15.153,21.67a4.6,4.6,0,0,1-1.179.965h0a3.063,3.063,0,0,1-1.532.322,3.063,3.063,0,0,1-1.455-.337,2.941,2.941,0,0,1-.95-.934,4.473,4.473,0,0,1-.72-1.532,7.214,7.214,0,0,1-.337-1.915,6.556,6.556,0,0,1,.276-1.976,4.273,4.273,0,0,1,.735-1.532,3.063,3.063,0,0,1,1.133-.919,3.293,3.293,0,0,1,1.532-.322,2.772,2.772,0,0,1,1.271.276,4.3,4.3,0,0,1,1,.781l.153.153,1.118-1.256-.123-.123a5.453,5.453,0,0,0-1.44-1.057,4.289,4.289,0,0,0-2.022-.475,5.33,5.33,0,0,0-2.221.46,5.039,5.039,0,0,0-1.761,1.287,6.127,6.127,0,0,0-1.164,2.022,8.945,8.945,0,0,0,0,5.376,5.713,5.713,0,0,0,1.042,2.037,4.932,4.932,0,0,0,1.746,1.271,5.361,5.361,0,0,0,2.175.444,4.6,4.6,0,0,0,2.144-.49A5.529,5.529,0,0,0,16.3,22.834l.123-.123-1.118-1.225Z" transform="translate(2.968 0.834)" fill="#204fce"/>
          <path id="Tracé_29586" data-name="Tracé 29586" d="M22.736,13.521a4.779,4.779,0,0,0-1.7-1.271,5.009,5.009,0,0,0-2.16-.46,5.238,5.238,0,0,0-2.16.444,4.779,4.779,0,0,0-1.7,1.271,6.127,6.127,0,0,0-1.087,2.022,8.378,8.378,0,0,0-.4,2.711,8.577,8.577,0,0,0,.4,2.68,6.387,6.387,0,0,0,1.087,2.052A4.993,4.993,0,0,0,16.7,24.289a5.376,5.376,0,0,0,2.175.46,5.238,5.238,0,0,0,2.16-.46,4.963,4.963,0,0,0,1.715-1.317,6.127,6.127,0,0,0,1.087-2.052,8.577,8.577,0,0,0,.4-2.68,8.348,8.348,0,0,0-.4-2.635,5.728,5.728,0,0,0-1.1-2.083Zm-5.223,9.19a3.063,3.063,0,0,1-1.057-.95,4.7,4.7,0,0,1-.7-1.532,7.276,7.276,0,0,1-.245-1.991,7.076,7.076,0,0,1,.276-2.022,4.672,4.672,0,0,1,.689-1.532,3.462,3.462,0,0,1,1.057-.9,3.063,3.063,0,0,1,2.757,0,3.462,3.462,0,0,1,1.057.9,4.672,4.672,0,0,1,.689,1.532,7.076,7.076,0,0,1,.214,2.022A7.352,7.352,0,0,1,22,20.245a4.7,4.7,0,0,1-.7,1.532,3.063,3.063,0,0,1-1.057.95,3.063,3.063,0,0,1-2.726-.092Z" transform="translate(6.412 0.834)" fill="#204fce"/>
          <path id="Tracé_29587" data-name="Tracé 29587" d="M24.16,18.239l.735-.781a10.063,10.063,0,0,0,.873-1.026,5.1,5.1,0,0,0,.582-1,2.849,2.849,0,0,0,.214-1.072,2.4,2.4,0,0,0-.72-1.869,2.742,2.742,0,0,0-1.93-.7,2.65,2.65,0,0,0-1.44.429,3.462,3.462,0,0,0-1.1,1.057l-.092.138.98.9.123-.184a4.166,4.166,0,0,1,.659-.7,1.2,1.2,0,0,1,.735-.26,1.087,1.087,0,0,1,.858.352,1.3,1.3,0,0,1,.322.965,1.532,1.532,0,0,1-.2.751,4.044,4.044,0,0,1-.613.888,11.366,11.366,0,0,1-1.057,1.087l-1.532,1.348h0v.95h5.422V18.239Z" transform="translate(10.533 0.834)" fill="#204fce"/>
          <circle id="Ellipse_45" data-name="Ellipse 45" cx="3.584" cy="3.584" r="3.584" transform="translate(39.074 33.501)" fill="none" stroke="#204fce" stroke-linejoin="round" stroke-width="1"/>
        </g>
      </g>
    </g>
  </g>
</svg>
