<svg xmlns="http://www.w3.org/2000/svg" width="48.562" height="41.806" viewBox="0 0 48.562 41.806">
  <g id="CO2" transform="translate(0.5 0.637)">
    <path id="Tracé_29584" data-name="Tracé 29584" d="M.51,22.176A12.254,12.254,0,0,0,11.416,34.43a12.254,12.254,0,0,0,15.056,3.446,6.709,6.709,0,0,0,11.212-4.718h.674a9.588,9.588,0,0,0,3.936-18.38A12.254,12.254,0,0,0,22.046,6.553a6.632,6.632,0,0,0-3.063-.781,6.739,6.739,0,0,0-6.127,4.09A12.254,12.254,0,0,0,.51,22.176Z" transform="translate(-0.51 -3.548)" fill="none" stroke="#204fce" stroke-linejoin="round" stroke-width="1" fill-rule="evenodd"/>
    <path id="Tracé_29585" data-name="Tracé 29585" d="M15.153,21.67a4.6,4.6,0,0,1-1.179.965h0a3.063,3.063,0,0,1-1.532.322,3.063,3.063,0,0,1-1.455-.337,2.941,2.941,0,0,1-.95-.934,4.473,4.473,0,0,1-.72-1.532,7.214,7.214,0,0,1-.337-1.915,6.556,6.556,0,0,1,.276-1.976,4.273,4.273,0,0,1,.735-1.532,3.063,3.063,0,0,1,1.133-.919,3.293,3.293,0,0,1,1.532-.322,2.772,2.772,0,0,1,1.271.276,4.3,4.3,0,0,1,1,.781l.153.153,1.118-1.256-.123-.123a5.453,5.453,0,0,0-1.44-1.057,4.289,4.289,0,0,0-2.022-.475,5.33,5.33,0,0,0-2.221.46,5.039,5.039,0,0,0-1.761,1.287,6.127,6.127,0,0,0-1.164,2.022,8.945,8.945,0,0,0,0,5.376,5.713,5.713,0,0,0,1.042,2.037,4.932,4.932,0,0,0,1.746,1.271,5.361,5.361,0,0,0,2.175.444,4.6,4.6,0,0,0,2.144-.49A5.529,5.529,0,0,0,16.3,22.834l.123-.123-1.118-1.225Z" transform="translate(2.968 0.834)" fill="#204fce"/>
    <path id="Tracé_29586" data-name="Tracé 29586" d="M22.736,13.521a4.779,4.779,0,0,0-1.7-1.271,5.009,5.009,0,0,0-2.16-.46,5.238,5.238,0,0,0-2.16.444,4.779,4.779,0,0,0-1.7,1.271,6.127,6.127,0,0,0-1.087,2.022,8.378,8.378,0,0,0-.4,2.711,8.577,8.577,0,0,0,.4,2.68,6.387,6.387,0,0,0,1.087,2.052A4.993,4.993,0,0,0,16.7,24.289a5.376,5.376,0,0,0,2.175.46,5.238,5.238,0,0,0,2.16-.46,4.963,4.963,0,0,0,1.715-1.317,6.127,6.127,0,0,0,1.087-2.052,8.577,8.577,0,0,0,.4-2.68,8.348,8.348,0,0,0-.4-2.635,5.728,5.728,0,0,0-1.1-2.083Zm-5.223,9.19a3.063,3.063,0,0,1-1.057-.95,4.7,4.7,0,0,1-.7-1.532,7.276,7.276,0,0,1-.245-1.991,7.076,7.076,0,0,1,.276-2.022,4.672,4.672,0,0,1,.689-1.532,3.462,3.462,0,0,1,1.057-.9,3.063,3.063,0,0,1,2.757,0,3.462,3.462,0,0,1,1.057.9,4.672,4.672,0,0,1,.689,1.532,7.076,7.076,0,0,1,.214,2.022A7.352,7.352,0,0,1,22,20.245a4.7,4.7,0,0,1-.7,1.532,3.063,3.063,0,0,1-1.057.95,3.063,3.063,0,0,1-2.726-.092Z" transform="translate(6.412 0.834)" fill="#204fce"/>
    <path id="Tracé_29587" data-name="Tracé 29587" d="M24.16,18.239l.735-.781a10.063,10.063,0,0,0,.873-1.026,5.1,5.1,0,0,0,.582-1,2.849,2.849,0,0,0,.214-1.072,2.4,2.4,0,0,0-.72-1.869,2.742,2.742,0,0,0-1.93-.7,2.65,2.65,0,0,0-1.44.429,3.462,3.462,0,0,0-1.1,1.057l-.092.138.98.9.123-.184a4.166,4.166,0,0,1,.659-.7,1.2,1.2,0,0,1,.735-.26,1.087,1.087,0,0,1,.858.352,1.3,1.3,0,0,1,.322.965,1.532,1.532,0,0,1-.2.751,4.044,4.044,0,0,1-.613.888,11.366,11.366,0,0,1-1.057,1.087l-1.532,1.348h0v.95h5.422V18.239Z" transform="translate(10.533 0.834)" fill="#204fce"/>
    <circle id="Ellipse_45" data-name="Ellipse 45" cx="3.584" cy="3.584" r="3.584" transform="translate(39.074 33.501)" fill="none" stroke="#204fce" stroke-linejoin="round" stroke-width="1"/>
  </g>
</svg>
