<svg xmlns="http://www.w3.org/2000/svg" width="32" height="32" viewBox="0 0 32 32">
  <g id="gear" transform="translate(-586.992 -294.971)">
    <rect id="area" width="32" height="32" transform="translate(586.992 294.971)" fill="#fff"/>
    <g id="Icons_concept_Gear_Gear" data-name="Icons/concept/Gear/Gear" transform="translate(588.036 295.975)">
      <path id="Color" d="M16.414.086a1.4,1.4,0,0,1,1.276,1.4V2.733a.471.471,0,0,0,.372.47,12.071,12.071,0,0,1,2.932,1.2.467.467,0,0,0,.573-.064l.95-.949a1.386,1.386,0,0,1,1.852-.033,13.708,13.708,0,0,1,1.221,1,12.955,12.955,0,0,1,.941,1.156A1.409,1.409,0,0,1,26.51,7.39l-.953.952a.462.462,0,0,0-.122.524,12.068,12.068,0,0,1,1.2,2.93.471.471,0,0,0,.48.36h1.316a1.4,1.4,0,0,1,1.4,1.263,13.081,13.081,0,0,1,0,3.07,1.4,1.4,0,0,1-1.4,1.276h-.009l-1.236-.028a.473.473,0,0,0-.471.375,12.079,12.079,0,0,1-1.2,2.881.467.467,0,0,0,.064.573l.949.95a1.386,1.386,0,0,1,.034,1.852,13.756,13.756,0,0,1-.983,1.206c-.329.33-.675.643-1.031.935a1.4,1.4,0,0,1-1.893-.084l-.933-.933a.473.473,0,0,0-.589-.057,12.068,12.068,0,0,1-2.93,1.2.471.471,0,0,0-.36.48v1.363a1.4,1.4,0,0,1-1.263,1.4,13.081,13.081,0,0,1-3.07,0,1.4,1.4,0,0,1-1.276-1.4V27.186a.471.471,0,0,0-.372-.47,12.061,12.061,0,0,1-2.932-1.2.467.467,0,0,0-.573.064l-.95.949a1.386,1.386,0,0,1-1.852.033,13.687,13.687,0,0,1-1.221-1,13.09,13.09,0,0,1-.94-1.156,1.409,1.409,0,0,1,.021-1.873l.948-.948a.463.463,0,0,0,.128-.5,12.118,12.118,0,0,1-1.2-2.885.471.471,0,0,0-.48-.36H1.488a1.4,1.4,0,0,1-1.4-1.263,13.081,13.081,0,0,1,0-3.07,1.4,1.4,0,0,1,1.4-1.276H2.733a.471.471,0,0,0,.471-.372,12.108,12.108,0,0,1,1.2-2.932.467.467,0,0,0-.064-.573L3.395,7.4a1.386,1.386,0,0,1-.034-1.852,13.407,13.407,0,0,1,1-1.222,13.252,13.252,0,0,1,1.156-.94,1.409,1.409,0,0,1,1.873.021l.941.941a.469.469,0,0,0,.46.134,12.068,12.068,0,0,1,2.93-1.2.471.471,0,0,0,.36-.48V1.488a1.4,1.4,0,0,1,1.263-1.4A13.081,13.081,0,0,1,16.414.086Zm-2.973.931a.468.468,0,0,0-.425.469V2.792a1.4,1.4,0,0,1-1.068,1.4A11.4,11.4,0,0,0,9.2,5.322a1.4,1.4,0,0,1-1.537-.317L6.75,4.091a.484.484,0,0,0-.651.027A13.407,13.407,0,0,0,5.02,4.99,13.689,13.689,0,0,0,4.085,6.14a.464.464,0,0,0-.014.616l.937.937a1.4,1.4,0,0,1,.2,1.711,11.139,11.139,0,0,0-1.1,2.68,1.4,1.4,0,0,1-1.39,1.08H1.484a.471.471,0,0,0-.469.438,12.22,12.22,0,0,0,0,2.876.468.468,0,0,0,.469.425H2.792a1.4,1.4,0,0,1,1.4,1.064,11.345,11.345,0,0,0,1.124,2.687,1.4,1.4,0,0,1-.31,1.6l-.914.913a.484.484,0,0,0,.027.651A13.232,13.232,0,0,0,4.989,24.9a14.008,14.008,0,0,0,1.151.936.464.464,0,0,0,.616.014l.937-.937a1.4,1.4,0,0,1,1.712-.2,11.092,11.092,0,0,0,2.68,1.1,1.4,1.4,0,0,1,1.08,1.39v1.283a.471.471,0,0,0,.438.469,12.22,12.22,0,0,0,2.876,0,.468.468,0,0,0,.425-.469V27.127a1.4,1.4,0,0,1,1.068-1.4,11.1,11.1,0,0,0,2.678-1.1,1.4,1.4,0,0,1,1.727.2l.935.935a.469.469,0,0,0,.635.025c.336-.276.659-.568.951-.86a13.818,13.818,0,0,0,.936-1.151.464.464,0,0,0,.014-.616l-.937-.937a1.4,1.4,0,0,1-.2-1.713,11.109,11.109,0,0,0,1.1-2.632,1.4,1.4,0,0,1,1.4-1.08l1.229.028a.471.471,0,0,0,.465-.438,12.22,12.22,0,0,0,0-2.876.468.468,0,0,0-.469-.425H27.127a1.4,1.4,0,0,1-1.4-1.068A11.225,11.225,0,0,0,24.609,9.3a1.394,1.394,0,0,1,.3-1.638l.914-.913A.484.484,0,0,0,25.8,6.1a13.076,13.076,0,0,0-.871-1.078,14.029,14.029,0,0,0-1.151-.936.464.464,0,0,0-.616-.014l-.937.937a1.4,1.4,0,0,1-1.712.2,11.1,11.1,0,0,0-2.68-1.1,1.4,1.4,0,0,1-1.08-1.39V1.484a.471.471,0,0,0-.438-.469A12.22,12.22,0,0,0,13.44,1.017Zm1.519,9.268a4.675,4.675,0,1,1-4.675,4.675A4.675,4.675,0,0,1,14.96,10.285Zm0,.935a3.74,3.74,0,1,0,3.74,3.74A3.74,3.74,0,0,0,14.96,11.22Z" fill="#0050d7" fill-rule="evenodd"/>
    </g>
  </g>
</svg>
