<svg width="60" height="61" viewBox="0 0 60 61" fill="none" xmlns="http://www.w3.org/2000/svg">
<path fill-rule="evenodd" clip-rule="evenodd" d="M25 24.25C25 18.0368 30.0368 13 36.25 13C42.4632 13 47.5 18.0368 47.5 24.25C47.5 30.4632 42.4632 35.5 36.25 35.5C35.3034 35.5 34.3875 35.3836 33.5143 35.1657C32.6626 34.953 31.7617 35.2027 31.141 35.8235L28.2322 38.7322L18.9645 48H12.5V41.5355L24.6765 29.359C25.2973 28.7383 25.547 27.8374 25.3343 26.9857C25.1164 26.1125 25 25.1966 25 24.25ZM36.25 8C27.2754 8 20 15.2754 20 24.25C20 25.1058 20.0664 25.9475 20.1946 26.7699L8.23223 38.7322C7.76339 39.2011 7.5 39.837 7.5 40.5V50.5C7.5 51.8807 8.61929 53 10 53H20C20.663 53 21.2989 52.7366 21.7678 52.2678L31.7678 42.2678L33.7301 40.3054C34.5525 40.4336 35.3942 40.5 36.25 40.5C45.2246 40.5 52.5 33.2246 52.5 24.25C52.5 15.2754 45.2246 8 36.25 8ZM37.5 28C40.2614 28 42.5 25.7614 42.5 23C42.5 20.2386 40.2614 18 37.5 18C34.7386 18 32.5 20.2386 32.5 23C32.5 25.7614 34.7386 28 37.5 28Z" fill="#000E9C"/>
</svg>
