<?xml version="1.0" encoding="UTF-8"?>
<svg width="93px" height="51px" viewBox="0 0 93 51" version="1.1" xmlns="http://www.w3.org/2000/svg" xmlns:xlink="http://www.w3.org/1999/xlink">
    <!-- Generator: Sketch 54 (76480) - https://sketchapp.com -->
    <title>Group 6</title>
    <desc>Created with Sketch.</desc>
    <defs>
        <polygon id="path-1" points="0 0.0730116279 40.7861788 0.0730116279 40.7861788 34.1860465 0 34.1860465"></polygon>
    </defs>
    <g id="Page-1" stroke="none" stroke-width="1" fill="none" fill-rule="evenodd">
        <g id="picto-feedback" transform="translate(-1162.000000, -695.000000)">
            <g id="Group-6" transform="translate(1162.000000, 695.000000)">
                <g id="Components-/-Button-/-Small-/-Solid-/-Default" transform="translate(0.000000, 19.000000)">
                    <g id="Padding-Group-3">
                        <g id="Padding-Group-2">
                            <rect id="Background" fill="#2859C0" x="0.5" y="0" width="83" height="32" rx="6"></rect>
                            <text id="Call-to-action" font-family="SourceSansPro-Semibold, Source Sans Pro" font-size="16" font-weight="500" line-spacing="16" fill="#FFFFFF">
                                <tspan x="8.5" y="24">Feedback</tspan>
                            </text>
                        </g>
                    </g>
                </g>
                <g id="Group-12" transform="translate(52.000000, 0.000000)">
                    <path d="M39.5836759,32.9997298 C39.4783272,32.999122 39.3780556,32.956572 39.3063424,32.8824133 L35.2237653,28.9635556 L19.1663482,28.9635556 C16.8664479,28.9611241 15.0025385,27.1758464 15,24.9729706 L15,16.9911928 C15.0025385,14.7877091 16.8664479,13.0024314 19.1663482,13 L35.8336451,13 C38.1335455,13.0024314 39.9974548,14.7877091 39.9999934,16.9911928 L39.9999934,32.6076617 C40.0012626,32.8228433 39.820393,32.9985141 39.5963685,32.9997298 C39.591926,33.0003377 39.5874836,32.9997298 39.5836759,32.9997298" id="Fill-1" fill="#E4F5FD"></path>
                    <path d="M37,12.1011314 C36.6704051,12.0341166 36.3353272,12 35.99964,12 L19.9999723,12 C17.2383207,12 15,14.2389034 15,17.0005222 L15,25.0002611 C15,25.3359443 15.0335078,25.6704091 15.1011326,26 L29.9999169,26 C33.8642796,25.9957354 36.9951261,22.8643168 37,19 L37,12.1011314 Z" id="Fill-3" fill="#2859C0" opacity="0.234305246" style="mix-blend-mode: multiply;"></path>
                    <path d="M1,26.6196409 L1,26.609907 L1,4.99394336 C1.00251314,2.78921362 2.84778387,1.00243348 5.12468586,1 L29.8753141,1 C32.1522161,1.00243348 33.9974869,2.78921362 34,4.99394336 L34,18.974266 C33.9974869,21.1789958 32.1522161,22.9657759 29.8753141,22.9682094 L5.72909527,22.9682094 L1.68671464,26.8830647 C1.61571853,26.9572858 1.51644962,26.9998716 1.41215444,26.9998716 C1.18974183,27.0053469 1.00565456,26.8350036 1,26.6196409 Z" id="Fill-5" fill="#FFFFFF"></path>
                    <g id="Group-9">
                        <mask id="mask-2" fill="white">
                            <use xlink:href="#path-1"></use>
                        </mask>
                        <g id="Clip-8"></g>
                        <path d="M38.7467394,21.0992616 L38.7467394,31.3153953 L36.1115576,28.7160349 L35.5145727,28.126936 L19.372997,28.126936 C17.6851636,28.1251047 16.3166333,26.7808605 16.3147697,25.1210058 L16.3147697,24.1186221 L29.5701939,24.1186221 C32.3855273,24.1186221 34.6684818,21.8757733 34.6684818,19.1085349 L34.6684818,14.0984477 L35.6878909,14.0984477 C37.3763455,14.1002791 38.7448758,15.4451337 38.7467394,17.1049884 L38.7467394,21.0992616 Z M5.27334545,22.116907 L4.67573939,22.7041744 L2.03931515,25.2955988 L2.03931515,5.08309884 C2.04117879,3.42324419 3.40970909,2.07838953 5.09816364,2.07655814 L29.5701939,2.07655814 C31.2586485,2.07838953 32.6271788,3.42324419 32.6284212,5.08309884 L32.6284212,19.1109767 C32.6271788,20.7708314 31.2586485,22.115686 29.5701939,22.116907 L5.27334545,22.116907 Z M35.6878909,12.0967326 L34.6684818,12.0967326 L34.6684818,5.08309884 C34.6684818,2.31586047 32.3855273,0.0730116279 29.5701939,0.0730116279 L5.09816364,0.0730116279 C2.2828303,0.0730116279 -0.000124242424,2.31586047 -0.000124242424,5.08309884 L-0.000124242424,26.771093 C-0.00260909091,27.5396686 0.629784848,28.1647849 1.4112697,28.1678372 L1.42742121,28.1678372 C1.8007697,28.1672267 2.15858788,28.0194942 2.41887576,27.7563837 L6.11819394,24.121064 L14.2747091,24.121064 L14.2747091,25.1234477 C14.2747091,27.8900756 16.5576636,30.1335349 19.372997,30.1335349 L34.6684818,30.1335349 L38.3665576,33.7743488 C38.6274667,34.0368488 38.9852848,34.1858023 39.3586333,34.1864128 C40.1407394,34.191907 40.7799667,33.5741163 40.7861788,32.8055407 L40.7861788,32.7908895 L40.7861788,17.1074302 C40.7861788,14.3401919 38.5032242,12.0967326 35.6878909,12.0967326 L35.6878909,12.0967326 Z" id="Fill-7" fill="#2859C0" mask="url(#mask-2)"></path>
                    </g>
                    <path d="M24.2022559,12.2134249 C25.541884,10.4877217 25.1476594,7.9044489 23.3696632,6.6628374 C21.6143519,5.43800444 19.1325145,5.96559611 18.0001149,7.792592 C16.5985634,5.53246137 13.3031396,5.40631166 11.7354375,7.540914 C10.3780294,9.3909027 11.0493762,11.5217765 12.5318571,12.9684589 C14.0946544,14.4934412 15.6102428,16.0706234 17.1387064,17.6328913 C17.616313,18.1219545 18.3961789,18.1219545 18.8756247,17.635377 L21.2299368,15.2490967 C22.179632,14.286506 23.3592405,13.1996298 24.2022559,12.2134249" id="Fill-10" fill="#E0777C"></path>
                </g>
            </g>
        </g>
    </g>
</svg>