<?xml version="1.0" encoding="UTF-8"?>
<svg enable-background="new 0 0 180 180" version="1.1" viewBox="0 0 180 180" xml:space="preserve" xmlns="http://www.w3.org/2000/svg" xmlns:cc="http://creativecommons.org/ns#" xmlns:dc="http://purl.org/dc/elements/1.1/" xmlns:rdf="http://www.w3.org/1999/02/22-rdf-syntax-ns#" xmlns:xlink="http://www.w3.org/1999/xlink"><metadata><rdf:RDF><cc:Work rdf:about=""><dc:format>image/svg+xml</dc:format><dc:type rdf:resource="http://purl.org/dc/dcmitype/StillImage"/><dc:title>hunman-Think</dc:title></cc:Work></rdf:RDF></metadata><style type="text/css">
	.st0{fill:none;}
	.st1{fill:none;stroke:#6199F2;stroke-width:4;stroke-miterlimit:10;}
	.st2{fill:none;stroke:#A2C0FC;stroke-width:4;stroke-miterlimit:10;}
	.st3{opacity:0.31;fill:#B1CEFC;enable-background:new    ;}
	.st4{opacity:0.27;fill:#B1CEFC;enable-background:new    ;}
	.st5{fill:#FFFFFF;}
	.st6{fill:none;stroke:url(#i);stroke-width:3.7152;stroke-miterlimit:10;}
	.st7{clip-path:url(#a);}
	.st8{fill:url(#g);stroke:#12233F;stroke-width:0.2752;stroke-miterlimit:10;}
	.st9{fill:#CADEFF;stroke:#6199F2;stroke-width:0.2752;stroke-miterlimit:10;}
	.st10{fill:url(#e);}
	.st11{opacity:0.75;fill:#B1CEFC;enable-background:new    ;}
	.st12{fill:#F7EBD2;stroke:#A8844A;stroke-width:0.2752;stroke-miterlimit:10;}
	.st13{opacity:0.27;fill:#A8844A;enable-background:new    ;}
	.st14{fill:url(#d);}
	.st15{opacity:0.44;fill:#D3963D;enable-background:new    ;}
	.st16{fill:url(#c);}
	.st17{fill:url(#b);}
	.st18{fill:#F9DDAA;stroke:#A8844A;stroke-width:0.344;stroke-miterlimit:10;}
	.st19{fill:#AD761D;}
	.st20{fill:#F9DDAA;}
	.st21{fill:none;stroke:#AD761D;stroke-width:0.4128;stroke-linecap:round;stroke-miterlimit:10;}
	.st22{fill:#F7EBD2;stroke:#B58D4D;stroke-width:0.2752;stroke-miterlimit:10;}
	.st23{fill:#A2C0FC;stroke:#6199F2;stroke-width:0.2752;stroke-miterlimit:10;}
	.st24{opacity:0.32;fill:#B1CEFC;enable-background:new    ;}
	.st25{fill:none;stroke:#6199F2;stroke-width:0.2752;stroke-miterlimit:10;}
	.st26{fill:none;stroke:url(#k);stroke-width:3.7152;stroke-miterlimit:10;}
	.st27{fill:none;stroke:url(#j);stroke-width:4.8161;stroke-linecap:round;stroke-miterlimit:10;}
</style><pattern id="f" x="-310" y="573.5" width="121.3" height="125.8" overflow="visible" patternUnits="userSpaceOnUse" viewBox="0 -125.8 121.3 125.8"><rect class="st0" y="-125.8" width="121.3" height="125.8"/><rect class="st0" y="-125.8" width="121.3" height="125.8"/><rect class="st0" y="-125.8" width="121.3" height="125.8"/><line class="st1" x1="25.5" x2="25.5" y1="-125.8"/><line class="st1" x1="44.9" x2="44.9" y1="-125.8"/><line class="st1" x1="121.3" y1="-99.6" y2="-99.6"/><line class="st1" x1="121.3" y1="-80.2" y2="-80.2"/><line class="st2" x2="121.3" y1="-62.9" y2="-62.9"/><line class="st2" x2="121.3" y1="-45.6" y2="-45.6"/><rect class="st3" x="44.9" y="-80.2" width="33.7" height="33.7"/></pattern><title>hunman-Think</title><circle class="st4" cx="90" cy="104.6" r="70.7"/><circle class="st5" cx="108.3" cy="82.7" r="34.6"/><circle class="st5" cx="51.8" cy="73.9" r="16.1"/><linearGradient id="i" x1="217.82" x2="313.35" y1="-290.81" y2="-290.81" gradientTransform="translate(-179.94 327.7)" gradientUnits="userSpaceOnUse"><stop stop-color="#1B364A" offset="0"/><stop stop-color="#16547E" offset="1"/></linearGradient><path class="st6" d="M39.1,46.9C52.6,34.7,70.4,27.3,90,27.3c15.7,0,30.3,4.8,42.4,12.9"/><defs><circle id="h" cx="90" cy="90" r="90"/></defs><clipPath id="a"><use xlink:href="#h"/></clipPath><g class="st7" clip-path="url(#a)"><linearGradient id="g" x1="241.54" x2="298.58" y1="-147.69" y2="-147.69" gradientTransform="translate(-179.94 327.7)" gradientUnits="userSpaceOnUse"><stop stop-color="#1B364A" offset="0"/><stop stop-color="#16547E" offset="1"/></linearGradient><path class="st8" d="m61.6 158.4s6.1 37 6 44.2h24.1l-1.1-22.1 4.1 22.1h24l-2.9-38.2c-0.1 0-48.8-10.3-54.2-6z"/><path class="st9" d="m60.4 66.8l50.9-16.8c3.3-1.1 6.9-0.4 9.5 1.8 1 0.9 1.8 1.9 2 3.1 0.8 4.1 7.4 33.8 3.3 47s-7 21.5-7.9 21.1c-0.8-0.4-2.5 0-2.5 0v41.3s-22.5-3.5-29.1-3.3-24.1-1.9-25-2.7c2.3-3.3 6.2-15.3 6-23.1-5.6 2.3-9.3 4.1-10.9 2.9s-6.8-3.3-6-21.7c0.6-13.4 2.7-32.8 3.7-42.3 0.4-3.3 2.7-6.2 6-7.3z"/><pattern id="e" xlink:href="#f" patternTransform="matrix(.068805 0 0 .068805 -8128.3 -5786.1)"/><path class="st10" d="m60.4 66.8l50.9-16.8c3.3-1.1 6.9-0.4 9.5 1.8 1 0.9 1.8 1.9 2 3.1 0.8 4.1 7.4 33.8 3.3 47s-7 21.5-7.9 21.1c-0.8-0.4-2.5 0-2.5 0v41.3s-22.5-3.5-29.1-3.3-24.1-1.9-25-2.7c2.3-3.3 6.2-15.3 6-23.1-5.6 2.3-9.3 4.1-10.9 2.9s-6.8-3.3-6-21.7c0.6-13.4 2.7-32.8 3.7-42.3 0.4-3.3 2.7-6.2 6-7.3z"/><path class="st11" d="m106.2 117.7s7.8 5.5 9.5 5.3v41.3l-15.9-2.2s3.9-2.4 7.9-1.8c4 0.5 5.7 0.8 5.7 0.8l1.4-36.8s-9.6-0.5-11.3-2l1.4-1.4s-3 1.1-3.3 0.4c1-0.9 1.9-2.2 1.9-2.2l-3.7-0.9s1.4-1.7 0.4-2.5c-1-0.9-3.2-3-3.2-3l5.3-4.2 3.9 9.2z"/><path class="st11" d="m89.4 102.8s-6.5-28-6.1-32.6c-5.3-3.1-7.6-5.2-7.6-5.2l13.3 2.3 7.4 34.5-7 1z"/><path class="st11" d="m67.9 137.6s34.5-19.1 47.8-3.3v-11.3l-9.5-5.3-2.2-12.1-29.1 16.6 4.2 6.5-11.5 6.6 0.3 2.3z"/><path class="st12" d="m79.4 107l17.6-7.1 4.7 9.9s-13.1 8-13.7 10.9c-0.5 2.8-8.6-13.7-8.6-13.7z"/><path class="st13" d="m97 99.9l-5.8 2.4 1.2 7.9-9.4 3.8c2.2 4.1 4.7 8.3 5 6.8 0.5-2.9 13.7-10.9 13.7-10.9l-4.7-10z"/><path class="st11" d="m99.5 75.9s6.1 8.7 8 7.4 3.4-3.1 3.4-3.1 2.8 12 1.1 16.1-8-4.3-8-4.3l-4.5-16.1z"/><linearGradient id="d" x1="389.53" x2="438.94" y1="-450.7" y2="-450.7" gradientTransform="matrix(.968 -.2509 .2509 .968 -202.13 566.82)" gradientUnits="userSpaceOnUse"><stop stop-color="#6F4E29" offset="0"/><stop stop-color="#735129" offset=".18"/><stop stop-color="#7B5829" offset=".31"/><stop stop-color="#AF7931" offset="1"/></linearGradient><path class="st14" d="m98.8 32.3l7.2-12.8c1.6-2.9 2-6.4 0.9-9.5-1.4-4.1-3.5-8.9-5.3-6.6-1.6 2-17 7.9-22.6 7.1-8.4-1.3-7.9 6.4-7.9 6.4s-1.2 20.1-6.6 26.1c2 4.4 3.6 7.7 3.6 7.7l30.7-18.4z"/><path class="st15" d="m79.4 18.9s-2.1-4.7 4.3-5.9c6.4-1.3 17.1-4.1 18-9.6-13.1 10.4-24.4 7.5-24.4 7.5s-1 6.4 2.1 8z"/><path class="st15" d="m102.4 8c0.1-6 1.1 17.5-3.6 24.3s-3.2-4.2-3.2-4.2 6.6-8.2 6.8-20.1z"/><path class="st15" d="m85 21s10.7-5.6 16.6-17.7c0.7 7.7-5.6 15.6-10.8 22.8-4.9 6.6-5.8-5.1-5.8-5.1z"/><linearGradient id="c" x1="385.53" x2="427.9" y1="-426.5" y2="-426.5" gradientTransform="matrix(.968 -.2509 .2509 .968 -202.13 566.82)" gradientUnits="userSpaceOnUse"><stop stop-color="#7B5829" offset="0"/><stop stop-color="#AF7931" offset="1"/></linearGradient><path class="st16" d="m69.3 38.5l-4.3 22.5s15.4 9 17.9 12.1c2.5 3 7.6 1.6 11.4-3.6s10.8-13.8 12.9-14.8c-1.8-3.5-5.8-12.9-6-16.9s-23.6-7.4-23.6-7.4l-4 1-4.3 7.1z"/><path class="st15" d="m86.2 62.8c-3.1 0.5-5.9 2.9-7.5 6.9 2 1.4 3.6 2.6 4.2 3.4 0 0-0.4-5.9 3.3-10.3z"/><path class="st15" d="m70.6 64.4c1.2 0.7 2.4 1.5 3.7 2.3 1.1-2 2.8-4.3 5.4-6-3-0.4-6.3 0.9-9.1 3.7z"/><linearGradient id="b" x1="404.62" x2="427.9" y1="-423.82" y2="-423.82" gradientTransform="matrix(.968 -.2509 .2509 .968 -202.13 566.82)" gradientUnits="userSpaceOnUse"><stop stop-color="#7B5829" offset="0"/><stop stop-color="#AF7931" offset="1"/></linearGradient><path class="st17" d="m94.3 69.6c3.8-5.2 10.8-13.8 12.9-14.8-1.8-3.5-5.8-12.9-6-16.9-0.1-2-5.7-3.8-11.4-5.1 1.1 6 3.9 20.8 3.6 22-0.4 1.2-2.4 13.7-5.2 19.6 2.1-0.6 4.3-2.3 6.1-4.8z"/><path class="st18" d="m99.9 38.5s4.9 1.2 4.8-3.4-5.9-2.8-5.9-2.8l1.1 6.2z"/><path class="st19" d="m102.6 34.1c-0.1 0.3-0.3 0.5-0.6 0.8-0.2 0.2-0.5 0.4-0.8 0.6-0.3 0.1-0.6 0.2-0.9 0.3h-1l0.1-0.5c0.3 0.1 0.6 0.1 0.9 0.1s0.6 0 0.9-0.1 0.6-0.2 0.8-0.4c0.2-0.3 0.4-0.5 0.6-0.8z"/><path class="st12" d="m78.3 24.8l-2.4 17.7-2 2.2s4.7 4.8 5.9 9.9c2.1-0.7 3.8-1.1 9.1-2.3 5.2-1.1 6.7-0.2 6.7-0.2l4.8-6.6 0.4-9.3-1.7-6.2-0.4-5.3s-3.6-5.3-11.1-4.9c-7.5 0.6-9.3 5-9.3 5z"/><path class="st20" d="m95.5 51.8c-0.7-0.2-2.5-0.6-6.5 0.3l-0.1-4 3.3-1.4 1.1-2-3.4-7.3-0.3-16.9c5.5 0.4 8.4 4 8.8 4.6l0.4 5.3 1.7 6.2-0.4 9.2-4.6 6z"/><path class="st19" d="m84.4 46.7c0.6 0.2 1.3 0.4 1.9 0.5s1.3 0.2 1.9 0.2h0.5 0.1 0.1 0.2c0.3 0 0.6-0.1 0.9-0.2s0.6-0.2 0.9-0.4 0.6-0.3 0.9-0.5c0 0.1-0.1 0.1-0.2 0.2l-0.1 0.1-0.1 0.1-0.2 0.2-0.1 0.1c-0.3 0.2-0.6 0.4-0.9 0.5-0.1 0-0.2 0.1-0.2 0.1-0.1 0-0.2 0.1-0.2 0.1-0.1 0-0.2 0-0.2 0.1h-0.2-0.2-0.1-0.1-0.5c-0.7 0-1.4-0.1-2-0.3-0.3-0.1-0.7-0.2-0.9-0.4-0.7 0-1-0.2-1.2-0.4z"/><line class="st21" x1="92.6" x2="94.5" y1="36.6" y2="36.2"/><line class="st21" x1="85.6" x2="82.5" y1="36.6" y2="36.2"/><path class="st22" d="m73.5 31.4s-4.9-3.5-7 1.7 5.3 5.7 5.3 5.7l1.7-7.4z"/><path class="st19" d="m68.4 35.1c0.3-0.2 0.6-0.5 1-0.6 0.4-0.2 0.7-0.2 1.1-0.3 0.4 0 0.8 0 1.2 0.1s0.8 0.3 1.1 0.5l-0.3 0.4c-0.3-0.2-0.6-0.4-0.9-0.5s-0.7-0.2-1.1-0.2-0.7 0-1.1 0.2c-0.3 0.1-0.7 0.2-1 0.4z"/><path class="st20" d="m89.6 18c0.7-0.4 1.3-1 1.9-1.5s1.2-1 1.8-1.6c1.1-1.1 2.2-2.3 3.3-3.5 0.5-0.6 1-1.3 1.5-1.9 0.1-0.2 0.2-0.3 0.3-0.5l0.2-0.2 0.2-0.2 0.2-0.5 0.3-0.5c0-0.1 0.1-0.2 0.2-0.2l0.2-0.4c0.1-0.2 0.2-0.3 0.3-0.5 0.2-0.4 0.4-0.7 0.6-1.1 0.4-0.7 0.7-1.4 1-2.2l0.2 0.1c-0.8 0.6-1.7 1.2-2.5 1.7-0.9 0.5-1.7 1.1-2.6 1.6s-1.8 1-2.7 1.4-2 1-2.9 1.3c-0.9 0.4-1.9 0.7-2.9 0.9l-0.4 0.1c-0.1 0-0.2 0-0.4 0.1h-0.4-0.2-0.2-0.4-0.4-0.4-6.4c-0.3-0.1-0.7-0.2-1-0.2-0.2 0-0.3 0.1-0.4 0.2s-0.2 0.2-0.3 0.4-0.1 0.3-0.2 0.5v0.3 0.3 0.3 0.3 0.5 0.5 0.8 0.3 0.5 1.1c0 0.4 0 0.7-0.1 1.1-0.1 1.5-0.2 2.9-0.4 4.4s-0.3 2.9-0.5 4.4c0.1-0.7 0.2-1.5 0.2-2.2s0.1-1.5 0.2-2.2c0.1-1.5 0.2-2.9 0.3-4.4 0-0.4 0-0.7 0.1-1.1v-1.1-0.5-0.3-0.8-0.5-0.5-0.3-0.3c0-0.4 0.1-0.8 0.2-1.1 0.1-0.2 0.2-0.3 0.3-0.5l0.1-0.1s0.1 0 0.1-0.1c0.1 0 0.2-0.1 0.3-0.1h0.6c0.2 0 0.4 0.1 0.6 0.2h6.1 0.4 0.4 0.4 0.4 0.2 0.2 0.4c0.1 0 0.2 0 0.4-0.1l0.4-0.1c1-0.2 2-0.5 2.9-0.9 1.9-0.7 3.7-1.6 5.5-2.6 0.9-0.5 1.8-1 2.6-1.6 0.9-0.5 1.7-1.1 2.5-1.7l0.3-0.2-0.2 0.4-0.2 0.6-0.1 0.3c0 0.1-0.1 0.2-0.1 0.3l-0.6 0.4c-0.1 0.2-0.2 0.4-0.3 0.5-0.2 0.4-0.4 0.7-0.6 1.1-0.1 0.2-0.2 0.3-0.3 0.5l-0.2 0.3c0 0.1-0.1 0.2-0.2 0.2l-0.3 0.5-0.3 0.5-0.2 0.2-0.2 0.2c-0.1 0.2-0.2 0.3-0.3 0.5-0.5 0.7-1 1.3-1.5 1.9-1 1.2-2.1 2.4-3.3 3.5-0.6 0.5-1.2 1.1-1.8 1.6-0.6 0.6-1.2 1.1-1.9 1.5z"/><path class="st20" d="m101.7 3.3c0 0.7-0.1 1.4-0.2 2.1 0 0.2 0 0.3-0.1 0.5 0 0.2 0 0.3-0.1 0.5v0.6l-0.1 0.5c-0.2 0.7-0.3 1.4-0.6 2-0.2 0.7-0.4 1.3-0.7 2-0.5 1.3-1.1 2.6-1.7 3.8-0.3 0.6-0.7 1.2-1 1.8-0.4 0.6-0.7 1.2-1.1 1.8 0.4-0.6 0.7-1.2 1.1-1.8 0.3-0.6 0.7-1.2 1-1.8 0.6-1.2 1.2-2.5 1.7-3.8 0.2-0.7 0.5-1.3 0.7-2s0.4-1.4 0.5-2l0.1-0.5 0.1-0.5c0-0.2 0.1-0.3 0.1-0.5s0-0.3 0.1-0.5c0.1-0.7 0.1-1.4 0.2-2.1v-0.1z"/><path class="st20" d="m99.5 22.8c0.4-0.8 0.7-1.5 0.9-2.3 0.3-0.8 0.5-1.6 0.7-2.4 0.4-1.6 0.7-3.2 0.9-4.9 0.2-1.6 0.2-3.3 0.2-5-0.1-1.7-0.3-3.3-0.8-4.9l0.3-0.1c0.4 1.6 0.7 3.3 0.7 4.9 0 1.7 0 3.4-0.2 5-0.2 1.7-0.6 3.3-1 4.9-0.2 0.8-0.5 1.6-0.7 2.4-0.3 0.9-0.6 1.7-1 2.4z"/><path class="st12" d="m93 63l13.2 26 2.9 3-11.1 16.5-2.7-5s-9.4-26.8-9.6-35.9c-2.2-0.8-9.2-2.9-11.3-2.9s0.8-11.1 0.8-11.1l-7.2-4.9c-1-0.7-1.3-2-0.7-3 0.6-1.1 2-1.4 3-0.8 4.6 2.5 17.1 9.6 17.9 11.2 0.5-2.2 0.8-4.4 0.8-6.6l1.4-0.9c0.7-0.5 1.7-0.2 2.1 0.5 0.2 0.2 0.2 0.5 0.2 0.8l0.3 13.1z"/><path class="st23" d="m106.2 117.7l6.1-19.7 1.2-0.8-2.1-4.5-3.2-4.9-2 1.3 1 1.4s-7.2 16.4-10.2 15.5c-0.9-0.2-1.8-2.3-1.8-2.3l-0.6 2.6 3.7 6.2 1.4-0.5 0.1 1.2 2.6 1.8 0.3 1.4 3.5 1.3z"/><polygon class="st23" points="78.3 105.6 84.6 112.8 90.4 123.1 86.3 127 81.4 130.1 76.6 124.4 73.5 117.7 68.9 110.3 73.8 108.6"/><polygon class="st24" points="70.4 110.8 74.1 109.4 76.9 110.8"/><path class="st24" d="m76.3 121.4l3.3 4.9s3.2 1.8 5 0.8c-1-1.4-4.2-5.7-4.2-5.7h-4.1z"/><polygon class="st24" points="82.1 121.4 85.7 125.6 89.4 123 87 119.2"/><polygon class="st24" points="80.5 127.4 81.5 129 83.1 128.2"/><path class="st11" d="m67.6 135.3c3.5-1.5 12.2-7.1 12.2-7.1l1.6 2 5.5-3.8-3.5 5.5s-11.9 4.9-12.1 8.5c-0.3 3.6-1.8 15.8-1.8 15.8s16.3-0.1 17.4 0 3 4.3 3 4.3-23.1-0.1-27.1-2.3c1.6-2.9 6.5-16.7 4.8-22.9z"/><path class="st25" d="m59.7 117.4s7.4-4.6 10.5-4.9"/><path class="st25" d="m67.6 135.3s10.4-5.4 12.2-7.1"/><path class="st11" d="m76.3 130.1s-13.6 6.1-14 5.2c1.4-1.7 2.9-2.9 2.6-4.1-5.2 4.2-9.4 4-10.9 0.5-1.4-3.5-1.8 2.1-0.5 3.7 1.4 1.6 3 3.5 4.7 3.2 1.8-0.3 13.6-4.2 18.1-8.5z"/><path class="st11" d="m61.1 116.6s5.7-14.6 5.1-19.3c1.1 7.6 2 15.7 2 15.7l-7.1 3.6z"/><path class="st25" d="m90 160.4s5.8-18.5 4.6-45.5"/><path class="st25" d="m92.4 160.4s5.8-18.5 4.6-45.5"/><path class="st25" d="m62.9 66c1.9 3.3 7.7 13.3 2.6 27.9 0 0 2.9 14.6 2.7 19.1s0.7-7.4 0.7-7.4"/><path class="st25" d="m106.1 51.7s2.6 18.6 4.3 26.3c2.2 10 2.1 16.9 2.1 16.9"/><path class="st13" d="m99.8 105.8c-3.6-7.7-10.8-25-10.8-38.5l-11.3-1.9c2.8 0.7 6.4 1.8 7.9 2.3 0.3 9.1 9.6 35.9 9.6 35.9l2 3.6 1.1 0.7 1.5-2.1z"/><path class="st13" d="m74.3 64.8c0.7 0 2 0.2 3.4 0.6v-10.2l-2.6-1.6s-2.9 11.2-0.8 11.2z"/><path class="st11" d="m72.7 90.9s4.4 5.2 9.9 5.4-6.9 0.9-6.9 0.9-4.6-1.2-3-6.3z"/><path class="st11" d="m72.9 81.2s2 7.4 7.9 11.4-8-3.9-8-3.9-4.3-4.3 0.1-7.5z"/></g><linearGradient id="k" x1="192.32" x2="347.58" y1="-218" y2="-218" gradientTransform="translate(-179.94 327.7)" gradientUnits="userSpaceOnUse"><stop stop-color="#1B364A" offset="0"/><stop stop-color="#16547E" offset="1"/></linearGradient><path class="st26" d="m132.4 40.3c20.2 13.6 33.4 36.7 33.4 62.8 0 41.9-33.9 75.8-75.8 75.8s-75.8-33.9-75.8-75.8c0-22.3 9.6-42.3 24.9-56.2"/><linearGradient id="j" x1="145.21" x2="177.89" y1="-204.06" y2="-204.06" gradientTransform="translate(0 367.14)" gradientUnits="userSpaceOnUse"><stop stop-color="#1B364A" offset="0"/><stop stop-color="#16547E" offset="1"/></linearGradient><line class="st27" x1="147.6" x2="175.5" y1="152.7" y2="173.5"/></svg>
