<?xml version="1.0" encoding="UTF-8"?>
<svg enable-background="new 0 0 180 180" version="1.1" viewBox="0 0 180 180" xml:space="preserve" xmlns="http://www.w3.org/2000/svg" xmlns:cc="http://creativecommons.org/ns#" xmlns:dc="http://purl.org/dc/elements/1.1/" xmlns:rdf="http://www.w3.org/1999/02/22-rdf-syntax-ns#" xmlns:xlink="http://www.w3.org/1999/xlink"><metadata><rdf:RDF><cc:Work rdf:about=""><dc:format>image/svg+xml</dc:format><dc:type rdf:resource="http://purl.org/dc/dcmitype/StillImage"/><dc:title>human-speedAndGraphic</dc:title></cc:Work></rdf:RDF></metadata><style type="text/css">
	.st0{fill:none;}
	.st1{fill:none;stroke:#6199F2;stroke-width:4;stroke-miterlimit:10;}
	.st2{fill:none;stroke:#A2C0FC;stroke-width:4;stroke-miterlimit:10;}
	.st3{opacity:0.31;fill:#B1CEFC;enable-background:new    ;}
	.st4{fill:#BFBABB;}
	.st5{fill:#B81225;}
	.st6{fill:none;stroke:#A4F990;stroke-width:1.4764;stroke-miterlimit:10;}
	.st7{fill:#C7DBFB;}
	.st8{fill:#845D2A;}
	.st9{fill:#FFE7B6;}
	.st10{fill:#021225;}
	.st11{fill:#9CBDFA;}
	.st12{fill:#11293E;}
	.st13{fill:#1A3A51;}
	.st14{fill:#5D4620;}
	.st15{fill:#6199F2;}
	.st16{fill:#041228;}
	.st17{fill:url(#i);stroke:#12233F;stroke-width:0.1476;stroke-miterlimit:10;}
	.st18{opacity:0.4;}
	.st19{fill:url(#h);}
	.st20{fill:url(#g);}
	.st21{opacity:0.4;fill:url(#f);enable-background:new    ;}
	.st22{opacity:0.4;fill:url(#e);enable-background:new    ;}
	.st23{opacity:0.4;fill:url(#d);enable-background:new    ;}
	.st24{fill:#F7EBD2;stroke:#A8844A;stroke-width:0.1476;stroke-miterlimit:10;}
	.st25{fill:#F9DDAA;}
	.st26{fill:url(#c);}
	.st27{opacity:0.32;fill:url(#b);enable-background:new    ;}
	.st28{opacity:0.44;fill:#D3963D;enable-background:new    ;}
	.st29{fill:#F9DDAA;stroke:#A8844A;stroke-width:0.1845;stroke-miterlimit:10;}
	.st30{fill:#AD761D;}
	.st31{fill:url(#a);}
	.st32{fill:url(#l);}
	.st33{fill:#FFE7B6;stroke:#B58537;stroke-width:0.1476;stroke-miterlimit:10;}
	.st34{fill:#BA7506;}
	.st35{opacity:0.29;}
	.st36{opacity:0.56;fill:#F9DDAA;enable-background:new    ;}
	.st37{fill:#CADEFF;stroke:#6199F2;stroke-width:0.1476;stroke-miterlimit:10;}
	.st38{opacity:0.63;fill:url(#k);enable-background:new    ;}
	.st39{opacity:0.53;fill:url(#j);enable-background:new    ;}
	.st40{opacity:0.71;fill:#B1CEFC;enable-background:new    ;}
	.st41{opacity:0.63;fill:#6199F2;enable-background:new    ;}
	.st42{fill:#A2C0FC;stroke:#6199F2;stroke-width:0.1476;stroke-miterlimit:10;}
	.st43{fill:#B1CEFC;}
	.st44{fill:#6199F2;stroke:#A2C0FC;stroke-width:0.1476;stroke-miterlimit:10;}
	.st45{opacity:0.9;fill:#B1CEFC;enable-background:new    ;}
	.st46{fill:none;stroke:#12233F;stroke-width:0.2953;stroke-miterlimit:10;}
	.st47{fill:#A4F990;}
	.st48{fill:#BA94FF;}
	.st49{fill:#A2C0FC;}
	.st50{fill:#FCCFF2;}
	.st51{fill:none;stroke:#6199F2;stroke-width:0.3691;stroke-miterlimit:10;}
</style><pattern id="n" x="-410" y="418.2" width="121.3" height="125.8" overflow="visible" patternUnits="userSpaceOnUse" viewBox="0 -125.8 121.3 125.8"><rect class="st0" y="-125.8" width="121.3" height="125.8"/><rect class="st0" y="-125.8" width="121.3" height="125.8"/><rect class="st0" y="-125.8" width="121.3" height="125.8"/><line class="st1" x1="25.5" x2="25.5" y1="-125.8"/><line class="st1" x1="44.9" x2="44.9" y1="-125.8"/><line class="st1" x1="121.3" y1="-99.6" y2="-99.6"/><line class="st1" x1="121.3" y1="-80.2" y2="-80.2"/><line class="st2" x2="121.3" y1="-62.9" y2="-62.9"/><line class="st2" x2="121.3" y1="-45.6" y2="-45.6"/><rect class="st3" x="44.9" y="-80.2" width="33.7" height="33.7"/></pattern><pattern id="m" x="-410" y="418.2" width="121.3" height="125.8" overflow="visible" patternUnits="userSpaceOnUse" viewBox="0 -125.8 121.3 125.8"><rect class="st0" y="-125.8" width="121.3" height="125.8"/><rect class="st0" y="-125.8" width="121.3" height="125.8"/><rect class="st0" y="-125.8" width="121.3" height="125.8"/><line class="st1" x1="25.5" x2="25.5" y1="-125.8"/><line class="st1" x1="44.9" x2="44.9" y1="-125.8"/><line class="st1" x1="121.3" y1="-99.6" y2="-99.6"/><line class="st1" x1="121.3" y1="-80.2" y2="-80.2"/><line class="st2" x2="121.3" y1="-62.9" y2="-62.9"/><line class="st2" x2="121.3" y1="-45.6" y2="-45.6"/><rect class="st3" x="44.9" y="-80.2" width="33.7" height="33.7"/></pattern><title>human-speedAndGraphic</title><path d="m90.9 25c1.6376 1.5856 1.7663 4.9857 2.35 7.325-2.1797-0.05362-1.7159-4.695-2.75-6.625l0.05-0.425z" fill="#bfbabb"/><path d="m92.6 32.3c2.7558-0.25867 1.9935 4.542 3.1 6.5-2.243 3.2772-2.792-3.0885-3.4019-4.8323-0.10341-0.5366-0.58946-1.4782 0.30188-1.6677z" fill="#b81225"/><path d="m0 92.5c10.533-6.2667 21.067-12.533 31.6-18.8 15.067 8 30.133 16 45.2 24l45-34.5c9.6333 4.5667 19.267 9.1333 28.9 13.7 9.3-7.3667 18.6-14.733 27.9-22.1" fill="none" stroke="#a4f990" stroke-miterlimit="10" stroke-width="1.4764"/><path d="m51.2 68.3c7.0333-0.13333 14.067-0.26667 21.1-0.4-1.0733 1.5902-5.103 0.18161-7.3358 0.5957-4.5881-0.065233-9.1762-0.13047-13.764-0.1957z" fill="#c7dbfb"/><path d="m54.7 65.5c7.0667-0.13333 14.133-0.26667 21.2-0.4-1.0733 1.5903-5.103 0.18195-7.3358 0.59619-4.6214-0.065397-9.2428-0.1308-13.864-0.19619z" fill="#c7dbfb"/><path d="m69.3 83.8c7.0667-0.13333 14.133-0.26667 21.2-0.4-1.0733 1.5903-5.103 0.18195-7.3358 0.59619-4.6214-0.065397-9.2428-0.1308-13.864-0.19619z" fill="#c7dbfb"/><path d="m45.9 41.2c7.0667-0.13333 14.133-0.26667 21.2-0.4-0.91418 1.7806-5.1063 0.22075-7.3352 0.6616-4.6216-0.0872-9.2432-0.1744-13.865-0.2616z" fill="#845d2a"/><path d="m70.6 34.7c7.0667-0.13333 14.133-0.26667 21.2-0.4-0.91418 1.7806-5.1063 0.22075-7.3352 0.6616-4.6216-0.0872-9.2432-0.1744-13.865-0.2616z" fill="#ffe7b6"/><path d="m70.6 28.1c7.0667-0.13333 14.133-0.26667 21.2-0.4-1.0733 1.5903-5.103 0.18195-7.3358 0.59619-4.6214-0.065397-9.2428-0.1308-13.864-0.19619z" fill="#bfbabb"/><path d="m19.1 84.5c7.0667-0.13333 14.133-0.26667 21.2-0.4-1.0733 1.5903-5.103 0.18195-7.3358 0.59619-4.6214-0.065397-9.2428-0.1308-13.864-0.19619z" fill="#021225"/><path d="m122.1 77.1c7.0333-0.1 14.067-0.2 21.1-0.3-1.0732 1.5851-5.1026 0.15743-7.3352 0.56094-4.5883-0.086981-9.1766-0.17396-13.765-0.26094z" fill="#021225"/><path d="m118.2 75.2c7.0667-0.13333 14.133-0.26667 21.2-0.4-0.91418 1.7806-5.1063 0.22075-7.3352 0.6616-4.6216-0.0872-9.2432-0.1744-13.865-0.2616z" fill="#021225"/><path d="m48.2 75.9c7.0667-0.13333 14.133-0.26667 21.2-0.4-0.91418 1.7806-5.1063 0.22075-7.3352 0.6616-4.6216-0.0872-9.2432-0.1744-13.865-0.2616z" fill="#9cbdfa"/><path d="m65.8 81.4c7.0667-0.13333 14.133-0.26667 21.2-0.4-1.0733 1.5903-5.103 0.18195-7.3358 0.59619-4.6214-0.065397-9.2428-0.1308-13.864-0.19619z" fill="#9cbdfa"/><path d="m48.2 101.6c7.0667-0.1 14.133-0.2 21.2-0.3-1.0732 1.5852-5.1026 0.15789-7.3352 0.5616-4.6216-0.0872-9.2432-0.1744-13.865-0.2616z" fill="#11293e"/><path d="m39 93.6c7.0667-0.13333 14.133-0.26667 21.2-0.4-0.91418 1.7806-5.1063 0.22075-7.3352 0.6616-4.6216-0.0872-9.2432-0.1744-13.865-0.2616z" fill="#1a3a51"/><path d="m69.2 86.9c7.0667-0.1 14.133-0.2 21.2-0.3-1.0732 1.5852-5.1026 0.15789-7.3352 0.5616-4.6216-0.0872-9.2432-0.1744-13.865-0.2616z" fill="#1a3a51"/><path d="m47 48.3c7.0333-0.13333 14.067-0.26667 21.1-0.4-1.0733 1.5902-5.103 0.18161-7.3358 0.5957-4.5881-0.065233-9.1762-0.13047-13.764-0.1957z" fill="#845d2a"/><path d="m52.6 54.7c7.0333-0.13333 14.067-0.26667 21.1-0.4-1.0733 1.5902-5.103 0.18161-7.3358 0.5957-4.5881-0.065233-9.1762-0.13047-13.764-0.1957z" fill="#5d4620"/><path d="m60.2 57.7c7.0333-0.13333 14.067-0.26667 21.1-0.4-0.91418 1.7805-5.1063 0.22029-7.3352 0.66094-4.5883-0.086981-9.1765-0.17396-13.765-0.26094z" fill="#6199f2"/><path d="m55.6 86.7c-3.366-6.3438-8.0383-0.27908-13.861-3.3075-3.3074-1.9278-8.7098 2.5064-2.3059 1.5075 5.8907-1.0806 11.25 6.9118 16.167 1.8z" fill="#041228"/><linearGradient id="i" x1="139.47" x2="229.56" y1="-298.16" y2="-298.16" gradientTransform="matrix(.9982 -.059829 .059829 .9982 -70.433 392.34)" gradientUnits="userSpaceOnUse"><stop stop-color="#1B364A" offset="0"/><stop stop-color="#16547E" offset="1"/></linearGradient><path d="m100.7 87.3c2.3598-7.0144 7.1718-13.162 12.836-17.807 6.6701-1.3691 15.123-1.6299 21.122 2.4043 1.9175 4.1703 9.1038 4.3796 3.091-0.13049-6.9201-6.1055-16.298-11.146-25.748-8.4252-8.6352 1.4083-14.276 8.448-20.041 14.268-10.016 2.8645-5.0904 15.32-14.272 18.705-4.7084 2.3949-9.7224 6.2497-12.118-0.58645-3.9356-4.1121-8.5633-13.137-14.269-6.2281 9.348 1.7804 10.66 15.557 20.3 15.58 7.2768-0.96975 15.309-5.5942 22.1-9.7797 2.7325-1.9907 5.5537-4.8725 7-8z" fill="url(#i)" stroke="#12233f" stroke-miterlimit="10" stroke-width=".1476"/><g class="st18"><linearGradient id="h" x1="109.61" x2="109.61" y1="16.562" y2="16.562" gradientTransform="translate(0 56.401)" gradientUnits="userSpaceOnUse"><stop stop-color="#1B364A" offset="0"/><stop stop-color="#16547E" offset="1"/></linearGradient><path d="m109.6 73z" fill="url(#h)"/><linearGradient id="g" x1="112.77" x2="139.18" y1="14.349" y2="14.349" gradientTransform="translate(0 56.401)" gradientUnits="userSpaceOnUse"><stop stop-color="#1B364A" offset="0"/><stop stop-color="#16547E" offset="1"/></linearGradient><path d="m132.3 69.3c-5.9553-3.3385-14.074-4.2535-19.5 0.6 6.3335-2.6581 14.639-1.5512 20.891 1.1562 2.2836 2.9556 8.0088 6.0179 2.9344 1.1812-1.2842-1.1882-2.7505-2.1758-4.325-2.9375z" fill="url(#g)"/></g><path d="m137.2 74.6c-2.5111 4.781 3.6111 4.0797 6.0828 3.6453 2.727-0.52652 11.154-1.2334 3.7172-2.1453-4.3079 2.4248-5.3329-3.3396-9.8-1.5z" fill="#041228"/><linearGradient id="f" x1="86.989" x2="96.606" y1="39.166" y2="39.166" gradientTransform="translate(0 56.401)" gradientUnits="userSpaceOnUse"><stop stop-color="#1B364A" offset="0"/><stop stop-color="#16547E" offset="1"/></linearGradient><path d="m87.2 98.6c3.5988-1.1148 14.146-8.0234 4.7438-5.9375-1.9322-1.3694-4.1795 6.2012-4.7438 5.9375z" enable-background="new" fill="url(#f)" opacity=".4"/><path d="m73.3 104.3c-0.1 0-0.1 0 0 0z" fill="#041228"/><linearGradient id="e" x1="62.046" x2="72.99" y1="45.236" y2="45.236" gradientTransform="translate(0 56.401)" gradientUnits="userSpaceOnUse"><stop stop-color="#1B364A" offset="0"/><stop stop-color="#16547E" offset="1"/></linearGradient><path d="m66 101.3c-3.3154-3.1952-5.0297-3.3178-1.3125 0.6375 1.6247 4.4489 13.065 2.8543 4.3625 1.8375-1.1887-0.58642-2.1174-1.56-3.05-2.475z" enable-background="new" fill="url(#e)" opacity=".4"/><linearGradient id="d" x1="83.811" x2="103.29" y1="22.201" y2="22.201" gradientTransform="translate(0 56.401)" gradientUnits="userSpaceOnUse"><stop stop-color="#1B364A" offset="0"/><stop stop-color="#16547E" offset="1"/></linearGradient><path d="m89.4 79c-6.7087 2.856-7.3536 12.73 1.5387 8.4494 7.1519-1.8922 9.1715-11.557 12.361-17.849-5.9821-1.4-8.8154 6.6332-13.9 9.4z" enable-background="new" fill="url(#d)" opacity=".4"/><path d="m77.9 54.3c0.92686 4.9829 11.86 4.4649 8.4-2.3-2.1907-6.2619-5.3337 0.25219-8.4 2.3z" fill="#f7ebd2" stroke="#a8844a" stroke-miterlimit="10" stroke-width=".1476"/><path d="m85.1 50.2c-4.4263 2.1063 0.29634 8.6526 1.2281 5.95-0.23041-2.1227 0.53398-4.2913-1.2281-5.95z" fill="#f9ddaa"/><linearGradient id="c" x1="63.144" x2="79.884" y1="-9.4278" y2="-9.4278" gradientTransform="translate(0 56.401)" gradientUnits="userSpaceOnUse"><stop stop-color="#7B5829" offset="0"/><stop stop-color="#AF7931" offset="1"/></linearGradient><path d="m78.4 42.1c-3.1766-4.4798-14.897-6.2619-14.2-0.4 5.1147 4.3037 2.6238 17.382 12.411 13.474 5.1262 2.1806 3.3233-11.115 1.7893-13.074z" fill="url(#c)"/><linearGradient id="b" x1="67.402" x2="78.084" y1="-3.913" y2="-3.913" gradientTransform="translate(0 56.401)" gradientUnits="userSpaceOnUse"><stop stop-color="#1B364A" offset="0"/><stop stop-color="#16547E" offset="1"/></linearGradient><path d="m68.5 51.6c0.72157 7.8343 13.688 3.5612 8.3-2-1.7497 6.5985-8.7253 0.87194-9.3406-0.08125l0.26562 0.75625z" enable-background="new" fill="url(#b)" opacity=".32"/><path d="m72.1 41.9c-1.47-2.2122-6.4009-3.4645-0.9-2.4 1.3404-0.46553 3.8144 3.7444 0.9 2.4z" enable-background="new" fill="#d3963d" opacity=".44"/><path d="m72.1 39.4c1.6115 1.4444 4.2452 3.5569 1.4375 0.4625z" enable-background="new" fill="#d3963d" opacity=".44"/><path d="m65.4 41.4c3.0706 0.385 6.1939 11.247 5 3.3-0.90757-1.9921-2.899-3.0549-5-3.3z" enable-background="new" fill="#d3963d" opacity=".44"/><path d="m73.6 50.4c-8.5394-3.7176-0.44732-14.31 6.0188-7.7156 7.69 4.772 0.70182 11.862-6.0188 7.7156z" fill="#f7ebd2" stroke="#a8844a" stroke-miterlimit="10" stroke-width=".1476"/><path d="m81.9 48.1c-1.8022-4.3066-11.149-2.3017-10.4-6.9 4.3324-2.4667 14.236 5.6178 10.4 6.9z" fill="#f9ddaa"/><path d="m74.2 50.8c-3.1108 5.2417-4.6816-4.9629 0 0z" fill="#f9ddaa" stroke="#a8844a" stroke-miterlimit="10" stroke-width=".1845"/><path d="m71.9 51c1.3659-1.4147 1.8609-0.86811 0 0z" fill="#ad761d"/><linearGradient id="a" x1="73.463" x2="87.57" y1="-6.8655" y2="-6.8655" gradientTransform="translate(0 56.401)" gradientUnits="userSpaceOnUse"><stop stop-color="#7B5829" offset="0"/><stop stop-color="#AF7931" offset="1"/></linearGradient><path d="m86.4 47.9c-1.5101-3.0474-11.081-8.2683-4.6-3.3 4.0997 5.3786-3.6038 9.1928-8.1 5.9 1.645 3.4208 3.4293 8.1764 8.2938 5.275 2.3461-0.13381 7.504-5.5086 4.4062-7.875z" fill="url(#a)"/><path d="m73.4 47.7c1.7178-2.0859 2.3802-1.9267 0 0z" fill="#ad761d"/><path d="m76.8 45.3c-0.45671-1.6961 2.241-2.0017-0.2-0.3z" fill="#ad761d"/><path d="m79.8 49.2c-0.26109-1.7646 3.5486-2.7586 1.6-2.2-0.83625 0.27005-1.3448 1.5058-1.6 2.2z" fill="#ad761d"/><path d="m79 46.3c3.3532 0.9861-0.2735 4.1359 0 0z" fill="#f9ddaa"/><linearGradient id="l" x1="78.63" x2="87.568" y1="-7.5405" y2="-7.5405" gradientTransform="translate(0 56.401)" gradientUnits="userSpaceOnUse"><stop stop-color="#7B5829" offset="0"/><stop stop-color="#AF7931" offset="1"/></linearGradient><path d="m86.8 51.3c2.9358-4.669-13.299-13.129-4.625-5.9422 1.8751 3.1407-1.274 4.4699 1.5516 7.3438-1.1008 6.4368 1.4099 0.043743 3.0734-1.4016z" fill="url(#l)"/><path d="m69.5 38.4c-2.8033-0.8016-9.5492 4.9601-3.4906 1.4635 7.5535 0.62352-2.5968 0.13425-3.2724 1.7669 1.9384-2.1392 4.26-2.6427 6.763-3.2304z" fill="#f9ddaa"/><path d="m70.3 51.3c-3.4998-1.8752-0.84937-7.1817-4.7-8.9-1.8202-1.9111 4.1802 3.6844 3 6.7-0.07477 0.97408 1.0148 1.7637 1.7 2.2z" fill="#f9ddaa"/><path d="m105.8 41.8c-3.7447-4.0633-9.1663-8.3031-14.3-8.4-3.3276 3.5769 3.3522 6.2865 6.5516 5.9938 3.1477 0.73773 4.7269 6.5686 7.7484 2.4062z" fill="#ffe7b6" stroke="#b58537" stroke-miterlimit="10" stroke-width=".1476"/><path d="m103.2 43.6c-2.1985-2.6402-10.45-7.0174-3.1-3.1 1.2203 0.82094 2.2791 1.8797 3.1 3.1z" fill="#ba7506"/><path d="m103.1 43.6c-2.2221-2.8973-5.7017-4.2405-8.8-5.8 3.2918 1.2207 6.6785 2.7658 8.8 5.8z" fill="#ba7506"/><g class="st35"><path d="m91.5 35.6c2.2575 3.4863 2.165 4.0107 0 0z" fill="#ba7506"/></g><g class="st35"><path d="m103.1 43.8c-2.616-2.4929-5.181-6.3383 0 0z" fill="#ba7506"/></g><path d="m96.1 38.6c4.8379-1.5918 8.6308 5.2693 2.175 1.2375l-1.0969-0.65156z" enable-background="new" fill="#f9ddaa" opacity=".56"/><path d="m87 57.6c4.7658 4.672 8.1688 14.729 12.941 16.691 4.8032-4.6553-7.9477-13.379-1.7584-16.33 3.2998-4.9336 16.577-5.1412 10.419-12.193-0.4598-4.053-7.6776-7.206-5.3559-1.9547 6.709 6.1091-5.9883 7.2645-10.512 9.7537-4.8059-0.12093-6.5646-3.6008-5.733 4.0338z" fill="#cadeff" stroke="#6199f2" stroke-miterlimit="10" stroke-width=".1476"/><pattern id="k" xlink:href="#n" patternTransform="matrix(.0369 0 0 .0369 -7957.6 -6446.1)"/><path d="m87 57.6c4.7658 4.672 8.1688 14.729 12.941 16.691 4.8032-4.6553-7.9477-13.379-1.7584-16.33 3.2998-4.9336 16.577-5.1412 10.419-12.193-0.4598-4.053-7.6776-7.206-5.3559-1.9547 6.709 6.1091-5.9883 7.2645-10.512 9.7537-4.8059-0.12093-6.5646-3.6008-5.733 4.0338z" enable-background="new" fill="url(#k)" opacity=".63"/><path d="m87 57.6c-7.5691-0.76433-10.894 3.6678-14.181 9.6562-3.237 3.5196-11.763 6.222-6.2739 11.064 4.3948 1.1324 9.3815 2.2163 10.155-3.7199-3.1317 0.02373-7.9934 0.47626-2.2078-0.9375 5.4918-0.22667 6.9384-11.706 9.1406-2.2359 0.94328 4.5622 0.15199 10.657 0.76719 14.173 6.9248-0.77025 17.014-5.3726 12.976-13.229-3.4339-4.9405-6.5196-10.135-10.376-14.771z" fill="#cadeff" stroke="#6199f2" stroke-miterlimit="10" stroke-width=".1476"/><pattern id="j" xlink:href="#m" patternTransform="matrix(.0369 0 0 .0369 -7957.6 -6446.1)"/><path d="m87 57.6c-7.5691-0.76433-10.894 3.6678-14.181 9.6562-3.237 3.5196-11.763 6.222-6.2739 11.064 4.3948 1.1324 9.3815 2.2163 10.155-3.7199-3.1317 0.02373-7.9934 0.47626-2.2078-0.9375 5.4918-0.22667 6.9384-11.706 9.1406-2.2359 0.94328 4.5622 0.15199 10.657 0.76719 14.173 6.9248-0.77025 17.014-5.3726 12.976-13.229-3.4339-4.9405-6.5196-10.135-10.376-14.771z" enable-background="new" fill="url(#j)" opacity=".53"/><path d="m91.1 53.3c-8.7967-3.0932-1.6327 8.904 1.4742 12.096 1.838 3.8062 8.9998 14.236 8.1885 5.0094-2.754-6.0279-4.8448-12.314-9.6627-17.106z" enable-background="new" fill="#b1cefc" opacity=".71"/><g fill="#6199f2"><path d="m99.5 75c0.80148-1.0425 1.9018-2.816 0 0z" enable-background="new" opacity=".63"/><path d="m87.1 52.2c-0.16612 3.3813-0.16676 3.2366 0 0z" enable-background="new" opacity=".63"/><path d="m102.1 42.6c4.1546 3.5794 4.3048 6.8967-1.5512 7.9221-3.7154 3.1396-13.423 1.6538-6.2725 6.6846 3.1096 5.6702 9.11-5.7986 14.447-5.4059 5.1648-0.39016-4.4799-15.943-6.6232-9.2007z" enable-background="new" opacity=".63"/></g><path d="m108 48.3c-1.4056-2.9597-8.6449-9.6908-3.7125-3.05 1.1241 1.611 1.3452 3.4323 3.7125 3.05z" enable-background="new" fill="#b1cefc" opacity=".71"/><path d="m100.1 41.4c2.0791-4.958 9.697-0.92605 3.0656 0.73438-1.1247 1.3534-2.0436-0.49108-3.0656-0.73438z" fill="#a2c0fc" stroke="#6199f2" stroke-miterlimit="10" stroke-width=".1476"/><path d="m83.2 70.2c0.52145 2.9589 4.6062 6.3622 2.75 6.6125-0.2762-0.48498-0.66137 8.2452-1.0162 1.45-0.49828-2.6882-0.69914-5.5191-1.7338-8.0625z" enable-background="new" fill="#b1cefc" opacity=".71"/><path d="m86.3 78.1c0.30016 4.0505-2.4181 8.4455 3.55 5.1062 3.5918-1.1467-4.9964 1.7657-2.6875-2.7438l-0.32344-1.4297z" enable-background="new" fill="#b1cefc" opacity=".71"/><path d="m95.3 81.5c-4.1646 2.346-8.6753-0.93885 0 0z" fill="#b1cefc"/><path d="m96.4 78.7c3.3508-2.8112-0.66519-9.105-1.024-8.173 0.86122 2.6028 1.6322 5.4268 1.024 8.173z" enable-background="new" fill="#b1cefc" opacity=".71"/><path d="m68.1 74.2c3.0175 2.2486 14.303-4.7827 6.5107-1.0566-2.09 0.66123-4.2949 1.2968-6.5107 1.0566z" enable-background="new" fill="#b1cefc" opacity=".71"/><path d="m78 59c-0.30547-5.1604 11.55 2.4906 8.2594-5.55 0.84142-5.1037 2.5642 7.4585-2.6344 4.6789-1.8823 0.23902-3.7637 0.49859-5.625 0.87109z" fill="#6199f2" stroke="#a2c0fc" stroke-miterlimit="10" stroke-width=".1476"/><path d="m65.3 74.4c1.3175 3.7576 12.899 4.8819 4.1 4.325-3.4802-0.03405-4.0606-0.90928-4.1-4.325z" enable-background="new" fill="#b1cefc" opacity=".71"/><path d="m96.9 70.5c0.34244 3.9743 5.624 2.7814 3.0094 1.4203-1.14-0.047781-2.2443-0.57722-3.0094-1.4203z" enable-background="new" fill="#b1cefc" opacity=".71"/><path d="m94.2 57.6c2.7897 4.0871 1.0115 6.1303 0 0z" enable-background="new" fill="#b1cefc" opacity=".71"/><path d="m74.7 78.8c2.295 0.59452 6.2422-1.1339 7.3 1.2 3.0129 0.16851 5.8297 0.14911 4.7-3.6525 0.48994-3.2707-4.7293 0.23584-0.9772-1.8721-2.0959-2.4682-3.8016 0.89957-5.6466 1.0153-3.124-0.075895-4.5733-0.11301-5.3762 3.3093z" fill="#f7ebd2" stroke="#a8844a" stroke-miterlimit="10" stroke-width=".1476"/><path d="m85.5 74.9c-0.96186 2.0811-0.9938 7.1527 1.2 4.0369-0.45249-1.2356 1.1081-4.8687-1.2-4.0369z" enable-background="new" fill="#f9ddaa" opacity=".56"/><path d="m81.9 78.7c-1.7638-1.0442-6.0047-2.3306-6.898-0.10491 2.2847 0.044514 4.601 0.068428 6.898 0.10491z" fill="#f9ddaa"/><path d="m84.1 83.5c3.8063-2.7424 0.39875-6.2573 0.29844-1.0266z" enable-background="new" fill="#b1cefc" opacity=".9"/><path d="m83.9 88.1c2.6256 4.2098 8.1956 5.2147 12.7 4" fill="none" stroke="#12233f" stroke-miterlimit="10" stroke-width=".2953"/><path d="m116.9 83.1c5.4253 0.52001 12.234-1.7761 16.034 3.3252 2.2934 5.0428 0.86808 10.844 1.2656 16.258v32.816h-24.9c0.12148-15.441-0.24509-30.911 0.18711-46.332 0.70921-3.4012 3.903-6.1183 7.4129-6.0676z" fill="#a4f990"/><path d="m51.8 136h-13.9c0.0867-7.9382-0.17801-15.894 0.14082-23.821 1.6123-9.1549 16.008-5.6858 13.851 3.1467-0.030765 6.8913-0.061529 13.783-0.092294 20.674z" fill="#ba94ff"/><path d="m40.6 135.7h-18c0.09807-10.674-0.19917-21.367 0.1541-32.028 1.4363-7.2162 12.591-7.9402 16.48-2.6467 2.2934 5.0428 0.86808 10.844 1.2656 16.258 0.06616 6.1042-0.1326 12.479 0.1 18.416z" fill="#a2c0fc"/><path d="m29.7 136h-13.9c0.0867-7.9382-0.17801-15.894 0.14082-23.821 1.6123-9.1549 16.008-5.6858 13.851 3.1467-0.030765 6.8913-0.061529 13.783-0.092294 20.674z" fill="#fccff2"/><path d="m4.5 136h175.5" fill="none" stroke="#6199f2" stroke-miterlimit="10" stroke-width=".3691"/><path d="m35.6 141.5c3.3987 2.4245 14.064 3.8068 14-2.1578-0.24111-4.9518 0.55381-10.036-0.54531-14.881-3.2642-8.149-15.622-3.181-13.455 4.8968v12.142z" fill="#fccff2"/><path d="m143.7 141.5c-5.9101 2.3672-13.989 2.8792-19.2-0.43156 0.0992-11.363-0.20078-22.746 0.1541-34.097 1.3045-6.6013 9.2366-6.7087 14.39-5.3766 6.2552 2.7619 4.2013 10.134 4.5562 15.536 0.0663 8.0887-0.13279 16.447 0.1 24.369z" fill="#ba94ff"/><path d="m79.8 49.2c0.83365-2.9048 4.5863-2.2644 0.6125-0.1375z" fill="#f9ddaa"/><path d="m80.9 48.5c0.48153-0.72193 0.23064-0.71251 0 0z" fill="#ad761d"/><path d="m82.2 47.4c-1.8657 0.94647 0.6948-0.38913 0 0z" fill="#ad761d"/></svg>
