<?xml version="1.0" encoding="UTF-8"?>
<svg id="Calque_1" data-name="Calque 1" xmlns="http://www.w3.org/2000/svg" viewBox="0 0 332.03 65.21">
  <defs>
    <style>
      .cls-1, .cls-2 {
        fill: #030e96;
      }

      .cls-3 {
        fill: #020d95;
      }

      .cls-4 {
        fill: #3d1587;
      }

      .cls-2 {
        fill-rule: evenodd;
      }
    </style>
  </defs>
  <rect class="cls-3" x="165.65" y="21.34" width="1.07" height="22.38"/>
  <g>
    <path class="cls-2" d="m213.3,22.33c3.75,6.75,3.05,15.1-1.78,21.13h-10.18l3.14-5.54h-4.15l4.89-8.62h4.17l3.91-6.97h0Zm-20.11,21.13h-10.38c-4.91-6.01-5.63-14.42-1.8-21.18l6.74,11.7,7.42-12.93h10.93l-12.9,22.4h0Z"/>
    <g>
      <path class="cls-1" d="m221.89,32.58c0-5.98,2.98-8.85,7.87-8.85s7.87,2.87,7.87,8.85-2.98,8.82-7.87,8.82-7.87-2.9-7.87-8.82Zm1.76,0c0,4.92,2.24,7.26,6.1,7.26s6.1-2.34,6.1-7.26-2.24-7.29-6.1-7.29-6.1,2.35-6.1,7.29Z"/>
      <path class="cls-1" d="m250.48,24.44c.08-.2.33-.55.81-.55s.86.38.86.86c0,.15-.05.3-.08.38l-5.9,15.56c-.13.35-.48.58-.81.58s-.68-.23-.81-.58l-5.9-15.56c-.03-.08-.08-.23-.08-.38,0-.48.38-.86.86-.86s.73.35.81.55l5.12,13.57,5.12-13.57Z"/>
      <path class="cls-1" d="m255.72,33.13v7.26c0,.45-.38.86-.86.86s-.86-.4-.86-.86v-15.66c0-.45.38-.86.86-.86s.86.4.86.86v6.83h8.77v-6.83c0-.45.38-.86.86-.86s.86.4.86.86v15.66c0,.45-.38.86-.86.86s-.86-.4-.86-.86v-7.26h-8.77Z"/>
      <path class="cls-1" d="m274.31,29.25c2.24,0,3.48,1.19,3.88,1.74.13.18.18.3.18.48,0,.43-.33.73-.73.73-.25,0-.43-.1-.6-.3-.38-.43-1.06-1.19-2.72-1.19-2.32,0-3.55,1.49-3.55,4.59s1.24,4.61,3.55,4.61c1.46,0,2.35-.66,2.92-1.08.18-.13.3-.18.48-.18.4,0,.73.33.73.73,0,.23-.08.4-.33.63-.55.45-1.76,1.36-3.81,1.36-3.25,0-5.19-1.94-5.19-6.08s1.94-6.05,5.19-6.05Z"/>
      <path class="cls-1" d="m282.35,23.91v14.4c0,1.01.33,1.44,1.01,1.44.4,0,.76.33.76.76s-.35.76-.76.76c-1.69,0-2.62-1.01-2.62-2.95v-14.4c0-.43.38-.81.81-.81.45,0,.81.38.81.81Z"/>
      <path class="cls-1" d="m296.09,35.3c0,4.14-2.02,6.08-5.29,6.08s-5.29-1.94-5.29-6.08,2.04-6.05,5.29-6.05,5.29,1.92,5.29,6.05Zm-1.64,0c0-3.18-1.34-4.59-3.66-4.59s-3.66,1.41-3.66,4.59,1.34,4.61,3.66,4.61,3.66-1.39,3.66-4.61Z"/>
      <path class="cls-1" d="m299.97,30.21v6.58c0,1.64.53,3.05,3.08,3.05s3.08-1.41,3.08-3.05v-6.58c0-.45.38-.81.83-.81.43,0,.78.35.78.81v6.58c0,2.4-.78,4.59-4.69,4.59s-4.69-2.19-4.69-4.59v-6.58c0-.45.35-.81.81-.81.43,0,.81.35.81.81Z"/>
      <path class="cls-1" d="m318.51,30.89v-6.98c0-.45.35-.81.81-.81s.81.35.81.81v12.51c0,3.33-2.07,4.97-4.94,4.97-3.25,0-5.17-1.94-5.17-6.08s1.82-6.05,5.07-6.05c1.61,0,2.85.83,3.43,1.64Zm0,2.04s-.96-2.22-3.33-2.22-3.56,1.49-3.56,4.59,1.24,4.61,3.56,4.61c1.94,0,3.33-1.11,3.33-3.5v-3.48Z"/>
    </g>
  </g>
  <path class="cls-4" d="m25.58,20.71l-8.92,19c-2.71-2.3-4.46-5.75-4.46-9.6,0-6.9,5.61-12.5,12.52-12.5h5.76c4.16,0,6.71,2.65,6.71,6.05,0,1-.25,2.15-.75,3.25l-1.45,3.2h-6.91l2.2-4.7-4.71-4.7Zm79.3,1.9h-7.26l-5.51,7.89-4.65-6.66c-.54-.77-1.42-1.23-2.37-1.23h-11.52v7.5h-8.52v-7.5h-6.51v20h6.51v-7.5h8.52v7.5h6.51v-18.98l8.77,11.88v7.1h6.51v-7.1l9.52-12.9Zm-60.82,2.9l-8.92,19-4.71-4.7,2.2-4.7h-6.91l-1.45,3.2c-.5,1.1-.75,2.25-.75,3.25,0,3.4,2.55,6.05,6.71,6.05h5.76c6.91,0,12.52-5.6,12.52-12.5,0-3.85-1.75-7.3-4.46-9.6Zm95.63-2.95v9.7c0,3.2-1.35,5.35-4.31,5.35s-4.21-2.15-4.21-5.35v-9.7h-6.51v9.9c0,6.65,3.96,10.4,10.62,10.4s10.92-3.7,10.92-10.4v-9.9h-6.51Zm-36.77,10.05c0,6.6,4.46,10.25,12.47,10.25,2.35,0,4.66-.35,6.76-.75v-5.25c-2.25.5-4.16.75-6.31.75-4.31,0-6.41-1.8-6.41-5s2.1-5,6.41-5c2.15,0,4.06.25,6.31.75v-5.25c-2.1-.4-4.41-.75-6.76-.75-8.02,0-12.47,3.6-12.47,10.25Zm50.8-7.5c0-1.38-1.12-2.5-2.5-2.5s-2.5,1.12-2.5,2.5,1.12,2.5,2.5,2.5,2.5-1.12,2.5-2.5Zm-2.51-2c1.11,0,2,.9,2,2s-.9,2-2,2-2-.9-2-2,.9-2,2-2Zm-.94,3.27h.61v-.98h.37l.54.98h.68l-.65-1.09c.29-.11.49-.34.49-.7,0-.53-.45-.81-.99-.81h-1.06v2.6h0Zm1.44-1.78c0,.23-.18.37-.44.37h-.39v-.75h.39c.26,0,.44.15.44.38Z"/>
</svg>