<?xml version="1.0" encoding="utf-8"?>
<!-- Generator: Adobe Illustrator 22.0.1, SVG Export Plug-In . SVG Version: 6.00 Build 0)  -->
<svg version="1.1" id="Calque_1" xmlns="http://www.w3.org/2000/svg" xmlns:xlink="http://www.w3.org/1999/xlink" x="0px" y="0px"
	 viewBox="0 0 197.2 48.7" style="enable-background:new 0 0 197.2 48.7;" xml:space="preserve">
<style type="text/css">
	.st0{fill:#2859c0;}
</style>
<g>
	<g>
		<path class="st0" d="M79.8,5.7l-7.5,13.1h-7.9l-9.3,16.2H63l-6,10.4h19.4c5-6.1,7.9-13.8,7.9-22.3C84.3,16.7,82.7,10.8,79.8,5.7z"
			/>
		<path class="st0" d="M41.3,45.2L41.3,45.2L41.3,45.2L41.3,45.2L65.5,3.3H45.1L31.2,27.5L18.6,5.6C15.7,10.8,14,16.7,14,23
			c0,8.4,3,16.2,7.9,22.3L41.3,45.2L41.3,45.2z"/>
	</g>
	<g>
		<path class="st0" d="M97.9,25.3c0-11.4,5.7-16.8,15-16.8s15,5.5,15,16.8c0,11.3-5.7,16.8-15,16.8S97.9,36.6,97.9,25.3z
			 M101.3,25.3c0,9.4,4.3,13.8,11.6,13.8s11.6-4.5,11.6-13.8c0-9.4-4.3-13.9-11.6-13.9S101.3,15.9,101.3,25.3z"/>
		<path class="st0" d="M152.6,9.8c0.1-0.4,0.6-1.1,1.5-1.1c0.9,0,1.6,0.7,1.6,1.6c0,0.3-0.1,0.6-0.1,0.7l-11.2,29.6
			c-0.2,0.7-0.9,1.1-1.5,1.1s-1.3-0.4-1.5-1.1l-11.2-29.6c0-0.1-0.1-0.4-0.1-0.7c0-0.9,0.7-1.6,1.6-1.6s1.4,0.7,1.5,1.1l9.7,25.8
			L152.6,9.8z"/>
		<path class="st0" d="M163.3,26.4v13.8c0,0.9-0.7,1.6-1.6,1.6s-1.6-0.8-1.6-1.6V10.4c0-0.9,0.7-1.6,1.6-1.6s1.6,0.8,1.6,1.6v13H180
			v-13c0-0.9,0.7-1.6,1.6-1.6s1.6,0.8,1.6,1.6v29.8c0,0.9-0.7,1.6-1.6,1.6s-1.6-0.8-1.6-1.6V26.4H163.3z"/>
	</g>
</g>
</svg>
