<svg xmlns="http://www.w3.org/2000/svg" viewBox="0 0 20 20"><defs><style>.a{fill:none;stroke:#2e4054;stroke-linecap:round;stroke-miterlimit:10;}</style></defs><title>20px-bkg-lightdatabaseColdArchive</title><path class="a" d="M4.66,8.2c-.72.39-1.15.86-1.15,1.37,0,1.38,3.12,1.93,7,1.93s7-.55,7-1.93c0-.51-.42-1-1.15-1.37"/><path class="a" d="M17.51,13.24c0,1.38-3.15,2.26-7,2.26s-7-.88-7-2.26"/><path class="a" d="M17.51,16.91c0,1.38-3.15,2.59-7,2.59s-7-1.2-7-2.59"/><line class="a" x1="3.51" y1="9.57" x2="3.51" y2="16.91"/><line class="a" x1="17.51" y1="9.57" x2="17.51" y2="16.91"/><line class="a" x1="10.5" y1="0.5" x2="10.5" y2="8.5"/><line class="a" x1="7.03" y1="6.5" x2="13.97" y2="2.5"/><line class="a" x1="13.97" y1="6.5" x2="7.03" y2="2.5"/></svg>