<svg xmlns="http://www.w3.org/2000/svg" width="318" height="241" viewBox="0 0 318 241">
    <g fill="none" fill-rule="evenodd">
        <path stroke="#13C4E4" stroke-linecap="round" stroke-linejoin="round" stroke-width=".537" d="M1.215 117.745h154.094v122.148H1.215z"/>
        <path fill="#13C4E4" d="M78.262 213.497H50.503v-32.054l27.759-16.054 27.704 16.054v32.054z" opacity=".1"/>
        <path stroke="#13C4E4" stroke-linecap="round" stroke-linejoin="round" stroke-width=".537" d="M78.262 213.497H50.503v-32.054l27.759-16.054 27.704 16.054v32.054z"/>
        <path stroke="#13C4E4" stroke-linecap="round" stroke-linejoin="round" stroke-width=".537" d="M78.262 213.497l-.269-16.215 27.705-15.732M50.503 181.443l27.49 15.839M78.208 171.456l-17.181 9.933 16.859 9.826 17.288-9.718z"/>
        <g transform="translate(68.651 161.04)">
            <circle cx="9.611" cy="9.664" r="9.557" fill="#13C4E4"/>
            <path d="M.054 5.852h19.06v13.369H.054z"/>
            <text fill="#FFF" font-family="Helvetica" font-size="10.738">
                <tspan x="3.298" y="13.249">B1</tspan>
            </text>
        </g>
        <path fill="#E3CD4D" d="M5.241 204.725h24.322v24.322H5.241z" opacity=".4"/>
        <path fill="#E7DCA1" d="M5.241 204.725h24.322v24.322H5.241z"/>
        <path fill="#E3CD4D" fill-rule="nonzero" d="M29.027 205.262v23.248H5.779v-23.248h23.248zm.537-.537H5.242v24.322h24.322v-24.322z"/>
        <text fill="#8A5300" font-family="Helvetica" font-size="9.128" transform="translate(4.758 204.564)">
            <tspan x="6.444" y="15.821">VM</tspan>
        </text>
        <g>
            <path fill="#D9AE00" d="M26.396 221.047c-.268-.483-.752-.537-1.074 0l-4.617 8.161c-.269.483-.054 1.128.537 1.128h9.02c.59 0 .805-.591.537-1.128l-4.403-8.161z"/>
            <path fill="#FFF" d="M25.86 227.651c-.323 0-.484.161-.484.537 0 .322.16.483.483.483.322 0 .483-.16.483-.483 0-.376-.16-.537-.483-.537zM26.45 224.483c0-.644-.054-.966-.108-1.02-.053-.161-.214-.268-.43-.268 0 0-.053-.054-.053 0h-.054a.488.488 0 0 0-.43.214c-.053.054-.107.537-.107 1.128 0 1.074.162 2.63.162 2.63s.16.054.375.054l.054-.107.054.161c.215 0 .322-.107.376-.107.053-.054.214-1.611.16-2.685z"/>
        </g>
        <g>
            <path fill="#E3CD4D" d="M35.309 204.725H59.63v24.322H35.309z" opacity=".4"/>
            <path fill="#E7DCA1" d="M35.309 204.725H59.63v24.322H35.309z"/>
            <path fill="#E3CD4D" fill-rule="nonzero" d="M59.094 205.262v23.248H35.846v-23.248h23.248zm.537-.537H35.309v24.322H59.63v-24.322z"/>
            <text fill="#8A5300" font-family="Helvetica" font-size="9.128" transform="translate(34.826 204.564)">
                <tspan x="6.444" y="15.821">VM</tspan>
            </text>
            <g>
                <path fill="#D9AE00" d="M56.463 221.047c-.268-.483-.752-.537-1.074 0l-4.617 8.161c-.269.483-.054 1.128.537 1.128h9.02c.59 0 .805-.591.537-1.128l-4.403-8.161z"/>
                <path fill="#FFF" d="M55.926 227.651c-.322 0-.483.161-.483.537 0 .322.161.483.483.483.322 0 .483-.16.483-.483 0-.376-.16-.537-.483-.537zM56.517 224.483c0-.644-.054-.966-.108-1.02-.053-.161-.214-.268-.43-.268 0 0-.053-.054-.053 0h-.054a.488.488 0 0 0-.429.214c-.054.054-.107.537-.107 1.128 0 1.074.16 2.63.16 2.63s.162.054.376.054l.054-.107.054.161c.215 0 .322-.107.376-.107.053-.054.214-1.611.16-2.685z"/>
            </g>
            <g>
                <path fill="#E3CD4D" d="M65.376 204.725h24.322v24.322H65.376z" opacity=".4"/>
                <path fill="#E7DCA1" d="M65.376 204.725h24.322v24.322H65.376z"/>
                <path fill="#E3CD4D" fill-rule="nonzero" d="M89.161 205.262v23.248H65.913v-23.248H89.16zm.537-.537H65.376v24.322h24.322v-24.322z"/>
                <text fill="#8A5300" font-family="Helvetica" font-size="9.128" transform="translate(64.893 204.564)">
                    <tspan x="6.444" y="15.821">VM</tspan>
                </text>
                <g>
                    <path fill="#D9AE00" d="M86.53 221.047c-.268-.483-.751-.537-1.074 0l-4.617 8.161c-.269.483-.054 1.128.537 1.128h9.02c.59 0 .805-.591.537-1.128l-4.403-8.161z"/>
                    <path fill="#FFF" d="M85.993 227.651c-.322 0-.483.161-.483.537 0 .322.161.483.483.483.322 0 .484-.16.484-.483 0-.376-.162-.537-.484-.537zM86.584 224.483c0-.644-.054-.966-.107-1.02-.054-.161-.215-.268-.43-.268 0 0-.054-.054-.054 0h-.053a.488.488 0 0 0-.43.214c-.054.054-.107.537-.107 1.128 0 1.074.16 2.63.16 2.63s.162.054.377.054l.053-.107.054.161c.215 0 .322-.107.376-.107.054-.054.215-1.611.16-2.685z"/>
                </g>
            </g>
            <g>
                <path fill="#E3CD4D" d="M95.443 204.725h24.322v24.322H95.443z" opacity=".4"/>
                <path fill="#E7DCA1" d="M95.443 204.725h24.322v24.322H95.443z"/>
                <path fill="#E3CD4D" fill-rule="nonzero" d="M119.228 205.262v23.248H95.98v-23.248h23.248zm.537-.537H95.443v24.322h24.322v-24.322z"/>
                <text fill="#8A5300" font-family="Helvetica" font-size="9.128" transform="translate(94.96 204.564)">
                    <tspan x="6.444" y="15.821">VM</tspan>
                </text>
                <g>
                    <path fill="#D9AE00" d="M116.597 221.047c-.268-.483-.751-.537-1.074 0l-4.617 8.161c-.268.483-.054 1.128.537 1.128h9.02c.59 0 .805-.591.537-1.128l-4.403-8.161z"/>
                    <path fill="#FFF" d="M116.06 227.651c-.322 0-.483.161-.483.537 0 .322.161.483.483.483.323 0 .484-.16.484-.483 0-.376-.161-.537-.484-.537zM116.651 224.483c0-.644-.054-.966-.107-1.02-.054-.161-.215-.268-.43-.268 0 0-.054-.054-.054 0h-.053a.488.488 0 0 0-.43.214c-.054.054-.107.537-.107 1.128 0 1.074.16 2.63.16 2.63s.162.054.377.054l.053-.107.054.161c.215 0 .322-.107.376-.107.054-.054.215-1.611.161-2.685z"/>
                </g>
            </g>
            <g>
                <path fill="#E3CD4D" d="M125.51 204.725h24.322v24.322H125.51z" opacity=".4"/>
                <path fill="#E7DCA1" d="M125.51 204.725h24.322v24.322H125.51z"/>
                <path fill="#E3CD4D" fill-rule="nonzero" d="M149.295 205.262v23.248h-23.248v-23.248h23.248zm.537-.537H125.51v24.322h24.322v-24.322z"/>
                <text fill="#8A5300" font-family="Helvetica" font-size="9.128" transform="translate(125.027 204.564)">
                    <tspan x="6.444" y="15.821">VM</tspan>
                </text>
                <g>
                    <path fill="#D9AE00" d="M146.664 221.047c-.268-.483-.751-.537-1.073 0l-4.618 8.161c-.268.483-.054 1.128.537 1.128h9.02c.59 0 .806-.591.537-1.128l-4.403-8.161z"/>
                    <path fill="#FFF" d="M146.128 227.651c-.323 0-.484.161-.484.537 0 .322.161.483.484.483.322 0 .483-.16.483-.483 0-.376-.161-.537-.483-.537zM146.718 224.483c0-.644-.054-.966-.107-1.02-.054-.161-.215-.268-.43-.268 0 0-.053-.054-.053 0h-.054a.488.488 0 0 0-.43.214c-.053.054-.107.537-.107 1.128 0 1.074.161 2.63.161 2.63s.161.054.376.054l.054-.107.053.161c.215 0 .322-.107.376-.107.054-.054.215-1.611.161-2.685z"/>
                </g>
            </g>
        </g>
        <g>
            <path stroke="#13C4E4" stroke-linecap="round" stroke-linejoin="round" stroke-width=".537" d="M163.215 117.745h154.094v122.148H163.215z"/>
            <path fill="#13C4E4" d="M240.262 213.497h-27.759v-32.054l27.759-16.054 27.704 16.054v32.054z" opacity=".1"/>
            <path stroke="#13C4E4" stroke-linecap="round" stroke-linejoin="round" stroke-width=".537" d="M240.262 213.497h-27.759v-32.054l27.759-16.054 27.704 16.054v32.054z"/>
            <path stroke="#13C4E4" stroke-linecap="round" stroke-linejoin="round" stroke-width=".537" d="M240.262 213.497l-.269-16.215 27.705-15.732M212.503 181.443l27.49 15.839M240.208 171.456l-17.181 9.933 16.859 9.826 17.288-9.718z"/>
            <g>
                <g transform="translate(230.651 161.04)">
                    <circle cx="9.611" cy="9.664" r="9.557" fill="#13C4E4"/>
                    <path d="M.054 5.852h19.06v13.369H.054z"/>
                    <text fill="#FFF" font-family="Helvetica" font-size="10.738">
                        <tspan x="3.298" y="13.249">B2</tspan>
                    </text>
                </g>
            </g>
            <g>
                <path fill="#E3CD4D" d="M167.241 204.725h24.322v24.322h-24.322z" opacity=".4"/>
                <path fill="#E7DCA1" d="M167.241 204.725h24.322v24.322h-24.322z"/>
                <path fill="#E3CD4D" fill-rule="nonzero" d="M191.027 205.262v23.248h-23.248v-23.248h23.248zm.537-.537h-24.322v24.322h24.322v-24.322z"/>
                <text fill="#8A5300" font-family="Helvetica" font-size="9.128" transform="translate(166.758 204.564)">
                    <tspan x="6.444" y="15.821">VM</tspan>
                </text>
            </g>
            <g>
                <path fill="#D9AE00" d="M188.396 221.047c-.268-.483-.752-.537-1.074 0l-4.617 8.161c-.269.483-.054 1.128.537 1.128h9.02c.59 0 .805-.591.537-1.128l-4.403-8.161z"/>
                <path fill="#FFF" d="M187.86 227.651c-.323 0-.484.161-.484.537 0 .322.16.483.483.483.322 0 .483-.16.483-.483 0-.376-.16-.537-.483-.537zM188.45 224.483c0-.644-.054-.966-.108-1.02-.053-.161-.214-.268-.43-.268 0 0-.053-.054-.053 0h-.054a.488.488 0 0 0-.43.214c-.053.054-.107.537-.107 1.128 0 1.074.162 2.63.162 2.63s.16.054.375.054l.054-.107.054.161c.215 0 .322-.107.376-.107.053-.054.214-1.611.16-2.685z"/>
            </g>
            <g>
                <path fill="#E3CD4D" d="M197.309 204.725h24.322v24.322h-24.322z" opacity=".4"/>
                <path fill="#E7DCA1" d="M197.309 204.725h24.322v24.322h-24.322z"/>
                <path fill="#E3CD4D" fill-rule="nonzero" d="M221.094 205.262v23.248h-23.248v-23.248h23.248zm.537-.537h-24.322v24.322h24.322v-24.322z"/>
                <text fill="#8A5300" font-family="Helvetica" font-size="9.128" transform="translate(196.826 204.564)">
                    <tspan x="6.444" y="15.821">VM</tspan>
                </text>
                <g>
                    <path fill="#D9AE00" d="M218.463 221.047c-.268-.483-.752-.537-1.074 0l-4.617 8.161c-.269.483-.054 1.128.537 1.128h9.02c.59 0 .805-.591.537-1.128l-4.403-8.161z"/>
                    <path fill="#FFF" d="M217.926 227.651c-.322 0-.483.161-.483.537 0 .322.161.483.483.483.322 0 .483-.16.483-.483 0-.376-.16-.537-.483-.537zM218.517 224.483c0-.644-.054-.966-.108-1.02-.053-.161-.214-.268-.43-.268 0 0-.053-.054-.053 0h-.054a.488.488 0 0 0-.429.214c-.054.054-.107.537-.107 1.128 0 1.074.16 2.63.16 2.63s.162.054.376.054l.054-.107.054.161c.215 0 .322-.107.376-.107.053-.054.214-1.611.16-2.685z"/>
                </g>
                <g>
                    <path fill="#E3CD4D" d="M227.376 204.725h24.322v24.322h-24.322z" opacity=".4"/>
                    <path fill="#E7DCA1" d="M227.376 204.725h24.322v24.322h-24.322z"/>
                    <path fill="#E3CD4D" fill-rule="nonzero" d="M251.161 205.262v23.248h-23.248v-23.248h23.248zm.537-.537h-24.322v24.322h24.322v-24.322z"/>
                    <text fill="#8A5300" font-family="Helvetica" font-size="9.128" transform="translate(226.893 204.564)">
                        <tspan x="6.444" y="15.821">VM</tspan>
                    </text>
                    <g>
                        <path fill="#D9AE00" d="M248.53 221.047c-.268-.483-.751-.537-1.074 0l-4.617 8.161c-.269.483-.054 1.128.537 1.128h9.02c.59 0 .805-.591.537-1.128l-4.403-8.161z"/>
                        <path fill="#FFF" d="M247.993 227.651c-.322 0-.483.161-.483.537 0 .322.161.483.483.483.322 0 .484-.16.484-.483 0-.376-.162-.537-.484-.537zM248.584 224.483c0-.644-.054-.966-.107-1.02-.054-.161-.215-.268-.43-.268 0 0-.054-.054-.054 0h-.053a.488.488 0 0 0-.43.214c-.054.054-.107.537-.107 1.128 0 1.074.16 2.63.16 2.63s.162.054.377.054l.053-.107.054.161c.215 0 .322-.107.376-.107.054-.054.215-1.611.16-2.685z"/>
                    </g>
                </g>
                <g>
                    <path fill="#E3CD4D" d="M257.443 204.725h24.322v24.322h-24.322z" opacity=".4"/>
                    <path fill="#E7DCA1" d="M257.443 204.725h24.322v24.322h-24.322z"/>
                    <path fill="#E3CD4D" fill-rule="nonzero" d="M281.228 205.262v23.248H257.98v-23.248h23.248zm.537-.537h-24.322v24.322h24.322v-24.322z"/>
                    <text fill="#8A5300" font-family="Helvetica" font-size="9.128" transform="translate(256.96 204.564)">
                        <tspan x="6.444" y="15.821">VM</tspan>
                    </text>
                    <g>
                        <path fill="#D9AE00" d="M278.597 221.047c-.268-.483-.751-.537-1.074 0l-4.617 8.161c-.268.483-.054 1.128.537 1.128h9.02c.59 0 .805-.591.537-1.128l-4.403-8.161z"/>
                        <path fill="#FFF" d="M278.06 227.651c-.322 0-.483.161-.483.537 0 .322.161.483.483.483.323 0 .484-.16.484-.483 0-.376-.161-.537-.484-.537zM278.651 224.483c0-.644-.054-.966-.107-1.02-.054-.161-.215-.268-.43-.268 0 0-.054-.054-.054 0h-.053a.488.488 0 0 0-.43.214c-.054.054-.107.537-.107 1.128 0 1.074.16 2.63.16 2.63s.162.054.377.054l.053-.107.054.161c.215 0 .322-.107.376-.107.054-.054.215-1.611.161-2.685z"/>
                    </g>
                </g>
                <g>
                    <path fill="#E3CD4D" d="M287.51 204.725h24.322v24.322H287.51z" opacity=".4"/>
                    <path fill="#E7DCA1" d="M287.51 204.725h24.322v24.322H287.51z"/>
                    <path fill="#E3CD4D" fill-rule="nonzero" d="M311.295 205.262v23.248h-23.248v-23.248h23.248zm.537-.537H287.51v24.322h24.322v-24.322z"/>
                    <text fill="#8A5300" font-family="Helvetica" font-size="9.128" transform="translate(287.027 204.564)">
                        <tspan x="6.444" y="15.821">VM</tspan>
                    </text>
                    <g>
                        <path fill="#D9AE00" d="M308.664 221.047c-.268-.483-.751-.537-1.073 0l-4.618 8.161c-.268.483-.054 1.128.537 1.128h9.02c.59 0 .806-.591.537-1.128l-4.403-8.161z"/>
                        <path fill="#FFF" d="M308.128 227.651c-.323 0-.484.161-.484.537 0 .322.161.483.484.483.322 0 .483-.16.483-.483 0-.376-.161-.537-.483-.537zM308.718 224.483c0-.644-.054-.966-.107-1.02-.054-.161-.215-.268-.43-.268 0 0-.053-.054-.053 0h-.054a.488.488 0 0 0-.43.214c-.053.054-.107.537-.107 1.128 0 1.074.161 2.63.161 2.63s.161.054.376.054l.054-.107.053.161c.215 0 .322-.107.376-.107.054-.054.215-1.611.161-2.685z"/>
                    </g>
                </g>
            </g>
        </g>
        <path stroke="#C9C9C9" stroke-width=".537" d="M100.275 117.745c0-14.819 23.946-17.933 36.779-17.933"/>
        <path stroke="#B0CA67" stroke-width=".537" d="M218.88 117.745c0-14.819-23.947-17.933-36.78-17.933"/>
        <g transform="translate(132.544 67.651)">
            <path fill="#122844" d="M50.416 37.477h-.161c-.107 1.288-1.127 2.147-2.47 2.147H6.497c-1.289 0-2.363-.859-2.47-2.147-.376 0-.752.16-.967.429L.161 40.591c-.322.268-.107.805.322.805h53.1c.377 0 .591-.483.323-.752l-2.47-2.63c-.215-.376-.59-.537-1.02-.537z" opacity=".15"/>
            <path stroke="#B90B24" stroke-linejoin="round" stroke-width=".537" d="M47.785 39.57H6.497c-1.504 0-2.631-1.342-2.416-2.845l1.127-7.41h43.866l1.127 7.41c.269 1.503-.912 2.845-2.416 2.845z"/>
            <path stroke="#B90B24" stroke-linejoin="round" stroke-width=".537" d="M15.034 24.054h-2.47l-7.356 5.315h43.866l-7.302-5.315h-2.738"/>
            <ellipse cx="27.168" cy="26.577" fill="#122844" opacity=".15" rx="12.295" ry="1.235"/>
            <path fill="#FF4915" d="M39.463 24.59c0 .806-5.476 1.504-12.295 1.504s-12.296-.644-12.296-1.503c0-.86 0-10.417 12.296-10.417 12.295 0 12.295 9.611 12.295 10.417z"/>
            <path fill="#E9EBE7" d="M27.168 14.174c-2.363 0-4.242.376-5.799.913-.107 2.685 3.329 5.799 8.161 7.195 3.866 1.127 7.57.805 9.557-.537-.913-3.06-3.543-7.57-11.92-7.57z" opacity=".25"/>
            <path stroke="#B90B24" stroke-width=".537" d="M39.463 24.59c0 .806-5.476 1.504-12.295 1.504s-12.296-.644-12.296-1.503"/>
            <path stroke="#B90B24" stroke-width=".537" d="M14.872 24.59c0-.805 0-10.416 12.296-10.416 12.295 0 12.295 9.558 12.295 10.417"/>
            <path fill="#B90B24" d="M30.228 26.846c0 .107-1.288.214-2.9.214-1.61 0-2.898-.107-2.898-.214v-.752l5.744-.054c.054 0 .054.698.054.806z"/>
            <path d="M4.51 31.57h45.315v7.517H4.51z"/>
            <text fill="#B90B24" font-family="Helvetica" font-size="8.691">
                <tspan x="11.92" y="38.679">FailOver</tspan>
            </text>
            <g fill="#B90B24">
                <path fill-rule="nonzero" d="M19.866 4.242c.644 0 1.127.322 1.127 1.61h-2.416c.108-1.235.644-1.61 1.289-1.61m3.329 5.852l-.537-1.503c-1.02.375-1.665.537-2.255.537-1.235 0-1.718-.698-1.772-1.772h4.671c0-.322.054-.86.054-1.02 0-2.631-1.343-3.705-3.33-3.705-2.093 0-3.758 1.288-3.758 4.08 0 2.363 1.02 4.188 3.92 4.188 1.02 0 2.04-.322 3.007-.805M40.644 4.242c.215 0 .43.053.59.107l-2.2 3.383a6.037 6.037 0 0 1-.108-1.074c.054-1.772.752-2.416 1.718-2.416zm-.751 4.886c-.161-.054-.269-.162-.376-.323l.376.323zM42.2 6.71c0 1.88-.59 2.578-1.61 2.578-.269 0-.484-.054-.698-.161l2.201-3.49c.054.322.107.644.107 1.073zm2.416-.107c0-2.309-1.073-3.973-3.919-3.973-2.792 0-4.08 1.664-4.08 4.188 0 2.362 1.127 4.08 3.919 4.08 2.738 0 4.08-1.664 4.08-4.295z"/>
                <path d="M36.886 10.255s-.537-1.289-.59-1.289c-.108.054-.27.054-.377.108h-.053c-.215.054-.43.054-.698.054-.806 0-1.074-.376-1.074-1.29V4.028h2.309V2.47h-2.148c-.107 0-.107-.054-.107-.161V.376h-1.504c-.053.322-.107.59-.16.805-.27.806-.86 1.128-1.88 1.235V3.92H31.678c.107 0 .107.054.107.162v4.134c0 1.718.698 2.47 2.524 2.47.912.214 1.879-.108 2.577-.43M15.57 10.148V7.517h-1.557l-.268 1.503c-.054.161-.054.161-.215.161h-3.168l5.262-7.302V.483H7.57v3.33h1.665l.268-1.504c.054-.161.054-.161.215-.161h3.007L7.57 9.288v1.397h8.054v-.537h-.054zM28.08 10.255V9.45l-.697-.108c-.108 0-.162-.053-.215-.053-.054-.054-.054-.108-.054-.215V5.047s.054-.107.215-.215c.322-.268 1.127-.698 2.523-.698h.108v-.376-1.181c-.322-.054-.645-.054-.913-.054-.966 0-1.664.591-2.148 1.396h-.053l-.161-1.234h-2.739l-.16 1.234.858.269c.161.054.215.161.215.322v4.51c0 .215-.054.269-.268.322l-.698.108v1.235h4.188v-.43z"/>
            </g>
        </g>
        <g>
            <g opacity=".1">
                <path fill="#13C4E4" d="M183.926 22.067c0 6.443-6.604 10.953-11.382 10.953h-26.792c-3.383 0-9.772-3.436-9.772-10.255 0-3.06 1.772-5.906 4.564-7.678-2.953-6.443 4.724-11.06 9.073-8.107C154.933.215 160.84-.483 165.51.805c4.403 1.235 8.483 4.35 9.772 11.33 5.1 1.234 8.752 4.939 8.644 9.932z"/>
                <path stroke="#122844" stroke-linecap="round" stroke-linejoin="round" stroke-width=".537" d="M183.926 22.067c0 6.443-6.604 10.953-11.382 10.953h-26.792c-3.383 0-9.772-3.436-9.772-10.255 0-3.06 1.772-5.906 4.564-7.678-2.953-6.443 4.724-11.06 9.073-8.107C154.933.215 160.84-.483 165.51.805c4.403 1.235 8.483 4.35 9.772 11.33 5.1 1.234 8.752 4.939 8.644 9.932z"/>
            </g>
            <g stroke-linecap="round" stroke-linejoin="round" stroke-width=".537">
                <path stroke="#122844" d="M183.926 22.067c0 6.443-6.604 10.953-11.382 10.953h-26.792c-3.383 0-9.772-3.436-9.772-10.255 0-3.06 1.772-5.906 4.564-7.678-2.953-6.443 4.724-11.06 9.073-8.107C154.933.215 160.84-.483 165.51.805c4.403 1.235 8.483 4.35 9.772 11.33 5.1 1.234 8.752 4.939 8.644 9.932z"/>
                <path stroke="#13C4E4" d="M183.926 22.067c0 6.443-6.604 10.953-11.382 10.953h-26.792c-3.383 0-9.772-3.436-9.772-10.255 0-3.06 1.772-5.906 4.564-7.678-2.953-6.443 4.724-11.06 9.073-8.107C154.933.215 160.84-.483 165.51.805c4.403 1.235 8.483 4.35 9.772 11.33 5.1 1.234 8.752 4.939 8.644 9.932z"/>
            </g>
        </g>
        <path stroke="#E3CD4D" stroke-dasharray="2.147651100158691,3.221476364135742" stroke-width="1.074" d="M78.1 117.584c0-52.564 77.209-44.671 77.209-84.564"/>
        <path stroke="#B0CA67" stroke-width="1.074" d="M241.752 117.584c0-52.564-77.208-44.671-77.208-84.564"/>
        <path fill="#122844" fill-rule="nonzero" d="M30.624 136v-10.496h2.992c.587 0 1.123.053 1.608.16a3.4 3.4 0 0 1 1.24.52c.341.24.608.557.8.952.192.395.288.88.288 1.456 0 .555-.093 1.035-.28 1.44-.187.405-.45.741-.792 1.008-.341.267-.75.467-1.224.6-.475.133-1 .2-1.576.2h-1.728V136h-1.328zm1.328-5.248h1.568c.917 0 1.597-.173 2.04-.52.443-.347.664-.893.664-1.64 0-.757-.232-1.283-.696-1.576-.464-.293-1.155-.44-2.072-.44h-1.504v4.176zm7.6 5.248v-7.776h1.088l.112 1.408h.048c.267-.49.59-.88.968-1.168a2.004 2.004 0 0 1 1.24-.432c.31 0 .587.053.832.16l-.256 1.152a2.959 2.959 0 0 0-.352-.096 2.089 2.089 0 0 0-.4-.032c-.33 0-.675.133-1.032.4s-.67.73-.936 1.392V136h-1.312zm5.552 0v-7.776h1.312V136h-1.312zm.672-9.376a.928.928 0 0 1-.648-.24.786.786 0 0 1-.264-.608.78.78 0 0 1 .264-.616.947.947 0 0 1 .648-.232c.256 0 .472.077.648.232a.78.78 0 0 1 .264.616.786.786 0 0 1-.264.608.928.928 0 0 1-.648.24zM49.04 136v-7.776h1.088l.112 1.12h.048a5.373 5.373 0 0 1 1.112-.936c.4-.25.835-.376 1.304-.376.597 0 1.064.13 1.4.392.336.261.584.627.744 1.096a6.563 6.563 0 0 1 1.224-1.08c.41-.272.856-.408 1.336-.408.8 0 1.395.256 1.784.768.39.512.584 1.27.584 2.272V136h-1.312v-4.752c0-.736-.117-1.267-.352-1.592-.235-.325-.597-.488-1.088-.488-.587 0-1.237.4-1.952 1.2V136H53.76v-4.752c0-.736-.117-1.267-.352-1.592-.235-.325-.603-.488-1.104-.488-.587 0-1.237.4-1.952 1.2V136H49.04zm15.056.192c-.65 0-1.192-.192-1.624-.576-.432-.384-.648-.928-.648-1.632 0-.853.379-1.507 1.136-1.96.757-.453 1.968-.77 3.632-.952 0-.245-.024-.485-.072-.72a1.801 1.801 0 0 0-.248-.624 1.303 1.303 0 0 0-.488-.44c-.208-.112-.472-.168-.792-.168-.448 0-.87.085-1.264.256-.395.17-.747.363-1.056.576l-.512-.912a8.49 8.49 0 0 1 1.328-.68 4.434 4.434 0 0 1 1.728-.328c.95 0 1.637.29 2.064.872.427.581.64 1.357.64 2.328V136h-1.088l-.112-.928h-.048a6.58 6.58 0 0 1-1.2.792 2.974 2.974 0 0 1-1.376.328zm.384-1.056c.373 0 .725-.088 1.056-.264.33-.176.683-.435 1.056-.776v-2.16c-.65.085-1.197.187-1.64.304-.443.117-.8.256-1.072.416-.272.16-.47.344-.592.552a1.315 1.315 0 0 0-.184.68c0 .448.133.768.4.96.267.192.592.288.976.288zm5.888.864v-7.776h1.088l.112 1.408h.048c.267-.49.59-.88.968-1.168a2.004 2.004 0 0 1 1.24-.432c.31 0 .587.053.832.16l-.256 1.152a2.959 2.959 0 0 0-.352-.096 2.089 2.089 0 0 0-.4-.032c-.33 0-.675.133-1.032.4s-.67.73-.936 1.392V136h-1.312zm6.08 3.344c-.181 0-.347-.013-.496-.04a1.986 1.986 0 0 1-.416-.12l.256-1.04.288.072c.107.027.208.04.304.04.448 0 .813-.157 1.096-.472.283-.315.504-.712.664-1.192l.176-.576-3.12-7.792h1.36l1.584 4.304c.117.341.243.701.376 1.08.133.379.259.75.376 1.112h.064c.117-.352.23-.72.336-1.104.107-.384.213-.747.32-1.088l1.392-4.304h1.28l-2.928 8.416a9.002 9.002 0 0 1-.464 1.072c-.17.33-.373.616-.608.856s-.501.43-.8.568a2.446 2.446 0 0 1-1.04.208zm14.544-3.152a4.246 4.246 0 0 1-1.816-.384 4.044 4.044 0 0 1-1.416-1.096c-.395-.475-.701-1.05-.92-1.728-.219-.677-.328-1.437-.328-2.28 0-.843.11-1.597.328-2.264.219-.667.525-1.232.92-1.696a3.956 3.956 0 0 1 1.416-1.064 4.403 4.403 0 0 1 1.816-.368c.661 0 1.267.125 1.816.376.55.25 1.024.608 1.424 1.072.4.464.71 1.03.928 1.696.219.667.328 1.416.328 2.248 0 .843-.11 1.603-.328 2.28-.219.677-.528 1.253-.928 1.728-.4.475-.875.84-1.424 1.096a4.246 4.246 0 0 1-1.816.384zm0-1.168c.47 0 .893-.101 1.272-.304.379-.203.704-.493.976-.872a4.33 4.33 0 0 0 .632-1.36c.15-.528.224-1.123.224-1.784 0-.65-.075-1.237-.224-1.76a4.041 4.041 0 0 0-.632-1.328 2.872 2.872 0 0 0-.976-.84 2.71 2.71 0 0 0-1.272-.296c-.47 0-.893.099-1.272.296a2.872 2.872 0 0 0-.976.84 4.041 4.041 0 0 0-.632 1.328 6.404 6.404 0 0 0-.224 1.76c0 .661.075 1.256.224 1.784.15.528.36.981.632 1.36.272.379.597.67.976.872.379.203.803.304 1.272.304zm8.512.976l-3.36-10.496h1.424l1.68 5.664c.192.63.36 1.21.504 1.744.144.533.317 1.11.52 1.728h.064c.192-.619.363-1.195.512-1.728.15-.533.315-1.115.496-1.744l1.68-5.664h1.36L101.056 136h-1.552zm6.32 0v-10.496h1.328v4.4h4.88v-4.4h1.344V136h-1.344v-4.944h-4.88V136h-1.328zm-68.952 20v-10.496h2.624c1.621 0 2.853.448 3.696 1.344.843.896 1.264 2.181 1.264 3.856 0 .832-.107 1.576-.32 2.232-.213.656-.528 1.21-.944 1.664-.416.453-.928.8-1.536 1.04s-1.307.36-2.096.36h-2.688zm1.328-1.088h1.2c1.227 0 2.147-.368 2.76-1.104.613-.736.92-1.77.92-3.104 0-1.333-.307-2.352-.92-3.056-.613-.704-1.533-1.056-2.76-1.056h-1.2v8.32zm10.176 1.28c-.65 0-1.192-.192-1.624-.576-.432-.384-.648-.928-.648-1.632 0-.853.379-1.507 1.136-1.96.757-.453 1.968-.77 3.632-.952 0-.245-.024-.485-.072-.72a1.801 1.801 0 0 0-.248-.624 1.303 1.303 0 0 0-.488-.44c-.208-.112-.472-.168-.792-.168-.448 0-.87.085-1.264.256-.395.17-.747.363-1.056.576l-.512-.912a8.49 8.49 0 0 1 1.328-.68 4.434 4.434 0 0 1 1.728-.328c.95 0 1.637.29 2.064.872.427.581.64 1.357.64 2.328V156h-1.088l-.112-.928h-.048a6.58 6.58 0 0 1-1.2.792 2.974 2.974 0 0 1-1.376.328zm.384-1.056c.373 0 .725-.088 1.056-.264.33-.176.683-.435 1.056-.776v-2.16c-.65.085-1.197.187-1.64.304-.443.117-.8.256-1.072.416-.272.16-.47.344-.592.552a1.315 1.315 0 0 0-.184.68c0 .448.133.768.4.96.267.192.592.288.976.288zm8.112 1.056c-.416 0-.765-.064-1.048-.192a1.802 1.802 0 0 1-.688-.528 2.057 2.057 0 0 1-.376-.816 4.649 4.649 0 0 1-.112-1.056v-4.304h-1.152v-.992l1.216-.08.16-2.176h1.104v2.176h2.096v1.072h-2.096v4.32c0 .48.088.85.264 1.112.176.261.488.392.936.392.139 0 .288-.021.448-.064.16-.043.304-.09.432-.144l.256.992a6.802 6.802 0 0 1-.696.2c-.25.059-.499.088-.744.088zm4.416 0c-.65 0-1.192-.192-1.624-.576-.432-.384-.648-.928-.648-1.632 0-.853.379-1.507 1.136-1.96.757-.453 1.968-.77 3.632-.952 0-.245-.024-.485-.072-.72a1.801 1.801 0 0 0-.248-.624 1.303 1.303 0 0 0-.488-.44c-.208-.112-.472-.168-.792-.168-.448 0-.87.085-1.264.256-.395.17-.747.363-1.056.576l-.512-.912a8.49 8.49 0 0 1 1.328-.68 4.434 4.434 0 0 1 1.728-.328c.95 0 1.637.29 2.064.872.427.581.64 1.357.64 2.328V156h-1.088l-.112-.928h-.048a6.58 6.58 0 0 1-1.2.792 2.974 2.974 0 0 1-1.376.328zm.384-1.056c.373 0 .725-.088 1.056-.264.33-.176.683-.435 1.056-.776v-2.16c-.65.085-1.197.187-1.64.304-.443.117-.8.256-1.072.416-.272.16-.47.344-.592.552a1.315 1.315 0 0 0-.184.68c0 .448.133.768.4.96.267.192.592.288.976.288zm8.96 1.056c-.512 0-.992-.09-1.44-.272a3.235 3.235 0 0 1-1.16-.792 3.725 3.725 0 0 1-.768-1.28c-.187-.507-.28-1.08-.28-1.72 0-.65.101-1.23.304-1.736a3.91 3.91 0 0 1 .816-1.288 3.404 3.404 0 0 1 1.192-.8 3.82 3.82 0 0 1 1.432-.272c.512 0 .95.09 1.312.272.363.181.683.395.96.64l-.672.864a3.294 3.294 0 0 0-.712-.496 1.82 1.82 0 0 0-.84-.192c-.352 0-.677.072-.976.216-.299.144-.555.35-.768.616a3.053 3.053 0 0 0-.504.952 3.854 3.854 0 0 0-.184 1.224c0 .448.059.853.176 1.216.117.363.28.675.488.936.208.261.461.464.76.608.299.144.624.216.976.216.363 0 .696-.077 1-.232.304-.155.579-.339.824-.552l.576.88c-.352.31-.741.552-1.168.728a3.49 3.49 0 0 1-1.344.264zm7.04 0c-.523 0-1.01-.093-1.464-.28a3.47 3.47 0 0 1-1.184-.8c-.336-.347-.6-.77-.792-1.272-.192-.501-.288-1.072-.288-1.712 0-.64.099-1.213.296-1.72.197-.507.459-.936.784-1.288a3.402 3.402 0 0 1 1.112-.808c.416-.187.848-.28 1.296-.28.49 0 .93.085 1.32.256.39.17.715.416.976.736s.461.704.6 1.152c.139.448.208.95.208 1.504 0 .139-.003.275-.008.408a1.971 1.971 0 0 1-.04.344H75.24c.053.832.312 1.49.776 1.976.464.485 1.07.728 1.816.728.373 0 .717-.056 1.032-.168.315-.112.616-.259.904-.44l.464.864c-.341.213-.72.4-1.136.56-.416.16-.89.24-1.424.24zm-2.448-4.704h4.16c0-.79-.168-1.39-.504-1.8-.336-.41-.808-.616-1.416-.616-.277 0-.541.053-.792.16-.25.107-.477.264-.68.472-.203.208-.37.461-.504.76-.133.299-.221.64-.264 1.024zM82.456 156v-7.776h1.088l.112 1.12h.048a6.335 6.335 0 0 1 1.176-.936c.41-.25.888-.376 1.432-.376.821 0 1.421.256 1.8.768s.568 1.27.568 2.272V156h-1.312v-4.752c0-.736-.117-1.267-.352-1.592-.235-.325-.608-.488-1.12-.488-.405 0-.763.101-1.072.304-.31.203-.661.501-1.056.896V156h-1.312zm11.2.192c-.416 0-.765-.064-1.048-.192a1.802 1.802 0 0 1-.688-.528 2.057 2.057 0 0 1-.376-.816 4.649 4.649 0 0 1-.112-1.056v-4.304H90.28v-.992l1.216-.08.16-2.176h1.104v2.176h2.096v1.072H92.76v4.32c0 .48.088.85.264 1.112.176.261.488.392.936.392.139 0 .288-.021.448-.064.16-.043.304-.09.432-.144l.256.992a6.802 6.802 0 0 1-.696.2c-.25.059-.499.088-.744.088zm5.888 0c-.523 0-1.01-.093-1.464-.28a3.47 3.47 0 0 1-1.184-.8c-.336-.347-.6-.77-.792-1.272-.192-.501-.288-1.072-.288-1.712 0-.64.099-1.213.296-1.72.197-.507.459-.936.784-1.288a3.402 3.402 0 0 1 1.112-.808c.416-.187.848-.28 1.296-.28.49 0 .93.085 1.32.256.39.17.715.416.976.736s.461.704.6 1.152c.139.448.208.95.208 1.504 0 .139-.003.275-.008.408a1.971 1.971 0 0 1-.04.344h-5.248c.053.832.312 1.49.776 1.976.464.485 1.07.728 1.816.728.373 0 .717-.056 1.032-.168.315-.112.616-.259.904-.44l.464.864c-.341.213-.72.4-1.136.56-.416.16-.89.24-1.424.24zm-2.448-4.704h4.16c0-.79-.168-1.39-.504-1.8-.336-.41-.808-.616-1.416-.616-.277 0-.541.053-.792.16-.25.107-.477.264-.68.472-.203.208-.37.461-.504.76-.133.299-.221.64-.264 1.024zm7.232 4.512v-7.776h1.088l.112 1.408h.048c.267-.49.59-.88.968-1.168a2.004 2.004 0 0 1 1.24-.432c.31 0 .587.053.832.16l-.256 1.152a2.959 2.959 0 0 0-.352-.096 2.089 2.089 0 0 0-.4-.032c-.33 0-.675.133-1.032.4s-.67.73-.936 1.392V156h-1.312zM194.568 136.192a5.022 5.022 0 0 1-3.68-1.552l.8-.928c.373.395.813.712 1.32.952a3.64 3.64 0 0 0 1.576.36c.693 0 1.232-.157 1.616-.472.384-.315.576-.728.576-1.24 0-.267-.045-.493-.136-.68a1.48 1.48 0 0 0-.368-.48 2.668 2.668 0 0 0-.552-.36 43.787 43.787 0 0 0-.688-.336l-1.504-.656a7.17 7.17 0 0 1-.752-.384 3.095 3.095 0 0 1-.688-.544 2.603 2.603 0 0 1-.496-.76 2.52 2.52 0 0 1-.192-1.016c0-.395.083-.763.248-1.104.165-.341.395-.637.688-.888a3.19 3.19 0 0 1 1.04-.584c.4-.139.84-.208 1.32-.208.63 0 1.21.12 1.744.36.533.24.987.552 1.36.936l-.72.864a3.741 3.741 0 0 0-1.064-.728 3.17 3.17 0 0 0-1.32-.264c-.587 0-1.059.136-1.416.408-.357.272-.536.648-.536 1.128 0 .256.05.472.152.648a1.6 1.6 0 0 0 .408.464c.17.133.357.25.56.352.203.101.41.195.624.28l1.488.64c.299.128.581.275.848.44.267.165.496.357.688.576.192.219.344.475.456.768.112.293.168.632.168 1.016a2.782 2.782 0 0 1-.96 2.12c-.31.272-.683.485-1.12.64a4.447 4.447 0 0 1-1.488.232zm8.656 0c-.523 0-1.01-.093-1.464-.28a3.47 3.47 0 0 1-1.184-.8c-.336-.347-.6-.77-.792-1.272-.192-.501-.288-1.072-.288-1.712 0-.64.099-1.213.296-1.72.197-.507.459-.936.784-1.288a3.402 3.402 0 0 1 1.112-.808c.416-.187.848-.28 1.296-.28.49 0 .93.085 1.32.256.39.17.715.416.976.736s.461.704.6 1.152c.139.448.208.95.208 1.504 0 .139-.003.275-.008.408a1.971 1.971 0 0 1-.04.344h-5.248c.053.832.312 1.49.776 1.976.464.485 1.07.728 1.816.728.373 0 .717-.056 1.032-.168.315-.112.616-.259.904-.44l.464.864c-.341.213-.72.4-1.136.56-.416.16-.89.24-1.424.24zm-2.448-4.704h4.16c0-.79-.168-1.39-.504-1.8-.336-.41-.808-.616-1.416-.616-.277 0-.541.053-.792.16-.25.107-.477.264-.68.472-.203.208-.37.461-.504.76-.133.299-.221.64-.264 1.024zm10.304 4.704c-.512 0-.992-.09-1.44-.272a3.235 3.235 0 0 1-1.16-.792 3.725 3.725 0 0 1-.768-1.28c-.187-.507-.28-1.08-.28-1.72 0-.65.101-1.23.304-1.736a3.91 3.91 0 0 1 .816-1.288 3.404 3.404 0 0 1 1.192-.8 3.82 3.82 0 0 1 1.432-.272c.512 0 .95.09 1.312.272.363.181.683.395.96.64l-.672.864a3.294 3.294 0 0 0-.712-.496 1.82 1.82 0 0 0-.84-.192c-.352 0-.677.072-.976.216-.299.144-.555.35-.768.616a3.053 3.053 0 0 0-.504.952 3.854 3.854 0 0 0-.184 1.224c0 .448.059.853.176 1.216.117.363.28.675.488.936.208.261.461.464.76.608.299.144.624.216.976.216.363 0 .696-.077 1-.232.304-.155.579-.339.824-.552l.576.88c-.352.31-.741.552-1.168.728a3.49 3.49 0 0 1-1.344.264zm6.912 0c-.48 0-.936-.09-1.368-.272a3.37 3.37 0 0 1-1.144-.792 3.856 3.856 0 0 1-.792-1.28c-.197-.507-.296-1.08-.296-1.72 0-.65.099-1.23.296-1.736a3.95 3.95 0 0 1 .792-1.288c.33-.352.712-.619 1.144-.8a3.499 3.499 0 0 1 1.368-.272c.48 0 .936.09 1.368.272.432.181.813.448 1.144.8.33.352.595.781.792 1.288.197.507.296 1.085.296 1.736 0 .64-.099 1.213-.296 1.72a3.856 3.856 0 0 1-.792 1.28 3.37 3.37 0 0 1-1.144.792 3.499 3.499 0 0 1-1.368.272zm0-1.088c.33 0 .635-.072.912-.216.277-.144.515-.347.712-.608a2.89 2.89 0 0 0 .456-.936c.107-.363.16-.768.16-1.216 0-.448-.053-.856-.16-1.224a2.978 2.978 0 0 0-.456-.952 2.063 2.063 0 0 0-.712-.616 1.95 1.95 0 0 0-.912-.216c-.33 0-.635.072-.912.216-.277.144-.515.35-.712.616-.197.267-.35.584-.456.952-.107.368-.16.776-.16 1.224 0 .448.053.853.16 1.216.107.363.259.675.456.936s.435.464.712.608c.277.144.581.216.912.216zm5.648.896v-7.776h1.088l.112 1.12h.048a6.335 6.335 0 0 1 1.176-.936c.41-.25.888-.376 1.432-.376.821 0 1.421.256 1.8.768s.568 1.27.568 2.272V136h-1.312v-4.752c0-.736-.117-1.267-.352-1.592-.235-.325-.608-.488-1.12-.488-.405 0-.763.101-1.072.304-.31.203-.661.501-1.056.896V136h-1.312zm11.408.192c-.981 0-1.763-.352-2.344-1.056-.581-.704-.872-1.707-.872-3.008 0-.63.093-1.197.28-1.704.187-.507.435-.936.744-1.288.31-.352.667-.624 1.072-.816a2.954 2.954 0 0 1 1.28-.288c.448 0 .837.08 1.168.24.33.16.667.379 1.008.656l-.064-1.328v-2.992h1.328V136h-1.088l-.112-.912h-.048c-.31.299-.664.557-1.064.776-.4.219-.83.328-1.288.328zm.288-1.104c.363 0 .704-.088 1.024-.264.32-.176.64-.445.96-.808v-4.064c-.33-.299-.648-.51-.952-.632a2.48 2.48 0 0 0-.936-.184c-.31 0-.6.072-.872.216a2.2 2.2 0 0 0-.712.608 3.038 3.038 0 0 0-.48.936 3.938 3.938 0 0 0-.176 1.216c0 .939.187 1.67.56 2.192.373.523.901.784 1.584.784zm7.728 1.104c-.65 0-1.192-.192-1.624-.576-.432-.384-.648-.928-.648-1.632 0-.853.379-1.507 1.136-1.96.757-.453 1.968-.77 3.632-.952 0-.245-.024-.485-.072-.72a1.801 1.801 0 0 0-.248-.624 1.303 1.303 0 0 0-.488-.44c-.208-.112-.472-.168-.792-.168-.448 0-.87.085-1.264.256-.395.17-.747.363-1.056.576l-.512-.912a8.49 8.49 0 0 1 1.328-.68 4.434 4.434 0 0 1 1.728-.328c.95 0 1.637.29 2.064.872.427.581.64 1.357.64 2.328V136H245.8l-.112-.928h-.048a6.58 6.58 0 0 1-1.2.792 2.974 2.974 0 0 1-1.376.328zm.384-1.056c.373 0 .725-.088 1.056-.264.33-.176.683-.435 1.056-.776v-2.16c-.65.085-1.197.187-1.64.304-.443.117-.8.256-1.072.416-.272.16-.47.344-.592.552a1.315 1.315 0 0 0-.184.68c0 .448.133.768.4.96.267.192.592.288.976.288zm5.888.864v-7.776h1.088l.112 1.408h.048c.267-.49.59-.88.968-1.168a2.004 2.004 0 0 1 1.24-.432c.31 0 .587.053.832.16l-.256 1.152a2.959 2.959 0 0 0-.352-.096 2.089 2.089 0 0 0-.4-.032c-.33 0-.675.133-1.032.4s-.67.73-.936 1.392V136h-1.312zm6.08 3.344c-.181 0-.347-.013-.496-.04a1.986 1.986 0 0 1-.416-.12l.256-1.04.288.072c.107.027.208.04.304.04.448 0 .813-.157 1.096-.472.283-.315.504-.712.664-1.192l.176-.576-3.12-7.792h1.36l1.584 4.304c.117.341.243.701.376 1.08.133.379.259.75.376 1.112h.064c.117-.352.23-.72.336-1.104.107-.384.213-.747.32-1.088l1.392-4.304h1.28l-2.928 8.416a9.002 9.002 0 0 1-.464 1.072c-.17.33-.373.616-.608.856s-.501.43-.8.568a2.446 2.446 0 0 1-1.04.208zm14.544-3.152a4.246 4.246 0 0 1-1.816-.384 4.044 4.044 0 0 1-1.416-1.096c-.395-.475-.701-1.05-.92-1.728-.219-.677-.328-1.437-.328-2.28 0-.843.11-1.597.328-2.264.219-.667.525-1.232.92-1.696a3.956 3.956 0 0 1 1.416-1.064 4.403 4.403 0 0 1 1.816-.368c.661 0 1.267.125 1.816.376.55.25 1.024.608 1.424 1.072.4.464.71 1.03.928 1.696.219.667.328 1.416.328 2.248 0 .843-.11 1.603-.328 2.28-.219.677-.528 1.253-.928 1.728-.4.475-.875.84-1.424 1.096a4.246 4.246 0 0 1-1.816.384zm0-1.168c.47 0 .893-.101 1.272-.304.379-.203.704-.493.976-.872a4.33 4.33 0 0 0 .632-1.36c.15-.528.224-1.123.224-1.784 0-.65-.075-1.237-.224-1.76a4.041 4.041 0 0 0-.632-1.328 2.872 2.872 0 0 0-.976-.84 2.71 2.71 0 0 0-1.272-.296c-.47 0-.893.099-1.272.296a2.872 2.872 0 0 0-.976.84 4.041 4.041 0 0 0-.632 1.328 6.404 6.404 0 0 0-.224 1.76c0 .661.075 1.256.224 1.784.15.528.36.981.632 1.36.272.379.597.67.976.872.379.203.803.304 1.272.304zm8.512.976l-3.36-10.496h1.424l1.68 5.664c.192.63.36 1.21.504 1.744.144.533.317 1.11.52 1.728h.064c.192-.619.363-1.195.512-1.728.15-.533.315-1.115.496-1.744l1.68-5.664h1.36L280.024 136h-1.552zm6.32 0v-10.496h1.328v4.4H291v-4.4h1.344V136H291v-4.944h-4.88V136h-1.328zm-77.92 20v-10.496h2.624c1.621 0 2.853.448 3.696 1.344.843.896 1.264 2.181 1.264 3.856 0 .832-.107 1.576-.32 2.232-.213.656-.528 1.21-.944 1.664-.416.453-.928.8-1.536 1.04s-1.307.36-2.096.36h-2.688zm1.328-1.088h1.2c1.227 0 2.147-.368 2.76-1.104.613-.736.92-1.77.92-3.104 0-1.333-.307-2.352-.92-3.056-.613-.704-1.533-1.056-2.76-1.056h-1.2v8.32zm10.176 1.28c-.65 0-1.192-.192-1.624-.576-.432-.384-.648-.928-.648-1.632 0-.853.379-1.507 1.136-1.96.757-.453 1.968-.77 3.632-.952 0-.245-.024-.485-.072-.72a1.801 1.801 0 0 0-.248-.624 1.303 1.303 0 0 0-.488-.44c-.208-.112-.472-.168-.792-.168-.448 0-.87.085-1.264.256-.395.17-.747.363-1.056.576l-.512-.912a8.49 8.49 0 0 1 1.328-.68 4.434 4.434 0 0 1 1.728-.328c.95 0 1.637.29 2.064.872.427.581.64 1.357.64 2.328V156h-1.088l-.112-.928h-.048a6.58 6.58 0 0 1-1.2.792 2.974 2.974 0 0 1-1.376.328zm.384-1.056c.373 0 .725-.088 1.056-.264.33-.176.683-.435 1.056-.776v-2.16c-.65.085-1.197.187-1.64.304-.443.117-.8.256-1.072.416-.272.16-.47.344-.592.552a1.315 1.315 0 0 0-.184.68c0 .448.133.768.4.96.267.192.592.288.976.288zm8.112 1.056c-.416 0-.765-.064-1.048-.192a1.802 1.802 0 0 1-.688-.528 2.057 2.057 0 0 1-.376-.816 4.649 4.649 0 0 1-.112-1.056v-4.304h-1.152v-.992l1.216-.08.16-2.176h1.104v2.176h2.096v1.072h-2.096v4.32c0 .48.088.85.264 1.112.176.261.488.392.936.392.139 0 .288-.021.448-.064.16-.043.304-.09.432-.144l.256.992a6.802 6.802 0 0 1-.696.2c-.25.059-.499.088-.744.088zm4.416 0c-.65 0-1.192-.192-1.624-.576-.432-.384-.648-.928-.648-1.632 0-.853.379-1.507 1.136-1.96.757-.453 1.968-.77 3.632-.952 0-.245-.024-.485-.072-.72a1.801 1.801 0 0 0-.248-.624 1.303 1.303 0 0 0-.488-.44c-.208-.112-.472-.168-.792-.168-.448 0-.87.085-1.264.256-.395.17-.747.363-1.056.576l-.512-.912a8.49 8.49 0 0 1 1.328-.68 4.434 4.434 0 0 1 1.728-.328c.95 0 1.637.29 2.064.872.427.581.64 1.357.64 2.328V156h-1.088l-.112-.928h-.048a6.58 6.58 0 0 1-1.2.792 2.974 2.974 0 0 1-1.376.328zm.384-1.056c.373 0 .725-.088 1.056-.264.33-.176.683-.435 1.056-.776v-2.16c-.65.085-1.197.187-1.64.304-.443.117-.8.256-1.072.416-.272.16-.47.344-.592.552a1.315 1.315 0 0 0-.184.68c0 .448.133.768.4.96.267.192.592.288.976.288zm8.96 1.056c-.512 0-.992-.09-1.44-.272a3.235 3.235 0 0 1-1.16-.792 3.725 3.725 0 0 1-.768-1.28c-.187-.507-.28-1.08-.28-1.72 0-.65.101-1.23.304-1.736a3.91 3.91 0 0 1 .816-1.288 3.404 3.404 0 0 1 1.192-.8 3.82 3.82 0 0 1 1.432-.272c.512 0 .95.09 1.312.272.363.181.683.395.96.64l-.672.864a3.294 3.294 0 0 0-.712-.496 1.82 1.82 0 0 0-.84-.192c-.352 0-.677.072-.976.216-.299.144-.555.35-.768.616a3.053 3.053 0 0 0-.504.952 3.854 3.854 0 0 0-.184 1.224c0 .448.059.853.176 1.216.117.363.28.675.488.936.208.261.461.464.76.608.299.144.624.216.976.216.363 0 .696-.077 1-.232.304-.155.579-.339.824-.552l.576.88c-.352.31-.741.552-1.168.728a3.49 3.49 0 0 1-1.344.264zm7.04 0c-.523 0-1.01-.093-1.464-.28a3.47 3.47 0 0 1-1.184-.8c-.336-.347-.6-.77-.792-1.272-.192-.501-.288-1.072-.288-1.712 0-.64.099-1.213.296-1.72.197-.507.459-.936.784-1.288a3.402 3.402 0 0 1 1.112-.808c.416-.187.848-.28 1.296-.28.49 0 .93.085 1.32.256.39.17.715.416.976.736s.461.704.6 1.152c.139.448.208.95.208 1.504 0 .139-.003.275-.008.408a1.971 1.971 0 0 1-.04.344h-5.248c.053.832.312 1.49.776 1.976.464.485 1.07.728 1.816.728.373 0 .717-.056 1.032-.168.315-.112.616-.259.904-.44l.464.864c-.341.213-.72.4-1.136.56-.416.16-.89.24-1.424.24zm-2.448-4.704h4.16c0-.79-.168-1.39-.504-1.8-.336-.41-.808-.616-1.416-.616-.277 0-.541.053-.792.16-.25.107-.477.264-.68.472-.203.208-.37.461-.504.76-.133.299-.221.64-.264 1.024zm7.232 4.512v-7.776h1.088l.112 1.12h.048a6.335 6.335 0 0 1 1.176-.936c.41-.25.888-.376 1.432-.376.821 0 1.421.256 1.8.768s.568 1.27.568 2.272V156h-1.312v-4.752c0-.736-.117-1.267-.352-1.592-.235-.325-.608-.488-1.12-.488-.405 0-.763.101-1.072.304-.31.203-.661.501-1.056.896V156h-1.312zm11.2.192c-.416 0-.765-.064-1.048-.192a1.802 1.802 0 0 1-.688-.528 2.057 2.057 0 0 1-.376-.816 4.649 4.649 0 0 1-.112-1.056v-4.304h-1.152v-.992l1.216-.08.16-2.176h1.104v2.176h2.096v1.072h-2.096v4.32c0 .48.088.85.264 1.112.176.261.488.392.936.392.139 0 .288-.021.448-.064.16-.043.304-.09.432-.144l.256.992a6.802 6.802 0 0 1-.696.2c-.25.059-.499.088-.744.088zm5.888 0c-.523 0-1.01-.093-1.464-.28a3.47 3.47 0 0 1-1.184-.8c-.336-.347-.6-.77-.792-1.272-.192-.501-.288-1.072-.288-1.712 0-.64.099-1.213.296-1.72.197-.507.459-.936.784-1.288a3.402 3.402 0 0 1 1.112-.808c.416-.187.848-.28 1.296-.28.49 0 .93.085 1.32.256.39.17.715.416.976.736s.461.704.6 1.152c.139.448.208.95.208 1.504 0 .139-.003.275-.008.408a1.971 1.971 0 0 1-.04.344h-5.248c.053.832.312 1.49.776 1.976.464.485 1.07.728 1.816.728.373 0 .717-.056 1.032-.168.315-.112.616-.259.904-.44l.464.864c-.341.213-.72.4-1.136.56-.416.16-.89.24-1.424.24zm-2.448-4.704h4.16c0-.79-.168-1.39-.504-1.8-.336-.41-.808-.616-1.416-.616-.277 0-.541.053-.792.16-.25.107-.477.264-.68.472-.203.208-.37.461-.504.76-.133.299-.221.64-.264 1.024zm7.232 4.512v-7.776h1.088l.112 1.408h.048c.267-.49.59-.88.968-1.168a2.004 2.004 0 0 1 1.24-.432c.31 0 .587.053.832.16l-.256 1.152a2.959 2.959 0 0 0-.352-.096 2.089 2.089 0 0 0-.4-.032c-.33 0-.675.133-1.032.4s-.67.73-.936 1.392V156h-1.312z"/>
    </g>
</svg>
