<?xml version="1.0" encoding="UTF-8"?>
<svg width="320px" height="241px" viewBox="0 0 320 241" version="1.1" xmlns="http://www.w3.org/2000/svg" xmlns:xlink="http://www.w3.org/1999/xlink">
    <!-- Generator: Sketch 55.2 (78181) - https://sketchapp.com -->
    <title>zerto-one-and-one-pcc</title>
    <desc>Created with Sketch.</desc>
    <g id="Page-1" stroke="none" stroke-width="1" fill="none" fill-rule="evenodd">
        <g id="zerto-0A" transform="translate(-847.000000, -656.000000)">
            <g id="zerto-one-and-one-pcc" transform="translate(848.000000, 656.000000)">
                <g id="Group-13" transform="translate(34.000000, 0.000000)">
                    <g id="Group-6">
                        <g id="schema-zerto-copy">
                            <path d="M66.2751678,117.744966 C66.2751678,102.926174 90.2214765,99.8120805 103.053691,99.8120805" id="Path" stroke="#C9C9C9" stroke-width="0.536912752"></path>
                            <path d="M184.879195,117.744966 C184.879195,102.926174 160.932886,99.8120805 148.100671,99.8120805" id="Path" stroke="#B0CA67" stroke-width="0.536912752"></path>
                            <g id="Group" transform="translate(98.543624, 67.651007)">
                                <path d="M50.4161074,37.4765101 L50.2550336,37.4765101 C50.147651,38.7651007 49.1275168,39.6241611 47.7852349,39.6241611 L6.4966443,39.6241611 C5.20805369,39.6241611 4.13422819,38.7651007 4.02684564,37.4765101 L4.02684564,37.4765101 C3.65100671,37.4765101 3.27516779,37.6375839 3.06040268,37.9060403 L0.161073826,40.590604 C-0.161073826,40.8590604 0.0536912752,41.3959732 0.483221477,41.3959732 L53.5838926,41.3959732 C53.9597315,41.3959732 54.1744966,40.9127517 53.9060403,40.6442953 L51.4362416,38.0134228 C51.2214765,37.6375839 50.8456376,37.4765101 50.4161074,37.4765101 Z" id="Path" fill="#122844" opacity="0.15"></path>
                                <path d="M47.7852349,39.5704698 L6.4966443,39.5704698 C4.99328859,39.5704698 3.86577181,38.2281879 4.08053691,36.7248322 L5.20805369,29.3154362 L49.0738255,29.3154362 L50.2013423,36.7248322 C50.4697987,38.2281879 49.2885906,39.5704698 47.7852349,39.5704698 Z" id="Path" stroke="#B90B24" stroke-width="0.536912752" stroke-linejoin="round"></path>
                                <polyline id="Path" stroke="#B90B24" stroke-width="0.536912752" stroke-linejoin="round" points="15.033557 24.0536913 12.5637584 24.0536913 5.20805369 29.3691275 49.0738255 29.3691275 41.7718121 24.0536913 39.033557 24.0536913"></polyline>
                                <ellipse id="Oval" fill="#122844" opacity="0.15" cx="27.1677852" cy="26.5771812" rx="12.295302" ry="1.23489933"></ellipse>
                                <path d="M39.4630872,24.590604 C39.4630872,25.3959732 33.9865772,26.0939597 27.1677852,26.0939597 C20.3489933,26.0939597 14.8724832,25.4496644 14.8724832,24.590604 C14.8724832,23.7315436 14.8724832,14.1744966 27.1677852,14.1744966 C39.4630872,14.1744966 39.4630872,23.7852349 39.4630872,24.590604 Z" id="Path" fill="#FF4915"></path>
                                <path d="M27.1677852,14.1744966 C24.8053691,14.1744966 22.9261745,14.5503356 21.3691275,15.0872483 C21.261745,17.7718121 24.6979866,20.885906 29.5302013,22.2818792 C33.3959732,23.409396 37.1006711,23.0872483 39.0872483,21.7449664 C38.1744966,18.6845638 35.5436242,14.1744966 27.1677852,14.1744966 Z" id="Path" fill="#E9EBE7" opacity="0.25"></path>
                                <path d="M39.4630872,24.590604 C39.4630872,25.3959732 33.9865772,26.0939597 27.1677852,26.0939597 C20.3489933,26.0939597 14.8724832,25.4496644 14.8724832,24.590604" id="Path" stroke="#B90B24" stroke-width="0.536912752"></path>
                                <path d="M14.8724832,24.590604 C14.8724832,23.7852349 14.8724832,14.1744966 27.1677852,14.1744966 C39.4630872,14.1744966 39.4630872,23.7315436 39.4630872,24.590604" id="Path" stroke="#B90B24" stroke-width="0.536912752"></path>
                                <path d="M30.2281879,26.8456376 C30.2281879,26.9530201 28.9395973,27.0604027 27.3288591,27.0604027 C25.7181208,27.0604027 24.4295302,26.9530201 24.4295302,26.8456376 C24.4295302,26.738255 24.4295302,26.0939597 24.4295302,26.0939597 L30.1744966,26.0402685 C30.2281879,26.0402685 30.2281879,26.738255 30.2281879,26.8456376 Z" id="Path" fill="#B90B24"></path>
                                <rect id="Rectangle" x="4.51006711" y="31.5704698" width="45.3154362" height="7.51677852"></rect>
                                <text id="FailOver" fill="#B90B24" font-family="Helvetica" font-size="8.69138255" font-weight="normal">
                                    <tspan x="11.9197315" y="38.6790872">FailOver</tspan>
                                </text>
                                <g transform="translate(7.516779, 0.000000)" fill="#B90B24">
                                    <path d="M12.3489933,4.24161074 C12.9932886,4.24161074 13.4765101,4.56375839 13.4765101,5.85234899 L11.0604027,5.85234899 C11.1677852,4.61744966 11.704698,4.24161074 12.3489933,4.24161074 M15.6778523,10.0939597 L15.1409396,8.59060403 C14.1208054,8.96644295 13.4765101,9.12751678 12.885906,9.12751678 C11.6510067,9.12751678 11.1677852,8.4295302 11.114094,7.3557047 L15.7852349,7.3557047 C15.7852349,7.03355705 15.8389262,6.4966443 15.8389262,6.33557047 C15.8389262,3.70469799 14.4966443,2.63087248 12.5100671,2.63087248 C10.4161074,2.63087248 8.75167785,3.91946309 8.75167785,6.7114094 C8.75167785,9.0738255 9.77181208,10.8993289 12.6711409,10.8993289 C13.6912752,10.8993289 14.7114094,10.5771812 15.6778523,10.0939597" id="Shape" fill-rule="nonzero"></path>
                                    <path d="M33.1275168,4.24161074 C33.3422819,4.24161074 33.557047,4.29530201 33.7181208,4.34899329 L31.5167785,7.73154362 C31.4630872,7.40939597 31.409396,7.08724832 31.409396,6.65771812 C31.4630872,4.88590604 32.1610738,4.24161074 33.1275168,4.24161074 L33.1275168,4.24161074 Z M32.3758389,9.12751678 C32.2147651,9.0738255 32.1073826,8.96644295 32,8.80536913 L32.3758389,9.12751678 Z M34.6845638,6.7114094 C34.6845638,8.59060403 34.0939597,9.2885906 33.0738255,9.2885906 C32.8053691,9.2885906 32.590604,9.23489933 32.3758389,9.12751678 L34.5771812,5.63758389 C34.6308725,5.95973154 34.6845638,6.28187919 34.6845638,6.7114094 L34.6845638,6.7114094 Z M37.1006711,6.60402685 C37.1006711,4.29530201 36.0268456,2.63087248 33.1812081,2.63087248 C30.3892617,2.63087248 29.1006711,4.29530201 29.1006711,6.81879195 C29.1006711,9.18120805 30.2281879,10.8993289 33.0201342,10.8993289 C35.7583893,10.8993289 37.1006711,9.23489933 37.1006711,6.60402685 L37.1006711,6.60402685 Z" id="Shape" fill-rule="nonzero"></path>
                                    <path d="M29.3691275,10.2550336 C29.3691275,10.2550336 28.8322148,8.96644295 28.7785235,8.96644295 C28.6711409,9.02013423 28.5100671,9.02013423 28.4026846,9.0738255 C28.4026846,9.0738255 28.4026846,9.0738255 28.3489933,9.0738255 C28.1342282,9.12751678 27.9194631,9.12751678 27.6510067,9.12751678 C26.8456376,9.12751678 26.5771812,8.75167785 26.5771812,7.83892617 L26.5771812,7.73154362 L26.5771812,4.13422819 L26.5771812,4.02684564 L26.5771812,4.02684564 L28.885906,4.02684564 L28.885906,2.46979866 L26.738255,2.46979866 C26.6308725,2.46979866 26.6308725,2.41610738 26.6308725,2.30872483 L26.6308725,0.536912752 L26.6308725,0.483221477 L26.6308725,0.375838926 C26.6308725,0.375838926 25.1275168,0.375838926 25.1275168,0.375838926 C25.0738255,0.697986577 25.0201342,0.966442953 24.966443,1.18120805 C24.6979866,1.98657718 24.1073826,2.30872483 23.0872483,2.41610738 L23.0872483,2.57718121 L23.0872483,2.57718121 L23.0872483,3.59731544 L23.0872483,3.91946309 L23.0872483,3.91946309 L23.1946309,3.91946309 L23.4630872,3.91946309 L24.1610738,3.91946309 C24.2684564,3.91946309 24.2684564,3.97315436 24.2684564,4.08053691 L24.2684564,4.18791946 L24.2684564,8.10738255 L24.2684564,8.10738255 L24.2684564,8.2147651 C24.2684564,9.93288591 24.966443,10.6845638 26.7919463,10.6845638 C27.704698,10.8993289 28.6711409,10.5771812 29.3691275,10.2550336" id="Path"></path>
                                    <path d="M8.05369128,10.147651 L8.05369128,10.0402685 L8.05369128,7.51677852 L6.4966443,7.51677852 L6.22818792,9.02013423 C6.17449664,9.18120805 6.17449664,9.18120805 6.01342282,9.18120805 L2.84563758,9.18120805 L8.10738255,1.87919463 L8.10738255,0.483221477 L2.73825503,0.483221477 L0.429530201,0.483221477 L0.161073826,0.483221477 L0.0536912752,0.483221477 L0.0536912752,3.81208054 L0.161073826,3.81208054 L0.429530201,3.81208054 L1.71812081,3.81208054 L1.98657718,2.30872483 C2.04026846,2.14765101 2.04026846,2.14765101 2.20134228,2.14765101 L5.20805369,2.14765101 L0.0536912752,9.2885906 L0.0536912752,10.3087248 L0.0536912752,10.6845638 L8.10738255,10.6845638 L8.10738255,10.147651 L8.05369128,10.147651 Z" id="Path"></path>
                                    <path d="M20.5637584,10.2550336 L20.5637584,9.44966443 L20.5637584,9.44966443 L19.8657718,9.34228188 C19.7583893,9.34228188 19.704698,9.2885906 19.6510067,9.2885906 C19.5973154,9.23489933 19.5973154,9.18120805 19.5973154,9.0738255 L19.5973154,9.0738255 C19.5973154,9.0738255 19.5973154,9.0738255 19.5973154,9.0738255 L19.5973154,9.0738255 C19.5973154,9.0738255 19.5973154,9.0738255 19.5973154,9.0738255 L19.5973154,5.04697987 C19.5973154,5.04697987 19.6510067,4.93959732 19.8120805,4.83221477 C20.1342282,4.56375839 20.9395973,4.13422819 22.3355705,4.13422819 L22.442953,4.13422819 L22.442953,3.75838926 C22.442953,3.38255034 22.442953,2.84563758 22.442953,2.84563758 L22.442953,2.57718121 L22.442953,2.57718121 C22.442953,2.57718121 22.442953,2.57718121 22.442953,2.57718121 C22.1208054,2.52348993 21.7986577,2.52348993 21.5302013,2.52348993 C20.5637584,2.52348993 19.8657718,3.11409396 19.3825503,3.91946309 L19.3288591,3.91946309 L19.1677852,2.68456376 L16.4295302,2.68456376 L16.2684564,3.91946309 L17.1275168,4.18791946 C17.2885906,4.24161074 17.3422819,4.34899329 17.3422819,4.51006711 L17.3422819,9.02013423 C17.3422819,9.23489933 17.2885906,9.2885906 17.0738255,9.34228188 L16.3758389,9.44966443 L16.3758389,10.6845638 L20.5637584,10.6845638 L20.5637584,10.2550336 L20.5637584,10.2550336 Z" id="Path"></path>
                                </g>
                            </g>
                            <g id="Group" transform="translate(0.000000, 117.000000)">
                                <g id="Group-21">
                                    <path d="M283.557047,0.966442953 L283.557047,122.040268 L130.536913,122.040268 L130.536913,0.966442953 L283.557047,0.966442953 L283.557047,0.966442953 Z M284.09396,0.429530201 L130,0.429530201 L130,122.577181 L284.09396,122.577181 L284.09396,0.429530201 L284.09396,0.429530201 Z" id="Shape" fill="#B0CA67" fill-rule="nonzero"></path>
                                    <g id="Group" transform="translate(179.181208, 47.751678)">
                                        <g>
                                            <polygon id="Path" fill="#E0EAC2" points="0.375838926 48.1610738 0.375838926 16.4832215 27.8657718 0.644295302 55.3020134 16.4832215 55.3020134 48.1610738 27.8120805 48.1610738 27.8657718 48.1610738"></polygon>
                                            <path d="M27.8657718,0.966442953 L55.0872483,16.6979866 L55.0872483,47.8926174 L27.8657718,47.9463087 L0.644295302,47.8926174 L0.644295302,16.6442953 L27.8657718,0.966442953 L27.8657718,0.966442953 Z M27.8657718,0.322147651 L0.10738255,16.3221477 L0.10738255,48.3758389 L27.8657718,48.4295302 L55.6241611,48.3758389 L55.6241611,16.3221477 L27.8657718,0.322147651 L27.8657718,0.322147651 Z" id="Shape" fill="#B0CA67" fill-rule="nonzero"></path>
                                        </g>
                                        <g>
                                            <polygon id="Path" fill="#E0EAC2" points="0.375838926 48.1610738 0.375838926 16.4832215 27.8657718 0.644295302 55.3020134 16.4832215 55.3020134 48.1610738 27.8120805 48.1610738 27.8657718 48.1610738"></polygon>
                                            <path d="M27.8657718,0.966442953 L55.0872483,16.6979866 L55.0872483,47.8926174 L27.8657718,47.9463087 L0.644295302,47.8926174 L0.644295302,16.6442953 L27.8657718,0.966442953 L27.8657718,0.966442953 Z M27.8657718,0.322147651 L0.10738255,16.3221477 L0.10738255,48.3758389 L27.8657718,48.4295302 L55.6241611,48.3758389 L55.6241611,16.3221477 L27.8657718,0.322147651 L27.8657718,0.322147651 Z" id="Shape" fill="#B0CA67" fill-rule="nonzero"></path>
                                        </g>
                                        <polyline id="Path" stroke="#B0CA67" stroke-width="0.536912752" fill="#E0EAC2" points="27.8657718 48.6979866 27.5973154 32.4832215 55.3020134 16.7516779"></polyline>
                                        <path d="M0.10738255,16.6442953 L27.5973154,32.4832215" id="Path" stroke="#B0CA67" stroke-width="0.536912752" fill="#E0EAC2"></path>
                                        <g transform="translate(10.201342, 6.442953)">
                                            <polygon id="Path" fill="#E0EAC2" points="0.966442953 10.147651 17.6107383 0.536912752 34.0402685 10.2550336 17.2885906 19.6510067"></polygon>
                                            <path d="M17.557047,0.859060403 L33.4496644,10.2013423 L17.2348993,19.3288591 L1.44966443,10.147651 L17.557047,0.859060403 L17.557047,0.859060403 Z M17.6107383,0.214765101 L0.429530201,10.147651 L17.2885906,19.9731544 L34.5771812,10.2550336 L17.6107383,0.214765101 L17.6107383,0.214765101 Z" id="Shape" fill="#B0CA67" fill-rule="nonzero"></path>
                                        </g>
                                    </g>
                                    <g id="Group" transform="translate(133.543624, 86.979866)">
                                        <g>
                                            <g>
                                                <g opacity="0.4" fill="#E3CD4D" id="Rectangle">
                                                    <rect x="0.483221477" y="0.429530201" width="24.3221477" height="24.3221477"></rect>
                                                </g>
                                                <g>
                                                    <rect id="Rectangle" fill="#E0EAC2" x="0.751677852" y="0.697986577" width="23.7852349" height="23.7852349"></rect>
                                                    <path d="M24.2684564,0.966442953 L24.2684564,24.2147651 L1.02013423,24.2147651 L1.02013423,0.966442953 L24.2684564,0.966442953 L24.2684564,0.966442953 Z M24.8053691,0.429530201 L0.483221477,0.429530201 L0.483221477,24.7516779 L24.8053691,24.7516779 L24.8053691,0.429530201 L24.8053691,0.429530201 Z" id="Shape" fill="#B0CA67" fill-rule="nonzero"></path>
                                                </g>
                                                <rect id="Rectangle" x="0.483221477" y="9.18120805" width="24.3221477" height="15.5704698"></rect>
                                                <text id="VM" fill="#57710E" font-family="Helvetica" font-size="9.12751678" font-weight="normal">
                                                    <tspan x="6.44381208" y="16.0891275">VM</tspan>
                                                </text>
                                            </g>
                                            <g transform="translate(16.644295, 16.107383)">
                                                <circle id="Oval" fill="#B0CA67" cx="4.88590604" cy="5.04697987" r="4.88590604"></circle>
                                                <path d="M7.67785235,3.48993289 L7.3557047,3.11409396 C7.19463087,2.95302013 6.97986577,2.95302013 6.87248322,3.11409396 L6.60402685,3.32885906 C6.12080537,3.75838926 5.63758389,4.24161074 5.15436242,4.67114094 L4.18791946,5.58389262 L4.18791946,5.58389262 C4.08053691,5.69127517 4.02684564,5.74496644 3.91946309,5.85234899 C3.59731544,5.53020134 3.27516779,5.20805369 3.00671141,4.83221477 C2.84563758,4.67114094 2.63087248,4.67114094 2.52348993,4.83221477 L2.46979866,4.88590604 C2.36241611,4.99328859 2.25503356,5.04697987 2.20134228,5.15436242 C2.04026846,5.31543624 2.04026846,5.53020134 2.20134228,5.63758389 L3.43624161,6.9261745 C3.54362416,7.03355705 3.65100671,7.1409396 3.75838926,7.24832215 C3.91946309,7.40939597 4.13422819,7.40939597 4.24161074,7.24832215 L5.74496644,5.85234899 C6.44295302,5.20805369 7.08724832,4.56375839 7.7852349,3.97315436 C7.7852349,3.86577181 7.7852349,3.65100671 7.67785235,3.48993289 Z" id="Path" fill="#FFFFFF"></path>
                                            </g>
                                        </g>
                                        <g transform="translate(30.067114, 0.000000)">
                                            <g>
                                                <g opacity="0.4" fill="#E3CD4D" id="Rectangle">
                                                    <rect x="0.483221477" y="0.429530201" width="24.3221477" height="24.3221477"></rect>
                                                </g>
                                                <g>
                                                    <rect id="Rectangle" fill="#E0EAC2" x="0.751677852" y="0.697986577" width="23.7852349" height="23.7852349"></rect>
                                                    <path d="M24.2684564,0.966442953 L24.2684564,24.2147651 L1.02013423,24.2147651 L1.02013423,0.966442953 L24.2684564,0.966442953 L24.2684564,0.966442953 Z M24.8053691,0.429530201 L0.483221477,0.429530201 L0.483221477,24.7516779 L24.8053691,24.7516779 L24.8053691,0.429530201 L24.8053691,0.429530201 Z" id="Shape" fill="#B0CA67" fill-rule="nonzero"></path>
                                                </g>
                                                <rect id="Rectangle" x="0.483221477" y="9.18120805" width="24.3221477" height="15.5704698"></rect>
                                                <text id="VM" fill="#57710E" font-family="Helvetica" font-size="9.12751678" font-weight="normal">
                                                    <tspan x="6.44381208" y="16.0891275">VM</tspan>
                                                </text>
                                            </g>
                                            <g transform="translate(16.644295, 16.107383)">
                                                <circle id="Oval" fill="#B0CA67" cx="4.88590604" cy="5.04697987" r="4.88590604"></circle>
                                                <path d="M7.67785235,3.48993289 L7.3557047,3.11409396 C7.19463087,2.95302013 6.97986577,2.95302013 6.87248322,3.11409396 L6.60402685,3.32885906 C6.12080537,3.75838926 5.63758389,4.24161074 5.15436242,4.67114094 L4.18791946,5.58389262 L4.18791946,5.58389262 C4.08053691,5.69127517 4.02684564,5.74496644 3.91946309,5.85234899 C3.59731544,5.53020134 3.27516779,5.20805369 3.00671141,4.83221477 C2.84563758,4.67114094 2.63087248,4.67114094 2.52348993,4.83221477 L2.46979866,4.88590604 C2.36241611,4.99328859 2.25503356,5.04697987 2.20134228,5.15436242 C2.04026846,5.31543624 2.04026846,5.53020134 2.20134228,5.63758389 L3.43624161,6.9261745 C3.54362416,7.03355705 3.65100671,7.1409396 3.75838926,7.24832215 C3.91946309,7.40939597 4.13422819,7.40939597 4.24161074,7.24832215 L5.74496644,5.85234899 C6.44295302,5.20805369 7.08724832,4.56375839 7.7852349,3.97315436 C7.7852349,3.86577181 7.7852349,3.65100671 7.67785235,3.48993289 Z" id="Path" fill="#FFFFFF"></path>
                                            </g>
                                        </g>
                                        <g transform="translate(60.134228, 0.000000)">
                                            <g>
                                                <g opacity="0.4" fill="#E3CD4D" id="Rectangle">
                                                    <rect x="0.483221477" y="0.429530201" width="24.3221477" height="24.3221477"></rect>
                                                </g>
                                                <g>
                                                    <rect id="Rectangle" fill="#E0EAC2" x="0.751677852" y="0.697986577" width="23.7852349" height="23.7852349"></rect>
                                                    <path d="M24.2684564,0.966442953 L24.2684564,24.2147651 L1.02013423,24.2147651 L1.02013423,0.966442953 L24.2684564,0.966442953 L24.2684564,0.966442953 Z M24.8053691,0.429530201 L0.483221477,0.429530201 L0.483221477,24.7516779 L24.8053691,24.7516779 L24.8053691,0.429530201 L24.8053691,0.429530201 Z" id="Shape" fill="#B0CA67" fill-rule="nonzero"></path>
                                                </g>
                                                <rect id="Rectangle" x="0.483221477" y="9.18120805" width="24.3221477" height="15.5704698"></rect>
                                                <text id="VM" fill="#57710E" font-family="Helvetica" font-size="9.12751678" font-weight="normal">
                                                    <tspan x="6.44381208" y="16.0891275">VM</tspan>
                                                </text>
                                            </g>
                                            <g transform="translate(16.644295, 16.107383)">
                                                <circle id="Oval" fill="#B0CA67" cx="4.88590604" cy="5.04697987" r="4.88590604"></circle>
                                                <path d="M7.67785235,3.48993289 L7.3557047,3.11409396 C7.19463087,2.95302013 6.97986577,2.95302013 6.87248322,3.11409396 L6.60402685,3.32885906 C6.12080537,3.75838926 5.63758389,4.24161074 5.15436242,4.67114094 L4.18791946,5.58389262 L4.18791946,5.58389262 C4.08053691,5.69127517 4.02684564,5.74496644 3.91946309,5.85234899 C3.59731544,5.53020134 3.27516779,5.20805369 3.00671141,4.83221477 C2.84563758,4.67114094 2.63087248,4.67114094 2.52348993,4.83221477 L2.46979866,4.88590604 C2.36241611,4.99328859 2.25503356,5.04697987 2.20134228,5.15436242 C2.04026846,5.31543624 2.04026846,5.53020134 2.20134228,5.63758389 L3.43624161,6.9261745 C3.54362416,7.03355705 3.65100671,7.1409396 3.75838926,7.24832215 C3.91946309,7.40939597 4.13422819,7.40939597 4.24161074,7.24832215 L5.74496644,5.85234899 C6.44295302,5.20805369 7.08724832,4.56375839 7.7852349,3.97315436 C7.7852349,3.86577181 7.7852349,3.65100671 7.67785235,3.48993289 Z" id="Path" fill="#FFFFFF"></path>
                                            </g>
                                        </g>
                                        <g transform="translate(90.201342, 0.000000)">
                                            <g>
                                                <g opacity="0.4" fill="#E3CD4D" id="Rectangle">
                                                    <rect x="0.483221477" y="0.429530201" width="24.3221477" height="24.3221477"></rect>
                                                </g>
                                                <g>
                                                    <rect id="Rectangle" fill="#E0EAC2" x="0.751677852" y="0.697986577" width="23.7852349" height="23.7852349"></rect>
                                                    <path d="M24.2684564,0.966442953 L24.2684564,24.2147651 L1.02013423,24.2147651 L1.02013423,0.966442953 L24.2684564,0.966442953 L24.2684564,0.966442953 Z M24.8053691,0.429530201 L0.483221477,0.429530201 L0.483221477,24.7516779 L24.8053691,24.7516779 L24.8053691,0.429530201 L24.8053691,0.429530201 Z" id="Shape" fill="#B0CA67" fill-rule="nonzero"></path>
                                                </g>
                                                <rect id="Rectangle" x="0.483221477" y="9.18120805" width="24.3221477" height="15.5704698"></rect>
                                                <text id="VM" fill="#57710E" font-family="Helvetica" font-size="9.12751678" font-weight="normal">
                                                    <tspan x="6.44381208" y="16.0891275">VM</tspan>
                                                </text>
                                            </g>
                                            <g transform="translate(16.644295, 16.107383)">
                                                <circle id="Oval" fill="#B0CA67" cx="4.88590604" cy="5.04697987" r="4.88590604"></circle>
                                                <path d="M7.67785235,3.48993289 L7.3557047,3.11409396 C7.19463087,2.95302013 6.97986577,2.95302013 6.87248322,3.11409396 L6.60402685,3.32885906 C6.12080537,3.75838926 5.63758389,4.24161074 5.15436242,4.67114094 L4.18791946,5.58389262 L4.18791946,5.58389262 C4.08053691,5.69127517 4.02684564,5.74496644 3.91946309,5.85234899 C3.59731544,5.53020134 3.27516779,5.20805369 3.00671141,4.83221477 C2.84563758,4.67114094 2.63087248,4.67114094 2.52348993,4.83221477 L2.46979866,4.88590604 C2.36241611,4.99328859 2.25503356,5.04697987 2.20134228,5.15436242 C2.04026846,5.31543624 2.04026846,5.53020134 2.20134228,5.63758389 L3.43624161,6.9261745 C3.54362416,7.03355705 3.65100671,7.1409396 3.75838926,7.24832215 C3.91946309,7.40939597 4.13422819,7.40939597 4.24161074,7.24832215 L5.74496644,5.85234899 C6.44295302,5.20805369 7.08724832,4.56375839 7.7852349,3.97315436 C7.7852349,3.86577181 7.7852349,3.65100671 7.67785235,3.48993289 Z" id="Path" fill="#FFFFFF"></path>
                                            </g>
                                        </g>
                                        <g transform="translate(120.268456, 0.000000)">
                                            <g>
                                                <g opacity="0.4" fill="#E3CD4D" id="Rectangle">
                                                    <rect x="0.483221477" y="0.429530201" width="24.3221477" height="24.3221477"></rect>
                                                </g>
                                                <g>
                                                    <rect id="Rectangle" fill="#E0EAC2" x="0.751677852" y="0.697986577" width="23.7852349" height="23.7852349"></rect>
                                                    <path d="M24.2684564,0.966442953 L24.2684564,24.2147651 L1.02013423,24.2147651 L1.02013423,0.966442953 L24.2684564,0.966442953 L24.2684564,0.966442953 Z M24.8053691,0.429530201 L0.483221477,0.429530201 L0.483221477,24.7516779 L24.8053691,24.7516779 L24.8053691,0.429530201 L24.8053691,0.429530201 Z" id="Shape" fill="#B0CA67" fill-rule="nonzero"></path>
                                                </g>
                                                <rect id="Rectangle" x="0.483221477" y="9.18120805" width="24.3221477" height="15.5704698"></rect>
                                                <text id="VM" fill="#57710E" font-family="Helvetica" font-size="9.12751678" font-weight="normal">
                                                    <tspan x="6.44381208" y="16.0891275">VM</tspan>
                                                </text>
                                            </g>
                                            <g transform="translate(16.644295, 16.107383)">
                                                <circle id="Oval" fill="#B0CA67" cx="4.88590604" cy="5.04697987" r="4.88590604"></circle>
                                                <path d="M7.67785235,3.48993289 L7.3557047,3.11409396 C7.19463087,2.95302013 6.97986577,2.95302013 6.87248322,3.11409396 L6.60402685,3.32885906 C6.12080537,3.75838926 5.63758389,4.24161074 5.15436242,4.67114094 L4.18791946,5.58389262 L4.18791946,5.58389262 C4.08053691,5.69127517 4.02684564,5.74496644 3.91946309,5.85234899 C3.59731544,5.53020134 3.27516779,5.20805369 3.00671141,4.83221477 C2.84563758,4.67114094 2.63087248,4.67114094 2.52348993,4.83221477 L2.46979866,4.88590604 C2.36241611,4.99328859 2.25503356,5.04697987 2.20134228,5.15436242 C2.04026846,5.31543624 2.04026846,5.53020134 2.20134228,5.63758389 L3.43624161,6.9261745 C3.54362416,7.03355705 3.65100671,7.1409396 3.75838926,7.24832215 C3.91946309,7.40939597 4.13422819,7.40939597 4.24161074,7.24832215 L5.74496644,5.85234899 C6.44295302,5.20805369 7.08724832,4.56375839 7.7852349,3.97315436 C7.7852349,3.86577181 7.7852349,3.65100671 7.67785235,3.48993289 Z" id="Path" fill="#FFFFFF"></path>
                                            </g>
                                        </g>
                                    </g>
                                    <g id="Group" transform="translate(197.436242, 43.456376)">
                                        <circle id="Oval" fill="#B0CA67" cx="9.61073826" cy="9.93288591" r="9.55704698"></circle>
                                        <rect id="Rectangle" x="0.0536912752" y="6.12080537" width="19.0604027" height="13.3691275"></rect>
                                        <text id="B" fill="#FFFFFF" font-family="Helvetica" font-size="10.738255" font-weight="normal">
                                            <tspan x="6.67409396" y="13.5173691">B</tspan>
                                        </text>
                                    </g>
                                    <path d="M5.42652349,22.1450201 C4.76518685,22.1450201 4.15985957,22.0170214 3.61052349,21.7610201 C3.06118741,21.5050189 2.58919213,21.1396892 2.19452349,20.6650201 C1.79985485,20.1903511 1.49319125,19.6143569 1.27452349,18.9370201 C1.05585573,18.2596834 0.94652349,17.499691 0.94652349,16.6570201 C0.94652349,15.8143493 1.05585573,15.0596901 1.27452349,14.3930201 C1.49319125,13.7263501 1.79985485,13.1610225 2.19452349,12.6970201 C2.58919213,12.2330178 3.06118741,11.8783547 3.61052349,11.6330201 C4.15985957,11.3876856 4.76518685,11.2650201 5.42652349,11.2650201 C6.08786013,11.2650201 6.69318741,11.3903522 7.24252349,11.6410201 C7.79185957,11.8916881 8.26652149,12.2490178 8.66652349,12.7130201 C9.06652549,13.1770225 9.37585573,13.7423501 9.59452349,14.4090201 C9.81319125,15.0756901 9.92252349,15.825016 9.92252349,16.6570201 C9.92252349,17.499691 9.81319125,18.2596834 9.59452349,18.9370201 C9.37585573,19.6143569 9.06652549,20.1903511 8.66652349,20.6650201 C8.26652149,21.1396892 7.79185957,21.5050189 7.24252349,21.7610201 C6.69318741,22.0170214 6.08786013,22.1450201 5.42652349,22.1450201 Z M5.42652349,20.9770201 C5.89585917,20.9770201 6.31985493,20.8756878 6.69852349,20.6730201 C7.07719205,20.4703525 7.40252213,20.1796887 7.67452349,19.8010201 C7.94652485,19.4223516 8.15718941,18.9690228 8.30652349,18.4410201 C8.45585757,17.9130175 8.53052349,17.3183568 8.53052349,16.6570201 C8.53052349,16.0063502 8.45585757,15.4196894 8.30652349,14.8970201 C8.15718941,14.3743509 7.94652485,13.9316886 7.67452349,13.5690201 C7.40252213,13.2063517 7.07719205,12.9263545 6.69852349,12.7290201 C6.31985493,12.5316858 5.89585917,12.4330201 5.42652349,12.4330201 C4.95718781,12.4330201 4.53319205,12.5316858 4.15452349,12.7290201 C3.77585493,12.9263545 3.45052485,13.2063517 3.17852349,13.5690201 C2.90652213,13.9316886 2.69585757,14.3743509 2.54652349,14.8970201 C2.39718941,15.4196894 2.32252349,16.0063502 2.32252349,16.6570201 C2.32252349,17.3183568 2.39718941,17.9130175 2.54652349,18.4410201 C2.69585757,18.9690228 2.90652213,19.4223516 3.17852349,19.8010201 C3.45052485,20.1796887 3.77585493,20.4703525 4.15452349,20.6730201 C4.53319205,20.8756878 4.95718781,20.9770201 5.42652349,20.9770201 Z M12.0505235,21.9530201 L12.0505235,14.1770201 L13.1385235,14.1770201 L13.2505235,15.2970201 L13.2985235,15.2970201 C13.6718587,14.9236849 14.0638548,14.6116881 14.4745235,14.3610201 C14.8851922,14.1103522 15.3625208,13.9850201 15.9065235,13.9850201 C16.7278609,13.9850201 17.3278549,14.2410176 17.7065235,14.7530201 C18.085192,15.2650227 18.2745235,16.0223485 18.2745235,17.0250201 L18.2745235,21.9530201 L16.9625235,21.9530201 L16.9625235,17.2010201 C16.9625235,16.4650165 16.8451913,15.9343551 16.6105235,15.6090201 C16.3758556,15.2836852 16.002526,15.1210201 15.4905235,15.1210201 C15.0851881,15.1210201 14.7278584,15.2223525 14.4185235,15.4250201 C14.1091886,15.6276878 13.7571921,15.9263515 13.3625235,16.3210201 L13.3625235,21.9530201 L12.0505235,21.9530201 Z M24.0025235,25.2330201 L24.0025235,14.1770201 L25.0905235,14.1770201 L25.2025235,15.0730201 L25.2505235,15.0730201 C25.6025252,14.774352 25.989188,14.5183545 26.4105235,14.3050201 C26.8318589,14.0916857 27.2718545,13.9850201 27.7305235,13.9850201 C28.2318593,13.9850201 28.6745216,14.0783525 29.0585235,14.2650201 C29.4425254,14.4516877 29.7625222,14.7183517 30.0185235,15.0650201 C30.2745248,15.4116885 30.4691895,15.8276844 30.6025235,16.3130201 C30.7358575,16.7983559 30.8025235,17.3450171 30.8025235,17.9530201 C30.8025235,18.6143568 30.7118577,19.2036842 30.5305235,19.7210201 C30.3491892,20.2383561 30.1038584,20.6783517 29.7945235,21.0410201 C29.4851886,21.4036886 29.1278588,21.6783525 28.7225235,21.8650201 C28.3171881,22.0516877 27.8905257,22.1450201 27.4425235,22.1450201 C27.079855,22.1450201 26.7198586,22.0650209 26.3625235,21.9050201 C26.0051884,21.7450193 25.645192,21.5263549 25.2825235,21.2490201 L25.3145235,22.6090201 L25.3145235,25.2330201 L24.0025235,25.2330201 Z M27.2185235,21.0410201 C27.5385251,21.0410201 27.8345221,20.9690209 28.1065235,20.8250201 C28.3785248,20.6810194 28.6131892,20.4783548 28.8105235,20.2170201 C29.0078578,19.9556855 29.1625229,19.6330221 29.2745235,19.2490201 C29.386524,18.8650182 29.4425235,18.4330225 29.4425235,17.9530201 C29.4425235,17.5263513 29.4051905,17.1370219 29.3305235,16.7850201 C29.2558564,16.4330184 29.1358576,16.1316881 28.9705235,15.8810201 C28.8051893,15.6303522 28.5918581,15.4356875 28.3305235,15.2970201 C28.0691888,15.1583528 27.757192,15.0890201 27.3945235,15.0890201 C27.0638552,15.0890201 26.7305252,15.1796859 26.3945235,15.3610201 C26.0585218,15.5423544 25.6985254,15.8036851 25.3145235,16.1450201 L25.3145235,20.2250201 C25.6665252,20.5236883 26.0078552,20.7343529 26.3385235,20.8570201 C26.6691918,20.9796874 26.9625222,21.0410201 27.2185235,21.0410201 Z M32.8825235,21.9530201 L32.8825235,14.1770201 L33.9705235,14.1770201 L34.0825235,15.5850201 L34.1305235,15.5850201 C34.3971915,15.094351 34.7198549,14.7050216 35.0985235,14.4170201 C35.477192,14.1290187 35.8905212,13.9850201 36.3385235,13.9850201 C36.6478584,13.9850201 36.9251889,14.0383529 37.1705235,14.1450201 L36.9145235,15.2970201 C36.7865228,15.2543533 36.6691907,15.2223536 36.5625235,15.2010201 C36.4558563,15.1796867 36.3225243,15.1690201 36.1625235,15.1690201 C35.8318552,15.1690201 35.4878586,15.3023521 35.1305235,15.5690201 C34.7731884,15.8356881 34.4611915,16.2996835 34.1945235,16.9610201 L34.1945235,21.9530201 L32.8825235,21.9530201 Z M41.4265235,22.1450201 C40.9038542,22.1450201 40.4158591,22.0516877 39.9625235,21.8650201 C39.5091879,21.6783525 39.1145252,21.4116885 38.7785235,21.0650201 C38.4425218,20.7183517 38.1785244,20.294356 37.9865235,19.7930201 C37.7945225,19.2916843 37.6985235,18.7210233 37.6985235,18.0810201 C37.6985235,17.4410169 37.7971892,16.8676893 37.9945235,16.3610201 C38.1918578,15.8543509 38.4531885,15.4250219 38.7785235,15.0730201 C39.1038584,14.7210184 39.4745214,14.4516877 39.8905235,14.2650201 C40.3065256,14.0783525 40.7385212,13.9850201 41.1865235,13.9850201 C41.6771926,13.9850201 42.1171882,14.0703526 42.5065235,14.2410201 C42.8958588,14.4116877 43.2211888,14.6570185 43.4825235,14.9770201 C43.7438581,15.2970217 43.9438561,15.6810179 44.0825235,16.1290201 C44.2211908,16.5770224 44.2905235,17.0783507 44.2905235,17.6330201 C44.2905235,17.7716875 44.2878568,17.9076861 44.2825235,18.0410201 C44.2771901,18.1743541 44.2638569,18.2890197 44.2425235,18.3850201 L38.9945235,18.3850201 C39.0478571,19.2170243 39.3065212,19.8756844 39.7705235,20.3610201 C40.2345258,20.8463559 40.8398531,21.0890201 41.5865235,21.0890201 C41.9598587,21.0890201 42.3038552,21.0330207 42.6185235,20.9210201 C42.9331917,20.8090196 43.234522,20.6623544 43.5225235,20.4810201 L43.9865235,21.3450201 C43.6451884,21.5583545 43.2665256,21.7450193 42.8505235,21.9050201 C42.4345214,22.0650209 41.9598595,22.1450201 41.4265235,22.1450201 Z M38.9785235,17.4410201 L43.1385235,17.4410201 C43.1385235,16.6516829 42.9705252,16.0516889 42.6345235,15.6410201 C42.2985218,15.2303514 41.8265265,15.0250201 41.2185235,15.0250201 C40.9411888,15.0250201 40.6771914,15.0783529 40.4265235,15.1850201 C40.1758556,15.2916873 39.9491912,15.4490191 39.7465235,15.6570201 C39.5438558,15.8650212 39.3758575,16.118352 39.2425235,16.4170201 C39.1091895,16.7156883 39.0211904,17.0570182 38.9785235,17.4410201 Z M46.2105235,21.9530201 L46.2105235,14.1770201 L47.2985235,14.1770201 L47.4105235,15.2970201 L47.4585235,15.2970201 C47.7998585,14.9236849 48.1705215,14.6116881 48.5705235,14.3610201 C48.9705255,14.1103522 49.4051878,13.9850201 49.8745235,13.9850201 C50.4718598,13.9850201 50.9385218,14.1156855 51.2745235,14.3770201 C51.6105252,14.6383548 51.8585227,15.0036845 52.0185235,15.4730201 C52.4238588,15.0250179 52.8318548,14.6650215 53.2425235,14.3930201 C53.6531922,14.1210188 54.0985211,13.9850201 54.5785235,13.9850201 C55.3785275,13.9850201 55.9731882,14.2410176 56.3625235,14.7530201 C56.7518588,15.2650227 56.9465235,16.0223485 56.9465235,17.0250201 L56.9465235,21.9530201 L55.6345235,21.9530201 L55.6345235,17.2010201 C55.6345235,16.4650165 55.5171913,15.9343551 55.2825235,15.6090201 C55.0478556,15.2836852 54.6851926,15.1210201 54.1945235,15.1210201 C53.6078539,15.1210201 52.9571937,15.5210161 52.2425235,16.3210201 L52.2425235,21.9530201 L50.9305235,21.9530201 L50.9305235,17.2010201 C50.9305235,16.4650165 50.8131913,15.9343551 50.5785235,15.6090201 C50.3438556,15.2836852 49.9758593,15.1210201 49.4745235,15.1210201 C48.8878539,15.1210201 48.2371937,15.5210161 47.5225235,16.3210201 L47.5225235,21.9530201 L46.2105235,21.9530201 Z M59.4745235,21.9530201 L59.4745235,14.1770201 L60.7865235,14.1770201 L60.7865235,21.9530201 L59.4745235,21.9530201 Z M60.1465235,12.5770201 C59.8905222,12.5770201 59.6745244,12.4970209 59.4985235,12.3370201 C59.3225226,12.1770193 59.2345235,11.9743547 59.2345235,11.7290201 C59.2345235,11.4730189 59.3225226,11.2676876 59.4985235,11.1130201 C59.6745244,10.9583527 59.8905222,10.8810201 60.1465235,10.8810201 C60.4025248,10.8810201 60.6185226,10.9583527 60.7945235,11.1130201 C60.9705244,11.2676876 61.0585235,11.4730189 61.0585235,11.7290201 C61.0585235,11.9743547 60.9705244,12.1770193 60.7945235,12.3370201 C60.6185226,12.4970209 60.4025248,12.5770201 60.1465235,12.5770201 Z M65.4425235,22.1450201 C64.887854,22.1450201 64.3598593,22.0436878 63.8585235,21.8410201 C63.3571876,21.6383525 62.9198587,21.382355 62.5465235,21.0730201 L63.2025235,20.1930201 C63.5438585,20.4703549 63.8931884,20.6943526 64.2505235,20.8650201 C64.6078586,21.0356877 65.0211878,21.1210201 65.4905235,21.1210201 C66.002526,21.1210201 66.3865222,21.003688 66.6425235,20.7690201 C66.8985248,20.5343523 67.0265235,20.2463552 67.0265235,19.9050201 C67.0265235,19.7023525 66.9731907,19.5263542 66.8665235,19.3770201 C66.7598563,19.2276861 66.6238576,19.0970207 66.4585235,18.9850201 C66.2931893,18.8730196 66.1038579,18.7743539 65.8905235,18.6890201 L65.2505235,18.4330201 C64.9731888,18.3370197 64.6958582,18.2276874 64.4185235,18.1050201 C64.1411888,17.9823529 63.8931912,17.833021 63.6745235,17.6570201 C63.4558557,17.4810193 63.2771908,17.275688 63.1385235,17.0410201 C62.9998561,16.8063523 62.9305235,16.5236885 62.9305235,16.1930201 C62.9305235,15.8836853 62.9918562,15.5930215 63.1145235,15.3210201 C63.2371908,15.0490188 63.413189,14.8143545 63.6425235,14.6170201 C63.871858,14.4196858 64.1518552,14.2650207 64.4825235,14.1530201 C64.8131918,14.0410196 65.1865214,13.9850201 65.6025235,13.9850201 C66.0931926,13.9850201 66.5438548,14.0703526 66.9545235,14.2410201 C67.3651922,14.4116877 67.7198553,14.6196856 68.0185235,14.8650201 L67.3945235,15.6970201 C67.1278555,15.4943525 66.8505249,15.3290208 66.5625235,15.2010201 C66.274522,15.0730195 65.9598585,15.0090201 65.6185235,15.0090201 C65.1278544,15.0090201 64.767858,15.121019 64.5385235,15.3450201 C64.309189,15.5690213 64.1945235,15.830352 64.1945235,16.1290201 C64.1945235,16.3103544 64.242523,16.4676861 64.3385235,16.6010201 C64.434524,16.7343541 64.5625227,16.8516863 64.7225235,16.9530201 C64.8825243,17.054354 65.0665224,17.1450197 65.2745235,17.2250201 C65.4825245,17.3050205 65.6985224,17.3876864 65.9225235,17.4730201 C66.1998582,17.5796873 66.4798554,17.6916862 66.7625235,17.8090201 C67.0451916,17.9263541 67.2985224,18.0730193 67.5225235,18.2490201 C67.7465246,18.425021 67.9305228,18.6410189 68.0745235,18.8970201 C68.2185242,19.1530214 68.2905235,19.4623517 68.2905235,19.8250201 C68.2905235,20.1450217 68.2291908,20.4436854 68.1065235,20.7210201 C67.9838562,20.9983549 67.8025247,21.2436857 67.5625235,21.4570201 C67.3225223,21.6703545 67.0238586,21.8383529 66.6665235,21.9610201 C66.3091884,22.0836874 65.9011924,22.1450201 65.4425235,22.1450201 Z M73.2665235,22.1450201 C72.7438542,22.1450201 72.2558591,22.0516877 71.8025235,21.8650201 C71.3491879,21.6783525 70.9545252,21.4116885 70.6185235,21.0650201 C70.2825218,20.7183517 70.0185244,20.294356 69.8265235,19.7930201 C69.6345225,19.2916843 69.5385235,18.7210233 69.5385235,18.0810201 C69.5385235,17.4410169 69.6371892,16.8676893 69.8345235,16.3610201 C70.0318578,15.8543509 70.2931885,15.4250219 70.6185235,15.0730201 C70.9438584,14.7210184 71.3145214,14.4516877 71.7305235,14.2650201 C72.1465256,14.0783525 72.5785212,13.9850201 73.0265235,13.9850201 C73.5171926,13.9850201 73.9571882,14.0703526 74.3465235,14.2410201 C74.7358588,14.4116877 75.0611888,14.6570185 75.3225235,14.9770201 C75.5838581,15.2970217 75.7838561,15.6810179 75.9225235,16.1290201 C76.0611908,16.5770224 76.1305235,17.0783507 76.1305235,17.6330201 C76.1305235,17.7716875 76.1278568,17.9076861 76.1225235,18.0410201 C76.1171901,18.1743541 76.1038569,18.2890197 76.0825235,18.3850201 L70.8345235,18.3850201 C70.8878571,19.2170243 71.1465212,19.8756844 71.6105235,20.3610201 C72.0745258,20.8463559 72.6798531,21.0890201 73.4265235,21.0890201 C73.7998587,21.0890201 74.1438552,21.0330207 74.4585235,20.9210201 C74.7731917,20.8090196 75.074522,20.6623544 75.3625235,20.4810201 L75.8265235,21.3450201 C75.4851884,21.5583545 75.1065256,21.7450193 74.6905235,21.9050201 C74.2745214,22.0650209 73.7998595,22.1450201 73.2665235,22.1450201 Z M70.8185235,17.4410201 L74.9785235,17.4410201 C74.9785235,16.6516829 74.8105252,16.0516889 74.4745235,15.6410201 C74.1385218,15.2303514 73.6665265,15.0250201 73.0585235,15.0250201 C72.7811888,15.0250201 72.5171914,15.0783529 72.2665235,15.1850201 C72.0158556,15.2916873 71.7891912,15.4490191 71.5865235,15.6570201 C71.3838558,15.8650212 71.2158575,16.118352 71.0825235,16.4170201 C70.9491895,16.7156883 70.8611904,17.0570182 70.8185235,17.4410201 Z M80.0825235,22.1450201 C79.527854,22.1450201 78.9998593,22.0436878 78.4985235,21.8410201 C77.9971876,21.6383525 77.5598587,21.382355 77.1865235,21.0730201 L77.8425235,20.1930201 C78.1838585,20.4703549 78.5331884,20.6943526 78.8905235,20.8650201 C79.2478586,21.0356877 79.6611878,21.1210201 80.1305235,21.1210201 C80.642526,21.1210201 81.0265222,21.003688 81.2825235,20.7690201 C81.5385248,20.5343523 81.6665235,20.2463552 81.6665235,19.9050201 C81.6665235,19.7023525 81.6131907,19.5263542 81.5065235,19.3770201 C81.3998563,19.2276861 81.2638576,19.0970207 81.0985235,18.9850201 C80.9331893,18.8730196 80.7438579,18.7743539 80.5305235,18.6890201 L79.8905235,18.4330201 C79.6131888,18.3370197 79.3358582,18.2276874 79.0585235,18.1050201 C78.7811888,17.9823529 78.5331912,17.833021 78.3145235,17.6570201 C78.0958557,17.4810193 77.9171908,17.275688 77.7785235,17.0410201 C77.6398561,16.8063523 77.5705235,16.5236885 77.5705235,16.1930201 C77.5705235,15.8836853 77.6318562,15.5930215 77.7545235,15.3210201 C77.8771908,15.0490188 78.053189,14.8143545 78.2825235,14.6170201 C78.511858,14.4196858 78.7918552,14.2650207 79.1225235,14.1530201 C79.4531918,14.0410196 79.8265214,13.9850201 80.2425235,13.9850201 C80.7331926,13.9850201 81.1838548,14.0703526 81.5945235,14.2410201 C82.0051922,14.4116877 82.3598553,14.6196856 82.6585235,14.8650201 L82.0345235,15.6970201 C81.7678555,15.4943525 81.4905249,15.3290208 81.2025235,15.2010201 C80.914522,15.0730195 80.5998585,15.0090201 80.2585235,15.0090201 C79.7678544,15.0090201 79.407858,15.121019 79.1785235,15.3450201 C78.949189,15.5690213 78.8345235,15.830352 78.8345235,16.1290201 C78.8345235,16.3103544 78.882523,16.4676861 78.9785235,16.6010201 C79.074524,16.7343541 79.2025227,16.8516863 79.3625235,16.9530201 C79.5225243,17.054354 79.7065224,17.1450197 79.9145235,17.2250201 C80.1225245,17.3050205 80.3385224,17.3876864 80.5625235,17.4730201 C80.8398582,17.5796873 81.1198554,17.6916862 81.4025235,17.8090201 C81.6851916,17.9263541 81.9385224,18.0730193 82.1625235,18.2490201 C82.3865246,18.425021 82.5705228,18.6410189 82.7145235,18.8970201 C82.8585242,19.1530214 82.9305235,19.4623517 82.9305235,19.8250201 C82.9305235,20.1450217 82.8691908,20.4436854 82.7465235,20.7210201 C82.6238562,20.9983549 82.4425247,21.2436857 82.2025235,21.4570201 C81.9625223,21.6703545 81.6638586,21.8383529 81.3065235,21.9610201 C80.9491884,22.0836874 80.5411924,22.1450201 80.0825235,22.1450201 Z M9.65852349,40.1450201 C8.67718525,40.1450201 7.89585973,39.7930237 7.31452349,39.0890201 C6.73318725,38.3850166 6.44252349,37.38236 6.44252349,36.0810201 C6.44252349,35.4516837 6.53585589,34.8836893 6.72252349,34.3770201 C6.90919109,33.8703509 7.15718861,33.4410219 7.46652349,33.0890201 C7.77585837,32.7370184 8.13318813,32.4650211 8.53852349,32.2730201 C8.94385885,32.0810192 9.37052125,31.9850201 9.81852349,31.9850201 C10.2665257,31.9850201 10.6558552,32.0650193 10.9865235,32.2250201 C11.3171918,32.3850209 11.6531884,32.6036854 11.9945235,32.8810201 L11.9305235,31.5530201 L11.9305235,28.5610201 L13.2585235,28.5610201 L13.2585235,39.9530201 L12.1705235,39.9530201 L12.0585235,39.0410201 L12.0105235,39.0410201 C11.7011886,39.3396883 11.3465255,39.5983524 10.9465235,39.8170201 C10.5465215,40.0356879 10.1171924,40.1450201 9.65852349,40.1450201 Z M9.94652349,39.0410201 C10.309192,39.0410201 10.6505219,38.953021 10.9705235,38.7770201 C11.2905251,38.6010193 11.6105219,38.3316886 11.9305235,37.9690201 L11.9305235,33.9050201 C11.5998552,33.606352 11.282525,33.3956874 10.9785235,33.2730201 C10.674522,33.1503529 10.3625251,33.0890201 10.0425235,33.0890201 C9.73318861,33.0890201 9.44252485,33.1610194 9.17052349,33.3050201 C8.89852213,33.4490209 8.66119117,33.6516855 8.45852349,33.9130201 C8.25585581,34.1743548 8.09585741,34.4863517 7.97852349,34.8490201 C7.86118957,35.2116886 7.80252349,35.6170179 7.80252349,36.0650201 C7.80252349,37.0036915 7.98918829,37.7343509 8.36252349,38.2570201 C8.73585869,38.7796894 9.26385341,39.0410201 9.94652349,39.0410201 Z M17.6745235,40.1450201 C17.0238536,40.1450201 16.4825256,39.9530221 16.0505235,39.5690201 C15.6185213,39.1850182 15.4025235,38.6410237 15.4025235,37.9370201 C15.4025235,37.0836825 15.7811864,36.4303557 16.5385235,35.9770201 C17.2958606,35.5236845 18.5065152,35.2063544 20.1705235,35.0250201 C20.1705235,34.7796856 20.1465237,34.539688 20.0985235,34.3050201 C20.0505232,34.0703523 19.9678574,33.8623544 19.8505235,33.6810201 C19.7331896,33.4996859 19.5705245,33.3530207 19.3625235,33.2410201 C19.1545224,33.1290196 18.8905251,33.0730201 18.5705235,33.0730201 C18.1225212,33.0730201 17.7011921,33.1583526 17.3065235,33.3290201 C16.9118548,33.4996877 16.5598584,33.6916857 16.2505235,33.9050201 L15.7385235,32.9930201 C16.101192,32.7583523 16.5438542,32.5316879 17.0665235,32.3130201 C17.5891928,32.0943524 18.165187,31.9850201 18.7945235,31.9850201 C19.7438616,31.9850201 20.4318547,32.2756839 20.8585235,32.8570201 C21.2851923,33.4383564 21.4985235,34.2143486 21.4985235,35.1850201 L21.4985235,39.9530201 L20.4105235,39.9530201 L20.2985235,39.0250201 L20.2505235,39.0250201 C19.8771883,39.334355 19.4771923,39.5983524 19.0505235,39.8170201 C18.6238547,40.0356879 18.1651926,40.1450201 17.6745235,40.1450201 Z M18.0585235,39.0890201 C18.4318587,39.0890201 18.7838552,39.001021 19.1145235,38.8250201 C19.4451918,38.6490193 19.7971883,38.3903552 20.1705235,38.0490201 L20.1705235,35.8890201 C19.5198536,35.9743539 18.9731924,36.0756862 18.5305235,36.1930201 C18.0878546,36.3103541 17.7305248,36.4490193 17.4585235,36.6090201 C17.1865221,36.7690209 16.9891908,36.9530191 16.8665235,37.1610201 C16.7438562,37.3690212 16.6825235,37.5956856 16.6825235,37.8410201 C16.6825235,38.2890224 16.8158555,38.6090192 17.0825235,38.8010201 C17.3491915,38.9930211 17.6745216,39.0890201 18.0585235,39.0890201 Z M26.1705235,40.1450201 C25.7545214,40.1450201 25.4051916,40.0810208 25.1225235,39.9530201 C24.8398554,39.8250195 24.6105244,39.6490213 24.4345235,39.4250201 C24.2585226,39.201019 24.1331905,38.9290217 24.0585235,38.6090201 C23.9838564,38.2890185 23.9465235,37.9370221 23.9465235,37.5530201 L23.9465235,33.2490201 L22.7945235,33.2490201 L22.7945235,32.2570201 L24.0105235,32.1770201 L24.1705235,30.0010201 L25.2745235,30.0010201 L25.2745235,32.1770201 L27.3705235,32.1770201 L27.3705235,33.2490201 L25.2745235,33.2490201 L25.2745235,37.5690201 C25.2745235,38.0490225 25.3625226,38.4196855 25.5385235,38.6810201 C25.7145244,38.9423548 26.0265212,39.0730201 26.4745235,39.0730201 C26.6131908,39.0730201 26.7625227,39.051687 26.9225235,39.0090201 C27.0825243,38.9663533 27.2265228,38.9183537 27.3545235,38.8650201 L27.6105235,39.8570201 C27.3971891,39.9316872 27.1651914,39.9983532 26.9145235,40.0570201 C26.6638556,40.1156871 26.415858,40.1450201 26.1705235,40.1450201 Z M30.5865235,40.1450201 C29.9358536,40.1450201 29.3945256,39.9530221 28.9625235,39.5690201 C28.5305213,39.1850182 28.3145235,38.6410237 28.3145235,37.9370201 C28.3145235,37.0836825 28.6931864,36.4303557 29.4505235,35.9770201 C30.2078606,35.5236845 31.4185152,35.2063544 33.0825235,35.0250201 C33.0825235,34.7796856 33.0585237,34.539688 33.0105235,34.3050201 C32.9625232,34.0703523 32.8798574,33.8623544 32.7625235,33.6810201 C32.6451896,33.4996859 32.4825245,33.3530207 32.2745235,33.2410201 C32.0665224,33.1290196 31.8025251,33.0730201 31.4825235,33.0730201 C31.0345212,33.0730201 30.6131921,33.1583526 30.2185235,33.3290201 C29.8238548,33.4996877 29.4718584,33.6916857 29.1625235,33.9050201 L28.6505235,32.9930201 C29.013192,32.7583523 29.4558542,32.5316879 29.9785235,32.3130201 C30.5011928,32.0943524 31.077187,31.9850201 31.7065235,31.9850201 C32.6558616,31.9850201 33.3438547,32.2756839 33.7705235,32.8570201 C34.1971923,33.4383564 34.4105235,34.2143486 34.4105235,35.1850201 L34.4105235,39.9530201 L33.3225235,39.9530201 L33.2105235,39.0250201 L33.1625235,39.0250201 C32.7891883,39.334355 32.3891923,39.5983524 31.9625235,39.8170201 C31.5358547,40.0356879 31.0771926,40.1450201 30.5865235,40.1450201 Z M30.9705235,39.0890201 C31.3438587,39.0890201 31.6958552,39.001021 32.0265235,38.8250201 C32.3571918,38.6490193 32.7091883,38.3903552 33.0825235,38.0490201 L33.0825235,35.8890201 C32.4318536,35.9743539 31.8851924,36.0756862 31.4425235,36.1930201 C30.9998546,36.3103541 30.6425248,36.4490193 30.3705235,36.6090201 C30.0985221,36.7690209 29.9011908,36.9530191 29.7785235,37.1610201 C29.6558562,37.3690212 29.5945235,37.5956856 29.5945235,37.8410201 C29.5945235,38.2890224 29.7278555,38.6090192 29.9945235,38.8010201 C30.2611915,38.9930211 30.5865216,39.0890201 30.9705235,39.0890201 Z M39.9305235,40.1450201 C39.4185209,40.1450201 38.9385257,40.0543544 38.4905235,39.8730201 C38.0425212,39.6916859 37.6558584,39.4276885 37.3305235,39.0810201 C37.0051885,38.7343517 36.7491911,38.3076893 36.5625235,37.8010201 C36.3758559,37.2943509 36.2825235,36.7210233 36.2825235,36.0810201 C36.2825235,35.4303502 36.3838558,34.8516893 36.5865235,34.3450201 C36.7891912,33.8383509 37.0611884,33.4090219 37.4025235,33.0570201 C37.7438585,32.7050184 38.1411879,32.4383544 38.5945235,32.2570201 C39.0478591,32.0756859 39.5251876,31.9850201 40.0265235,31.9850201 C40.538526,31.9850201 40.975855,32.0756859 41.3385235,32.2570201 C41.701192,32.4383544 42.0211888,32.6516856 42.2985235,32.8970201 L41.6265235,33.7610201 C41.4025224,33.5583525 41.1651914,33.3930208 40.9145235,33.2650201 C40.6638556,33.1370195 40.3838584,33.0730201 40.0745235,33.0730201 C39.7225217,33.0730201 39.3971916,33.1450194 39.0985235,33.2890201 C38.7998553,33.4330209 38.5438579,33.6383521 38.3305235,33.9050201 C38.1171891,34.1716881 37.9491908,34.4890183 37.8265235,34.8570201 C37.7038562,35.225022 37.6425235,35.6330179 37.6425235,36.0810201 C37.6425235,36.5290224 37.7011896,36.9343517 37.8185235,37.2970201 C37.9358574,37.6596886 38.0985224,37.9716855 38.3065235,38.2330201 C38.5145245,38.4943548 38.7678553,38.6970194 39.0665235,38.8410201 C39.3651916,38.9850201 39.6905217,39.0570201 40.0425235,39.0570201 C40.405192,39.0570201 40.738522,38.9796876 41.0425235,38.8250201 C41.346525,38.6703527 41.6211889,38.4863545 41.8665235,38.2730201 L42.4425235,39.1530201 C42.0905217,39.462355 41.7011923,39.7050193 41.2745235,39.8810201 C40.8478547,40.057021 40.3998592,40.1450201 39.9305235,40.1450201 Z M46.9705235,40.1450201 C46.4478542,40.1450201 45.9598591,40.0516877 45.5065235,39.8650201 C45.0531879,39.6783525 44.6585252,39.4116885 44.3225235,39.0650201 C43.9865218,38.7183517 43.7225244,38.294356 43.5305235,37.7930201 C43.3385225,37.2916843 43.2425235,36.7210233 43.2425235,36.0810201 C43.2425235,35.4410169 43.3411892,34.8676893 43.5385235,34.3610201 C43.7358578,33.8543509 43.9971885,33.4250219 44.3225235,33.0730201 C44.6478584,32.7210184 45.0185214,32.4516877 45.4345235,32.2650201 C45.8505256,32.0783525 46.2825212,31.9850201 46.7305235,31.9850201 C47.2211926,31.9850201 47.6611882,32.0703526 48.0505235,32.2410201 C48.4398588,32.4116877 48.7651888,32.6570185 49.0265235,32.9770201 C49.2878581,33.2970217 49.4878561,33.6810179 49.6265235,34.1290201 C49.7651908,34.5770224 49.8345235,35.0783507 49.8345235,35.6330201 C49.8345235,35.7716875 49.8318568,35.9076861 49.8265235,36.0410201 C49.8211901,36.1743541 49.8078569,36.2890197 49.7865235,36.3850201 L44.5385235,36.3850201 C44.5918571,37.2170243 44.8505212,37.8756844 45.3145235,38.3610201 C45.7785258,38.8463559 46.3838531,39.0890201 47.1305235,39.0890201 C47.5038587,39.0890201 47.8478552,39.0330207 48.1625235,38.9210201 C48.4771917,38.8090196 48.778522,38.6623544 49.0665235,38.4810201 L49.5305235,39.3450201 C49.1891884,39.5583545 48.8105256,39.7450193 48.3945235,39.9050201 C47.9785214,40.0650209 47.5038595,40.1450201 46.9705235,40.1450201 Z M44.5225235,35.4410201 L48.6825235,35.4410201 C48.6825235,34.6516829 48.5145252,34.0516889 48.1785235,33.6410201 C47.8425218,33.2303514 47.3705265,33.0250201 46.7625235,33.0250201 C46.4851888,33.0250201 46.2211914,33.0783529 45.9705235,33.1850201 C45.7198556,33.2916873 45.4931912,33.4490191 45.2905235,33.6570201 C45.0878558,33.8650212 44.9198575,34.118352 44.7865235,34.4170201 C44.6531895,34.7156883 44.5651904,35.0570182 44.5225235,35.4410201 Z M51.7545235,39.9530201 L51.7545235,32.1770201 L52.8425235,32.1770201 L52.9545235,33.2970201 L53.0025235,33.2970201 C53.3758587,32.9236849 53.7678548,32.6116881 54.1785235,32.3610201 C54.5891922,32.1103522 55.0665208,31.9850201 55.6105235,31.9850201 C56.4318609,31.9850201 57.0318549,32.2410176 57.4105235,32.7530201 C57.789192,33.2650227 57.9785235,34.0223485 57.9785235,35.0250201 L57.9785235,39.9530201 L56.6665235,39.9530201 L56.6665235,35.2010201 C56.6665235,34.4650165 56.5491913,33.9343551 56.3145235,33.6090201 C56.0798556,33.2836852 55.706526,33.1210201 55.1945235,33.1210201 C54.7891881,33.1210201 54.4318584,33.2223525 54.1225235,33.4250201 C53.8131886,33.6276878 53.4611921,33.9263515 53.0665235,34.3210201 L53.0665235,39.9530201 L51.7545235,39.9530201 Z M62.9545235,40.1450201 C62.5385214,40.1450201 62.1891916,40.0810208 61.9065235,39.9530201 C61.6238554,39.8250195 61.3945244,39.6490213 61.2185235,39.4250201 C61.0425226,39.201019 60.9171905,38.9290217 60.8425235,38.6090201 C60.7678564,38.2890185 60.7305235,37.9370221 60.7305235,37.5530201 L60.7305235,33.2490201 L59.5785235,33.2490201 L59.5785235,32.2570201 L60.7945235,32.1770201 L60.9545235,30.0010201 L62.0585235,30.0010201 L62.0585235,32.1770201 L64.1545235,32.1770201 L64.1545235,33.2490201 L62.0585235,33.2490201 L62.0585235,37.5690201 C62.0585235,38.0490225 62.1465226,38.4196855 62.3225235,38.6810201 C62.4985244,38.9423548 62.8105212,39.0730201 63.2585235,39.0730201 C63.3971908,39.0730201 63.5465227,39.051687 63.7065235,39.0090201 C63.8665243,38.9663533 64.0105228,38.9183537 64.1385235,38.8650201 L64.3945235,39.8570201 C64.1811891,39.9316872 63.9491914,39.9983532 63.6985235,40.0570201 C63.4478556,40.1156871 63.199858,40.1450201 62.9545235,40.1450201 Z M68.8425235,40.1450201 C68.3198542,40.1450201 67.8318591,40.0516877 67.3785235,39.8650201 C66.9251879,39.6783525 66.5305252,39.4116885 66.1945235,39.0650201 C65.8585218,38.7183517 65.5945244,38.294356 65.4025235,37.7930201 C65.2105225,37.2916843 65.1145235,36.7210233 65.1145235,36.0810201 C65.1145235,35.4410169 65.2131892,34.8676893 65.4105235,34.3610201 C65.6078578,33.8543509 65.8691885,33.4250219 66.1945235,33.0730201 C66.5198584,32.7210184 66.8905214,32.4516877 67.3065235,32.2650201 C67.7225256,32.0783525 68.1545212,31.9850201 68.6025235,31.9850201 C69.0931926,31.9850201 69.5331882,32.0703526 69.9225235,32.2410201 C70.3118588,32.4116877 70.6371888,32.6570185 70.8985235,32.9770201 C71.1598581,33.2970217 71.3598561,33.6810179 71.4985235,34.1290201 C71.6371908,34.5770224 71.7065235,35.0783507 71.7065235,35.6330201 C71.7065235,35.7716875 71.7038568,35.9076861 71.6985235,36.0410201 C71.6931901,36.1743541 71.6798569,36.2890197 71.6585235,36.3850201 L66.4105235,36.3850201 C66.4638571,37.2170243 66.7225212,37.8756844 67.1865235,38.3610201 C67.6505258,38.8463559 68.2558531,39.0890201 69.0025235,39.0890201 C69.3758587,39.0890201 69.7198552,39.0330207 70.0345235,38.9210201 C70.3491917,38.8090196 70.650522,38.6623544 70.9385235,38.4810201 L71.4025235,39.3450201 C71.0611884,39.5583545 70.6825256,39.7450193 70.2665235,39.9050201 C69.8505214,40.0650209 69.3758595,40.1450201 68.8425235,40.1450201 Z M66.3945235,35.4410201 L70.5545235,35.4410201 C70.5545235,34.6516829 70.3865252,34.0516889 70.0505235,33.6410201 C69.7145218,33.2303514 69.2425265,33.0250201 68.6345235,33.0250201 C68.3571888,33.0250201 68.0931914,33.0783529 67.8425235,33.1850201 C67.5918556,33.2916873 67.3651912,33.4490191 67.1625235,33.6570201 C66.9598558,33.8650212 66.7918575,34.118352 66.6585235,34.4170201 C66.5251895,34.7156883 66.4371904,35.0570182 66.3945235,35.4410201 Z M73.6265235,39.9530201 L73.6265235,32.1770201 L74.7145235,32.1770201 L74.8265235,33.5850201 L74.8745235,33.5850201 C75.1411915,33.094351 75.4638549,32.7050216 75.8425235,32.4170201 C76.221192,32.1290187 76.6345212,31.9850201 77.0825235,31.9850201 C77.3918584,31.9850201 77.6691889,32.0383529 77.9145235,32.1450201 L77.6585235,33.2970201 C77.5305228,33.2543533 77.4131907,33.2223536 77.3065235,33.2010201 C77.1998563,33.1796867 77.0665243,33.1690201 76.9065235,33.1690201 C76.5758552,33.1690201 76.2318586,33.3023521 75.8745235,33.5690201 C75.5171884,33.8356881 75.2051915,34.2996835 74.9385235,34.9610201 L74.9385235,39.9530201 L73.6265235,39.9530201 Z" id="Onpremisesdatacenter" fill="#122844" fill-rule="nonzero"></path>
                                </g>
                            </g>
                            <g id="Group" transform="translate(101.765101, 0.000000)">
                                <g opacity="0.1" id="Path">
                                    <g fill="#13C4E4">
                                        <path d="M48.1610738,22.0671141 C48.1610738,28.5100671 41.557047,33.0201342 36.7785235,33.0201342 L9.98657718,33.0201342 C6.60402685,33.0201342 0.214765101,29.5838926 0.214765101,22.7651007 C0.214765101,19.704698 1.98657718,16.8590604 4.77852349,15.0872483 C1.82550336,8.6442953 9.5033557,4.02684564 13.852349,6.97986577 L13.852349,6.97986577 C19.1677852,0.214765101 25.0738255,-0.483221477 29.7449664,0.805369128 C34.147651,2.04026846 38.2281879,5.15436242 39.5167785,12.1342282 C44.6174497,13.3691275 48.2684564,17.0738255 48.1610738,22.0671141 Z"></path>
                                    </g>
                                    <g stroke="#122844" stroke-linecap="round" stroke-linejoin="round" stroke-width="0.536912752">
                                        <path d="M48.1610738,22.0671141 C48.1610738,28.5100671 41.557047,33.0201342 36.7785235,33.0201342 L9.98657718,33.0201342 C6.60402685,33.0201342 0.214765101,29.5838926 0.214765101,22.7651007 C0.214765101,19.704698 1.98657718,16.8590604 4.77852349,15.0872483 C1.82550336,8.6442953 9.5033557,4.02684564 13.852349,6.97986577 L13.852349,6.97986577 C19.1677852,0.214765101 25.0738255,-0.483221477 29.7449664,0.805369128 C34.147651,2.04026846 38.2281879,5.15436242 39.5167785,12.1342282 C44.6174497,13.3691275 48.2684564,17.0738255 48.1610738,22.0671141 Z"></path>
                                    </g>
                                </g>
                                <g id="Path" stroke-linecap="round" stroke-linejoin="round" stroke-width="0.536912752">
                                    <path d="M48.1610738,22.0671141 C48.1610738,28.5100671 41.557047,33.0201342 36.7785235,33.0201342 L9.98657718,33.0201342 C6.60402685,33.0201342 0.214765101,29.5838926 0.214765101,22.7651007 C0.214765101,19.704698 1.98657718,16.8590604 4.77852349,15.0872483 C1.82550336,8.6442953 9.5033557,4.02684564 13.852349,6.97986577 L13.852349,6.97986577 C19.1677852,0.214765101 25.0738255,-0.483221477 29.7449664,0.805369128 C34.147651,2.04026846 38.2281879,5.15436242 39.5167785,12.1342282 C44.6174497,13.3691275 48.2684564,17.0738255 48.1610738,22.0671141 Z" stroke="#122844"></path>
                                    <path d="M48.1610738,22.0671141 C48.1610738,28.5100671 41.557047,33.0201342 36.7785235,33.0201342 L9.98657718,33.0201342 C6.60402685,33.0201342 0.214765101,29.5838926 0.214765101,22.7651007 C0.214765101,19.704698 1.98657718,16.8590604 4.77852349,15.0872483 C1.82550336,8.6442953 9.5033557,4.02684564 13.852349,6.97986577 L13.852349,6.97986577 C19.1677852,0.214765101 25.0738255,-0.483221477 29.7449664,0.805369128 C34.147651,2.04026846 38.2281879,5.15436242 39.5167785,12.1342282 C44.6174497,13.3691275 48.2684564,17.0738255 48.1610738,22.0671141 Z" stroke="#13C4E4"></path>
                                </g>
                            </g>
                            <path d="M44.1006711,117.583893 C44.1006711,65.0201342 121.308725,72.9127517 121.308725,33.0201342" id="Path" stroke="#E3CD4D" stroke-width="1.0738255" stroke-dasharray="2.147651100158691,3.221476364135742"></path>
                            <path d="M207.751678,117.583893 C207.751678,65.0201342 130.543624,72.9127517 130.543624,33.0201342" id="Path" stroke="#B0CA67" stroke-width="1.0738255"></path>
                        </g>
                    </g>
                </g>
                <g id="Group" transform="translate(49.181208, 165.335570)">
                    <polygon id="Path" fill="#13C4E4" opacity="0.1" points="27.8657718 48.1610738 0.10738255 48.1610738 0.10738255 16.1073826 27.8657718 0.0536912752 55.5704698 16.1073826 55.5704698 48.1610738"></polygon>
                    <polygon id="Path" stroke="#13C4E4" stroke-width="0.536912752" stroke-linecap="round" stroke-linejoin="round" points="27.8657718 48.1610738 0.10738255 48.1610738 0.10738255 16.1073826 27.8657718 0.0536912752 55.5704698 16.1073826 55.5704698 48.1610738"></polygon>
                    <polyline id="Path" stroke="#13C4E4" stroke-width="0.536912752" stroke-linecap="round" stroke-linejoin="round" points="27.8657718 48.1610738 27.5973154 31.9463087 55.3020134 16.2147651"></polyline>
                    <path d="M0.10738255,16.1073826 L27.5973154,31.9463087" id="Path" stroke="#13C4E4" stroke-width="0.536912752" stroke-linecap="round" stroke-linejoin="round"></path>
                    <polygon id="Path" stroke="#13C4E4" stroke-width="0.536912752" stroke-linecap="round" stroke-linejoin="round" points="27.8120805 6.12080537 10.6308725 16.0536913 27.4899329 25.8791946 44.7785235 16.1610738"></polygon>
                </g>
                <rect id="Rectangle" stroke="#13C4E4" stroke-width="0.536912752" stroke-linecap="round" stroke-linejoin="round" x="-4.54747351e-13" y="117.744966" width="154.09396" height="122.147651"></rect>
                <g id="Group" transform="translate(67.436242, 161.040268)">
                    <circle id="Oval" fill="#13C4E4" cx="9.61073826" cy="9.66442953" r="9.55704698"></circle>
                    <rect id="Rectangle" x="0.0536912752" y="5.85234899" width="19.0604027" height="13.3691275"></rect>
                    <text id="A" fill="#FFFFFF" font-family="Helvetica" font-size="10.738255" font-weight="normal">
                        <tspan x="6.29814765" y="13.2489128">A</tspan>
                    </text>
                </g>
                <g id="Group" transform="translate(3.543624, 204.563758)">
                    <g>
                        <g>
                            <g opacity="0.4" fill="#E3CD4D" id="Rectangle">
                                <rect x="0.483221477" y="0.161073826" width="24.3221477" height="24.3221477"></rect>
                            </g>
                            <rect id="Rectangle" fill="#E7DCA1" x="0.483221477" y="0.161073826" width="24.3221477" height="24.3221477"></rect>
                            <path d="M24.2684564,0.697986577 L24.2684564,23.9463087 L1.02013423,23.9463087 L1.02013423,0.697986577 L24.2684564,0.697986577 L24.2684564,0.697986577 Z M24.8053691,0.161073826 L0.483221477,0.161073826 L0.483221477,24.4832215 L24.8053691,24.4832215 L24.8053691,0.161073826 L24.8053691,0.161073826 Z" id="Shape" fill="#E3CD4D" fill-rule="nonzero"></path>
                            <text id="VM" fill="#8A5300" font-family="Helvetica" font-size="9.12751678" font-weight="normal">
                                <tspan x="6.44381208" y="15.8206711">VM</tspan>
                            </text>
                        </g>
                        <g transform="translate(15.570470, 15.570470)" id="Path">
                            <path d="M6.06711409,0.912751678 C5.79865772,0.429530201 5.31543624,0.375838926 4.99328859,0.912751678 L0.375838926,9.0738255 C0.10738255,9.55704698 0.322147651,10.2013423 0.912751678,10.2013423 L9.93288591,10.2013423 C10.5234899,10.2013423 10.738255,9.61073826 10.4697987,9.0738255 L6.06711409,0.912751678 Z" fill="#D9AE00"></path>
                            <path d="M5.53020134,7.51677852 C5.20805369,7.51677852 5.04697987,7.67785235 5.04697987,8.05369128 C5.04697987,8.37583893 5.20805369,8.53691275 5.53020134,8.53691275 C5.85234899,8.53691275 6.01342282,8.37583893 6.01342282,8.05369128 C6.01342282,7.67785235 5.85234899,7.51677852 5.53020134,7.51677852 Z" fill="#FFFFFF"></path>
                            <path d="M6.12080537,4.34899329 C6.12080537,3.70469799 6.06711409,3.38255034 6.01342282,3.32885906 C5.95973154,3.16778523 5.79865772,3.06040268 5.58389262,3.06040268 C5.58389262,3.06040268 5.53020134,3.00671141 5.53020134,3.06040268 C5.53020134,3.06040268 5.47651007,3.06040268 5.47651007,3.06040268 C5.31543624,3.06040268 5.15436242,3.11409396 5.04697987,3.27516779 C4.99328859,3.32885906 4.93959732,3.81208054 4.93959732,4.40268456 C4.93959732,5.47651007 5.10067114,7.03355705 5.10067114,7.03355705 L5.10067114,7.03355705 C5.10067114,7.03355705 5.26174497,7.08724832 5.47651007,7.08724832 C5.47651007,7.08724832 5.53020134,6.97986577 5.53020134,6.97986577 C5.53020134,6.97986577 5.58389262,7.1409396 5.58389262,7.1409396 C5.79865772,7.1409396 5.90604027,7.03355705 5.95973154,7.03355705 L5.95973154,7.03355705 C6.01342282,6.97986577 6.17449664,5.42281879 6.12080537,4.34899329 Z" fill="#FFFFFF"></path>
                        </g>
                    </g>
                    <g transform="translate(30.067114, 0.000000)">
                        <g>
                            <g opacity="0.4" fill="#E3CD4D" id="Rectangle">
                                <rect x="0.483221477" y="0.161073826" width="24.3221477" height="24.3221477"></rect>
                            </g>
                            <rect id="Rectangle" fill="#E7DCA1" x="0.483221477" y="0.161073826" width="24.3221477" height="24.3221477"></rect>
                            <path d="M24.2684564,0.697986577 L24.2684564,23.9463087 L1.02013423,23.9463087 L1.02013423,0.697986577 L24.2684564,0.697986577 L24.2684564,0.697986577 Z M24.8053691,0.161073826 L0.483221477,0.161073826 L0.483221477,24.4832215 L24.8053691,24.4832215 L24.8053691,0.161073826 L24.8053691,0.161073826 Z" id="Shape" fill="#E3CD4D" fill-rule="nonzero"></path>
                            <text id="VM" fill="#8A5300" font-family="Helvetica" font-size="9.12751678" font-weight="normal">
                                <tspan x="6.44381208" y="15.8206711">VM</tspan>
                            </text>
                        </g>
                        <g transform="translate(15.570470, 15.570470)" id="Path">
                            <path d="M6.06711409,0.912751678 C5.79865772,0.429530201 5.31543624,0.375838926 4.99328859,0.912751678 L0.375838926,9.0738255 C0.10738255,9.55704698 0.322147651,10.2013423 0.912751678,10.2013423 L9.93288591,10.2013423 C10.5234899,10.2013423 10.738255,9.61073826 10.4697987,9.0738255 L6.06711409,0.912751678 Z" fill="#D9AE00"></path>
                            <path d="M5.53020134,7.51677852 C5.20805369,7.51677852 5.04697987,7.67785235 5.04697987,8.05369128 C5.04697987,8.37583893 5.20805369,8.53691275 5.53020134,8.53691275 C5.85234899,8.53691275 6.01342282,8.37583893 6.01342282,8.05369128 C6.01342282,7.67785235 5.85234899,7.51677852 5.53020134,7.51677852 Z" fill="#FFFFFF"></path>
                            <path d="M6.12080537,4.34899329 C6.12080537,3.70469799 6.06711409,3.38255034 6.01342282,3.32885906 C5.95973154,3.16778523 5.79865772,3.06040268 5.58389262,3.06040268 C5.58389262,3.06040268 5.53020134,3.00671141 5.53020134,3.06040268 C5.53020134,3.06040268 5.47651007,3.06040268 5.47651007,3.06040268 C5.31543624,3.06040268 5.15436242,3.11409396 5.04697987,3.27516779 C4.99328859,3.32885906 4.93959732,3.81208054 4.93959732,4.40268456 C4.93959732,5.47651007 5.10067114,7.03355705 5.10067114,7.03355705 L5.10067114,7.03355705 C5.10067114,7.03355705 5.26174497,7.08724832 5.47651007,7.08724832 C5.47651007,7.08724832 5.53020134,6.97986577 5.53020134,6.97986577 C5.53020134,6.97986577 5.58389262,7.1409396 5.58389262,7.1409396 C5.79865772,7.1409396 5.90604027,7.03355705 5.95973154,7.03355705 L5.95973154,7.03355705 C6.01342282,6.97986577 6.17449664,5.42281879 6.12080537,4.34899329 Z" fill="#FFFFFF"></path>
                        </g>
                    </g>
                    <g transform="translate(60.134228, 0.000000)">
                        <g>
                            <g opacity="0.4" fill="#E3CD4D" id="Rectangle">
                                <rect x="0.483221477" y="0.161073826" width="24.3221477" height="24.3221477"></rect>
                            </g>
                            <rect id="Rectangle" fill="#E7DCA1" x="0.483221477" y="0.161073826" width="24.3221477" height="24.3221477"></rect>
                            <path d="M24.2684564,0.697986577 L24.2684564,23.9463087 L1.02013423,23.9463087 L1.02013423,0.697986577 L24.2684564,0.697986577 L24.2684564,0.697986577 Z M24.8053691,0.161073826 L0.483221477,0.161073826 L0.483221477,24.4832215 L24.8053691,24.4832215 L24.8053691,0.161073826 L24.8053691,0.161073826 Z" id="Shape" fill="#E3CD4D" fill-rule="nonzero"></path>
                            <text id="VM" fill="#8A5300" font-family="Helvetica" font-size="9.12751678" font-weight="normal">
                                <tspan x="6.44381208" y="15.8206711">VM</tspan>
                            </text>
                        </g>
                        <g transform="translate(15.570470, 15.570470)" id="Path">
                            <path d="M6.06711409,0.912751678 C5.79865772,0.429530201 5.31543624,0.375838926 4.99328859,0.912751678 L0.375838926,9.0738255 C0.10738255,9.55704698 0.322147651,10.2013423 0.912751678,10.2013423 L9.93288591,10.2013423 C10.5234899,10.2013423 10.738255,9.61073826 10.4697987,9.0738255 L6.06711409,0.912751678 Z" fill="#D9AE00"></path>
                            <path d="M5.53020134,7.51677852 C5.20805369,7.51677852 5.04697987,7.67785235 5.04697987,8.05369128 C5.04697987,8.37583893 5.20805369,8.53691275 5.53020134,8.53691275 C5.85234899,8.53691275 6.01342282,8.37583893 6.01342282,8.05369128 C6.01342282,7.67785235 5.85234899,7.51677852 5.53020134,7.51677852 Z" fill="#FFFFFF"></path>
                            <path d="M6.12080537,4.34899329 C6.12080537,3.70469799 6.06711409,3.38255034 6.01342282,3.32885906 C5.95973154,3.16778523 5.79865772,3.06040268 5.58389262,3.06040268 C5.58389262,3.06040268 5.53020134,3.00671141 5.53020134,3.06040268 C5.53020134,3.06040268 5.47651007,3.06040268 5.47651007,3.06040268 C5.31543624,3.06040268 5.15436242,3.11409396 5.04697987,3.27516779 C4.99328859,3.32885906 4.93959732,3.81208054 4.93959732,4.40268456 C4.93959732,5.47651007 5.10067114,7.03355705 5.10067114,7.03355705 L5.10067114,7.03355705 C5.10067114,7.03355705 5.26174497,7.08724832 5.47651007,7.08724832 C5.47651007,7.08724832 5.53020134,6.97986577 5.53020134,6.97986577 C5.53020134,6.97986577 5.58389262,7.1409396 5.58389262,7.1409396 C5.79865772,7.1409396 5.90604027,7.03355705 5.95973154,7.03355705 L5.95973154,7.03355705 C6.01342282,6.97986577 6.17449664,5.42281879 6.12080537,4.34899329 Z" fill="#FFFFFF"></path>
                        </g>
                    </g>
                    <g transform="translate(90.201342, 0.000000)">
                        <g>
                            <g opacity="0.4" fill="#E3CD4D" id="Rectangle">
                                <rect x="0.483221477" y="0.161073826" width="24.3221477" height="24.3221477"></rect>
                            </g>
                            <rect id="Rectangle" fill="#E7DCA1" x="0.483221477" y="0.161073826" width="24.3221477" height="24.3221477"></rect>
                            <path d="M24.2684564,0.697986577 L24.2684564,23.9463087 L1.02013423,23.9463087 L1.02013423,0.697986577 L24.2684564,0.697986577 L24.2684564,0.697986577 Z M24.8053691,0.161073826 L0.483221477,0.161073826 L0.483221477,24.4832215 L24.8053691,24.4832215 L24.8053691,0.161073826 L24.8053691,0.161073826 Z" id="Shape" fill="#E3CD4D" fill-rule="nonzero"></path>
                            <text id="VM" fill="#8A5300" font-family="Helvetica" font-size="9.12751678" font-weight="normal">
                                <tspan x="6.44381208" y="15.8206711">VM</tspan>
                            </text>
                        </g>
                        <g transform="translate(15.570470, 15.570470)" id="Path">
                            <path d="M6.06711409,0.912751678 C5.79865772,0.429530201 5.31543624,0.375838926 4.99328859,0.912751678 L0.375838926,9.0738255 C0.10738255,9.55704698 0.322147651,10.2013423 0.912751678,10.2013423 L9.93288591,10.2013423 C10.5234899,10.2013423 10.738255,9.61073826 10.4697987,9.0738255 L6.06711409,0.912751678 Z" fill="#D9AE00"></path>
                            <path d="M5.53020134,7.51677852 C5.20805369,7.51677852 5.04697987,7.67785235 5.04697987,8.05369128 C5.04697987,8.37583893 5.20805369,8.53691275 5.53020134,8.53691275 C5.85234899,8.53691275 6.01342282,8.37583893 6.01342282,8.05369128 C6.01342282,7.67785235 5.85234899,7.51677852 5.53020134,7.51677852 Z" fill="#FFFFFF"></path>
                            <path d="M6.12080537,4.34899329 C6.12080537,3.70469799 6.06711409,3.38255034 6.01342282,3.32885906 C5.95973154,3.16778523 5.79865772,3.06040268 5.58389262,3.06040268 C5.58389262,3.06040268 5.53020134,3.00671141 5.53020134,3.06040268 C5.53020134,3.06040268 5.47651007,3.06040268 5.47651007,3.06040268 C5.31543624,3.06040268 5.15436242,3.11409396 5.04697987,3.27516779 C4.99328859,3.32885906 4.93959732,3.81208054 4.93959732,4.40268456 C4.93959732,5.47651007 5.10067114,7.03355705 5.10067114,7.03355705 L5.10067114,7.03355705 C5.10067114,7.03355705 5.26174497,7.08724832 5.47651007,7.08724832 C5.47651007,7.08724832 5.53020134,6.97986577 5.53020134,6.97986577 C5.53020134,6.97986577 5.58389262,7.1409396 5.58389262,7.1409396 C5.79865772,7.1409396 5.90604027,7.03355705 5.95973154,7.03355705 L5.95973154,7.03355705 C6.01342282,6.97986577 6.17449664,5.42281879 6.12080537,4.34899329 Z" fill="#FFFFFF"></path>
                        </g>
                    </g>
                    <g transform="translate(120.268456, 0.000000)">
                        <g>
                            <g opacity="0.4" fill="#E3CD4D" id="Rectangle">
                                <rect x="0.483221477" y="0.161073826" width="24.3221477" height="24.3221477"></rect>
                            </g>
                            <rect id="Rectangle" fill="#E7DCA1" x="0.483221477" y="0.161073826" width="24.3221477" height="24.3221477"></rect>
                            <path d="M24.2684564,0.697986577 L24.2684564,23.9463087 L1.02013423,23.9463087 L1.02013423,0.697986577 L24.2684564,0.697986577 L24.2684564,0.697986577 Z M24.8053691,0.161073826 L0.483221477,0.161073826 L0.483221477,24.4832215 L24.8053691,24.4832215 L24.8053691,0.161073826 L24.8053691,0.161073826 Z" id="Shape" fill="#E3CD4D" fill-rule="nonzero"></path>
                            <text id="VM" fill="#8A5300" font-family="Helvetica" font-size="9.12751678" font-weight="normal">
                                <tspan x="6.44381208" y="15.8206711">VM</tspan>
                            </text>
                        </g>
                        <g transform="translate(15.570470, 15.570470)" id="Path">
                            <path d="M6.06711409,0.912751678 C5.79865772,0.429530201 5.31543624,0.375838926 4.99328859,0.912751678 L0.375838926,9.0738255 C0.10738255,9.55704698 0.322147651,10.2013423 0.912751678,10.2013423 L9.93288591,10.2013423 C10.5234899,10.2013423 10.738255,9.61073826 10.4697987,9.0738255 L6.06711409,0.912751678 Z" fill="#D9AE00"></path>
                            <path d="M5.53020134,7.51677852 C5.20805369,7.51677852 5.04697987,7.67785235 5.04697987,8.05369128 C5.04697987,8.37583893 5.20805369,8.53691275 5.53020134,8.53691275 C5.85234899,8.53691275 6.01342282,8.37583893 6.01342282,8.05369128 C6.01342282,7.67785235 5.85234899,7.51677852 5.53020134,7.51677852 Z" fill="#FFFFFF"></path>
                            <path d="M6.12080537,4.34899329 C6.12080537,3.70469799 6.06711409,3.38255034 6.01342282,3.32885906 C5.95973154,3.16778523 5.79865772,3.06040268 5.58389262,3.06040268 C5.58389262,3.06040268 5.53020134,3.00671141 5.53020134,3.06040268 C5.53020134,3.06040268 5.47651007,3.06040268 5.47651007,3.06040268 C5.31543624,3.06040268 5.15436242,3.11409396 5.04697987,3.27516779 C4.99328859,3.32885906 4.93959732,3.81208054 4.93959732,4.40268456 C4.93959732,5.47651007 5.10067114,7.03355705 5.10067114,7.03355705 L5.10067114,7.03355705 C5.10067114,7.03355705 5.26174497,7.08724832 5.47651007,7.08724832 C5.47651007,7.08724832 5.53020134,6.97986577 5.53020134,6.97986577 C5.53020134,6.97986577 5.58389262,7.1409396 5.58389262,7.1409396 C5.79865772,7.1409396 5.90604027,7.03355705 5.95973154,7.03355705 L5.95973154,7.03355705 C6.01342282,6.97986577 6.17449664,5.42281879 6.12080537,4.34899329 Z" fill="#FFFFFF"></path>
                        </g>
                    </g>
                </g>
                <path d="M196.312,148.192 C195.650663,148.192 195.045336,148.064001 194.496,147.808 C193.946664,147.551999 193.474669,147.186669 193.08,146.712 C192.685331,146.237331 192.378668,145.661337 192.16,144.984 C191.941332,144.306663 191.832,143.546671 191.832,142.704 C191.832,141.861329 191.941332,141.10667 192.16,140.44 C192.378668,139.77333 192.685331,139.208002 193.08,138.744 C193.474669,138.279998 193.946664,137.925335 194.496,137.68 C195.045336,137.434665 195.650663,137.312 196.312,137.312 C196.973337,137.312 197.578664,137.437332 198.128,137.688 C198.677336,137.938668 199.151998,138.295998 199.552,138.76 C199.952002,139.224002 200.261332,139.78933 200.48,140.456 C200.698668,141.12267 200.808,141.871996 200.808,142.704 C200.808,143.546671 200.698668,144.306663 200.48,144.984 C200.261332,145.661337 199.952002,146.237331 199.552,146.712 C199.151998,147.186669 198.677336,147.551999 198.128,147.808 C197.578664,148.064001 196.973337,148.192 196.312,148.192 Z M196.312,147.024 C196.781336,147.024 197.205331,146.922668 197.584,146.72 C197.962669,146.517332 198.287999,146.226669 198.56,145.848 C198.832001,145.469331 199.042666,145.016003 199.192,144.488 C199.341334,143.959997 199.416,143.365337 199.416,142.704 C199.416,142.05333 199.341334,141.466669 199.192,140.944 C199.042666,140.421331 198.832001,139.978668 198.56,139.616 C198.287999,139.253332 197.962669,138.973334 197.584,138.776 C197.205331,138.578666 196.781336,138.48 196.312,138.48 C195.842664,138.48 195.418669,138.578666 195.04,138.776 C194.661331,138.973334 194.336001,139.253332 194.064,139.616 C193.791999,139.978668 193.581334,140.421331 193.432,140.944 C193.282666,141.466669 193.208,142.05333 193.208,142.704 C193.208,143.365337 193.282666,143.959997 193.432,144.488 C193.581334,145.016003 193.791999,145.469331 194.064,145.848 C194.336001,146.226669 194.661331,146.517332 195.04,146.72 C195.418669,146.922668 195.842664,147.024 196.312,147.024 Z M204.824,148 L201.464,137.504 L202.888,137.504 L204.568,143.168 C204.760001,143.797336 204.927999,144.378664 205.072,144.912 C205.216001,145.445336 205.389332,146.02133 205.592,146.64 L205.656,146.64 C205.848001,146.02133 206.018666,145.445336 206.168,144.912 C206.317334,144.378664 206.482666,143.797336 206.664,143.168 L208.344,137.504 L209.704,137.504 L206.376,148 L204.824,148 Z M211.144,148 L211.144,137.504 L212.472,137.504 L212.472,141.904 L217.352,141.904 L217.352,137.504 L218.696,137.504 L218.696,148 L217.352,148 L217.352,143.056 L212.472,143.056 L212.472,148 L211.144,148 Z M224.776,148 L224.776,137.504 L227.4,137.504 C229.021341,137.504 230.253329,137.951996 231.096,138.848 C231.938671,139.744004 232.36,141.029325 232.36,142.704 C232.36,143.536004 232.253334,144.279997 232.04,144.936 C231.826666,145.592003 231.512002,146.146664 231.096,146.6 C230.679998,147.053336 230.168003,147.399999 229.56,147.64 C228.951997,147.880001 228.253337,148 227.464,148 L224.776,148 Z M226.104,146.912 L227.304,146.912 C228.530673,146.912 229.450664,146.544004 230.064,145.808 C230.677336,145.071996 230.984,144.03734 230.984,142.704 C230.984,141.37066 230.677336,140.352004 230.064,139.648 C229.450664,138.943996 228.530673,138.592 227.304,138.592 L226.104,138.592 L226.104,146.912 Z M236.28,148.192 C235.62933,148.192 235.088002,148.000002 234.656,147.616 C234.223998,147.231998 234.008,146.688004 234.008,145.984 C234.008,145.130662 234.386663,144.477336 235.144,144.024 C235.901337,143.570664 237.111992,143.253334 238.776,143.072 C238.776,142.826665 238.752,142.586668 238.704,142.352 C238.656,142.117332 238.573334,141.909334 238.456,141.728 C238.338666,141.546666 238.176001,141.400001 237.968,141.288 C237.759999,141.175999 237.496002,141.12 237.176,141.12 C236.727998,141.12 236.306669,141.205332 235.912,141.376 C235.517331,141.546668 235.165335,141.738666 234.856,141.952 L234.344,141.04 C234.706668,140.805332 235.149331,140.578668 235.672,140.36 C236.194669,140.141332 236.770664,140.032 237.4,140.032 C238.349338,140.032 239.037331,140.322664 239.464,140.904 C239.890669,141.485336 240.104,142.261328 240.104,143.232 L240.104,148 L239.016,148 L238.904,147.072 L238.856,147.072 C238.482665,147.381335 238.082669,147.645332 237.656,147.864 C237.229331,148.082668 236.770669,148.192 236.28,148.192 Z M236.664,147.136 C237.037335,147.136 237.389332,147.048001 237.72,146.872 C238.050668,146.695999 238.402665,146.437335 238.776,146.096 L238.776,143.936 C238.12533,144.021334 237.578669,144.122666 237.136,144.24 C236.693331,144.357334 236.336001,144.495999 236.064,144.656 C235.791999,144.816001 235.594667,144.999999 235.472,145.208 C235.349333,145.416001 235.288,145.642665 235.288,145.888 C235.288,146.336002 235.421332,146.655999 235.688,146.848 C235.954668,147.040001 236.279998,147.136 236.664,147.136 Z M244.776,148.192 C244.359998,148.192 244.010668,148.128001 243.728,148 C243.445332,147.871999 243.216001,147.696001 243.04,147.472 C242.863999,147.247999 242.738667,146.976002 242.664,146.656 C242.589333,146.335998 242.552,145.984002 242.552,145.6 L242.552,141.296 L241.4,141.296 L241.4,140.304 L242.616,140.224 L242.776,138.048 L243.88,138.048 L243.88,140.224 L245.976,140.224 L245.976,141.296 L243.88,141.296 L243.88,145.616 C243.88,146.096002 243.967999,146.466665 244.144,146.728 C244.320001,146.989335 244.631998,147.12 245.08,147.12 C245.218667,147.12 245.367999,147.098667 245.528,147.056 C245.688001,147.013333 245.831999,146.965334 245.96,146.912 L246.216,147.904 C246.002666,147.978667 245.770668,148.045333 245.52,148.104 C245.269332,148.162667 245.021335,148.192 244.776,148.192 Z M249.192,148.192 C248.54133,148.192 248.000002,148.000002 247.568,147.616 C247.135998,147.231998 246.92,146.688004 246.92,145.984 C246.92,145.130662 247.298663,144.477336 248.056,144.024 C248.813337,143.570664 250.023992,143.253334 251.688,143.072 C251.688,142.826665 251.664,142.586668 251.616,142.352 C251.568,142.117332 251.485334,141.909334 251.368,141.728 C251.250666,141.546666 251.088001,141.400001 250.88,141.288 C250.671999,141.175999 250.408002,141.12 250.088,141.12 C249.639998,141.12 249.218669,141.205332 248.824,141.376 C248.429331,141.546668 248.077335,141.738666 247.768,141.952 L247.256,141.04 C247.618668,140.805332 248.061331,140.578668 248.584,140.36 C249.106669,140.141332 249.682664,140.032 250.312,140.032 C251.261338,140.032 251.949331,140.322664 252.376,140.904 C252.802669,141.485336 253.016,142.261328 253.016,143.232 L253.016,148 L251.928,148 L251.816,147.072 L251.768,147.072 C251.394665,147.381335 250.994669,147.645332 250.568,147.864 C250.141331,148.082668 249.682669,148.192 249.192,148.192 Z M249.576,147.136 C249.949335,147.136 250.301332,147.048001 250.632,146.872 C250.962668,146.695999 251.314665,146.437335 251.688,146.096 L251.688,143.936 C251.03733,144.021334 250.490669,144.122666 250.048,144.24 C249.605331,144.357334 249.248001,144.495999 248.976,144.656 C248.703999,144.816001 248.506667,144.999999 248.384,145.208 C248.261333,145.416001 248.2,145.642665 248.2,145.888 C248.2,146.336002 248.333332,146.655999 248.6,146.848 C248.866668,147.040001 249.191998,147.136 249.576,147.136 Z M258.536,148.192 C258.023997,148.192 257.544002,148.101334 257.096,147.92 C256.647998,147.738666 256.261335,147.474668 255.936,147.128 C255.610665,146.781332 255.354668,146.354669 255.168,145.848 C254.981332,145.341331 254.888,144.768003 254.888,144.128 C254.888,143.47733 254.989332,142.898669 255.192,142.392 C255.394668,141.885331 255.666665,141.456002 256.008,141.104 C256.349335,140.751998 256.746664,140.485334 257.2,140.304 C257.653336,140.122666 258.130664,140.032 258.632,140.032 C259.144003,140.032 259.581332,140.122666 259.944,140.304 C260.306668,140.485334 260.626665,140.698665 260.904,140.944 L260.232,141.808 C260.007999,141.605332 259.770668,141.440001 259.52,141.312 C259.269332,141.183999 258.989335,141.12 258.68,141.12 C258.327998,141.12 258.002668,141.191999 257.704,141.336 C257.405332,141.480001 257.149334,141.685332 256.936,141.952 C256.722666,142.218668 256.554667,142.535998 256.432,142.904 C256.309333,143.272002 256.248,143.679998 256.248,144.128 C256.248,144.576002 256.306666,144.981332 256.424,145.344 C256.541334,145.706668 256.703999,146.018665 256.912,146.28 C257.120001,146.541335 257.373332,146.743999 257.672,146.888 C257.970668,147.032 258.295998,147.104 258.648,147.104 C259.010668,147.104 259.343998,147.026667 259.648,146.872 C259.952002,146.717333 260.226665,146.533334 260.472,146.32 L261.048,147.2 C260.695998,147.509335 260.306669,147.751999 259.88,147.928 C259.453331,148.104001 259.005336,148.192 258.536,148.192 Z M265.576,148.192 C265.053331,148.192 264.565336,148.098668 264.112,147.912 C263.658664,147.725332 263.264002,147.458668 262.928,147.112 C262.591998,146.765332 262.328001,146.341336 262.136,145.84 C261.943999,145.338664 261.848,144.768003 261.848,144.128 C261.848,143.487997 261.946666,142.914669 262.144,142.408 C262.341334,141.901331 262.602665,141.472002 262.928,141.12 C263.253335,140.767998 263.623998,140.498668 264.04,140.312 C264.456002,140.125332 264.887998,140.032 265.336,140.032 C265.826669,140.032 266.266665,140.117332 266.656,140.288 C267.045335,140.458668 267.370665,140.703998 267.632,141.024 C267.893335,141.344002 268.093333,141.727998 268.232,142.176 C268.370667,142.624002 268.44,143.125331 268.44,143.68 C268.44,143.818667 268.437333,143.954666 268.432,144.088 C268.426667,144.221334 268.413333,144.336 268.392,144.432 L263.144,144.432 C263.197334,145.264004 263.455998,145.922664 263.92,146.408 C264.384002,146.893336 264.98933,147.136 265.736,147.136 C266.109335,147.136 266.453332,147.080001 266.768,146.968 C267.082668,146.855999 267.383999,146.709334 267.672,146.528 L268.136,147.392 C267.794665,147.605334 267.416002,147.791999 267,147.952 C266.583998,148.112001 266.109336,148.192 265.576,148.192 Z M263.128,143.488 L267.288,143.488 C267.288,142.698663 267.120002,142.098669 266.784,141.688 C266.447998,141.277331 265.976003,141.072 265.368,141.072 C265.090665,141.072 264.826668,141.125333 264.576,141.232 C264.325332,141.338667 264.098668,141.495999 263.896,141.704 C263.693332,141.912001 263.525334,142.165332 263.392,142.464 C263.258666,142.762668 263.170667,143.103998 263.128,143.488 Z M270.36,148 L270.36,140.224 L271.448,140.224 L271.56,141.344 L271.608,141.344 C271.981335,140.970665 272.373331,140.658668 272.784,140.408 C273.194669,140.157332 273.671997,140.032 274.216,140.032 C275.037337,140.032 275.637331,140.287997 276.016,140.8 C276.394669,141.312003 276.584,142.069328 276.584,143.072 L276.584,148 L275.272,148 L275.272,143.248 C275.272,142.511996 275.154668,141.981335 274.92,141.656 C274.685332,141.330665 274.312003,141.168 273.8,141.168 C273.394665,141.168 273.037335,141.269332 272.728,141.472 C272.418665,141.674668 272.066669,141.973331 271.672,142.368 L271.672,148 L270.36,148 Z M281.56,148.192 C281.143998,148.192 280.794668,148.128001 280.512,148 C280.229332,147.871999 280.000001,147.696001 279.824,147.472 C279.647999,147.247999 279.522667,146.976002 279.448,146.656 C279.373333,146.335998 279.336,145.984002 279.336,145.6 L279.336,141.296 L278.184,141.296 L278.184,140.304 L279.4,140.224 L279.56,138.048 L280.664,138.048 L280.664,140.224 L282.76,140.224 L282.76,141.296 L280.664,141.296 L280.664,145.616 C280.664,146.096002 280.751999,146.466665 280.928,146.728 C281.104001,146.989335 281.415998,147.12 281.864,147.12 C282.002667,147.12 282.151999,147.098667 282.312,147.056 C282.472001,147.013333 282.615999,146.965334 282.744,146.912 L283,147.904 C282.786666,147.978667 282.554668,148.045333 282.304,148.104 C282.053332,148.162667 281.805335,148.192 281.56,148.192 Z M287.448,148.192 C286.925331,148.192 286.437336,148.098668 285.984,147.912 C285.530664,147.725332 285.136002,147.458668 284.8,147.112 C284.463998,146.765332 284.200001,146.341336 284.008,145.84 C283.815999,145.338664 283.72,144.768003 283.72,144.128 C283.72,143.487997 283.818666,142.914669 284.016,142.408 C284.213334,141.901331 284.474665,141.472002 284.8,141.12 C285.125335,140.767998 285.495998,140.498668 285.912,140.312 C286.328002,140.125332 286.759998,140.032 287.208,140.032 C287.698669,140.032 288.138665,140.117332 288.528,140.288 C288.917335,140.458668 289.242665,140.703998 289.504,141.024 C289.765335,141.344002 289.965333,141.727998 290.104,142.176 C290.242667,142.624002 290.312,143.125331 290.312,143.68 C290.312,143.818667 290.309333,143.954666 290.304,144.088 C290.298667,144.221334 290.285333,144.336 290.264,144.432 L285.016,144.432 C285.069334,145.264004 285.327998,145.922664 285.792,146.408 C286.256002,146.893336 286.86133,147.136 287.608,147.136 C287.981335,147.136 288.325332,147.080001 288.64,146.968 C288.954668,146.855999 289.255999,146.709334 289.544,146.528 L290.008,147.392 C289.666665,147.605334 289.288002,147.791999 288.872,147.952 C288.455998,148.112001 287.981336,148.192 287.448,148.192 Z M285,143.488 L289.16,143.488 C289.16,142.698663 288.992002,142.098669 288.656,141.688 C288.319998,141.277331 287.848003,141.072 287.24,141.072 C286.962665,141.072 286.698668,141.125333 286.448,141.232 C286.197332,141.338667 285.970668,141.495999 285.768,141.704 C285.565332,141.912001 285.397334,142.165332 285.264,142.464 C285.130666,142.762668 285.042667,143.103998 285,143.488 Z M292.232,148 L292.232,140.224 L293.32,140.224 L293.432,141.632 L293.48,141.632 C293.746668,141.141331 294.069331,140.752001 294.448,140.464 C294.826669,140.175999 295.239998,140.032 295.688,140.032 C295.997335,140.032 296.274665,140.085333 296.52,140.192 L296.264,141.344 C296.135999,141.301333 296.018667,141.269333 295.912,141.248 C295.805333,141.226667 295.672001,141.216 295.512,141.216 C295.181332,141.216 294.837335,141.349332 294.48,141.616 C294.122665,141.882668 293.810668,142.346663 293.544,143.008 L293.544,148 L292.232,148 Z" id="OVHDatacenter" fill="#122844" fill-rule="nonzero"></path>
            </g>
        </g>
    </g>
</svg>