<svg width="24" height="24" viewBox="0 0 24 24" fill="none" xmlns="http://www.w3.org/2000/svg">
<path fill-rule="evenodd" clip-rule="evenodd" d="M11.836 6C10.727 6 9.82802 5.10457 9.82802 4C9.82802 2.89543 10.727 2 11.836 2C12.942 2 13.8392 2.89062 13.844 3.99109L17.816 6.25173C18.1049 6.09137 18.4377 6 18.792 6C19.901 6 20.8 6.89543 20.8 8C20.8 9.10457 19.901 10 18.792 10C17.683 10 16.784 9.10457 16.784 8C16.784 7.98932 16.7841 7.97866 16.7842 7.96801L12.8481 5.72777C12.5509 5.90082 12.2051 6 11.836 6ZM5.812 9.68887C6.45172 9.35442 6.81601 8.76954 6.81601 8C6.81601 6.89543 5.90898 6 4.79999 6C3.691 6 2.79999 6.89543 2.79999 8C2.79999 8.71024 3.24377 9.33402 3.80399 9.68887V14.2676C3.2038 14.6134 2.79999 15.2597 2.79999 16C2.79999 17.1046 3.699 18 4.808 18C5.91699 18 6.81601 17.1046 6.81601 16C6.81601 15.2597 6.4122 14.6134 5.812 14.2676V9.68887ZM8.82401 12C8.82401 10.3431 10.1725 9 11.836 9C13.4995 9 14.848 10.3431 14.848 12C14.848 13.6569 13.4995 15 11.836 15C10.1725 15 8.82401 13.6569 8.82401 12ZM11.836 7C9.06355 7 6.81601 9.23858 6.81601 12C6.81601 14.7614 9.06355 17 11.836 17C14.6085 17 16.856 14.7614 16.856 12C16.856 9.23858 14.6085 7 11.836 7ZM18.792 18C19.901 18 20.8 17.1046 20.8 16C20.8 14.8954 19.901 14 18.792 14C17.683 14 16.784 14.8954 16.784 16L16.7842 16.032L12.8481 18.2722C12.5509 18.0992 12.2051 18 11.836 18C10.727 18 9.82802 18.8954 9.82802 20C9.82802 21.1046 10.727 22 11.836 22C12.942 22 13.8392 21.1094 13.844 20.0089L17.816 17.7483C18.1049 17.9086 18.4377 18 18.792 18Z" fill="#0050D7"/>
</svg>
