<?xml version="1.0" encoding="UTF-8"?>
<svg width="37px" height="22px" viewBox="0 0 37 22" version="1.1" xmlns="http://www.w3.org/2000/svg" xmlns:xlink="http://www.w3.org/1999/xlink">
    <!-- Generator: Sketch 44.1 (41455) - http://www.bohemiancoding.com/sketch -->
    <title>Add new Payement</title>
    <desc>Created with Sketch.</desc>
    <defs>
        <path d="M224,38 L0,38 L0,200.992154 C0,204.867421 3.13241616,208 6.99644731,208 L768.003553,208 C771.857125,208 775,204.86248 775,200.992154 L775,45.0078464 C775,41.1325786 771.867584,38 768.003553,38 L444,38 L444,4.00718972 C444,1.79426827 442.206312,0 439.993687,0 L228.006313,0 C225.787011,0 224,1.79407995 224,4.00718972 L224,38 Z" id="path-1"></path>
        <rect id="path-2" x="0" y="0" width="175" height="75" rx="7"></rect>
        <rect id="path-3" x="0" y="0" width="37" height="22" rx="2"></rect>
    </defs>
    <g id="Page-1" stroke="none" stroke-width="1" fill="none" fill-rule="evenodd">
        <g id="Changes" transform="translate(-150.000000, -758.000000)">
            <g id="Payment-Methods" transform="translate(50.000000, 50.000000)">
                <g id="Add-new-Payement" transform="translate(0.000000, 571.000000)">
                    <g id="Combined-Shape">
                        <use fill="#FFFFFF" fill-rule="evenodd" xlink:href="#path-1"></use>
                        <path stroke="#E3E4DF" stroke-width="2" d="M1,39 L1,200.992154 C1,204.313685 3.68325188,207 6.99644731,207 L768.003553,207 C771.308319,207 774,204.306715 774,200.992154 L774,45.0078464 C774,41.6863147 771.316748,39 768.003553,39 L443,39 L443,4.00718972 C443,2.34643176 441.653906,1 439.993687,1 L228.006313,1 C226.341909,1 225,2.34374906 225,4.00718972 L225,39 L1,39 Z"></path>
                    </g>
                    <g id="Bloc" transform="translate(20.000000, 98.000000)">
                        <g id="Credit-Card">
                            <g id="BG">
                                <use fill="#FFFFFF" fill-rule="evenodd" xlink:href="#path-2"></use>
                                <rect stroke="#E3E4DF" stroke-width="2" x="1" y="1" width="173" height="73" rx="7"></rect>
                            </g>
                            <g id="MasterCard" transform="translate(80.000000, 39.000000)">
                                <g id="Rectangle">
                                    <use fill="#FFFFFF" fill-rule="evenodd" xlink:href="#path-3"></use>
                                    <rect stroke="#CCCCCC" stroke-width="1" x="0.5" y="0.5" width="36" height="21" rx="2"></rect>
                                </g>
                                <g id="Glyph" transform="translate(7.000000, 4.000000)" fill-rule="nonzero">
                                    <rect id="rect19" fill="#FF5F00" x="8.25095171" y="1.49487815" width="6.11540972" height="10.9883231"></rect>
                                    <path d="M8.63922975,6.98903796 C8.63922975,4.75642806 9.68758571,2.77620015 11.2989476,1.49487621 C10.1146937,0.563004252 8.61981575,-1.72218988e-06 6.98903983,-1.72218988e-06 C3.12565401,-1.72218988e-06 1.52625234e-07,3.12565213 1.52625234e-07,6.98903796 C1.52625234e-07,10.8524238 3.12565401,13.9780776 6.98903983,13.9780776 C8.61981575,13.9780776 10.1146937,13.4150717 11.2989476,12.4831997 C9.68758571,11.2212898 8.63922975,9.22164785 8.63922975,6.98903796 Z" id="XMLID_330_" fill="#EB001B"></path>
                                    <path d="M22.6173091,6.98903796 C22.6173091,10.8524238 19.4916553,13.9780776 15.6282694,13.9780776 C13.9974935,13.9780776 12.5026156,13.4150717 11.3183616,12.4831997 C12.9491376,11.2018758 13.9780795,9.22164785 13.9780795,6.98903796 C13.9780795,4.75642806 12.9297236,2.77620015 11.3183616,1.49487621 C12.5026156,0.563004252 13.9974935,-1.72218988e-06 15.6282694,-1.72218988e-06 C19.4916553,-1.72218988e-06 22.6173091,3.14506613 22.6173091,6.98903796 Z" id="path22" fill="#F79E1B"></path>
                                </g>
                            </g>
                        </g>
                    </g>
                </g>
            </g>
        </g>
    </g>
</svg>