<svg width="50" height="50" viewBox="0 0 50 50" fill="none" xmlns="http://www.w3.org/2000/svg">
<g clip-path="url(#clip0_808_1254)">
<path d="M45.5 0H4.5C2.01472 0 0 2.01472 0 4.5V45.5C0 47.9853 2.01472 50 4.5 50H45.5C47.9853 50 50 47.9853 50 45.5V4.5C50 2.01472 47.9853 0 45.5 0Z" fill="#000E9C"/>
<path d="M17.5 31.73H16.27C13.21 31.72 10.54 29.66 9.75 26.71C8.99 23.88 10.13 20.9 12.55 19.3C12.08 17.46 12.74 15.5 14.26 14.32C15.74 13.17 17.74 12.99 19.39 13.83C21.31 10.55 25.17 8.87002 28.91 9.76002C32.82 10.68 35.59 14.15 35.63 18.17V18.45C38.77 19.37 40.83 22.43 40.45 25.73C40.06 29.15 37.16 31.74 33.72 31.74H32.33" stroke="white" stroke-linejoin="round"/>
<path d="M30.78 20.63H19.23C18.374 20.63 17.68 21.324 17.68 22.18V38.93C17.68 39.786 18.374 40.48 19.23 40.48H30.78C31.636 40.48 32.33 39.786 32.33 38.93V22.18C32.33 21.324 31.636 20.63 30.78 20.63Z" stroke="#36E5FF" stroke-linejoin="round"/>
<path d="M27.32 33.12C28.92 32.28 30.01 30.61 30.01 28.68C30.01 25.92 27.77 23.67 25 23.67C22.23 23.67 19.99 25.91 19.99 28.68C19.99 31.45 22.23 33.69 25 33.69C25.07 33.69 25.15 33.69 25.22 33.69" stroke="#36E5FF" stroke-linejoin="round"/>
<path d="M25 30.1C25.7842 30.1 26.42 29.4643 26.42 28.68C26.42 27.8958 25.7842 27.26 25 27.26C24.2157 27.26 23.58 27.8958 23.58 28.68C23.58 29.4643 24.2157 30.1 25 30.1Z" stroke="#36E5FF" stroke-linejoin="round"/>
<path fill-rule="evenodd" clip-rule="evenodd" d="M24.77 32.09C25.47 31.47 29.1 34.61 29.88 35.31C30.06 35.47 30.2 35.66 30.27 35.89C30.38 36.22 30.38 36.71 29.88 37.21C29.32 37.77 28.76 37.68 28.4 37.54C28.2 37.46 28.02 37.32 27.88 37.15C27.18 36.31 24.18 32.61 24.76 32.1L24.77 32.09Z" stroke="#36E5FF" stroke-linejoin="round"/>
</g>
<defs>
<clipPath id="clip0_808_1254">
<rect width="50" height="50" fill="white"/>
</clipPath>
</defs>
</svg>
