<svg width="50" height="50" viewBox="0 0 50 50" fill="none" xmlns="http://www.w3.org/2000/svg">
<g clip-path="url(#clip0_808_2205)">
<path d="M45.5 0H4.5C2.01472 0 0 2.01472 0 4.5V45.5C0 47.9853 2.01472 50 4.5 50H45.5C47.9853 50 50 47.9853 50 45.5V4.5C50 2.01472 47.9853 0 45.5 0Z" fill="#000E9C"/>
<path d="M11.79 14.59C11.79 17.46 17.55 19.79 24.66 19.79C31.77 19.79 37.53 17.46 37.53 14.59" stroke="white" stroke-linejoin="round"/>
<path d="M37.53 14.59C37.53 11.72 31.77 9.39 24.66 9.39C17.55 9.39 11.79 11.72 11.79 14.59" stroke="white" stroke-linejoin="round"/>
<path d="M11.79 28.31C11.79 31.18 17.55 33.51 24.66 33.51C31.77 33.51 37.53 31.18 37.53 28.31" stroke="white" stroke-linejoin="round"/>
<path d="M11.79 21.45C11.79 24.32 17.55 26.65 24.66 26.65C31.77 26.65 37.53 24.32 37.53 21.45" stroke="white" stroke-linejoin="round"/>
<path d="M37.53 33.97V14.59" stroke="white" stroke-linejoin="round"/>
<path d="M11.79 14.59V35.17C11.79 38.04 17.55 40.37 24.66 40.37C25.31 40.37 25.95 40.35 26.58 40.31" stroke="white" stroke-linejoin="round"/>
<path d="M28.75 35.47H29.74L30.65 37.95L30.98 38.91H31.01L31.33 37.95L32.22 35.47H33.21V40.51H32.37V38.21C32.37 38.09 32.37 37.96 32.38 37.83C32.39 37.7 32.4 37.55 32.41 37.41C32.41 37.27 32.43 37.13 32.45 36.99C32.47 36.85 32.48 36.73 32.49 36.61H32.46L32.05 37.76L31.18 40.05H30.76L29.89 37.76L29.49 36.61H29.46C29.46 36.73 29.48 36.86 29.49 36.99C29.5 37.13 29.52 37.26 29.53 37.41C29.54 37.55 29.55 37.69 29.56 37.83C29.57 37.97 29.57 38.1 29.57 38.21V40.51H28.75V35.47Z" fill="#36E5FF"/>
<path d="M34.22 38C34.22 37.59 34.28 37.22 34.41 36.9C34.53 36.57 34.7 36.3 34.92 36.07C35.14 35.84 35.39 35.67 35.68 35.55C35.97 35.43 36.29 35.37 36.63 35.37C36.8 35.37 36.97 35.39 37.12 35.42C37.27 35.46 37.41 35.5 37.53 35.56C37.65 35.62 37.77 35.69 37.87 35.76C37.97 35.83 38.06 35.92 38.14 36L37.65 36.55C37.52 36.43 37.38 36.33 37.23 36.25C37.08 36.17 36.88 36.13 36.65 36.13C36.42 36.13 36.22 36.17 36.04 36.26C35.86 36.34 35.7 36.47 35.57 36.62C35.44 36.78 35.34 36.97 35.27 37.19C35.2 37.42 35.16 37.67 35.16 37.95C35.16 38.53 35.29 38.98 35.55 39.3C35.81 39.63 36.19 39.79 36.7 39.79C36.84 39.79 36.98 39.77 37.11 39.73C37.24 39.69 37.34 39.64 37.43 39.56V38.47H36.47V37.74H38.23V39.96C38.06 40.13 37.83 40.27 37.54 40.39C37.25 40.51 36.94 40.56 36.59 40.56C36.24 40.56 35.95 40.5 35.66 40.39C35.37 40.28 35.12 40.11 34.91 39.89C34.7 39.67 34.54 39.4 34.42 39.07C34.3 38.74 34.24 38.38 34.24 37.96L34.22 38Z" fill="#36E5FF"/>
</g>
<defs>
<clipPath id="clip0_808_2205">
<rect width="50" height="50" fill="white"/>
</clipPath>
</defs>
</svg>
