<svg width="50" height="50" viewBox="0 0 50 50" fill="none" xmlns="http://www.w3.org/2000/svg">
<g clip-path="url(#clip0_808_2432)">
<path d="M45.5 0H4.5C2.01472 0 0 2.01472 0 4.5V45.5C0 47.9853 2.01472 50 4.5 50H45.5C47.9853 50 50 47.9853 50 45.5V4.5C50 2.01472 47.9853 0 45.5 0Z" fill="#000E9C"/>
<path d="M30.09 17.31L19.89 32.69" stroke="#36E5FF" stroke-linejoin="round"/>
<path d="M30.09 25H19.89" stroke="#36E5FF" stroke-linejoin="round"/>
<path d="M30.09 32.69L19.89 17.31" stroke="#36E5FF" stroke-linejoin="round"/>
<path d="M17.29 27.59C18.7204 27.59 19.88 26.4304 19.88 25C19.88 23.5696 18.7204 22.41 17.29 22.41C15.8596 22.41 14.7 23.5696 14.7 25C14.7 26.4304 15.8596 27.59 17.29 27.59Z" stroke="white" stroke-linejoin="round"/>
<path d="M17.29 35.28C18.7204 35.28 19.88 34.1204 19.88 32.69C19.88 31.2596 18.7204 30.1 17.29 30.1C15.8596 30.1 14.7 31.2596 14.7 32.69C14.7 34.1204 15.8596 35.28 17.29 35.28Z" stroke="white" stroke-linejoin="round"/>
<path d="M17.29 19.9C18.7204 19.9 19.88 18.7404 19.88 17.31C19.88 15.8796 18.7204 14.72 17.29 14.72C15.8596 14.72 14.7 15.8796 14.7 17.31C14.7 18.7404 15.8596 19.9 17.29 19.9Z" stroke="white" stroke-linejoin="round"/>
<path d="M32.68 27.59C34.1104 27.59 35.27 26.4304 35.27 25C35.27 23.5696 34.1104 22.41 32.68 22.41C31.2496 22.41 30.09 23.5696 30.09 25C30.09 26.4304 31.2496 27.59 32.68 27.59Z" stroke="white" stroke-linejoin="round"/>
<path d="M32.68 19.9C34.1104 19.9 35.27 18.7404 35.27 17.31C35.27 15.8796 34.1104 14.72 32.68 14.72C31.2496 14.72 30.09 15.8796 30.09 17.31C30.09 18.7404 31.2496 19.9 32.68 19.9Z" stroke="white" stroke-linejoin="round"/>
<path d="M32.68 35.28C34.1104 35.28 35.27 34.1204 35.27 32.69C35.27 31.2596 34.1104 30.1 32.68 30.1C31.2496 30.1 30.09 31.2596 30.09 32.69C30.09 34.1204 31.2496 35.28 32.68 35.28Z" stroke="white" stroke-linejoin="round"/>
<path d="M37.71 9.47H12.3C10.737 9.47 9.46997 10.737 9.46997 12.3V37.71C9.46997 39.273 10.737 40.54 12.3 40.54H37.71C39.2729 40.54 40.54 39.273 40.54 37.71V12.3C40.54 10.737 39.2729 9.47 37.71 9.47Z" stroke="white" stroke-linejoin="round"/>
</g>
<defs>
<clipPath id="clip0_808_2432">
<rect width="50" height="50" fill="white"/>
</clipPath>
</defs>
</svg>
