<svg xmlns="http://www.w3.org/2000/svg" xmlns:xlink="http://www.w3.org/1999/xlink" viewBox="0 0 4887.08 3208.03"><defs><style>.cls-1,.cls-2,.cls-3,.cls-49,.cls-8{fill:none;}.cls-2,.cls-39,.cls-45,.cls-54{stroke:#6199f2;}.cls-19,.cls-2,.cls-26,.cls-3,.cls-31,.cls-35,.cls-39,.cls-45,.cls-47,.cls-49,.cls-54,.cls-8{stroke-miterlimit:10;}.cls-19,.cls-2,.cls-26,.cls-3,.cls-35,.cls-39,.cls-45,.cls-47{stroke-width:4px;}.cls-3,.cls-47{stroke:#a2c0fc;}.cls-4,.cls-42,.cls-46,.cls-48{fill:#b1cefc;}.cls-4{opacity:0.31;}.cls-5{isolation:isolate;}.cls-6{fill:#bfbabb;}.cls-7{fill:#b81225;}.cls-8{stroke:#a4f990;stroke-width:40px;}.cls-9{fill:#c7dbfb;}.cls-10{fill:#845d2a;}.cls-11,.cls-35{fill:#ffe7b6;}.cls-12{fill:#021225;}.cls-13{fill:#9cbdfa;}.cls-14{fill:#11293e;}.cls-15{fill:#1a3a51;}.cls-16{fill:#5d4620;}.cls-17,.cls-44,.cls-47{fill:#6199f2;}.cls-18{fill:#041228;}.cls-19,.cls-49{stroke:#12233f;}.cls-19{fill:url(#Dégradé_sans_nom_33);}.cls-20,.cls-23,.cls-24,.cls-25{opacity:0.4;}.cls-20,.cls-23,.cls-24,.cls-25,.cls-29,.cls-38,.cls-42,.cls-43,.cls-48,.cls-55{mix-blend-mode:multiply;}.cls-21{fill:url(#Dégradé_sans_nom_33-2);}.cls-22{fill:url(#Dégradé_sans_nom_33-3);}.cls-23{fill:url(#Dégradé_sans_nom_33-4);}.cls-24{fill:url(#Dégradé_sans_nom_33-5);}.cls-25{fill:url(#Dégradé_sans_nom_33-6);}.cls-26{fill:#f7ebd2;}.cls-26,.cls-31{stroke:#a8844a;}.cls-27,.cls-31,.cls-38,.cls-55{fill:#f9ddaa;}.cls-28{fill:url(#Dégradé_sans_nom_13);}.cls-29{opacity:0.32;fill:url(#Dégradé_sans_nom_33-7);}.cls-30{fill:#d3963d;opacity:0.44;}.cls-31{stroke-width:5px;}.cls-32{fill:#ad761d;}.cls-33{fill:url(#Dégradé_sans_nom_13-2);}.cls-34{fill:url(#Dégradé_sans_nom_13-3);}.cls-35{stroke:#b58537;}.cls-36{fill:#ba7506;}.cls-37{opacity:0.29;}.cls-38{opacity:0.56;}.cls-39{fill:#cadeff;}.cls-40,.cls-44{opacity:0.63;}.cls-40,.cls-41{fill:url(#Nouveau_motif);}.cls-41{opacity:0.53;}.cls-42{opacity:0.71;}.cls-45,.cls-52,.cls-54{fill:#a2c0fc;}.cls-48{opacity:0.9;}.cls-49{stroke-width:8px;}.cls-50{fill:#a4f990;}.cls-51{fill:#ba94ff;}.cls-53{fill:#fccff2;}.cls-54{stroke-width:10px;}</style><linearGradient id="Dégradé_sans_nom_33" x1="1393.54" y1="1394.61" x2="3834.53" y2="1394.61" gradientTransform="translate(-84.14 354.88) rotate(-3.43)" gradientUnits="userSpaceOnUse"><stop offset="0" stop-color="#1b364a"/><stop offset="1" stop-color="#16547e"/></linearGradient><linearGradient id="Dégradé_sans_nom_33-2" x1="2979.93" y1="1300.09" x2="2979.94" y2="1300.09" gradientTransform="matrix(1, 0, 0, 1, 0, 0)" xlink:href="#Dégradé_sans_nom_33"/><linearGradient id="Dégradé_sans_nom_33-3" x1="3065.2" y1="1240.17" x2="3780.33" y2="1240.17" gradientTransform="matrix(1, 0, 0, 1, 0, 0)" xlink:href="#Dégradé_sans_nom_33"/><linearGradient id="Dégradé_sans_nom_33-4" x1="2366.95" y1="1912.34" x2="2627.7" y2="1912.34" gradientTransform="matrix(1, 0, 0, 1, 0, 0)" xlink:href="#Dégradé_sans_nom_33"/><linearGradient id="Dégradé_sans_nom_33-5" x1="1690.93" y1="2076.89" x2="1987.34" y2="2076.89" gradientTransform="matrix(1, 0, 0, 1, 0, 0)" xlink:href="#Dégradé_sans_nom_33"/><linearGradient id="Dégradé_sans_nom_33-6" x1="2280.61" y1="1452.87" x2="2808.58" y2="1452.87" gradientTransform="matrix(1, 0, 0, 1, 0, 0)" xlink:href="#Dégradé_sans_nom_33"/><linearGradient id="Dégradé_sans_nom_13" x1="1720.85" y1="595.26" x2="2174.47" y2="595.26" gradientUnits="userSpaceOnUse"><stop offset="0" stop-color="#7b5829"/><stop offset="1" stop-color="#af7931"/></linearGradient><linearGradient id="Dégradé_sans_nom_33-7" x1="1836.55" y1="744.82" x2="2125.97" y2="744.82" gradientTransform="matrix(1, 0, 0, 1, 0, 0)" xlink:href="#Dégradé_sans_nom_33"/><linearGradient id="Dégradé_sans_nom_13-2" x1="2000.44" y1="665.12" x2="2382.73" y2="665.12" xlink:href="#Dégradé_sans_nom_13"/><linearGradient id="Dégradé_sans_nom_13-3" x1="2140.56" y1="647.09" x2="2382.72" y2="647.09" xlink:href="#Dégradé_sans_nom_13"/><pattern id="Nouveau_motif" data-name="Nouveau motif" width="121.27" height="125.81" patternTransform="translate(-431.06)" patternUnits="userSpaceOnUse" viewBox="0 0 121.27 125.81"><rect class="cls-1" width="121.27" height="125.81"/><line class="cls-2" x1="25.51" x2="25.51" y2="125.81"/><line class="cls-2" x1="44.91" x2="44.91" y2="125.81"/><line class="cls-2" x1="121.27" y1="26.19" y2="26.19"/><line class="cls-2" x1="121.27" y1="45.59" y2="45.59"/><line class="cls-3" y1="62.9" x2="121.27" y2="62.9"/><line class="cls-3" y1="80.22" x2="121.27" y2="80.22"/><rect class="cls-4" x="44.91" y="45.59" width="33.73" height="33.73"/></pattern></defs><title>human-speedAndGraphic</title><g class="cls-5"><g id="Calque_2" data-name="Calque 2"><g id="Calque_2-2" data-name="Calque 2"><rect class="cls-6" x="2483.46" y="-2.9" width="30.75" height="212.08" rx="15.38" ry="15.38" transform="translate(54.17 630.78) rotate(-14.54)"/><rect class="cls-7" x="2519.85" y="188.52" width="57.28" height="212.08" rx="19.74" ry="19.74" transform="matrix(0.97, -0.25, 0.25, 0.97, 7.69, 649.38)"/><polyline class="cls-8" points="10.22 1830.24 867.5 1320.28 2090.55 1970.03 3311.36 1034.31 4092.08 1404.98 4850.4 808.15"/><polygon class="cls-9" points="1396.17 1172.78 1969.75 1162.78 1969.75 1182.78 1396.17 1172.78"/><polygon class="cls-9" points="1492.85 1096.6 2066.42 1086.6 2066.42 1106.6 1492.85 1096.6"/><polygon class="cls-9" points="1888.5 1592.42 2462.08 1582.42 2462.08 1602.42 1888.5 1592.42"/><polygon class="cls-10" points="1254.21 439.27 1827.79 429.27 1827.79 449.27 1254.21 439.27"/><polygon class="cls-11" points="1923.79 262.59 2497.37 252.59 2497.37 272.59 1923.79 262.59"/><polygon class="cls-6" points="1923.79 83.97 2497.37 73.97 2497.37 93.97 1923.79 83.97"/><polygon class="cls-12" points="527.79 1611.83 1101.37 1601.83 1101.37 1621.83 527.79 1611.83"/><polygon class="cls-12" points="3317.07 1412.67 3890.64 1402.67 3890.64 1422.67 3317.07 1412.67"/><polygon class="cls-12" points="3213.41 1360.22 3786.98 1350.22 3786.98 1370.22 3213.41 1360.22"/><polygon class="cls-13" points="1315.76 1379.18 1889.33 1369.18 1889.33 1389.18 1315.76 1379.18"/><polygon class="cls-13" points="1792.7 1527.08 2366.27 1517.08 2366.27 1537.08 1792.7 1527.08"/><polygon class="cls-14" points="1315.76 2076.89 1889.33 2066.89 1889.33 2086.89 1315.76 2076.89"/><polygon class="cls-15" points="1066.37 1858.59 1639.94 1848.59 1639.94 1868.59 1066.37 1858.59"/><polygon class="cls-15" points="1885.46 1678.59 2459.04 1668.59 2459.04 1688.59 1885.46 1678.59"/><polygon class="cls-10" points="1282.41 630.68 1855.98 620.68 1855.98 640.68 1282.41 630.68"/><polygon class="cls-16" points="1434.06 804.24 2007.64 794.24 2007.64 814.24 1434.06 804.24"/><polygon class="cls-17" points="1639.94 886.65 2213.52 876.65 2213.52 896.65 1639.94 886.65"/><path class="cls-18" d="M1515.86,1671.83c-21.55-23.49-48.56-51.82-50.65-85.34-37.25,5.14-75.28,5.57-110.24-10-6.46,15.36-11.65,30.49-19.87,45.55-43.35-16.52-294.56-62.71-322.59-40.26s-9.82,24.36-20,50.4c109.52-25.38,241.55,8.77,336,65.87,32.46,11.57,64.57,24.52,98.33,32.08C1455.61,1709.23,1484.94,1689.33,1515.86,1671.83Z"/><path class="cls-19" d="M2737.25,1687.64c39.62-125.82,99.45-229.52,265-412.45,61.82-68.31,147.24-137.92,308.23-84.39,19.23,6.4,38.86,11.37,58.59,6.76,67-15.63,230.11-29.45,363.69,153.28,34.46,3.36,70.21,13.44,84.22,1.49-97.29-158-432.91-345.9-589.36-339.29-149.35,6.31-350.11,21.35-556.61,228.76-77.76,78.09-148.1,176.52-239.22,222.55s-171.57,161.75-146.58,256.13-207.88,236.88-273.53,255.66-82.17,33.63-134.67,64c-97.58-140.88-209.52-272.73-340.92-384-45.77,30.86-98.59,51.07-141.13,85.82,87.19,22,204,127.12,252.69,192.27s141.24,202.83,200.51,220.33,78.61,4.9,133,14.76c-3.51-9.69,5-12.93,6.75-20.36,208.37-14.57,377.59-152.08,555.49-246.3,39.37-13.77,59-47,84.84-80.64C2680.28,1785.51,2718.43,1747.4,2737.25,1687.64Z"/><g class="cls-20"><polygon class="cls-21" points="2979.93 1300.09 2979.93 1300.09 2979.94 1300.08 2979.93 1300.09"/><path class="cls-22" d="M3594.05,1199.59c-270-137.78-430.83-62.32-528.85,17.47,56.51-40.74,132.28-63.83,245.29-26.26,19.22,6.4,38.85,11.37,58.58,6.76,67-15.63,230.11-29.45,363.69,153.28,16.39,1.6,33.07,4.71,47.57,6.26C3743.56,1313.25,3693.76,1250.48,3594.05,1199.59Z"/></g><path class="cls-18" d="M3728,1344c-8,28.61-17.94,58-26.66,87,43.33.51,91.55,6.06,123.76,38.12-.35-10.31-.81-20.6-1-30.91,93.9,21.17,165.87-34.16,258-15.85-1-5.62-2.32-11.19-3.51-16.78-.6-2.79-1.17-5.56-1.84-8-25.33-13.54-54.63-13-83-12.9a87.9,87.9,0,0,0-20.5,6.34c-34.44,15.48-91.18,17.9-114.51-23.78S3766.69,1346.39,3728,1344Z"/><path class="cls-23" d="M2373.82,1995.09c64.71-16.4,111.91-62.25,169.4-92,38.76-15.86,63.83-48.64,84.48-84.16-32.31,11.18-128.39,29-153.22,1.94C2453,1871.19,2406.25,1944,2380.82,1984S2372.42,1997.06,2373.82,1995.09Z"/><path class="cls-18" d="M1995.42,2148.49l-7.5.54C1990.43,2148.89,1992.93,2148.72,1995.42,2148.49Z"/><path class="cls-24" d="M1798.81,2066.66c-34-34.82-70.17-55.19-107.88-81,25.71,44.52,113.38,162,159.12,170.36,51.27,9.4,81.23,9.43,129.62,12.1-.71-7.82,6.43-12.22,7.67-19.64C1892.51,2158.25,1860.77,2130.05,1798.81,2066.66Z"/><path class="cls-25" d="M2431.79,1464.35c-87.79,44.36-165.66,153.39-148.89,245.7,75.65,7.43,257.83-16,332.75-76.84-12.83-104,201.42-322.45,192.67-426.33-22.06,23.33-42.72,6.68-65-12.53-27.3,16.83-52,33.2-72.32,47.45C2580.79,1305.09,2522.91,1418.32,2431.79,1464.35Z"/><path class="cls-26" d="M2120.1,793.41c14,25.94,21.39,49,28.31,77.22,67.91-.91,135.52,7.73,203.35,9.47-2.73-49-4.32-97.86-3-146.87-19.77-26.45-36.47-55.07-53.52-83.33C2229,692.48,2174.4,736.27,2120.1,793.41Z"/><path class="cls-27" d="M2315.91,683.54c-21.48,35.79-44.09,70.55-63.83,107.39q47.82,46.91,99.68,89.17c-2.73-49-4.32-97.86-3-146.87C2336.83,717.23,2326.3,700.57,2315.91,683.54Z"/><path class="cls-28" d="M2134.14,464.38c-37.32-37.86-141.06-96.22-192.3-109.36s-84.31-7.24-130.87-3c-31.63,28.48-61.62,55-90.12,87.24,8.62,5.95,21.27,3.84,27.88,14.44,38.53,41.37,107.72,130,92.26,184.86s12,52.1,27.14,80.93,45.47,111.06,81.1,122.7,95.14-54.39,158.93-10S2206.14,586.34,2134.14,464.38Z"/><path class="cls-29" d="M1866.8,721.42c15,20.16,52.69,114.6,80.33,120.22s121.92-40.81,148-16.09c11.45,10.86,27.56-125.76,30.84-131.82-11.78-10.08-22.39-17.35-34.32-25.17-88.39,148.73-166,99-254.82-21C1834.12,669.62,1851.74,701.26,1866.8,721.42Z"/><path class="cls-30" d="M1962.44,457.13c-20.88-37.72-69.45-63.57-108.07-73.45,42.74-11.11,133.61,13.21,143,57.36C2006.48,483.84,1977.09,457.92,1962.44,457.13Z"/><path class="cls-30" d="M1962.74,391.4c23.71,11.06,59.31,31.86,61.83,59.62s12.57-22.07,13.8-25.11C2016.25,408,1990.81,395,1962.74,391.4Z"/><path class="cls-30" d="M1781.53,445c22.83,20,74.88,39.88,81.88,71.31s36.7,97.83,58.2,109.38.72-66.13-4-89.1-54.41-68.82-74.07-73.15S1774.14,438.58,1781.53,445Z"/><path class="cls-26" d="M2003.32,689.1c-25.81-21.69-52.92-42.56-81.11-61-8-23.66-16.3-46.44-28.68-68.24C1911,519,1927.82,478,1942.92,436.19c32.39-4.31,62-10.24,96.41-9.55,55.72,16.48,153,56.12,183.48,99.43s27.29,62.11,47.47,102.45c-36.65,33.91-67.66,69.34-100.86,106.35C2117.42,708.74,2060.37,698.33,2003.32,689.1Z"/><path class="cls-27" d="M2229.9,626.8c-16.25-19.84-54.48-59.79-82.81-75.1-22.71-1.11-42.7,1.47-64.29,2.74C2036.49,522.29,1987,496.1,1932.36,481c5.6-13.71,11.82-26.95,16.79-40.95,30.36-4,58.15-9,90.46-8.2,54.33,15.89,149.32,55.23,179,97.3s25,58.62,45.83,97.91c-9,5.65-15.44,13-22,20.89C2231.84,633.66,2246.15,646.64,2229.9,626.8Z"/><path class="cls-31" d="M2021.9,699.3c-9.77,31.33-30.57,51.52-65.52,34s-22.62-55.35.51-79.35C1978.63,668.49,2000.5,683.27,2021.9,699.3Z"/><path class="cls-32" d="M1957.75,705.79a42.93,42.93,0,0,0,11-3.6,29,29,0,0,0,8.85-6.8,36,36,0,0,0,5.74-9.42,70.79,70.79,0,0,0,3.48-10.67l6.65,2.2a76.4,76.4,0,0,1-5.49,10.92,40.44,40.44,0,0,1-7.93,9.47,31.44,31.44,0,0,1-10.63,5.91A43.07,43.07,0,0,1,1957.75,705.79Z"/><path class="cls-33" d="M2350,619.51c-51.1-54.28-111.76-134.68-209.45-151.45,27.3,12.43,64.91,31.69,84.8,61.48s30.38,65.58,44.34,98.3c-35.3,35.53-67.53,69.49-100.24,107.08-51.2-26-107.5-36.33-163.67-45.38-8,13.88-8,24.26,6.44,32.74,48.84,28.76,71.74,88.26,86.63,139.9,57.07-20.83,117.5-29.42,178.63-36.17,21.78-40.82,65.27-72,84.84-112.06S2401.11,673.79,2350,619.51Z"/><path class="cls-32" d="M1999.76,616.24a43.54,43.54,0,0,1,7.17-15.44,48.07,48.07,0,0,1,12.54-12,54.59,54.59,0,0,1,15.73-7,55.89,55.89,0,0,1,16.85-1.94c-5.23,2.21-10.35,4.15-15.27,6.39a102.41,102.41,0,0,0-14,7.56,77.24,77.24,0,0,0-12.24,10A137,137,0,0,0,1999.76,616.24Z"/><path class="cls-32" d="M2090.55,551.42a27.7,27.7,0,0,1-4.62-7.73,19.55,19.55,0,0,1-1.24-9.42,19.15,19.15,0,0,1,3.78-9.13,28.23,28.23,0,0,1,7.07-6.46,54.82,54.82,0,0,1,16.73-6.93,89.22,89.22,0,0,1,17.51-2.46c-5.31,2.67-10.77,4.72-16,6.94a93.79,93.79,0,0,0-14.9,7.46c-4.5,2.92-8.18,6.62-9.54,11.46a20,20,0,0,0-.53,7.84A56.88,56.88,0,0,0,2090.55,551.42Z"/><path class="cls-32" d="M2172.47,656.05c4.58-3.09,7.52-7.53,9.92-12.2s4.31-9.68,6.39-14.69a94.05,94.05,0,0,1,7.38-15,35.9,35.9,0,0,1,5.6-6.81,22.73,22.73,0,0,1,7.84-4.83l-1.64,1.71a9.62,9.62,0,0,1,3.45-4.72,10.53,10.53,0,0,1,5.24-1.8,20.93,20.93,0,0,1,4.78.14c1.51.18,3,.45,4.38.72s2.8.56,4.18.77a21.7,21.7,0,0,0,4.06.35,8.08,8.08,0,0,0,3.78-.91,7.05,7.05,0,0,0,2.73-3.06,6.81,6.81,0,0,1-2,4,8.74,8.74,0,0,1-4.21,2.12,34.59,34.59,0,0,1-9,.44,36.72,36.72,0,0,0-8.07.19,6.14,6.14,0,0,0-2.75,1.19,4.71,4.71,0,0,0-1.36,2.31l-.37,1.17-1.27.54c-4.25,1.81-7.61,5.46-10.37,9.74a142.38,142.38,0,0,0-7.51,13.94,101.36,101.36,0,0,1-8.25,14.35,35.82,35.82,0,0,1-5.69,6.24A20.24,20.24,0,0,1,2172.47,656.05Z"/><path class="cls-27" d="M2149.92,578.22c19.9,13.82,29.65,9.53,46.49,26.9-11.72,6.78-15,34.35-26.51,41.5Q2160.27,612.33,2149.92,578.22Z"/><path class="cls-34" d="M2362.35,714c19.46-40.16,38.8-40.15-12.33-94.45s-111.74-134.67-209.46-151.45c27.33,12.42,64.9,31.7,84.82,61.48s30.29,65.65,44.41,98.24c-12.61,12.65-24.73,24.2-37,36.58,17.15,20.34,34,40.92,50,62-2.19,33.39-6,65.64-5,99.74C2298.93,785.05,2342.89,754.11,2362.35,714Z"/><path class="cls-27" d="M1892.5,364.1l-37,3c-6.15.52-12.3,1.1-18.45,1.67s-12.28,1.25-18.4,2l.53-.17q-12.9,7.65-25.32,16.06t-24.51,17.31q-12.06,8.93-23.89,18.18c-7.89,6.16-15.7,12.43-23.51,18.71l-2.09-3.36c15.48-7.1,31-14.23,46.59-21q11.71-5.1,23.52-10t23.76-9.49l.22-.09h.21a81.06,81.06,0,0,1,21.66,1.68,109.14,109.14,0,0,1,20.59,6.54,155.44,155.44,0,0,1,19.11,9.87A187.64,187.64,0,0,1,1893.27,427c-5.9-4-12-7.82-18.19-11.28a154.67,154.67,0,0,0-19.3-9.05,113,113,0,0,0-20.38-5.81,82.19,82.19,0,0,0-21-1.14l.44-.1c-7.88,3.21-15.7,6.54-23.51,9.91s-15.59,6.79-23.35,10.28q-23.27,10.49-46.42,21.26L1706.7,448l12.79-10.28q11.71-9.44,23.62-18.68T1767.23,401c8.16-5.86,16.41-11.61,24.86-17.07s17-10.71,25.79-15.65l.26-.15.27,0q18.49-1.72,37-2.54l18.53-.79C1880.14,364.48,1886.32,364.31,1892.5,364.1Z"/><path class="cls-27" d="M1915.4,714l-8.49-5.83c-2.72-2.09-5.47-4.15-8.18-6.27l-4-3.32-2-1.67-1-.83-.94-.89-3.76-3.55-1.88-1.78-1.77-1.89c-9.47-10-17.51-21.68-22.58-34.67s-7.52-26.86-8.28-40.68c-.08-1.73-.21-3.46-.26-5.19l0-5.19,0-5.19c.06-1.73.18-3.45.26-5.18.36-7,.91-13.59.33-20.3a83.6,83.6,0,0,0-3.82-19.68,94.1,94.1,0,0,0-8.26-18.35c-6.75-11.68-15.78-22-25.59-31.39a311.49,311.49,0,0,0-31.69-25.92c-5.51-4.05-11.12-8-16.76-11.9l-8.48-5.82-8.45-5.87,8.78,5.36,8.74,5.45c5.81,3.65,11.59,7.35,17.3,11.18a282.8,282.8,0,0,1,32.69,25.24c10.22,9.28,19.54,19.77,26.73,31.76A90.74,90.74,0,0,1,1857,571.3c.57,7,0,14.1-.42,20.8-.09,1.7-.21,3.4-.28,5.1l0,5.09,0,5.1.21,5.08a130.36,130.36,0,0,0,7.41,39.74,19.79,19.79,0,0,0,.93,2.35l1,2.33,1,2.33a21.8,21.8,0,0,0,1.07,2.3l2.38,4.48c.4.74.78,1.5,1.19,2.24l1.37,2.14,2.72,4.3c.94,1.41,2,2.73,3,4.1l1.52,2a20.39,20.39,0,0,0,1.59,2l3.33,3.87,1.66,1.94,1.78,1.84,3.56,3.67.9.92.94.87,1.88,1.73,3.78,3.47c2.59,2.23,5.25,4.39,7.87,6.6Z"/><path class="cls-35" d="M2877.51,456.35c-49.7-84-144.3-147.13-240.65-159-15.33-17.67-31.46-35-47.59-51.76-7.71-17.39-8.41-26.8-33-23.4s-28.52,10.52-64.16,7-44.65,43.49-12,69c9.79,18.27,15.65,36.59,25.49,56.34s29.56,23.51,50.36,18.61c20.23,6.69,39.28,2.69,58.44-5.21,69.9,28.05,144.85,77,190.92,136.6C2831.73,492.67,2856,475.71,2877.51,456.35Z"/><path class="cls-36" d="M2805.3,504.5a477.41,477.41,0,0,0-42.21-41.37,570.71,570.71,0,0,0-46.55-36.05c-16.11-11.24-32.77-21.68-49.81-31.53s-34.55-18.92-52.35-27.65a371.07,371.07,0,0,1,54.95,22.84,423.33,423.33,0,0,1,51.21,30.6,378.71,378.71,0,0,1,46.22,37.77A273.87,273.87,0,0,1,2805.3,504.5Z"/><path class="cls-36" d="M2803.09,503.55a211.8,211.8,0,0,0-23.81-26.82c-8.56-8.32-17.64-16.08-27-23.51s-18.92-14.54-28.76-21.3-19.78-13.38-30-19.62-20.43-12.38-30.9-18.11q-7.82-4.37-15.78-8.45-4-2-8-4c-2.67-1.33-5.35-2.64-8-3.9-5.4-2.56-10.83-4.88-16.38-7.21s-11.05-4.68-16.59-7l-8.34-3.46a12.31,12.31,0,0,1-2.19-1.13l-1.89-1.26-3.76-2.42c-5.07-3.19-10.26-6.22-15.39-9.37,5.49,2.46,11,5,16.35,7.68,1.34.68,2.69,1.36,4,2.1l2,1.09a10.59,10.59,0,0,0,1.88.78l8.56,2.77q8.55,2.9,17,5.92c5.66,2,11.35,4.18,16.93,6.49,11.2,4.6,22,10,32.77,15.52s21.13,11.7,31.43,18,20.32,13.07,30.1,20.17,19.32,14.53,28.42,22.51c4.56,4,9.05,8,13.38,12.24,2.13,2.16,4.33,4.23,6.39,6.45l3.14,3.27c1,1.11,2,2.23,3.05,3.36A165.76,165.76,0,0,1,2803.09,503.55Z"/><g class="cls-37"><path class="cls-36" d="M2488.86,286.55c3.95,7.91,7.54,15.81,11.36,23.55s7.74,15.36,12.14,22.62a116.58,116.58,0,0,0,15,20.23c5.78,6,12.61,11.08,21,13.81a32.39,32.39,0,0,1-13.14-2.64,47.46,47.46,0,0,1-11.62-7.11,80.45,80.45,0,0,1-17.29-20.67,128.73,128.73,0,0,1-11.22-24.12A132,132,0,0,1,2488.86,286.55Z"/></g><g class="cls-37"><path class="cls-36" d="M2803.55,510.29c-7-8.58-13.76-17.13-20.77-25.47s-14.16-16.49-21.59-24.39-15.09-15.55-23.05-22.94-16.22-14.51-24.69-21.62a152.5,152.5,0,0,1,28.24,17.41,205.21,205.21,0,0,1,24.6,22.36,220.85,220.85,0,0,1,20.85,25.86A184.13,184.13,0,0,1,2803.55,510.29Z"/></g><path class="cls-38" d="M2614.65,368.19c52.16-5.29,112.61,2.77,154.91,38.67s-6.2,40.93-40,25.75S2651,387.11,2614.65,368.19Z"/><path class="cls-39" d="M2368,884.71c126.21,151.89,215.75,336.71,337,473.25,20.14-28.93,40.4-57.78,59.88-87.17-61.93-95.43-109.32-273.4-163.89-342.32C2733.67,877.93,2812.86,743.27,2987,717c3.94-18.86,6.51-51.12,21.52-64.84-49.46-80.7-103.48-158.8-157-236.87-22.82,10.48-70.42,34.28-74.7,60.72,42.24,38.32,78.94,102.72,108.43,152C2781,658.84,2567.92,781,2486.72,777.71c-2.77-3-5.57-5.94-8.47-8.82-37.39-4.57-73.93-16.18-108.46-31C2366.08,786.69,2367.39,835.81,2368,884.71Z"/><path class="cls-40" d="M2368,884.71c126.21,151.89,215.75,336.71,337,473.25,20.14-28.93,40.4-57.78,59.88-87.17-61.93-95.43-109.32-273.4-163.89-342.32C2733.67,877.93,2812.86,743.27,2987,717c3.94-18.86,6.51-51.12,21.52-64.84-49.46-80.7-103.48-158.8-157-236.87-22.82,10.48-70.42,34.28-74.7,60.72,42.24,38.32,78.94,102.72,108.43,152C2781,658.84,2567.92,781,2486.72,777.71c-2.77-3-5.57-5.94-8.47-8.82-37.39-4.57-73.93-16.18-108.46-31C2366.08,786.69,2367.39,835.81,2368,884.71Z"/><path class="cls-39" d="M2368.68,884.38c-86.52,15.43-154.78,16.32-249.87,38.89-70.21,161.45-151.33,268.79-276,334.8s-45.81,27.36-68.09,73,19.91,66.93,8.42,109.27c83,17.61,157.16,28.71,239.72,35.6,24.35-41,44.49-85.94,65-129.29-50-1.49-102.94,6.25-151.17,2.7C2066.4,1312,2170.44,1286.6,2210,1135.94c45.11,61.77,70.34,93.42,71.57,180.58s38.83,225.54-7.74,313c8.26,7.63,16.55,7.52,24.82,12.07q155.94-47.37,311.84-94.63c24.33-70,54.72-136.83,80.43-205.88C2575.37,1187.12,2495,1038.94,2368.68,884.38Z"/><path class="cls-41" d="M2368.68,884.38c-86.52,15.43-154.78,16.32-249.87,38.89-70.21,161.45-151.33,268.79-276,334.8s-45.81,27.36-68.09,73,19.91,66.93,8.42,109.27c83,17.61,157.16,28.71,239.72,35.6,24.35-41,44.49-85.94,65-129.29-50-1.49-102.94,6.25-151.17,2.7C2066.4,1312,2170.44,1286.6,2210,1135.94c45.11,61.77,70.34,93.42,71.57,180.58s38.83,225.54-7.74,313c8.26,7.63,16.55,7.52,24.82,12.07q155.94-47.37,311.84-94.63c24.33-70,54.72-136.83,80.43-205.88C2575.37,1187.12,2495,1038.94,2368.68,884.38Z"/><path class="cls-42" d="M2477.31,767.76c-35.15-1.87-73.73-15.93-107.43-29.78-3.93,48.57-2.41,97.92-1.87,146.72,126.32,152,215.63,336.64,337.17,473.31,18.7-29.71,42.82-56.47,57.91-88.23-50.36-89.25-120.58-279.22-156.9-338.93s-84.85-108.37-116.4-148.19S2500.18,795,2477.31,767.76Z"/><g class="cls-43"><path class="cls-44" d="M2706.66,1355.7c-4.64,6.75-1.27,1.71-1.27,1.71,11.51-16.28,25.13-35.65,36.41-52.31C2733.85,1317.09,2711.91,1348.1,2706.66,1355.7Z"/><path class="cls-44" d="M2369.89,737.85h0c-1.93,22.14-2.06,44.24-2.52,66.39C2367.82,782.09,2368,760,2369.89,737.85Z"/><path class="cls-44" d="M2776.9,476.1c42,37.93,79.28,103.24,108.14,151.58-102.14,34.07-320.39,148.3-396,153.6-8.21-11.32-5.91-6.56-11.33-13.13h0C2495.64,792,2464.2,747,2489,781.28s95,103.64,110.42,143.3c9,22-.47.14,0,0,136.31-40.67,212-184.72,387.81-206.93,3.36-20.27,6.43-51.32,21.26-65.47-49.44-80.65-103.48-158.79-157-236.85C2828.77,425.85,2781.11,449.54,2776.9,476.1Z"/></g><path class="cls-42" d="M2936.71,630.68c-19.57-24.12-130.88-177.42-150.57-172.86-4.7,5.45-8.53,10.9-9.27,18.23,42.24,38.32,78.94,102.72,108.43,152C2902.39,625.5,2920.57,623.56,2936.71,630.68Z"/><path class="cls-45" d="M2722.09,444.24c27.67-21.44,56.56-47.15,83.93-67.49,20.72-15.39,35.17-11.7,52.52,5,12.05,11.61,24,30.42,36,43.25-39.21,17.23-78.45,34-117.69,51.06C2758.62,465.38,2740.25,455.19,2722.09,444.24Z"/><path class="cls-42" d="M2265.33,1224.16c15.48,39.87,52.82,131.58,89,149.82s-28,16.34-34,18.86c12.07,9.15,26.27,15,42,15.35a164.79,164.79,0,0,1-36.5,9.8c3.11,33.06,7,77.59-3.39,109.08C2320.2,1490.77,2279.6,1235.54,2265.33,1224.16Z"/><path class="cls-42" d="M2347.32,1438.48c5.23,45.88,6.92,127.5-24,165.22,3.79,2.9,7.57,5.61,11.4,8.13,48.87-14.7,97.92-31.77,146.7-45.42-14.23-5.3-93.85,26.71-99.83,3.42S2371.77,1457.41,2347.32,1438.48Z"/><path class="cls-46" d="M2592,1532.44l-101.67,29.38L2443,1538.94C2477.41,1532.58,2562.46,1516.21,2592,1532.44Z"/><path class="cls-42" d="M2620.91,1455.26c15.13-38.07,32.1-75.46,48.12-113.17-32.47-42.82-60.09-88.66-86.89-135.21C2612.09,1277.29,2641.77,1380.55,2620.91,1455.26Z"/><path class="cls-42" d="M1854.68,1333c22.4,5.47,45,10,67.7,14,75.71-24.27,137-35.93,203.85-83.92C2063.82,1300.29,1926.36,1343.83,1854.68,1333Z"/><path class="cls-47" d="M2124.85,920.2c-.89-16.48-1.46-33-2.3-49.45,76.08-6.78,153.13,6.94,229.21,9.35-2.73-49-4.32-97.86-3-146.87,9.37-2.87,18.59-6.05,27.84-9.29q-3.39,7-6.81,13.94c-3.71,48.81-2.4,97.93-1.76,146.83C2287,897.33,2205.44,905,2124.85,920.2Z"/><path class="cls-42" d="M1779.64,1337.66c33.28,77.6,146.45,100.67,219.39,107.68-3.33,6.87-6.55,13.76-9.62,20.75-66.45-6.69-129-15.5-194.11-30.57C1788.23,1403.34,1784.56,1370.22,1779.64,1337.66Z"/><path class="cls-42" d="M2635.1,1232.59a869.72,869.72,0,0,0,66.9,96.27c15.49-19.72,30.9-39.53,45.92-59.61C2706.69,1278.44,2662.73,1264,2635.1,1232.59Z"/><path class="cls-42" d="M2561.76,883.62c11.61,16.84,18.62,36.65,27.66,54.57s18.25,42.48,22.49,62.55c-10.48-19-20.73-28.51-36.14-43.33C2574.77,932.3,2568.91,907.54,2561.76,883.62Z"/><polygon class="cls-26" points="2034.06 1457.34 2222.54 1459.78 2230.52 1490.08 2358.76 1484.19 2358.59 1349.09 2279.82 1359.3 2334.11 1352.26 2329.05 1321.25 2230.82 1323.77 2225.48 1366.95 2072.35 1373.98 2034.06 1457.34"/><polygon class="cls-38" points="2327.07 1353.17 2302.64 1484.19 2358.76 1484.19 2358.59 1349.09 2327.07 1353.17"/><polygon class="cls-27" points="2229.23 1454.57 2191.89 1429.88 2054.86 1421.4 2040.75 1452.12 2229.23 1454.57"/><path class="cls-48" d="M2289.72,1585.61l69-101.42-62.3,2.86S2303.86,1554.51,2289.72,1585.61Z"/><path class="cls-49" d="M2282.9,1710.05s92.08,169.45,344.8,108.89"/><path class="cls-50" d="M3178.89,1575.24h264.95a204.33,204.33,0,0,1,204.33,204.33v1218a0,0,0,0,1,0,0H2974.55a0,0,0,0,1,0,0v-1218A204.33,204.33,0,0,1,3178.89,1575.24Z"/><path class="cls-51" d="M1035.66,2210.78h377.1a0,0,0,0,1,0,0v607.68A188.55,188.55,0,0,1,1224.21,3007h0a188.55,188.55,0,0,1-188.55-188.55V2210.78A0,0,0,0,1,1035.66,2210.78Z" transform="translate(2448.42 5217.79) rotate(-180)"/><path class="cls-52" d="M623.63,1969.61h487.74a0,0,0,0,1,0,0V2795.1A204.33,204.33,0,0,1,907,2999.43H828A204.33,204.33,0,0,1,623.63,2795.1V1969.61A0,0,0,0,1,623.63,1969.61Z" transform="translate(1735 4969.04) rotate(-180)"/><path class="cls-53" d="M437.75,2210.78h377.1a0,0,0,0,1,0,0v607.68A188.55,188.55,0,0,1,626.3,3007h0a188.55,188.55,0,0,1-188.55-188.55V2210.78A0,0,0,0,1,437.75,2210.78Z" transform="translate(1252.61 5217.79) rotate(-180)"/><line class="cls-54" x1="133.18" y1="3007.01" x2="4887.08" y2="3007.01"/><path class="cls-53" d="M975.66,3156.61s37,51.42,188.55,51.42,188.55-51.42,188.55-51.42V2768.93c0-104.13-84.42-188.55-188.55-188.55h0c-104.13,0-188.55,84.42-188.55,188.55Z"/><path class="cls-51" d="M3904.89,3156.61S3788.77,3208,3644.48,3208s-260.41-51.42-260.41-51.42V2261.27c0-112.85,91.49-204.33,204.34-204.33h112.14c112.86,0,204.34,91.48,204.34,204.33Z"/><path class="cls-55" d="M2172.47,656.05c18.21-8.49,19.34-43.78,38.11-50.93,4.11-12.36,26,3,30-9.38,0,0,5.59,17.47-16.92,37.14C2200.23,653.34,2172.47,656.05,2172.47,656.05Z"/><path class="cls-32" d="M2200.72,635.93a54,54,0,0,1,3.19-6.69,63.47,63.47,0,0,1,4-6.28,26.2,26.2,0,0,1,2.43-2.93,5.87,5.87,0,0,1,.82-.7,3,3,0,0,1,.65-.34l.27-.06a1.63,1.63,0,0,1,.38,0,1.13,1.13,0,0,1,.75.47,1.51,1.51,0,0,1,.28.89,2.74,2.74,0,0,1,0,.59l-.15.93c-.19,1.2-.4,2.4-.53,3.6a14.75,14.75,0,0,0-.14,3.64,10,10,0,0,1-.85-3.66,29.19,29.19,0,0,1,0-3.74c0-.3,0-.66,0-.9a3.22,3.22,0,0,0,0-.33c0-.08-.07-.15,0,0a.58.58,0,0,0,.38.23.26.26,0,0,0,.15,0h.05s-.07.05-.15.12a6.86,6.86,0,0,0-.54.54,33.47,33.47,0,0,0-2.18,2.8c-1.43,1.94-2.8,4-4.25,5.94S2202.32,634,2200.72,635.93Z"/><path class="cls-32" d="M2237,607.49c-2.29,1-4.6,1.8-6.92,2.59s-4.64,1.53-6.92,2.33a30.73,30.73,0,0,0-3.31,1.26,6,6,0,0,0-.68.36l-.15.11s0,0,0,0a.57.57,0,0,0,0-.14.67.67,0,0,0-.11-.43c-.14-.15-.09-.06,0,0a2.92,2.92,0,0,0,.32.11l.86.23a29.59,29.59,0,0,1,3.57,1.13,10,10,0,0,1,3.25,1.88,14.89,14.89,0,0,0-3.52-.94c-1.19-.22-2.39-.38-3.59-.54l-.94-.12a5.41,5.41,0,0,1-.57-.15,1.65,1.65,0,0,1-.78-.53,1.27,1.27,0,0,1-.23-.86,1.58,1.58,0,0,1,.11-.37,1.76,1.76,0,0,1,.14-.23,2.52,2.52,0,0,1,.51-.52,7,7,0,0,1,.91-.59,28.49,28.49,0,0,1,3.52-1.46,64.2,64.2,0,0,1,7.16-1.94A54.43,54.43,0,0,1,2237,607.49Z"/></g></g></g></svg>