<svg xmlns="http://www.w3.org/2000/svg" xmlns:xlink="http://www.w3.org/1999/xlink" viewBox="0 0 2405.57 2907.92"><defs><style>.cls-1,.cls-2,.cls-23,.cls-27,.cls-28,.cls-3,.cls-8{fill:none;}.cls-11,.cls-2,.cls-25{stroke:#6199f2;}.cls-10,.cls-11,.cls-14,.cls-2,.cls-20,.cls-23,.cls-24,.cls-25,.cls-27,.cls-28,.cls-3,.cls-8{stroke-miterlimit:10;}.cls-10,.cls-11,.cls-14,.cls-2,.cls-24,.cls-25,.cls-3{stroke-width:4px;}.cls-3{stroke:#a2c0fc;}.cls-13,.cls-26,.cls-4,.cls-6{fill:#b1cefc;}.cls-4{opacity:0.31;}.cls-5{isolation:isolate;}.cls-15,.cls-6{opacity:0.27;}.cls-13,.cls-15,.cls-26,.cls-6{mix-blend-mode:multiply;}.cls-7{fill:#fff;}.cls-27,.cls-8{stroke-width:54px;}.cls-8{stroke:url(#Dégradé_sans_nom_31);}.cls-9{clip-path:url(#clip-path);}.cls-10{stroke:#12233f;fill:url(#Dégradé_sans_nom_31-2);}.cls-11{fill:#cadeff;}.cls-12{fill:url(#Nouveau_motif);}.cls-13{opacity:0.75;}.cls-14,.cls-24{fill:#f7ebd2;}.cls-14,.cls-20{stroke:#a8844a;}.cls-15{fill:#a8844a;}.cls-16{fill:url(#Dégradé_sans_nom_22);}.cls-17{fill:#d3963d;opacity:0.44;}.cls-18{fill:url(#Dégradé_sans_nom_13);}.cls-19{fill:url(#Dégradé_sans_nom_13-2);}.cls-20,.cls-22{fill:#f9ddaa;}.cls-20{stroke-width:5px;}.cls-21{fill:#ad761d;}.cls-23{stroke:#ad761d;stroke-width:6px;}.cls-23,.cls-28{stroke-linecap:round;}.cls-24{stroke:#b58d4d;}.cls-25{fill:#a2c0fc;}.cls-26{opacity:0.32;}.cls-27{stroke:url(#Dégradé_sans_nom_31-3);}.cls-28{stroke-width:70px;stroke:url(#Dégradé_sans_nom_31-4);}</style><linearGradient id="Dégradé_sans_nom_31" x1="550.7" y1="535.96" x2="1938.91" y2="535.96" gradientUnits="userSpaceOnUse"><stop offset="0" stop-color="#1b364a"/><stop offset="1" stop-color="#16547e"/></linearGradient><clipPath id="clip-path" transform="translate(-179.94 -39.44)"><circle class="cls-1" cx="1308.12" cy="1308.12" r="1308.12"/></clipPath><linearGradient id="Dégradé_sans_nom_31-2" x1="895.42" y1="2616.23" x2="1724.35" y2="2616.23" xlink:href="#Dégradé_sans_nom_31"/><pattern id="Nouveau_motif" data-name="Nouveau motif" width="121.27" height="125.81" patternTransform="translate(-26.04 -77.8)" patternUnits="userSpaceOnUse" viewBox="0 0 121.27 125.81"><rect class="cls-1" width="121.27" height="125.81"/><line class="cls-2" x1="25.51" x2="25.51" y2="125.81"/><line class="cls-2" x1="44.91" x2="44.91" y2="125.81"/><line class="cls-2" x1="121.27" y1="26.19" y2="26.19"/><line class="cls-2" x1="121.27" y1="45.59" y2="45.59"/><line class="cls-3" y1="62.9" x2="121.27" y2="62.9"/><line class="cls-3" y1="80.22" x2="121.27" y2="80.22"/><rect class="cls-4" x="44.91" y="45.59" width="33.73" height="33.73"/></pattern><linearGradient id="Dégradé_sans_nom_22" x1="943.39" y1="371.02" x2="1661.97" y2="371.02" gradientTransform="translate(-107.7 354.5) rotate(-14.53)" gradientUnits="userSpaceOnUse"><stop offset="0" stop-color="#6f4e29"/><stop offset="0.18" stop-color="#735129"/><stop offset="0.31" stop-color="#7b5829"/><stop offset="1" stop-color="#af7931"/></linearGradient><linearGradient id="Dégradé_sans_nom_13" x1="886.02" y1="723.09" x2="1501.66" y2="723.09" gradientTransform="translate(-107.7 354.5) rotate(-14.53)" gradientUnits="userSpaceOnUse"><stop offset="0" stop-color="#7b5829"/><stop offset="1" stop-color="#af7931"/></linearGradient><linearGradient id="Dégradé_sans_nom_13-2" x1="1163.35" y1="761.92" x2="1501.66" y2="761.92" xlink:href="#Dégradé_sans_nom_13"/><linearGradient id="Dégradé_sans_nom_31-3" x1="179.94" y1="1594.46" x2="2436.29" y2="1594.46" xlink:href="#Dégradé_sans_nom_31"/><linearGradient id="Dégradé_sans_nom_31-4" x1="1930.59" y1="2330.9" x2="2405.57" y2="2330.9" xlink:href="#Dégradé_sans_nom_31"/></defs><title>hunman-Think</title><g class="cls-5"><g id="Calque_2" data-name="Calque 2"><g id="Calque_2-2" data-name="Calque 2"><circle class="cls-6" cx="1128.18" cy="1480.04" r="1027.32"/><circle class="cls-7" cx="1394.08" cy="1162.96" r="502.83"/><circle class="cls-7" cx="572.07" cy="1034.54" r="234.14"/><path class="cls-8" d="M568.83,682c195.43-177.13,454.75-285,739.29-285,228.06,0,439.93,69.33,615.68,188.06" transform="translate(-179.94 -39.44)"/><g class="cls-9"><path class="cls-10" d="M895.42,2302.74s88.27,537.84,87,642.61H1332l-15.81-321.3,59,321.3h349.2l-42.85-555.6S973.67,2239.24,895.42,2302.74Z" transform="translate(-179.94 -39.44)"/><path class="cls-11" d="M877.92,971.19l739-244.63c47.45-15.71,100-5.92,137.72,26.88,14.4,12.52,25.89,27.68,29.45,45.49,12,60,108,491.9,48,683.87s-102,311.93-114,305.94-36.6.21-36.6.21v600.8s-327-51-423-48-351-27-363-39c33-48,90-222,87-336-81,33-135,60-159,42s-99-48-87-315c8.78-195.28,38.88-477.57,54.42-615.19A128.21,128.21,0,0,1,877.92,971.19Z" transform="translate(-179.94 -39.44)"/><path class="cls-12" d="M877.92,971.19l739-244.63c47.45-15.71,100-5.92,137.72,26.88,14.4,12.52,25.89,27.68,29.45,45.49,12,60,108,491.9,48,683.87s-102,311.93-114,305.94-36.6.21-36.6.21v600.8s-327-51-423-48-351-27-363-39c33-48,90-222,87-336-81,33-135,60-159,42s-99-48-87-315c8.78-195.28,38.88-477.57,54.42-615.19A128.21,128.21,0,0,1,877.92,971.19Z" transform="translate(-179.94 -39.44)"/><path class="cls-13" d="M1543.7,1711.37s113.73,80.37,137.8,77.58v600.8l-230.42-32.13s57-34.25,115.21-26.75,83.41,11.77,83.41,11.77L1669.93,1808s-139.21-7.2-164.78-28.87l19.89-20.8s-43.55,16-47.34,6.15c14.67-12.71,27.45-32.34,27.45-32.34l-54.07-13s20-24.14,5.78-36.93S1410,1638.9,1410,1638.9l76.66-61.53Z" transform="translate(-179.94 -39.44)"/><path class="cls-13" d="M1299.39,1493.37s-94.57-407.62-88.57-473.62c-76.49-45-111-76.15-111-76.15l193.6,34.15,107.94,501Z" transform="translate(-179.94 -39.44)"/><path class="cls-13" d="M987.24,2000.48s502.05-277.62,694.26-47.37V1789l-137.8-77.58-31.28-176L1089,1776.81l61,94.5-167.56,95.4Z" transform="translate(-179.94 -39.44)"/><path class="cls-14" d="M1154.61,1554.49l255.09-103.12,68,144s-190.84,116-198.42,158S1154.61,1554.49,1154.61,1554.49Z" transform="translate(-179.94 -39.44)"/><path class="cls-15" d="M1409.7,1451.37l-85,34.36,18.09,114.48-136.44,55.2c32.41,60.15,68.82,120.77,72.94,98,7.58-42,198.42-158,198.42-158Z" transform="translate(-179.94 -39.44)"/><path class="cls-13" d="M1446.82,1102.64s88.25,126.67,116.56,107.49,48.94-44.66,48.94-44.66,40.57,174.35,15.91,233.72-115.81-63-115.81-63Z" transform="translate(-179.94 -39.44)"/><path class="cls-16" d="M1436,469.09l104.9-186.26a171.34,171.34,0,0,0,13.37-138.63c-20.09-60.32-50.68-129.48-77.52-96C1454,76.5,1229.49,163.64,1148,151.34c-122.34-18.48-114.59,92.39-114.59,92.39s-18,294.79-96.31,382c28.38,64.2,52.37,112.1,52.37,112.1Z" transform="translate(-179.94 -39.44)"/><path class="cls-17" d="M1153.33,273.91s-30.76-67.7,61.81-86.49,248.53-59.2,261.59-139.24c-190.76,150.74-354.84,109.1-354.84,109.1S1109.3,250.75,1153.33,273.91Z" transform="translate(-179.94 -39.44)"/><path class="cls-17" d="M1487.82,115.67c1.59-86.59,16.22,254.06-51.84,353.42s-46.51-61.28-46.51-61.28S1484.63,288.89,1487.82,115.67Z" transform="translate(-179.94 -39.44)"/><path class="cls-17" d="M1235.91,304.83s155.47-82.21,240.82-256.65c10.41,112.14-80.64,226.54-157.56,331.37C1248.61,475.72,1235.91,304.83,1235.91,304.83Z" transform="translate(-179.94 -39.44)"/><path class="cls-18" d="M1007.65,558.77l-62,328.33s223.69,131.58,260,175.75S1316,1086.43,1371,1011,1527.77,810.2,1558,796.27C1532,745.3,1472.9,608.9,1470.29,550S1127,441.88,1127,441.88l-58.37,14.44Z" transform="translate(-179.94 -39.44)"/><path class="cls-17" d="M1253.09,913c-45.61,6.76-86.37,42.83-109,99.86,28.65,20.13,51.76,38.2,61.46,50C1205.56,1062.85,1199.52,976.58,1253.09,913Z" transform="translate(-179.94 -39.44)"/><path class="cls-17" d="M1026.22,936c17,10.55,35.36,22.09,53.67,33.9,15.28-28.49,40.13-63.12,78.37-87.2C1114.32,876,1066.31,894.81,1026.22,936Z" transform="translate(-179.94 -39.44)"/><path class="cls-19" d="M1371,1011c55-75.42,156.82-200.82,187.09-214.75C1532,745.3,1472.9,608.9,1470.29,550c-1.26-28.64-82.37-55-165.43-74.46,16.3,86.63,56.15,302.64,51.75,320.32-4.55,18.29-34.41,200-74.17,285.59C1312.05,1072.07,1343.84,1048.22,1371,1011Z" transform="translate(-179.94 -39.44)"/><path class="cls-20" d="M1451.55,559.66s70.75,17.57,69.88-49.55-85.45-41-85.45-41Z" transform="translate(-179.94 -39.44)"/><path class="cls-21" d="M1490.82,496.06a43.93,43.93,0,0,1-8.13,11.05,42.88,42.88,0,0,1-11.38,8.17,41.72,41.72,0,0,1-13.75,4,52.63,52.63,0,0,1-14.45-.54l1.63-6.81a46.08,46.08,0,0,0,12.55,2.11,37.75,37.75,0,0,0,12.68-2,40.41,40.41,0,0,0,11.57-6.26A42.92,42.92,0,0,0,1490.82,496.06Z" transform="translate(-179.94 -39.44)"/><path class="cls-14" d="M1137.94,360.3,1103.33,618l-28.83,32.72s67.7,70.4,85.52,144.71c30.59-9.75,55.93-16.06,132-32.88s97.49-3,97.49-3l69.33-96L1464.38,528l-24.2-89.75-5.37-77.42s-51.63-76.53-160.76-70.63S1137.94,360.3,1137.94,360.3Z" transform="translate(-179.94 -39.44)"/><path class="cls-22" d="M1387.52,752.61c-10.24-3.54-36.81-8.37-93.93,3.91l-2.09-58.37,47.84-20.93,15.47-28.62-48.89-106.45-5-246.21c79.91,5.92,122.09,58.43,128.32,66.79l5.3,76.42,24.12,89.46-5.45,133.06Z" transform="translate(-179.94 -39.44)"/><path class="cls-21" d="M1226.05,678.9a262.41,262.41,0,0,0,28,7.14,157.46,157.46,0,0,0,28.08,3.05c2.33,0,4.67,0,7-.19l1.75-.07,1.73-.17c1.16-.13,2.33-.19,3.47-.37a85.88,85.88,0,0,0,13.65-2.81,78.45,78.45,0,0,0,13.1-5.11,103.71,103.71,0,0,0,12.4-7.37c-.77,1-1.58,1.87-2.38,2.81l-1.23,1.38-1.33,1.28c-.89.85-1.79,1.71-2.72,2.53l-2.93,2.3a60.21,60.21,0,0,1-13.07,7.37c-1.15.53-2.34.91-3.53,1.34s-2.38.84-3.6,1.14-2.43.68-3.66,1l-3.7.74c-1.23.27-2.49.36-3.73.55l-1.87.24-1.88.15c-2.51.22-5,.24-7.52.29a104.81,104.81,0,0,1-29.36-4.73,112.08,112.08,0,0,1-13.8-5.27A83.84,83.84,0,0,1,1226.05,678.9Z" transform="translate(-179.94 -39.44)"/><line class="cls-23" x1="1165.94" y1="492.56" x2="1192.92" y2="485.84"/><line class="cls-23" x1="1064.78" y1="492.92" x2="1019.62" y2="486.43"/><path class="cls-24" d="M1068.61,456.32s-71.16-50.38-101.68,25.33,76.65,83.07,76.65,83.07Z" transform="translate(-179.94 -39.44)"/><path class="cls-21" d="M994.69,510.68a55.83,55.83,0,0,1,14.19-8.66,53.6,53.6,0,0,1,16.41-4.09,50.58,50.58,0,0,1,17.15,1.58,61.32,61.32,0,0,1,15.91,7l-4,5.75a55.37,55.37,0,0,0-13.53-7.79,46.07,46.07,0,0,0-15.43-3.07,50.68,50.68,0,0,0-15.91,2.24A54.8,54.8,0,0,0,994.69,510.68Z" transform="translate(-179.94 -39.44)"/><path class="cls-22" d="M1302.91,261.75c9.54-6.65,18.62-13.91,27.54-21.35s17.56-15.2,26-23.21a579.14,579.14,0,0,0,47.36-51c7.31-9,14.39-18.19,21.12-27.63,1.69-2.35,3.3-4.76,5-7.14l2.46-3.58,2.38-3.64,4.74-7.28,4.54-7.41c.75-1.24,1.54-2.46,2.26-3.71l2.17-3.77c1.43-2.51,2.91-5,4.3-7.54,2.71-5.12,5.57-10.16,8.07-15.38,5.28-10.31,9.9-20.92,14.35-31.6l2.63,2c-12,8.74-24.21,16.95-36.64,24.93s-25.06,15.63-37.91,22.91-25.91,14.21-39.21,20.65-26.85,12.44-40.73,17.6a315,315,0,0,1-42.56,12.8l-5.47,1.07c-1.83.33-3.63.77-5.48,1l-5.52.81c-.92.13-1.84.28-2.76.4l-2.78.26-5.57.52c-1.85.16-3.72.15-5.59.24s-3.74.16-5.58.14h-5.52L1148,153h-.38l-.42-.2c-4.37-2.11-9.66-3.38-14.34-2.38a12.87,12.87,0,0,0-6.27,3.21,18.92,18.92,0,0,0-4.18,6,38.06,38.06,0,0,0-2.25,7.29c-.22,1.27-.45,2.55-.61,3.83s-.31,2.59-.36,3.89-.16,2.61-.17,3.92v3.94l.29,7.95.25,8,0,8,0,4c0,1.34-.08,2.67-.12,4l-.27,8c-.18,5.33-.53,10.65-.79,16s-.7,10.64-1,16c-1.51,21.26-3.63,42.47-5.88,63.66s-4.77,42.34-7.59,63.45c1.18-10.58,2.27-21.18,3.33-31.77s2.1-21.2,3.07-31.8q2.91-31.81,4.94-63.69c.29-5.31.63-10.62.88-15.93s.51-10.63.63-15.94l.19-8c0-1.33.07-2.66.08-4v-4l0-8-.32-7.93-.37-8,0-4.05c0-1.35.09-2.7.13-4.06a47.45,47.45,0,0,1,3.33-16.09,21.85,21.85,0,0,1,4.85-7.06,19,19,0,0,1,1.69-1.4c.6-.42,1.25-.8,1.89-1.16a16.7,16.7,0,0,1,4.14-1.5,22.14,22.14,0,0,1,8.58-.08,30.39,30.39,0,0,1,8.06,2.66l-.81-.21,88.41-.41,5.52,0c1.85,0,3.65-.12,5.47-.17s3.63-.08,5.45-.24l5.44-.53L1261,148c.91-.12,1.81-.27,2.71-.4l5.41-.81c1.81-.23,3.59-.67,5.38-1l5.38-1.07a311.43,311.43,0,0,0,42-12.79c27.44-10.35,53.87-23.39,79.48-37.79,12.82-7.2,25.41-14.81,37.82-22.68s24.66-16.07,36.52-24.68l5.06-3.67-2.43,5.71-3.42,8.05-1.72,4c-.59,1.34-1.22,2.65-1.83,4l-3.7,7.93c-1.28,2.62-2.64,5.2-4,7.81-2.58,5.23-5.51,10.28-8.28,15.41-1.44,2.54-3,5-4.42,7.55l-2.21,3.77c-.75,1.26-1.54,2.48-2.31,3.72l-4.65,7.4-4.84,7.28-2.43,3.64-2.51,3.57c-1.69,2.38-3.33,4.78-5,7.13-6.86,9.43-14.06,18.59-21.5,27.55a539.71,539.71,0,0,1-48.21,50.48c-8.56,7.88-17.35,15.52-26.39,22.83S1312.58,255.3,1302.91,261.75Z" transform="translate(-179.94 -39.44)"/><path class="cls-22" d="M1478.73,48.23c-.43,10.21-1.25,20.39-2.68,30.48-.31,2.54-.79,5-1.18,7.56s-.8,5-1.32,7.52l-1.47,7.5-1.69,7.45c-2.34,9.9-5,19.73-8.09,29.42s-6.41,19.29-10.12,28.75A553.87,553.87,0,0,1,1427,222.34q-7,13.51-14.72,26.64c-5.14,8.74-10.48,17.37-16.2,25.74,5.58-8.46,10.78-17.17,15.77-26s9.73-17.78,14.26-26.84a553.23,553.23,0,0,0,24.19-55.69c3.54-9.48,6.71-19.09,9.6-28.78s5.39-19.48,7.55-29.34l1.56-7.41,1.33-7.45c.47-2.48.83-5,1.19-7.47s.77-5,1-7.49c1.25-10,1.89-20.07,2.15-30.12Z" transform="translate(-179.94 -39.44)"/><path class="cls-22" d="M1446.56,331.91A326.53,326.53,0,0,0,1460,298.2c3.93-11.45,7.37-23.06,10.42-34.77a524.64,524.64,0,0,0,13.44-71.25,437.07,437.07,0,0,0,2.64-72.32,310.79,310.79,0,0,0-11.72-71.12l3.84-1.12a314.23,314.23,0,0,1,10.88,72.11,440.44,440.44,0,0,1-3.65,72.7,528,528,0,0,1-14.47,71.26c-3.21,11.69-6.82,23.27-10.91,34.67A326.54,326.54,0,0,1,1446.56,331.91Z" transform="translate(-179.94 -39.44)"/><path class="cls-14" d="M1351.7,915.37l192,378,42,44-162,240-40-72s-136-390.06-140-522c-32-12-134-42-164-42s12-162,12-162L987.25,708.86a33.06,33.06,0,0,1-9.77-44.13h0a33.06,33.06,0,0,1,44.28-12.16c67.23,36.71,248.8,138.93,259.94,162.8a490.06,490.06,0,0,0,11.67-96.14l20.43-12.73a22.63,22.63,0,0,1,34.59,18.81Z" transform="translate(-179.94 -39.44)"/><path class="cls-25" d="M1543.7,1711.37l88-286,18-12-30-66-46-72-30,18,14,20s-104.86,237.78-148,226c-13.72-3.75-26-34-26-34l-8.55,37.85,53.16,90,19.5-7.5,1.5,18,37.5,25.5,4.5,19.5Z" transform="translate(-179.94 -39.44)"/><polygon class="cls-25" points="957.76 1495.93 1049.76 1599.93 1133.76 1749.93 1073.76 1805.93 1003.76 1851.93 933.76 1767.93 887.76 1671.93 821.76 1563.93 892.76 1538.93 957.76 1495.93"/><polygon class="cls-26" points="842.55 1570.38 897.12 1551.17 937.54 1570.38 842.55 1570.38"/><path class="cls-26" d="M1109.39,1764.44l48.31,70.74s46.69,26.27,73,12.13c-15.16-20.22-60.64-82.87-60.64-82.87Z" transform="translate(-179.94 -39.44)"/><polygon class="cls-26" points="1013.34 1725 1065.89 1786.65 1119.45 1748.24 1085.09 1692.66 1013.34 1725"/><polygon class="cls-26" points="990.1 1812.05 1004.24 1835.16 1028.5 1823.6 990.1 1812.05"/><path class="cls-13" d="M982.43,1966.71c50.73-21.39,177.66-103.67,177.66-103.67l23.61,28.33,80.57-55.86-50.51,80.39s-172.49,71-176.55,123.78-25.36,229.3-25.36,229.3,237-1,252.42,0,43.85,61.89,43.85,61.89-335.84-2-393.67-33.48C936.77,2257.82,1006.78,2057.08,982.43,1966.71Z" transform="translate(-179.94 -39.44)"/><path class="cls-2" d="M868.32,1706s107.37-66.82,152.2-71.83" transform="translate(-179.94 -39.44)"/><path class="cls-2" d="M982.43,1966.71S1133.63,1889,1160.09,1863" transform="translate(-179.94 -39.44)"/><path class="cls-13" d="M1109.39,1891.37s-197.05,89.34-203.05,75.34c19.5-24.51,41.67-42.51,38.08-59-76.1,60.48-137.08,57.83-158.08,7.16s-26.85,30.14-6.53,53.32,43.44,50.86,68,46.13S1044,1953,1109.39,1891.37Z" transform="translate(-179.94 -39.44)"/><path class="cls-13" d="M888,1694.18s82.36-211.43,73.58-280.19c15.27,109.73,29.57,228.18,29.57,228.18Z" transform="translate(-179.94 -39.44)"/><path class="cls-2" d="M1308.12,2330.87s84.19-268.27,67-660.78" transform="translate(-179.94 -39.44)"/><path class="cls-2" d="M1342.78,2330.87s84.2-268.27,67-660.78" transform="translate(-179.94 -39.44)"/><path class="cls-2" d="M914.45,959.1c27.25,48.27,112,193.81,37.61,405,0,0,42.76,212.21,39.12,278s10.52-106.8,10.52-106.8" transform="translate(-179.94 -39.44)"/><path class="cls-2" d="M1541.5,751.52s37.48,270,62.07,381.89c31.87,145.08,30.79,246.22,30.79,246.22" transform="translate(-179.94 -39.44)"/><path class="cls-15" d="M1450.21,1538.09c-51.38-111.7-156.84-364.79-156.84-560.34l-163.79-27.89c41.3,9.8,93,25.58,114.12,33.51,4,131.94,140,522,140,522l29.5,53.1,16.78,9.6Z" transform="translate(-179.94 -39.44)"/><path class="cls-15" d="M1079.7,941.37c10.18,0,28.66,3.46,49.88,8.49V802.44l-37.88-23.07S1049.7,941.37,1079.7,941.37Z" transform="translate(-179.94 -39.44)"/><path class="cls-13" d="M1056.35,1321.61s63.44,75.5,143.2,79.15-99.78,13.23-99.78,13.23S1033.14,1394.67,1056.35,1321.61Z" transform="translate(-179.94 -39.44)"/><path class="cls-13" d="M1060.21,1179.94s29.81,107.52,115.54,165.23-116.67-57.09-116.67-57.09S996.07,1226.06,1060.21,1179.94Z" transform="translate(-179.94 -39.44)"/></g><path class="cls-27" d="M1923.8,585c292.91,197.89,485.49,533,485.49,913.12,0,608.16-493,1101.17-1101.17,1101.17s-1101.18-493-1101.18-1101.17c0-323.64,139.61-614.66,361.89-816.14" transform="translate(-179.94 -39.44)"/><line class="cls-28" x1="1965.59" y1="2180.14" x2="2370.57" y2="2481.67"/></g></g></g></svg>