<svg xmlns="http://www.w3.org/2000/svg" xmlns:xlink="http://www.w3.org/1999/xlink" viewBox="0 0 2725.18 3436.8"><defs><style>.cls-1,.cls-2,.cls-3,.cls-39,.cls-5,.cls-6{fill:none;}.cls-15,.cls-2,.cls-27,.cls-28,.cls-30,.cls-33{stroke:#6199f2;}.cls-15,.cls-16,.cls-2,.cls-22,.cls-24,.cls-25,.cls-27,.cls-28,.cls-3,.cls-30,.cls-33,.cls-37,.cls-39,.cls-40,.cls-5,.cls-6{stroke-miterlimit:10;}.cls-16,.cls-2,.cls-22,.cls-24,.cls-25,.cls-27,.cls-28,.cls-3,.cls-30,.cls-33,.cls-40,.cls-5,.cls-6{stroke-width:4px;}.cls-3{stroke:#a2c0fc;}.cls-27,.cls-29,.cls-4{fill:#b1cefc;}.cls-4,.cls-7{opacity:0.31;}.cls-24,.cls-25,.cls-5{stroke:#488af2;}.cls-6{stroke:#88affc;}.cls-7{fill:#97befc;}.cls-8{isolation:isolate;}.cls-33,.cls-9{fill:#a2c0fc;}.cls-10{fill:#cbf4f3;}.cls-11{fill:#d3963d;}.cls-11,.cls-31{opacity:0.44;}.cls-12{fill:#fccff2;}.cls-13{fill:#a4f990;}.cls-14,.cls-15{fill:#ba94ff;}.cls-16,.cls-40{fill:#f7ebd2;}.cls-16,.cls-37{stroke:#a8844a;}.cls-17{fill:#ad761d;}.cls-18{opacity:0.29;}.cls-19{fill:url(#Dégradé_sans_nom_13);}.cls-20{fill:#a8844a;opacity:0.27;}.cls-20,.cls-23,.cls-26,.cls-29,.cls-41,.cls-42,.cls-43,.cls-46{mix-blend-mode:multiply;}.cls-21{fill:#041228;}.cls-22{stroke:#12233f;fill:url(#Dégradé_sans_nom_33);}.cls-23,.cls-41,.cls-42,.cls-43{opacity:0.4;}.cls-23{fill:url(#Dégradé_sans_nom_33-2);}.cls-24,.cls-26{fill:#88affc;}.cls-25{opacity:0.34;fill:url(#Nouveau_motif_2);}.cls-26{opacity:0.43;}.cls-28{opacity:0.55;}.cls-28,.cls-32{fill:url(#Nouveau_motif);}.cls-29,.cls-46{opacity:0.32;}.cls-30{fill:#cadeff;}.cls-34{fill:url(#Dégradé_sans_nom_22);}.cls-35{fill:url(#Dégradé_sans_nom_13-2);}.cls-36{fill:url(#Dégradé_sans_nom_13-3);}.cls-37,.cls-38{fill:#f9ddaa;}.cls-37{stroke-width:5px;}.cls-39{stroke:#ad761d;stroke-linecap:round;stroke-width:6px;}.cls-40{stroke:#b58d4d;}.cls-41{fill:url(#Dégradé_sans_nom_33-3);}.cls-42{fill:url(#Dégradé_sans_nom_33-4);}.cls-43{fill:url(#Dégradé_sans_nom_33-5);}.cls-44{fill:#fcf9f2;}.cls-45{fill:#6199f2;}.cls-46{fill:url(#Dégradé_sans_nom_33-6);}</style><linearGradient id="Dégradé_sans_nom_13" x1="1869.78" y1="1560.3" x2="2012.78" y2="1560.3" gradientUnits="userSpaceOnUse"><stop offset="0" stop-color="#7b5829"/><stop offset="1" stop-color="#af7931"/></linearGradient><linearGradient id="Dégradé_sans_nom_33" x1="858.6" y1="2446.35" x2="2082.19" y2="2446.35" gradientUnits="userSpaceOnUse"><stop offset="0" stop-color="#1b364a"/><stop offset="1" stop-color="#16547e"/></linearGradient><linearGradient id="Dégradé_sans_nom_33-2" x1="858.6" y1="2229.09" x2="1215.23" y2="2229.09" xlink:href="#Dégradé_sans_nom_33"/><pattern id="Nouveau_motif_2" data-name="Nouveau motif 2" width="121.27" height="125.81" patternTransform="translate(-131.96 -24.82) rotate(-8.4)" patternUnits="userSpaceOnUse" viewBox="0 0 121.27 125.81"><rect class="cls-1" width="121.27" height="125.81"/><line class="cls-5" x1="25.51" x2="25.51" y2="125.81"/><line class="cls-5" x1="44.91" x2="44.91" y2="125.81"/><line class="cls-5" x1="121.27" y1="26.19" y2="26.19"/><line class="cls-5" x1="121.27" y1="45.59" y2="45.59"/><line class="cls-6" y1="62.9" x2="121.27" y2="62.9"/><line class="cls-6" y1="80.22" x2="121.27" y2="80.22"/><rect class="cls-7" x="44.91" y="45.59" width="33.73" height="33.73"/></pattern><pattern id="Nouveau_motif" data-name="Nouveau motif" width="121.27" height="125.81" patternTransform="translate(-26.04 -77.8)" patternUnits="userSpaceOnUse" viewBox="0 0 121.27 125.81"><rect class="cls-1" width="121.27" height="125.81"/><line class="cls-2" x1="25.51" x2="25.51" y2="125.81"/><line class="cls-2" x1="44.91" x2="44.91" y2="125.81"/><line class="cls-2" x1="121.27" y1="26.19" y2="26.19"/><line class="cls-2" x1="121.27" y1="45.59" y2="45.59"/><line class="cls-3" y1="62.9" x2="121.27" y2="62.9"/><line class="cls-3" y1="80.22" x2="121.27" y2="80.22"/><rect class="cls-4" x="44.91" y="45.59" width="33.73" height="33.73"/></pattern><linearGradient id="Dégradé_sans_nom_22" x1="1252.91" y1="899.74" x2="1759.07" y2="899.74" gradientUnits="userSpaceOnUse"><stop offset="0" stop-color="#6f4e29"/><stop offset="0.18" stop-color="#735129"/><stop offset="0.31" stop-color="#7b5829"/><stop offset="1" stop-color="#af7931"/></linearGradient><linearGradient id="Dégradé_sans_nom_13-2" x1="1210.92" y1="1156.52" x2="1642.35" y2="1156.52" xlink:href="#Dégradé_sans_nom_13"/><linearGradient id="Dégradé_sans_nom_13-3" x1="1403.6" y1="1183.93" x2="1642.35" y2="1183.93" xlink:href="#Dégradé_sans_nom_13"/><linearGradient id="Dégradé_sans_nom_33-3" x1="1255.01" y1="2251.09" x2="1777.15" y2="2251.09" xlink:href="#Dégradé_sans_nom_33"/><linearGradient id="Dégradé_sans_nom_33-4" x1="1295.84" y1="2801.41" x2="1386.9" y2="2801.41" xlink:href="#Dégradé_sans_nom_33"/><linearGradient id="Dégradé_sans_nom_33-5" x1="1110.1" y1="2982.74" x2="1185.94" y2="2982.74" xlink:href="#Dégradé_sans_nom_33"/><linearGradient id="Dégradé_sans_nom_33-6" x1="1210.92" y1="983.28" x2="1565.4" y2="983.28" xlink:href="#Dégradé_sans_nom_33"/></defs><title>human-good</title><g class="cls-8"><g id="Calque_2" data-name="Calque 2"><g id="Calque_2-2" data-name="Calque 2"><ellipse class="cls-9" cx="1872.93" cy="3358.81" rx="211.61" ry="77.98"/><path class="cls-10" d="M1940.36,916.23c30.81-26.88,62-53.3,93.13-79.77L2080.38,797l47.16-39.12c15.76-13,31.11-26.49,46.66-39.76,7.78-6.62,15.67-13.11,23.72-19.38s16.26-12.34,24.59-18.26q25-17.72,51.1-34c8.72-5.41,17.52-10.71,26.49-15.8s18.05-10,27.48-14.52l1.84,2.37c-6.7,8-13.77,15.56-20.92,23s-14.49,14.62-21.91,21.72q-22.28,21.22-45.71,41-11.7,9.88-23.81,19.25c-8.08,6.23-16.33,12.25-24.68,18.14-16.73,11.74-33.64,23.24-50.15,35.26l-49.64,35.91-49.92,35.56c-33.4,23.56-66.76,47.15-100.48,70.28Z"/><path class="cls-10" d="M2178.37,1367.41c45.22-7.42,90.52-14.27,135.81-21.16l68-10,68-9.61c22.68-3.14,45.28-6.93,67.92-10.42,11.32-1.73,22.66-3.29,34-4.58s22.77-2.33,34.19-3.17q34.26-2.49,68.72-3.22c11.49-.21,23-.27,34.54-.08s23.09.58,34.71,1.53l.33,3c-11.13,3.49-22.32,6.37-33.53,9.12s-22.45,5.2-33.7,7.52q-33.78,6.92-67.75,12c-11.33,1.69-22.67,3.19-34.05,4.42s-22.78,2.21-34.2,3c-22.86,1.57-45.74,2.84-68.56,4.77l-68.46,5.58-68.51,5.13c-45.69,3.24-91.38,6.52-137.13,9.23Z"/><path class="cls-10" d="M2178.46,1686.81c27.38-3.66,54.8-6.74,82.2-9.87l20.56-2.25,20.57-2.16,20.57-2,20.58-1.94c13.71-1.24,27.4-3.18,41.1-4.78,6.86-.78,13.71-1.4,20.59-1.75s13.75-.45,20.65-.34c13.79.22,27.6,1,41.45,2.45,6.92.74,13.85,1.63,20.79,2.77,3.48.59,6.95,1.2,10.43,1.92s7,1.49,10.45,2.46l.14,3c-3.39,1.3-6.78,2.4-10.18,3.43s-6.79,2-10.19,2.89c-6.81,1.79-13.62,3.32-20.45,4.71q-20.47,4.1-41,6.33c-6.86.75-13.72,1.31-20.59,1.6s-13.77.33-20.66.19c-13.79-.31-27.6-1-41.38-.9H2323.4l-20.67-.08-20.68-.23-20.68-.31c-27.58-.54-55.16-1-82.77-2.11Z"/><path class="cls-10" d="M2179.29,2124.21c46.69,24.69,93.09,49.89,139.52,75l69.49,38,69.26,38.36c23.05,12.84,46.44,25.12,69.68,37.65,11.6,6.29,23.13,12.72,34.51,19.38s22.64,13.55,33.8,20.6q33.45,21.2,66,43.9,16.24,11.4,32.22,23.28c10.61,8,21.16,16.06,31.4,24.67l-1.52,2.59c-12.5-4.76-24.7-10-36.83-15.44s-24.1-11.06-36-16.82q-35.71-17.35-70.47-36.32-17.38-9.46-34.44-19.51c-11.36-6.7-22.58-13.64-33.72-20.72-22.26-14.21-44.36-28.67-66.79-42.57l-67.21-41.85-67-42.24c-44.55-28.32-89.14-56.6-133.43-85.38Z"/><path class="cls-10" d="M662,2330c-26.68,35.28-53.81,70.18-80.9,105.12l-40.85,52.22L499,2539.26c-13.78,17.27-27.06,35-40.56,52.46-6.78,8.74-13.68,17.36-20.78,25.82s-14.4,16.74-21.85,24.9q-22.38,24.46-46.1,47.79c-7.94,7.75-16,15.41-24.24,22.9S328.88,2728,320.05,2735l-2.29-1.93c5.42-9.88,11.3-19.37,17.28-28.77s12.2-18.6,18.51-27.73q19-27.33,39.38-53.46,10.19-13.07,20.89-25.72c7.14-8.42,14.49-16.67,22-24.81,15-16.25,30.21-32.3,44.92-48.78L525,2474.46l44.63-49c29.9-32.56,59.76-65.16,90.07-97.38Z"/><path class="cls-10" d="M661.48,1715.57c-49.47,26.19-99.19,51.86-148.89,77.57l-74.67,38.31-74.86,37.91c-25,12.6-49.7,25.71-74.51,38.65l-18.7,9.52q-9.37,4.7-18.83,9.22-18.92,9.06-38.14,17.47-38.44,16.86-77.63,32.11c-13.08,5.05-26.22,10-39.48,14.66s-26.59,9.2-40.17,13.2l-1.29-2.71c11.66-8,23.59-15.51,35.57-22.87s24.09-14.44,36.25-21.42q36.52-20.87,73.85-40,18.65-9.6,37.59-18.61,9.48-4.48,19-8.81l19.17-8.52c25.69-11.11,51.45-22.06,77-33.51l76.6-34.25,76.8-33.84c51.28-22.39,102.54-44.83,154.05-66.74Z"/><line class="cls-11" x1="702.83" y1="1248.36" x2="54.96" y2="1281.31"/><path class="cls-10" d="M778.55,897.23Q678.94,817.79,580,737.51l-98.91-80.27L382.5,576.63c-32.85-26.89-66.06-53.37-99.15-80l-24.69-20.11q-12.3-10.12-24.48-20.37-24.36-20.51-48.25-41.56-47.81-42.08-94.48-85.52C60.39,300.07,29.66,270.66,0,240l1.94-2.29c35.21,24.1,69.36,49.46,103.18,75.2s67.16,52.08,100.16,78.8q24.75,20.06,49.07,40.6Q266.5,442.56,278.53,453l24,21C334.29,502.12,366,530.42,398,558.29L494,642l95.72,84q95.53,84.27,190.77,168.9Z"/><path class="cls-10" d="M991.16,583.32c-20-45.94-39.4-92.09-58.87-138.23l-28.94-69.3-28.53-69.47c-9.45-23.17-19.51-46.11-29.29-69.16-4.87-11.54-9.59-23.13-14-34.82S822.8,178.88,818.76,167q-12.09-35.57-22.52-71.74c-3.44-12.08-6.75-24.21-9.82-36.42s-5.95-24.5-8.3-37l2.8-1.07c6.53,10.91,12.49,22,18.33,33.19s11.38,22.45,16.81,33.76q16.25,34,30.75,68.62,7.25,17.33,13.9,34.87c4.41,11.71,8.58,23.51,12.59,35.37,8,23.74,15.66,47.58,24,71.19L922,368.71l24.32,71.06c16,47.44,32.11,94.86,47.65,142.49Z"/><path class="cls-10" d="M1685.42,462.74c15.89-37.88,32.29-75.51,48.65-113.15l24.8-56.35,25.2-56.14c8.46-18.69,16.32-37.67,24.46-56.51,4.09-9.41,8.33-18.75,12.81-28s9.19-18.33,14.08-27.35q14.68-27.06,31-53.33c5.46-8.74,11-17.41,16.87-26s11.82-17,18.32-25.27l2.7,1.31c-2.5,10.19-5.54,20.12-8.7,30s-6.6,19.6-10.15,29.28q-10.7,29-23.06,57.19-6.18,14.09-12.95,27.9c-4.52,9.2-9.29,18.28-14.21,27.29-9.87,18-20,35.85-29.58,54L1776.79,302l-29.24,54.17c-19.67,36-39.29,72.08-59.43,107.87Z"/><circle class="cls-12" cx="697.72" cy="530.58" r="36.89"/><circle class="cls-13" cx="1999.87" cy="401.62" r="31.56"/><circle class="cls-13" cx="574.12" cy="1064.65" r="37.26"/><circle class="cls-13" cx="271.37" cy="1386.06" r="47.54"/><circle class="cls-14" cx="279.09" cy="2144.33" r="55.26"/><circle class="cls-12" cx="2588.33" cy="1952.97" r="49.87"/><circle class="cls-15" cx="2180.71" cy="2492.17" r="45.82"/><path class="cls-16" d="M1139.91,633.55s153-356.21,344.87-461.84c18.7-56.5,33.44-92.12,33.44-92.12s-9.51-41.76,27.79-47.9,50.38-3.69,82.53-23.34,92.34,6.14,58,79.84c-4.91,35.62-2.45,86-2.45,86s-6.58,49.13-55.5,51.59c-20.66,25.79-77.28,24.56-77.28,24.56s-210.09,223.62-257.91,413.36C1223.74,663.68,1139.91,633.55,1139.91,633.55Z"/><path class="cls-17" d="M1293.35,663.68a450.56,450.56,0,0,1,17.57-58.94l5.53-14.38,6-14.19,1.49-3.55c.51-1.18,1.06-2.34,1.6-3.51l3.23-7,3.23-7c1.07-2.33,2.25-4.61,3.37-6.92,18-37,39.06-72.32,61.66-106.58s47.09-67.26,72.79-99.22q19.28-24,39.59-47.06c13.6-15.34,27.38-30.52,41.86-45q-20,23.32-39.23,47.24l-9.61,11.95-9.51,12-9.44,12.08-9.36,12.15c-12.36,16.28-24.62,32.63-36.46,49.28-6,8.28-11.83,16.65-17.68,25l-8.63,12.65c-2.88,4.22-5.65,8.51-8.49,12.75-11.3,17-22.28,34.22-32.69,51.78s-20.55,35.27-29.94,53.39c-1.17,2.26-2.41,4.5-3.53,6.78l-3.39,6.86-3.39,6.86-1.7,3.43-1.61,3.47-6.47,13.88-6,14.07A568,568,0,0,0,1293.35,663.68Z"/><path class="cls-17" d="M1293.35,663.68a458.23,458.23,0,0,1,17.73-58.88c1.84-4.79,3.65-9.59,5.53-14.37l6-14.18,1.5-3.54,1.59-3.51,3.21-7,3.22-7c1.08-2.33,2.27-4.61,3.39-6.91,8.94-18.5,18.78-36.54,29.08-54.3,2.61-4.42,5.16-8.87,7.81-13.27l8-13.15c1.32-2.2,2.71-4.36,4.09-6.52l4.15-6.48,4.15-6.48,4.25-6.43c2.84-4.27,5.63-8.57,8.53-12.81l8.68-12.71c5.89-8.4,11.81-16.78,17.89-25.05,12.09-16.57,24.46-32.94,37.27-49l9.63-12,9.74-11.9,9.89-11.79,10-11.68c13.39-15.53,27.1-30.76,41.31-45.6l.09-.09.07,0c4.42-3.54,8.78-7.26,13-11s8.45-7.67,12.52-11.67,8-8.11,11.72-12.47a83.46,83.46,0,0,0,10-13.88,83.82,83.82,0,0,1-9.19,14.54c-3.48,4.58-7.27,8.91-11.16,13.14s-7.94,8.32-12.08,12.3-8.35,7.89-12.71,11.69l.15-.15c-27.13,30.55-52.93,62.33-78,94.58-12.47,16.19-24.76,32.51-36.72,49.07s-23.68,33.29-35,50.31c-22.58,34-43.91,68.89-62.74,105.12-9.32,18.14-18.34,36.48-26.11,55.37A559.58,559.58,0,0,0,1293.35,663.68Z"/><g class="cls-18"><path class="cls-17" d="M1668.07,78.36a208.62,208.62,0,0,1,4.24,36.46,218.35,218.35,0,0,1-1.76,36.82c-1.72,12.22-4.59,24.46-9.91,35.84a62.56,62.56,0,0,1-10.31,15.74,36.21,36.21,0,0,1-15.43,10.25,40.51,40.51,0,0,0,7.1-5.59,47,47,0,0,0,5.65-6.81,72.28,72.28,0,0,0,7.92-15.73c4.08-11.08,6.37-22.83,8-34.66s2.58-23.85,3.2-35.91S1667.77,90.59,1668.07,78.36Z"/></g><g class="cls-18"><path class="cls-17" d="M1270.1,658.11c1.73-9.79,4.11-19.46,6.66-29.07s5.46-19.13,8.64-28.57a525.34,525.34,0,0,1,22-55.54,429.61,429.61,0,0,1,28.69-52.47c5.34-8.42,11.21-16.51,17.27-24.42a264.31,264.31,0,0,1,19.7-22.42c-5.82,8.07-11.56,16.11-16.91,24.42-1.35,2.06-2.65,4.17-4,6.24l-2,3.13-1.9,3.17-3.83,6.33-3.71,6.39c-9.76,17.13-18.71,34.69-27,52.58s-16,36.07-23.22,54.45S1276.5,639.3,1270.1,658.11Z"/></g><path class="cls-19" d="M1869.78,1452.79v212.83s95.6,35.59,136-12.85c16.36-19.62-.84-165.88-2.17-202.32a8.38,8.38,0,0,0-12-7.26C1972.28,1452.29,1929.3,1466.65,1869.78,1452.79Z"/><path class="cls-16" d="M1448.9,1938.79l335.41-290h88v-124h35a25,25,0,0,0,25-25h0a25,25,0,0,0-25-25h-39s-42,7.94-42,47.94v40l-316.19,144S1427.5,1872.79,1448.9,1938.79Z"/><path class="cls-16" d="M2024.31,1452.79s-56,6-56,38v106s40,28,56,0S2024.31,1452.79,2024.31,1452.79Z"/><path class="cls-20" d="M1550.7,1688.31l-40.58,18.48s-82.62,166-61.22,232l134.6-116.37Z"/><path class="cls-21" d="M1759.07,2712.71v32l-72.3,12.82s56.24,38.49,52.3,100.65c12.82-14.8,24.66-9.87,24.66-9.87s29.6,124.32,130.24,186.48l19.74-13.81s-74.54-101.31-77.54-230.28S1759.07,2712.71,1759.07,2712.71Z"/><path class="cls-21" d="M1492.67,2778.41l107.64,194.38,31-42s-70.64-198-69.32-260-47.56-33.08-47.56-33.08Z"/><path class="cls-22" d="M861.07,2130.66s-45,285,249,792.08v120l142.81,39s97.21-33,103.21-87,66-174,129-204c37.84-60,66-132,66-132l-36.71-21-218.59,165.08s-54.13-183.09-25.93-453.11l85,27s376.44-171,586.37-396c-111.11,210-172.3,420-182.21,732.07,32.09,42,77.1,78,77.1,78s-54-447,246-885.09c-27-54-35.53-21-50.77-72s-99.11,0-99.11,0-418.23,160-528.71,169Z"/><path class="cls-23" d="M858.9,2159c-1,27.31-.11,74.12,9.85,139.23,0,0,290.53,12.23,342.17-49.42C1254.9,2196.26,950.11,2166.61,858.9,2159Z"/><path class="cls-24" d="M1476.37,1663.14s116.48-193.66,193.05-299.58a82,82,0,0,0-23.15-117.64c-53-32.89-106.83-61-106.83-61l-91.38,34.55Z"/><path class="cls-25" d="M1476.37,1663.14s116.48-193.66,193.05-299.58a82,82,0,0,0-23.15-117.64c-53-32.89-106.83-61-106.83-61l-91.38,34.55Z"/><path class="cls-26" d="M1448.06,1219.47l28.31,443.67s41.66-69.27,91.53-147.61l-79.05-311.48Z"/><path class="cls-27" d="M1210.92,2178.79s25.39,60,111.39,34,234.34-112,234.34-112-61.16-68-66.75-110c-26.29-42-41-52-41-52s22.87-133.36,61.22-232,146.64-379.16,94.42-443.58-210.23,101.58-210.23,101.58S1199.52,2014.79,1210.92,2178.79Z"/><path class="cls-28" d="M1210.92,2178.79s25.39,60,111.39,34,234.34-112,234.34-112-61.16-68-66.75-110c-26.29-42-41-52-41-52s22.87-133.36,61.22-232,146.64-379.16,94.42-443.58-210.23,101.58-210.23,101.58S1199.52,2014.79,1210.92,2178.79Z"/><path class="cls-29" d="M1438,1952.73S1324.72,2084,1328.58,2139.39s48.92-13.89,48.92-13.89,63.08-111.17,99.12-122.66C1470.4,1983.62,1438,1952.73,1438,1952.73Z"/><path class="cls-30" d="M1642.35,1242.9l-431.43-43.5-32.61-86.7s87.19-361.91,176.6-475.91c-64.93-42-154.6-84-240.6-54-68,326-354,812.82-200,1152-18,66-146,332-134,448,178,36,337.21,114,430.61,66,0-76,1.39-104,33.39-176s200-594,150-708,210.23-101.58,210.23-101.58Z"/><g class="cls-31"><path class="cls-32" d="M1642.35,1242.9l-431.43-43.5-32.61-86.7s87.19-361.91,176.6-475.91c-64.93-42-154.6-84-240.6-54-68,326-354,812.82-200,1152-18,66-146,332-134,448,178,36,337.21,114,430.61,66,0-76,1.39-104,33.39-176s200-594,150-708,210.23-101.58,210.23-101.58Z"/></g><path class="cls-33" d="M1101.21,572.63S1056,729.89,1051.7,741.19c35.51,0,89.87-11.3,110.31-10.76s120.54,54.61,122.16,73.31c15.6-26.5,57.58-144.34,79.64-163.18C1349.28,628.18,1264.26,540.76,1101.21,572.63Z"/><path class="cls-34" d="M1619.42,990.9l105.07-112.85a129.21,129.21,0,0,0,34.37-95.34c-2.59-46.05-10.68-100.15-35-81.28-20.55,16-188.55,38-241.49,15-79.49-34.5-94.49,45-94.49,45s-66,204.59-135,252.29c7.5,50.22,15,88.19,15,88.19Z"/><path class="cls-11" d="M1463.61,803.74s-8.48-53.11,57.66-50.1,179.16,1.9,202.62-52.21c-156.74,72.75-260.28,14.6-260.28,14.6S1438,779.69,1463.61,803.74Z"/><path class="cls-11" d="M1719.08,750.94c16.89-60.74-35.41,181.89-99.66,240s-20.31-51.35-20.31-51.35S1685.28,872.45,1719.08,750.94Z"/><path class="cls-11" d="M1513.9,840s120.32-30.65,210-138.6c-13.43,80.85-96,145.49-167.24,205.87C1491.29,962.68,1513.9,840,1513.9,840Z"/><path class="cls-35" d="M1312.91,978.92l-102,220.48s127.49,132,144,169.5,70.5,36,121.49-7.5,142.9-114,165.95-118.5c-8.35-40.5-23.45-147-14.46-189s-212.81-136.42-212.81-136.42l-42.17-.07Z"/><path class="cls-11" d="M1414.47,1271.62c-32.13-3.24-66.32,15-92.06,51.24,15.73,19.22,28.09,36,32.5,46C1354.91,1368.9,1366.57,1307,1414.47,1271.62Z"/><path class="cls-11" d="M1256.6,1248c9.59,10.42,19.92,21.78,30.16,33.31,15.55-17.4,38.72-37.43,69-47.7C1327.23,1221.19,1291.27,1226,1256.6,1248Z"/><path class="cls-36" d="M1476.4,1361.4c51-43.5,142.9-114,165.95-118.5-8.35-40.5-23.45-147-14.46-189,4.38-20.41-45.76-53.2-98.45-81.51-4.79,63.91-17.24,223.13-23.45,234.82-6.42,12.09-59.83,134.88-102.39,188.24C1425.35,1394.09,1451.24,1382.86,1476.4,1361.4Z"/><path class="cls-37" d="M1613.42,1057.46s44.72,24.8,56.39-22.65-50.39-43.91-50.39-43.91Z"/><path class="cls-17" d="M1651.64,1019.53a32.3,32.3,0,0,1-7.26,6.51,29.87,29.87,0,0,1-9.19,4,27.61,27.61,0,0,1-10.34.64,31.61,31.61,0,0,1-5.18-1,6.89,6.89,0,0,1-1.27-.38l-1.23-.45-2.48-.93,3.34-6.15,1.87,1.11a15,15,0,0,0,1.91,1.07,26.09,26.09,0,0,0,4.06,1.59,23,23,0,0,0,8.76,1,26.9,26.9,0,0,0,8.92-2.12A31.07,31.07,0,0,0,1651.64,1019.53Z"/><path class="cls-16" d="M1437.4,861.92l-70.49,175.49-25.5,18s33,61.5,31.5,117c22.5-1.5,40.81-1.5,95.4,0s66.59,15,66.59,15l64.5-55.5,28.49-94.5V969.92l10.5-55.5s-21-63-96-78S1437.4,861.92,1437.4,861.92Z"/><path class="cls-38" d="M1534.82,1182.2c-6.29-4.29-23.41-12.36-64.34-13.73l9.25-41.51,36.22-6.35,15.71-17.45-13.68-83.6,41.56-174.39c53,18.2,72,62.61,74.72,69.59l-10.37,54.78v67.28l-28,92.82Z"/><path class="cls-17" d="M1438.9,1101.91c6.06,3.39,12,6.52,18,9.3a117.68,117.68,0,0,0,18.39,6.82,68.92,68.92,0,0,0,19,2.44,67.6,67.6,0,0,0,19.54-3.56,38.11,38.11,0,0,1-19,9,49.91,49.91,0,0,1-21.41-1.15,67.14,67.14,0,0,1-19.25-8.79A61.58,61.58,0,0,1,1438.9,1101.91Z"/><line class="cls-39" x1="1546.9" y1="1019.41" x2="1566.4" y2="1019.41"/><line class="cls-39" x1="1478.31" y1="1001.92" x2="1448.9" y2="989.42"/><path class="cls-40" d="M1372.91,917.42s-39-48-73.5,0,36.75,72,36.75,72Z"/><path class="cls-17" d="M1312.91,942.75a38.46,38.46,0,0,1,11.1-3.84,36.58,36.58,0,0,1,12-.24,34.79,34.79,0,0,1,11.7,4,43.43,43.43,0,0,1,9.84,7.75l-5.39,4.47a36.52,36.52,0,0,0-7.33-7.82,30.21,30.21,0,0,0-9.59-5,33.93,33.93,0,0,0-11.08-1.43A37.67,37.67,0,0,0,1312.91,942.75Z"/><path class="cls-38" d="M1567.15,821.42c7.74-3.07,15.26-6.67,22.7-10.39s14.73-7.75,21.9-12a419.07,419.07,0,0,0,41.36-27.81q9.87-7.6,19.25-15.79l4.63-4.17,2.31-2.09,2.25-2.14c1.5-1.43,3-2.84,4.5-4.3l4.4-4.4c1.48-1.45,2.88-3,4.31-4.48s2.87-3,4.25-4.54c2.74-3.1,5.56-6.15,8.17-9.36,5.39-6.3,10.4-12.9,15.29-19.58l2.11,2.63c-9.63,4.05-19.35,7.68-29.17,11.13s-19.72,6.63-29.72,9.48c-20,5.72-40.34,10.44-61.08,13a216.61,216.61,0,0,1-31.31,1.65c-2.63-.12-5.25-.24-7.87-.43l-3.92-.4-2-.19c-.65-.08-1.3-.2-2-.3l-3.91-.61c-1.3-.17-2.58-.54-3.88-.8s-2.59-.56-3.85-.87l-3.77-1L1482,718.08l-.4-.1-.36-.32c-2.53-2.22-6-4.07-9.23-4.06a8.59,8.59,0,0,0-4.63,1.33,13.54,13.54,0,0,0-3.72,3.57,34.41,34.41,0,0,0-4.74,10c-.58,1.79-1.06,3.63-1.5,5.47l-1.27,5.64c-.44,1.89-.84,3.8-1.32,5.68l-1.51,5.62-.76,2.81-.82,2.78-1.65,5.57c-1.11,3.71-2.32,7.38-3.47,11.08l-3.64,11c-4.92,14.66-10.29,29.15-15.7,43.63s-11,28.86-16.85,43.17q4-10.86,7.93-21.77t7.78-21.82q7.68-21.86,14.78-43.89l3.48-11c1.1-3.7,2.25-7.38,3.31-11.08l1.56-5.57L1450,753l.71-2.79,1.42-5.59c.45-1.87.82-3.75,1.23-5.62l1.2-5.68c.43-1.92.89-3.83,1.48-5.72a37.17,37.17,0,0,1,5-10.93,16.85,16.85,0,0,1,4.54-4.44,12,12,0,0,1,6.32-1.9,14.92,14.92,0,0,1,3.28.37,18.38,18.38,0,0,1,3,1.05,21.73,21.73,0,0,1,2.76,1.52,20.15,20.15,0,0,1,2.54,1.94l-.75-.41,60.3,15.2,3.77,1c1.25.31,2.48.55,3.73.83s2.46.61,3.73.76l3.78.59c.63.09,1.25.21,1.88.28l1.91.18,3.81.38c2.55.18,5.11.29,7.66.4a212.27,212.27,0,0,0,30.73-1.7,401.19,401.19,0,0,0,60.5-12.72,583.65,583.65,0,0,0,58.57-20.12l5.76-2.36-3.65,5a307.52,307.52,0,0,1-32.78,38l-4.49,4.38c-1.52,1.44-3.07,2.85-4.6,4.27l-2.3,2.13-2.36,2.07-4.71,4.13q-9.57,8.12-19.6,15.63a383.11,383.11,0,0,1-42.08,27.13A325.71,325.71,0,0,1,1567.15,821.42Z"/><path class="cls-38" d="M1725.81,702c-2.17,7.1-4.59,14.1-7.43,20.94s-5.91,13.56-9.35,20.1-7,13-10.89,19.26-7.9,12.45-12.16,18.46a413.26,413.26,0,0,1-27.32,34.64,391.61,391.61,0,0,1-30.77,31.55,390.27,390.27,0,0,0,30-32.2,411.79,411.79,0,0,0,26.44-35.13q6.14-9.11,11.65-18.6c3.71-6.31,7.14-12.77,10.36-19.33s6.1-13.27,8.78-20,4.86-13.74,6.84-20.73Z"/><path class="cls-38" d="M1651.64,896.09a243.36,243.36,0,0,0,15.27-21.52c4.74-7.4,9.17-15,13.35-22.74a397,397,0,0,0,22-47.88,331.61,331.61,0,0,0,14.8-50.42,234,234,0,0,0,4.88-52.06l4-.08a237.32,237.32,0,0,1-6,52.77,333,333,0,0,1-15.87,50.52,398.88,398.88,0,0,1-22.94,47.64q-6.5,11.5-13.81,22.53A242.69,242.69,0,0,1,1651.64,896.09Z"/><path class="cls-41" d="M1269.91,2349.68l85,27s223.6-101.58,422.24-251.18c-35.18,13.8-190.59,115.09-261.07,130.62-172.43,38-209.77-5-261.07,22.76C1255,2278.88,1275.6,2279.3,1269.91,2349.68Z"/><path class="cls-42" d="M1295.84,2802.79a378.47,378.47,0,0,0,21.65,66S1335,2799.36,1386.9,2734Z"/><path class="cls-43" d="M1185.94,2967.08c-23.68,0-63.81-23.68-75.84-44.34v120C1116.48,3001.34,1148,3005.88,1185.94,2967.08Z"/><path class="cls-44" d="M1879.65,1458.12s-4.67-22,6-30c-10-14.66-38.67-36-28.67-91.33s3.33-70.67,3.33-70.67-11.33-32.66,40-28.66,60.67-56,32-68-24-38-8-61.34c-13.33-23.33-42-99.45,67.34-135.72S2049,882.12,2049,882.12s89.33,46.68,4.67,142,6,117.33,6,117.33,64.24,14,30.45,92.66c-25.79,2-41.79,17.34-25.12,39.34s6.44,134.66-65.11,154v16.34S1912.31,1478.12,1879.65,1458.12Z"/><path class="cls-29" d="M1212.45,1239.46l8.7,40.63a4.92,4.92,0,0,1-.08,2.44c-3.49,12.12-33.55,112.12-93.87,181.53a5.49,5.49,0,0,0-.5.69l-24.53,40.89a4.94,4.94,0,0,1-2.13,1.94c-4.5,2.16-18.6,8.11-21.12-.69-2.83-9.91-24.56-80-27-87.87a5,5,0,0,1-.22-1.48v-29.21a5,5,0,0,0-8.16-3.94l-11.56,9.19a5,5,0,0,0-1.74,5.19l11.07,43.16a4.38,4.38,0,0,0,.3.86c2.8,6,35.36,76.86,25.31,88.22-8.07,9.14-12.73,21.55-14.45,26.79a5,5,0,0,1-3.38,3.25c-14.1,4.06-81.69,23.62-111.16,34.34-19.94,7.24-36.59-8-47-25.09-2.79-4.6-9.89-2.1-9.27,3.25,5.47,47.5,20.24,109.69,36.13,138.12a5,5,0,0,0,9.26-1.3c15.64-63.77,31.72-100.8,55.86-101.13,21-.29,58.42-18.5,80.12-37.17a5,5,0,0,1,8.19,4.86c-8.86,41.82-21.59,71.72-30,98-2,6.21,7.19,9.4,9.5,3.29,16.77-44.36,35.71-100.8,43.2-100.8,4.27,0,7.55,3.71,9.93,8.13a5,5,0,0,0,9.4-1.35c2.18-11.24,3-26-4.34-35.21a5,5,0,0,1,.26-6.55c40.66-43.48,138.46-146,143.75-227.54a5,5,0,0,1,8.85-3c40.12,46.84,67.19,69.89,83.3,81.13a5,5,0,0,0,7-7c-27.86-40.65-98.31-139.5-132.94-152.32A5,5,0,0,0,1212.45,1239.46Z"/><path class="cls-29" d="M1186.92,1281.31s-70.5-2.08-91.5,0,91.5,17.09,82.5,54.59c16.5-27.76,29.84-54.59,29.84-54.59Z"/><path class="cls-29" d="M982.93,1242.9s-64.5,51-75,103.5c12-66,18-139.78,37.5-189.88C945.43,1187.41,948.43,1239.9,982.93,1242.9Z"/><path class="cls-29" d="M1150.28,1112.7l-28.66,60.55s56.3-.75,63.8,9C1165.92,1123.49,1150.28,1112.7,1150.28,1112.7Z"/><path class="cls-29" d="M1113.42,946.12l-93,286.2s-16.26,141.48-27.83,227.51a3,3,0,0,0,5.9,1C1025.41,1338.47,1070.89,1083.59,1113.42,946.12Z"/><path class="cls-29" d="M819.79,2128.09l45.58-108.54a170.59,170.59,0,0,0,11.29-39.75l20.77-132.43L876.52,2127.1A33.7,33.7,0,0,1,833.65,2157h0A21.42,21.42,0,0,1,819.79,2128.09Z"/><path class="cls-29" d="M1182.08,2224.73s-12.54-149,28.85-265.26,12.33-238.09,12.33-238.09,5.44,198.12-73,296.23-68.73,207.12-68.73,207.12S1122.73,2251.38,1182.08,2224.73Z"/><polygon class="cls-29" points="1080.54 707.95 1163.19 697.57 1114.31 582.79 1080.54 707.95"/><path class="cls-29" d="M1341.41,640.59s-117.75,77.3-126.94,79.6,61.75,16.38,63.47,45.92C1297.13,721.72,1341.41,640.59,1341.41,640.59Z"/><path class="cls-45" d="M1092.25,684.52c4.63-1.65,9.33-3.08,14.06-4.41s9.49-2.55,14.29-3.64a262.18,262.18,0,0,1,29.15-4.87c9.81-1,19.78-1.74,29.69-.55a88,88,0,0,1,14.65,2.86,63,63,0,0,1,13.75,5.7l-.17.36a125.76,125.76,0,0,0-14.2-3.32l-3.58-.56-3.6-.43c-1.19-.17-2.4-.24-3.6-.36l-1.8-.17-1.81-.1c-4.81-.34-9.65-.48-14.49-.57-2.42-.07-4.85,0-7.28,0s-4.86.16-7.29.33a256.49,256.49,0,0,0-29,3.64,292.23,292.23,0,0,0-28.62,6.47Z"/><path class="cls-45" d="M1113.1,642.7c6-1.28,12-2.32,18.09-3.26s12.13-1.75,18.22-2.44c12.19-1.32,24.44-2.22,36.73-2.42s24.66-.1,36.88,1.89a134.83,134.83,0,0,1,18.08,4,93.51,93.51,0,0,1,17.16,6.89l-.16.37a190.12,190.12,0,0,0-35.63-7.33c-6-.74-12-1.28-18.1-1.77-3-.26-6.06-.43-9.1-.6s-6.08-.25-9.12-.28c-12.18-.2-24.38.3-36.56,1.21s-24.33,2.22-36.41,4.1Z"/><path class="cls-45" d="M1132.28,658.59c7.27-1.13,14.58-1.86,21.91-2.39s14.69-.8,22-.81,14.73.32,22.08.9,14.68,1.54,22,2.83a177.84,177.84,0,0,1,21.62,5.16c3.56,1.07,7,2.42,10.51,3.75l5.1,2.3,1.27.59,1.23.66,2.47,1.32a88.69,88.69,0,0,1,18.19,13,75.16,75.16,0,0,1,13.81,17.36l-.33.22A99.08,99.08,0,0,0,1278.83,688c-1.44-1.09-2.88-2.18-4.3-3.29l-4.51-3-1.13-.75-1.17-.67-2.34-1.35-2.34-1.35-2.43-1.2c-3.18-1.7-6.51-3.08-9.8-4.56-3.36-1.32-6.69-2.73-10.15-3.83a161.58,161.58,0,0,0-21-5.78q-10.7-2.19-21.59-3.38c-7.26-.78-14.56-1.26-21.87-1.49s-14.63-.24-22,0-14.65.72-21.92,1.59Z"/><circle class="cls-12" cx="1128" cy="210.65" r="35.2"/><circle class="cls-44" cx="2145.25" cy="611.01" r="45.33"/><circle class="cls-44" cx="465.23" cy="1401.25" r="32.35"/><path class="cls-46" d="M1509.8,723.44l-27.4-7h0s-5.43-5.18-11.66-4.4c-69.32-22.18-82.83,49.4-82.83,49.4s-21.93,68-53.71,134.67c-11-.14-23.15,5.12-34.79,21.32-13.73,19.11-10.7,34.41-2.08,45.91-14.22,21.82-29.24,39.9-44.42,50.39,4.35,29.07,8.68,54,11.57,69.89l-53.56,115.79s20.26,21,45.68,48.6c3.22,3.5,6.53,7.11,9.89,10.8,38.5-124.55,123.94-335.73,298.91-532.53C1545.08,726.59,1525.83,725.79,1509.8,723.44Z"/></g></g></g></svg>