<svg xmlns="http://www.w3.org/2000/svg" viewBox="0 0 103.33 103.67"><defs><style>.cls-1{fill:#133f6c;}</style></defs><title>Asset 3</title><g id="Layer_2" data-name="Layer 2"><g id="Layer_1-2" data-name="Layer 1"><path class="cls-1" d="M51.48,103.67H7.84c-3.34,0-6-1.21-7.32-4.43A5.89,5.89,0,0,1,0,97C0,90.86,0,84.69,0,78.51A6.92,6.92,0,0,1,6.51,72c.46,0,.92,0,1.38,0,29.14,0,58.29.06,87.43-.06a7.79,7.79,0,0,1,8,8c-.13,5.36,0,10.72,0,16.08,0,2.66-.94,5-3.27,6.36a9.33,9.33,0,0,1-4.44,1.25C80.88,103.7,66.18,103.67,51.48,103.67ZM78.6,79.38c-4.19,0-8.37,0-12.56,0-2.64,0-4,2.41-2.95,4.83.74,1.73,2.14,1.86,3.66,1.86q11.87,0,23.74,0a5.36,5.36,0,0,0,2-.24A3.32,3.32,0,0,0,94,84.63c1.49-2.59.07-5.18-2.89-5.23C87,79.32,82.78,79.38,78.6,79.38Zm4.47,16.84c2.8,0,5.61,0,8.41,0a2.68,2.68,0,0,0,3-2.87c.15-2.9-.76-3.9-3.68-3.92-5,0-10.09,0-15.14,0-3.34,0-4.08.78-3.89,4.08.11,2,.82,2.7,2.89,2.71C77.46,96.24,80.26,96.22,83.06,96.22Z"/><path class="cls-1" d="M51.52,66.54c-7.91,0-15.82,0-23.73,0-1.42,0-1.94-.38-2-1.88-.19-4.78-.55-9.56-.84-14.34-.21-3.5-.44-7-.63-10.51-.23-4.29.94-4.05,4-5.1a2.2,2.2,0,0,0,1.82-2.47c0-4.64-.14-9.31.29-13.92C31.07,11.87,34.58,7,39.93,3.39A20.19,20.19,0,0,1,52.82.06,20.91,20.91,0,0,1,70,10.45a1.71,1.71,0,0,1-.41,1.63,45.92,45.92,0,0,1-5.31,3c-.33.16-1.25-.33-1.53-.76a13.17,13.17,0,0,0-21.9-.59,14.57,14.57,0,0,0-2.67,8.44q0,4.36,0,8.73c0,2,.17,2.2,2.19,2.21,6.58,0,13.17-.05,19.75,0a111.9,111.9,0,0,1,11.44.68,20.9,20.9,0,0,1,5.75,1.86,2.9,2.9,0,0,1,1.71,3c-.26,4.27-.48,8.54-.7,12.81-.16,3-.27,6-.45,9-.09,1.57-.3,3.14-.4,4.71-.08,1.28-.88,1.38-1.9,1.38C67.54,66.53,59.53,66.54,51.52,66.54Zm-.06-3.95c6.06,0,11.73-1.24,16.3-5.58,2.31-2.2,3.84-4.82,3.25-8.15a10.85,10.85,0,0,0-4.47-6.7c-4.82-3.7-10.38-4.71-16.27-4.49S39,39.42,34.81,43.82s-3.48,9.67.83,13.49C40.12,61.28,45.57,62.64,51.46,62.59Z"/><path class="cls-1" d="M44.89,50.24c.36-2.95,2.61-5.82,5-6.19,1-.15,1.5,0,1.53,1.22.07,3.06,1.92,4.81,5,4.9,1.39,0,1.5.35,1.14,1.7-1.43,5.4-8.47,5.73-10.91,2.26A24,24,0,0,1,44.89,50.24Z"/></g></g></svg>