<?xml version="1.0" encoding="utf-8"?>
<!-- Generator: Adobe Illustrator 19.0.1, SVG Export Plug-In . SVG Version: 6.00 Build 0)  -->
<svg version="1.1" id="Calque_1" xmlns="http://www.w3.org/2000/svg" xmlns:xlink="http://www.w3.org/1999/xlink" x="0px" y="0px"
	 viewBox="0 0 49.2 49.5" style="enable-background:new 0 0 49.2 49.5;" xml:space="preserve">
<g>
	<path d="M34.5,30.8c0-0.2,0-0.5,0.1-0.7c0.1-0.2,0.2-0.4,0.4-0.5c0.2-0.2,0.3-0.3,0.5-0.4c0.2-0.1,0.4-0.1,0.7-0.1
		c0.2,0,0.5,0,0.7,0.1c0.2,0.1,0.4,0.2,0.5,0.4c0.2,0.2,0.3,0.3,0.4,0.5c0.1,0.2,0.1,0.4,0.1,0.7c0,0.2,0,0.5-0.1,0.7
		c-0.1,0.2-0.2,0.4-0.4,0.5c-0.2,0.2-0.3,0.3-0.5,0.4c-0.2,0.1-0.4,0.1-0.7,0.1c-0.2,0-0.5,0-0.7-0.1c-0.2-0.1-0.4-0.2-0.5-0.4
		c-0.2-0.2-0.3-0.3-0.4-0.5C34.5,31.2,34.5,31,34.5,30.8z"/>
</g>
<g>
	<path d="M34.5,41.5c0-0.2,0-0.5,0.1-0.7c0.1-0.2,0.2-0.4,0.4-0.5c0.2-0.2,0.3-0.3,0.5-0.4c0.2-0.1,0.4-0.1,0.7-0.1
		c0.2,0,0.5,0,0.7,0.1c0.2,0.1,0.4,0.2,0.5,0.4c0.2,0.2,0.3,0.3,0.4,0.5c0.1,0.2,0.1,0.4,0.1,0.7c0,0.2,0,0.5-0.1,0.7
		c-0.1,0.2-0.2,0.4-0.4,0.5c-0.2,0.2-0.3,0.3-0.5,0.4c-0.2,0.1-0.4,0.1-0.7,0.1c-0.2,0-0.5,0-0.7-0.1c-0.2-0.1-0.4-0.2-0.5-0.4
		c-0.2-0.2-0.3-0.3-0.4-0.5C34.5,42,34.5,41.7,34.5,41.5z"/>
</g>
<path d="M37.7,22.5H11.5c-3.4,0-5.8,3.3-5.8,6.7v13.7c0,3.4,2.4,6.6,5.8,6.6h26.1c3.7,0,7.1-3.4,7.1-7.1V29.5
	C44.6,25.9,41.3,22.5,37.7,22.5z M11.5,26.5h26.2c1.4,0,2.9,1.6,2.9,3v5h-31v-5.3C9.6,28,10.2,26.5,11.5,26.5z M37.5,45.5H11.5
	c-1.2,0-1.8-1.4-1.8-2.6v-4.4h31v3.9C40.6,43.9,39,45.5,37.5,45.5z"/>
<g>
	<path d="M2.8,25.4L0,22.6L20.9,1.7c2.3-2.3,5.6-2.3,7.8-0.1l4,4v-5h13v18.3l3.6,3.7l-2.9,2.8l-4.7-4.9v-16h-5v10.7L25.9,4.4
		c-0.7-0.7-1.6-0.4-2.1,0.1L2.8,25.4z"/>
</g>
</svg>
