<svg width="100%" height="100%" viewBox="0 0 54 54" version="1.1" xmlns="http://www.w3.org/2000/svg" xmlns:xlink="http://www.w3.org/1999/xlink">
    <g id="Symbols" stroke="none" stroke-width="1" fill="none" fill-rule="evenodd">
        <g id="icone_sablier_header">
            <g id="sablier">
                <rect id="Rectangle-3" x="0" y="0" width="54" height="54"></rect>
                <polygon id="Stroke-1" stroke="#122844" stroke-linejoin="round" points="11.5 13.5 42.5 13.5 42.5 11.5 11.5 11.5"></polygon>
                <polygon id="Stroke-3" stroke="#122844" stroke-linejoin="round" points="11.5 42.5 42.5 42.5 42.5 40.5 11.5 40.5"></polygon>
                <polyline id="Stroke-4" stroke="#122844" stroke-linejoin="round" points="17.4893 40.5 26.9893 31.5 36.4893 40.5"></polyline>
                <polygon id="Stroke-5" stroke="#122844" stroke-linejoin="round" points="26.9893 26.5 21.4893 21.5 32.4893 21.5"></polygon>
                <path d="M41.4893,40.5 C41.4893,34.351 37.6553,29.108 32.2533,27 C37.6553,24.892 41.4893,19.649 41.4893,13.5" id="Stroke-6" stroke="#122844" stroke-linejoin="round"></path>
                <path d="M12.4893,13.5 C12.4893,19.649 16.3243,24.892 21.7263,27 C16.3243,29.108 12.4893,34.351 12.4893,40.5" id="Stroke-7" stroke="#122844" stroke-linejoin="round"></path>
            </g>
        </g>
    </g>
</svg>
