<svg data-name="Calque 1" xmlns="http://www.w3.org/2000/svg" viewBox="0 0 14 14"><title>VDI icon blanc copy</title><path d="M11.77 8.34a1.6 1.6 0 0 0 1.72-1.49A1.71 1.71 0 0 0 12.19 5h-.08a2.78 2.78 0 0 0-.72-2 2.57 2.57 0 0 0-1.92-.83A2.76 2.76 0 0 0 6.93.5 2.76 2.76 0 0 0 4.4 2.09a2.56 2.56 0 0 0-1.92.83 2.83 2.83 0 0 0-.7 2L1.73 5A1.44 1.44 0 0 0 .52 6.65 1.69 1.69 0 0 0 2.36 8h.1" fill="none" stroke="#fff" stroke-miterlimit="10" stroke-width=".99"/><rect x="2.5" y="5.5" width="9" height="6" rx="1" ry="1" fill="none" stroke="#fff" stroke-miterlimit="10"/><path fill="none" stroke="#fff" stroke-miterlimit="10" d="M3 13.5h8M5.5 14v-3M8.5 14v-3"/><path fill="#fff" d="M4 7h6v3H4z"/></svg>