<?xml version="1.0" encoding="UTF-8"?>
<svg width="471px" height="515px" viewBox="0 0 471 515" version="1.1" xmlns="http://www.w3.org/2000/svg" xmlns:xlink="http://www.w3.org/1999/xlink">
    <!-- Generator: Sketch 46.2 (44496) - http://www.bohemiancoding.com/sketch -->
    <title>hacker rouge</title>
    <desc>Created with Sketch.</desc>
    <defs>
        <polygon id="path-1" points="0.184955556 0.629 176.9344 0.629 176.9344 164.5616 0.184955556 164.5616"></polygon>
        <polygon id="path-3" points="0 514.371 470.972 514.371 470.972 1 0 1"></polygon>
    </defs>
    <g id="Symbols" stroke="none" stroke-width="1" fill="none" fill-rule="evenodd">
        <g id="hacker-rouge">
            <g id="Page-1">
                <path d="M155.5787,125.8232 C155.5787,125.8232 155.5787,111.0462 146.4737,112.3502 C146.4737,112.3502 141.7397,111.0462 143.9237,121.0432 C146.1097,131.0382 146.4737,153.6392 146.4737,153.6392 L152.6647,169.7202 L160.6777,169.7202 L162.4987,162.7662 L155.5787,125.8232 Z" id="Fill-1" fill="#EABB93"></path>
                <path d="M318.6237,125.8232 C318.6237,125.8232 318.6237,111.0462 327.7287,112.3502 C327.7287,112.3502 332.4637,111.0462 330.2787,121.0432 C328.0937,131.0382 327.7287,153.6392 327.7287,153.6392 L321.5377,169.7202 L313.5247,169.7202 L311.7047,162.7662 L318.6237,125.8232 Z" id="Fill-3" fill="#EABB93"></path>
                <path d="M316.4918,52.0263 L238.5578,30.8783 L160.6278,52.0263 C160.6278,52.0263 161.0688,170.2113 160.6468,180.5783 C160.2258,190.9443 166.5428,196.3363 166.5428,196.3363 L198.1298,229.5103 C207.3948,241.5353 218.3448,241.5353 218.3448,241.5353 L238.5578,241.5353 L258.7738,241.5353 C258.7738,241.5353 269.7228,241.5353 278.9898,229.5103 L310.5768,196.3363 C310.5768,196.3363 316.8918,190.9443 316.4708,180.5783 C316.0498,170.2113 316.4918,52.0263 316.4918,52.0263" id="Fill-5" fill="#EABB93"></path>
                <g id="Group-9" transform="translate(150.000000, 0.371000)">
                    <mask id="mask-2" fill="white">
                        <use xlink:href="#path-1"></use>
                    </mask>
                    <g id="Clip-8"></g>
                    <path d="M174.8024,52.3526 C170.9444,29.8646 152.0774,16.7396 132.9714,9.1316 C104.5034,-2.2054 72.6144,-2.2054 44.1474,9.1316 C25.0414,16.7396 6.1754,29.8646 2.3174,52.3526 C-2.4806,80.3146 2.3174,124.6666 2.3174,124.6666 L10.7864,164.5616 L12.1304,80.8976 L25.7384,65.0396 L30.7624,57.8856 C30.7624,57.8856 55.6524,67.2506 88.5594,67.2506 C121.4664,67.2506 146.3564,57.8856 146.3564,57.8856 L151.3804,65.0396 L164.9894,80.8976 L166.3324,164.5616 L174.8024,124.6666 C174.8024,124.6666 179.5994,80.3146 174.8024,52.3526" id="Fill-7" fill="#221E1F" mask="url(#mask-2)"></path>
                </g>
                <path d="M299.5006,428.1928 L171.5596,428.1928 C165.7456,452.1308 159.9526,476.0708 154.1356,500.0078 L316.9166,500.0078 C311.1116,476.0708 305.2876,452.1308 299.5006,428.1928" id="Fill-10" fill="#868484"></path>
                <path d="M327.7985,500.0083 L148.0355,500.0083 C143.4645,500.0083 139.7735,504.6843 139.7735,510.4503 L139.7735,514.3703 L336.0675,514.3703 L336.0675,510.4503 C336.0675,504.6843 332.3575,500.0083 327.7985,500.0083" id="Fill-12" fill="#CFD3D8"></path>
                <path d="M29.6564,409.0424 L29.6564,441.0014 C29.6564,447.1464 34.2394,452.1314 39.9024,452.1314 L431.1444,452.1314 C436.8044,452.1314 441.3964,447.1464 441.3964,441.0014 L441.3964,409.0424 L29.6564,409.0424 Z" id="Fill-14" fill="#CFD3D8"></path>
                <path d="M431.1442,155.2959 L39.9022,155.2959 C34.2392,155.2959 29.6562,159.7849 29.6562,165.3309 L29.6562,409.0429 L441.3962,409.0429 L441.3962,165.3309 C441.3962,159.7849 436.8052,155.2959 431.1442,155.2959" id="Fill-16" fill="#221E1F"></path>
                <mask id="mask-4" fill="white">
                    <use xlink:href="#path-3"></use>
                </mask>
                <g id="Clip-19"></g>
                <polygon id="Fill-18" fill="#06849C" mask="url(#mask-4)" points="48.807 394.679 422.245 394.679 422.245 169.658 48.807 169.658"></polygon>
                <path d="M249.0231,100.6313 C243.1111,102.8713 236.9861,102.7463 226.9951,100.6313 C211.8191,97.4183 173.0321,87.9363 155.5261,104.1723 L155.5261,136.7623 C155.5261,136.7623 184.6221,164.1153 233.5321,134.6733 C235.9821,133.1983 240.0361,133.1983 242.4871,134.6733 C291.3971,164.1153 320.4921,136.7623 320.4921,136.7623 L320.4921,104.1723 C302.9861,87.9363 263.5301,95.1343 249.0231,100.6313" id="Fill-20" fill="#221E1F" mask="url(#mask-4)"></path>
                <path d="M170.1754,110.6284 C170.1754,149.6214 224.3994,119.7534 224.3994,119.7534 C201.0784,100.4524 170.1754,110.6284 170.1754,110.6284" id="Fill-21" fill="#FEFEFE" mask="url(#mask-4)"></path>
                <path d="M251.6188,119.7539 C251.6188,119.7539 305.8438,149.6219 305.8438,110.6289 C305.8438,110.6289 274.9398,100.4529 251.6188,119.7539" id="Fill-22" fill="#FEFEFE" mask="url(#mask-4)"></path>
                <path d="M441.3961,234.6215 C462.9981,235.5475 470.9721,255.4135 470.9721,278.9715 C470.9721,303.1215 462.1791,330.8585 436.9861,333.2885 C422.8441,334.6515 412.5541,330.6165 412.5541,323.2985 C412.5541,319.6925 415.3521,316.4265 419.8871,314.0375 C411.9641,311.6985 406.6871,307.5325 406.6871,302.7795 C406.6871,299.4525 409.2801,296.4135 413.5511,294.0865 C407.1001,291.6555 403.0001,288.0275 403.0001,283.9715 C403.0001,278.8465 409.5421,274.4045 419.1101,272.1995 C415.0521,269.8185 412.5541,266.5875 412.5541,263.0255 C412.5541,255.8505 429.8821,248.1215 441.3961,241.8715 L441.3961,234.6215 Z" id="Fill-23" fill="#EABB93" mask="url(#mask-4)"></path>
                <path d="M29.5758,234.6215 C7.9738,235.5475 -0.0002,255.4135 -0.0002,278.9715 C-0.0002,303.1215 8.7928,330.8585 33.9858,333.2885 C48.1278,334.6515 58.4178,330.6165 58.4178,323.2985 C58.4178,319.6925 55.6188,316.4265 51.0848,314.0375 C59.0078,311.6985 64.2848,307.5325 64.2848,302.7795 C64.2848,299.4525 61.6918,296.4135 57.4208,294.0865 C63.8708,291.6555 67.9718,288.0275 67.9718,283.9715 C67.9718,278.8465 61.4298,274.4045 51.8628,272.1995 C55.9198,269.8185 58.4178,266.5875 58.4178,263.0255 C58.4178,255.8505 41.0898,248.1215 29.5758,241.8715 L29.5758,234.6215 Z" id="Fill-24" fill="#EABB93" mask="url(#mask-4)"></path>
                <path d="M319.6022,213.0092 C269.5222,218.2092 236.5702,187.2642 236.5702,187.2642 C236.5702,187.2642 203.6082,218.2092 153.5472,213.0092 C153.5472,213.0092 138.0902,352.6902 236.5702,380.4462 C335.0742,352.6902 319.6022,213.0092 319.6022,213.0092" id="Fill-25" fill="#FEFEFE" mask="url(#mask-4)"></path>
                <path d="M236.5699,362.4956 C175.4239,341.6226 169.4429,264.2606 169.8349,230.6466 C200.1849,229.4466 223.4959,217.4406 236.5699,208.7526 C249.6329,217.4406 272.9379,229.4356 303.2809,230.6416 C303.5999,264.2656 297.4789,341.6766 236.5699,362.4956" id="Fill-26" fill="#BE1E2D" mask="url(#mask-4)"></path>
                <path d="M237.0309,216.6772 C237.0279,216.6822 237.0239,216.6822 237.0159,216.6872 L237.0159,354.5672 L237.0309,354.5722 C291.6639,335.8982 297.1509,266.4682 296.8679,236.3092 C269.6509,235.2272 248.7489,224.4692 237.0309,216.6772" id="Fill-27" fill="#EE4136" mask="url(#mask-4)"></path>
                <path d="M171.5299,232.2783 C171.3659,265.3633 177.7479,340.1523 236.5699,360.6843 C295.1639,340.2043 301.6729,265.3753 301.5799,232.2783 C272.9179,230.7743 250.5969,219.9613 236.5699,210.7983 C222.5299,219.9613 200.1919,230.7803 171.5299,232.2783 L171.5299,232.2783 Z M236.5699,364.3003 L236.0159,364.1133 C173.5829,342.7973 167.7379,263.6633 168.1229,230.6273 L168.1429,229.0033 L169.7669,228.9373 C199.0809,227.7743 221.7589,216.5443 235.6229,207.3283 L236.5699,206.6933 L237.5179,207.3283 C251.3699,216.5373 274.0349,227.7683 303.3479,228.9303 L304.9759,228.9973 L304.9929,230.6273 C305.3019,263.6793 299.3149,342.8533 237.1229,364.1133 L236.5699,364.3003 Z" id="Fill-28" fill="#95121E" mask="url(#mask-4)"></path>
                <path d="M222.1691,269.2104 L222.1691,260.0164 C222.1691,250.3344 230.0441,242.4554 239.7211,242.4554 L240.3711,242.4554 C250.0481,242.4554 257.9201,250.3344 257.9201,260.0164 L257.9201,269.2104 L222.1691,269.2104 Z M269.6261,269.2104 L266.2771,269.2104 L266.2771,260.0164 C266.2771,245.7224 254.6541,234.1004 240.3711,234.1004 L239.7211,234.1004 C225.4341,234.1004 213.8151,245.7224 213.8151,260.0164 L213.8151,269.2104 L210.4641,269.2104 C208.1721,269.2104 206.2981,271.0834 206.2981,273.3794 L206.2981,322.1184 C206.2981,324.4074 208.1721,326.2854 210.4641,326.2854 L269.6261,326.2854 C271.9181,326.2854 273.7921,324.4074 273.7921,322.1184 L273.7921,273.3794 C273.7921,271.0834 271.9181,269.2104 269.6261,269.2104 L269.6261,269.2104 Z" id="Fill-29" fill="#141411" mask="url(#mask-4)"></path>
                <path d="M270.2467,318.5727 C270.2467,320.8617 268.3717,322.7397 266.0777,322.7397 L206.9187,322.7397 C204.6267,322.7397 202.7527,320.8617 202.7527,318.5727 L202.7527,269.8347 C202.7527,267.5357 204.6267,265.6647 206.9187,265.6647 L266.0777,265.6647 C268.3717,265.6647 270.2467,267.5357 270.2467,269.8347 L270.2467,318.5727 Z" id="Fill-30" fill="#FFCD28" mask="url(#mask-4)"></path>
                <path d="M218.6237,265.6645 L218.6237,256.4705 C218.6237,246.7885 226.4967,238.9095 236.1737,238.9095 L236.8227,238.9095 C246.5007,238.9095 254.3757,246.7885 254.3757,256.4705 L254.3757,265.6645 L262.7287,265.6645 L262.7287,256.4705 C262.7287,242.1765 251.1097,230.5545 236.8227,230.5545 L236.1737,230.5545 C221.8907,230.5545 210.2677,242.1765 210.2677,256.4705 L210.2677,265.6645 L218.6237,265.6645 Z" id="Fill-31" fill="#FEFEFE" mask="url(#mask-4)"></path>
                <path d="M245.8258,289.1235 C245.8258,283.9715 241.6538,279.7975 236.5008,279.7975 C231.3438,279.7975 227.1718,283.9715 227.1718,289.1235 C227.1718,293.1485 229.7278,296.5445 233.2978,297.8535 L233.2978,310.2985 L239.7008,310.2985 L239.7008,297.8535 C243.2698,296.5445 245.8258,293.1485 245.8258,289.1235" id="Fill-32" fill="#163F6D" mask="url(#mask-4)"></path>
                <path d="M260.2838,310.9331 C260.2838,312.2841 261.3798,313.3791 262.7288,313.3791 C264.0798,313.3791 265.1748,312.2841 265.1748,310.9331 L265.1748,302.7861 C265.1748,301.4351 264.0798,300.3401 262.7288,300.3401 C261.3798,300.3401 260.2838,301.4351 260.2838,302.7861 L260.2838,310.9331 Z" id="Fill-33" fill="#FEFEFE" mask="url(#mask-4)"></path>
                <path d="M260.2838,293.0883 C260.2838,294.4393 261.3798,295.5333 262.7288,295.5333 C264.0798,295.5333 265.1748,294.4393 265.1748,293.0883 L265.1748,274.6203 C265.1748,273.2703 264.0798,272.1753 262.7288,272.1753 C261.3798,272.1753 260.2838,273.2703 260.2838,274.6203 L260.2838,293.0883 Z" id="Fill-34" fill="#FEFEFE" mask="url(#mask-4)"></path>
            </g>
        </g>
    </g>
</svg>