<svg xmlns="http://www.w3.org/2000/svg" xmlns:xlink="http://www.w3.org/1999/xlink" width="518" height="518" viewBox="0 0 518 518"><title>success</title><desc>Created with Sketch.</desc><defs><path d="M56.531.957l-32.677 41.989-13.07-12.744c-.654-.653-1.198-.981-1.634-.981-.218 0-.653.328-1.307.981-1.743 1.743-4.139 4.248-7.189 7.516l-.327.327c-.218.435-.326.708-.326.816 0 .218.108.545.326.981l.49.49 23.037 22.221c.545.543 1.09.816 1.634.816.327 0 .817-.326 1.47-.98l40.683-52.283c.218-.436.328-.762.328-.98 0-.218-.11-.545-.328-.981l-8.986-7.188c-.435-.218-.817-.327-1.143-.327-.436 0-.763.109-.981.327z" id="a"/></defs><g fill="none"><g><path d="M35.612 259c0-123.374 100.015-223.389 223.388-223.389 123.374 0 223.388 100.015 223.388 223.389 0 123.374-100.014 223.388-223.388 223.388-123.373 0-223.388-100.014-223.388-223.388z" fill="#ffe889"/><path d="M322.255 392.712h-127.941c-5.814 23.938-11.608 47.878-17.424 71.815h162.781c-5.805-23.937-11.629-47.877-17.416-71.815" fill="#868484"/><path d="M350.551 464.528h-179.762c-4.572 0-8.262 4.675-8.262 10.441v3.921h196.294v-3.921c0-5.766-3.71-10.441-8.27-10.441" fill="#cfd3d8"/><path d="M52.411 373.562v31.959c0 6.145 4.582 11.13 10.245 11.13h391.242c5.66 0 10.252-4.985 10.252-11.13v-31.959h-411.739z" fill="#cfd3d8"/><path d="M453.898 119.815h-391.242c-5.663 0-10.245 4.49-10.245 10.036v243.711h411.739v-243.711c0-5.546-4.591-10.036-10.252-10.036" fill="#221e1f"/><path fill="#e3e4e4" d="M444.999 359.199v-225.021h-373.438v225.021z"/><path d="M343.377 320.74h-170.815c-2.201 0-4-1.8-4-4v-151.646c0-2.201 1.799-4 4-4h170.815c2.2 0 4 1.799 4 4v151.646c0 2.2-1.8 4-4 4" fill="#e3e4e4"/><path d="M331.859 183.841c-43.993 4.567-72.939-22.615-72.939-22.615s-28.956 27.182-72.931 22.615c0 0-13.577 122.701 72.931 147.084 86.53-24.383 72.939-147.084 72.939-147.084" fill="#fefefe"/><path d="M258.92 315.157c-53.713-18.336-58.968-86.294-58.623-115.822 26.661-1.055 47.139-11.601 58.623-19.233 11.475 7.632 31.947 18.169 58.602 19.229.28 29.536-5.096 97.537-58.602 115.826" fill="#009344"/><path d="M259.325 187.063l-.013.009v121.119l.013.005c47.991-16.404 52.812-77.395 52.563-103.887-23.908-.95-42.269-10.4-52.563-17.246" fill="#7fc241"/><path d="M201.786 200.768c-.144 29.063 5.462 94.761 57.134 112.797 51.471-17.99 57.189-83.723 57.107-112.797-25.178-1.321-44.785-10.82-57.107-18.869-12.333 8.049-31.956 17.553-57.134 18.869zm57.134 115.974l-.486-.164c-54.844-18.726-59.979-88.24-59.64-117.261l.017-1.427 1.427-.058c25.75-1.02 45.671-10.885 57.85-18.981l.832-.558.833.558c12.168 8.09 32.078 17.955 57.828 18.977l1.43.057.014 1.432c.273 29.035-4.987 98.584-59.62 117.261l-.485.164z" fill="#006738"/><path d="M294.076 221.441c.218.436.327.763.327.98 0 .218-.109.545-.327.981l-40.683 52.282c-.653.654-1.143.981-1.47.981-.544 0-1.089-.273-1.634-.817l-23.037-22.22-.49-.491c-.218-.435-.327-.762-.327-.98 0-.109.109-.381.327-.817l.327-.327c3.049-3.267 5.446-5.772 7.188-7.515.654-.654 1.09-.981 1.308-.981.435 0 .98.327 1.634.981l13.07 12.744 32.677-41.989c.217-.218.545-.328.98-.328.327 0 .708.11 1.144.328l8.986 7.188z" fill="#fefefe"/></g><g transform="translate(191 178.75)"><mask id="b"><use xlink:href="#a" width="100%" height="100%"/></mask><path mask="url(#b)" fill="#fefefe" d="M-1594-1496.752v2467.752h2359.004v-2467.752z"/><path mask="url(#b)" fill="#fefefe" d="M-20.912-20.283v104.565h109.794v-104.565z"/></g></g></svg>