<?xml version="1.0" encoding="UTF-8"?>
<svg width="90px" height="43px" viewBox="-90 0 90 43" version="1.1" xmlns="http://www.w3.org/2000/svg" xmlns:xlink="http://www.w3.org/1999/xlink">
    <!-- Generator: Sketch 46.2 (44496) - http://www.bohemiancoding.com/sketch -->
    <title>key</title>
    <desc>Created with Sketch.</desc>
    <defs></defs>
    <g id="Symbols" stroke="none" stroke-width="1" fill="none" fill-rule="evenodd" transform="rotate(90)">
        <g id="key">
            <polygon id="Fill-14" fill="#898989" points="23.8455 9.1676 23.8445 14.3116 28.9905 14.3116 28.9895 9.1676"></polygon>
            <polygon id="Fill-15" fill="#898989" points="14.0848 14.3117 19.2308 14.3117 19.2308 9.1667 14.0848 9.1677"></polygon>
            <path d="M38.5906,72.0916 C38.5906,75.4656 36.5196,78.8076 32.7566,81.4996 C29.3616,83.9306 24.9786,85.4416 21.3196,85.4416 C12.0176,85.4416 4.0476,78.1016 4.0476,72.0926 L4.0476,40.0916 L38.5906,40.0916 L38.5906,72.0916 Z M8.5966,3.6976 L34.0416,3.6966 L34.0416,18.2656 L8.5966,18.2666 L8.5966,3.6976 Z M38.8876,18.2656 L37.6686,18.2656 L37.6686,3.3996 C37.6686,1.5636 36.1756,0.0696 34.3386,0.0696 L8.2996,0.0696 C6.4626,0.0696 4.9686,1.5636 4.9686,3.3996 L4.9686,18.2656 L3.7496,18.2656 C1.9136,18.2666 0.4196,19.7606 0.4196,21.5976 L0.4196,72.0916 C0.4196,76.4606 2.8926,80.7336 7.3846,84.1236 C11.4866,87.2206 16.6956,89.0696 21.3196,89.0696 C25.9426,89.0696 31.1526,87.2206 35.2546,84.1246 C39.7446,80.7336 42.2186,76.4616 42.2186,72.0926 L42.2186,21.5976 C42.2186,19.7606 40.7246,18.2656 38.8876,18.2656 L38.8876,18.2656 Z" id="Fill-16" fill="#898989"></path>
            <polygon id="Path" fill="#CBD0D5" points="38.5906 36.4626 4.0476 36.4626 4.0476 21.8946 38.5906 21.8946"></polygon>
            <g id="Group" transform="translate(11.000000, 48.000000)">
                <g id="Page-1">
                    <g id="Group-3" transform="translate(0.000000, 0.028929)"></g>
                    <path d="M19.155687,8.26127679 C19.1584876,6.21650893 17.2151663,4.07609598 15.2016534,3.90620089 C13.3440161,3.74950446 12.1770938,4.99783259 12.449757,6.84998437 C12.7136016,8.64198884 14.3417155,10.3396741 16.1013943,10.6575871 C17.8524927,10.973933 19.1533632,9.95329687 19.155687,8.26127679 M12.4861041,13.2871942 C12.4290212,13.363192 12.3613917,13.4780022 12.2708813,13.5697299 C9.23321295,16.6465246 6.19345907,19.7212701 3.15376477,22.7959554 C2.5322285,23.4247299 2.07193057,23.4252723 1.45259896,22.7993304 C1.09437098,22.4373013 0.73554715,22.0759955 0.378808808,21.7125804 C-0.12522487,21.1990982 -0.127429534,20.6757321 0.379166321,20.1630937 C3.44632953,17.0593594 6.51468446,13.9567098 9.58464819,10.8557478 C9.67533731,10.7641406 9.78783472,10.6947121 9.83889948,10.6549353 C9.5316171,9.92822545 9.19615078,9.29511161 8.99159378,8.6214375 C8.32912228,6.43980134 8.47939689,4.33741741 9.87649793,2.46965625 C11.2387415,0.648662946 13.1361819,-0.0973928571 15.3438839,0.08775 C19.0248373,0.396502232 22.0411145,3.16213393 22.8022,6.8193683 C23.3837544,9.61404911 22.2532389,12.3769688 19.9464461,13.6949063 C18.0158166,14.7979286 16.0043295,14.7726161 13.9747881,13.9963058 C13.4867233,13.809596 13.0269617,13.5473705 12.4861041,13.2871942" id="Fill-1" fill="#898989"></path>
                    <path d="M10.9625091,23.0156317 C10.5761567,23.4059866 10.1425531,23.8440134 9.68606865,24.305183 C9.27010233,23.8745089 8.83697539,23.4261161 8.42357124,22.9980937 C7.94801943,23.4765603 7.50756347,23.9198906 7.06972927,24.3605089 C7.48801943,24.7785268 7.92394689,25.2141429 8.33145207,25.621433 C7.85876036,26.1012254 7.42187953,26.5446763 7.00400648,26.9686607 C5.94028627,25.8943259 4.83324741,24.7762969 3.7555842,23.6878594 C5.06217487,22.3664263 6.39230181,21.021067 7.69126554,19.7072879 C8.7523044,20.7803571 9.8645272,21.9051964 10.9625091,23.0156317" id="Fill-4" fill="#898989"></path>
                </g>
            </g>
        </g>
    </g>
</svg>
