<svg width="76" height="76" viewBox="0 0 76 76" fill="none" xmlns="http://www.w3.org/2000/svg">
<g clip-path="url(#clip0_2042_68404)">
<path d="M42.8692 73.5935L33.2932 73.553C33.0917 73.5528 32.8985 73.4726 32.7561 73.3301C32.6142 73.1852 32.5342 72.9908 32.5332 72.788L32.5889 60.8965H34.1089L34.0583 72.0431L42.1143 72.0786L42.1649 60.932H43.6849L43.6292 72.8234C43.6305 72.9241 43.6119 73.024 43.5743 73.1174C43.5367 73.2107 43.4809 73.2957 43.4102 73.3674C43.3395 73.439 43.2553 73.4959 43.1624 73.5347C43.0695 73.5736 42.9699 73.5936 42.8692 73.5935Z" fill="#0134B3"/>
<path d="M75.2958 61.6715H0.9475C0.745935 61.6715 0.552626 61.5914 0.410099 61.4489C0.267571 61.3063 0.1875 61.113 0.1875 60.9115V12.0232C0.1875 11.8216 0.267571 11.6283 0.410099 11.4858C0.552626 11.3433 0.745935 11.2632 0.9475 11.2632H22.2275V12.7832H1.7075V60.1515H74.5408L74.5814 12.7832H54.8974V11.2632H75.3464C75.5476 11.265 75.7402 11.3449 75.8835 11.4861C76.0261 11.6285 76.1063 11.8217 76.1064 12.0232L76.0558 60.9115C76.0558 61.113 75.9757 61.3063 75.8332 61.4489C75.6906 61.5914 75.4973 61.6715 75.2958 61.6715Z" fill="#0134B3"/>
<path d="M52.207 72.4028H24.0161V73.9228H52.207V72.4028Z" fill="#0134B3"/>
<path d="M69.3982 36.0395H55.394V36.7843V47.8651H32.7966V55.8046H6.38916V37.3315H21.6398V16.624H5.56836V56.2302H70.219V36.0243L69.3982 36.0395Z" fill="url(#paint0_linear_2042_68404)"/>
<path d="M55.3228 48.2705H33.293V46.7505H54.573V36.4297H56.093V47.5105C56.093 47.6111 56.073 47.7108 56.0342 47.8037C55.9953 47.8966 55.9385 47.9808 55.8668 48.0515C55.7952 48.1222 55.7102 48.178 55.6168 48.2156C55.5234 48.2532 55.4235 48.2718 55.3228 48.2705Z" fill="#0134B3"/>
<path d="M22.3286 36.9057H20.8086V2.84252C20.8086 2.64095 20.8887 2.44765 21.0312 2.30512C21.1737 2.16259 21.367 2.08252 21.5686 2.08252H55.3227C55.5243 2.08252 55.7176 2.16259 55.8601 2.30512C56.0027 2.44765 56.0827 2.64095 56.0827 2.84252V16.6239H54.5627V3.60252H22.3286V36.9057Z" fill="#0134B3"/>
<path d="M69.3274 36.4447H42.925C42.7235 36.4447 42.5302 36.3646 42.3876 36.2221C42.2451 36.0795 42.165 35.8862 42.165 35.6847V17.2268C42.165 17.0252 42.2451 16.8319 42.3876 16.6894C42.5302 16.5469 42.7235 16.4668 42.925 16.4668H69.3274C69.529 16.4668 69.7223 16.5469 69.8648 16.6894C70.0074 16.8319 70.0874 17.0252 70.0874 17.2268V35.6847C70.0874 35.8862 70.0074 36.0795 69.8648 36.2221C69.7223 36.3646 69.529 36.4447 69.3274 36.4447ZM43.685 34.9247H68.5674V17.9716H43.685V34.9247Z" fill="#0134B3"/>
<path d="M32.7256 56.2044H6.31811C6.11654 56.2044 5.92323 56.1244 5.7807 55.9818C5.63818 55.8393 5.55811 55.646 5.55811 55.4444V36.9866C5.55811 36.785 5.63818 36.5917 5.7807 36.4492C5.92323 36.3066 6.11654 36.2266 6.31811 36.2266H32.7256C32.9271 36.2266 33.1204 36.3066 33.263 36.4492C33.4055 36.5917 33.4856 36.785 33.4856 36.9866V55.4546C33.4829 55.6544 33.4017 55.8451 33.2594 55.9854C33.1172 56.1258 32.9254 56.2044 32.7256 56.2044ZM7.07811 54.6844H31.9656V37.7364H7.09331L7.07811 54.6844Z" fill="#0134B3"/>
<path d="M43.3526 16.5894L42.4814 17.835L68.8875 36.3041L69.7587 35.0585L43.3526 16.5894Z" fill="#0134B3"/>
<path d="M68.8904 16.5895L42.4844 35.0586L43.3556 36.3042L69.7616 17.8351L68.8904 16.5895Z" fill="#0134B3"/>
<path d="M16.2134 51.736C16.1138 51.7366 16.0151 51.7176 15.9229 51.6799C15.8307 51.6423 15.7469 51.5868 15.6763 51.5166C15.6056 51.4465 15.5496 51.363 15.5113 51.2711C15.4731 51.1792 15.4534 51.0806 15.4534 50.981L15.4331 41.4456C15.4333 41.3061 15.4718 41.1694 15.5445 41.0504C15.6172 40.9313 15.7213 40.8346 15.8453 40.7708C15.9693 40.707 16.1084 40.6785 16.2475 40.6885C16.3866 40.6985 16.5203 40.7465 16.6339 40.8274L23.3067 45.6002C23.4055 45.669 23.4861 45.7607 23.5417 45.8675C23.5973 45.9743 23.6262 46.0929 23.6259 46.2133C23.6254 46.3335 23.5961 46.4519 23.5406 46.5585C23.4851 46.6651 23.4049 46.757 23.3067 46.8263L16.6744 51.5941C16.5404 51.6905 16.3784 51.7404 16.2134 51.736ZM16.9531 42.925V49.5117L21.5131 46.2285L16.9531 42.925Z" fill="#0134B3"/>
</g>
<defs>
<linearGradient id="paint0_linear_2042_68404" x1="12.5198" y1="59.4779" x2="58.895" y2="17.3486" gradientUnits="userSpaceOnUse">
<stop stop-color="#8186C9"/>
<stop offset="0.23" stop-color="#8186C9"/>
<stop offset="0.8" stop-color="#C6ECFC"/>
<stop offset="1" stop-color="#C6ECFC"/>
</linearGradient>
<clipPath id="clip0_2042_68404">
<rect width="76" height="76" fill="white"/>
</clipPath>
</defs>
</svg>
