<?xml version="1.0" encoding="UTF-8"?>
<svg width="321px" height="241px" viewBox="0 0 321 241" version="1.1" xmlns="http://www.w3.org/2000/svg" xmlns:xlink="http://www.w3.org/1999/xlink">
    <!-- Generator: Sketch 55.2 (78181) - https://sketchapp.com -->
    <title>zerto-two-pcc</title>
    <desc>Created with Sketch.</desc>
    <g id="Page-1" stroke="none" stroke-width="1" fill="none" fill-rule="evenodd">
        <g id="zerto-0A" transform="translate(-373.000000, -656.000000)">
            <g id="zerto-two-pcc" transform="translate(374.000000, 656.000000)">
                <g id="schema-zerto-copy">
                    <g id="Group-17" transform="translate(0.000000, 117.000000)">
                        <g id="Group-16">
                            <rect id="Rectangle" stroke="#13C4E4" stroke-width="0.536912752" stroke-linecap="round" stroke-linejoin="round" x="0.214765101" y="0.744966443" width="154.09396" height="122.147651"></rect>
                            <g id="Group" transform="translate(49.395973, 48.335570)">
                                <polygon id="Path" fill="#13C4E4" opacity="0.1" points="27.8657718 48.1610738 0.10738255 48.1610738 0.10738255 16.1073826 27.8657718 0.0536912752 55.5704698 16.1073826 55.5704698 48.1610738"></polygon>
                                <polygon id="Path" stroke="#13C4E4" stroke-width="0.536912752" stroke-linecap="round" stroke-linejoin="round" points="27.8657718 48.1610738 0.10738255 48.1610738 0.10738255 16.1073826 27.8657718 0.0536912752 55.5704698 16.1073826 55.5704698 48.1610738"></polygon>
                                <polyline id="Path" stroke="#13C4E4" stroke-width="0.536912752" stroke-linecap="round" stroke-linejoin="round" points="27.8657718 48.1610738 27.5973154 31.9463087 55.3020134 16.2147651"></polyline>
                                <path d="M0.10738255,16.1073826 L27.5973154,31.9463087" id="Path" stroke="#13C4E4" stroke-width="0.536912752" stroke-linecap="round" stroke-linejoin="round"></path>
                                <polygon id="Path" stroke="#13C4E4" stroke-width="0.536912752" stroke-linecap="round" stroke-linejoin="round" points="27.8120805 6.12080537 10.6308725 16.0536913 27.4899329 25.8791946 44.7785235 16.1610738"></polygon>
                            </g>
                            <g id="Group" transform="translate(67.000000, 43.583893)">
                                <g transform="translate(0.651007, 0.456376)">
                                    <circle id="Oval" fill="#13C4E4" cx="9.61073826" cy="9.66442953" r="9.55704698"></circle>
                                    <rect id="Rectangle" x="0.0536912752" y="5.85234899" width="19.0604027" height="13.3691275"></rect>
                                    <text id="B1" fill="#FFFFFF" font-family="Helvetica" font-size="10.738255" font-weight="normal">
                                        <tspan x="3.29814765" y="13.2489128">B1</tspan>
                                    </text>
                                </g>
                            </g>
                            <g id="Group" transform="translate(3.758389, 87.563758)">
                                <g opacity="0.4" fill="#E3CD4D" id="Rectangle">
                                    <rect x="0.483221477" y="0.161073826" width="24.3221477" height="24.3221477"></rect>
                                </g>
                                <rect id="Rectangle" fill="#E7DCA1" x="0.483221477" y="0.161073826" width="24.3221477" height="24.3221477"></rect>
                                <path d="M24.2684564,0.697986577 L24.2684564,23.9463087 L1.02013423,23.9463087 L1.02013423,0.697986577 L24.2684564,0.697986577 L24.2684564,0.697986577 Z M24.8053691,0.161073826 L0.483221477,0.161073826 L0.483221477,24.4832215 L24.8053691,24.4832215 L24.8053691,0.161073826 L24.8053691,0.161073826 Z" id="Shape" fill="#E3CD4D" fill-rule="nonzero"></path>
                                <text id="VM" fill="#8A5300" font-family="Helvetica" font-size="9.12751678" font-weight="normal">
                                    <tspan x="6.44381208" y="15.8206711">VM</tspan>
                                </text>
                            </g>
                            <g id="Group" transform="translate(19.328859, 103.134228)">
                                <path d="M6.06711409,0.912751678 C5.79865772,0.429530201 5.31543624,0.375838926 4.99328859,0.912751678 L0.375838926,9.0738255 C0.10738255,9.55704698 0.322147651,10.2013423 0.912751678,10.2013423 L9.93288591,10.2013423 C10.5234899,10.2013423 10.738255,9.61073826 10.4697987,9.0738255 L6.06711409,0.912751678 Z" id="Path" fill="#D9AE00"></path>
                                <path d="M5.53020134,7.51677852 C5.20805369,7.51677852 5.04697987,7.67785235 5.04697987,8.05369128 C5.04697987,8.37583893 5.20805369,8.53691275 5.53020134,8.53691275 C5.85234899,8.53691275 6.01342282,8.37583893 6.01342282,8.05369128 C6.01342282,7.67785235 5.85234899,7.51677852 5.53020134,7.51677852 Z" id="Path" fill="#FFFFFF"></path>
                                <path d="M6.12080537,4.34899329 C6.12080537,3.70469799 6.06711409,3.38255034 6.01342282,3.32885906 C5.95973154,3.16778523 5.79865772,3.06040268 5.58389262,3.06040268 C5.58389262,3.06040268 5.53020134,3.00671141 5.53020134,3.06040268 C5.53020134,3.06040268 5.47651007,3.06040268 5.47651007,3.06040268 C5.31543624,3.06040268 5.15436242,3.11409396 5.04697987,3.27516779 C4.99328859,3.32885906 4.93959732,3.81208054 4.93959732,4.40268456 C4.93959732,5.47651007 5.10067114,7.03355705 5.10067114,7.03355705 L5.10067114,7.03355705 C5.10067114,7.03355705 5.26174497,7.08724832 5.47651007,7.08724832 C5.47651007,7.08724832 5.53020134,6.97986577 5.53020134,6.97986577 C5.53020134,6.97986577 5.58389262,7.1409396 5.58389262,7.1409396 C5.79865772,7.1409396 5.90604027,7.03355705 5.95973154,7.03355705 L5.95973154,7.03355705 C6.01342282,6.97986577 6.17449664,5.42281879 6.12080537,4.34899329 Z" id="Path" fill="#FFFFFF"></path>
                            </g>
                        </g>
                        <g id="Group" transform="translate(3.758389, 87.563758)">
                            <g></g>
                            <g transform="translate(30.067114, 0.000000)">
                                <g>
                                    <g opacity="0.4" fill="#E3CD4D" id="Rectangle">
                                        <rect x="0.483221477" y="0.161073826" width="24.3221477" height="24.3221477"></rect>
                                    </g>
                                    <rect id="Rectangle" fill="#E7DCA1" x="0.483221477" y="0.161073826" width="24.3221477" height="24.3221477"></rect>
                                    <path d="M24.2684564,0.697986577 L24.2684564,23.9463087 L1.02013423,23.9463087 L1.02013423,0.697986577 L24.2684564,0.697986577 L24.2684564,0.697986577 Z M24.8053691,0.161073826 L0.483221477,0.161073826 L0.483221477,24.4832215 L24.8053691,24.4832215 L24.8053691,0.161073826 L24.8053691,0.161073826 Z" id="Shape" fill="#E3CD4D" fill-rule="nonzero"></path>
                                    <text id="VM" fill="#8A5300" font-family="Helvetica" font-size="9.12751678" font-weight="normal">
                                        <tspan x="6.44381208" y="15.8206711">VM</tspan>
                                    </text>
                                </g>
                                <g transform="translate(15.570470, 15.570470)" id="Path">
                                    <path d="M6.06711409,0.912751678 C5.79865772,0.429530201 5.31543624,0.375838926 4.99328859,0.912751678 L0.375838926,9.0738255 C0.10738255,9.55704698 0.322147651,10.2013423 0.912751678,10.2013423 L9.93288591,10.2013423 C10.5234899,10.2013423 10.738255,9.61073826 10.4697987,9.0738255 L6.06711409,0.912751678 Z" fill="#D9AE00"></path>
                                    <path d="M5.53020134,7.51677852 C5.20805369,7.51677852 5.04697987,7.67785235 5.04697987,8.05369128 C5.04697987,8.37583893 5.20805369,8.53691275 5.53020134,8.53691275 C5.85234899,8.53691275 6.01342282,8.37583893 6.01342282,8.05369128 C6.01342282,7.67785235 5.85234899,7.51677852 5.53020134,7.51677852 Z" fill="#FFFFFF"></path>
                                    <path d="M6.12080537,4.34899329 C6.12080537,3.70469799 6.06711409,3.38255034 6.01342282,3.32885906 C5.95973154,3.16778523 5.79865772,3.06040268 5.58389262,3.06040268 C5.58389262,3.06040268 5.53020134,3.00671141 5.53020134,3.06040268 C5.53020134,3.06040268 5.47651007,3.06040268 5.47651007,3.06040268 C5.31543624,3.06040268 5.15436242,3.11409396 5.04697987,3.27516779 C4.99328859,3.32885906 4.93959732,3.81208054 4.93959732,4.40268456 C4.93959732,5.47651007 5.10067114,7.03355705 5.10067114,7.03355705 L5.10067114,7.03355705 C5.10067114,7.03355705 5.26174497,7.08724832 5.47651007,7.08724832 C5.47651007,7.08724832 5.53020134,6.97986577 5.53020134,6.97986577 C5.53020134,6.97986577 5.58389262,7.1409396 5.58389262,7.1409396 C5.79865772,7.1409396 5.90604027,7.03355705 5.95973154,7.03355705 L5.95973154,7.03355705 C6.01342282,6.97986577 6.17449664,5.42281879 6.12080537,4.34899329 Z" fill="#FFFFFF"></path>
                                </g>
                            </g>
                            <g transform="translate(60.134228, 0.000000)">
                                <g>
                                    <g opacity="0.4" fill="#E3CD4D" id="Rectangle">
                                        <rect x="0.483221477" y="0.161073826" width="24.3221477" height="24.3221477"></rect>
                                    </g>
                                    <rect id="Rectangle" fill="#E7DCA1" x="0.483221477" y="0.161073826" width="24.3221477" height="24.3221477"></rect>
                                    <path d="M24.2684564,0.697986577 L24.2684564,23.9463087 L1.02013423,23.9463087 L1.02013423,0.697986577 L24.2684564,0.697986577 L24.2684564,0.697986577 Z M24.8053691,0.161073826 L0.483221477,0.161073826 L0.483221477,24.4832215 L24.8053691,24.4832215 L24.8053691,0.161073826 L24.8053691,0.161073826 Z" id="Shape" fill="#E3CD4D" fill-rule="nonzero"></path>
                                    <text id="VM" fill="#8A5300" font-family="Helvetica" font-size="9.12751678" font-weight="normal">
                                        <tspan x="6.44381208" y="15.8206711">VM</tspan>
                                    </text>
                                </g>
                                <g transform="translate(15.570470, 15.570470)" id="Path">
                                    <path d="M6.06711409,0.912751678 C5.79865772,0.429530201 5.31543624,0.375838926 4.99328859,0.912751678 L0.375838926,9.0738255 C0.10738255,9.55704698 0.322147651,10.2013423 0.912751678,10.2013423 L9.93288591,10.2013423 C10.5234899,10.2013423 10.738255,9.61073826 10.4697987,9.0738255 L6.06711409,0.912751678 Z" fill="#D9AE00"></path>
                                    <path d="M5.53020134,7.51677852 C5.20805369,7.51677852 5.04697987,7.67785235 5.04697987,8.05369128 C5.04697987,8.37583893 5.20805369,8.53691275 5.53020134,8.53691275 C5.85234899,8.53691275 6.01342282,8.37583893 6.01342282,8.05369128 C6.01342282,7.67785235 5.85234899,7.51677852 5.53020134,7.51677852 Z" fill="#FFFFFF"></path>
                                    <path d="M6.12080537,4.34899329 C6.12080537,3.70469799 6.06711409,3.38255034 6.01342282,3.32885906 C5.95973154,3.16778523 5.79865772,3.06040268 5.58389262,3.06040268 C5.58389262,3.06040268 5.53020134,3.00671141 5.53020134,3.06040268 C5.53020134,3.06040268 5.47651007,3.06040268 5.47651007,3.06040268 C5.31543624,3.06040268 5.15436242,3.11409396 5.04697987,3.27516779 C4.99328859,3.32885906 4.93959732,3.81208054 4.93959732,4.40268456 C4.93959732,5.47651007 5.10067114,7.03355705 5.10067114,7.03355705 L5.10067114,7.03355705 C5.10067114,7.03355705 5.26174497,7.08724832 5.47651007,7.08724832 C5.47651007,7.08724832 5.53020134,6.97986577 5.53020134,6.97986577 C5.53020134,6.97986577 5.58389262,7.1409396 5.58389262,7.1409396 C5.79865772,7.1409396 5.90604027,7.03355705 5.95973154,7.03355705 L5.95973154,7.03355705 C6.01342282,6.97986577 6.17449664,5.42281879 6.12080537,4.34899329 Z" fill="#FFFFFF"></path>
                                </g>
                            </g>
                            <g transform="translate(90.201342, 0.000000)">
                                <g>
                                    <g opacity="0.4" fill="#E3CD4D" id="Rectangle">
                                        <rect x="0.483221477" y="0.161073826" width="24.3221477" height="24.3221477"></rect>
                                    </g>
                                    <rect id="Rectangle" fill="#E7DCA1" x="0.483221477" y="0.161073826" width="24.3221477" height="24.3221477"></rect>
                                    <path d="M24.2684564,0.697986577 L24.2684564,23.9463087 L1.02013423,23.9463087 L1.02013423,0.697986577 L24.2684564,0.697986577 L24.2684564,0.697986577 Z M24.8053691,0.161073826 L0.483221477,0.161073826 L0.483221477,24.4832215 L24.8053691,24.4832215 L24.8053691,0.161073826 L24.8053691,0.161073826 Z" id="Shape" fill="#E3CD4D" fill-rule="nonzero"></path>
                                    <text id="VM" fill="#8A5300" font-family="Helvetica" font-size="9.12751678" font-weight="normal">
                                        <tspan x="6.44381208" y="15.8206711">VM</tspan>
                                    </text>
                                </g>
                                <g transform="translate(15.570470, 15.570470)" id="Path">
                                    <path d="M6.06711409,0.912751678 C5.79865772,0.429530201 5.31543624,0.375838926 4.99328859,0.912751678 L0.375838926,9.0738255 C0.10738255,9.55704698 0.322147651,10.2013423 0.912751678,10.2013423 L9.93288591,10.2013423 C10.5234899,10.2013423 10.738255,9.61073826 10.4697987,9.0738255 L6.06711409,0.912751678 Z" fill="#D9AE00"></path>
                                    <path d="M5.53020134,7.51677852 C5.20805369,7.51677852 5.04697987,7.67785235 5.04697987,8.05369128 C5.04697987,8.37583893 5.20805369,8.53691275 5.53020134,8.53691275 C5.85234899,8.53691275 6.01342282,8.37583893 6.01342282,8.05369128 C6.01342282,7.67785235 5.85234899,7.51677852 5.53020134,7.51677852 Z" fill="#FFFFFF"></path>
                                    <path d="M6.12080537,4.34899329 C6.12080537,3.70469799 6.06711409,3.38255034 6.01342282,3.32885906 C5.95973154,3.16778523 5.79865772,3.06040268 5.58389262,3.06040268 C5.58389262,3.06040268 5.53020134,3.00671141 5.53020134,3.06040268 C5.53020134,3.06040268 5.47651007,3.06040268 5.47651007,3.06040268 C5.31543624,3.06040268 5.15436242,3.11409396 5.04697987,3.27516779 C4.99328859,3.32885906 4.93959732,3.81208054 4.93959732,4.40268456 C4.93959732,5.47651007 5.10067114,7.03355705 5.10067114,7.03355705 L5.10067114,7.03355705 C5.10067114,7.03355705 5.26174497,7.08724832 5.47651007,7.08724832 C5.47651007,7.08724832 5.53020134,6.97986577 5.53020134,6.97986577 C5.53020134,6.97986577 5.58389262,7.1409396 5.58389262,7.1409396 C5.79865772,7.1409396 5.90604027,7.03355705 5.95973154,7.03355705 L5.95973154,7.03355705 C6.01342282,6.97986577 6.17449664,5.42281879 6.12080537,4.34899329 Z" fill="#FFFFFF"></path>
                                </g>
                            </g>
                            <g transform="translate(120.268456, 0.000000)">
                                <g>
                                    <g opacity="0.4" fill="#E3CD4D" id="Rectangle">
                                        <rect x="0.483221477" y="0.161073826" width="24.3221477" height="24.3221477"></rect>
                                    </g>
                                    <rect id="Rectangle" fill="#E7DCA1" x="0.483221477" y="0.161073826" width="24.3221477" height="24.3221477"></rect>
                                    <path d="M24.2684564,0.697986577 L24.2684564,23.9463087 L1.02013423,23.9463087 L1.02013423,0.697986577 L24.2684564,0.697986577 L24.2684564,0.697986577 Z M24.8053691,0.161073826 L0.483221477,0.161073826 L0.483221477,24.4832215 L24.8053691,24.4832215 L24.8053691,0.161073826 L24.8053691,0.161073826 Z" id="Shape" fill="#E3CD4D" fill-rule="nonzero"></path>
                                    <text id="VM" fill="#8A5300" font-family="Helvetica" font-size="9.12751678" font-weight="normal">
                                        <tspan x="6.44381208" y="15.8206711">VM</tspan>
                                    </text>
                                </g>
                                <g transform="translate(15.570470, 15.570470)" id="Path">
                                    <path d="M6.06711409,0.912751678 C5.79865772,0.429530201 5.31543624,0.375838926 4.99328859,0.912751678 L0.375838926,9.0738255 C0.10738255,9.55704698 0.322147651,10.2013423 0.912751678,10.2013423 L9.93288591,10.2013423 C10.5234899,10.2013423 10.738255,9.61073826 10.4697987,9.0738255 L6.06711409,0.912751678 Z" fill="#D9AE00"></path>
                                    <path d="M5.53020134,7.51677852 C5.20805369,7.51677852 5.04697987,7.67785235 5.04697987,8.05369128 C5.04697987,8.37583893 5.20805369,8.53691275 5.53020134,8.53691275 C5.85234899,8.53691275 6.01342282,8.37583893 6.01342282,8.05369128 C6.01342282,7.67785235 5.85234899,7.51677852 5.53020134,7.51677852 Z" fill="#FFFFFF"></path>
                                    <path d="M6.12080537,4.34899329 C6.12080537,3.70469799 6.06711409,3.38255034 6.01342282,3.32885906 C5.95973154,3.16778523 5.79865772,3.06040268 5.58389262,3.06040268 C5.58389262,3.06040268 5.53020134,3.00671141 5.53020134,3.06040268 C5.53020134,3.06040268 5.47651007,3.06040268 5.47651007,3.06040268 C5.31543624,3.06040268 5.15436242,3.11409396 5.04697987,3.27516779 C4.99328859,3.32885906 4.93959732,3.81208054 4.93959732,4.40268456 C4.93959732,5.47651007 5.10067114,7.03355705 5.10067114,7.03355705 L5.10067114,7.03355705 C5.10067114,7.03355705 5.26174497,7.08724832 5.47651007,7.08724832 C5.47651007,7.08724832 5.53020134,6.97986577 5.53020134,6.97986577 C5.53020134,6.97986577 5.58389262,7.1409396 5.58389262,7.1409396 C5.79865772,7.1409396 5.90604027,7.03355705 5.95973154,7.03355705 L5.95973154,7.03355705 C6.01342282,6.97986577 6.17449664,5.42281879 6.12080537,4.34899329 Z" fill="#FFFFFF"></path>
                                </g>
                            </g>
                        </g>
                    </g>
                    <g id="Group-17-Copy" transform="translate(229.000000, 165.000000)">
                        <g id="Group-16">
                            <g id="Group" transform="translate(0.000000, 0.583893)">
                                <g transform="translate(0.651007, 0.456376)" id="Rectangle">
                                    <rect x="0.0536912752" y="0.852348993" width="19.0604027" height="13.3691275"></rect>
                                </g>
                            </g>
                        </g>
                    </g>
                    <path d="M99.2751678,117.744966 C99.2751678,102.926174 123.221477,99.8120805 136.053691,99.8120805" id="Path" stroke="#C9C9C9" stroke-width="0.536912752"></path>
                    <path d="M217.879195,117.744966 C217.879195,102.926174 193.932886,99.8120805 181.100671,99.8120805" id="Path" stroke="#B0CA67" stroke-width="0.536912752"></path>
                    <g id="Group" transform="translate(131.543624, 67.651007)">
                        <path d="M50.4161074,37.4765101 L50.2550336,37.4765101 C50.147651,38.7651007 49.1275168,39.6241611 47.7852349,39.6241611 L6.4966443,39.6241611 C5.20805369,39.6241611 4.13422819,38.7651007 4.02684564,37.4765101 L4.02684564,37.4765101 C3.65100671,37.4765101 3.27516779,37.6375839 3.06040268,37.9060403 L0.161073826,40.590604 C-0.161073826,40.8590604 0.0536912752,41.3959732 0.483221477,41.3959732 L53.5838926,41.3959732 C53.9597315,41.3959732 54.1744966,40.9127517 53.9060403,40.6442953 L51.4362416,38.0134228 C51.2214765,37.6375839 50.8456376,37.4765101 50.4161074,37.4765101 Z" id="Path" fill="#122844" opacity="0.15"></path>
                        <path d="M47.7852349,39.5704698 L6.4966443,39.5704698 C4.99328859,39.5704698 3.86577181,38.2281879 4.08053691,36.7248322 L5.20805369,29.3154362 L49.0738255,29.3154362 L50.2013423,36.7248322 C50.4697987,38.2281879 49.2885906,39.5704698 47.7852349,39.5704698 Z" id="Path" stroke="#B90B24" stroke-width="0.536912752" stroke-linejoin="round"></path>
                        <polyline id="Path" stroke="#B90B24" stroke-width="0.536912752" stroke-linejoin="round" points="15.033557 24.0536913 12.5637584 24.0536913 5.20805369 29.3691275 49.0738255 29.3691275 41.7718121 24.0536913 39.033557 24.0536913"></polyline>
                        <ellipse id="Oval" fill="#122844" opacity="0.15" cx="27.1677852" cy="26.5771812" rx="12.295302" ry="1.23489933"></ellipse>
                        <path d="M39.4630872,24.590604 C39.4630872,25.3959732 33.9865772,26.0939597 27.1677852,26.0939597 C20.3489933,26.0939597 14.8724832,25.4496644 14.8724832,24.590604 C14.8724832,23.7315436 14.8724832,14.1744966 27.1677852,14.1744966 C39.4630872,14.1744966 39.4630872,23.7852349 39.4630872,24.590604 Z" id="Path" fill="#FF4915"></path>
                        <path d="M27.1677852,14.1744966 C24.8053691,14.1744966 22.9261745,14.5503356 21.3691275,15.0872483 C21.261745,17.7718121 24.6979866,20.885906 29.5302013,22.2818792 C33.3959732,23.409396 37.1006711,23.0872483 39.0872483,21.7449664 C38.1744966,18.6845638 35.5436242,14.1744966 27.1677852,14.1744966 Z" id="Path" fill="#E9EBE7" opacity="0.25"></path>
                        <path d="M39.4630872,24.590604 C39.4630872,25.3959732 33.9865772,26.0939597 27.1677852,26.0939597 C20.3489933,26.0939597 14.8724832,25.4496644 14.8724832,24.590604" id="Path" stroke="#B90B24" stroke-width="0.536912752"></path>
                        <path d="M14.8724832,24.590604 C14.8724832,23.7852349 14.8724832,14.1744966 27.1677852,14.1744966 C39.4630872,14.1744966 39.4630872,23.7315436 39.4630872,24.590604" id="Path" stroke="#B90B24" stroke-width="0.536912752"></path>
                        <path d="M30.2281879,26.8456376 C30.2281879,26.9530201 28.9395973,27.0604027 27.3288591,27.0604027 C25.7181208,27.0604027 24.4295302,26.9530201 24.4295302,26.8456376 C24.4295302,26.738255 24.4295302,26.0939597 24.4295302,26.0939597 L30.1744966,26.0402685 C30.2281879,26.0402685 30.2281879,26.738255 30.2281879,26.8456376 Z" id="Path" fill="#B90B24"></path>
                        <rect id="Rectangle" x="4.51006711" y="31.5704698" width="45.3154362" height="7.51677852"></rect>
                        <text id="FailOver" fill="#B90B24" font-family="Helvetica" font-size="8.69138255" font-weight="normal">
                            <tspan x="11.9197315" y="38.6790872">FailOver</tspan>
                        </text>
                        <g transform="translate(7.516779, 0.000000)" fill="#B90B24">
                            <path d="M12.3489933,4.24161074 C12.9932886,4.24161074 13.4765101,4.56375839 13.4765101,5.85234899 L11.0604027,5.85234899 C11.1677852,4.61744966 11.704698,4.24161074 12.3489933,4.24161074 M15.6778523,10.0939597 L15.1409396,8.59060403 C14.1208054,8.96644295 13.4765101,9.12751678 12.885906,9.12751678 C11.6510067,9.12751678 11.1677852,8.4295302 11.114094,7.3557047 L15.7852349,7.3557047 C15.7852349,7.03355705 15.8389262,6.4966443 15.8389262,6.33557047 C15.8389262,3.70469799 14.4966443,2.63087248 12.5100671,2.63087248 C10.4161074,2.63087248 8.75167785,3.91946309 8.75167785,6.7114094 C8.75167785,9.0738255 9.77181208,10.8993289 12.6711409,10.8993289 C13.6912752,10.8993289 14.7114094,10.5771812 15.6778523,10.0939597" id="Shape" fill-rule="nonzero"></path>
                            <path d="M33.1275168,4.24161074 C33.3422819,4.24161074 33.557047,4.29530201 33.7181208,4.34899329 L31.5167785,7.73154362 C31.4630872,7.40939597 31.409396,7.08724832 31.409396,6.65771812 C31.4630872,4.88590604 32.1610738,4.24161074 33.1275168,4.24161074 L33.1275168,4.24161074 Z M32.3758389,9.12751678 C32.2147651,9.0738255 32.1073826,8.96644295 32,8.80536913 L32.3758389,9.12751678 Z M34.6845638,6.7114094 C34.6845638,8.59060403 34.0939597,9.2885906 33.0738255,9.2885906 C32.8053691,9.2885906 32.590604,9.23489933 32.3758389,9.12751678 L34.5771812,5.63758389 C34.6308725,5.95973154 34.6845638,6.28187919 34.6845638,6.7114094 L34.6845638,6.7114094 Z M37.1006711,6.60402685 C37.1006711,4.29530201 36.0268456,2.63087248 33.1812081,2.63087248 C30.3892617,2.63087248 29.1006711,4.29530201 29.1006711,6.81879195 C29.1006711,9.18120805 30.2281879,10.8993289 33.0201342,10.8993289 C35.7583893,10.8993289 37.1006711,9.23489933 37.1006711,6.60402685 L37.1006711,6.60402685 Z" id="Shape" fill-rule="nonzero"></path>
                            <path d="M29.3691275,10.2550336 C29.3691275,10.2550336 28.8322148,8.96644295 28.7785235,8.96644295 C28.6711409,9.02013423 28.5100671,9.02013423 28.4026846,9.0738255 C28.4026846,9.0738255 28.4026846,9.0738255 28.3489933,9.0738255 C28.1342282,9.12751678 27.9194631,9.12751678 27.6510067,9.12751678 C26.8456376,9.12751678 26.5771812,8.75167785 26.5771812,7.83892617 L26.5771812,7.73154362 L26.5771812,4.13422819 L26.5771812,4.02684564 L26.5771812,4.02684564 L28.885906,4.02684564 L28.885906,2.46979866 L26.738255,2.46979866 C26.6308725,2.46979866 26.6308725,2.41610738 26.6308725,2.30872483 L26.6308725,0.536912752 L26.6308725,0.483221477 L26.6308725,0.375838926 C26.6308725,0.375838926 25.1275168,0.375838926 25.1275168,0.375838926 C25.0738255,0.697986577 25.0201342,0.966442953 24.966443,1.18120805 C24.6979866,1.98657718 24.1073826,2.30872483 23.0872483,2.41610738 L23.0872483,2.57718121 L23.0872483,2.57718121 L23.0872483,3.59731544 L23.0872483,3.91946309 L23.0872483,3.91946309 L23.1946309,3.91946309 L23.4630872,3.91946309 L24.1610738,3.91946309 C24.2684564,3.91946309 24.2684564,3.97315436 24.2684564,4.08053691 L24.2684564,4.18791946 L24.2684564,8.10738255 L24.2684564,8.10738255 L24.2684564,8.2147651 C24.2684564,9.93288591 24.966443,10.6845638 26.7919463,10.6845638 C27.704698,10.8993289 28.6711409,10.5771812 29.3691275,10.2550336" id="Path"></path>
                            <path d="M8.05369128,10.147651 L8.05369128,10.0402685 L8.05369128,7.51677852 L6.4966443,7.51677852 L6.22818792,9.02013423 C6.17449664,9.18120805 6.17449664,9.18120805 6.01342282,9.18120805 L2.84563758,9.18120805 L8.10738255,1.87919463 L8.10738255,0.483221477 L2.73825503,0.483221477 L0.429530201,0.483221477 L0.161073826,0.483221477 L0.0536912752,0.483221477 L0.0536912752,3.81208054 L0.161073826,3.81208054 L0.429530201,3.81208054 L1.71812081,3.81208054 L1.98657718,2.30872483 C2.04026846,2.14765101 2.04026846,2.14765101 2.20134228,2.14765101 L5.20805369,2.14765101 L0.0536912752,9.2885906 L0.0536912752,10.3087248 L0.0536912752,10.6845638 L8.10738255,10.6845638 L8.10738255,10.147651 L8.05369128,10.147651 Z" id="Path"></path>
                            <path d="M20.5637584,10.2550336 L20.5637584,9.44966443 L20.5637584,9.44966443 L19.8657718,9.34228188 C19.7583893,9.34228188 19.704698,9.2885906 19.6510067,9.2885906 C19.5973154,9.23489933 19.5973154,9.18120805 19.5973154,9.0738255 L19.5973154,9.0738255 C19.5973154,9.0738255 19.5973154,9.0738255 19.5973154,9.0738255 L19.5973154,9.0738255 C19.5973154,9.0738255 19.5973154,9.0738255 19.5973154,9.0738255 L19.5973154,5.04697987 C19.5973154,5.04697987 19.6510067,4.93959732 19.8120805,4.83221477 C20.1342282,4.56375839 20.9395973,4.13422819 22.3355705,4.13422819 L22.442953,4.13422819 L22.442953,3.75838926 C22.442953,3.38255034 22.442953,2.84563758 22.442953,2.84563758 L22.442953,2.57718121 L22.442953,2.57718121 C22.442953,2.57718121 22.442953,2.57718121 22.442953,2.57718121 C22.1208054,2.52348993 21.7986577,2.52348993 21.5302013,2.52348993 C20.5637584,2.52348993 19.8657718,3.11409396 19.3825503,3.91946309 L19.3288591,3.91946309 L19.1677852,2.68456376 L16.4295302,2.68456376 L16.2684564,3.91946309 L17.1275168,4.18791946 C17.2885906,4.24161074 17.3422819,4.34899329 17.3422819,4.51006711 L17.3422819,9.02013423 C17.3422819,9.23489933 17.2885906,9.2885906 17.0738255,9.34228188 L16.3758389,9.44966443 L16.3758389,10.6845638 L20.5637584,10.6845638 L20.5637584,10.2550336 L20.5637584,10.2550336 Z" id="Path"></path>
                        </g>
                    </g>
                    <g id="Group" transform="translate(134.765101, 0.000000)">
                        <g opacity="0.1" id="Path">
                            <g fill="#13C4E4">
                                <path d="M48.1610738,22.0671141 C48.1610738,28.5100671 41.557047,33.0201342 36.7785235,33.0201342 L9.98657718,33.0201342 C6.60402685,33.0201342 0.214765101,29.5838926 0.214765101,22.7651007 C0.214765101,19.704698 1.98657718,16.8590604 4.77852349,15.0872483 C1.82550336,8.6442953 9.5033557,4.02684564 13.852349,6.97986577 L13.852349,6.97986577 C19.1677852,0.214765101 25.0738255,-0.483221477 29.7449664,0.805369128 C34.147651,2.04026846 38.2281879,5.15436242 39.5167785,12.1342282 C44.6174497,13.3691275 48.2684564,17.0738255 48.1610738,22.0671141 Z"></path>
                            </g>
                            <g stroke="#122844" stroke-linecap="round" stroke-linejoin="round" stroke-width="0.536912752">
                                <path d="M48.1610738,22.0671141 C48.1610738,28.5100671 41.557047,33.0201342 36.7785235,33.0201342 L9.98657718,33.0201342 C6.60402685,33.0201342 0.214765101,29.5838926 0.214765101,22.7651007 C0.214765101,19.704698 1.98657718,16.8590604 4.77852349,15.0872483 C1.82550336,8.6442953 9.5033557,4.02684564 13.852349,6.97986577 L13.852349,6.97986577 C19.1677852,0.214765101 25.0738255,-0.483221477 29.7449664,0.805369128 C34.147651,2.04026846 38.2281879,5.15436242 39.5167785,12.1342282 C44.6174497,13.3691275 48.2684564,17.0738255 48.1610738,22.0671141 Z"></path>
                            </g>
                        </g>
                        <g id="Path" stroke-linecap="round" stroke-linejoin="round" stroke-width="0.536912752">
                            <path d="M48.1610738,22.0671141 C48.1610738,28.5100671 41.557047,33.0201342 36.7785235,33.0201342 L9.98657718,33.0201342 C6.60402685,33.0201342 0.214765101,29.5838926 0.214765101,22.7651007 C0.214765101,19.704698 1.98657718,16.8590604 4.77852349,15.0872483 C1.82550336,8.6442953 9.5033557,4.02684564 13.852349,6.97986577 L13.852349,6.97986577 C19.1677852,0.214765101 25.0738255,-0.483221477 29.7449664,0.805369128 C34.147651,2.04026846 38.2281879,5.15436242 39.5167785,12.1342282 C44.6174497,13.3691275 48.2684564,17.0738255 48.1610738,22.0671141 Z" stroke="#122844"></path>
                            <path d="M48.1610738,22.0671141 C48.1610738,28.5100671 41.557047,33.0201342 36.7785235,33.0201342 L9.98657718,33.0201342 C6.60402685,33.0201342 0.214765101,29.5838926 0.214765101,22.7651007 C0.214765101,19.704698 1.98657718,16.8590604 4.77852349,15.0872483 C1.82550336,8.6442953 9.5033557,4.02684564 13.852349,6.97986577 L13.852349,6.97986577 C19.1677852,0.214765101 25.0738255,-0.483221477 29.7449664,0.805369128 C34.147651,2.04026846 38.2281879,5.15436242 39.5167785,12.1342282 C44.6174497,13.3691275 48.2684564,17.0738255 48.1610738,22.0671141 Z" stroke="#13C4E4"></path>
                        </g>
                    </g>
                    <path d="M77.1006711,117.583893 C77.1006711,65.0201342 154.308725,72.9127517 154.308725,33.0201342" id="Path" stroke="#E3CD4D" stroke-width="1.0738255" stroke-dasharray="2.147651100158691,3.221476364135742"></path>
                    <path d="M240.751678,117.583893 C240.751678,65.0201342 163.543624,72.9127517 163.543624,33.0201342" id="Path" stroke="#B0CA67" stroke-width="1.0738255"></path>
                </g>
                <path d="M29.624,136 L29.624,125.504 L32.616,125.504 C33.2026696,125.504 33.7386642,125.557333 34.224,125.664 C34.7093358,125.770667 35.122665,125.943999 35.464,126.184 C35.805335,126.424001 36.071999,126.741331 36.264,127.136 C36.456001,127.530669 36.552,128.015997 36.552,128.592 C36.552,129.146669 36.4586676,129.626665 36.272,130.032 C36.0853324,130.437335 35.821335,130.773332 35.48,131.04 C35.138665,131.306668 34.730669,131.506666 34.256,131.64 C33.781331,131.773334 33.2560029,131.84 32.68,131.84 L30.952,131.84 L30.952,136 L29.624,136 Z M30.952,130.752 L32.52,130.752 C33.4373379,130.752 34.1173311,130.578668 34.56,130.232 C35.0026689,129.885332 35.224,129.33867 35.224,128.592 C35.224,127.834663 34.9920023,127.309335 34.528,127.016 C34.0639977,126.722665 33.3733379,126.576 32.456,126.576 L30.952,126.576 L30.952,130.752 Z M38.552,136 L38.552,128.224 L39.64,128.224 L39.752,129.632 L39.8,129.632 C40.066668,129.141331 40.3893314,128.752001 40.768,128.464 C41.1466686,128.175999 41.5599978,128.032 42.008,128.032 C42.3173349,128.032 42.5946654,128.085333 42.84,128.192 L42.584,129.344 C42.4559994,129.301333 42.3386672,129.269333 42.232,129.248 C42.1253328,129.226667 41.9920008,129.216 41.832,129.216 C41.5013317,129.216 41.1573351,129.349332 40.8,129.616 C40.4426649,129.882668 40.130668,130.346663 39.864,131.008 L39.864,136 L38.552,136 Z M44.104,136 L44.104,128.224 L45.416,128.224 L45.416,136 L44.104,136 Z M44.776,126.624 C44.5199987,126.624 44.3040009,126.544001 44.128,126.384 C43.9519991,126.223999 43.864,126.021335 43.864,125.776 C43.864,125.519999 43.9519991,125.314667 44.128,125.16 C44.3040009,125.005333 44.5199987,124.928 44.776,124.928 C45.0320013,124.928 45.2479991,125.005333 45.424,125.16 C45.6000009,125.314667 45.688,125.519999 45.688,125.776 C45.688,126.021335 45.6000009,126.223999 45.424,126.384 C45.2479991,126.544001 45.0320013,126.624 44.776,126.624 Z M48.04,136 L48.04,128.224 L49.128,128.224 L49.24,129.344 L49.288,129.344 C49.629335,128.970665 49.999998,128.658668 50.4,128.408 C50.800002,128.157332 51.2346643,128.032 51.704,128.032 C52.3013363,128.032 52.7679983,128.162665 53.104,128.424 C53.4400017,128.685335 53.6879992,129.050664 53.848,129.52 C54.2533354,129.071998 54.6613313,128.712001 55.072,128.44 C55.4826687,128.167999 55.9279976,128.032 56.408,128.032 C57.208004,128.032 57.8026647,128.287997 58.192,128.8 C58.5813353,129.312003 58.776,130.069328 58.776,131.072 L58.776,136 L57.464,136 L57.464,131.248 C57.464,130.511996 57.3466678,129.981335 57.112,129.656 C56.8773322,129.330665 56.5146691,129.168 56.024,129.168 C55.4373304,129.168 54.7866702,129.567996 54.072,130.368 L54.072,136 L52.76,136 L52.76,131.248 C52.76,130.511996 52.6426678,129.981335 52.408,129.656 C52.1733322,129.330665 51.8053358,129.168 51.304,129.168 C50.7173304,129.168 50.0666702,129.567996 49.352,130.368 L49.352,136 L48.04,136 Z M63.096,136.192 C62.4453301,136.192 61.9040022,136.000002 61.472,135.616 C61.0399978,135.231998 60.824,134.688004 60.824,133.984 C60.824,133.130662 61.2026629,132.477336 61.96,132.024 C62.7173371,131.570664 63.9279917,131.253334 65.592,131.072 C65.592,130.826665 65.5680002,130.586668 65.52,130.352 C65.4719998,130.117332 65.3893339,129.909334 65.272,129.728 C65.1546661,129.546666 64.992001,129.400001 64.784,129.288 C64.575999,129.175999 64.3120016,129.12 63.992,129.12 C63.5439978,129.12 63.1226686,129.205332 62.728,129.376 C62.3333314,129.546668 61.9813349,129.738666 61.672,129.952 L61.16,129.04 C61.5226685,128.805332 61.9653307,128.578668 62.488,128.36 C63.0106693,128.141332 63.5866635,128.032 64.216,128.032 C65.1653381,128.032 65.8533312,128.322664 66.28,128.904 C66.7066688,129.485336 66.92,130.261328 66.92,131.232 L66.92,136 L65.832,136 L65.72,135.072 L65.672,135.072 C65.2986648,135.381335 64.8986688,135.645332 64.472,135.864 C64.0453312,136.082668 63.5866691,136.192 63.096,136.192 Z M63.48,135.136 C63.8533352,135.136 64.2053317,135.048001 64.536,134.872 C64.8666683,134.695999 65.2186648,134.437335 65.592,134.096 L65.592,131.936 C64.9413301,132.021334 64.3946689,132.122666 63.952,132.24 C63.5093311,132.357334 63.1520014,132.495999 62.88,132.656 C62.6079986,132.816001 62.4106673,132.999999 62.288,133.208 C62.1653327,133.416001 62.104,133.642665 62.104,133.888 C62.104,134.336002 62.237332,134.655999 62.504,134.848 C62.770668,135.040001 63.0959981,135.136 63.48,135.136 Z M69.368,136 L69.368,128.224 L70.456,128.224 L70.568,129.632 L70.616,129.632 C70.882668,129.141331 71.2053314,128.752001 71.584,128.464 C71.9626686,128.175999 72.3759978,128.032 72.824,128.032 C73.1333349,128.032 73.4106654,128.085333 73.656,128.192 L73.4,129.344 C73.2719994,129.301333 73.1546672,129.269333 73.048,129.248 C72.9413328,129.226667 72.8080008,129.216 72.648,129.216 C72.3173317,129.216 71.9733351,129.349332 71.616,129.616 C71.2586649,129.882668 70.946668,130.346663 70.68,131.008 L70.68,136 L69.368,136 Z M75.448,139.344 C75.2666658,139.344 75.1013341,139.330667 74.952,139.304 C74.8026659,139.277333 74.6640006,139.237334 74.536,139.184 L74.792,138.144 L75.08,138.216 C75.1866672,138.242667 75.2879995,138.256 75.384,138.256 C75.8320022,138.256 76.1973319,138.098668 76.48,137.784 C76.7626681,137.469332 76.9839992,137.072002 77.144,136.592 L77.32,136.016 L74.2,128.224 L75.56,128.224 L77.144,132.528 C77.2613339,132.869335 77.386666,133.229331 77.52,133.608 C77.653334,133.986669 77.7786661,134.357332 77.896,134.72 L77.96,134.72 C78.0773339,134.367998 78.1893328,134.000002 78.296,133.616 C78.4026672,133.231998 78.5093328,132.869335 78.616,132.528 L80.008,128.224 L81.288,128.224 L78.36,136.64 C78.2213326,137.024002 78.0666675,137.381332 77.896,137.712 C77.7253325,138.042668 77.5226678,138.327999 77.288,138.568 C77.0533322,138.808001 76.7866682,138.997333 76.488,139.136 C76.1893318,139.274667 75.8426686,139.344 75.448,139.344 Z M89.992,136.192 C89.3306634,136.192 88.7253361,136.064001 88.176,135.808 C87.6266639,135.551999 87.1546686,135.186669 86.76,134.712 C86.3653314,134.237331 86.0586678,133.661337 85.84,132.984 C85.6213322,132.306663 85.512,131.546671 85.512,130.704 C85.512,129.861329 85.6213322,129.10667 85.84,128.44 C86.0586678,127.77333 86.3653314,127.208002 86.76,126.744 C87.1546686,126.279998 87.6266639,125.925335 88.176,125.68 C88.7253361,125.434665 89.3306634,125.312 89.992,125.312 C90.6533366,125.312 91.2586639,125.437332 91.808,125.688 C92.3573361,125.938668 92.831998,126.295998 93.232,126.76 C93.632002,127.224002 93.9413322,127.78933 94.16,128.456 C94.3786678,129.12267 94.488,129.871996 94.488,130.704 C94.488,131.546671 94.3786678,132.306663 94.16,132.984 C93.9413322,133.661337 93.632002,134.237331 93.232,134.712 C92.831998,135.186669 92.3573361,135.551999 91.808,135.808 C91.2586639,136.064001 90.6533366,136.192 89.992,136.192 Z M89.992,135.024 C90.4613357,135.024 90.8853314,134.922668 91.264,134.72 C91.6426686,134.517332 91.9679986,134.226669 92.24,133.848 C92.5120014,133.469331 92.7226659,133.016003 92.872,132.488 C93.0213341,131.959997 93.096,131.365337 93.096,130.704 C93.096,130.05333 93.0213341,129.466669 92.872,128.944 C92.7226659,128.421331 92.5120014,127.978668 92.24,127.616 C91.9679986,127.253332 91.6426686,126.973334 91.264,126.776 C90.8853314,126.578666 90.4613357,126.48 89.992,126.48 C89.5226643,126.48 89.0986686,126.578666 88.72,126.776 C88.3413314,126.973334 88.0160014,127.253332 87.744,127.616 C87.4719986,127.978668 87.2613341,128.421331 87.112,128.944 C86.9626659,129.466669 86.888,130.05333 86.888,130.704 C86.888,131.365337 86.9626659,131.959997 87.112,132.488 C87.2613341,133.016003 87.4719986,133.469331 87.744,133.848 C88.0160014,134.226669 88.3413314,134.517332 88.72,134.72 C89.0986686,134.922668 89.5226643,135.024 89.992,135.024 Z M98.504,136 L95.144,125.504 L96.568,125.504 L98.248,131.168 C98.440001,131.797336 98.6079993,132.378664 98.752,132.912 C98.8960007,133.445336 99.0693323,134.02133 99.272,134.64 L99.336,134.64 C99.528001,134.02133 99.6986659,133.445336 99.848,132.912 C99.9973341,132.378664 100.162666,131.797336 100.344,131.168 L102.024,125.504 L103.384,125.504 L100.056,136 L98.504,136 Z M104.824,136 L104.824,125.504 L106.152,125.504 L106.152,129.904 L111.032,129.904 L111.032,125.504 L112.376,125.504 L112.376,136 L111.032,136 L111.032,131.056 L106.152,131.056 L106.152,136 L104.824,136 Z M35.872,156 L35.872,145.504 L38.496,145.504 C40.1173414,145.504 41.3493291,145.951996 42.192,146.848 C43.0346709,147.744004 43.456,149.029325 43.456,150.704 C43.456,151.536004 43.3493344,152.279997 43.136,152.936 C42.9226656,153.592003 42.6080021,154.146664 42.192,154.6 C41.7759979,155.053336 41.264003,155.399999 40.656,155.64 C40.047997,155.880001 39.3493373,156 38.56,156 L35.872,156 Z M37.2,154.912 L38.4,154.912 C39.6266728,154.912 40.5466636,154.544004 41.16,153.808 C41.7733364,153.071996 42.08,152.03734 42.08,150.704 C42.08,149.37066 41.7733364,148.352004 41.16,147.648 C40.5466636,146.943996 39.6266728,146.592 38.4,146.592 L37.2,146.592 L37.2,154.912 Z M47.376,156.192 C46.7253301,156.192 46.1840022,156.000002 45.752,155.616 C45.3199978,155.231998 45.104,154.688004 45.104,153.984 C45.104,153.130662 45.4826629,152.477336 46.24,152.024 C46.9973371,151.570664 48.2079917,151.253334 49.872,151.072 C49.872,150.826665 49.8480002,150.586668 49.8,150.352 C49.7519998,150.117332 49.6693339,149.909334 49.552,149.728 C49.4346661,149.546666 49.272001,149.400001 49.064,149.288 C48.855999,149.175999 48.5920016,149.12 48.272,149.12 C47.8239978,149.12 47.4026686,149.205332 47.008,149.376 C46.6133314,149.546668 46.2613349,149.738666 45.952,149.952 L45.44,149.04 C45.8026685,148.805332 46.2453307,148.578668 46.768,148.36 C47.2906693,148.141332 47.8666635,148.032 48.496,148.032 C49.4453381,148.032 50.1333312,148.322664 50.56,148.904 C50.9866688,149.485336 51.2,150.261328 51.2,151.232 L51.2,156 L50.112,156 L50,155.072 L49.952,155.072 C49.5786648,155.381335 49.1786688,155.645332 48.752,155.864 C48.3253312,156.082668 47.8666691,156.192 47.376,156.192 Z M47.76,155.136 C48.1333352,155.136 48.4853317,155.048001 48.816,154.872 C49.1466683,154.695999 49.4986648,154.437335 49.872,154.096 L49.872,151.936 C49.2213301,152.021334 48.6746689,152.122666 48.232,152.24 C47.7893311,152.357334 47.4320014,152.495999 47.16,152.656 C46.8879986,152.816001 46.6906673,152.999999 46.568,153.208 C46.4453327,153.416001 46.384,153.642665 46.384,153.888 C46.384,154.336002 46.517332,154.655999 46.784,154.848 C47.050668,155.040001 47.3759981,155.136 47.76,155.136 Z M55.872,156.192 C55.4559979,156.192 55.1066681,156.128001 54.824,156 C54.5413319,155.871999 54.3120009,155.696001 54.136,155.472 C53.9599991,155.247999 53.834667,154.976002 53.76,154.656 C53.685333,154.335998 53.648,153.984002 53.648,153.6 L53.648,149.296 L52.496,149.296 L52.496,148.304 L53.712,148.224 L53.872,146.048 L54.976,146.048 L54.976,148.224 L57.072,148.224 L57.072,149.296 L54.976,149.296 L54.976,153.616 C54.976,154.096002 55.0639991,154.466665 55.24,154.728 C55.4160009,154.989335 55.7279978,155.12 56.176,155.12 C56.3146674,155.12 56.4639992,155.098667 56.624,155.056 C56.7840008,155.013333 56.9279994,154.965334 57.056,154.912 L57.312,155.904 C57.0986656,155.978667 56.8666679,156.045333 56.616,156.104 C56.3653321,156.162667 56.1173346,156.192 55.872,156.192 Z M60.288,156.192 C59.6373301,156.192 59.0960022,156.000002 58.664,155.616 C58.2319978,155.231998 58.016,154.688004 58.016,153.984 C58.016,153.130662 58.3946629,152.477336 59.152,152.024 C59.9093371,151.570664 61.1199917,151.253334 62.784,151.072 C62.784,150.826665 62.7600002,150.586668 62.712,150.352 C62.6639998,150.117332 62.5813339,149.909334 62.464,149.728 C62.3466661,149.546666 62.184001,149.400001 61.976,149.288 C61.767999,149.175999 61.5040016,149.12 61.184,149.12 C60.7359978,149.12 60.3146686,149.205332 59.92,149.376 C59.5253314,149.546668 59.1733349,149.738666 58.864,149.952 L58.352,149.04 C58.7146685,148.805332 59.1573307,148.578668 59.68,148.36 C60.2026693,148.141332 60.7786635,148.032 61.408,148.032 C62.3573381,148.032 63.0453312,148.322664 63.472,148.904 C63.8986688,149.485336 64.112,150.261328 64.112,151.232 L64.112,156 L63.024,156 L62.912,155.072 L62.864,155.072 C62.4906648,155.381335 62.0906688,155.645332 61.664,155.864 C61.2373312,156.082668 60.7786691,156.192 60.288,156.192 Z M60.672,155.136 C61.0453352,155.136 61.3973317,155.048001 61.728,154.872 C62.0586683,154.695999 62.4106648,154.437335 62.784,154.096 L62.784,151.936 C62.1333301,152.021334 61.5866689,152.122666 61.144,152.24 C60.7013311,152.357334 60.3440014,152.495999 60.072,152.656 C59.7999986,152.816001 59.6026673,152.999999 59.48,153.208 C59.3573327,153.416001 59.296,153.642665 59.296,153.888 C59.296,154.336002 59.429332,154.655999 59.696,154.848 C59.962668,155.040001 60.2879981,155.136 60.672,155.136 Z M69.632,156.192 C69.1199974,156.192 68.6400022,156.101334 68.192,155.92 C67.7439978,155.738666 67.357335,155.474668 67.032,155.128 C66.706665,154.781332 66.4506676,154.354669 66.264,153.848 C66.0773324,153.341331 65.984,152.768003 65.984,152.128 C65.984,151.47733 66.0853323,150.898669 66.288,150.392 C66.4906677,149.885331 66.762665,149.456002 67.104,149.104 C67.445335,148.751998 67.8426644,148.485334 68.296,148.304 C68.7493356,148.122666 69.2266642,148.032 69.728,148.032 C70.2400026,148.032 70.6773315,148.122666 71.04,148.304 C71.4026685,148.485334 71.7226653,148.698665 72,148.944 L71.328,149.808 C71.1039989,149.605332 70.8666679,149.440001 70.616,149.312 C70.3653321,149.183999 70.0853349,149.12 69.776,149.12 C69.4239982,149.12 69.0986682,149.191999 68.8,149.336 C68.5013318,149.480001 68.2453344,149.685332 68.032,149.952 C67.8186656,150.218668 67.6506673,150.535998 67.528,150.904 C67.4053327,151.272002 67.344,151.679998 67.344,152.128 C67.344,152.576002 67.4026661,152.981332 67.52,153.344 C67.6373339,153.706668 67.799999,154.018665 68.008,154.28 C68.216001,154.541335 68.4693318,154.743999 68.768,154.888 C69.0666682,155.032 69.3919982,155.104 69.744,155.104 C70.1066685,155.104 70.4399985,155.026667 70.744,154.872 C71.0480015,154.717333 71.3226654,154.533334 71.568,154.32 L72.144,155.2 C71.7919982,155.509335 71.4026688,155.751999 70.976,155.928 C70.5493312,156.104001 70.1013357,156.192 69.632,156.192 Z M76.672,156.192 C76.1493307,156.192 75.6613356,156.098668 75.208,155.912 C74.7546644,155.725332 74.3600017,155.458668 74.024,155.112 C73.6879983,154.765332 73.424001,154.341336 73.232,153.84 C73.039999,153.338664 72.944,152.768003 72.944,152.128 C72.944,151.487997 73.0426657,150.914669 73.24,150.408 C73.4373343,149.901331 73.698665,149.472002 74.024,149.12 C74.349335,148.767998 74.7199979,148.498668 75.136,148.312 C75.5520021,148.125332 75.9839978,148.032 76.432,148.032 C76.9226691,148.032 77.3626647,148.117332 77.752,148.288 C78.1413353,148.458668 78.4666654,148.703998 78.728,149.024 C78.9893346,149.344002 79.1893326,149.727998 79.328,150.176 C79.4666674,150.624002 79.536,151.125331 79.536,151.68 C79.536,151.818667 79.5333334,151.954666 79.528,152.088 C79.5226666,152.221334 79.5093334,152.336 79.488,152.432 L74.24,152.432 C74.2933336,153.264004 74.5519977,153.922664 75.016,154.408 C75.4800023,154.893336 76.0853296,155.136 76.832,155.136 C77.2053352,155.136 77.5493318,155.080001 77.864,154.968 C78.1786682,154.855999 78.4799986,154.709334 78.768,154.528 L79.232,155.392 C78.890665,155.605334 78.5120021,155.791999 78.096,155.952 C77.6799979,156.112001 77.205336,156.192 76.672,156.192 Z M74.224,151.488 L78.384,151.488 C78.384,150.698663 78.2160017,150.098669 77.88,149.688 C77.5439983,149.277331 77.072003,149.072 76.464,149.072 C76.1866653,149.072 75.9226679,149.125333 75.672,149.232 C75.4213321,149.338667 75.1946677,149.495999 74.992,149.704 C74.7893323,149.912001 74.621334,150.165332 74.488,150.464 C74.354666,150.762668 74.2666669,151.103998 74.224,151.488 Z M81.456,156 L81.456,148.224 L82.544,148.224 L82.656,149.344 L82.704,149.344 C83.0773352,148.970665 83.4693313,148.658668 83.88,148.408 C84.2906687,148.157332 84.7679973,148.032 85.312,148.032 C86.1333374,148.032 86.7333314,148.287997 87.112,148.8 C87.4906686,149.312003 87.68,150.069328 87.68,151.072 L87.68,156 L86.368,156 L86.368,151.248 C86.368,150.511996 86.2506678,149.981335 86.016,149.656 C85.7813322,149.330665 85.4080026,149.168 84.896,149.168 C84.4906646,149.168 84.1333349,149.269332 83.824,149.472 C83.5146651,149.674668 83.1626686,149.973331 82.768,150.368 L82.768,156 L81.456,156 Z M92.656,156.192 C92.2399979,156.192 91.8906681,156.128001 91.608,156 C91.3253319,155.871999 91.0960009,155.696001 90.92,155.472 C90.7439991,155.247999 90.618667,154.976002 90.544,154.656 C90.469333,154.335998 90.432,153.984002 90.432,153.6 L90.432,149.296 L89.28,149.296 L89.28,148.304 L90.496,148.224 L90.656,146.048 L91.76,146.048 L91.76,148.224 L93.856,148.224 L93.856,149.296 L91.76,149.296 L91.76,153.616 C91.76,154.096002 91.8479991,154.466665 92.024,154.728 C92.2000009,154.989335 92.5119978,155.12 92.96,155.12 C93.0986674,155.12 93.2479992,155.098667 93.408,155.056 C93.5680008,155.013333 93.7119994,154.965334 93.84,154.912 L94.096,155.904 C93.8826656,155.978667 93.6506679,156.045333 93.4,156.104 C93.1493321,156.162667 92.9013346,156.192 92.656,156.192 Z M98.544,156.192 C98.0213307,156.192 97.5333356,156.098668 97.08,155.912 C96.6266644,155.725332 96.2320017,155.458668 95.896,155.112 C95.5599983,154.765332 95.296001,154.341336 95.104,153.84 C94.911999,153.338664 94.816,152.768003 94.816,152.128 C94.816,151.487997 94.9146657,150.914669 95.112,150.408 C95.3093343,149.901331 95.570665,149.472002 95.896,149.12 C96.221335,148.767998 96.5919979,148.498668 97.008,148.312 C97.4240021,148.125332 97.8559978,148.032 98.304,148.032 C98.7946691,148.032 99.2346647,148.117332 99.624,148.288 C100.013335,148.458668 100.338665,148.703998 100.6,149.024 C100.861335,149.344002 101.061333,149.727998 101.2,150.176 C101.338667,150.624002 101.408,151.125331 101.408,151.68 C101.408,151.818667 101.405333,151.954666 101.4,152.088 C101.394667,152.221334 101.381333,152.336 101.36,152.432 L96.112,152.432 C96.1653336,153.264004 96.4239977,153.922664 96.888,154.408 C97.3520023,154.893336 97.9573296,155.136 98.704,155.136 C99.0773352,155.136 99.4213318,155.080001 99.736,154.968 C100.050668,154.855999 100.351999,154.709334 100.64,154.528 L101.104,155.392 C100.762665,155.605334 100.384002,155.791999 99.968,155.952 C99.5519979,156.112001 99.077336,156.192 98.544,156.192 Z M96.096,151.488 L100.256,151.488 C100.256,150.698663 100.088002,150.098669 99.752,149.688 C99.4159983,149.277331 98.944003,149.072 98.336,149.072 C98.0586653,149.072 97.7946679,149.125333 97.544,149.232 C97.2933321,149.338667 97.0666677,149.495999 96.864,149.704 C96.6613323,149.912001 96.493334,150.165332 96.36,150.464 C96.226666,150.762668 96.1386669,151.103998 96.096,151.488 Z M103.328,156 L103.328,148.224 L104.416,148.224 L104.528,149.632 L104.576,149.632 C104.842668,149.141331 105.165331,148.752001 105.544,148.464 C105.922669,148.175999 106.335998,148.032 106.784,148.032 C107.093335,148.032 107.370665,148.085333 107.616,148.192 L107.36,149.344 C107.231999,149.301333 107.114667,149.269333 107.008,149.248 C106.901333,149.226667 106.768001,149.216 106.608,149.216 C106.277332,149.216 105.933335,149.349332 105.576,149.616 C105.218665,149.882668 104.906668,150.346663 104.64,151.008 L104.64,156 L103.328,156 Z" id="PrimaryOVHDatacenter" fill="#122844" fill-rule="nonzero"></path>
                <path d="M193.568,136.192 C192.831996,136.192 192.149336,136.053335 191.52,135.776 C190.890664,135.498665 190.346669,135.120002 189.888,134.64 L190.688,133.712 C191.061335,134.106669 191.501331,134.423999 192.008,134.664 C192.514669,134.904001 193.039997,135.024 193.584,135.024 C194.277337,135.024 194.815998,134.866668 195.2,134.552 C195.584002,134.237332 195.776,133.824003 195.776,133.312 C195.776,133.045332 195.730667,132.818668 195.64,132.632 C195.549333,132.445332 195.426667,132.285334 195.272,132.152 C195.117333,132.018666 194.933334,131.898667 194.72,131.792 C194.506666,131.685333 194.277335,131.573334 194.032,131.456 L192.528,130.8 C192.282665,130.693333 192.032001,130.565334 191.776,130.416 C191.519999,130.266666 191.290668,130.085334 191.088,129.872 C190.885332,129.658666 190.720001,129.405335 190.592,129.112 C190.463999,128.818665 190.4,128.480002 190.4,128.096 C190.4,127.701331 190.482666,127.333335 190.648,126.992 C190.813334,126.650665 191.042665,126.354668 191.336,126.104 C191.629335,125.853332 191.975998,125.658667 192.376,125.52 C192.776002,125.381333 193.215998,125.312 193.696,125.312 C194.325336,125.312 194.906664,125.431999 195.44,125.672 C195.973336,125.912001 196.426665,126.223998 196.8,126.608 L196.08,127.472 C195.759998,127.162665 195.405335,126.920001 195.016,126.744 C194.626665,126.567999 194.186669,126.48 193.696,126.48 C193.10933,126.48 192.637335,126.615999 192.28,126.888 C191.922665,127.160001 191.744,127.535998 191.744,128.016 C191.744,128.272001 191.794666,128.487999 191.896,128.664 C191.997334,128.840001 192.133332,128.994666 192.304,129.128 C192.474668,129.261334 192.661332,129.378666 192.864,129.48 C193.066668,129.581334 193.274666,129.674666 193.488,129.76 L194.976,130.4 C195.274668,130.528001 195.557332,130.674666 195.824,130.84 C196.090668,131.005334 196.319999,131.197332 196.512,131.416 C196.704001,131.634668 196.855999,131.890665 196.968,132.184 C197.080001,132.477335 197.136,132.815998 197.136,133.2 C197.136,133.616002 197.053334,134.005332 196.888,134.368 C196.722666,134.730668 196.485335,135.047999 196.176,135.32 C195.866665,135.592001 195.493336,135.805333 195.056,135.96 C194.618664,136.114667 194.122669,136.192 193.568,136.192 Z M202.224,136.192 C201.701331,136.192 201.213336,136.098668 200.76,135.912 C200.306664,135.725332 199.912002,135.458668 199.576,135.112 C199.239998,134.765332 198.976001,134.341336 198.784,133.84 C198.591999,133.338664 198.496,132.768003 198.496,132.128 C198.496,131.487997 198.594666,130.914669 198.792,130.408 C198.989334,129.901331 199.250665,129.472002 199.576,129.12 C199.901335,128.767998 200.271998,128.498668 200.688,128.312 C201.104002,128.125332 201.535998,128.032 201.984,128.032 C202.474669,128.032 202.914665,128.117332 203.304,128.288 C203.693335,128.458668 204.018665,128.703998 204.28,129.024 C204.541335,129.344002 204.741333,129.727998 204.88,130.176 C205.018667,130.624002 205.088,131.125331 205.088,131.68 C205.088,131.818667 205.085333,131.954666 205.08,132.088 C205.074667,132.221334 205.061333,132.336 205.04,132.432 L199.792,132.432 C199.845334,133.264004 200.103998,133.922664 200.568,134.408 C201.032002,134.893336 201.63733,135.136 202.384,135.136 C202.757335,135.136 203.101332,135.080001 203.416,134.968 C203.730668,134.855999 204.031999,134.709334 204.32,134.528 L204.784,135.392 C204.442665,135.605334 204.064002,135.791999 203.648,135.952 C203.231998,136.112001 202.757336,136.192 202.224,136.192 Z M199.776,131.488 L203.936,131.488 C203.936,130.698663 203.768002,130.098669 203.432,129.688 C203.095998,129.277331 202.624003,129.072 202.016,129.072 C201.738665,129.072 201.474668,129.125333 201.224,129.232 C200.973332,129.338667 200.746668,129.495999 200.544,129.704 C200.341332,129.912001 200.173334,130.165332 200.04,130.464 C199.906666,130.762668 199.818667,131.103998 199.776,131.488 Z M210.08,136.192 C209.567997,136.192 209.088002,136.101334 208.64,135.92 C208.191998,135.738666 207.805335,135.474668 207.48,135.128 C207.154665,134.781332 206.898668,134.354669 206.712,133.848 C206.525332,133.341331 206.432,132.768003 206.432,132.128 C206.432,131.47733 206.533332,130.898669 206.736,130.392 C206.938668,129.885331 207.210665,129.456002 207.552,129.104 C207.893335,128.751998 208.290664,128.485334 208.744,128.304 C209.197336,128.122666 209.674664,128.032 210.176,128.032 C210.688003,128.032 211.125332,128.122666 211.488,128.304 C211.850668,128.485334 212.170665,128.698665 212.448,128.944 L211.776,129.808 C211.551999,129.605332 211.314668,129.440001 211.064,129.312 C210.813332,129.183999 210.533335,129.12 210.224,129.12 C209.871998,129.12 209.546668,129.191999 209.248,129.336 C208.949332,129.480001 208.693334,129.685332 208.48,129.952 C208.266666,130.218668 208.098667,130.535998 207.976,130.904 C207.853333,131.272002 207.792,131.679998 207.792,132.128 C207.792,132.576002 207.850666,132.981332 207.968,133.344 C208.085334,133.706668 208.247999,134.018665 208.456,134.28 C208.664001,134.541335 208.917332,134.743999 209.216,134.888 C209.514668,135.032 209.839998,135.104 210.192,135.104 C210.554668,135.104 210.887998,135.026667 211.192,134.872 C211.496002,134.717333 211.770665,134.533334 212.016,134.32 L212.592,135.2 C212.239998,135.509335 211.850669,135.751999 211.424,135.928 C210.997331,136.104001 210.549336,136.192 210.08,136.192 Z M216.992,136.192 C216.511998,136.192 216.056002,136.101334 215.624,135.92 C215.191998,135.738666 214.810668,135.474668 214.48,135.128 C214.149332,134.781332 213.885334,134.354669 213.688,133.848 C213.490666,133.341331 213.392,132.768003 213.392,132.128 C213.392,131.47733 213.490666,130.898669 213.688,130.392 C213.885334,129.885331 214.149332,129.456002 214.48,129.104 C214.810668,128.751998 215.191998,128.485334 215.624,128.304 C216.056002,128.122666 216.511998,128.032 216.992,128.032 C217.472002,128.032 217.927998,128.122666 218.36,128.304 C218.792002,128.485334 219.173332,128.751998 219.504,129.104 C219.834668,129.456002 220.098666,129.885331 220.296,130.392 C220.493334,130.898669 220.592,131.47733 220.592,132.128 C220.592,132.768003 220.493334,133.341331 220.296,133.848 C220.098666,134.354669 219.834668,134.781332 219.504,135.128 C219.173332,135.474668 218.792002,135.738666 218.36,135.92 C217.927998,136.101334 217.472002,136.192 216.992,136.192 Z M216.992,135.104 C217.322668,135.104 217.626665,135.032001 217.904,134.888 C218.181335,134.743999 218.418666,134.541335 218.616,134.28 C218.813334,134.018665 218.965333,133.706668 219.072,133.344 C219.178667,132.981332 219.232,132.576002 219.232,132.128 C219.232,131.679998 219.178667,131.272002 219.072,130.904 C218.965333,130.535998 218.813334,130.218668 218.616,129.952 C218.418666,129.685332 218.181335,129.480001 217.904,129.336 C217.626665,129.191999 217.322668,129.12 216.992,129.12 C216.661332,129.12 216.357335,129.191999 216.08,129.336 C215.802665,129.480001 215.565334,129.685332 215.368,129.952 C215.170666,130.218668 215.018667,130.535998 214.912,130.904 C214.805333,131.272002 214.752,131.679998 214.752,132.128 C214.752,132.576002 214.805333,132.981332 214.912,133.344 C215.018667,133.706668 215.170666,134.018665 215.368,134.28 C215.565334,134.541335 215.802665,134.743999 216.08,134.888 C216.357335,135.032001 216.661332,135.104 216.992,135.104 Z M222.64,136 L222.64,128.224 L223.728,128.224 L223.84,129.344 L223.888,129.344 C224.261335,128.970665 224.653331,128.658668 225.064,128.408 C225.474669,128.157332 225.951997,128.032 226.496,128.032 C227.317337,128.032 227.917331,128.287997 228.296,128.8 C228.674669,129.312003 228.864,130.069328 228.864,131.072 L228.864,136 L227.552,136 L227.552,131.248 C227.552,130.511996 227.434668,129.981335 227.2,129.656 C226.965332,129.330665 226.592003,129.168 226.08,129.168 C225.674665,129.168 225.317335,129.269332 225.008,129.472 C224.698665,129.674668 224.346669,129.973331 223.952,130.368 L223.952,136 L222.64,136 Z M234.048,136.192 C233.066662,136.192 232.285336,135.840004 231.704,135.136 C231.122664,134.431996 230.832,133.42934 230.832,132.128 C230.832,131.498664 230.925332,130.930669 231.112,130.424 C231.298668,129.917331 231.546665,129.488002 231.856,129.136 C232.165335,128.783998 232.522665,128.512001 232.928,128.32 C233.333335,128.127999 233.759998,128.032 234.208,128.032 C234.656002,128.032 235.045332,128.111999 235.376,128.272 C235.706668,128.432001 236.042665,128.650665 236.384,128.928 L236.32,127.6 L236.32,124.608 L237.648,124.608 L237.648,136 L236.56,136 L236.448,135.088 L236.4,135.088 C236.090665,135.386668 235.736002,135.645332 235.336,135.864 C234.935998,136.082668 234.506669,136.192 234.048,136.192 Z M234.336,135.088 C234.698668,135.088 235.039998,135.000001 235.36,134.824 C235.680002,134.647999 235.999998,134.378668 236.32,134.016 L236.32,129.952 C235.989332,129.653332 235.672002,129.442667 235.368,129.32 C235.063998,129.197333 234.752002,129.136 234.432,129.136 C234.122665,129.136 233.832001,129.207999 233.56,129.352 C233.287999,129.496001 233.050668,129.698665 232.848,129.96 C232.645332,130.221335 232.485334,130.533332 232.368,130.896 C232.250666,131.258668 232.192,131.663998 232.192,132.112 C232.192,133.050671 232.378665,133.781331 232.752,134.304 C233.125335,134.826669 233.65333,135.088 234.336,135.088 Z M242.064,136.192 C241.41333,136.192 240.872002,136.000002 240.44,135.616 C240.007998,135.231998 239.792,134.688004 239.792,133.984 C239.792,133.130662 240.170663,132.477336 240.928,132.024 C241.685337,131.570664 242.895992,131.253334 244.56,131.072 C244.56,130.826665 244.536,130.586668 244.488,130.352 C244.44,130.117332 244.357334,129.909334 244.24,129.728 C244.122666,129.546666 243.960001,129.400001 243.752,129.288 C243.543999,129.175999 243.280002,129.12 242.96,129.12 C242.511998,129.12 242.090669,129.205332 241.696,129.376 C241.301331,129.546668 240.949335,129.738666 240.64,129.952 L240.128,129.04 C240.490668,128.805332 240.933331,128.578668 241.456,128.36 C241.978669,128.141332 242.554664,128.032 243.184,128.032 C244.133338,128.032 244.821331,128.322664 245.248,128.904 C245.674669,129.485336 245.888,130.261328 245.888,131.232 L245.888,136 L244.8,136 L244.688,135.072 L244.64,135.072 C244.266665,135.381335 243.866669,135.645332 243.44,135.864 C243.013331,136.082668 242.554669,136.192 242.064,136.192 Z M242.448,135.136 C242.821335,135.136 243.173332,135.048001 243.504,134.872 C243.834668,134.695999 244.186665,134.437335 244.56,134.096 L244.56,131.936 C243.90933,132.021334 243.362669,132.122666 242.92,132.24 C242.477331,132.357334 242.120001,132.495999 241.848,132.656 C241.575999,132.816001 241.378667,132.999999 241.256,133.208 C241.133333,133.416001 241.072,133.642665 241.072,133.888 C241.072,134.336002 241.205332,134.655999 241.472,134.848 C241.738668,135.040001 242.063998,135.136 242.448,135.136 Z M248.336,136 L248.336,128.224 L249.424,128.224 L249.536,129.632 L249.584,129.632 C249.850668,129.141331 250.173331,128.752001 250.552,128.464 C250.930669,128.175999 251.343998,128.032 251.792,128.032 C252.101335,128.032 252.378665,128.085333 252.624,128.192 L252.368,129.344 C252.239999,129.301333 252.122667,129.269333 252.016,129.248 C251.909333,129.226667 251.776001,129.216 251.616,129.216 C251.285332,129.216 250.941335,129.349332 250.584,129.616 C250.226665,129.882668 249.914668,130.346663 249.648,131.008 L249.648,136 L248.336,136 Z M254.416,139.344 C254.234666,139.344 254.069334,139.330667 253.92,139.304 C253.770666,139.277333 253.632001,139.237334 253.504,139.184 L253.76,138.144 L254.048,138.216 C254.154667,138.242667 254.256,138.256 254.352,138.256 C254.800002,138.256 255.165332,138.098668 255.448,137.784 C255.730668,137.469332 255.951999,137.072002 256.112,136.592 L256.288,136.016 L253.168,128.224 L254.528,128.224 L256.112,132.528 C256.229334,132.869335 256.354666,133.229331 256.488,133.608 C256.621334,133.986669 256.746666,134.357332 256.864,134.72 L256.928,134.72 C257.045334,134.367998 257.157333,134.000002 257.264,133.616 C257.370667,133.231998 257.477333,132.869335 257.584,132.528 L258.976,128.224 L260.256,128.224 L257.328,136.64 C257.189333,137.024002 257.034668,137.381332 256.864,137.712 C256.693332,138.042668 256.490668,138.327999 256.256,138.568 C256.021332,138.808001 255.754668,138.997333 255.456,139.136 C255.157332,139.274667 254.810669,139.344 254.416,139.344 Z M268.96,136.192 C268.298663,136.192 267.693336,136.064001 267.144,135.808 C266.594664,135.551999 266.122669,135.186669 265.728,134.712 C265.333331,134.237331 265.026668,133.661337 264.808,132.984 C264.589332,132.306663 264.48,131.546671 264.48,130.704 C264.48,129.861329 264.589332,129.10667 264.808,128.44 C265.026668,127.77333 265.333331,127.208002 265.728,126.744 C266.122669,126.279998 266.594664,125.925335 267.144,125.68 C267.693336,125.434665 268.298663,125.312 268.96,125.312 C269.621337,125.312 270.226664,125.437332 270.776,125.688 C271.325336,125.938668 271.799998,126.295998 272.2,126.76 C272.600002,127.224002 272.909332,127.78933 273.128,128.456 C273.346668,129.12267 273.456,129.871996 273.456,130.704 C273.456,131.546671 273.346668,132.306663 273.128,132.984 C272.909332,133.661337 272.600002,134.237331 272.2,134.712 C271.799998,135.186669 271.325336,135.551999 270.776,135.808 C270.226664,136.064001 269.621337,136.192 268.96,136.192 Z M268.96,135.024 C269.429336,135.024 269.853331,134.922668 270.232,134.72 C270.610669,134.517332 270.935999,134.226669 271.208,133.848 C271.480001,133.469331 271.690666,133.016003 271.84,132.488 C271.989334,131.959997 272.064,131.365337 272.064,130.704 C272.064,130.05333 271.989334,129.466669 271.84,128.944 C271.690666,128.421331 271.480001,127.978668 271.208,127.616 C270.935999,127.253332 270.610669,126.973334 270.232,126.776 C269.853331,126.578666 269.429336,126.48 268.96,126.48 C268.490664,126.48 268.066669,126.578666 267.688,126.776 C267.309331,126.973334 266.984001,127.253332 266.712,127.616 C266.439999,127.978668 266.229334,128.421331 266.08,128.944 C265.930666,129.466669 265.856,130.05333 265.856,130.704 C265.856,131.365337 265.930666,131.959997 266.08,132.488 C266.229334,133.016003 266.439999,133.469331 266.712,133.848 C266.984001,134.226669 267.309331,134.517332 267.688,134.72 C268.066669,134.922668 268.490664,135.024 268.96,135.024 Z M277.472,136 L274.112,125.504 L275.536,125.504 L277.216,131.168 C277.408001,131.797336 277.575999,132.378664 277.72,132.912 C277.864001,133.445336 278.037332,134.02133 278.24,134.64 L278.304,134.64 C278.496001,134.02133 278.666666,133.445336 278.816,132.912 C278.965334,132.378664 279.130666,131.797336 279.312,131.168 L280.992,125.504 L282.352,125.504 L279.024,136 L277.472,136 Z M283.792,136 L283.792,125.504 L285.12,125.504 L285.12,129.904 L290,129.904 L290,125.504 L291.344,125.504 L291.344,136 L290,136 L290,131.056 L285.12,131.056 L285.12,136 L283.792,136 Z M205.872,156 L205.872,145.504 L208.496,145.504 C210.117341,145.504 211.349329,145.951996 212.192,146.848 C213.034671,147.744004 213.456,149.029325 213.456,150.704 C213.456,151.536004 213.349334,152.279997 213.136,152.936 C212.922666,153.592003 212.608002,154.146664 212.192,154.6 C211.775998,155.053336 211.264003,155.399999 210.656,155.64 C210.047997,155.880001 209.349337,156 208.56,156 L205.872,156 Z M207.2,154.912 L208.4,154.912 C209.626673,154.912 210.546664,154.544004 211.16,153.808 C211.773336,153.071996 212.08,152.03734 212.08,150.704 C212.08,149.37066 211.773336,148.352004 211.16,147.648 C210.546664,146.943996 209.626673,146.592 208.4,146.592 L207.2,146.592 L207.2,154.912 Z M217.376,156.192 C216.72533,156.192 216.184002,156.000002 215.752,155.616 C215.319998,155.231998 215.104,154.688004 215.104,153.984 C215.104,153.130662 215.482663,152.477336 216.24,152.024 C216.997337,151.570664 218.207992,151.253334 219.872,151.072 C219.872,150.826665 219.848,150.586668 219.8,150.352 C219.752,150.117332 219.669334,149.909334 219.552,149.728 C219.434666,149.546666 219.272001,149.400001 219.064,149.288 C218.855999,149.175999 218.592002,149.12 218.272,149.12 C217.823998,149.12 217.402669,149.205332 217.008,149.376 C216.613331,149.546668 216.261335,149.738666 215.952,149.952 L215.44,149.04 C215.802668,148.805332 216.245331,148.578668 216.768,148.36 C217.290669,148.141332 217.866664,148.032 218.496,148.032 C219.445338,148.032 220.133331,148.322664 220.56,148.904 C220.986669,149.485336 221.2,150.261328 221.2,151.232 L221.2,156 L220.112,156 L220,155.072 L219.952,155.072 C219.578665,155.381335 219.178669,155.645332 218.752,155.864 C218.325331,156.082668 217.866669,156.192 217.376,156.192 Z M217.76,155.136 C218.133335,155.136 218.485332,155.048001 218.816,154.872 C219.146668,154.695999 219.498665,154.437335 219.872,154.096 L219.872,151.936 C219.22133,152.021334 218.674669,152.122666 218.232,152.24 C217.789331,152.357334 217.432001,152.495999 217.16,152.656 C216.887999,152.816001 216.690667,152.999999 216.568,153.208 C216.445333,153.416001 216.384,153.642665 216.384,153.888 C216.384,154.336002 216.517332,154.655999 216.784,154.848 C217.050668,155.040001 217.375998,155.136 217.76,155.136 Z M225.872,156.192 C225.455998,156.192 225.106668,156.128001 224.824,156 C224.541332,155.871999 224.312001,155.696001 224.136,155.472 C223.959999,155.247999 223.834667,154.976002 223.76,154.656 C223.685333,154.335998 223.648,153.984002 223.648,153.6 L223.648,149.296 L222.496,149.296 L222.496,148.304 L223.712,148.224 L223.872,146.048 L224.976,146.048 L224.976,148.224 L227.072,148.224 L227.072,149.296 L224.976,149.296 L224.976,153.616 C224.976,154.096002 225.063999,154.466665 225.24,154.728 C225.416001,154.989335 225.727998,155.12 226.176,155.12 C226.314667,155.12 226.463999,155.098667 226.624,155.056 C226.784001,155.013333 226.927999,154.965334 227.056,154.912 L227.312,155.904 C227.098666,155.978667 226.866668,156.045333 226.616,156.104 C226.365332,156.162667 226.117335,156.192 225.872,156.192 Z M230.288,156.192 C229.63733,156.192 229.096002,156.000002 228.664,155.616 C228.231998,155.231998 228.016,154.688004 228.016,153.984 C228.016,153.130662 228.394663,152.477336 229.152,152.024 C229.909337,151.570664 231.119992,151.253334 232.784,151.072 C232.784,150.826665 232.76,150.586668 232.712,150.352 C232.664,150.117332 232.581334,149.909334 232.464,149.728 C232.346666,149.546666 232.184001,149.400001 231.976,149.288 C231.767999,149.175999 231.504002,149.12 231.184,149.12 C230.735998,149.12 230.314669,149.205332 229.92,149.376 C229.525331,149.546668 229.173335,149.738666 228.864,149.952 L228.352,149.04 C228.714668,148.805332 229.157331,148.578668 229.68,148.36 C230.202669,148.141332 230.778664,148.032 231.408,148.032 C232.357338,148.032 233.045331,148.322664 233.472,148.904 C233.898669,149.485336 234.112,150.261328 234.112,151.232 L234.112,156 L233.024,156 L232.912,155.072 L232.864,155.072 C232.490665,155.381335 232.090669,155.645332 231.664,155.864 C231.237331,156.082668 230.778669,156.192 230.288,156.192 Z M230.672,155.136 C231.045335,155.136 231.397332,155.048001 231.728,154.872 C232.058668,154.695999 232.410665,154.437335 232.784,154.096 L232.784,151.936 C232.13333,152.021334 231.586669,152.122666 231.144,152.24 C230.701331,152.357334 230.344001,152.495999 230.072,152.656 C229.799999,152.816001 229.602667,152.999999 229.48,153.208 C229.357333,153.416001 229.296,153.642665 229.296,153.888 C229.296,154.336002 229.429332,154.655999 229.696,154.848 C229.962668,155.040001 230.287998,155.136 230.672,155.136 Z M239.632,156.192 C239.119997,156.192 238.640002,156.101334 238.192,155.92 C237.743998,155.738666 237.357335,155.474668 237.032,155.128 C236.706665,154.781332 236.450668,154.354669 236.264,153.848 C236.077332,153.341331 235.984,152.768003 235.984,152.128 C235.984,151.47733 236.085332,150.898669 236.288,150.392 C236.490668,149.885331 236.762665,149.456002 237.104,149.104 C237.445335,148.751998 237.842664,148.485334 238.296,148.304 C238.749336,148.122666 239.226664,148.032 239.728,148.032 C240.240003,148.032 240.677332,148.122666 241.04,148.304 C241.402668,148.485334 241.722665,148.698665 242,148.944 L241.328,149.808 C241.103999,149.605332 240.866668,149.440001 240.616,149.312 C240.365332,149.183999 240.085335,149.12 239.776,149.12 C239.423998,149.12 239.098668,149.191999 238.8,149.336 C238.501332,149.480001 238.245334,149.685332 238.032,149.952 C237.818666,150.218668 237.650667,150.535998 237.528,150.904 C237.405333,151.272002 237.344,151.679998 237.344,152.128 C237.344,152.576002 237.402666,152.981332 237.52,153.344 C237.637334,153.706668 237.799999,154.018665 238.008,154.28 C238.216001,154.541335 238.469332,154.743999 238.768,154.888 C239.066668,155.032 239.391998,155.104 239.744,155.104 C240.106668,155.104 240.439998,155.026667 240.744,154.872 C241.048002,154.717333 241.322665,154.533334 241.568,154.32 L242.144,155.2 C241.791998,155.509335 241.402669,155.751999 240.976,155.928 C240.549331,156.104001 240.101336,156.192 239.632,156.192 Z M246.672,156.192 C246.149331,156.192 245.661336,156.098668 245.208,155.912 C244.754664,155.725332 244.360002,155.458668 244.024,155.112 C243.687998,154.765332 243.424001,154.341336 243.232,153.84 C243.039999,153.338664 242.944,152.768003 242.944,152.128 C242.944,151.487997 243.042666,150.914669 243.24,150.408 C243.437334,149.901331 243.698665,149.472002 244.024,149.12 C244.349335,148.767998 244.719998,148.498668 245.136,148.312 C245.552002,148.125332 245.983998,148.032 246.432,148.032 C246.922669,148.032 247.362665,148.117332 247.752,148.288 C248.141335,148.458668 248.466665,148.703998 248.728,149.024 C248.989335,149.344002 249.189333,149.727998 249.328,150.176 C249.466667,150.624002 249.536,151.125331 249.536,151.68 C249.536,151.818667 249.533333,151.954666 249.528,152.088 C249.522667,152.221334 249.509333,152.336 249.488,152.432 L244.24,152.432 C244.293334,153.264004 244.551998,153.922664 245.016,154.408 C245.480002,154.893336 246.08533,155.136 246.832,155.136 C247.205335,155.136 247.549332,155.080001 247.864,154.968 C248.178668,154.855999 248.479999,154.709334 248.768,154.528 L249.232,155.392 C248.890665,155.605334 248.512002,155.791999 248.096,155.952 C247.679998,156.112001 247.205336,156.192 246.672,156.192 Z M244.224,151.488 L248.384,151.488 C248.384,150.698663 248.216002,150.098669 247.88,149.688 C247.543998,149.277331 247.072003,149.072 246.464,149.072 C246.186665,149.072 245.922668,149.125333 245.672,149.232 C245.421332,149.338667 245.194668,149.495999 244.992,149.704 C244.789332,149.912001 244.621334,150.165332 244.488,150.464 C244.354666,150.762668 244.266667,151.103998 244.224,151.488 Z M251.456,156 L251.456,148.224 L252.544,148.224 L252.656,149.344 L252.704,149.344 C253.077335,148.970665 253.469331,148.658668 253.88,148.408 C254.290669,148.157332 254.767997,148.032 255.312,148.032 C256.133337,148.032 256.733331,148.287997 257.112,148.8 C257.490669,149.312003 257.68,150.069328 257.68,151.072 L257.68,156 L256.368,156 L256.368,151.248 C256.368,150.511996 256.250668,149.981335 256.016,149.656 C255.781332,149.330665 255.408003,149.168 254.896,149.168 C254.490665,149.168 254.133335,149.269332 253.824,149.472 C253.514665,149.674668 253.162669,149.973331 252.768,150.368 L252.768,156 L251.456,156 Z M262.656,156.192 C262.239998,156.192 261.890668,156.128001 261.608,156 C261.325332,155.871999 261.096001,155.696001 260.92,155.472 C260.743999,155.247999 260.618667,154.976002 260.544,154.656 C260.469333,154.335998 260.432,153.984002 260.432,153.6 L260.432,149.296 L259.28,149.296 L259.28,148.304 L260.496,148.224 L260.656,146.048 L261.76,146.048 L261.76,148.224 L263.856,148.224 L263.856,149.296 L261.76,149.296 L261.76,153.616 C261.76,154.096002 261.847999,154.466665 262.024,154.728 C262.200001,154.989335 262.511998,155.12 262.96,155.12 C263.098667,155.12 263.247999,155.098667 263.408,155.056 C263.568001,155.013333 263.711999,154.965334 263.84,154.912 L264.096,155.904 C263.882666,155.978667 263.650668,156.045333 263.4,156.104 C263.149332,156.162667 262.901335,156.192 262.656,156.192 Z M268.544,156.192 C268.021331,156.192 267.533336,156.098668 267.08,155.912 C266.626664,155.725332 266.232002,155.458668 265.896,155.112 C265.559998,154.765332 265.296001,154.341336 265.104,153.84 C264.911999,153.338664 264.816,152.768003 264.816,152.128 C264.816,151.487997 264.914666,150.914669 265.112,150.408 C265.309334,149.901331 265.570665,149.472002 265.896,149.12 C266.221335,148.767998 266.591998,148.498668 267.008,148.312 C267.424002,148.125332 267.855998,148.032 268.304,148.032 C268.794669,148.032 269.234665,148.117332 269.624,148.288 C270.013335,148.458668 270.338665,148.703998 270.6,149.024 C270.861335,149.344002 271.061333,149.727998 271.2,150.176 C271.338667,150.624002 271.408,151.125331 271.408,151.68 C271.408,151.818667 271.405333,151.954666 271.4,152.088 C271.394667,152.221334 271.381333,152.336 271.36,152.432 L266.112,152.432 C266.165334,153.264004 266.423998,153.922664 266.888,154.408 C267.352002,154.893336 267.95733,155.136 268.704,155.136 C269.077335,155.136 269.421332,155.080001 269.736,154.968 C270.050668,154.855999 270.351999,154.709334 270.64,154.528 L271.104,155.392 C270.762665,155.605334 270.384002,155.791999 269.968,155.952 C269.551998,156.112001 269.077336,156.192 268.544,156.192 Z M266.096,151.488 L270.256,151.488 C270.256,150.698663 270.088002,150.098669 269.752,149.688 C269.415998,149.277331 268.944003,149.072 268.336,149.072 C268.058665,149.072 267.794668,149.125333 267.544,149.232 C267.293332,149.338667 267.066668,149.495999 266.864,149.704 C266.661332,149.912001 266.493334,150.165332 266.36,150.464 C266.226666,150.762668 266.138667,151.103998 266.096,151.488 Z M273.328,156 L273.328,148.224 L274.416,148.224 L274.528,149.632 L274.576,149.632 C274.842668,149.141331 275.165331,148.752001 275.544,148.464 C275.922669,148.175999 276.335998,148.032 276.784,148.032 C277.093335,148.032 277.370665,148.085333 277.616,148.192 L277.36,149.344 C277.231999,149.301333 277.114667,149.269333 277.008,149.248 C276.901333,149.226667 276.768001,149.216 276.608,149.216 C276.277332,149.216 275.933335,149.349332 275.576,149.616 C275.218665,149.882668 274.906668,150.346663 274.64,151.008 L274.64,156 L273.328,156 Z" id="SecondaryOVHDatacenter" fill="#122844" fill-rule="nonzero"></path>
                <path d="M318.557047,118.536913 L318.557047,239.610738 L165.536913,239.610738 L165.536913,118.536913 L318.557047,118.536913 L318.557047,118.536913 Z M319.09396,118 L165,118 L165,240.147651 L319.09396,240.147651 L319.09396,118 L319.09396,118 Z" id="Shape" fill="#B0CA67" fill-rule="nonzero"></path>
                <g id="Group" transform="translate(214.181208, 165.322148)">
                    <g>
                        <polygon id="Path" fill="#E0EAC2" points="0.375838926 48.1610738 0.375838926 16.4832215 27.8657718 0.644295302 55.3020134 16.4832215 55.3020134 48.1610738 27.8120805 48.1610738 27.8657718 48.1610738"></polygon>
                        <path d="M27.8657718,0.966442953 L55.0872483,16.6979866 L55.0872483,47.8926174 L27.8657718,47.9463087 L0.644295302,47.8926174 L0.644295302,16.6442953 L27.8657718,0.966442953 L27.8657718,0.966442953 Z M27.8657718,0.322147651 L0.10738255,16.3221477 L0.10738255,48.3758389 L27.8657718,48.4295302 L55.6241611,48.3758389 L55.6241611,16.3221477 L27.8657718,0.322147651 L27.8657718,0.322147651 Z" id="Shape" fill="#B0CA67" fill-rule="nonzero"></path>
                    </g>
                    <g>
                        <polygon id="Path" fill="#E0EAC2" points="0.375838926 48.1610738 0.375838926 16.4832215 27.8657718 0.644295302 55.3020134 16.4832215 55.3020134 48.1610738 27.8120805 48.1610738 27.8657718 48.1610738"></polygon>
                        <path d="M27.8657718,0.966442953 L55.0872483,16.6979866 L55.0872483,47.8926174 L27.8657718,47.9463087 L0.644295302,47.8926174 L0.644295302,16.6442953 L27.8657718,0.966442953 L27.8657718,0.966442953 Z M27.8657718,0.322147651 L0.10738255,16.3221477 L0.10738255,48.3758389 L27.8657718,48.4295302 L55.6241611,48.3758389 L55.6241611,16.3221477 L27.8657718,0.322147651 L27.8657718,0.322147651 Z" id="Shape" fill="#B0CA67" fill-rule="nonzero"></path>
                    </g>
                    <polyline id="Path" stroke="#B0CA67" stroke-width="0.536912752" fill="#E0EAC2" points="27.8657718 48.6979866 27.5973154 32.4832215 55.3020134 16.7516779"></polyline>
                    <path d="M0.10738255,16.6442953 L27.5973154,32.4832215" id="Path" stroke="#B0CA67" stroke-width="0.536912752" fill="#E0EAC2"></path>
                    <g transform="translate(10.201342, 6.442953)">
                        <polygon id="Path" fill="#E0EAC2" points="0.966442953 10.147651 17.6107383 0.536912752 34.0402685 10.2550336 17.2885906 19.6510067"></polygon>
                        <path d="M17.557047,0.859060403 L33.4496644,10.2013423 L17.2348993,19.3288591 L1.44966443,10.147651 L17.557047,0.859060403 L17.557047,0.859060403 Z M17.6107383,0.214765101 L0.429530201,10.147651 L17.2885906,19.9731544 L34.5771812,10.2550336 L17.6107383,0.214765101 L17.6107383,0.214765101 Z" id="Shape" fill="#B0CA67" fill-rule="nonzero"></path>
                    </g>
                </g>
                <g id="Group" transform="translate(168.543624, 204.550336)">
                    <g>
                        <g>
                            <g opacity="0.4" fill="#E3CD4D" id="Rectangle">
                                <rect x="0.483221477" y="0.429530201" width="24.3221477" height="24.3221477"></rect>
                            </g>
                            <g>
                                <rect id="Rectangle" fill="#E0EAC2" x="0.751677852" y="0.697986577" width="23.7852349" height="23.7852349"></rect>
                                <path d="M24.2684564,0.966442953 L24.2684564,24.2147651 L1.02013423,24.2147651 L1.02013423,0.966442953 L24.2684564,0.966442953 L24.2684564,0.966442953 Z M24.8053691,0.429530201 L0.483221477,0.429530201 L0.483221477,24.7516779 L24.8053691,24.7516779 L24.8053691,0.429530201 L24.8053691,0.429530201 Z" id="Shape" fill="#B0CA67" fill-rule="nonzero"></path>
                            </g>
                            <rect id="Rectangle" x="0.483221477" y="9.18120805" width="24.3221477" height="15.5704698"></rect>
                            <text id="VM" fill="#57710E" font-family="Helvetica" font-size="9.12751678" font-weight="normal">
                                <tspan x="6.44381208" y="16.0891275">VM</tspan>
                            </text>
                        </g>
                        <g transform="translate(16.644295, 16.107383)">
                            <circle id="Oval" fill="#B0CA67" cx="4.88590604" cy="5.04697987" r="4.88590604"></circle>
                            <path d="M7.67785235,3.48993289 L7.3557047,3.11409396 C7.19463087,2.95302013 6.97986577,2.95302013 6.87248322,3.11409396 L6.60402685,3.32885906 C6.12080537,3.75838926 5.63758389,4.24161074 5.15436242,4.67114094 L4.18791946,5.58389262 L4.18791946,5.58389262 C4.08053691,5.69127517 4.02684564,5.74496644 3.91946309,5.85234899 C3.59731544,5.53020134 3.27516779,5.20805369 3.00671141,4.83221477 C2.84563758,4.67114094 2.63087248,4.67114094 2.52348993,4.83221477 L2.46979866,4.88590604 C2.36241611,4.99328859 2.25503356,5.04697987 2.20134228,5.15436242 C2.04026846,5.31543624 2.04026846,5.53020134 2.20134228,5.63758389 L3.43624161,6.9261745 C3.54362416,7.03355705 3.65100671,7.1409396 3.75838926,7.24832215 C3.91946309,7.40939597 4.13422819,7.40939597 4.24161074,7.24832215 L5.74496644,5.85234899 C6.44295302,5.20805369 7.08724832,4.56375839 7.7852349,3.97315436 C7.7852349,3.86577181 7.7852349,3.65100671 7.67785235,3.48993289 Z" id="Path" fill="#FFFFFF"></path>
                        </g>
                    </g>
                    <g transform="translate(30.067114, 0.000000)">
                        <g>
                            <g opacity="0.4" fill="#E3CD4D" id="Rectangle">
                                <rect x="0.483221477" y="0.429530201" width="24.3221477" height="24.3221477"></rect>
                            </g>
                            <g>
                                <rect id="Rectangle" fill="#E0EAC2" x="0.751677852" y="0.697986577" width="23.7852349" height="23.7852349"></rect>
                                <path d="M24.2684564,0.966442953 L24.2684564,24.2147651 L1.02013423,24.2147651 L1.02013423,0.966442953 L24.2684564,0.966442953 L24.2684564,0.966442953 Z M24.8053691,0.429530201 L0.483221477,0.429530201 L0.483221477,24.7516779 L24.8053691,24.7516779 L24.8053691,0.429530201 L24.8053691,0.429530201 Z" id="Shape" fill="#B0CA67" fill-rule="nonzero"></path>
                            </g>
                            <rect id="Rectangle" x="0.483221477" y="9.18120805" width="24.3221477" height="15.5704698"></rect>
                            <text id="VM" fill="#57710E" font-family="Helvetica" font-size="9.12751678" font-weight="normal">
                                <tspan x="6.44381208" y="16.0891275">VM</tspan>
                            </text>
                        </g>
                        <g transform="translate(16.644295, 16.107383)">
                            <circle id="Oval" fill="#B0CA67" cx="4.88590604" cy="5.04697987" r="4.88590604"></circle>
                            <path d="M7.67785235,3.48993289 L7.3557047,3.11409396 C7.19463087,2.95302013 6.97986577,2.95302013 6.87248322,3.11409396 L6.60402685,3.32885906 C6.12080537,3.75838926 5.63758389,4.24161074 5.15436242,4.67114094 L4.18791946,5.58389262 L4.18791946,5.58389262 C4.08053691,5.69127517 4.02684564,5.74496644 3.91946309,5.85234899 C3.59731544,5.53020134 3.27516779,5.20805369 3.00671141,4.83221477 C2.84563758,4.67114094 2.63087248,4.67114094 2.52348993,4.83221477 L2.46979866,4.88590604 C2.36241611,4.99328859 2.25503356,5.04697987 2.20134228,5.15436242 C2.04026846,5.31543624 2.04026846,5.53020134 2.20134228,5.63758389 L3.43624161,6.9261745 C3.54362416,7.03355705 3.65100671,7.1409396 3.75838926,7.24832215 C3.91946309,7.40939597 4.13422819,7.40939597 4.24161074,7.24832215 L5.74496644,5.85234899 C6.44295302,5.20805369 7.08724832,4.56375839 7.7852349,3.97315436 C7.7852349,3.86577181 7.7852349,3.65100671 7.67785235,3.48993289 Z" id="Path" fill="#FFFFFF"></path>
                        </g>
                    </g>
                    <g transform="translate(60.134228, 0.000000)">
                        <g>
                            <g opacity="0.4" fill="#E3CD4D" id="Rectangle">
                                <rect x="0.483221477" y="0.429530201" width="24.3221477" height="24.3221477"></rect>
                            </g>
                            <g>
                                <rect id="Rectangle" fill="#E0EAC2" x="0.751677852" y="0.697986577" width="23.7852349" height="23.7852349"></rect>
                                <path d="M24.2684564,0.966442953 L24.2684564,24.2147651 L1.02013423,24.2147651 L1.02013423,0.966442953 L24.2684564,0.966442953 L24.2684564,0.966442953 Z M24.8053691,0.429530201 L0.483221477,0.429530201 L0.483221477,24.7516779 L24.8053691,24.7516779 L24.8053691,0.429530201 L24.8053691,0.429530201 Z" id="Shape" fill="#B0CA67" fill-rule="nonzero"></path>
                            </g>
                            <rect id="Rectangle" x="0.483221477" y="9.18120805" width="24.3221477" height="15.5704698"></rect>
                            <text id="VM" fill="#57710E" font-family="Helvetica" font-size="9.12751678" font-weight="normal">
                                <tspan x="6.44381208" y="16.0891275">VM</tspan>
                            </text>
                        </g>
                        <g transform="translate(16.644295, 16.107383)">
                            <circle id="Oval" fill="#B0CA67" cx="4.88590604" cy="5.04697987" r="4.88590604"></circle>
                            <path d="M7.67785235,3.48993289 L7.3557047,3.11409396 C7.19463087,2.95302013 6.97986577,2.95302013 6.87248322,3.11409396 L6.60402685,3.32885906 C6.12080537,3.75838926 5.63758389,4.24161074 5.15436242,4.67114094 L4.18791946,5.58389262 L4.18791946,5.58389262 C4.08053691,5.69127517 4.02684564,5.74496644 3.91946309,5.85234899 C3.59731544,5.53020134 3.27516779,5.20805369 3.00671141,4.83221477 C2.84563758,4.67114094 2.63087248,4.67114094 2.52348993,4.83221477 L2.46979866,4.88590604 C2.36241611,4.99328859 2.25503356,5.04697987 2.20134228,5.15436242 C2.04026846,5.31543624 2.04026846,5.53020134 2.20134228,5.63758389 L3.43624161,6.9261745 C3.54362416,7.03355705 3.65100671,7.1409396 3.75838926,7.24832215 C3.91946309,7.40939597 4.13422819,7.40939597 4.24161074,7.24832215 L5.74496644,5.85234899 C6.44295302,5.20805369 7.08724832,4.56375839 7.7852349,3.97315436 C7.7852349,3.86577181 7.7852349,3.65100671 7.67785235,3.48993289 Z" id="Path" fill="#FFFFFF"></path>
                        </g>
                    </g>
                    <g transform="translate(90.201342, 0.000000)">
                        <g>
                            <g opacity="0.4" fill="#E3CD4D" id="Rectangle">
                                <rect x="0.483221477" y="0.429530201" width="24.3221477" height="24.3221477"></rect>
                            </g>
                            <g>
                                <rect id="Rectangle" fill="#E0EAC2" x="0.751677852" y="0.697986577" width="23.7852349" height="23.7852349"></rect>
                                <path d="M24.2684564,0.966442953 L24.2684564,24.2147651 L1.02013423,24.2147651 L1.02013423,0.966442953 L24.2684564,0.966442953 L24.2684564,0.966442953 Z M24.8053691,0.429530201 L0.483221477,0.429530201 L0.483221477,24.7516779 L24.8053691,24.7516779 L24.8053691,0.429530201 L24.8053691,0.429530201 Z" id="Shape" fill="#B0CA67" fill-rule="nonzero"></path>
                            </g>
                            <rect id="Rectangle" x="0.483221477" y="9.18120805" width="24.3221477" height="15.5704698"></rect>
                            <text id="VM" fill="#57710E" font-family="Helvetica" font-size="9.12751678" font-weight="normal">
                                <tspan x="6.44381208" y="16.0891275">VM</tspan>
                            </text>
                        </g>
                        <g transform="translate(16.644295, 16.107383)">
                            <circle id="Oval" fill="#B0CA67" cx="4.88590604" cy="5.04697987" r="4.88590604"></circle>
                            <path d="M7.67785235,3.48993289 L7.3557047,3.11409396 C7.19463087,2.95302013 6.97986577,2.95302013 6.87248322,3.11409396 L6.60402685,3.32885906 C6.12080537,3.75838926 5.63758389,4.24161074 5.15436242,4.67114094 L4.18791946,5.58389262 L4.18791946,5.58389262 C4.08053691,5.69127517 4.02684564,5.74496644 3.91946309,5.85234899 C3.59731544,5.53020134 3.27516779,5.20805369 3.00671141,4.83221477 C2.84563758,4.67114094 2.63087248,4.67114094 2.52348993,4.83221477 L2.46979866,4.88590604 C2.36241611,4.99328859 2.25503356,5.04697987 2.20134228,5.15436242 C2.04026846,5.31543624 2.04026846,5.53020134 2.20134228,5.63758389 L3.43624161,6.9261745 C3.54362416,7.03355705 3.65100671,7.1409396 3.75838926,7.24832215 C3.91946309,7.40939597 4.13422819,7.40939597 4.24161074,7.24832215 L5.74496644,5.85234899 C6.44295302,5.20805369 7.08724832,4.56375839 7.7852349,3.97315436 C7.7852349,3.86577181 7.7852349,3.65100671 7.67785235,3.48993289 Z" id="Path" fill="#FFFFFF"></path>
                        </g>
                    </g>
                    <g transform="translate(120.268456, 0.000000)">
                        <g>
                            <g opacity="0.4" fill="#E3CD4D" id="Rectangle">
                                <rect x="0.483221477" y="0.429530201" width="24.3221477" height="24.3221477"></rect>
                            </g>
                            <g>
                                <rect id="Rectangle" fill="#E0EAC2" x="0.751677852" y="0.697986577" width="23.7852349" height="23.7852349"></rect>
                                <path d="M24.2684564,0.966442953 L24.2684564,24.2147651 L1.02013423,24.2147651 L1.02013423,0.966442953 L24.2684564,0.966442953 L24.2684564,0.966442953 Z M24.8053691,0.429530201 L0.483221477,0.429530201 L0.483221477,24.7516779 L24.8053691,24.7516779 L24.8053691,0.429530201 L24.8053691,0.429530201 Z" id="Shape" fill="#B0CA67" fill-rule="nonzero"></path>
                            </g>
                            <rect id="Rectangle" x="0.483221477" y="9.18120805" width="24.3221477" height="15.5704698"></rect>
                            <text id="VM" fill="#57710E" font-family="Helvetica" font-size="9.12751678" font-weight="normal">
                                <tspan x="6.44381208" y="16.0891275">VM</tspan>
                            </text>
                        </g>
                        <g transform="translate(16.644295, 16.107383)">
                            <circle id="Oval" fill="#B0CA67" cx="4.88590604" cy="5.04697987" r="4.88590604"></circle>
                            <path d="M7.67785235,3.48993289 L7.3557047,3.11409396 C7.19463087,2.95302013 6.97986577,2.95302013 6.87248322,3.11409396 L6.60402685,3.32885906 C6.12080537,3.75838926 5.63758389,4.24161074 5.15436242,4.67114094 L4.18791946,5.58389262 L4.18791946,5.58389262 C4.08053691,5.69127517 4.02684564,5.74496644 3.91946309,5.85234899 C3.59731544,5.53020134 3.27516779,5.20805369 3.00671141,4.83221477 C2.84563758,4.67114094 2.63087248,4.67114094 2.52348993,4.83221477 L2.46979866,4.88590604 C2.36241611,4.99328859 2.25503356,5.04697987 2.20134228,5.15436242 C2.04026846,5.31543624 2.04026846,5.53020134 2.20134228,5.63758389 L3.43624161,6.9261745 C3.54362416,7.03355705 3.65100671,7.1409396 3.75838926,7.24832215 C3.91946309,7.40939597 4.13422819,7.40939597 4.24161074,7.24832215 L5.74496644,5.85234899 C6.44295302,5.20805369 7.08724832,4.56375839 7.7852349,3.97315436 C7.7852349,3.86577181 7.7852349,3.65100671 7.67785235,3.48993289 Z" id="Path" fill="#FFFFFF"></path>
                        </g>
                    </g>
                </g>
                <g id="Group" transform="translate(232.436242, 161.026846)">
                    <circle id="Oval" fill="#B0CA67" cx="9.55704698" cy="9.55704698" r="9.55704698"></circle>
                    <rect id="Rectangle" x="0.0536912752" y="6.12080537" width="19.0604027" height="13.3691275"></rect>
                    <text id="B2" fill="#FFFFFF" font-family="Helvetica" font-size="10.738255" font-weight="normal">
                        <tspan x="3" y="14">B2</tspan>
                    </text>
                </g>
            </g>
        </g>
    </g>
</svg>