<?xml version="1.0" encoding="utf-8"?>
<!-- Generator: Adobe Illustrator 19.1.1, SVG Export Plug-In . SVG Version: 6.00 Build 0)  -->
<svg version="1.1" id="Calque_1" xmlns="http://www.w3.org/2000/svg" xmlns:xlink="http://www.w3.org/1999/xlink" x="0px" y="0px"
	 viewBox="0 0 80 80" style="enable-background:new 0 0 80 80;" xml:space="preserve">
<style type="text/css">
	.st0{fill:#12100B;}
</style>
<g id="XMLID_364_">
	<path class="st0" d="M80,72H8V0h72V72z M12,68h64V4H12V68z"/>
</g>
<path d="M63.7,16c-0.5-0.5-1.2-0.7-1.9-0.5L29,24.3c-1.1,0.3-1.7,1.4-1.4,2.4c0.3,1.1,1.4,1.7,2.4,1.4l26.1-7L24.7,52.7
	c-0.8,0.8-0.8,2,0,2.8c0.4,0.4,0.9,0.6,1.4,0.6s1-0.2,1.4-0.6l30.8-30.8l-6.7,25c-0.3,1.1,0.3,2.2,1.4,2.4c0.2,0,0.3,0.1,0.5,0.1
	c0.9,0,1.7-0.6,1.9-1.5L64.2,18C64.4,17.3,64.2,16.5,63.7,16z"/>
<g id="XMLID_365_">
	<polygon points="72,80 0,80 0,8 4,8 4,76 72,76 	"/>
</g>
</svg>
