<svg xmlns="http://www.w3.org/2000/svg" x="0px" y="0px" width="100" height="100" viewBox="0,0,256,256">
<g fill="#2859c0" fill-rule="nonzero" stroke="none" stroke-width="1" stroke-linecap="butt" stroke-linejoin="miter" stroke-miterlimit="10" stroke-dasharray="" stroke-dashoffset="0" font-family="none" font-weight="none" font-size="none" text-anchor="none" style="mix-blend-mode: normal"><g transform="scale(5.12,5.12)"><path d="M28.875,0c-0.01953,0.00781 -0.04297,0.01953 -0.0625,0.03125l-28,5.28125c-0.47656,0.08984 -0.82031,0.51172 -0.8125,1v37.28125c-0.00781,0.48828 0.33594,0.91016 0.8125,1l28,5.375c0.28906,0.05469 0.58984,-0.01953 0.82031,-0.20703c0.22656,-0.1875 0.36328,-0.46484 0.36719,-0.76172v-9h19c0.55078,0 1,-0.44922 1,-1v-28c0,-0.55078 -0.44922,-1 -1,-1h-19v-9c0.00391,-0.28906 -0.12109,-0.5625 -0.33594,-0.75391c-0.21484,-0.19141 -0.50391,-0.28125 -0.78906,-0.24609zM28,2.1875v8.5c-0.05859,0.19531 -0.05859,0.39844 0,0.59375v27.53125c-0.02734,0.13281 -0.02734,0.27344 0,0.40625v8.59375l-26,-5.03125v-35.65625zM30,12h18v26h-18v-3h1.59375c0.69922,-0.10156 6.39844,-7.39453 5.5,-8.09375c-0.69922,-0.69922 -3.10156,3.17969 -6,5.28125h-1.09375v-6.6875c1.54688,1.03125 2.98438,1.73438 3.3125,1.40625c0.51172,-0.51172 -1.38672,-1.82812 -3.3125,-3.625v-5.46875h1.6875l1.125,1c0.19922,0.19922 0.39453,0.19922 0.59375,0l0.78125,-0.8125c0.19922,-0.19922 0.19922,-0.39453 0,-0.59375l-2.28125,-2.3125c-0.10156,-0.10156 -0.30469,-0.1875 -0.40625,-0.1875h-1.5zM19.1875,14.8125l-9.09375,1v18.09375l9.40625,0.90625v-3.71875l-5.90625,-0.28125v-4.3125l5.21875,0.09375v-3.59375l-5.21875,0.09375v-4.1875l5.59375,-0.40625zM38.3125,15c-0.69922,0.10156 -6.30078,7.39453 -5.5,8.09375c0.69922,0.69922 3.10156,-3.17969 6,-5.28125h3.28125v3.78125l-1,1c-0.19922,0.19922 -0.19922,0.39453 0,0.59375l0.8125,0.8125c0.19922,0.19922 0.39453,0.19922 0.59375,0l2.3125,-2.3125c0.10156,-0.10156 0.1875,-0.27344 0.1875,-0.375v-5.625c0,-0.39844 -0.29297,-0.6875 -0.59375,-0.6875zM36.9375,23.03125c-0.09766,0.00391 -0.19922,0.01172 -0.25,0.0625c-0.69922,0.69922 3.30469,3.00781 5.40625,5.90625v3.1875h-3.78125l-1.125,-1c-0.19922,-0.19922 -0.39453,-0.19922 -0.59375,0l-0.78125,0.8125c-0.19922,0.19922 -0.19922,0.39453 0,0.59375l2.28125,2.3125c0.10156,0.10156 0.30469,0.1875 0.40625,0.1875h5.8125c0.30078,0 0.59375,-0.29297 0.59375,-0.59375v-5.90625c0,-0.75 -6.49609,-5.61328 -7.96875,-5.5625z"></path></g></g>
</svg>
