<svg xmlns="http://www.w3.org/2000/svg" viewBox="0 0 80 80" width="32px" height="32px">
  <path
    fill="none"
    stroke-linecap="round"
    stroke-linejoin="round"
    stroke="currentColor"
    stroke-width="5"
    d="M12.969 60c-2.031 -5.156 -5.469 -14.589 -5.469 -20C7.5 22.05 23.333 7.5 40 7.5s32.5 14.55 32.5 32.5c0 5.411 -3.594 15.156 -5.469 20"
  />,
  <path
    fill="currentColor"
    d="m16.936 42.208 -2.139 1.25c-4.723 2.766 -4.953 11.314 -0.528 19.094s11.855 11.845 16.578 9.081l2.139 -1.25a2.525 2.525 0 0 0 0.903 -3.417L20.313 43.125a2.459 2.459 0 0 0 -3.377 -0.917zm46.128 0 2.139 1.25c4.723 2.764 4.959 11.313 0.528 19.092s-11.855 11.845 -16.578 9.081l-2.139 -1.25a2.525 2.525 0 0 1 -0.903 -3.417L59.688 43.125a2.459 2.459 0 0 1 3.377 -0.917z"
  />
</svg>
