<svg xmlns="http://www.w3.org/2000/svg" viewBox="0 0 80 80" width="32px" height="32px">
      <path
      fill="currentColor"
      d="M39.6,32c-7.2,0-11-5.7-11-11.3c0-6.4,4.7-11.3,11-11.3c6.4,0,11,4.8,11,11.3S46,32,39.6,32z M39.6,13.3
      c-4.2,0-7.1,3.1-7.1,7.4c0,3.7,2.2,7.4,7.1,7.4s7.1-3.7,7.1-7.4C46.7,17,44.5,13.3,39.6,13.3z"
    />
    <path
      fill="currentColor"
      d="M17.8,24.5c-7.2,0-11-5.7-11-11.3c0-6.4,4.7-11.3,11-11.3c6.4,0,11,4.8,11,11.3C28.7,19.7,24.1,24.5,17.8,24.5z M17.8,5.8
      c-4.2,0-7.1,3.1-7.1,7.4c0,3.7,2.2,7.4,7.1,7.4s7.1-3.7,7.1-7.4S22.7,5.8,17.8,5.8z"
    />
    <path
      fill="currentColor"
      d="M61.5,24.5c-7.2,0-11-5.7-11-11.3c0-6.4,4.7-11.3,11-11.3c6.4,0,11,4.8,11,11.3S67.9,24.5,61.5,24.5z M61.5,5.8
      c-4.2,0-7.1,3.1-7.1,7.4c0,3.7,2.2,7.4,7.1,7.4s7.1-3.7,7.1-7.4S66.4,5.8,61.5,5.8z"
    />
    <path
      fill="currentColor"
      d="M80,44.5c0-8.9-5.8-17.9-18.3-17.9c-6.9,0-12.5,3-15.7,8.2c-1.9-0.7-4.1-1.1-6.4-1.1c-2.4,0-4.5,0.4-6.3,1
      c-3.2-5.2-8.5-8.1-15.3-8.1c-12.5,0-18,9-18,17.9V58h5v11.9C5,75.4,9.3,80,14.8,80h49.7C70,80,74,75.4,74,69.9V58h6V44.5z M53.2,48
      H26c1.4-5,5.5-9.9,13.6-9.9C47.9,38.1,51.9,43,53.2,48z M5.5,54H4v-9.5c0-6.4,3.5-13.9,13.9-13.9c6.6,0,10,3.2,11.8,5.9
      c-4.4,2.7-7,7.4-7.9,11.4h-7C10.6,48,6.9,50,5.5,54z M70,69.9c0,3.3-2.3,6.2-5.5,6.2H14.8C11.6,76,9,73.1,9,69.9V57.8
      c0-3.3,2.6-5.8,5.9-5.8h50.4c2.8,0,4.7,2.1,4.7,4.9V69.9z M76,54h-1.9c-1.1-3-4.7-6-8.8-6h-7.9c-1-4-3.6-8.6-7.8-11.2
      c1.8-2.7,5.4-6.1,12.1-6.1c10.4,0,14.3,7.4,14.3,13.8V54z"
    />
    <circle fill="currentColor" cx="61.1" cy="60.8" r="3" />
</svg>
