<svg xmlns="http://www.w3.org/2000/svg" viewBox="0 0 80 80" width="32px" height="32px">
         <path
      fill="currentColor"
      d="M46,25.1c-2.1,0-3,0.2-5,0.4v14.4c2,0.3,2.9,0.4,4.5,0.4c5.8,0,9.3-2.8,9.3-7.9C54.8,27.5,51.3,25.1,46,25.1z"
    />,
    <path
      fill="currentColor"
      d="M40,0C17.9,0,0,17.9,0,40c0,22.1,17.9,40,40,40s40-17.9,40-40C80,17.9,62.1,0,40,0z M29,59h-4V21h4V59z M45.4,44.2
		c-1.4,0-2.4-0.1-4.4-0.3V59h-4V22c2-0.4,5.5-0.7,9.3-0.7c9.2,0,13.8,4.3,13.8,10.9C60.1,39.7,54.7,44.2,45.4,44.2z"
    />,
</svg>
