<?xml version="1.0" encoding="UTF-8"?>
<svg width="32px" height="32px" viewBox="0 0 32 32" version="1.1" xmlns="http://www.w3.org/2000/svg" xmlns:xlink="http://www.w3.org/1999/xlink">
    <!-- Generator: Sketch 61.2 (89653) - https://sketch.com -->
    <title>Icons/concept/Lines/Line Communicating</title>
    <desc>Created with Sketch.</desc>
    <g id="Icons/concept/Lines/Line-Communicating" stroke="none" stroke-width="1" fill="none" fill-rule="evenodd">
<path
      fill="currentColor"
      d="M13.854 20.146c.195.196.195.512 0 .708L11.707 23H21.5c.276 0 .5.224.5.5s-.224.5-.5.5h-9.793l2.147 2.146c.195.196.195.512 0 .708-.196.195-.512.195-.708 0l-3-3-.011-.013c-.012-.012-.023-.025-.033-.039l.044.052c-.026-.027-.05-.056-.069-.087l-.02-.035-.02-.041-.014-.04c-.005-.015-.009-.03-.012-.046l-.006-.03c-.003-.022-.004-.043-.005-.063v-.022c0-.022.002-.043.005-.064L10 23.5c0-.036.004-.071.011-.105l.012-.046.015-.04c.005-.014.012-.027.019-.04.006-.013.013-.025.02-.036l.025-.035c.01-.014.02-.027.033-.04l.011-.012 3-3c.196-.195.512-.195.708 0zM28.5 13c1.933 0 3.5 1.567 3.5 3.5S30.433 20 28.5 20c-1.763 0-3.221-1.303-3.464-3H6.964c-.243 1.697-1.701 3-3.464 3C1.567 20 0 18.433 0 16.5S1.567 13 3.5 13c1.763 0 3.222 1.304 3.465 3h18.07c.243-1.696 1.702-3 3.465-3zm-25 1C2.12 14 1 15.12 1 16.5S2.12 19 3.5 19 6 17.88 6 16.5 4.88 14 3.5 14zm25 0c-1.38 0-2.5 1.12-2.5 2.5s1.12 2.5 2.5 2.5 2.5-1.12 2.5-2.5-1.12-2.5-2.5-2.5zm-9.646-7.854l3 3 .011.013c.012.012.023.025.033.039l-.044-.052c.026.027.05.056.069.087l.02.035.02.041.014.04c.005.015.009.03.012.046l.006.033.005.052v.04l-.005.052L22 9.5c0 .036-.004.071-.011.105l-.012.046-.015.04c-.005.014-.012.027-.019.04-.006.013-.013.025-.02.036l-.025.035c-.01.014-.02.027-.033.04l-.011.012-3 3c-.196.195-.512.195-.708 0-.195-.196-.195-.512 0-.708L20.292 10H10.5c-.276 0-.5-.224-.5-.5s.224-.5.5-.5h9.792l-2.146-2.146c-.195-.196-.195-.512 0-.708.196-.195.512-.195.708 0z"
    />,    </g>
</svg>
