<?xml version="1.0" encoding="UTF-8"?>
<svg width="32px" height="32px" viewBox="0 0 32 32" version="1.1" xmlns="http://www.w3.org/2000/svg" xmlns:xlink="http://www.w3.org/1999/xlink">
    <!-- Generator: Sketch 61.2 (89653) - https://sketch.com -->
    <title>Icons/concept/Server/Server Managed</title>
    <desc>Created with Sketch.</desc>
    <g id="Icons/concept/Server/Server-Managed" stroke="none" stroke-width="1" fill="none" fill-rule="evenodd">
        <path d="M30.5,2 C31.3284271,2 32,2.67157288 32,3.5 L32,12.5 C32,13.3284271 31.3284271,14 30.5,14 L1.5,14 C0.671572875,14 0,13.3284271 0,12.5 L0,3.5 C0,2.67157288 0.671572875,2 1.5,2 L30.5,2 Z M30.5,3 L1.5,3 C1.22385763,3 1,3.22385763 1,3.5 L1,12.5 C1,12.7761424 1.22385763,13 1.5,13 L30.5,13 C30.7761424,13 31,12.7761424 31,12.5 L31,3.5 C31,3.22385763 30.7761424,3 30.5,3 Z M27,6 C27.5522847,6 28,6.44771525 28,7 C28,7.55228475 27.5522847,8 27,8 C26.4477153,8 26,7.55228475 26,7 C26,6.44771525 26.4477153,6 27,6 Z" id="Color" fill="#0050D7"></path>
        <path d="M5.56181818,15 C5.83796056,15 6.06181818,15.2238576 6.06181818,15.5 L6.061,17.827 L9.377,18.285 L9.8483187,18.350144 C9.95518177,18.3648837 10.054412,18.4137892 10.1311962,18.4895596 C10.9853106,19.3323975 12.0702516,19.9029269 13.1689903,20.1202087 L16.4752142,20.2181602 L16.6636837,20.2121328 L16.6636837,20.2121328 L16.8503661,20.2199761 C17.6545065,20.2835278 18.3898841,20.7282333 18.8169356,21.4301075 C19.3096873,22.2399624 19.3096873,23.2570073 18.8169356,24.0668622 C18.7709898,24.1423757 18.7214751,24.2149124 18.6686898,24.2843179 C18.652384,24.3057477 18.6361341,24.3264257 18.6195941,24.3468137 L18.8418055,24.3454849 C18.9018259,24.3450675 18.9605509,24.3445887 19.0180244,24.3440431 C19.0621837,24.3436895 19.1052483,24.3432334 19.1476059,24.3427363 L19.3073586,24.340555 C19.3887785,24.3393408 19.4674521,24.3379495 19.543537,24.3363621 C19.6290953,24.3346245 19.7111274,24.3325958 19.7901289,24.3302946 C19.8245528,24.329248 19.8572862,24.3282299 19.8894984,24.3271615 L19.7901289,24.3302946 C19.8371677,24.3289244 19.8831321,24.3274576 19.9280689,24.3258886 L19.8894984,24.3271615 C20.0674292,24.3212597 20.2294602,24.3138206 20.3783918,24.3045124 C20.5322849,24.2949269 20.6728265,24.2832526 20.802378,24.2691933 C20.9639149,24.2516668 21.1089443,24.2303384 21.2428836,24.204542 L21.1867536,24.2149821 C21.2311182,24.2070296 21.274233,24.1986199 21.3163065,24.1897284 L21.2428836,24.204542 C21.2817742,24.1970517 21.3197297,24.1891848 21.3569009,24.1809234 L21.3163065,24.1897284 C21.3442137,24.1838307 21.3716627,24.177721 21.3987144,24.171392 L21.3569009,24.1809234 C21.3918122,24.1731642 21.4260315,24.165057 21.4596837,24.156587 L21.3987144,24.171392 C21.4367703,24.1624886 21.4740397,24.1531514 21.5106921,24.1433603 L21.4596837,24.156587 C21.4922867,24.1483811 21.5243573,24.1398346 21.5560091,24.1309341 L21.5106921,24.1433603 C21.6461696,24.1071696 21.7732161,24.0647776 21.9003805,24.0151706 C21.9136313,24.0100012 21.9268785,24.0047557 21.9401366,23.9994307 L21.9003805,24.0151706 C21.9765461,23.9854582 22.052754,23.9531576 22.1308411,23.9180508 C22.1746079,23.8983738 22.2184821,23.8777326 22.2673026,23.8537814 L28.7107358,20.7729758 C29.0437453,20.5905977 29.4177149,20.4960307 29.7934757,20.498147 C29.9903647,20.4977617 30.186482,20.522798 30.3737252,20.5718361 C30.9475888,20.7180145 31.4390882,21.0877663 31.736739,21.5954708 C32.0393634,22.1030662 32.1174023,22.713606 31.9541705,23.2739844 C31.797101,23.8442485 31.4176632,24.32758 30.9184335,24.6053477 L23.3571167,29.229375 C23.0397136,29.4258626 22.4872008,29.6689952 21.7235447,29.8853141 C20.6629552,30.1857446 19.3976296,30.3733121 17.9195211,30.4049324 L17.469697,30.409697 L17.469697,30.409697 C15.9795322,30.409697 14.134002,29.9261656 12.0799829,29.1088118 C11.3397245,28.8142415 10.6140002,28.4920814 9.92211817,28.1594033 C9.46113741,27.9377496 9.0923512,27.7493752 8.84377485,27.6125902 C8.57480988,27.5088959 8.30083313,27.4205427 8.02316478,27.347746 C7.72789519,27.2703326 7.42839734,27.2105032 7.12631181,27.1685306 C7.09307521,27.1639125 7.05978129,27.1595073 7.02645812,27.155319 L7.12631181,27.1685306 C7.01068422,27.152465 6.89467751,27.1390156 6.77838075,27.128197 L7.02645812,27.155319 C6.90979595,27.1406559 6.79277523,27.1286505 6.67548695,27.1193178 L6.77838075,27.128197 C6.54044612,27.1060628 6.30129741,27.0949404 6.06169741,27.0949543 L6.06181818,29.9290909 C6.06181818,30.1745508 5.88494302,30.3786993 5.65169381,30.4210352 L5.56181818,30.4290909 L5.56181818,30.4290909 L0.5,30.4290909 C0.223857625,30.4290909 1.26165745e-12,30.2052333 1.26165745e-12,29.9290909 C1.26165745e-12,29.6529485 0.223857625,29.4290909 0.5,29.4290909 L5.06181818,29.4290909 L5.06181818,16 L0.5,16 C0.223857625,16 1.28963507e-12,15.7761424 1.28963507e-12,15.5 C1.28963507e-12,15.2238576 0.223857625,15 0.5,15 L5.56181818,15 Z M6.061,18.836 L6.06135599,26.0949853 L6.3108104,26.0986252 C6.343849,26.0995855 6.37688345,26.1007361 6.40991331,26.1020771 L6.06135599,26.0949853 C6.39492511,26.0950329 6.72817726,26.1143817 7.06068432,26.1533099 C7.08126971,26.1557205 7.10162977,26.1581784 7.12198694,26.1607099 C7.29178227,26.1818172 7.4617159,26.2081003 7.63139009,26.2395541 C7.81976696,26.2744771 8.00773033,26.3157497 8.19529579,26.3634404 C8.42881081,26.4228219 8.66144423,26.4920608 8.89331141,26.5713229 C9.01557887,26.6131232 9.13737174,26.657609 9.25893048,26.7048841 C9.55142172,26.8608795 9.90810145,27.0430699 10.3554576,27.2581725 C11.0275817,27.5813504 11.732464,27.8942584 12.4497141,28.1796731 C14.3958817,28.9541096 16.134756,29.409697 17.469697,29.409697 C20.2008923,29.409697 21.9801145,28.9057012 22.8330817,28.3776826 L30.4141628,23.7420384 C30.6966948,23.5845753 30.9041819,23.3202761 30.9920597,23.0014232 C31.0796783,22.7005245 31.038293,22.3767455 30.875941,22.1044043 C30.7115633,21.8240392 30.4418233,21.6211155 30.1236554,21.5400581 C30.0522654,21.5213658 29.979464,21.5088791 29.9049041,21.5026997 L29.791702,21.4981737 L29.791702,21.4981737 C29.5818469,21.4969803 29.3751448,21.5492498 29.1666368,21.6625823 L22.7034822,24.7536256 C22.6492389,24.7802715 22.5950807,24.805751 22.5408913,24.8301137 C21.6006193,25.2528462 20.9375236,25.3366409 18.6083283,25.3465375 L18.3207032,25.3473874 L18.3207032,25.3473874 L18.0163373,25.3476296 L18.0163373,25.3476296 C17.7737323,25.3399673 17.5312276,25.3302304 17.2890217,25.3184359 L18.0163373,25.3476296 C17.6512108,25.3360976 17.2863114,25.3198666 16.922316,25.2989941 C16.8443447,25.2945224 16.7667663,25.2898598 16.6892356,25.2849867 C16.618598,25.2856661 16.5470286,25.2837741 16.4752142,25.2788095 L16.3925494,25.2652952 C15.0455161,25.1711456 13.71546,25.0134511 12.4369697,24.7951515 L12.330303,24.7951515 C12.0541607,24.7951515 11.830303,24.5712939 11.830303,24.2951515 C11.830303,24.0190091 12.0541607,23.7951515 12.330303,23.7951515 L12.5192742,23.8019721 L13.3470023,23.9315526 C13.3853258,23.9371576 13.4236554,23.9427088 13.461991,23.9482063 C13.6855105,23.9802583 13.9088994,24.010442 14.1324381,24.0388022 L13.461991,23.9482063 C13.8086617,23.9979207 14.1558161,24.043242 14.5032641,24.0841603 L14.1324381,24.0388022 C14.4087188,24.0738537 14.6852283,24.1061197 14.9618707,24.1355952 L14.5032641,24.0841603 C14.7721986,24.1158322 15.0413089,24.1448661 15.310507,24.1712576 L14.9618707,24.1355952 C15.2255683,24.1636915 15.4893867,24.1892523 15.7532428,24.2122733 L15.310507,24.1712576 C15.5971716,24.1993614 15.8839357,24.2244687 16.1706927,24.2465738 L15.7532428,24.2122733 C16.0306525,24.2364768 16.308104,24.2578728 16.5855007,24.2764564 L16.1706927,24.2465738 C16.3503216,24.2604208 16.5299478,24.2730897 16.709545,24.2845793 C16.7755917,24.2811703 16.8407165,24.2744168 16.9048516,24.2636346 C16.9334916,24.2592539 16.9617503,24.253642 16.9897829,24.2472556 L16.9048516,24.2636346 C16.9558293,24.2550644 17.0061818,24.243949 17.0557332,24.2303793 L16.9897829,24.2472556 C17.033657,24.2372601 17.0769774,24.2253675 17.1196271,24.2116376 L17.0557332,24.2303793 C17.1070733,24.2163198 17.1575535,24.1996256 17.2069781,24.180398 L17.1196271,24.2116376 C17.1651793,24.1969734 17.2099663,24.1802135 17.2538459,24.1614311 L17.2069781,24.180398 C17.2480445,24.164422 17.2883822,24.1466969 17.3278791,24.1272809 L17.2538459,24.1614311 C17.2992628,24.1419906 17.3437075,24.1203834 17.3870221,24.0966906 L17.3278791,24.1272809 C17.371888,24.1056469 17.4148529,24.0819134 17.4566187,24.0561609 L17.3870221,24.0966906 C17.42878,24.0738492 17.4694877,24.0490695 17.5090035,24.022424 L17.4566187,24.0561609 C17.4979184,24.0306958 17.5380455,24.0032565 17.5768502,23.9739205 L17.5090035,24.022424 C17.5504808,23.9944559 17.5906451,23.9644323 17.6293328,23.9324372 L17.5768502,23.9739205 C17.6141658,23.9457102 17.6502585,23.915746 17.6849947,23.884097 L17.6293328,23.9324372 C17.6690885,23.8995587 17.7072848,23.8645985 17.7437443,23.8276476 L17.6849947,23.884097 C17.7205039,23.8517438 17.7545957,23.8176299 17.7871275,23.7818292 L17.7437443,23.8276476 C17.8263032,23.7439761 17.8999562,23.6500978 17.9626418,23.5470718 C18.2611186,23.0565146 18.2611186,22.4404551 17.9626418,21.9498979 C17.6641649,21.4593406 17.1170379,21.1761775 16.4952521,21.216761 L13.0603655,21.11105 C11.7429135,20.8583719 10.52581,20.2360836 9.55041609,19.3185216 L6.061,18.836 Z M2.43847592,24.396675 L2.58170317,24.4010644 C2.72495827,24.4131314 2.86767894,24.4483448 3.00430367,24.5077274 C3.50438709,24.7250841 3.82343155,25.223061 3.81205176,25.7680307 C3.80721899,26.120782 3.66283901,26.4573024 3.41044423,26.703895 C3.19352171,26.9158308 2.91204574,27.0464566 2.61685539,27.0768689 L2.46835271,27.0836363 L2.46835271,27.0836363 C1.92212255,27.083492 1.43034335,26.7526823 1.22431435,26.2467975 C1.01828535,25.7409126 1.13901664,25.1606491 1.5297245,24.778923 C1.77835677,24.5360064 2.10482458,24.4042591 2.43847592,24.396675 Z M2.44636904,25.3970863 L2.36757838,25.4115769 C2.31636611,25.4273355 2.26853144,25.4551529 2.22856186,25.4942036 C2.12863793,25.5918304 2.09776078,25.7402334 2.15045291,25.869614 C2.20314504,25.9989945 2.32891806,26.0835995 2.47433221,26.0836706 C2.56290021,26.0847064 2.64825156,26.0505132 2.71160686,25.9886144 C2.77496217,25.9267155 2.81113075,25.8421823 2.81215462,25.7536142 C2.81546481,25.6082377 2.73380733,25.4805314 2.60568698,25.4248451 C2.55443885,25.4025705 2.49983703,25.3935927 2.44636904,25.3970863 Z" id="Combined-Shape" fill="#0050D7"></path>
    </g>
</svg>