<svg xmlns="http://www.w3.org/2000/svg" viewBox="0 0 80 80" width="32px" height="32px">
        <path
      fill="currentColor"
      d="M69.2,43.2H10.8C4.8,43.2,0,38.4,0,32.5V16.2c0-5.5,4.5-10,10-10h60c5.5,0,10,4.5,10,10v16.2C80,38.4,75.1,43.2,69.2,43.2
			z M10,10.2c-3.3,0-6,2.7-6,6v16.3c0,3.7,3,6.8,6.8,6.8h58.4c3.7,0,6.8-3,6.8-6.8V16.2c0-3.3-2.7-6-6-6C70,10.2,10,10.2,10,10.2z"
    />,
    <circle fill="currentColor" cx="65.3" cy="21.4" r="3" />,
    <path
      fill="currentColor"
      d="M69.5,55.1c-0.5,0.8-1.1,1-2,0.5c-1-0.5-2.2-1.3-3.8-1.3c-1,0-2.4,0.3-2.8,1.4c-0.4,1.1-0.3,2.1,1.4,3
	c0.9,0.4,3.9,1.2,5.5,2c2.6,1.4,3.9,4,3,7.6c-0.7,2.9-3.4,5.6-8.1,5.6c-3.6,0-6.9-1.9-8-3.1l1.6-2.5c0.5-0.6,1.3-0.9,2.2-0.3
	c1.6,1,2.6,1.6,4.4,1.6c1.5,0,2.7-0.5,3-1.9c0.3-1.5-0.2-2.3-1.5-3c-0.7-0.4-4.1-1.2-5.5-1.9c-3.4-1.8-3.9-5.4-2.8-8.4
	c0.7-1.9,3.2-4.4,7.5-4.4c4,0,6.5,1.8,7.1,2.5L69.5,55.1z"
    />,
    <path
      fill="currentColor"
      d="M54.7,73.6h-4.2c-0.5,0-0.9-0.1-1.1-0.3c-0.3-0.2-0.5-0.5-0.7-0.8l-1.4-4.1h-8.9L37,72.4c-0.1,0.3-0.3,0.6-0.6,0.8
	c-0.3,0.2-0.7,0.4-1.1,0.4H31l9.1-23.4h5.6L54.7,73.6z M46.1,64.7c0,0-3-9-3.2-9.6c-0.2,0.7-3.2,9.6-3.2,9.6H46.1z"
    />,
    <path
      fill="currentColor"
      d="M29.3,50.2v23.3h-2.8c-0.8,0-1.4-0.3-1.9-0.9l-11-13.9c0,0.4,0.1,2,0.1,2.3v12.5H8.9V50.2H12c0.9,0,1.1,0.3,1.6,0.8
		l11.1,14c-0.1-0.4-0.1-2.1-0.1-2.5V50.2H29.3z"
    />,
</svg>
