<?xml version="1.0" encoding="utf-8"?>
<!-- Generator: Adobe Illustrator 26.5.0, SVG Export Plug-In . SVG Version: 6.00 Build 0)  -->
<svg version="1.1" id="Calque_1" xmlns="http://www.w3.org/2000/svg" xmlns:xlink="http://www.w3.org/1999/xlink" x="0px" y="0px"
	 viewBox="0 0 61 44" style="enable-background:new 0 0 61 44;" xml:space="preserve">
<style type="text/css">
	.st0{fill:#2859C0;}
	.st1{enable-background:new    ;}
</style>
<path id="Tracé_29693" class="st0" d="M3.01,4.47c1.02-0.05,10.21,0,10.21,0l17.2,15.38c0.48,0.38,0.56,1.07,0.18,1.55
	c-0.1,0.13-0.23,0.23-0.37,0.3c-1.65,1.33-17.34,15.21-17.34,15.21H2.82c0,0-1.32-0.29,0.36-1.61C5.16,33.54,19.17,21.2,19.17,21.2
	s0.63-0.49-0.29-1.35C2.86,5.78,2.61,5.51,2.61,5.51S1.98,4.53,3.01,4.47z"/>
<path id="Tracé_29694" class="st0" d="M38.33,4.45h9.83c0.38,0.39,0.38,1.02,0,1.41C35.03,17.42,34.57,17.79,34.57,17.79
	s-0.63,0.55-1.34-0.23c-3.96-3.43-4.45-3.85-4.45-3.85s-0.76-0.32,0.32-1.42L38.33,4.45z"/>
<path id="Tracé_29695" class="st0" d="M38.33,36.92h9.83c0.38-0.39,0.38-1.02,0-1.41C35.03,23.95,34.57,23.57,34.57,23.57
	s-0.63-0.55-1.34,0.24c-3.96,3.43-4.45,3.85-4.45,3.85s-0.76,0.32,0.32,1.42L38.33,36.92z"/>
<g class="st1">
	<path class="st0" d="M51.32,31.65h-1.48v-0.81h3.86v0.81h-1.49v3.82h-0.89V31.65z M54.42,30.84h1.12l0.69,1.67l0.4,1.18h0.06
		l0.4-1.18l0.67-1.67h1.1v4.62h-0.85v-2.04l0.09-1.57h-0.06l-1.06,2.89h-0.67l-1.07-2.89h-0.06l0.1,1.57v2.04h-0.87V30.84z"/>
</g>
</svg>
