<svg xmlns="http://www.w3.org/2000/svg" xmlns:xlink="http://www.w3.org/1999/xlink" viewBox="0,0,256,256" width="50px" height="50px" fill-rule="nonzero"><g fill="#2859c0" fill-rule="nonzero" stroke="none" stroke-width="1" stroke-linecap="butt" stroke-linejoin="miter" stroke-miterlimit="10" stroke-dasharray="" stroke-dashoffset="0" font-family="none" font-weight="none" font-size="none" text-anchor="none" style="mix-blend-mode: normal"><g transform="scale(5.12,5.12)"><path d="M44.257,5.333l-12.412,-3.3c-0.192,-0.051 -0.396,-0.044 -0.582,0.021l-25.588,8.8c-0.404,0.139 -0.675,0.519 -0.675,0.946v24.2v1.2v1.065v0.01c0,0.363 0.286,0.737 0.675,0.871l25.588,8.8c0.105,0.035 0.215,0.054 0.325,0.054c0.086,0 0.173,-0.011 0.257,-0.033l12.412,-3.3c0.438,-0.117 0.743,-0.514 0.743,-0.967v-37.4c0,-0.453 -0.305,-0.85 -0.743,-0.967zM30,10.827v29.532l-21.847,-2.883l7.191,-2.637c0.394,-0.144 0.656,-0.519 0.656,-0.939v-20.185z"></path></g></g></svg>
