<svg xmlns="http://www.w3.org/2000/svg" viewBox="0 0 80 80" width="32px" height="32px">
      <path
      fill="currentColor"
      d="M72,32c0.2-4.6-1.4-8.9-4.4-12.1c-3-3.3-7.2-5-11.8-5.1C53,8.9,46.9,5.2,40,5.2c-6.9,0-13,3.7-15.8,9.6
    c-4.5,0.1-8.6,1.7-11.6,4.8C9.5,22.8,7.9,27.1,8,32c-4.4,1.4-8.5,5-7.8,11.6c0.6,5.8,6.6,9.2,11.8,9.2h5.3c0.8,11,8.5,22,22.7,22
    c0,0,0,0,0,0c0,0,0,0,0,0c12.9,0,22-9,22.8-22h5.3c5.2,0,11.3-3.7,11.8-9.2C80.3,37.8,77.6,33.9,72,32z M42,70.6l0-1.8
    c0-1.1-0.9-2-2-2c0,0,0,0,0,0c-1.1,0-2,1-2,2.1l0,1.9c-10.8-0.9-16.1-9.3-16.7-17.6l2.1,0c1.1,0,2-1.1,2-2.2c0-1.1-0.9-2.2-2-2.2
    c0,0,0,0,0,0L21.3,49c0.9-9.5,7.8-16.2,16.8-17.1v2c0,1.1,0.9,2,2,2s2-0.9,2-2v-2c9,0.9,15.7,7.9,16.6,16.9h-1.9c-1.1,0-2,0.9-2,2
    s0.9,2,2,2h2C58.1,61.8,52.8,69.7,42,70.6z M75.8,43.2c-0.3,3.5-4.8,5.6-7.8,5.6h-5.3c-0.9-12-8.6-20.1-20.6-20.9v-2.1h2.3
    c1.1,0,2-0.9,2-2s-0.9-2-2-2h-8.9c-1.1,0-2,0.9-2,2s0.9,2,2,2h2.6v2.1c-12,0.9-19.9,9.9-20.9,20.9H12c-3.5,0-7.4-2.2-7.8-5.6
    c-0.6-5.9,4.2-7.4,6.3-7.8l1.8-0.3l-0.2-1.8c-0.4-4.3,0.8-8.2,3.4-10.9c2.4-2.5,6-3.8,9.9-3.6l1.5,0.1l0.5-1.4
    c2.3-6.1,8.1-8.3,12.7-8.3c4.6,0,10.3,2.2,12.7,8.3l0.5,1.4l1.5-0.1c3.9-0.2,7.5,1.1,10,3.8c2.6,2.7,3.7,6.6,3.2,10.7l-0.2,1.8
    l1.8,0.3C74.2,36.5,76.2,38.9,75.8,43.2z"
    />,
    <path
      fill="currentColor"
      d="M50.7,39.1c-0.8-0.7-2.1-0.6-2.8,0.2l-4.6,5.4c-1-0.5-2.1-0.8-3.3-0.8c-4.2,0-7.7,3.4-7.7,7.7s3.4,7.7,7.7,7.7
	s7.7-3.4,7.7-7.7c0-1.6-0.5-3.1-1.3-4.3l4.6-5.4C51.7,41,51.5,39.8,50.7,39.1z M40,53.9c-1.3,0-2.3-1-2.3-2.3c0-1.1,0.7-2,1.7-2.2
	l-0.8,1c-0.7,0.8-0.6,2.1,0.2,2.8c0.4,0.3,0.8,0.5,1.3,0.5c0.6,0,1.1-0.2,1.5-0.7l0.6-0.7C42,53.2,41.1,53.9,40,53.9z"
    />,
</svg>
