<svg xmlns="http://www.w3.org/2000/svg" xmlns:xlink="http://www.w3.org/1999/xlink" viewBox="0,0,256,256" width="80px" height="80px" fill-rule="nonzero"><g fill="#2859c0" fill-rule="nonzero" stroke="none" stroke-width="1" stroke-linecap="butt" stroke-linejoin="miter" stroke-miterlimit="10" stroke-dasharray="" stroke-dashoffset="0" font-family="none" font-weight="none" font-size="none" text-anchor="none" style="mix-blend-mode: normal"><g transform="scale(3.2,3.2)"><path d="M46,9.79297l-36,6.82227v0.82813v45.94141l36,6.82227v-10.2793c0.34626,0.04779 0.6849,0.07227 1,0.07227c3.70441,0 6.70479,-2.83677 6.97461,-6.46875c3.43463,-1.12999 6.30655,-3.47019 8.10938,-6.59961c0.30075,0.03975 0.60474,0.06836 0.91602,0.06836c3.85415,0 7,-3.14585 7,-7c0,-3.85415 -3.14585,-7 -7,-7c-0.28961,0 -0.57294,0.0241 -0.85352,0.05859c-1.79939,-3.18676 -4.69947,-5.56964 -8.17773,-6.71289c-0.32723,-3.57331 -3.3059,-6.3457 -6.96875,-6.3457c-0.33671,0 -0.67004,0.02434 -1,0.06836zM44,12.20703v8.99609c-0.01637,0.10352 -0.01637,0.20898 0,0.3125v11.07617c-0.00165,0.03318 -0.00165,0.06643 0,0.09961v14.51172c-0.01637,0.10352 -0.01637,0.20898 0,0.3125v11.07617c-0.00165,0.03318 -0.00165,0.06643 0,0.09961v9.10156l-32,-6.06445v-43.45703zM41,15c-0.55228,0 -1,0.44772 -1,1c0,0.55228 0.44772,1 1,1c0.55228,0 1,-0.44772 1,-1c0,-0.55228 -0.44772,-1 -1,-1zM41,19c-0.55228,0 -1,0.44772 -1,1c0,0.55228 0.44772,1 1,1c0.55228,0 1,-0.44772 1,-1c0,-0.55228 -0.44772,-1 -1,-1zM47,22c2.83619,0 5,2.16381 5,5c0,2.83619 -2.16381,5 -5,5c-0.32305,0 -0.66528,-0.04463 -1,-0.11328v-9.78711c0.30084,-0.06178 0.61998,-0.09961 1,-0.09961zM41,23c-0.55228,0 -1,0.44772 -1,1c0,0.55228 0.44772,1 1,1c0.55228,0 1,-0.44772 1,-1c0,-0.55228 -0.44772,-1 -1,-1zM41,27c-0.55228,0 -1,0.44772 -1,1c0,0.55228 0.44772,1 1,1c0.55228,0 1,-0.44772 1,-1c0,-0.55228 -0.44772,-1 -1,-1zM53.85547,28.42969c2.62824,0.98834 4.83191,2.79585 6.30469,5.18164c-2.44509,1.09384 -4.16016,3.54568 -4.16016,6.38867c0,2.82165 1.68972,5.25739 4.10547,6.36328c-1.47773,2.34854 -3.67141,4.1231 -6.27734,5.0957c-0.69726,-3.13431 -3.47489,-5.45898 -6.82812,-5.45898c-0.33671,0 -0.67004,0.02434 -1,0.06836v-12.14062c0.34626,0.04779 0.6849,0.07227 1,0.07227c3.39336,0 6.20055,-2.37907 6.85547,-5.57031zM26.53125,30c-1.032,0 -1.95967,0.10078 -2.88867,0.30078c-0.929,0.2 -1.65105,0.6 -2.37305,1c-0.722,0.5 -1.23739,0.99922 -1.65039,1.69922c-0.413,0.7 -0.61914,1.5 -0.61914,2.5c0,1.2 0.41377,2.19961 1.13477,3.09961c0.723,0.9 1.85678,1.60117 3.30078,2.20117c0.619,0.3 1.13634,0.49922 1.65234,0.69922c0.516,0.2 0.92684,0.49922 1.33984,0.69922c0.309,0.3 0.62017,0.50078 0.82617,0.80078c0.207,0.3 0.30859,0.6 0.30859,1c0,0.2 -0.10208,0.49922 -0.20508,0.69922c-0.103,0.2 -0.30914,0.40156 -0.61914,0.60156c-0.31,0.2 -0.6202,0.29844 -1.0332,0.39844c-0.412,0.1 -0.92736,0.10156 -1.44336,0.10156c-0.929,0 -1.75559,-0.2 -2.68359,-0.5c-0.928,-0.3 -1.75261,-0.80039 -2.47461,-1.40039v4.09961c0.619,0.3 1.44405,0.59922 2.37305,0.69922c0.929,0.2 1.96019,0.30078 2.99219,0.30078c1.032,0 1.95967,-0.10078 2.88867,-0.30078c0.929,-0.2 1.65105,-0.49844 2.37305,-0.89844c0.722,-0.4 1.23739,-1.00117 1.65039,-1.70117c0.309,-0.7 0.51519,-1.49961 0.61719,-2.59961c0,-0.7 -0.10259,-1.30039 -0.30859,-1.90039c-0.31,-0.6 -0.6202,-1.1 -1.0332,-1.5c-0.413,-0.5 -0.92788,-0.89922 -1.54687,-1.19922c-0.619,-0.4 -1.3405,-0.7 -2.0625,-1c-0.515,-0.2 -1.03231,-0.39961 -1.44531,-0.59961c-0.413,-0.2 -0.82477,-0.40156 -1.13477,-0.60156c-0.309,-0.2 -0.51666,-0.49922 -0.72266,-0.69922c-0.103,-0.2 -0.20508,-0.50078 -0.20508,-0.80078c0,-0.3 0.10208,-0.59883 0.20508,-0.79883c0.103,-0.2 0.30914,-0.39961 0.61914,-0.59961c0.31,-0.2 0.6202,-0.30039 1.0332,-0.40039c0.412,-0.1 0.82384,-0.09961 1.33984,-0.09961c0.413,0 0.72177,-0.00039 1.13477,0.09961c0.31,0 0.72372,0.09922 1.13672,0.19922c0.413,0.1 0.72177,0.20039 1.13477,0.40039c0.413,0.2 0.72125,0.39961 1.03125,0.59961v-3.90039c-0.619,-0.2 -1.3405,-0.4 -2.0625,-0.5c-0.722,-0.1 -1.54808,-0.19922 -2.58008,-0.19922zM41,31c-0.55228,0 -1,0.44772 -1,1c0,0.55228 0.44772,1 1,1c0.55228,0 1,-0.44772 1,-1c0,-0.55228 -0.44772,-1 -1,-1zM41,35c-0.55228,0 -1,0.44772 -1,1c0,0.55228 0.44772,1 1,1c0.55228,0 1,-0.44772 1,-1c0,-0.55228 -0.44772,-1 -1,-1zM63,35c2.77327,0 5,2.22673 5,5c0,2.77327 -2.22673,5 -5,5c-2.77327,0 -5,-2.22673 -5,-5c0,-2.77327 2.22673,-5 5,-5zM41,39c-0.55228,0 -1,0.44772 -1,1c0,0.55228 0.44772,1 1,1c0.55228,0 1,-0.44772 1,-1c0,-0.55228 -0.44772,-1 -1,-1zM41,43c-0.55228,0 -1,0.44772 -1,1c0,0.55228 0.44772,1 1,1c0.55228,0 1,-0.44772 1,-1c0,-0.55228 -0.44772,-1 -1,-1zM41,47c-0.55228,0 -1,0.44772 -1,1c0,0.55228 0.44772,1 1,1c0.55228,0 1,-0.44772 1,-1c0,-0.55228 -0.44772,-1 -1,-1zM47,48c2.83619,0 5,2.16381 5,5c0,2.83619 -2.16381,5 -5,5c-0.32305,0 -0.66528,-0.04463 -1,-0.11328v-9.78711c0.30084,-0.06178 0.61998,-0.09961 1,-0.09961zM41,51c-0.55228,0 -1,0.44772 -1,1c0,0.55228 0.44772,1 1,1c0.55228,0 1,-0.44772 1,-1c0,-0.55228 -0.44772,-1 -1,-1zM41,55c-0.55228,0 -1,0.44772 -1,1c0,0.55228 0.44772,1 1,1c0.55228,0 1,-0.44772 1,-1c0,-0.55228 -0.44772,-1 -1,-1zM41,59c-0.55228,0 -1,0.44772 -1,1c0,0.55228 0.44772,1 1,1c0.55228,0 1,-0.44772 1,-1c0,-0.55228 -0.44772,-1 -1,-1zM41,63c-0.55228,0 -1,0.44772 -1,1c0,0.55228 0.44772,1 1,1c0.55228,0 1,-0.44772 1,-1c0,-0.55228 -0.44772,-1 -1,-1z"></path></g></g></svg>