<svg xmlns="http://www.w3.org/2000/svg" viewBox="0 0 80 80" width="32px" height="32px">
      <path
      fill="currentColor"
      d="M55.3,59.5c7.7,0,13.7-6.3,13.7-14v-31c0-7.7-5.9-14-13.7-14H24.7C17,0.5,11,6,11,14.5v31c0,7.7,6,14,13.7,14H38v4
	c-3,0.7-5.2,3-5.9,6H11v4h21.1c0.9,3,4,5.9,7.7,5.9s6.8-2.9,7.7-5.9H69v-4H47.6c-0.7-3-2.6-5.1-5.6-5.9v-4.1H55.3z M43.8,71.3
	c0,2.2-1.8,4-4,4s-4-1.8-4-4s1.8-4,4-4S43.8,69.1,43.8,71.3z M65,45.9c0,4.8-3.5,9.7-9,9.7H25c-5.5,0-10-4.5-10-10v-31
	c0-5.5,4.5-10,10-10h31c5,0,9,4.8,9,10.3V45.9z"
    />,
    <path
      fill="currentColor"
      d="M51.9,19.6c-0.5-4-3.7-7-7.7-7h-8.8c-4.1,0-7.8,3.2-8.4,7.1c-4.6,0.7-8.1,4.9-8.1,10v10c0,5.6,4.1,9.9,9.5,9.9h22.6
	c5.5,0,9.8-4.3,9.8-9.9v-10C61,24.4,57,20,51.9,19.6z M57,39.7c0,2.7-1.6,4.9-4,5.6v-6.7h-4v7h-3v-7h-4v7h-3v-7h-4v7h-3v-7h-4v7
	c-2.9-0.3-5-2.6-5-5.8v-10c0-3.5,2.4-6.1,5.5-6.1H31v-2.9c0-2.1,2.2-4.1,4.4-4.1h8.8c2.1,0,3.8,1.8,3.8,4.1v2.9h3.2
	c3.2,0,5.8,2.7,5.8,6.1V39.7z"
    />,
</svg>
