<svg xmlns="http://www.w3.org/2000/svg" viewBox="0 0 80 80" width="32px" height="32px">
      <path
      fill="currentColor"
      d="M51.8,80H18.5V9.9C18.5,4.4,23,0,28.4,0h33.1v70.3C61.5,75.7,57.2,80,51.8,80z M22.5,76h29.3c3.1,0,5.7-2.6,5.7-5.7V4H28.4
		c-3.3,0-5.9,2.6-5.9,5.9V76z"
    />,
    <path
      fill="currentColor"
      d="M47.7,36.2H32.3c-3.3,0-6-2.7-6-6v-14c0-3.6,2.9-6.5,6.5-6.5h14.7c3.4,0,6.2,2.8,6.2,6.2v14.2C53.7,33.5,51,36.2,47.7,36.2
		z M32.7,13.7c-1.4,0-2.5,1.1-2.5,2.5v14c0,1.1,0.9,2,2,2h15.4c1.1,0,2-0.9,2-2V16c0-1.2-1-2.2-2.2-2.2H32.7z"
    />,
    <path
      fill="currentColor"
      d="M41,71.3H39c-1.1,0-2-0.9-2-2s0.9-2,2-2H41c1.1,0,2,0.9,2,2S42.1,71.3,41,71.3z"
    />,
    <circle fill="currentColor" cx="40" cy="44.1" r="3.3" />,
    <circle fill="currentColor" cx="50" cy="44.1" r="3.3" />,
    <circle fill="currentColor" cx="30" cy="44.1" r="3.3" />,
    <circle fill="currentColor" cx="40" cy="53.1" r="3.3" />,
    <circle fill="currentColor" cx="50" cy="53.1" r="3.3" />,
    <circle fill="currentColor" cx="30" cy="53.1" r="3.3" />,
    <circle fill="currentColor" cx="40" cy="62.1" r="3.3" />,
    <circle fill="currentColor" cx="50" cy="62.1" r="3.3" />,
    <circle fill="currentColor" cx="30" cy="62.1" r="3.3" />,
  ],
</svg>
