<svg xmlns="http://www.w3.org/2000/svg" viewBox="0 0 80 80" width="32px" height="32px">
       <path
      fill="currentColor"
      d="M39.7,34.1c-1.1,0-2,0.9-2,2v8.6l0.5,0.6c5,5.8,5.2,6,5.4,6.1c0.4,0.3,0.8,0.4,1.2,0.4c0.6,0,1.2-0.3,1.6-0.8
		c0.6-0.8,0.5-2-0.2-2.7c-0.4-0.4-2.7-3-4.5-5.1v-7.1C41.7,35,40.8,34.1,39.7,34.1z"
    />,
    <path
      fill="currentColor"
      d="M39.7,25c-8.3,0-15.4,5.6-17.8,13.4l-1.6-2c-0.7-0.9-1.9-1-2.8-0.4c-0.9,0.7-1,1.9-0.4,2.8l5.5,7.2l7.5-4.4
		c1-0.6,1.3-1.8,0.7-2.7c-0.6-1-1.8-1.3-2.7-0.7l-2.4,1.4C27.6,33.4,33.1,29,39.7,29c8,0,14.6,6.7,14.6,15s-6.5,15-14.6,15
		c-1.1,0-2,0.9-2,2s0.9,2,2,2c10.2,0,18.6-8.5,18.6-19C58.2,33.5,49.9,25,39.7,25z"
    />,
    <path
      fill="currentColor"
      d="M65.2,28.7c-1.1-4.8-3.5-9-7.2-12.3c-4.4-4-10.1-6.2-16-6.2c-4.6,0-9,1.3-12.9,3.8c-2.8,1.8-5.2,4.2-7,6.9
		C14,20.2,7.1,26.7,7.1,34.7c0,0.5,0,1.1,0.1,1.6C3,39.8,0.5,45.1,0.5,50.5c0,4.8,1.8,9.4,5,13c3.3,3.8,7.8,6,12.5,6.3l32.2,0.1
		c0.1,0,0.2,0.1,0.3,0.1h9.4l0.3-0.1c5.2-0.4,10.1-2.8,13.7-6.8c3.6-3.9,5.5-9,5.5-14.3C79.5,39.7,73.6,31.5,65.2,28.7z M71,60.4
		c-2.9,3.2-6.8,5.1-11,5.5l-41.9,0c-3.6-0.2-7.1-2-9.7-4.9c-2.6-2.9-4-6.6-4-10.4c0-4.6,2.2-9,6-11.7l1-0.7l-0.2-1.2
		c-0.1-0.7-0.2-1.4-0.2-2.1c0-6.1,5.6-10.9,11.8-9.7l1.4,0.3l0.7-1.2c1.5-2.7,3.8-5,6.4-6.7c3.2-2.1,6.9-3.1,10.7-3.1
		c4.9,0,9.7,1.8,13.3,5.2c3.3,3,5.4,6.9,6.1,11.3l0.2,1.3l1.2,0.3c7.2,1.9,12.5,8.9,12.5,16.5C75.5,53,73.9,57.2,71,60.4z"
    />,
</svg>
