<svg xmlns="http://www.w3.org/2000/svg" viewBox="0 0 80 80" width="32px" height="32px">
        <path fill="currentColor" d="M67.7,11.6H11.8C5.2,11.6,0,16.9,0,23.5v13c0,6.6,5.2,12,11.8,12H38v4c-3,0.7-5.6,3-6.3,6H11v4h20.8c0.9,3,4,5.9,7.7,5.9
		c3.7,0,6.8-2.9,7.7-5.9H69v-4H47.2c-0.7-3-3.2-5.1-5.2-5.9v-4.1h25.7c6.6,0,12.3-5.4,12.3-12v-13C80,16.9,74.4,11.6,67.7,11.6z
		 M43.5,60.3c0,2.2-1.8,4-4,4c-2.2,0-4-1.8-4-4s1.8-4,4-4C41.7,56.3,43.5,58.1,43.5,60.3z M76,36.6c0,4.4-3.6,8-8,8H12
		c-4.4,0-8-3.6-8-8v-13c0-4.4,3.6-8,8-8h56c4.4,0,8,3.6,8,8V36.6z" />
         <circle fill="currentColor" cx="65.1" cy="26.7" r="3" />,
</svg>
