<svg id="Layer_1" data-name="Layer 1" xmlns="http://www.w3.org/2000/svg" viewBox="0 0 30 30"><defs><style>.cls-1{fill:#7991a3;}.cls-2{fill:#59697d;}</style></defs><title>icon_notification</title><path class="cls-1" d="M21.62,14.94l-1.87,5L21,22.84,6.35,17.64l3-1.35s1.38-3.88,1.87-5.09a5.69,5.69,0,0,1,5.85-2.77L17.22,8a1,1,0,0,1,1.89.64L19,9C22.1,10.62,21.62,14.94,21.62,14.94ZM15,23.61a2.83,2.83,0,0,0,2.19-1l-5-1.79A2.85,2.85,0,0,0,15,23.61Z"/><path class="cls-2" d="M15,2A13,13,0,1,1,2,15,13,13,0,0,1,15,2m0-2A15,15,0,1,0,30,15,15,15,0,0,0,15,0Z"/></svg>