<svg width="406" height="57" viewBox="0 0 406 57" fill="none" xmlns="http://www.w3.org/2000/svg">
<path d="M167.52 2.19958V36.0396" stroke="#000E9C" stroke-width="1.43"/>
<path fill-rule="evenodd" clip-rule="evenodd" d="M239.979 4.12958C242.749 9.11428 243.972 14.8101 243.495 20.4924C243.018 26.1747 240.861 31.5866 237.299 36.0396H221.919L226.659 27.6696H220.399L227.779 14.6696H234.079L239.979 4.12958ZM209.619 36.0396H193.939C190.309 31.6032 188.107 26.1724 187.622 20.461C187.136 14.7496 188.39 9.02491 191.219 4.03958L201.389 21.7196L212.599 2.19958H229.109L209.629 36.0296L209.619 36.0396Z" fill="#000E9C"/>
<path d="M252.949 19.6096C252.949 10.6096 257.439 6.24959 264.819 6.24959C272.199 6.24959 276.699 10.5896 276.699 19.6096C276.699 28.6296 272.209 32.9396 264.819 32.9396C257.429 32.9396 252.949 28.5596 252.949 19.6096ZM255.609 19.6096C255.609 27.0396 258.999 30.6096 264.819 30.6096C270.639 30.6096 274.039 27.0696 274.039 19.6096C274.039 12.1496 270.649 8.60959 264.819 8.60959C258.989 8.60959 255.609 12.1496 255.609 19.6096Z" fill="#000E9C"/>
<path d="M296.119 7.31959C296.229 7.0396 296.433 6.80636 296.695 6.65959C296.958 6.51282 297.263 6.46161 297.559 6.51468C297.855 6.56776 298.123 6.72183 298.319 6.95065C298.514 7.17948 298.623 7.46889 298.629 7.76959C298.619 7.96373 298.582 8.15553 298.519 8.33959L289.609 31.8296C289.522 32.0837 289.357 32.3043 289.139 32.4604C288.92 32.6165 288.658 32.7004 288.389 32.7004C288.12 32.7004 287.858 32.6165 287.64 32.4604C287.421 32.3043 287.257 32.0837 287.169 31.8296L278.259 8.33959C278.197 8.15553 278.16 7.96373 278.149 7.76959C278.155 7.46889 278.265 7.17948 278.46 6.95065C278.655 6.72183 278.924 6.56776 279.22 6.51468C279.516 6.46161 279.821 6.51282 280.083 6.65959C280.346 6.80636 280.549 7.0396 280.659 7.31959L288.389 27.7996L296.119 7.31959Z" fill="#000E9C"/>
<path d="M304.039 20.4496V31.4496C304.055 31.6292 304.033 31.8102 303.975 31.9809C303.917 32.1517 303.825 32.3086 303.703 32.4415C303.581 32.5745 303.433 32.6807 303.268 32.7533C303.103 32.826 302.925 32.8635 302.744 32.8635C302.564 32.8635 302.386 32.826 302.221 32.7533C302.055 32.6807 301.907 32.5745 301.786 32.4415C301.664 32.3086 301.571 32.1517 301.513 31.9809C301.455 31.8102 301.433 31.6292 301.449 31.4496V7.76959C301.478 7.44578 301.626 7.14438 301.866 6.92483C302.106 6.70528 302.419 6.5835 302.744 6.5835C303.069 6.5835 303.383 6.70528 303.622 6.92483C303.862 7.14438 304.011 7.44578 304.039 7.76959V18.0896H317.279V7.76959C317.308 7.44578 317.456 7.14438 317.696 6.92483C317.936 6.70528 318.249 6.5835 318.574 6.5835C318.899 6.5835 319.213 6.70528 319.452 6.92483C319.692 7.14438 319.841 7.44578 319.869 7.76959V31.4096C319.885 31.5892 319.863 31.7702 319.805 31.9409C319.747 32.1117 319.655 32.2686 319.533 32.4015C319.411 32.5345 319.263 32.6407 319.098 32.7133C318.933 32.786 318.755 32.8235 318.574 32.8235C318.394 32.8235 318.216 32.786 318.051 32.7133C317.885 32.6407 317.737 32.5345 317.616 32.4015C317.494 32.2686 317.401 32.1117 317.343 31.9409C317.285 31.7702 317.263 31.5892 317.279 31.4096V20.4096L304.039 20.4496Z" fill="#000E9C"/>
<path d="M332.089 14.5896C333.203 14.5413 334.312 14.7518 335.331 15.2047C336.349 15.6576 337.249 16.3404 337.959 17.1996C338.128 17.4055 338.22 17.6635 338.219 17.9296C338.223 18.0752 338.198 18.2201 338.144 18.3554C338.09 18.4907 338.009 18.6136 337.906 18.7166C337.803 18.8196 337.68 18.9005 337.545 18.9543C337.41 19.0081 337.265 19.0337 337.119 19.0296C336.942 19.03 336.766 18.9896 336.607 18.9116C336.447 18.8336 336.308 18.72 336.199 18.5796C335.709 17.9726 335.079 17.4929 334.363 17.1812C333.648 16.8696 332.868 16.7353 332.089 16.7896C328.589 16.7896 326.729 19.0296 326.729 23.7096C326.729 28.3896 328.589 30.7096 332.089 30.7096C333.718 30.6945 335.29 30.1069 336.529 29.0496C336.731 28.881 336.986 28.789 337.249 28.7896C337.542 28.7896 337.823 28.9051 338.031 29.1112C338.238 29.3172 338.357 29.5969 338.359 29.8896C338.357 30.0762 338.31 30.2596 338.223 30.4247C338.137 30.5899 338.012 30.7321 337.859 30.8396C336.257 32.2026 334.213 32.935 332.109 32.8996C327.199 32.8996 324.269 29.9696 324.269 23.7196C324.269 17.4696 327.199 14.5896 332.109 14.5896" fill="#000E9C"/>
<path d="M344.239 6.51959V28.2496C344.239 29.7796 344.729 30.4196 345.759 30.4196C346.044 30.4463 346.309 30.5784 346.502 30.7902C346.695 31.002 346.802 31.2781 346.802 31.5646C346.802 31.851 346.695 32.1272 346.502 32.339C346.309 32.5507 346.044 32.6829 345.759 32.7096C343.209 32.7096 341.759 31.1896 341.759 28.2496V6.51959C341.767 6.19842 341.898 5.89252 342.125 5.66536C342.352 5.43819 342.658 5.30721 342.979 5.29959C343.302 5.3022 343.611 5.43158 343.839 5.65981C344.067 5.88804 344.197 6.19684 344.199 6.51959" fill="#000E9C"/>
<path d="M364.989 23.7196C364.989 29.9696 361.939 32.8996 356.989 32.8996C352.039 32.8996 348.989 29.9696 348.989 23.7196C348.989 17.4696 352.069 14.5896 356.989 14.5896C361.909 14.5896 364.989 17.4796 364.989 23.7196ZM362.509 23.7196C362.509 18.9296 360.509 16.7996 356.989 16.7996C353.469 16.7996 351.469 18.9296 351.469 23.7196C351.469 28.5096 353.469 30.7196 356.989 30.7196C360.509 30.7196 362.509 28.6296 362.509 23.7196Z" fill="#000E9C"/>
<path d="M370.849 16.0296V25.9696C370.849 28.4396 371.649 30.5796 375.489 30.5796C379.329 30.5796 380.139 28.4396 380.139 25.9696V16.0296C380.142 15.8681 380.176 15.7086 380.24 15.5604C380.305 15.4122 380.398 15.278 380.514 15.1657C380.63 15.0533 380.767 14.9649 380.917 14.9055C381.067 14.8461 381.228 14.8169 381.389 14.8196C381.7 14.8326 381.993 14.9664 382.206 15.1925C382.419 15.4186 382.535 15.719 382.529 16.0296V25.9696C382.529 29.5896 381.349 32.8996 375.449 32.8996C369.549 32.8996 368.369 29.5896 368.369 25.9696V16.0296C368.368 15.8695 368.399 15.7107 368.46 15.5626C368.52 15.4146 368.61 15.2802 368.724 15.1674C368.838 15.0547 368.973 14.9658 369.122 14.9061C369.27 14.8463 369.429 14.8169 369.589 14.8196C369.911 14.8196 370.22 14.9467 370.448 15.1734C370.677 15.4 370.807 15.7078 370.809 16.0296" fill="#000E9C"/>
<path d="M398.829 17.0596V6.51959C398.829 6.19603 398.958 5.88572 399.187 5.65692C399.415 5.42813 399.726 5.29959 400.049 5.29959C400.373 5.29959 400.683 5.42813 400.912 5.65692C401.141 5.88572 401.269 6.19603 401.269 6.51959V25.3996C401.269 30.3996 398.149 32.8996 393.809 32.8996C388.889 32.8996 385.999 29.9696 385.999 23.7196C385.999 17.4696 388.739 14.5896 393.649 14.5896C394.645 14.5736 395.63 14.7882 396.529 15.2168C397.428 15.6453 398.215 16.276 398.829 17.0596ZM398.829 20.1496C398.385 19.1852 397.683 18.3621 396.801 17.771C395.918 17.18 394.89 16.8438 393.829 16.7996C390.359 16.7996 388.459 19.0396 388.459 23.7196C388.459 28.3996 390.319 30.7196 393.829 30.7196C396.759 30.7196 398.829 29.0496 398.829 25.4296V20.1496Z" fill="#000E9C"/>
<path d="M58.4196 50.9396V52.3396H57.8196V42.9396H58.4196V47.2396C59.0196 46.3396 59.8196 45.6396 61.1196 45.6396C62.7196 45.6396 64.3196 46.9396 64.3196 49.0396C64.3196 51.1396 62.7196 52.4396 61.1196 52.4396C59.7196 52.5396 58.9196 51.7396 58.4196 50.9396ZM63.6196 49.1396C63.6196 47.4396 62.4196 46.2396 61.0196 46.2396C59.6196 46.2396 58.3196 47.3396 58.3196 49.0396C58.3196 50.7396 59.6196 51.8396 61.0196 51.8396C62.4196 51.9396 63.6196 50.8396 63.6196 49.1396Z" fill="black"/>
<path d="M71.0196 45.8396H71.7196L68.9196 52.6396C68.3196 54.0396 67.7196 54.5396 66.7196 54.5396C66.2196 54.5396 65.8196 54.4396 65.4196 54.2396L65.6196 53.6396C65.9196 53.8396 66.2196 53.8396 66.7196 53.8396C67.4196 53.8396 67.8196 53.4396 68.3196 52.3396L65.1196 45.8396H65.8196L68.5196 51.7396L71.0196 45.8396Z" fill="black"/>
<path d="M77.3196 43.3396H81.3196C82.3196 43.3396 83.1196 43.6396 83.7196 44.1396C84.1196 44.5396 84.3196 45.0396 84.3196 45.6396C84.3196 46.7396 83.7196 47.3396 83.0196 47.6396C84.1196 48.0396 84.8196 48.6396 84.8196 49.8396C84.8196 51.4396 83.5196 52.3396 81.5196 52.3396H77.3196V43.3396ZM82.7196 45.9396C82.7196 45.2396 82.1196 44.8396 81.1196 44.8396H78.8196V47.2396H81.0196C82.0196 47.1396 82.7196 46.7396 82.7196 45.9396ZM81.3196 48.5396H78.8196V51.0396H81.4196C82.5196 51.0396 83.1196 50.6396 83.1196 49.8396C83.2196 48.9396 82.6196 48.5396 81.3196 48.5396Z" fill="black"/>
<path d="M86.4196 45.5396H88.0196V47.0396C88.4196 46.0396 89.2196 45.3396 90.4196 45.3396V46.9396H90.3196C88.9196 46.9396 88.0196 47.8396 88.0196 49.6396V52.2396H86.4196V45.5396Z" fill="black"/>
<path d="M91.1196 49.0396C91.1196 47.0396 92.6196 45.4396 94.7196 45.4396C96.8196 45.4396 98.3196 47.0396 98.3196 48.9396C98.3196 50.8396 96.8196 52.4396 94.7196 52.4396C92.6196 52.5396 91.1196 50.9396 91.1196 49.0396ZM96.8196 49.0396C96.8196 47.8396 95.9196 46.8396 94.7196 46.8396C93.5196 46.8396 92.7196 47.8396 92.7196 49.0396C92.7196 50.2396 93.6196 51.2396 94.8196 51.2396C96.0196 51.1396 96.8196 50.1396 96.8196 49.0396Z" fill="black"/>
<path d="M99.5196 50.4396C99.5196 48.9396 100.72 48.2396 102.32 48.2396C103.12 48.2396 103.62 48.3396 104.12 48.5396V48.3396C104.12 47.3396 103.52 46.8396 102.42 46.8396C101.62 46.8396 101.12 47.0396 100.52 47.2396L100.12 46.0396C100.92 45.7396 101.62 45.4396 102.72 45.4396C103.72 45.4396 104.52 45.7396 105.02 46.2396C105.52 46.7396 105.72 47.4396 105.72 48.3396V52.3396H104.22V51.5396C103.72 52.1396 103.02 52.5396 102.02 52.5396C100.62 52.5396 99.5196 51.7396 99.5196 50.4396ZM104.12 49.9396V49.4396C103.72 49.2396 103.22 49.1396 102.62 49.1396C101.62 49.1396 101.02 49.5396 101.02 50.2396C101.02 50.9396 101.62 51.2396 102.32 51.2396C103.32 51.3396 104.12 50.7396 104.12 49.9396Z" fill="black"/>
<path d="M107.12 48.9396C107.12 46.6396 108.62 45.3396 110.32 45.3396C111.42 45.3396 112.12 45.9396 112.62 46.5396V42.8396H114.22V52.2396H112.62V51.1396C112.12 51.8396 111.42 52.4396 110.32 52.4396C108.72 52.5396 107.12 51.2396 107.12 48.9396ZM112.62 48.9396C112.62 47.6396 111.72 46.7396 110.62 46.7396C109.52 46.7396 108.62 47.5396 108.62 48.9396C108.62 50.2396 109.52 51.1396 110.62 51.1396C111.72 51.1396 112.62 50.2396 112.62 48.9396Z" fill="black"/>
<path d="M115.72 49.0396C115.72 47.0396 117.22 45.4396 119.22 45.4396C120.52 45.4396 121.32 45.9396 121.92 46.6396L120.92 47.6396C120.42 47.1396 119.92 46.8396 119.22 46.8396C118.12 46.8396 117.22 47.8396 117.22 49.0396C117.22 50.2396 118.02 51.2396 119.22 51.2396C119.92 51.2396 120.52 50.9396 121.02 50.4396L121.92 51.3396C121.22 52.0396 120.42 52.6396 119.12 52.6396C117.22 52.5396 115.72 50.9396 115.72 49.0396Z" fill="black"/>
<path d="M122.92 49.0396C122.92 47.0396 124.42 45.4396 126.52 45.4396C128.62 45.4396 130.12 47.0396 130.12 48.9396C130.12 50.8396 128.62 52.4396 126.52 52.4396C124.42 52.5396 122.92 50.9396 122.92 49.0396ZM128.62 49.0396C128.62 47.8396 127.72 46.8396 126.52 46.8396C125.32 46.8396 124.52 47.8396 124.52 49.0396C124.52 50.2396 125.42 51.2396 126.62 51.2396C127.82 51.1396 128.62 50.1396 128.62 49.0396Z" fill="black"/>
<path d="M131.72 45.5396H133.32V46.5396C133.72 45.9396 134.32 45.3396 135.42 45.3396C136.42 45.3396 137.12 45.8396 137.42 46.5396C137.92 45.8396 138.72 45.3396 139.72 45.3396C141.22 45.3396 142.12 46.2396 142.12 47.9396V52.2396H140.52V48.3396C140.52 47.2396 140.02 46.6396 139.12 46.6396C138.32 46.6396 137.62 47.2396 137.62 48.3396V52.1396H136.02V48.2396C136.02 47.1396 135.52 46.6396 134.62 46.6396C133.72 46.6396 133.12 47.2396 133.12 48.3396V52.1396H131.52V45.5396H131.72Z" fill="black"/>
<path d="M87.0196 11.7396C86.1196 11.7396 85.7196 12.3396 85.5196 12.9396L80.2196 28.4396L74.9196 13.0396C74.7196 12.3396 74.1196 11.7396 73.3196 11.7396H73.1196C72.3196 11.7396 71.8196 12.2396 71.6196 13.0396L66.2196 28.4396L60.9196 13.1396C60.7196 12.3396 60.1196 11.8396 59.3196 11.8396C58.4196 11.8396 57.7196 12.5396 57.7196 13.3396C57.7196 13.6396 57.8196 13.9396 57.9196 14.2396L64.3196 32.0396C64.6196 32.9396 65.3196 33.4396 66.0196 33.4396H66.1196C66.9196 33.4396 67.5196 32.9396 67.8196 32.0396L73.1196 16.9396L78.3196 32.0396C78.6196 32.9396 79.2196 33.4396 80.0196 33.4396H80.1196C80.8196 33.4396 81.5196 32.9396 81.8196 32.0396L88.2196 14.2396C88.3196 14.0396 88.4196 13.6396 88.4196 13.3396C88.6196 12.4396 87.9196 11.7396 87.0196 11.7396Z" fill="black"/>
<path d="M121.32 11.7396C119.02 11.7396 115.62 13.4396 114.12 16.9396V13.3396C114.12 12.4396 113.42 11.7396 112.52 11.7396C111.62 11.7396 111.02 12.4396 111.02 13.3396V31.7396C111.02 32.6396 111.72 33.3396 112.62 33.3396C113.52 33.3396 114.12 32.6396 114.12 31.7396V24.6396C114.12 18.5396 117.42 15.5396 121.52 15.0396C122.32 14.9396 122.92 14.3396 122.92 13.4396C122.82 12.4396 122.22 11.7396 121.32 11.7396Z" fill="black"/>
<path d="M132.52 11.7396C126.82 11.7396 122.62 16.5396 122.62 22.5396V22.6396C122.62 29.0396 127.22 33.4396 132.92 33.4396C136.42 33.4396 138.72 32.1396 140.72 30.3396C141.02 30.0396 141.22 29.7396 141.22 29.3396C141.22 28.6396 140.62 28.0396 139.82 28.0396C139.42 28.0396 139.22 28.2396 138.92 28.4396C137.42 29.8396 135.52 30.8396 133.02 30.8396C129.32 30.8396 126.22 28.3396 125.72 23.7396H140.62C141.42 23.7396 142.02 23.1396 142.02 22.3396C142.02 16.7396 138.62 11.7396 132.52 11.7396ZM125.72 21.4396C126.12 17.3396 128.82 14.3396 132.42 14.3396C136.52 14.3396 138.72 17.6396 139.02 21.4396H125.72Z" fill="black"/>
<path d="M98.1196 11.8396C95.4196 11.8396 93.9196 12.1396 91.8196 13.0396C91.3196 13.2396 91.0196 13.6396 91.0196 14.3396C91.0196 15.0396 91.7196 15.6396 92.4196 15.6396C92.6196 15.6396 92.8196 15.6396 93.0196 15.5396C94.5196 14.8396 95.8196 14.5396 97.9196 14.5396C101.82 14.5396 104.22 16.4396 104.22 20.2396V20.9396C102.32 20.4396 100.42 20.0396 97.7196 20.0396C92.4196 20.0396 88.7196 22.4396 88.7196 26.8396V26.9396C88.7196 31.2396 92.6196 33.4396 96.5196 33.4396C100.22 33.4396 102.62 31.7396 104.12 29.8396V31.8396C104.12 32.6396 104.72 33.3396 105.62 33.3396C106.52 33.3396 107.12 32.6396 107.12 31.8396V20.2396C107.12 17.5396 106.42 15.5396 104.92 14.1396C103.42 12.5396 101.12 11.8396 98.1196 11.8396ZM104.12 25.3396C104.12 28.6396 100.92 31.0396 97.1196 31.0396C94.3196 31.0396 91.8196 29.5396 91.8196 26.8396V26.7396C91.8196 24.1396 94.0196 22.4396 97.9196 22.4396C100.52 22.4396 102.52 22.9396 104.12 23.3396V25.3396Z" fill="black"/>
<path d="M48.9196 11.3396C44.8196 11.3396 42.2196 14.1396 42.2196 14.1396C40.9196 12.4396 39.0196 11.3396 35.9196 11.3396C32.5196 11.3396 29.6196 14.1396 29.6196 14.1396C28.2196 12.4396 25.9196 11.3396 24.0196 11.3396C21.0196 11.3396 18.7196 12.6396 17.2196 15.9396L12.9196 25.9396L7.51961 13.1396C6.81961 11.6396 5.11961 10.9396 3.51961 11.6396C1.91961 12.3396 1.31961 14.0396 2.01961 15.6396L8.71961 30.1396C9.71961 32.4396 10.9196 33.6396 12.9196 33.6396C15.1196 33.6396 16.1196 32.3396 17.1196 30.1396C17.1196 30.1396 22.9196 17.4396 23.0196 17.3396C23.1196 17.2396 23.2196 16.8396 23.8196 16.8396C24.3196 16.8396 24.7196 17.2396 24.7196 17.7396V30.1396C24.7196 32.0396 25.8196 33.6396 27.8196 33.6396C29.8196 33.6396 30.9196 32.0396 30.9196 30.1396V19.9396C30.9196 17.9396 32.3196 16.7396 34.2196 16.7396C36.1196 16.7396 37.4196 18.0396 37.4196 19.9396V30.0396C37.4196 31.9396 38.5196 33.5396 40.5196 33.5396C42.5196 33.5396 43.6196 31.9396 43.6196 30.0396V19.9396C43.6196 17.9396 45.0196 16.7396 46.9196 16.7396C48.8196 16.7396 50.1196 18.0396 50.1196 19.9396V30.0396C50.1196 31.9396 51.2196 33.5396 53.2196 33.5396C55.2196 33.5396 56.3196 31.9396 56.3196 30.0396V18.5396C56.4196 14.3396 53.0196 11.3396 48.9196 11.3396Z" fill="black"/>
<path d="M144.92 11.7396C143.52 11.7396 142.32 12.9396 142.32 14.3396C142.32 15.7396 143.42 16.9396 144.92 16.9396C146.42 16.9396 147.52 15.7396 147.52 14.3396C147.52 12.9396 146.42 11.7396 144.92 11.7396ZM147.02 14.3396C147.02 15.5396 146.12 16.4396 144.92 16.4396C143.72 16.4396 142.82 15.4396 142.82 14.3396C142.82 13.1396 143.72 12.2396 144.92 12.2396C146.12 12.2396 147.02 13.1396 147.02 14.3396Z" fill="black"/>
<path d="M145.02 13.0396H144.12C143.92 13.0396 143.82 13.1396 143.82 13.3396V15.3396C143.82 15.5396 143.92 15.6396 144.12 15.6396C144.32 15.6396 144.42 15.5396 144.42 15.3396V14.7396H144.82L145.32 15.4396C145.42 15.5396 145.42 15.5396 145.62 15.5396C145.72 15.5396 145.92 15.4396 145.92 15.2396C145.92 15.1396 145.92 15.1396 145.82 15.0396L145.42 14.5396C145.72 14.4396 145.92 14.1396 145.92 13.7396C145.92 13.5396 145.82 13.3396 145.72 13.1396C145.62 13.1396 145.42 13.0396 145.02 13.0396ZM145.42 13.9396C145.42 14.1396 145.32 14.3396 145.02 14.3396H144.42V13.5396H145.02C145.32 13.5396 145.42 13.6396 145.42 13.9396Z" fill="black"/>
</svg>
