<svg xmlns="http://www.w3.org/2000/svg" xmlns:xlink="http://www.w3.org/1999/xlink" width="25" height="25" viewBox="0 0 25 25">
    <defs>
        <path id="a" d="M0 .172h17.231v11.95H.001z"/>
    </defs>
    <g fill="none" fill-rule="evenodd">
        <path fill="#85BD3D" d="M4.457 12.465l-.476-.476a5.48 5.48 0 0 1-1.373-5.451 3.31 3.31 0 1 1 3.997-3.764 5.476 5.476 0 0 1 5.131 1.46l.19.19-2.442 2.44-.19-.19a2.03 2.03 0 0 0-2.869 0 2.034 2.034 0 0 0-.004 2.874l.478.477 2.442 2.44 2.583 2.58-2.44 2.442-2.585-2.582-2.442-2.44"/>
        <path fill="#E4B644" d="M7.188 9.735l2.585-2.582 2.442-2.44.476-.476a5.482 5.482 0 0 1 5.426-1.385A3.31 3.31 0 1 1 21.83 6.59a5.48 5.48 0 0 1-1.391 5.396l-.19.19-2.44-2.442.189-.189a2.026 2.026 0 1 0-2.866-2.865l-.477.476-2.442 2.44-2.583 2.58-2.442-2.44"/>
        <path fill="#C33634" d="M18.183 22.054a5.481 5.481 0 0 1-5.492-1.362l-.186-.187 2.439-2.442.187.188a2.026 2.026 0 1 0 2.866-2.866l-.477-.479-2.44-2.441-2.578-2.581 2.442-2.44 2.576 2.579 2.44 2.442.479.48a5.475 5.475 0 0 1 1.452 5.174 3.31 3.31 0 1 1-3.708 3.935"/>
        <g transform="translate(0 12.582)">
            <mask id="b" fill="#fff">
                <use xlink:href="#a"/>
            </mask>
            <path fill="#758EC4" d="M17.231 2.614l-2.576 2.579-2.44 2.441-.479.48a5.477 5.477 0 0 1-5.201 1.44A3.31 3.31 0 0 1 0 8.814a3.31 3.31 0 0 1 2.545-3.22A5.477 5.477 0 0 1 3.981.358l.187-.186 2.442 2.44-.19.187a2.033 2.033 0 0 0 2.874 2.873l.48-.478 2.439-2.441 2.578-2.58 2.44 2.44" mask="url(#b)"/>
        </g>
    </g>
</svg>
