<svg xmlns="http://www.w3.org/2000/svg" xmlns:xlink="http://www.w3.org/1999/xlink" width="25" height="25" viewBox="0 0 25 25">
    <defs>
        <path id="a" d="M0 .013h24.987v21.874H0z"/>
        <path id="c" d="M0 24.987h24.987V.087H0z"/>
    </defs>
    <g fill="none" fill-rule="evenodd">
        <g transform="translate(0 .074)">
            <mask id="b" fill="#fff">
                <use xlink:href="#a"/>
            </mask>
            <path fill="#B0DDEB" d="M8.099 19.118c.2-.089.402-.17.606-.247a11.093 11.093 0 0 1 1.585-.469c.404-.085.812-.148 1.224-.188-.231.723-.486 1.442-.763 2.156a7.1 7.1 0 0 1 .022.417 8.914 8.914 0 0 1 3.44 0c.004-.14.01-.278.022-.417a37.95 37.95 0 0 1-.762-2.156c.411.04.82.103 1.223.188a11.049 11.049 0 0 1 1.586.47 10.837 10.837 0 0 1 4.37 3.016 12.4 12.4 0 0 0 4.335-9.425c0-6.876-5.594-12.45-12.494-12.45C5.593.013 0 5.587 0 12.463a12.4 12.4 0 0 0 4.334 9.424 10.837 10.837 0 0 1 3.765-2.77" mask="url(#b)"/>
        </g>
        <path fill="#5B5957" d="M8.922 21.444a8.792 8.792 0 0 1 1.851-.583 6.955 6.955 0 0 0-.022-.417c.277-.714.532-1.433.763-2.156-.412.04-.82.103-1.224.188a10.978 10.978 0 0 0-1.585.469l.91.22-.693 2.279zM6.776 22.786a7.2 7.2 0 0 0 .036-.703c0-.142.116-.257.259-.257h.227l.801-2.635a10.836 10.836 0 0 0-3.765 2.77c.584.502 1.214.95 1.884 1.34.178-.18.364-.352.558-.515M16.888 19.191l.8 2.635h.228c.143 0 .258.115.258.257 0 .237.014.47.037.703.193.163.38.335.558.514.67-.388 1.3-.837 1.883-1.34a10.837 10.837 0 0 0-3.764-2.769M15.371 19.165l.91-.22a11.097 11.097 0 0 0-1.585-.469 11.035 11.035 0 0 0-1.223-.188c.23.723.486 1.442.762 2.156a6.949 6.949 0 0 0-.022.417 8.796 8.796 0 0 1 1.851.583l-.693-2.28z"/>
        <path fill="#1D1D1B" d="M12.493 21.826h1.76a7.025 7.025 0 0 1-.04-.965 8.914 8.914 0 0 0-3.44 0c.009.32-.004.641-.04.965h1.76zM6.218 23.3c.145.085.292.167.44.245.053-.25.092-.502.118-.76-.194.164-.38.336-.558.515"/>
        <path fill="#1D1D1B" d="M8.806 21.826h1.927c.036-.324.049-.646.04-.965a8.794 8.794 0 0 0-1.85.583l-.117.382zM18.21 22.786c.026.257.066.51.118.76.149-.08.295-.161.44-.246a8.888 8.888 0 0 0-.557-.514M16.18 21.826l-.116-.382a8.796 8.796 0 0 0-1.85-.583c-.01.32.004.641.04.965h1.927z"/>
        <path fill="#B09975" d="M8.806 21.826l.116-.382.693-2.28-.91-.219c-.204.076-.407.158-.606.246l-.801 2.635h1.508zM16.064 21.444l.117.382h1.508l-.801-2.635c-.2-.088-.402-.17-.606-.246l-.91.22.692 2.279z"/>
        <path fill="#C8B69C" d="M7.329 22.365l.027-.019H7.33l-.001.02"/>
        <path fill="#C8B69C" d="M12.493 22.34H7.348l-.024.018a7.613 7.613 0 0 1-.189 1.427c1.624.77 3.44 1.202 5.358 1.202V22.34z"/>
        <path fill="#B09975" d="M17.67 22.346h-.027l.027.02v-.02"/>
        <path fill="#B09975" d="M17.639 22.34h-5.146v2.647c1.918 0 3.734-.432 5.358-1.202a7.62 7.62 0 0 1-.189-1.427l-.023-.017"/>
        <mask id="d" fill="#fff">
            <use xlink:href="#c"/>
        </mask>
        <path fill="#836C57" d="M12.5 22.34v-.257z" mask="url(#d)"/>
        <path fill="#957A62" d="M18.21 22.786a7.2 7.2 0 0 1-.036-.703.258.258 0 0 0-.258-.257H7.07a.258.258 0 0 0-.259.257 7.2 7.2 0 0 1-.154 1.462c.158.083.316.164.477.24.107-.464.172-.94.19-1.427v-.017H17.661l.001.017c.018.486.083.963.189 1.427.161-.076.32-.157.477-.24a7.11 7.11 0 0 1-.117-.76" mask="url(#d)"/>
        <path fill="#5B5957" d="M16.07 20.05" mask="url(#d)"/>
        <path fill="#B09975" d="M16.358 20.333l.002.009-.002-.009s-.127-.1-.288-.284c.161.185.288.284.288.284" mask="url(#d)"/>
        <path fill="#FEFEFE" d="M20.182 9.076zM20.684 12.66v-.004.004" mask="url(#d)"/>
        <path fill="#C6C5C6" d="M20.812 9.766l-.007-.008a4.237 4.237 0 0 0-.32-.393l-.003-.004a3.58 3.58 0 0 0-.151-.154l-.06-.052c-.031-.03-.063-.06-.096-.086v1.159l.445 2.03c.005.016.011.03.015.047l.309.344.003-.003h.322l.002-.09c0-.957-.158-1.878-.444-2.74l-.015-.05M20.684 12.657v-.004.004" mask="url(#d)"/>
        <path fill="#70706F" d="M20.664 12.456l.002.01v.006c.007.048.01.097.01.147l.002.028v.007l-.002.029c-.001.049-.003.097-.009.144l-.001.008-.002.011c-.007.05-.016.1-.028.147v.001l.001-.002v-.002l.306-.34-.308-.345c.013.049.022.099.029.151" mask="url(#d)"/>
        <path fill="#1D1D1B" d="M20.193 12.536c-.104 0-.188-.145-.188-.322 0-.178.084-.322.188-.322s.189.144.189.322c0 .177-.085.322-.189.322m.47.31l.004-.019c.006-.046.008-.095.01-.144l.001-.033-.002-.03c0-.05-.003-.1-.01-.148l-.002-.016a1.338 1.338 0 0 0-.029-.15c-.004-.017-.01-.032-.015-.048a.961.961 0 0 0-.137-.283.65.65 0 0 0-.105-.11c-.009-.006-.018-.01-.027-.017a.375.375 0 0 0-.086-.041.3.3 0 0 0-.09-.016.3.3 0 0 0-.116.026.363.363 0 0 0-.06.032l-.026.016a.511.511 0 0 0-.125.138.958.958 0 0 0-.121.267 1.353 1.353 0 0 0-.032.14l-.008.044c-.008.054-.012.11-.013.168l-.001.024h.002c0 .474.225.858.503.858a.312.312 0 0 0 .158-.044.408.408 0 0 0 .053-.036l.028-.025a.573.573 0 0 0 .103-.127l.023-.04a.937.937 0 0 0 .04-.082l.013-.03a1.154 1.154 0 0 0 .068-.274" mask="url(#d)"/>
        <path fill="#FEFEFE" d="M20.193 11.892c-.104 0-.188.144-.188.322 0 .178.084.322.188.322s.189-.144.189-.322c0-.178-.085-.322-.189-.322" mask="url(#d)"/>
        <path fill="#9B9B9A" d="M19.73 12.258a.959.959 0 0 1 .138-.283.63.63 0 0 1 .105-.11l.026-.016a.36.36 0 0 1 .176-.058.3.3 0 0 1 .116.026c.021.008.041.019.06.032l.027.016a.51.51 0 0 1 .124.138.962.962 0 0 1 .118.255l-.445-2.03-.445 2.03z" mask="url(#d)"/>
        <path fill="#1D1D1B" d="M13.103 12.494a.441.441 0 1 1-.001-.883.441.441 0 0 1 .001.883m1.176.137c0-.04-.003-.081-.008-.12v-.003a1.167 1.167 0 0 0-.02-.115v-.003a1.153 1.153 0 0 0-.03-.11l-.002-.003a1.137 1.137 0 0 0-.04-.105l-.002-.003a1.179 1.179 0 0 0-.629-.607h-.003a1.173 1.173 0 0 0-.21-.064l-.006-.001a1.175 1.175 0 0 0-.448 0h-.007a1.17 1.17 0 0 0-.207.062l-.005.002a1.19 1.19 0 0 0-.363.232l-.001.004-.005.001c-.084.08-.156.171-.213.272l-.002.003a1.153 1.153 0 0 0-.049.096l-.005.01c-.013.03-.024.062-.035.093l-.007.019c-.01.029-.017.06-.024.09l-.007.025c-.006.03-.01.06-.014.092l-.004.028a1.177 1.177 0 0 0 .016.349v.004c.015.073.037.144.065.212v.003a1.177 1.177 0 0 0 .514.577h.001c.032.018.065.034.098.049l.008.004c.03.013.063.025.095.036l.016.006c.03.01.06.017.091.024l.025.006c.03.006.06.01.091.014l.028.005a1.18 1.18 0 0 0 1.3-1.167l-.001-.008v-.009" mask="url(#d)"/>
        <path fill="#FEFEFE" d="M13.103 11.612a.441.441 0 1 0-.001.883.441.441 0 0 0 .001-.883" mask="url(#d)"/>
        <path fill="#C6C5C6" d="M12.293 11.798h.005l.001-.005.81-2.47V9.03 8.744v-.006a6.941 6.941 0 0 0-1.862-.126l-.069.005a6.982 6.982 0 0 0-2.357.61c-.636.29-1.227.671-1.759 1.123v.001c-.143.12-.28.248-.414.379l-.075.073a8.216 8.216 0 0 0-.364.391l-.076.089a8.54 8.54 0 0 0-.342.426c-.01.012-.018.025-.027.038-.104.14-.203.285-.298.432l-.056.086a9.144 9.144 0 0 0-.22.373H8.883l3.41-.84z" mask="url(#d)"/>
        <path fill="#E8E3E2" d="M15.411 11.52a11.036 11.036 0 0 0 .034-.985v-.088a15.63 15.63 0 0 0-.029-.786l-.002-.001-.001-.002a.347.347 0 0 0-.008-.005l-.012-.006a89.74 89.74 0 0 0-.273-.156l-.007-.004-.076-.043h-.002l-.053-.03-.01-.006a7.322 7.322 0 0 0-.558-.264 9.23 9.23 0 0 0-1.304-.406V9.322l.803 2.475.001.002a1.168 1.168 0 0 1 .305.478l.001.003c.012.036.022.073.03.11l.001.003c.009.038.016.076.02.115v.002c.005.04.008.08.008.121l.003.007h.984c.067-.36.113-.723.142-1.088l.003-.03" mask="url(#d)"/>
        <path fill="#F8B133" d="M16.704 10.651l-.002.004.002-.004zM14.288 16.164c.223-.221.434-.434.635-.641.12-.124.236-.246.347-.366.823-.89 1.427-1.722 1.79-2.793a.983.983 0 0 0 .025-.097l.004-.017c.008-.04.017-.084.025-.135l.01-.1c-.091-.466-.269-.92-.425-1.367l.002.005-.005-.004c-.03-.029-.061-.055-.092-.083a7.53 7.53 0 0 0-1.188-.904c.016.261.027.523.03.785l-.001.088a13.082 13.082 0 0 1-.015.696c-.005.096-.011.193-.019.289l-.003.03c-.029.365-.075.729-.142 1.088l-.115.544c-.242.975-.732 1.86-1.135 2.773-.107.242-.208.487-.297.737l-.025.07c.126-.132.237-.246.322-.33l.272-.268" mask="url(#d)"/>
        <path fill="#9B9B9A" d="M12.299 11.793c.053-.05.11-.094.17-.132h.001c.06-.04.124-.073.192-.1l.005-.002c.066-.026.135-.047.207-.061l.007-.002a1.177 1.177 0 0 1 .448.001h.005c.073.015.144.037.211.064l.003.001c.137.056.26.137.366.237v-.002l-.804-2.475-.811 2.471z" mask="url(#d)"/>
        <path fill="#70706F" d="M12.014 13.09a1.157 1.157 0 0 1-.065-.21v-.005a1.166 1.166 0 0 1-.016-.35c0-.009.003-.018.004-.027.004-.031.008-.062.014-.092l.007-.025c.007-.03.015-.061.024-.09l.007-.019c.01-.031.022-.062.035-.093l.005-.01c.015-.033.031-.065.049-.096l.002-.003c.057-.1.13-.193.213-.272l-3.41.84h-.007l3.378.821a1.176 1.176 0 0 1-.24-.365v-.003" mask="url(#d)"/>
        <path fill="#E8E3E2" d="M19.687 12.454l.008-.044a1.36 1.36 0 0 1 .032-.14l.003-.016.445-2.03V9.066c-.363-.3-.753-.463-1.158-.463-.512 0-.99.282-1.347.63-.39.38-.693.86-.937 1.344l-.034.066a18.103 18.103 0 0 1 .713.663c.075.073.148.148.222.223.078.08.156.158.233.239a23.249 23.249 0 0 1 .764.837l.038.04h1.003l.002-.023c.001-.058.005-.114.013-.168M16.705 10.655v-.004l-.003.004.005.005-.002-.005" mask="url(#d)"/>
        <path fill="#5B5957" d="M4.585 13.915l.009-.022c.064-.168.135-.334.21-.499.02-.046.042-.091.063-.137.061-.129.126-.256.192-.383.027-.051.054-.103.082-.153l.049-.083c.071-.126.143-.251.22-.373l.056-.086c.095-.147.194-.292.298-.432l.027-.038a8.58 8.58 0 0 1 .342-.426l.075-.089c.118-.134.24-.265.365-.39l.075-.074a7.855 7.855 0 0 1 .414-.38c.561-1.874 2.279-3.238 4.31-3.238a4.502 4.502 0 0 1 4.011 2.49l.03.056.001.002.002.001a7.54 7.54 0 0 1 1.188.905c.03.028.062.054.092.083l.002-.004v-.002l.032-.064c.286-1.8 1.084-3.098 2.024-3.098.709 0 1.337.736 1.726 1.87l.004.012v.002c.11.119.218.25.321.393l.007.008.015.05-.014-.059a8.763 8.763 0 0 0-8.304-5.936c-4.839 0-8.762 3.91-8.762 8.732 0 .95.153 1.866.436 2.717v-.005a9.34 9.34 0 0 1 .402-1.35" mask="url(#d)"/>
        <path fill="#FEFEFE" d="M20.944 12.65l-.306.34v.002a1.15 1.15 0 0 1-.042.127l-.014.031a.94.94 0 0 1-.039.081l-.023.041a.683.683 0 0 1-.103.127c-.01.008-.018.018-.028.025a.4.4 0 0 1-.074.047.313.313 0 0 1-.137.033c-.278 0-.503-.384-.503-.858h-1.009c.188.216.372.435.553.655l.007.008c.177.215.35.432.523.65l.025.032c.163.207.324.416.484.625l.047.06c.17.223.337.445.503.668l.004.004c.288-.85.45-1.758.46-2.702h-.326l-.002.003z" mask="url(#d)"/>
        <path fill="#1D1D1B" d="M11.178 8.617l.069-.005a6.941 6.941 0 0 1 1.863.126V8.96v-.222c.318.075.884.23 1.304.406a7.304 7.304 0 0 1 .558.264l.01.006a6.2 6.2 0 0 1 .053.03h.002l.076.043.007.004a82.286 82.286 0 0 1 .293.167l-.03-.056-.005-.011a4.502 4.502 0 0 0-4.005-2.478c-2.032 0-3.75 1.363-4.31 3.237A7.533 7.533 0 0 1 8.82 9.227a6.982 6.982 0 0 1 2.357-.61" mask="url(#d)"/>
        <path stroke-linecap="round" stroke-linejoin="round" d="M13.116 8.963v.06" mask="url(#d)"/>
        <path fill="#1D1D1B" d="M17.67 9.233c.357-.348.835-.63 1.347-.63.405 0 .795.164 1.158.463v.003c.033.027.065.057.097.086l.059.052c.05.049.101.1.15.154l.004.004-.001-.002-.004-.012c-.39-1.134-1.017-1.87-1.726-1.87-.94 0-1.738 1.297-2.024 3.098l.003-.002c.244-.484.546-.963.937-1.344" mask="url(#d)"/>
        <path fill="#FEFEFE" d="M9.372 20.698a8.764 8.764 0 0 0 3.137.577 8.761 8.761 0 0 0 3.273-.632c.053-.021.106-.045.159-.067.085-.037.17-.074.255-.113.076-.035.151-.07.226-.107l-.054.008a3.675 3.675 0 0 1-.932-.007c-1.802-.258-2.202-1.124-2.145-2.026a4.504 4.504 0 0 1-.396-.256c-1.386-1.002-2.21-2.07-2.21-2.07s1.07.822 2.668 1.438c.034.014.066.025.1.038.075-.258.163-.502.24-.719l.026-.07c.089-.25.19-.495.297-.737.403-.913.893-1.798 1.135-2.773l.115-.544h-.986v.01a1.167 1.167 0 0 1-.719 1.08 1.176 1.176 0 0 1-.58.087l-.028-.005a1.206 1.206 0 0 1-.091-.014l-.025-.006a1.194 1.194 0 0 1-.09-.024l-.017-.006a1.156 1.156 0 0 1-.095-.036l-.008-.004a1.155 1.155 0 0 1-.098-.048l-.001-.001a1.185 1.185 0 0 1-.274-.212l-3.377-.821H5.19l-.049.083c-.028.05-.055.102-.082.153a9.319 9.319 0 0 0-.465 1.02l-.01.021a9.472 9.472 0 0 0-.4 1.35 8.756 8.756 0 0 0 3.185 4.348c.043.031.089.06.132.09a8.76 8.76 0 0 0 1.871.995" mask="url(#d)"/>
        <path fill="#A02553" d="M15.421 17.986a2.383 2.383 0 0 0 .067 1.013 2.562 2.562 0 0 0 .313.69 2.841 2.841 0 0 0 .557.644l.002.009.008.022.054-.008c.39-.049.784-.154 1.172-.293.198-.071.396-.148.59-.237.059-.027.117-.057.175-.085 2.007-.967 3.688-2.677 3.688-2.677-2.522 1.234-4.986 1.185-6.626.922" mask="url(#d)"/>
        <path fill="#DE0066" d="M20.258 14.616c-.16-.21-.32-.418-.484-.625l-.025-.032a40.857 40.857 0 0 0-.523-.65l-.007-.008c-.181-.22-.365-.439-.553-.654l-.035-.042a27.927 27.927 0 0 0-.764-.837l-.233-.239c-.074-.075-.147-.15-.222-.223a18.65 18.65 0 0 0-.49-.465 10.674 10.674 0 0 0-.223-.198l-.001.002c.158.454.339.913.43 1.385.023.123.042.243.058.36.22 1.637-.306 2.705-1.141 4.111l-.185.308a3.31 3.31 0 0 0-.384.9 2.73 2.73 0 0 0-.055.277c1.64.263 4.104.312 6.626-.922 0 0-.494-.725-1.239-1.72a80.287 80.287 0 0 0-.503-.667l-.047-.06" mask="url(#d)"/>
        <path fill="#1D1D1B" d="M16.358 20.333s-.127-.1-.288-.284a2.897 2.897 0 0 1-.443-.677 2.552 2.552 0 0 1-.201-.652 2.383 2.383 0 0 1-.005-.734c.013-.09.031-.182.055-.277.07-.282.193-.583.384-.9l.002-.003.183-.305c.835-1.406 1.362-2.474 1.141-4.11a6.614 6.614 0 0 0-.059-.36 3.445 3.445 0 0 1-.038.219l-.004.017a.972.972 0 0 1-.025.097c-.364 1.07-.967 1.903-1.79 2.793-.111.12-.228.242-.347.366a44.132 44.132 0 0 1-.907.91 16.49 16.49 0 0 0-.322.33c-.078.216-.166.46-.241.718-.034-.013-.066-.024-.1-.038-1.598-.615-2.667-1.438-2.667-1.438s.823 1.068 2.21 2.07c.134.097.266.181.395.256-.057.902.343 1.768 2.146 2.026.304.044.616.042.93.007-.002-.01-.005-.017-.007-.022l-.002-.009" mask="url(#d)"/>
    </g>
</svg>
