<svg xmlns="http://www.w3.org/2000/svg" xmlns:xlink="http://www.w3.org/1999/xlink" width="24" height="25" viewBox="0 0 24 25">
    <defs>
        <path id="a" d="M0 .187h23.817v24.257H0z"/>
    </defs>
    <g fill="none" fill-rule="evenodd">
        <path fill="#4D4743" d="M1.693 12.406c0 4.118 2.35 7.678 5.757 9.364L2.577 8.172a10.529 10.529 0 0 0-.884 4.234M18.804 11.88c0-1.285-.453-2.175-.842-2.869-.518-.856-1.003-1.582-1.003-2.44 0-.956.712-1.846 1.715-1.846.045 0 .088.006.133.008a10.075 10.075 0 0 0-6.899-2.731c-3.569 0-6.709 1.865-8.535 4.69.24.007.465.012.657.012 1.069 0 2.723-.132 2.723-.132.55-.033.615.79.065.857 0 0-.553.066-1.169.099l3.72 11.27 2.236-6.829-1.592-4.441c-.55-.033-1.071-.1-1.071-.1-.55-.032-.486-.89.064-.856 0 0 1.687.132 2.691.132 1.068 0 2.723-.132 2.723-.132.55-.033.616.79.065.857 0 0-.554.066-1.169.099l3.692 11.185 1.019-3.468c.441-1.44.777-2.473.777-3.364"/>
        <path fill="#4D4743" d="M12.087 13.316l-3.065 9.072a10.036 10.036 0 0 0 6.278-.166.947.947 0 0 1-.072-.144l-3.14-8.762zM20.872 7.414c.044.332.069.688.069 1.07 0 1.056-.194 2.243-.777 3.727l-3.12 9.189a10.437 10.437 0 0 0 5.08-8.994 10.5 10.5 0 0 0-1.252-4.992"/>
        <g transform="translate(0 .09)">
            <mask id="b" fill="#fff">
                <use xlink:href="#a"/>
            </mask>
            <path fill="#4D4743" d="M11.908 23.888C5.643 23.888.546 18.697.546 12.316.546 5.934 5.643.743 11.908.743S23.27 5.934 23.27 12.316c0 6.381-5.097 11.572-11.362 11.572m0-23.7C5.342.187 0 5.627 0 12.315s5.342 12.128 11.908 12.128 11.909-5.44 11.909-12.128S18.474.187 11.908.187" mask="url(#b)"/>
        </g>
    </g>
</svg>
