<?xml version="1.0" encoding="UTF-8"?>
<svg id="Calque_1" data-name="Calque 1" xmlns="http://www.w3.org/2000/svg" viewBox="0 0 327.5 65.21">
  <defs>
    <style>
      .cls-1 {
        fill: #020d95;
      }

      .cls-1, .cls-2, .cls-3, .cls-4 {
        stroke-width: 0px;
      }

      .cls-2 {
        fill: #72d88e;
      }

      .cls-3 {
        fill: #5fcd6c;
      }

      .cls-5 {
        fill: none;
        stroke: #020d95;
        stroke-width: 1.07px;
      }

      .cls-4 {
        fill: #fff;
      }
    </style>
  </defs>
  <g>
    <line class="cls-5" x1="161.54" y1="43.81" x2="161.54" y2="21.39"/>
    <g>
      <path class="cls-1" d="M188.41,43.81h-10.39c-4.91-6.01-5.63-14.43-1.8-21.19l6.74,11.71,7.43-12.94h10.94l-12.91,22.41h0ZM208.53,22.68c3.75,6.76,3.05,15.11-1.78,21.14h-10.19l3.14-5.54h-4.15l4.89-8.62h4.18l3.91-6.97Z"/>
      <path class="cls-1" d="M218.89,32.93c0,4.92,2.24,7.26,6.1,7.26s6.1-2.35,6.1-7.26-2.24-7.29-6.1-7.29-6.1,2.35-6.1,7.29M217.12,32.93c0-5.98,2.98-8.85,7.87-8.85s7.87,2.88,7.87,8.85-2.98,8.83-7.87,8.83-7.87-2.9-7.87-8.83"/>
      <path class="cls-1" d="M245.73,24.78c.07-.2.33-.55.81-.55s.86.38.86.86c0,.15-.05.3-.08.38l-5.9,15.56c-.13.35-.48.58-.81.58s-.68-.23-.81-.58l-5.9-15.56c-.03-.08-.08-.23-.08-.38,0-.48.38-.86.86-.86s.73.35.81.55l5.12,13.57,5.12-13.57Z"/>
      <path class="cls-1" d="M250.97,33.49v7.27c0,.45-.38.86-.86.86s-.86-.4-.86-.86v-15.66c0-.46.38-.86.86-.86s.86.4.86.86v6.83h8.78v-6.83c0-.46.38-.86.86-.86s.86.4.86.86v15.66c0,.45-.38.86-.86.86s-.86-.4-.86-.86v-7.27h-8.78Z"/>
      <path class="cls-1" d="M269.56,29.6c2.25,0,3.48,1.18,3.89,1.74.13.18.18.3.18.48,0,.43-.33.73-.73.73-.25,0-.43-.1-.6-.3-.38-.43-1.06-1.18-2.72-1.18-2.32,0-3.56,1.49-3.56,4.59s1.24,4.62,3.56,4.62c1.46,0,2.35-.66,2.93-1.08.18-.13.3-.18.48-.18.4,0,.73.33.73.73,0,.23-.07.4-.33.63-.55.45-1.77,1.36-3.81,1.36-3.25,0-5.2-1.94-5.2-6.08s1.94-6.05,5.2-6.05"/>
      <path class="cls-1" d="M277.61,24.26v14.4c0,1.01.33,1.44,1.01,1.44.4,0,.76.33.76.76s-.35.76-.76.76c-1.69,0-2.62-1.01-2.62-2.95v-14.4c0-.43.38-.81.81-.81.45,0,.81.38.81.81"/>
      <path class="cls-1" d="M289.72,35.66c0-3.18-1.34-4.59-3.66-4.59s-3.66,1.41-3.66,4.59,1.34,4.62,3.66,4.62,3.66-1.39,3.66-4.62M291.36,35.66c0,4.14-2.02,6.08-5.3,6.08s-5.3-1.94-5.3-6.08,2.04-6.05,5.3-6.05,5.3,1.92,5.3,6.05"/>
      <path class="cls-1" d="M295.24,30.56v6.58c0,1.64.53,3.05,3.08,3.05s3.08-1.41,3.08-3.05v-6.58c0-.45.38-.81.83-.81.43,0,.78.35.78.81v6.58c0,2.4-.78,4.59-4.69,4.59s-4.69-2.2-4.69-4.59v-6.58c0-.45.35-.81.81-.81.43,0,.81.35.81.81"/>
      <path class="cls-1" d="M313.79,33.29s-.96-2.22-3.33-2.22-3.56,1.49-3.56,4.59,1.24,4.62,3.56,4.62c1.94,0,3.33-1.11,3.33-3.51v-3.48ZM313.79,31.24v-6.99c0-.45.35-.81.81-.81s.81.35.81.81v12.51c0,3.33-2.07,4.97-4.94,4.97-3.25,0-5.17-1.94-5.17-6.08s1.82-6.05,5.07-6.05c1.61,0,2.85.83,3.43,1.64"/>
    </g>
  </g>
  <g>
    <path class="cls-3" d="M23.71,12c-1.24,0-2.4.47-3.26,1.37l-6.98,6.98c-.86.86-1.37,2.06-1.37,3.26v29.61l125.53-.09c1.24,0,2.4-.47,3.26-1.37l6.9-6.94c.86-.86,1.37-2.06,1.37-3.26V11.96l-125.45.04Z"/>
    <path class="cls-2" d="M12.1,27.6v25.62h45.89s5.23.26,9.25-.64c7.45-1.63,11.87-4.8,17.39-10.33,9.34-9.34,30.25-30.21,30.25-30.21h-45.8l-31.53,31.45s-1.89,2.27-4.5,2.27c-2.83-.04-4.07-1.37-4.07-1.37L12.1,27.6Z"/>
    <g>
      <path class="cls-4" d="M31.29,42.46l-9.47-19.79h4.28s6.77,14.18,6.94,14.87h.09c.17-.73,6.94-14.87,6.94-14.87h4.33l-9.51,19.79h-3.6Z"/>
      <path class="cls-4" d="M62.7,34.11h-15.34c.56,3.21,2.91,5.23,5.96,5.23,2.48,0,4.16-.99,4.97-2.78h3.98c-1.2,3.77-4.58,6.34-8.95,6.34-5.74,0-9.98-4.2-9.98-10.33s4.16-10.33,9.98-10.33c5.18,0,9.47,4.46,9.47,10.33,0,.6,0,.94-.09,1.54ZM47.4,30.9h11.35c-.26-2.7-2.44-5.06-5.44-5.06-3.04-.04-5.31,1.97-5.91,5.06Z"/>
      <path class="cls-4" d="M83.73,34.11h-15.34c.56,3.21,2.91,5.23,5.96,5.23,2.48,0,4.16-.99,4.97-2.78h3.98c-1.2,3.77-4.58,6.34-8.95,6.34-5.74,0-9.98-4.2-9.98-10.33s4.16-10.33,9.98-10.33c5.18,0,9.47,4.46,9.47,10.33,0,.6,0,.94-.09,1.54ZM68.44,30.9h11.35c-.26-2.7-2.44-5.06-5.44-5.06-3.04-.04-5.31,1.97-5.91,5.06Z"/>
      <path class="cls-4" d="M105.24,32.57v9.9h-3.43l-.34-3.08c-1.5,2.27-4.2,3.51-6.6,3.51-5.4,0-9.51-4.33-9.51-10.33s4.41-10.33,10.03-10.33c5.18,0,9.85,3.73,9.85,10.33ZM101.34,32.57c0-4.37-2.87-6.77-5.96-6.77-3.38,0-6.13,2.7-6.13,6.77s2.53,6.77,6.13,6.77c3.04,0,5.96-2.53,5.96-6.77Z"/>
      <path class="cls-4" d="M107.85,42.46v-11.7c0-4.93,3.17-8.48,8.1-8.48,3.98,0,6.08,2.66,6.38,3.6h.09c.3-.94,2.4-3.6,6.38-3.6,4.93,0,8.1,3.56,8.1,8.48v11.7h-3.9v-11.4c0-3.21-1.46-5.14-4.37-5.14s-4.37,1.93-4.37,5.23v11.4h-3.9v-11.4c0-3.3-1.46-5.23-4.37-5.23s-4.37,1.93-4.37,5.14v11.44h-3.77v-.04Z"/>
    </g>
  </g>
</svg>