<svg width="477" height="66" viewBox="0 0 477 66" fill="none" xmlns="http://www.w3.org/2000/svg">
<g clip-path="url(#clip0_440_2964)">
<path d="M235.038 50.5264V15.4575" stroke="#020D95" stroke-width="1.07"/>
<path d="M277.128 50.5264H260.853C253.162 41.1257 252.034 27.9553 258.033 17.3815L268.591 35.698L280.229 15.4575H297.366L277.143 50.5107L277.128 50.5264ZM308.644 17.4753C314.518 28.0491 313.421 41.11 305.856 50.542H289.894L294.812 41.8765H288.312L295.972 28.3933H302.519L308.644 17.491V17.4753Z" fill="#020D95"/>
<path d="M324.872 33.508C324.872 41.2038 328.381 44.8639 334.427 44.8639C340.473 44.8639 343.982 41.1881 343.982 33.508C343.982 25.8279 340.473 22.1052 334.427 22.1052C328.381 22.1052 324.872 25.781 324.872 33.508ZM322.099 33.508C322.099 24.1542 326.767 19.665 334.427 19.665C342.087 19.665 346.755 24.1699 346.755 33.508C346.755 42.8461 342.087 47.3197 334.427 47.3197C326.767 47.3197 322.099 42.7836 322.099 33.508Z" fill="#020D95"/>
<path d="M366.914 20.7602C367.024 20.4474 367.431 19.8999 368.183 19.8999C368.935 19.8999 369.53 20.4943 369.53 21.2451C369.53 21.4797 369.452 21.7143 369.405 21.8395L360.163 46.1781C359.96 46.7255 359.411 47.0853 358.894 47.0853C358.377 47.0853 357.829 46.7255 357.626 46.1781L348.384 21.8395C348.337 21.7143 348.258 21.4797 348.258 21.2451C348.258 20.4943 348.854 19.8999 349.606 19.8999C350.357 19.8999 350.749 20.4474 350.874 20.7602L358.894 41.9861L366.914 20.7602Z" fill="#020D95"/>
<path d="M375.122 34.3842V45.7557C375.122 46.4596 374.527 47.1009 373.775 47.1009C373.023 47.1009 372.428 46.4753 372.428 45.7557V21.2607C372.428 20.5412 373.023 19.9155 373.775 19.9155C374.527 19.9155 375.122 20.5412 375.122 21.2607V31.9441H388.876V21.2607C388.876 20.5412 389.471 19.9155 390.223 19.9155C390.975 19.9155 391.57 20.5412 391.57 21.2607V45.7557C391.57 46.4596 390.975 47.1009 390.223 47.1009C389.471 47.1009 388.876 46.4753 388.876 45.7557V34.3842H375.122Z" fill="#020D95"/>
<path d="M404.242 28.2993C407.766 28.2993 409.693 30.145 410.335 31.021C410.539 31.3025 410.617 31.4902 410.617 31.7718C410.617 32.4444 410.1 32.9136 409.474 32.9136C409.082 32.9136 408.8 32.7572 408.534 32.4444C407.939 31.7718 406.874 30.5987 404.273 30.5987C400.639 30.5987 398.697 32.9293 398.697 37.7782C398.697 42.6272 400.639 45.0047 404.273 45.0047C406.56 45.0047 407.954 43.9724 408.863 43.3154C409.145 43.1121 409.333 43.0339 409.615 43.0339C410.241 43.0339 410.758 43.55 410.758 44.1757C410.758 44.5355 410.649 44.8014 410.241 45.1611C409.38 45.865 407.469 47.2884 404.273 47.2884C399.183 47.2884 396.128 44.2539 396.128 37.7782C396.128 31.3025 399.167 28.315 404.273 28.315" fill="#020D95"/>
<path d="M416.852 19.9467V42.4708C416.852 44.0506 417.369 44.7232 418.434 44.7232C419.06 44.7232 419.624 45.2394 419.624 45.912C419.624 46.5846 419.076 47.1008 418.434 47.1008C415.787 47.1008 414.33 45.521 414.33 42.4864V19.9623C414.33 19.2897 414.925 18.6953 415.599 18.6953C416.303 18.6953 416.867 19.2897 416.867 19.9623" fill="#020D95"/>
<path d="M435.821 37.7782C435.821 32.8041 433.722 30.5986 430.088 30.5986C426.454 30.5986 424.355 32.8041 424.355 37.7782C424.355 42.7523 426.454 45.0047 430.088 45.0047C433.722 45.0047 435.821 42.8305 435.821 37.7782ZM438.39 37.7782C438.39 44.2539 435.226 47.2884 430.088 47.2884C424.95 47.2884 421.786 44.2539 421.786 37.7782C421.786 31.3025 424.981 28.3149 430.088 28.3149C435.194 28.3149 438.39 31.3182 438.39 37.7782Z" fill="#020D95"/>
<path d="M444.468 29.8012V40.0934C444.468 42.6587 445.298 44.8642 449.292 44.8642C453.286 44.8642 454.117 42.6587 454.117 40.0934V29.8012C454.117 29.0973 454.712 28.5342 455.417 28.5342C456.09 28.5342 456.639 29.0816 456.639 29.8012V40.0934C456.639 43.8475 455.417 47.273 449.292 47.273C443.167 47.273 441.946 43.8318 441.946 40.0934V29.8012C441.946 29.0973 442.494 28.5342 443.214 28.5342C443.888 28.5342 444.483 29.0816 444.483 29.8012" fill="#020D95"/>
<path d="M473.524 34.0712C473.524 34.0712 472.021 30.5987 468.308 30.5987C464.596 30.5987 462.732 32.9294 462.732 37.7783C462.732 42.6273 464.674 45.0048 468.308 45.0048C471.347 45.0048 473.524 43.2686 473.524 39.5145V34.0712ZM473.524 30.8646V19.931C473.524 19.2272 474.073 18.6641 474.793 18.6641C475.514 18.6641 476.062 19.2115 476.062 19.931V39.4989C476.062 44.7076 472.82 47.2729 468.324 47.2729C463.233 47.2729 460.226 44.2384 460.226 37.7627C460.226 31.287 463.076 28.2994 468.167 28.2994C470.689 28.2994 472.632 29.5977 473.54 30.8646" fill="#020D95"/>
<path d="M19.1397 0.770087C17.1973 0.770087 15.3803 1.50525 14.0332 2.91301L3.0996 13.831C1.75248 15.1762 0.953613 17.0532 0.953613 18.9302V65.2455L197.585 65.1047C199.528 65.1047 201.345 64.3695 202.692 62.9618L213.5 52.1064C214.847 50.7612 215.646 48.8842 215.646 47.0072V0.70752L19.1397 0.770087Z" fill="#5FCD6C"/>
<path d="M0.953613 25.1711V65.2453H72.8363C72.8363 65.2453 81.0286 65.652 87.3256 64.2443C98.9954 61.6947 105.919 56.7362 114.565 48.0863C129.196 33.4769 161.949 0.83252 161.949 0.83252H90.2078L40.8188 50.0259C40.8188 50.0259 37.8583 53.5766 33.7699 53.5766C29.337 53.514 27.3946 51.4337 27.3946 51.4337L0.953613 25.1711Z" fill="#72D88E"/>
<path d="M31.0131 48.4145L16.1792 17.4595H22.8834C22.8834 17.4595 33.4881 39.6395 33.7543 40.7188H33.8953C34.1616 39.5769 44.7662 17.4595 44.7662 17.4595H51.5488L36.6522 48.4145H31.0131Z" fill="white"/>
<path d="M80.2142 35.3539H56.1854C57.0626 40.3749 60.7437 43.5345 65.5212 43.5345C69.4059 43.5345 72.0375 41.986 73.3063 39.1861H79.5406C77.6609 45.0831 72.3664 49.103 65.5212 49.103C56.53 49.103 49.8884 42.5335 49.8884 32.9451C49.8884 23.3567 56.4047 16.7871 65.5212 16.7871C73.6352 16.7871 80.3551 23.7633 80.3551 32.9451C80.3551 33.8836 80.3551 34.4154 80.2142 35.3539ZM56.2481 30.3329H74.0268C73.6196 26.1096 70.2048 22.4181 65.5056 22.4181C60.7437 22.3556 57.1879 25.4996 56.2481 30.3329Z" fill="white"/>
<path d="M113.156 35.3539H89.127C90.0042 40.3749 93.6853 43.5345 98.4629 43.5345C102.348 43.5345 104.979 41.986 106.248 39.1861H112.482C110.603 45.0831 105.308 49.103 98.4629 49.103C89.4717 49.103 82.8301 42.5335 82.8301 32.9451C82.8301 23.3567 89.3463 16.7871 98.4629 16.7871C106.577 16.7871 113.297 23.7633 113.297 32.9451C113.297 33.8836 113.297 34.4154 113.156 35.3539ZM89.2054 30.3329H106.984C106.577 26.1096 103.162 22.4181 98.4629 22.4181C93.701 22.3556 90.1452 25.4996 89.2054 30.3329Z" fill="white"/>
<path d="M146.849 32.9451V48.4304H141.476L140.944 43.6128C138.594 47.1634 134.365 49.103 130.606 49.103C122.147 49.103 115.709 42.3301 115.709 32.9451C115.709 23.56 122.617 16.7871 131.42 16.7871C139.534 16.7871 146.849 22.6215 146.849 32.9451ZM140.74 32.9451C140.74 26.1096 136.245 22.3556 131.404 22.3556C126.11 22.3556 121.802 26.5789 121.802 32.9451C121.802 39.3113 125.765 43.5345 131.404 43.5345C136.166 43.5345 140.74 39.5772 140.74 32.9451Z" fill="white"/>
<path d="M150.938 48.4147V30.1138C150.938 22.4024 155.903 16.8496 163.626 16.8496C169.86 16.8496 173.149 21.0103 173.619 22.4806H173.76C174.23 21.0103 177.52 16.8496 183.754 16.8496C191.476 16.8496 196.442 22.4181 196.442 30.1138V48.4147H190.333V30.5831C190.333 25.5621 188.046 22.5432 183.488 22.5432C178.929 22.5432 176.642 25.5621 176.642 30.7239V48.5555H170.533V30.7239C170.533 25.5621 168.246 22.5432 163.688 22.5432C159.13 22.5432 156.843 25.5621 156.843 30.5831V48.4773H150.938V48.4147Z" fill="white"/>
</g>
<defs>
<clipPath id="clip0_440_2964">
<rect width="477" height="66" fill="white"/>
</clipPath>
</defs>
</svg>
