<svg height="87" viewBox="0 0 310 87" width="310" xmlns="http://www.w3.org/2000/svg"><g fill="none" fill-rule="evenodd"><path d="m124.4 60.6h-105.8c-9.3 0-16.8-7.5-16.8-16.8s7.5-16.8 16.8-16.8h105.8c9.3 0 16.8 7.5 16.8 16.8 0 9.2-7.5 16.8-16.8 16.8z" stroke="#122844" stroke-width="2"/><path d="m22.5 49.6c-.6 0-1.2-.1-1.7-.4s-.9-.6-1.3-1.1-.6-1.1-.8-1.9c-.2-.7-.3-1.6-.3-2.6s.1-1.8.3-2.6c.2-.7.5-1.3.8-1.8s.8-.9 1.3-1.1 1.1-.4 1.7-.4 1.2.1 1.7.4c.5.2.9.6 1.3 1.1s.6 1.1.8 1.8.3 1.6.3 2.6-.1 1.8-.3 2.6c-.2.7-.5 1.4-.8 1.9-.4.5-.8.9-1.3 1.1s-1.1.4-1.7.4zm0-2.1c.2 0 .4-.1.6-.2s.4-.3.5-.6.3-.7.3-1.2c.1-.5.1-1.1.1-1.9s0-1.4-.1-1.9-.2-.9-.3-1.2-.3-.5-.5-.6-.4-.2-.6-.2-.4.1-.6.2-.4.3-.5.6-.3.7-.3 1.2-.1 1.1-.1 1.9 0 1.4.1 1.9.2.9.3 1.2.3.5.5.6c.2.2.4.2.6.2zm6 1.9v-2.1h2.5v-6.6h-2.1v-1.7c.6-.1 1.2-.3 1.6-.4.4-.2.9-.4 1.3-.6h1.9v9.3h2.1v2.1zm16.6.2c-.6 0-1.2-.1-1.7-.4s-.9-.6-1.3-1.1-.6-1.1-.8-1.9c-.2-.7-.3-1.6-.3-2.6s.1-1.8.3-2.6c.2-.7.5-1.3.8-1.8s.8-.9 1.3-1.1 1.1-.4 1.7-.4 1.2.1 1.7.4c.5.2.9.6 1.3 1.1s.6 1.1.8 1.8.3 1.6.3 2.6-.1 1.8-.3 2.6c-.2.7-.5 1.4-.8 1.9-.4.5-.8.9-1.3 1.1s-1 .4-1.7.4zm0-2.1c.2 0 .4-.1.6-.2s.4-.3.5-.6.3-.7.3-1.2c.1-.5.1-1.1.1-1.9s0-1.4-.1-1.9-.2-.9-.3-1.2-.3-.5-.5-.6-.4-.2-.6-.2-.4.1-.6.2-.4.3-.5.6-.3.7-.3 1.2-.1 1.1-.1 1.9 0 1.4.1 1.9.2.9.3 1.2.3.5.5.6c.2.2.4.2.6.2zm9.5 2.1c-.6 0-1.2-.1-1.7-.4s-.9-.6-1.3-1.1-.6-1.1-.8-1.9c-.2-.7-.3-1.6-.3-2.6s.1-1.8.3-2.6c.2-.7.5-1.3.8-1.8s.8-.9 1.3-1.1 1.1-.4 1.7-.4 1.2.1 1.7.4c.5.2.9.6 1.3 1.1s.6 1.1.8 1.8.3 1.6.3 2.6-.1 1.8-.3 2.6c-.2.7-.5 1.4-.8 1.9-.4.5-.8.9-1.3 1.1s-1 .4-1.7.4zm0-2.1c.2 0 .4-.1.6-.2s.4-.3.5-.6.3-.7.3-1.2c.1-.5.1-1.1.1-1.9s0-1.4-.1-1.9-.2-.9-.3-1.2-.3-.5-.5-.6-.4-.2-.6-.2-.4.1-.6.2-.4.3-.5.6-.3.7-.3 1.2-.1 1.1-.1 1.9 0 1.4.1 1.9.2.9.3 1.2.3.5.5.6c.2.2.4.2.6.2zm13.1 2.1c-.6 0-1.2-.1-1.7-.4s-.9-.6-1.3-1.1-.6-1.1-.8-1.9c-.2-.7-.3-1.6-.3-2.6s.1-1.8.3-2.6c.2-.7.5-1.3.8-1.8s.8-.9 1.3-1.1 1.1-.4 1.7-.4 1.2.1 1.7.4c.5.2.9.6 1.3 1.1s.6 1.1.8 1.8.3 1.6.3 2.6-.1 1.8-.3 2.6c-.2.7-.5 1.4-.8 1.9-.4.5-.8.9-1.3 1.1s-1 .4-1.7.4zm0-2.1c.2 0 .4-.1.6-.2s.4-.3.5-.6.3-.7.3-1.2c.1-.5.1-1.1.1-1.9s0-1.4-.1-1.9-.2-.9-.3-1.2-.3-.5-.5-.6-.4-.2-.6-.2-.4.1-.6.2-.4.3-.5.6-.3.7-.3 1.2-.1 1.1-.1 1.9 0 1.4.1 1.9.2.9.3 1.2.3.5.5.6c.2.2.4.2.6.2zm9.6 2.1c-.6 0-1.2-.1-1.7-.4s-.9-.6-1.3-1.1-.6-1.1-.8-1.9c-.2-.7-.3-1.6-.3-2.6s.1-1.8.3-2.6c.2-.7.5-1.3.8-1.8s.8-.9 1.3-1.1 1.1-.4 1.7-.4 1.2.1 1.7.4c.5.2.9.6 1.3 1.1s.6 1.1.8 1.8.3 1.6.3 2.6-.1 1.8-.3 2.6c-.2.7-.5 1.4-.8 1.9-.4.5-.8.9-1.3 1.1-.6.2-1.1.4-1.7.4zm0-2.1c.2 0 .4-.1.6-.2s.4-.3.5-.6.3-.7.3-1.2c.1-.5.1-1.1.1-1.9s0-1.4-.1-1.9-.2-.9-.3-1.2-.3-.5-.5-.6-.4-.2-.6-.2-.4.1-.6.2-.4.3-.5.6-.3.7-.3 1.2-.1 1.1-.1 1.9 0 1.4.1 1.9.2.9.3 1.2.3.5.5.6c.1.2.3.2.6.2zm13.1 2.1c-.6 0-1.2-.1-1.7-.4s-.9-.6-1.3-1.1-.6-1.1-.8-1.9c-.2-.7-.3-1.6-.3-2.6s.1-1.8.3-2.6c.2-.7.5-1.3.8-1.8s.8-.9 1.3-1.1 1.1-.4 1.7-.4 1.2.1 1.7.4c.5.2.9.6 1.3 1.1s.6 1.1.8 1.8.3 1.6.3 2.6-.1 1.8-.3 2.6c-.2.7-.5 1.4-.8 1.9-.4.5-.8.9-1.3 1.1-.6.2-1.1.4-1.7.4zm0-2.1c.2 0 .4-.1.6-.2s.4-.3.5-.6.3-.7.3-1.2c.1-.5.1-1.1.1-1.9s0-1.4-.1-1.9-.2-.9-.3-1.2-.3-.5-.5-.6-.4-.2-.6-.2-.4.1-.6.2-.4.3-.5.6-.3.7-.3 1.2-.1 1.1-.1 1.9 0 1.4.1 1.9.2.9.3 1.2.3.5.5.6c.1.2.3.2.6.2zm9.5 2.1c-.6 0-1.2-.1-1.7-.4s-.9-.6-1.3-1.1-.6-1.1-.8-1.9c-.2-.7-.3-1.6-.3-2.6s.1-1.8.3-2.6c.2-.7.5-1.3.8-1.8s.8-.9 1.3-1.1 1.1-.4 1.7-.4 1.2.1 1.7.4c.5.2.9.6 1.3 1.1s.6 1.1.8 1.8.3 1.6.3 2.6-.1 1.8-.3 2.6c-.2.7-.5 1.4-.8 1.9-.4.5-.8.9-1.3 1.1-.6.2-1.1.4-1.7.4zm0-2.1c.2 0 .4-.1.6-.2s.4-.3.5-.6.3-.7.3-1.2c.1-.5.1-1.1.1-1.9s0-1.4-.1-1.9-.2-.9-.3-1.2-.3-.5-.5-.6-.4-.2-.6-.2-.4.1-.6.2-.4.3-.5.6-.3.7-.3 1.2-.1 1.1-.1 1.9 0 1.4.1 1.9.2.9.3 1.2.3.5.5.6c.1.2.3.2.6.2zm13.1 2.1c-.6 0-1.2-.1-1.7-.4s-.9-.6-1.3-1.1-.6-1.1-.8-1.9c-.2-.7-.3-1.6-.3-2.6s.1-1.8.3-2.6c.2-.7.5-1.3.8-1.8s.8-.9 1.3-1.1 1.1-.4 1.7-.4 1.2.1 1.7.4c.5.2.9.6 1.3 1.1s.6 1.1.8 1.8.3 1.6.3 2.6-.1 1.8-.3 2.6c-.2.7-.5 1.4-.8 1.9-.4.5-.8.9-1.3 1.1-.6.2-1.1.4-1.7.4zm0-2.1c.2 0 .4-.1.6-.2s.4-.3.5-.6.3-.7.3-1.2c.1-.5.1-1.1.1-1.9s0-1.4-.1-1.9-.2-.9-.3-1.2-.3-.5-.5-.6-.4-.2-.6-.2-.4.1-.6.2-.4.3-.5.6-.3.7-.3 1.2-.1 1.1-.1 1.9 0 1.4.1 1.9.2.9.3 1.2.3.5.5.6c.1.2.3.2.6.2zm9.5 2.1c-.6 0-1.2-.1-1.7-.4s-.9-.6-1.3-1.1-.6-1.1-.8-1.9c-.2-.7-.3-1.6-.3-2.6s.1-1.8.3-2.6c.2-.7.5-1.3.8-1.8s.8-.9 1.3-1.1 1.1-.4 1.7-.4 1.2.1 1.7.4c.5.2.9.6 1.3 1.1s.6 1.1.8 1.8.3 1.6.3 2.6-.1 1.8-.3 2.6c-.2.7-.5 1.4-.8 1.9-.4.5-.8.9-1.3 1.1-.6.2-1.1.4-1.7.4zm0-2.1c.2 0 .4-.1.6-.2s.4-.3.5-.6.3-.7.3-1.2c.1-.5.1-1.1.1-1.9s0-1.4-.1-1.9-.2-.9-.3-1.2-.3-.5-.5-.6-.4-.2-.6-.2-.4.1-.6.2-.4.3-.5.6-.3.7-.3 1.2-.1 1.1-.1 1.9 0 1.4.1 1.9.2.9.3 1.2.3.5.5.6c.1.2.4.2.6.2z" fill="#162843" fill-rule="nonzero"/><g stroke-linecap="round" stroke-linejoin="round" stroke-width="2"><path d="m149.5 43.6h53.6" stroke="#122844"/><path d="m198.6 37.8 5.9 5.9-5.9 5.9" stroke="#162843"/></g><g stroke="#162843" stroke-linecap="round" stroke-linejoin="round" stroke-width="2" transform="translate(251 1)"><circle cx="28.7" cy="17.4" r="16.6"/><path d="m57.2 71.3c0-15.4-13.1-27.9-28.6-27.9s-28.6 12.5-28.6 27.9v13.3h57.1v-13.3z"/></g><g fill-rule="nonzero"><path d="m260.8 67.5c-.5 0-1-.1-1.5-.3-23.2-9.5-34.3-36.2-24.8-59.4 0-.1.1-.2.1-.3.6-1.2 1.8-2 3.1-2 .5 0 1 .1 1.5.3l8.4 3.4c.1 0 .2.1.3.1 1.7.8 2.5 2.9 1.6 4.6-1.1 2.7-1.8 5.6-2.2 8.6.1 1.4-.8 2.7-2.1 3.2l-6.8 2.8c1 7.8 4 15.2 8.7 20.7l6.8-2.9h.2c.3-.1.7-.1 1-.1.9 0 1.7.3 2.4.8 2.4 2.1 5.1 3.7 7.9 4.9.1 0 .2.1.3.1 1.7.8 2.5 2.9 1.6 4.6l-3.4 8.4c0 .1-.1.2-.1.3-.4 1.5-1.6 2.2-3 2.2z" fill="#fff"/><path d="m237.8 6.5c.4 0 .7.1 1.1.2l8.5 3.5c.1 0 .2.1.3.1 1.2.6 1.8 2.1 1.2 3.3-1.1 2.9-1.9 5.9-2.3 9 .1 1-.5 1.9-1.5 2.2l-7.5 3.2c.9 8.3 4.1 16.4 9.5 22.5l7.5-3.2c.2-.1.5-.1.8-.1.7 0 1.3.2 1.9.6 2.4 2.1 5.2 3.8 8.1 5 .1 0 .2.1.3.1 1.2.6 1.8 2.1 1.2 3.3l-3.5 8.5c0 .1-.1.2-.1.3-.4.9-1.3 1.4-2.2 1.4-.4 0-.7-.1-1.1-.2h-.1c-22.9-9.3-33.8-35.2-24.5-58 0-.1.1-.2.1-.3.5-.8 1.3-1.4 2.3-1.4zm0-2c-1.7 0-3.3 1-4 2.5-.1.1-.1.3-.2.4-9.7 23.7 1.7 50.9 25.4 60.6.6.3 1.2.4 1.9.4 1.7 0 3.3-1 4-2.5.1-.1.1-.3.2-.4l3.4-8.4c.5-1.1.5-2.3.2-3.4-.4-1.1-1.2-2-2.3-2.6-.1-.1-.3-.1-.4-.2-2.8-1.1-5.3-2.7-7.5-4.7 0 0-.1-.1-.2-.1-.9-.6-1.9-1-3-1-.4 0-.8 0-1.2.1-.1 0-.2.1-.3.1l-6.2 2.6c-4.1-5.2-6.9-11.8-7.9-18.9l6-2.5c1.7-.6 2.9-2.2 2.8-4.1.3-2.8 1-5.6 2.1-8.2.5-1.1.5-2.2.2-3.3-.4-1.1-1.2-2-2.3-2.6-.1-.1-.3-.1-.4-.2l-8.4-3.4c-.7 0-1.3-.2-1.9-.2z" fill="#162843"/></g></g></svg>