<svg xmlns="http://www.w3.org/2000/svg" viewBox="0 0 32 32"><defs><style>.a{fill:none;stroke:#2e4054;stroke-linecap:round;stroke-miterlimit:10;}</style></defs><title>32px-bkg-lightdatabaseColdArchive</title><path class="a" d="M6.38,13.06C5.2,13.7,4.5,14.47,4.5,15.29c0,2.26,5.15,4.21,11.5,4.21s11.5-2,11.5-4.21c0-.83-.7-1.59-1.88-2.24"/><path class="a" d="M27.5,21.29c0,2.26-5.15,4.21-11.5,4.21s-11.5-2-11.5-4.21"/><path class="a" d="M27.5,27.28c0,2.26-5.15,4.22-11.5,4.22s-11.5-2-11.5-4.22"/><line class="a" x1="4.5" y1="15.29" x2="4.5" y2="27.28"/><line class="a" x1="27.5" y1="15.29" x2="27.5" y2="27.28"/><line class="a" x1="15.5" y1="0.5" x2="15.5" y2="15.5"/><polyline class="a" points="12.51 0.5 15.5 4.5 18.5 0.5"/><polyline class="a" points="18.5 15.5 15.51 11.5 12.51 15.5"/><line class="a" x1="9.01" y1="11.75" x2="22" y2="4.25"/><polyline class="a" points="10.51 14.34 12.48 9.75 7.51 9.16"/><polyline class="a" points="20.5 1.66 18.53 6.25 23.5 6.84"/><line class="a" x1="22" y1="11.75" x2="9.01" y2="4.25"/><polyline class="a" points="23.5 9.16 18.54 9.75 20.5 14.34"/><polyline class="a" points="7.51 6.84 12.47 6.25 10.51 1.66"/></svg>