<svg xmlns="http://www.w3.org/2000/svg" viewBox="0 0 108.33 103.68"><defs><style>.cls-1{fill:#133f6c;}</style></defs><title>Asset 1</title><g id="Layer_2" data-name="Layer 2"><g id="Layer_1-2" data-name="Layer 1"><path class="cls-1" d="M54.22,0c15,0,30,.06,45,0,5.45,0,9,3.79,9,9,.11,7.76,0,15.51,0,23.27q0,31,0,62c0,3.51-1.22,6.55-4.5,8.25a9.59,9.59,0,0,1-4.22,1.09q-45.39.09-90.79,0c-5.17,0-8.07-3.47-8.7-8.31A21.67,21.67,0,0,1,0,92.57Q0,51.24,0,9.9C0,6.49,1,3.45,3.9,1.56A9.53,9.53,0,0,1,8.75.09C23.91,0,39.06,0,54.22,0Zm-.1,94.5c12.76,0,25.53-.11,38.28.07a7.49,7.49,0,0,0,7.34-7.37c0-19.09,0-38.18-.05-57.28a8.75,8.75,0,0,0-1.16-3.88c-1.6-3-4.53-3.61-7.58-3.61q-36.75,0-73.51,0c-.31,0-.61,0-.92,0-4.93.29-8,3.38-8,8.35.07,5.82,0,11.64,0,17.46q0,19.45,0,38.9A7,7,0,0,0,16,94.53ZM13,7.42A4.61,4.61,0,0,0,8.6,11.66a4.8,4.8,0,0,0,4.31,4.56c2,0,4.11-2.17,4.19-4.33A4.46,4.46,0,0,0,13,7.42Zm16.6,4.45a4.12,4.12,0,1,0-8.23,0,4.39,4.39,0,0,0,4.18,4.39A4.57,4.57,0,0,0,29.6,11.86Z"/><path class="cls-1" d="M83,54.79c-.84,2.63-1.55,4.78-2.22,6.94-.39,1.26-.65,2.56-1.08,3.8-.5,1.45-1.81,1.26-3,1.27a1.84,1.84,0,0,1-1.94-1.57c-1.33-4.46-2.74-8.9-4.11-13.35,0,0-.06-.1-.05-.14.1-.88-1.19-2.06.39-2.59,1.94-.65,3.28.15,3.65,1.8.6,2.62,1.27,5.23,2,7.83a16.47,16.47,0,0,0,1.12,2.36c.54-1.71,1-3,1.34-4.28.64-2.19,1.21-4.4,1.89-6.58a2.25,2.25,0,0,1,2.53-1.55c1.52.08,2,1.19,2.35,2.42q1.32,4.45,2.68,8.89a5.64,5.64,0,0,0,.58,1c.44-1.31.84-2.38,1.14-3.47.65-2.34,1.26-4.7,1.86-7.06.31-1.21,3-2.05,3.86-1.15a1.31,1.31,0,0,1,.18,1.1c-1.31,4.16-2.66,8.3-4,12.44-.29.91-.62,1.82-.84,2.76-.34,1.45-1.46,1.15-2.45,1.16s-1.76-.08-2.09-1.28c-.76-2.79-1.64-5.55-2.53-8.3A18,18,0,0,0,83,54.79Z"/><path class="cls-1" d="M20.63,60.57a9.52,9.52,0,0,0,1-1.76c.91-2.85,1.77-5.71,2.61-8.58a2,2,0,0,1,2.34-1.5,2,2,0,0,1,2.06,1.64c.82,3,1.72,6,2.64,9,.1.33.46.58.7.87.27-.25.71-.46.8-.77.71-2.59,1.44-5.18,2-7.81.45-2.12,1.22-2.8,3.32-2.62.88.08,1.34.35,1,1.35-.78,2.57-1.5,5.17-2.29,7.74-.7,2.28-1.61,4.52-2.13,6.84-.37,1.65-1.33,1.8-2.65,1.8a2.28,2.28,0,0,1-2.49-1.94c-.88-3.17-1.88-6.31-2.84-9.46,0-.08-.15-.12-.49-.37-.41,1-.84,1.92-1.16,2.88-.85,2.55-1.65,5.11-2.46,7.68-.5,1.6-1.85,1.09-2.94,1.19s-1.35-.54-1.62-1.42c-1.54-5-3.14-10-4.73-15-.27-.84-.08-1.23.83-1.34,2.57-.32,3.37.36,3.92,3,.59,2.82,1.4,5.59,2.11,8.39Z"/><path class="cls-1" d="M49.36,60.81q1-3.09,1.94-6.18c.47-1.5.9-3,1.4-4.5a2.1,2.1,0,0,1,2.58-1.38c1.16.14,1.67.81,2,2a79.75,79.75,0,0,0,3.29,9.92,13.3,13.3,0,0,0,1-2.12c.72-2.65,1.31-5.33,2.06-8a2.1,2.1,0,0,1,1.23-1.33,4.78,4.78,0,0,1,2.63.24c.23.09.11,1.41-.09,2.1-1,3.44-2.13,6.86-3.2,10.29-.38,1.21-.71,2.43-1.08,3.65-.47,1.53-1.73,1.32-2.9,1.3a1.82,1.82,0,0,1-2-1.63c-.87-3.27-2-6.47-3.1-10-.52.58-1,.89-1.17,1.33-1,2.94-1.91,5.88-2.7,8.86-.26,1-.73,1.44-1.62,1.45-1.06,0-2.34.49-2.91-1-.46-1.18-.89-2.37-1.27-3.58-1.2-3.82-2.37-7.65-3.54-11.47-.32-1.06,0-1.63,1.2-1.68,2.59-.11,2.94.32,3.67,3.82.55,2.65,1.35,5.26,2,7.89Z"/></g></g></svg>