<svg xmlns="http://www.w3.org/2000/svg" viewBox="0 0 103.32 103.67"><defs><style>.cls-1{fill:#133f6c;}</style></defs><title>Asset 2</title><g id="Layer_2" data-name="Layer 2"><g id="Layer_1-2" data-name="Layer 1"><path class="cls-1" d="M51.52,103.65H7.73c-3.28,0-5.86-1.22-7.19-4.39A6.32,6.32,0,0,1,0,96.92c0-6.18,0-12.35,0-18.53A6.94,6.94,0,0,1,6.3,72c.51,0,1,0,1.53,0,29.2,0,58.39.05,87.59-.05a7.74,7.74,0,0,1,7.9,8c-.12,5.31,0,10.62,0,15.92,0,4.44-2.91,7.89-7.83,7.88C80.82,103.63,66.17,103.65,51.52,103.65Zm27-17.58h0c4,0,8.06.06,12.09,0a4.94,4.94,0,0,0,3.07-.93c1.14-1.09,1-2.67.48-4.16s-1.7-1.51-2.87-1.56c-1.58-.07-3.16,0-4.74,0H66.5c-1.18,0-2.31,0-3.1,1.22-1.43,2.13-.46,5.59,2.89,5.51C70.36,86,74.45,86.07,78.53,86.07ZM83,96.21c2.86,0,5.71,0,8.57,0a2.79,2.79,0,0,0,3-2.9c.15-2.71-.9-3.86-3.65-3.88-5.1,0-10.2,0-15.3,0-3.31,0-4,.7-3.85,4,.08,2.1.8,2.81,2.94,2.82C77.46,96.22,80.21,96.21,83,96.21Z"/><path class="cls-1" d="M53.55,66.52c-7.91,0-15.82,0-23.74,0-1.53,0-2-.43-2-2-.27-6.31-.69-12.61-1.09-18.91-.1-1.62-.38-3.23-.52-4.85-.4-4.44.73-5.15,4.39-6.17,1.36-.38,1.68-.93,1.66-2.17q-.07-5.44,0-10.87c.09-9.35,4.55-16,12.92-19.86A20.21,20.21,0,0,1,57.36.37a20.84,20.84,0,0,1,13.95,9A18.12,18.12,0,0,1,74.85,20c0,4,0,8,0,11.94a2.36,2.36,0,0,0,2.06,2.76c3.08.86,4.19.81,4,5.27-.14,4.13-.23,8.26-.45,12.38s-.63,8.22-.81,12.33c-.06,1.45-.61,1.82-1.93,1.81C69.68,66.51,61.61,66.52,53.55,66.52Zm-.06-33.46h0c3.82,0,7.65,0,11.47,0,1.38,0,2-.5,2-2-.09-3.41.07-6.83-.06-10.24a12.66,12.66,0,0,0-4.21-9C58.62,8,54,7.36,48.81,9.07c-3.88,1.28-7.87,5.8-8.12,9.86s-.17,8-.21,12.07c0,1.87.21,2.06,2.15,2.07Zm.81,29.27h0c.82,0,1.63,0,2.45,0,1.73-.06,2.49-.73,2.39-2.44s-.48-3.41-.66-5.13c-.15-1.46-.81-3,.55-4.29a6.23,6.23,0,0,0,1.84-5.57,6.51,6.51,0,0,0-9.75-4.74c-4.24,2.47-4.66,7-1.39,10.6A2.09,2.09,0,0,1,50.38,52c-.1,1.46-.37,2.92-.55,4.38a30.9,30.9,0,0,0-.39,3.78,2,2,0,0,0,2.11,2.14C52.46,62.38,53.38,62.33,54.3,62.33Z"/></g></g></svg>