<?xml version="1.0" encoding="UTF-8"?>
<svg id="Logomark" xmlns="http://www.w3.org/2000/svg" viewBox="0 0 36 36">
  <defs>
    <style>
      .cls-1 {
        fill: #375ba9;
        stroke-width: 0px;
      }
    </style>
  </defs>
  <path class="cls-1" d="M17.88,32.9h5.71c6.85,0,12.41-5.56,12.41-12.41,0-3.82-1.74-7.25-4.42-9.53l-8.84,18.87-4.67-4.67,2.18-4.67h-6.85l-1.44,3.18c-.5,1.09-.74,2.23-.74,3.23,0,3.38,2.53,6.01,6.65,6.01M4.42,25.05L13.26,6.18l4.67,4.67-2.18,4.67h6.85l1.44-3.18c.5-1.09.74-2.23.74-3.23,0-3.38-2.53-6.01-6.65-6.01h-5.71C5.56,3.1,0,8.66,0,15.52c0,3.82,1.74,7.25,4.42,9.53M34.5,30.41c-.69,0-1.24.56-1.24,1.24s.56,1.24,1.24,1.24,1.24-.56,1.24-1.24-.56-1.24-1.24-1.24ZM34.5,32.65c-.55,0-.99-.44-.99-.99s.44-.99.99-.99.99.44.99.99-.44.99-.99.99ZM34.8,31.74c.14-.06.25-.17.25-.35,0-.26-.22-.4-.49-.4h-.53v1.29h.3v-.48h.18l.27.48h.34l-.32-.54ZM34.53,31.58h-.19v-.37h.19c.13,0,.22.08.22.19s-.09.18-.22.18Z"/>
</svg>
