<svg id="Calque_1" data-name="Calque 1" xmlns="http://www.w3.org/2000/svg" xmlns:xlink="http://www.w3.org/1999/xlink" viewBox="0 0 407.74 167.66"><defs><style>.cls-1{fill:none;}.cls-2{clip-path:url(#clip-path);}.cls-3{fill:#0095d3;}.cls-4{fill:#231f20;}.cls-5{clip-path:url(#clip-path-3);}.cls-6{fill:url(#Dégradé_sans_nom_3);}</style><clipPath id="clip-path"><rect class="cls-1" width="407.74" height="167.66"/></clipPath><clipPath id="clip-path-3"><path class="cls-1" d="M295.83,0,247.76,48.06c.66,0,.88-.22,1.32,0a35.77,35.77,0,0,1,11.86-.21L308.76,0Zm99,0L359.26,35.11a46.39,46.39,0,0,0-81.64,30.28,77.53,77.53,0,0,0,.88,10.32L284,70.22c.88-1.1,2-2,2.86-3.07V65.39a37.28,37.28,0,0,1,73.29-9.65,42.39,42.39,0,0,0-5.49-.66,43.42,43.42,0,0,0-36.43,14.48l-.22.22c-5.26,5.49-34.45,35.55-42.57,43.45h12.73c11.62-11.85,31.81-32.69,36.21-37.3l.21-.22A33.37,33.37,0,0,1,353.75,64.3c21.73,1.54,37.53,17.56,37.53,37.31a37.42,37.42,0,0,1-37.3,37.3l-99.85.44a37.31,37.31,0,0,1,0-74.61h0a41.37,41.37,0,0,1,12.07,1.54c.64.25,1.3.47,2,.66a62,62,0,0,1,.44-9.44h-.22a59.44,59.44,0,0,0-14.49-1.76,46.7,46.7,0,0,0-46.52,46.53A46.16,46.16,0,0,0,241.84,147l-20.63,20.63h12.51l19.53-19.09h.66l99.85-.66a46.69,46.69,0,0,0,46.52-46.53,45.28,45.28,0,0,0-30.07-43h0a43.69,43.69,0,0,0-5.48-15.8L407.74,0Z"/></clipPath><linearGradient id="Dégradé_sans_nom_3" x1="3408.41" y1="-3883.43" x2="3411.42" y2="-3883.43" gradientTransform="matrix(58.87, 20.23, -24.18, 49.27, -294334.11, 122424.38)" gradientUnits="userSpaceOnUse"><stop offset="0" stop-color="#6db33f"/><stop offset="0.07" stop-color="#6db33f"/><stop offset="0.94" stop-color="#0095d3"/><stop offset="1" stop-color="#0095d3"/></linearGradient></defs><g id="Groupe_31260" data-name="Groupe 31260"><g class="cls-2"><polygon class="cls-3" points="5.49 120.92 11.42 120.92 13.18 138.47 24.37 120.92 30.51 120.92 13.83 146.16 9.02 146.16 5.49 120.92"/><polygon class="cls-3" points="35.12 120.92 53.77 120.92 52.45 125.73 39.28 125.73 37.75 130.78 49.38 130.78 48.06 135.59 36.43 135.59 34.89 140.86 48.5 140.86 47.18 145.67 28.1 145.67 35.12 120.92"/><g class="cls-2"><path class="cls-3" d="M65.84,138H61.67l-2.19,8.13H54l6.58-25h9.22a10.91,10.91,0,0,1,7.9,2.41,7,7,0,0,1,2,5,7.79,7.79,0,0,1-2.41,5.93,11.11,11.11,0,0,1-5.72,3.07l4.39,8.56H69.57Zm2-4.81a6.93,6.93,0,0,0,5-1.54,3.5,3.5,0,0,0,1.1-2.41,2.66,2.66,0,0,0-.66-2,5.16,5.16,0,0,0-3.51-1.1H65.18l-2,7.24,4.61-.22Z"/><polygon class="cls-3" points="88.44 120.92 93.93 120.92 87.35 145.93 81.86 145.93 88.44 120.92"/><polygon class="cls-3" points="101.61 120.92 120.7 120.92 119.17 125.97 105.56 125.97 104.02 131.45 116.09 131.45 114.99 136.5 102.93 136.5 100.3 146.16 94.81 146.16 101.61 120.92"/><polygon class="cls-3" points="126.85 120.92 132.33 120.92 125.75 145.93 120.26 145.93 126.85 120.92"/><polygon class="cls-3" points="140.01 120.92 158.66 120.92 157.35 125.73 143.96 125.73 142.42 130.78 154.05 130.78 152.74 135.59 141.11 135.59 139.57 140.86 152.96 140.86 151.64 145.67 132.77 145.67 140.01 120.92"/><path class="cls-3" d="M165.47,120.92h7.46a13.25,13.25,0,0,1,9.88,3.29,10.32,10.32,0,0,1,2.63,7.46,14,14,0,0,1-4.17,9.88,17.82,17.82,0,0,1-13.17,4.6h-9.43Zm7,5h-2.63l-4.17,15.14h3.07a12.35,12.35,0,0,0,8.56-3.08,8.81,8.81,0,0,0,2.41-6.36,4.73,4.73,0,0,0-1.54-3.95,7.66,7.66,0,0,0-5.68-1.75Z"/><path class="cls-4" d="M83.4,48.28,74.84,24.8c-.22-.44-.44-.66-.44-1.1a2,2,0,0,1,2.07-2h.12a2.31,2.31,0,0,1,2.19,1.75l7,20.41,7-20.41c.44-.88.88-1.53,2-1.53h.44a2.38,2.38,0,0,1,2.2,1.53l6.8,20.19,7.24-20.4c.44-.88.88-1.54,2-1.54a1.84,1.84,0,0,1,2,1.69v.28c0,.44-.22.66-.44,1.1l-8.56,23.48A2.31,2.31,0,0,1,104,50c-1.09,0-1.75-.66-2.4-1.76l-7-20-6.81,20A2.3,2.3,0,0,1,85.39,50h-.22a1.86,1.86,0,0,1-1.76-1.76"/><path class="cls-4" d="M144.84,23.7a2.16,2.16,0,0,1,2-2.19A2.07,2.07,0,0,1,149,23.45a1,1,0,0,1,0,.25v4.82a11.26,11.26,0,0,1,9.44-6.81c1.32,0,2,.88,2,2.19a2.15,2.15,0,0,1-1.76,2.2c-5.49.66-9.88,4.61-9.88,12.73v9.45a2.16,2.16,0,0,1-2,2.19,2.07,2.07,0,0,1-2.2-1.94v-.25l.22-24.58"/><path class="cls-4" d="M174,50.25a13.63,13.63,0,0,1-13.64-13.62q0-.43,0-.87v-.22a13.66,13.66,0,0,1,12.82-14.46l.35,0c8.12,0,12.51,6.58,12.51,14a2,2,0,0,1-2,2H164.37a9.5,9.5,0,0,0,9.44,9.44,10.56,10.56,0,0,0,7.9-3.29,1.19,1.19,0,0,1,1.1-.44,1.61,1.61,0,0,1,1.75,1.46,1.4,1.4,0,0,1,0,.29,1.88,1.88,0,0,1-.66,1.32A11.44,11.44,0,0,1,174,50.25m8.12-15.8c-.44-5.05-3.29-9.44-8.56-9.44a9.41,9.41,0,0,0-8.78,9.44Z"/><path class="cls-4" d="M115.44,41.7h0c0-5.93,4.81-9.22,11.85-9.22a23.94,23.94,0,0,1,8.55,1.32v-.88c0-5.05-3.07-7.46-8.33-7.46a15.23,15.23,0,0,0-6.59,1.31.8.8,0,0,1-.66.22,1.72,1.72,0,0,1-1.75-1.7v-.05a1.73,1.73,0,0,1,1.1-1.76,16.73,16.73,0,0,1,8.33-1.54,12.4,12.4,0,0,1,9,3.07,11.38,11.38,0,0,1,2.85,8.13V48.5a1.83,1.83,0,0,1-1.69,2h-.28a1.84,1.84,0,0,1-2-1.69V45.86a12.75,12.75,0,0,1-10.09,4.82c-5-.44-10.32-3.29-10.32-9m20.63-2.19V36.85a34.33,34.33,0,0,0-8.12-1.31c-5.27,0-8.12,2.4-8.12,5.71v.22c0,3.51,3.29,5.49,7,5.49A8.17,8.17,0,0,0,136,40c0-.15,0-.3,0-.45Z"/><path class="cls-4" d="M7.91,23.26a4,4,0,0,0-5.27-2,3.85,3.85,0,0,0-2.09,5c0,.08.07.16.11.25L9.44,45.87c1.54,3.07,2.85,4.61,5.49,4.61,2.85,0,4.17-1.76,5.48-4.61,0,0,7.68-16.68,7.68-16.9s.44-.66,1.1-.66a1.26,1.26,0,0,1,1.32,1.21V46.08a4.28,4.28,0,0,0,3.93,4.6h.24a4.28,4.28,0,0,0,4.18-4.37c0-.08,0-.16,0-.24V32.7A4.25,4.25,0,0,1,43,28.31h.25a4,4,0,0,1,4.18,3.76,3.35,3.35,0,0,1,0,.63V46.08a4.29,4.29,0,0,0,3.93,4.6h.24a4.28,4.28,0,0,0,4.19-4.37c0-.07,0-.16,0-.24V32.7a4.26,4.26,0,0,1,4.14-4.39h.25a4.09,4.09,0,0,1,4.18,4c0,.13,0,.26,0,.39V46.08a4.29,4.29,0,0,0,3.93,4.6h.24a4.28,4.28,0,0,0,4.18-4.37,2,2,0,0,0,0-.24V30.72a9.46,9.46,0,0,0-9.49-9.44h-.38A12.49,12.49,0,0,0,54,25a9.66,9.66,0,0,0-8.56-3.73A14.34,14.34,0,0,0,37.09,25a9.56,9.56,0,0,0-7.46-3.73,9.23,9.23,0,0,0-9,6.15L15.15,40.82,7.91,23.27"/><path class="cls-4" d="M186.54,25.24h0a3.62,3.62,0,0,1,3.51-3.52,3.48,3.48,0,0,1,3.51,3.43v.09a3.6,3.6,0,0,1-3.51,3.51,3.46,3.46,0,0,1-3.51-3.42v-.09m5.92,0h0A2.54,2.54,0,0,0,190,22.6h-.2a2.64,2.64,0,0,0,0,5.27,2.41,2.41,0,0,0,2.63-2.16,1.85,1.85,0,0,0,0-.47"/><path class="cls-4" d="M188.51,23.92a.47.47,0,0,1,.44-.44h1.1a1.16,1.16,0,0,1,.88.44c.22.22.44.44.44.66a1.2,1.2,0,0,1-.66,1.1l.44.44a.8.8,0,0,1,.22.44.47.47,0,0,1-.44.43c-.22,0-.44,0-.44-.21l-.66-.88h-.44v.66A.47.47,0,0,1,189,27a.46.46,0,0,1-.44-.43Zm1.32,1.1c.44,0,.44-.22.44-.44,0-.44-.22-.44-.44-.44h-.66V25Z"/><path class="cls-4" d="M0,85.8H0a18.63,18.63,0,0,1,18.2-19.08h.67a20,20,0,0,1,14.48,5.72l-4.17,4.81a14.85,14.85,0,0,0-10.32-4.39A12.25,12.25,0,0,0,6.79,85.27c0,.17,0,.35,0,.52V86A12.25,12.25,0,0,0,18.35,98.92a4.61,4.61,0,0,0,.52,0,14.57,14.57,0,0,0,10.53-4.6l4.17,4.17A19.12,19.12,0,0,1,0,85.8"/><polygon class="cls-4" points="40.6 67.15 47.19 67.15 47.19 98.1 66.5 98.1 66.5 104.02 40.82 104.02 40.6 67.15"/><path class="cls-4" d="M69.35,85.8h0a18.74,18.74,0,0,1,18.4-19.09h.91A18.7,18.7,0,0,1,108,84.8c0,.26,0,.52,0,.79v.21a18.75,18.75,0,0,1-18.4,19.1h-.91A18.89,18.89,0,0,1,69.35,86.46V85.8m31.59,0h0A12.65,12.65,0,0,0,88.8,72.65h-.37A12.47,12.47,0,0,0,75.91,85.06c0,.17,0,.34,0,.51v.22a12.47,12.47,0,0,0,12,12.93h.52A12.48,12.48,0,0,0,101,86.3c0-.16,0-.33,0-.5"/><path class="cls-4" d="M115,88.44V67.15h6.58V88.21c0,6.8,3.51,10.53,9.44,10.53,5.71,0,9.21-3.51,9.21-10.31V67.15h6.59V88c0,11-6.15,16.46-15.8,16.46-9.88.22-16-5.27-16-16"/><path class="cls-4" d="M155.38,67.15H169c11.41,0,19.53,7.9,19.53,18.44v.22c0,10.53-7.9,18.43-19.53,18.43h-13.6Zm6.36,5.93v25H169A12,12,0,0,0,181.7,86.79c0-.4,0-.8,0-1.2v-.22a12,12,0,0,0-11.53-12.52,9.61,9.61,0,0,0-1.2,0Z"/><polygon class="cls-4" points="187.41 69.57 185.88 69.57 185.88 68.91 189.39 68.91 189.39 69.57 187.85 69.57 187.85 73.08 187.19 73.08 187.41 69.57 187.41 69.57"/><polygon class="cls-4" points="190.49 68.91 191.15 68.91 192.46 70.89 193.78 68.91 194.44 68.91 194.44 73.3 193.78 73.3 193.78 70.22 192.46 72.2 191.15 70.22 191.15 73.3 190.49 73.3 190.49 68.91"/></g><g class="cls-5"><polygon class="cls-6" points="136.93 143.47 378.82 226.59 478.14 24.19 236.25 -58.93 136.93 143.47"/></g></g></g></svg>