<svg width="406" height="57" viewBox="0 0 406 57" fill="none" xmlns="http://www.w3.org/2000/svg">
<path fill-rule="evenodd" clip-rule="evenodd" d="M55.45 4.62958C58.2193 9.61428 59.4432 15.3101 58.966 20.9924C58.4888 26.6747 56.332 32.0866 52.77 36.5396H37.39L42.13 28.1696H35.87L43.25 15.1696H49.55L55.45 4.62958ZM25.09 36.5396H9.41C5.78028 32.1032 3.57792 26.6724 3.09245 20.961C2.60698 15.2496 3.86112 9.52491 6.69 4.53958L16.86 22.2196L28.07 2.69958H44.58L25.1 36.5296L25.09 36.5396Z" fill="#000E9C"/>
<path d="M68.42 20.1096C68.42 11.1096 72.91 6.74957 80.29 6.74957C87.67 6.74957 92.17 11.0896 92.17 20.1096C92.17 29.1296 87.68 33.4396 80.29 33.4396C72.9 33.4396 68.42 29.0596 68.42 20.1096ZM71.08 20.1096C71.08 27.5396 74.47 31.1096 80.29 31.1096C86.11 31.1096 89.51 27.5696 89.51 20.1096C89.51 12.6496 86.12 9.10957 80.29 9.10957C74.46 9.10957 71.08 12.6496 71.08 20.1096Z" fill="#000E9C"/>
<path d="M111.59 7.81957C111.7 7.53959 111.903 7.30634 112.166 7.15957C112.428 7.0128 112.734 6.96159 113.03 7.01467C113.326 7.06774 113.594 7.22181 113.789 7.45064C113.984 7.67946 114.094 7.96888 114.1 8.26957C114.09 8.46372 114.053 8.65552 113.99 8.83957L105.08 32.3296C104.993 32.5837 104.828 32.8042 104.609 32.9604C104.391 33.1165 104.129 33.2004 103.86 33.2004C103.591 33.2004 103.329 33.1165 103.111 32.9604C102.892 32.8042 102.727 32.5837 102.64 32.3296L93.73 8.83957C93.6674 8.65552 93.6304 8.46372 93.62 8.26957C93.6257 7.96888 93.7355 7.67946 93.9307 7.45064C94.1258 7.22181 94.3943 7.06774 94.6903 7.01467C94.9864 6.96159 95.2917 7.0128 95.5542 7.15957C95.8167 7.30634 96.0202 7.53959 96.13 7.81957L103.86 28.2996L111.59 7.81957Z" fill="#000E9C"/>
<path d="M119.51 20.9496V31.9496C119.526 32.1292 119.504 32.3102 119.446 32.4809C119.388 32.6517 119.295 32.8086 119.174 32.9415C119.052 33.0745 118.904 33.1807 118.739 33.2533C118.574 33.326 118.395 33.3635 118.215 33.3635C118.035 33.3635 117.856 33.326 117.691 33.2533C117.526 33.1807 117.378 33.0745 117.256 32.9415C117.135 32.8086 117.042 32.6517 116.984 32.4809C116.926 32.3102 116.904 32.1292 116.92 31.9496V8.26959C116.948 7.94578 117.097 7.64438 117.337 7.42483C117.577 7.20528 117.89 7.0835 118.215 7.0835C118.54 7.0835 118.853 7.20528 119.093 7.42483C119.333 7.64438 119.482 7.94578 119.51 8.26959V18.5896H132.75V8.26959C132.778 7.94578 132.927 7.64438 133.167 7.42483C133.407 7.20528 133.72 7.0835 134.045 7.0835C134.37 7.0835 134.683 7.20528 134.923 7.42483C135.163 7.64438 135.312 7.94578 135.34 8.26959V31.9096C135.356 32.0892 135.334 32.2702 135.276 32.4409C135.218 32.6117 135.125 32.7686 135.004 32.9015C134.882 33.0345 134.734 33.1407 134.569 33.2133C134.404 33.286 134.225 33.3235 134.045 33.3235C133.865 33.3235 133.686 33.286 133.521 33.2133C133.356 33.1407 133.208 33.0345 133.086 32.9015C132.965 32.7686 132.872 32.6117 132.814 32.4409C132.756 32.2702 132.734 32.0892 132.75 31.9096V20.9096L119.51 20.9496Z" fill="#000E9C"/>
<path d="M147.56 15.0896C148.674 15.0413 149.783 15.2518 150.802 15.7047C151.82 16.1576 152.72 16.8404 153.43 17.6996C153.598 17.9055 153.69 18.1635 153.69 18.4296C153.694 18.5752 153.668 18.7201 153.615 18.8554C153.561 18.9907 153.48 19.1137 153.377 19.2166C153.274 19.3196 153.151 19.4005 153.016 19.4543C152.88 19.5081 152.736 19.5337 152.59 19.5296C152.412 19.53 152.237 19.4896 152.078 19.4116C151.918 19.3336 151.779 19.22 151.67 19.0796C151.179 18.4726 150.55 17.9929 149.834 17.6812C149.119 17.3696 148.339 17.2353 147.56 17.2896C144.06 17.2896 142.2 19.5296 142.2 24.2096C142.2 28.8896 144.06 31.2096 147.56 31.2096C149.189 31.1945 150.761 30.6069 152 29.5496C152.202 29.3811 152.457 29.289 152.72 29.2896C153.013 29.2896 153.293 29.4052 153.501 29.6112C153.709 29.8172 153.827 30.0969 153.83 30.3896C153.828 30.5762 153.781 30.7596 153.694 30.9248C153.607 31.0899 153.483 31.2321 153.33 31.3396C151.728 32.7026 149.683 33.435 147.58 33.3996C142.67 33.3996 139.74 30.4696 139.74 24.2196C139.74 17.9696 142.67 15.0896 147.58 15.0896" fill="#000E9C"/>
<path d="M159.71 7.01956V28.7496C159.71 30.2796 160.2 30.9196 161.23 30.9196C161.515 30.9462 161.78 31.0784 161.973 31.2902C162.166 31.502 162.273 31.7781 162.273 32.0646C162.273 32.351 162.166 32.6272 161.973 32.8389C161.78 33.0507 161.515 33.1829 161.23 33.2096C158.68 33.2096 157.23 31.6896 157.23 28.7496V7.01956C157.238 6.69839 157.369 6.39249 157.596 6.16533C157.823 5.93816 158.129 5.80718 158.45 5.79956C158.773 5.80217 159.082 5.93155 159.31 6.15978C159.538 6.38801 159.667 6.69681 159.67 7.01956" fill="#000E9C"/>
<path d="M180.46 24.2196C180.46 30.4696 177.41 33.3996 172.46 33.3996C167.51 33.3996 164.46 30.4696 164.46 24.2196C164.46 17.9696 167.54 15.0896 172.46 15.0896C177.38 15.0896 180.46 17.9796 180.46 24.2196ZM177.98 24.2196C177.98 19.4296 175.98 17.2996 172.46 17.2996C168.94 17.2996 166.94 19.4296 166.94 24.2196C166.94 29.0096 168.94 31.2196 172.46 31.2196C175.98 31.2196 177.98 29.1296 177.98 24.2196Z" fill="#000E9C"/>
<path d="M186.32 16.5296V26.4696C186.32 28.9396 187.12 31.0796 190.96 31.0796C194.8 31.0796 195.61 28.9396 195.61 26.4696V16.5296C195.613 16.368 195.647 16.2086 195.711 16.0604C195.775 15.9121 195.868 15.778 195.984 15.6656C196.1 15.5533 196.238 15.4649 196.388 15.4055C196.538 15.3461 196.698 15.3169 196.86 15.3196C197.17 15.3326 197.463 15.4664 197.676 15.6925C197.889 15.9186 198.006 16.219 198 16.5296V26.4696C198 30.0896 196.82 33.3996 190.92 33.3996C185.02 33.3996 183.84 30.0896 183.84 26.4696V16.5296C183.839 16.3694 183.869 16.2107 183.93 16.0626C183.991 15.9145 184.081 15.7801 184.195 15.6674C184.309 15.5546 184.444 15.4658 184.592 15.406C184.741 15.3463 184.9 15.3169 185.06 15.3196C185.382 15.3196 185.691 15.4467 185.919 15.6734C186.148 15.9 186.277 16.2077 186.28 16.5296" fill="#000E9C"/>
<path d="M214.3 17.5596V7.01956C214.3 6.696 214.429 6.38568 214.657 6.15689C214.886 5.9281 215.196 5.79956 215.52 5.79956C215.844 5.79956 216.154 5.9281 216.383 6.15689C216.611 6.38568 216.74 6.696 216.74 7.01956V25.8996C216.74 30.8996 213.62 33.3996 209.28 33.3996C204.36 33.3996 201.47 30.4696 201.47 24.2196C201.47 17.9696 204.21 15.0896 209.12 15.0896C210.115 15.0736 211.101 15.2882 212 15.7167C212.899 16.1453 213.686 16.776 214.3 17.5596ZM214.3 20.6496C213.856 19.6851 213.154 18.8621 212.271 18.271C211.389 17.6799 210.361 17.3438 209.3 17.2996C205.83 17.2996 203.93 19.5396 203.93 24.2196C203.93 28.8996 205.79 31.2196 209.3 31.2196C212.23 31.2196 214.3 29.5496 214.3 25.9296V20.6496Z" fill="#000E9C"/>
<path d="M236.74 2.69958V36.5396" stroke="#000E9C" stroke-width="1.43"/>
<path d="M313.429 51.2004V52.6004H312.829V43.2004H313.429V47.5004C314.029 46.6004 314.829 45.9004 316.129 45.9004C317.729 45.9004 319.329 47.2004 319.329 49.3004C319.329 51.4004 317.729 52.7004 316.129 52.7004C314.729 52.8004 313.929 52.0004 313.429 51.2004ZM318.629 49.4004C318.629 47.7004 317.429 46.5004 316.029 46.5004C314.629 46.5004 313.329 47.6004 313.329 49.3004C313.329 51.0004 314.629 52.1004 316.029 52.1004C317.429 52.2004 318.629 51.1004 318.629 49.4004Z" fill="black"/>
<path d="M326.029 46.1004H326.729L323.929 52.9004C323.329 54.3004 322.729 54.8004 321.729 54.8004C321.229 54.8004 320.829 54.7004 320.429 54.5004L320.629 53.9004C320.929 54.1004 321.229 54.1004 321.729 54.1004C322.429 54.1004 322.829 53.7004 323.329 52.6004L320.129 46.1004H320.829L323.529 52.0004L326.029 46.1004Z" fill="black"/>
<path d="M332.329 43.6004H336.329C337.329 43.6004 338.129 43.9004 338.729 44.4004C339.129 44.8004 339.329 45.3004 339.329 45.9004C339.329 47.0004 338.729 47.6004 338.029 47.9004C339.129 48.3004 339.829 48.9004 339.829 50.1004C339.829 51.7004 338.529 52.6004 336.529 52.6004H332.329V43.6004ZM337.729 46.2004C337.729 45.5004 337.129 45.1004 336.129 45.1004H333.829V47.5004H336.029C337.029 47.4004 337.729 47.0004 337.729 46.2004ZM336.329 48.8004H333.829V51.3004H336.429C337.529 51.3004 338.129 50.9004 338.129 50.1004C338.229 49.2004 337.629 48.8004 336.329 48.8004Z" fill="black"/>
<path d="M341.429 45.8004H343.029V47.3004C343.429 46.3004 344.229 45.6004 345.429 45.6004V47.2004H345.329C343.929 47.2004 343.029 48.1004 343.029 49.9004V52.5004H341.429V45.8004Z" fill="black"/>
<path d="M346.129 49.3004C346.129 47.3004 347.629 45.7004 349.729 45.7004C351.829 45.7004 353.329 47.3004 353.329 49.2004C353.329 51.1004 351.829 52.7004 349.729 52.7004C347.629 52.8004 346.129 51.2004 346.129 49.3004ZM351.829 49.3004C351.829 48.1004 350.929 47.1004 349.729 47.1004C348.529 47.1004 347.729 48.1004 347.729 49.3004C347.729 50.5004 348.629 51.5004 349.829 51.5004C351.029 51.4004 351.829 50.4004 351.829 49.3004Z" fill="black"/>
<path d="M354.529 50.7004C354.529 49.2004 355.729 48.5004 357.329 48.5004C358.129 48.5004 358.629 48.6004 359.129 48.8004V48.6004C359.129 47.6004 358.529 47.1004 357.429 47.1004C356.629 47.1004 356.129 47.3004 355.529 47.5004L355.129 46.3004C355.929 46.0004 356.629 45.7004 357.729 45.7004C358.729 45.7004 359.529 46.0004 360.029 46.5004C360.529 47.0004 360.729 47.7004 360.729 48.6004V52.6004H359.229V51.8004C358.729 52.4004 358.029 52.8004 357.029 52.8004C355.629 52.8004 354.529 52.0004 354.529 50.7004ZM359.129 50.2004V49.7004C358.729 49.5004 358.229 49.4004 357.629 49.4004C356.629 49.4004 356.029 49.8004 356.029 50.5004C356.029 51.2004 356.629 51.5004 357.329 51.5004C358.329 51.6004 359.129 51.0004 359.129 50.2004Z" fill="black"/>
<path d="M362.129 49.2004C362.129 46.9004 363.629 45.6004 365.329 45.6004C366.429 45.6004 367.129 46.2004 367.629 46.8004V43.1004H369.229V52.5004H367.629V51.4004C367.129 52.1004 366.429 52.7004 365.329 52.7004C363.729 52.8004 362.129 51.5004 362.129 49.2004ZM367.629 49.2004C367.629 47.9004 366.729 47.0004 365.629 47.0004C364.529 47.0004 363.629 47.8004 363.629 49.2004C363.629 50.5004 364.529 51.4004 365.629 51.4004C366.729 51.4004 367.629 50.5004 367.629 49.2004Z" fill="black"/>
<path d="M370.729 49.3004C370.729 47.3004 372.229 45.7004 374.229 45.7004C375.529 45.7004 376.329 46.2004 376.929 46.9004L375.929 47.9004C375.429 47.4004 374.929 47.1004 374.229 47.1004C373.129 47.1004 372.229 48.1004 372.229 49.3004C372.229 50.5004 373.029 51.5004 374.229 51.5004C374.929 51.5004 375.529 51.2004 376.029 50.7004L376.929 51.6004C376.229 52.3004 375.429 52.9004 374.129 52.9004C372.229 52.8004 370.729 51.2004 370.729 49.3004Z" fill="black"/>
<path d="M377.929 49.3004C377.929 47.3004 379.429 45.7004 381.529 45.7004C383.629 45.7004 385.129 47.3004 385.129 49.2004C385.129 51.1004 383.629 52.7004 381.529 52.7004C379.429 52.8004 377.929 51.2004 377.929 49.3004ZM383.629 49.3004C383.629 48.1004 382.729 47.1004 381.529 47.1004C380.329 47.1004 379.529 48.1004 379.529 49.3004C379.529 50.5004 380.429 51.5004 381.629 51.5004C382.829 51.4004 383.629 50.4004 383.629 49.3004Z" fill="black"/>
<path d="M386.729 45.8004H388.329V46.8004C388.729 46.2004 389.329 45.6004 390.429 45.6004C391.429 45.6004 392.129 46.1004 392.429 46.8004C392.929 46.1004 393.729 45.6004 394.729 45.6004C396.229 45.6004 397.129 46.5004 397.129 48.2004V52.5004H395.529V48.6004C395.529 47.5004 395.029 46.9004 394.129 46.9004C393.329 46.9004 392.629 47.5004 392.629 48.6004V52.4004H391.029V48.5004C391.029 47.4004 390.529 46.9004 389.629 46.9004C388.729 46.9004 388.129 47.5004 388.129 48.6004V52.4004H386.529V45.8004H386.729Z" fill="black"/>
<path d="M342.029 12.0004C341.129 12.0004 340.729 12.6004 340.529 13.2004L335.229 28.7004L329.929 13.3004C329.729 12.6004 329.129 12.0004 328.329 12.0004H328.129C327.329 12.0004 326.829 12.5004 326.629 13.3004L321.229 28.7004L315.929 13.4004C315.729 12.6004 315.129 12.1004 314.329 12.1004C313.429 12.1004 312.729 12.8004 312.729 13.6004C312.729 13.9004 312.829 14.2004 312.929 14.5004L319.329 32.3004C319.629 33.2004 320.329 33.7004 321.029 33.7004H321.129C321.929 33.7004 322.529 33.2004 322.829 32.3004L328.129 17.2004L333.329 32.3004C333.629 33.2004 334.229 33.7004 335.029 33.7004H335.129C335.829 33.7004 336.529 33.2004 336.829 32.3004L343.229 14.5004C343.329 14.3004 343.429 13.9004 343.429 13.6004C343.629 12.7004 342.929 12.0004 342.029 12.0004Z" fill="black"/>
<path d="M376.329 12.0004C374.029 12.0004 370.629 13.7004 369.129 17.2004V13.6004C369.129 12.7004 368.429 12.0004 367.529 12.0004C366.629 12.0004 366.029 12.7004 366.029 13.6004V32.0004C366.029 32.9004 366.729 33.6004 367.629 33.6004C368.529 33.6004 369.129 32.9004 369.129 32.0004V24.9004C369.129 18.8004 372.429 15.8004 376.529 15.3004C377.329 15.2004 377.929 14.6004 377.929 13.7004C377.829 12.7004 377.229 12.0004 376.329 12.0004Z" fill="black"/>
<path d="M387.529 12.0004C381.829 12.0004 377.629 16.8004 377.629 22.8004V22.9004C377.629 29.3004 382.229 33.7004 387.929 33.7004C391.429 33.7004 393.729 32.4004 395.729 30.6004C396.029 30.3004 396.229 30.0004 396.229 29.6004C396.229 28.9004 395.629 28.3004 394.829 28.3004C394.429 28.3004 394.229 28.5004 393.929 28.7004C392.429 30.1004 390.529 31.1004 388.029 31.1004C384.329 31.1004 381.229 28.6004 380.729 24.0004H395.629C396.429 24.0004 397.029 23.4004 397.029 22.6004C397.029 17.0004 393.629 12.0004 387.529 12.0004ZM380.729 21.7004C381.129 17.6004 383.829 14.6004 387.429 14.6004C391.529 14.6004 393.729 17.9004 394.029 21.7004H380.729Z" fill="black"/>
<path d="M353.129 12.1004C350.429 12.1004 348.929 12.4004 346.829 13.3004C346.329 13.5004 346.029 13.9004 346.029 14.6004C346.029 15.3004 346.729 15.9004 347.429 15.9004C347.629 15.9004 347.829 15.9004 348.029 15.8004C349.529 15.1004 350.829 14.8004 352.929 14.8004C356.829 14.8004 359.229 16.7004 359.229 20.5004V21.2004C357.329 20.7004 355.429 20.3004 352.729 20.3004C347.429 20.3004 343.729 22.7004 343.729 27.1004V27.2004C343.729 31.5004 347.629 33.7004 351.529 33.7004C355.229 33.7004 357.629 32.0004 359.129 30.1004V32.1004C359.129 32.9004 359.729 33.6004 360.629 33.6004C361.529 33.6004 362.129 32.9004 362.129 32.1004V20.5004C362.129 17.8004 361.429 15.8004 359.929 14.4004C358.429 12.8004 356.129 12.1004 353.129 12.1004ZM359.129 25.6004C359.129 28.9004 355.929 31.3004 352.129 31.3004C349.329 31.3004 346.829 29.8004 346.829 27.1004V27.0004C346.829 24.4004 349.029 22.7004 352.929 22.7004C355.529 22.7004 357.529 23.2004 359.129 23.6004V25.6004Z" fill="black"/>
<path d="M303.929 11.6004C299.829 11.6004 297.229 14.4004 297.229 14.4004C295.929 12.7004 294.029 11.6004 290.929 11.6004C287.529 11.6004 284.629 14.4004 284.629 14.4004C283.229 12.7004 280.929 11.6004 279.029 11.6004C276.029 11.6004 273.729 12.9004 272.229 16.2004L267.929 26.2004L262.529 13.4004C261.829 11.9004 260.129 11.2004 258.529 11.9004C256.929 12.6004 256.329 14.3004 257.029 15.9004L263.729 30.4004C264.729 32.7004 265.929 33.9004 267.929 33.9004C270.129 33.9004 271.129 32.6004 272.129 30.4004C272.129 30.4004 277.929 17.7004 278.029 17.6004C278.129 17.5004 278.229 17.1004 278.829 17.1004C279.329 17.1004 279.729 17.5004 279.729 18.0004V30.4004C279.729 32.3004 280.829 33.9004 282.829 33.9004C284.829 33.9004 285.929 32.3004 285.929 30.4004V20.2004C285.929 18.2004 287.329 17.0004 289.229 17.0004C291.129 17.0004 292.429 18.3004 292.429 20.2004V30.3004C292.429 32.2004 293.529 33.8004 295.529 33.8004C297.529 33.8004 298.629 32.2004 298.629 30.3004V20.2004C298.629 18.2004 300.029 17.0004 301.929 17.0004C303.829 17.0004 305.129 18.3004 305.129 20.2004V30.3004C305.129 32.2004 306.229 33.8004 308.229 33.8004C310.229 33.8004 311.329 32.2004 311.329 30.3004V18.8004C311.429 14.6004 308.029 11.6004 303.929 11.6004Z" fill="black"/>
<path d="M399.929 12.0004C398.529 12.0004 397.329 13.2004 397.329 14.6004C397.329 16.0004 398.429 17.2004 399.929 17.2004C401.429 17.2004 402.529 16.0004 402.529 14.6004C402.529 13.2004 401.429 12.0004 399.929 12.0004ZM402.029 14.6004C402.029 15.8004 401.129 16.7004 399.929 16.7004C398.729 16.7004 397.829 15.7004 397.829 14.6004C397.829 13.4004 398.729 12.5004 399.929 12.5004C401.129 12.5004 402.029 13.4004 402.029 14.6004Z" fill="black"/>
<path d="M400.029 13.3004H399.129C398.929 13.3004 398.829 13.4004 398.829 13.6004V15.6004C398.829 15.8004 398.929 15.9004 399.129 15.9004C399.329 15.9004 399.429 15.8004 399.429 15.6004V15.0004H399.829L400.329 15.7004C400.429 15.8004 400.429 15.8004 400.629 15.8004C400.729 15.8004 400.929 15.7004 400.929 15.5004C400.929 15.4004 400.929 15.4004 400.829 15.3004L400.429 14.8004C400.729 14.7004 400.929 14.4004 400.929 14.0004C400.929 13.8004 400.829 13.6004 400.729 13.4004C400.629 13.4004 400.429 13.3004 400.029 13.3004ZM400.429 14.2004C400.429 14.4004 400.329 14.6004 400.029 14.6004H399.429V13.8004H400.029C400.329 13.8004 400.429 13.9004 400.429 14.2004Z" fill="black"/>
</svg>
