<svg width="99" height="99" viewBox="0 0 99 99" fill="none" xmlns="http://www.w3.org/2000/svg">
<path d="M85.2654 37.0237C85.2654 37.0237 85.2654 27.2548 85.3369 25.2867C81.8803 24.75 77.5696 25.2868 77.5696 25.2868H74.5474H72.0041H13.5273V72.4562H85.2654V45.7906C85.2654 45.7906 85.3799 45.3039 85.2654 41.5395C85.1509 37.7751 85.2654 37.0237 85.2654 37.0237ZM38.3394 64.6841V33.0732L65.7135 48.9037L38.3394 64.6841Z" fill="url(#paint0_linear_295_33675)"/>
<path d="M85.2666 73.5368H13.5286C13.2439 73.5368 12.9708 73.4237 12.7695 73.2224C12.5682 73.021 12.4551 72.748 12.4551 72.4633V25.2868C12.4551 25.0021 12.5682 24.7291 12.7695 24.5277C12.9708 24.3264 13.2439 24.2133 13.5286 24.2133H86.3401V26.3603H14.6021V71.3826H84.1931V24.2133H86.3401V72.4633C86.3401 72.748 86.227 73.021 86.0257 73.2224C85.8244 73.4237 85.5513 73.5368 85.2666 73.5368Z" fill="#0134B3"/>
<path d="M38.3401 65.7574C38.1519 65.7566 37.967 65.7073 37.8033 65.6143C37.6405 65.5194 37.5054 65.3837 37.4112 65.2205C37.317 65.0573 37.2672 64.8723 37.2666 64.6839V33.0731C37.267 32.8841 37.3173 32.6987 37.4123 32.5354C37.5074 32.3721 37.6438 32.2367 37.8079 32.1431C37.972 32.0494 38.1579 32.0007 38.3469 32.0019C38.5358 32.0031 38.7211 32.0542 38.884 32.1499L66.2509 47.9517C66.4145 48.0458 66.5503 48.1814 66.6447 48.3447C66.7392 48.5081 66.7889 48.6934 66.7889 48.8821C66.7889 49.0707 66.7392 49.2561 66.6447 49.4194C66.5503 49.5828 66.4145 49.7183 66.2509 49.8124L38.884 65.6143C38.7183 65.7085 38.5308 65.7579 38.3401 65.7574ZM39.4136 34.9338V62.8447L63.5672 48.9035L39.4136 34.9338Z" fill="#0134B3"/>
<path d="M8.20363 31.2124H6.05664V18.08C6.05664 17.7953 6.16974 17.5222 6.37106 17.3209C6.57238 17.1196 6.84543 17.0065 7.13013 17.0065H20.2769V19.1535H8.20363V31.2124Z" fill="#0134B3"/>
<path d="M91.9 80.3927H78.7676V78.2457H90.8265V66.194H92.9735V79.3264C92.9716 79.6098 92.8577 79.8811 92.6565 80.0808C92.4554 80.2806 92.1835 80.3927 91.9 80.3927Z" fill="#0134B3"/>
<defs>
<linearGradient id="paint0_linear_295_33675" x1="22.1869" y1="71.1678" x2="85.5874" y2="19.2465" gradientUnits="userSpaceOnUse">
<stop stop-color="#8186C9"/>
<stop offset="0.23" stop-color="#8186C9"/>
<stop offset="0.8" stop-color="#C6ECFC"/>
<stop offset="1" stop-color="#C6ECFC"/>
</linearGradient>
</defs>
</svg>
