<?xml version="1.0" encoding="UTF-8"?>
<svg enable-background="new 0 0 180 180" version="1.1" viewBox="0 0 180 180" xml:space="preserve" xmlns="http://www.w3.org/2000/svg" xmlns:cc="http://creativecommons.org/ns#" xmlns:dc="http://purl.org/dc/elements/1.1/" xmlns:rdf="http://www.w3.org/1999/02/22-rdf-syntax-ns#" xmlns:xlink="http://www.w3.org/1999/xlink"><metadata><rdf:RDF><cc:Work rdf:about=""><dc:format>image/svg+xml</dc:format><dc:type rdf:resource="http://purl.org/dc/dcmitype/StillImage"/><dc:title>hunman-Think</dc:title></cc:Work></rdf:RDF></metadata><style type="text/css">
	.st0{fill:none;}
	.st1{fill:none;stroke:#6199F2;stroke-width:4;stroke-miterlimit:10;}
	.st2{fill:none;stroke:#A2C0FC;stroke-width:4;stroke-miterlimit:10;}
	.st3{opacity:0.31;fill:#B1CEFC;enable-background:new    ;}
	.st4{opacity:0.27;fill:#B1CEFC;enable-background:new    ;}
	.st5{fill:#FFFFFF;}
	.st6{fill:none;stroke:url(#g);stroke-width:3.7152;stroke-miterlimit:10;}
	.st7{clip-path:url(#f);}
	.st8{fill:url(#e);stroke:#12233F;stroke-width:0.2752;stroke-miterlimit:10;}
	.st9{fill:#CADEFF;stroke:#6199F2;stroke-width:0.2752;stroke-miterlimit:10;}
	.st10{fill:url(#d);}
	.st11{opacity:0.75;fill:#B1CEFC;enable-background:new    ;}
	.st12{fill:#F7EBD2;stroke:#A8844A;stroke-width:0.2752;stroke-miterlimit:10;}
	.st13{opacity:0.27;fill:#A8844A;enable-background:new    ;}
	.st14{fill:url(#c);}
	.st15{opacity:0.44;fill:#D3963D;enable-background:new    ;}
	.st16{fill:url(#b);}
	.st17{fill:url(#a);}
	.st18{fill:#F9DDAA;stroke:#A8844A;stroke-width:0.344;stroke-miterlimit:10;}
	.st19{fill:#AD761D;}
	.st20{fill:#F9DDAA;}
	.st21{fill:none;stroke:#AD761D;stroke-width:0.4128;stroke-linecap:round;stroke-miterlimit:10;}
	.st22{fill:#F7EBD2;stroke:#B58D4D;stroke-width:0.2752;stroke-miterlimit:10;}
	.st23{fill:#A2C0FC;stroke:#6199F2;stroke-width:0.2752;stroke-miterlimit:10;}
	.st24{opacity:0.32;fill:#B1CEFC;enable-background:new    ;}
	.st25{fill:none;stroke:#6199F2;stroke-width:0.2752;stroke-miterlimit:10;}
	.st26{fill:none;stroke:url(#i);stroke-width:3.7152;stroke-miterlimit:10;}
	.st27{fill:none;stroke:url(#h);stroke-width:4.8161;stroke-linecap:round;stroke-miterlimit:10;}
</style><pattern id="j" x="-310" y="573.5" width="121.3" height="125.8" overflow="visible" patternUnits="userSpaceOnUse" viewBox="0 -125.8 121.3 125.8"><rect class="st0" y="-125.8" width="121.3" height="125.8"/><rect class="st0" y="-125.8" width="121.3" height="125.8"/><rect class="st0" y="-125.8" width="121.3" height="125.8"/><line class="st1" x1="25.5" x2="25.5" y1="-125.8"/><line class="st1" x1="44.9" x2="44.9" y1="-125.8"/><line class="st1" x1="121.3" y1="-99.6" y2="-99.6"/><line class="st1" x1="121.3" y1="-80.2" y2="-80.2"/><line class="st2" x2="121.3" y1="-62.9" y2="-62.9"/><line class="st2" x2="121.3" y1="-45.6" y2="-45.6"/><rect class="st3" x="44.9" y="-80.2" width="33.7" height="33.7"/></pattern><title>hunman-Think</title><path d="m160.7 104.6c1.7408 45.848-48.349 82.699-91.593 67.542-44.286-11.895-64.767-70.615-37.458-107.46 24.452-38.808 86.597-41.009 113.73-4.0276 9.8689 12.372 15.357 28.124 15.319 43.948z" enable-background="new" fill="#b1cefc" opacity=".27"/><path d="m142.9 82.7c0.85196 22.438-23.662 40.472-44.825 33.055-21.673-5.8212-31.696-34.558-18.332-52.591 11.966-18.992 42.38-20.069 55.66-1.9711 4.8298 6.055 7.5158 13.764 7.4969 21.508z" fill="#fff"/><path d="m67.9 73.9c0.53362 11.75-13.768 20.223-23.819 14.129-10.568-5.1654-11.156-21.777-0.98012-27.677 10.236-6.9993 25.156 1.1155 24.799 13.548z" fill="#fff"/><linearGradient id="g" x1="217.82" x2="313.35" y1="-290.81" y2="-290.81" gradientTransform="translate(-179.94 327.7)" gradientUnits="userSpaceOnUse"><stop stop-color="#1B364A" offset="0"/><stop stop-color="#16547E" offset="1"/></linearGradient><path d="m39.1 46.9c25.056-23.309 65.157-26.058 93.3-6.7" fill="none" stroke="url(#g)" stroke-miterlimit="10" stroke-width="3.7152"/><defs><circle id="k" cx="90" cy="90" r="90"/></defs><clipPath id="f"><use xlink:href="#k"/></clipPath><g class="st7" clip-path="url(#f)"><linearGradient id="e" x1="241.54" x2="298.58" y1="-147.69" y2="-147.69" gradientTransform="translate(-179.94 327.7)" gradientUnits="userSpaceOnUse"><stop stop-color="#1B364A" offset="0"/><stop stop-color="#16547E" offset="1"/></linearGradient><path d="m61.6 158.4c2.2226 14.695 5.0157 29.357 6 44.2h24.1c-0.36667-7.3667-0.73333-14.733-1.1-22.1 1.3667 7.3667 2.7333 14.733 4.1 22.1h24c-0.96667-12.733-1.9333-25.467-2.9-38.2-17.046-3.0916-34.198-7.3464-51.615-6.8449l-1.0872 0.20369z" fill="url(#e)" stroke="#12233f" stroke-miterlimit="10" stroke-width=".2752"/><path d="m60.4 66.8c17.39-5.6844 34.721-11.571 52.149-17.129 10.955-2.1558 11.551 10.896 12.728 18.421 2.2305 13.805 4.012 28.487-1.6868 41.727-1.449 5.7176-4.074 12.698-7.89 14.639v39.842c-12.794-2.1361-25.696-3.4239-38.653-3.7628-5.5357-1.4105-19.591 1.1202-12.996-7.486 1.4304-5.0182 5.1438-14.588 2.5213-17.426-7.196 6.1732-15.795 0.64281-15.497-8.2404-1.2959-17.161 1.7054-34.311 3.1252-51.391-0.070828-3.9852 2.2799-7.9837 6.1998-9.1934z" fill="#cadeff" stroke="#6199f2" stroke-miterlimit="10" stroke-width=".2752"/><pattern id="d" xlink:href="#j" patternTransform="matrix(.068805 0 0 .068805 -8128.3 -5786.1)"/><path d="m60.4 66.8c17.39-5.6844 34.721-11.571 52.149-17.129 10.955-2.1558 11.551 10.896 12.728 18.421 2.2305 13.805 4.012 28.487-1.6868 41.727-1.449 5.7176-4.074 12.698-7.89 14.639v39.842c-12.794-2.1361-25.696-3.4239-38.653-3.7628-5.5357-1.4105-19.591 1.1202-12.996-7.486 1.4304-5.0182 5.1438-14.588 2.5213-17.426-7.196 6.1732-15.795 0.64281-15.497-8.2404-1.2959-17.161 1.7054-34.311 3.1252-51.391-0.070828-3.9852 2.2799-7.9837 6.1998-9.1934z" fill="url(#d)"/><path d="m106.2 117.7c4.5058 3.5595 11.553 4.1646 9.5 11.134v35.466c-5.3-0.73333-10.6-1.4667-15.9-2.2 4.1795-5.1283 15.483 3.2613 13.766-5.3723 0.41122-10.809 0.82244-21.618 1.2337-32.428-5.3294 0.90137-10.914-2.6493-11.438-2.9375-2.7196 0.22861 1.7503-3.5318-3.5625-3.1625 0.8719-4.0054-5.0438-6.1521 1.3913-8.8214 2.3641-1.756 2.6709 4.5498 4.1446 6.2832 0.28801 0.67943 0.57603 1.3588 0.86405 2.0383z" enable-background="new" fill="#b1cefc" opacity=".75"/><path d="m89.4 102.8c-2.2577-10.809-5.2603-21.566-6.1-32.6-4.1225-2.2602-10.855-6.7072-2.8095-4.3716 2.7409 0.7838 6.5009 0.50697 8.6114 1.9469l7.298 34.025c-2.3333 0.33333-4.6667 0.66667-7 1z" enable-background="new" fill="#b1cefc" opacity=".75"/><path d="m67.9 137.6c12.256-6.0032 26.389-12.014 40.225-8.3561 5.4683 2.4789 8.7729 7.5011 7.5746-0.77789 0.0286-2.9732 0.84209-6.4073-2.9719-7.124-2.083-1.821-6.3358-2.0902-6.789-5.0769-0.64637-3.555-1.2927-7.11-1.9391-10.665-9.7 5.5333-19.4 11.067-29.1 16.6 0.65829 2.331 5.5587 5.6914 2.935 7.226-3.4117 1.958-6.8234 3.916-10.235 5.874 0.1 0.76667 0.2 1.5333 0.3 2.3z" enable-background="new" fill="#b1cefc" opacity=".75"/><path d="m79.4 107c5.8667-2.3667 11.733-4.7333 17.6-7.1 1.5667 3.3 3.1333 6.6 4.7 9.9-5.6267 1.5162-11.365 10.998-15.255 9.9406-2.7109-4.0306-4.8531-8.4152-7.0453-12.741z" fill="#f7ebd2" stroke="#a8844a" stroke-miterlimit="10" stroke-width=".2752"/><path d="m97 99.9c-2.44 1.3929-7.2753 1.4338-5.3619 5.2839 0.88753 3.2038 1.267 6.1182-2.8439 6.4738-6.7907 0.86981-5.9148 5.513-1.0049 9.449 1.6498-6.3741 14.702-7.4462 12.877-13.407-1.222-2.6-2.444-5.2-3.666-7.8z" enable-background="new" fill="#a8844a" opacity=".27"/><path d="m99.5 75.9c2.4738 4.6507 8.3203 9.9999 11.517 4.8236 1.5245 4.9088 4.0664 22.577-4.934 13.718-3.6582-3.7137-3.5536-9.4417-5.3547-14.147-0.40943-1.4648-0.81885-2.9297-1.2283-4.3945z" enable-background="new" fill="#b1cefc" opacity=".75"/><linearGradient id="c" x1="389.53" x2="438.94" y1="-450.7" y2="-450.7" gradientTransform="matrix(.968 -.2509 .2509 .968 -202.13 566.82)" gradientUnits="userSpaceOnUse"><stop stop-color="#6F4E29" offset="0"/><stop stop-color="#735129" offset=".18"/><stop stop-color="#7B5829" offset=".31"/><stop stop-color="#AF7931" offset="1"/></linearGradient><path d="m98.8 32.3c2.8566-5.8312 7.2662-11.068 8.6625-17.475 0.48262-6.6554-4.0002-16.189-10.685-8.7309-7.4599 6.2251-20.228 0.59893-25.392 8.4381-1.24 9.5932-1.2217 20.194-6.8848 28.468 1.5503 6.1143 4.0959 9.2941 9.021 4.4509 8.4263-5.0503 16.853-10.101 25.279-15.151z" fill="url(#c)"/><path d="m79.4 18.9c-0.1609-9.6488 14.952-5.3184 20.008-11.862 6.059-7.4499-6.1454 3.1659-10.193 3.0308-6.5216 2.6879-17.698-2.4778-9.8146 8.8317z" enable-background="new" fill="#d3963d" opacity=".44"/><path d="m102.4 8c0.33941 3.287 0.0307 14.851-2.0918 21.057-0.42177 4.8713-6.5892 7.5377-4.8691 0.65508 2.9928-6.7778 7.2559-13.767 6.9609-21.712z" enable-background="new" fill="#d3963d" opacity=".44"/><path d="m85 21c7.0796-4.124 12.973-10.342 16.6-17.7-0.02648 9.6351-6.7675 18.308-13.155 24.78-3.0709-0.17071-2.9727-4.892-3.4452-7.0802z" enable-background="new" fill="#d3963d" opacity=".44"/><linearGradient id="b" x1="385.53" x2="427.9" y1="-426.5" y2="-426.5" gradientTransform="matrix(.968 -.2509 .2509 .968 -202.13 566.82)" gradientUnits="userSpaceOnUse"><stop stop-color="#7B5829" offset="0"/><stop stop-color="#AF7931" offset="1"/></linearGradient><path d="m69.3 38.5c-1.4333 7.5-2.8667 15-4.3 22.5 8.3447 3.2268 14.598 12.388 23.112 13.375 8.0519-3.9336 11.159-13.503 18.086-18.965-0.80104-5.1837-3.6372-14.813-7.2508-19.778-7.05-2.7786-14.8-4.6352-22.291-4.9959-3.5481-0.14463-4.4436 3.3062-6.0789 5.7543-0.42593 0.70328-0.85186 1.4066-1.2778 2.1098z" fill="url(#b)"/><path d="m86.2 62.8c-6.8835 0.03857-8.5707 10.551-3.3047 9.3094 0.12706-3.331 1.1359-6.7272 3.3047-9.3094z" enable-background="new" fill="#d3963d" opacity=".44"/><path d="m70.6 64.4c3.3043 5.4448 8.0318-3.5127 7.9625-3.7707-3.0488 0.026921-5.859 1.6606-7.9625 3.7707z" enable-background="new" fill="#d3963d" opacity=".44"/><linearGradient id="a" x1="404.62" x2="427.9" y1="-423.82" y2="-423.82" gradientTransform="matrix(.968 -.2509 .2509 .968 -202.13 566.82)" gradientUnits="userSpaceOnUse"><stop stop-color="#7B5829" offset="0"/><stop stop-color="#AF7931" offset="1"/></linearGradient><path d="m94.3 69.6c2.9821-7.5789 16.511-12.383 10.263-20.631-2.2637-7.5884-3.9104-15.932-13.697-15.92-2.0866 5.8092 4.59 17.5 1.7144 25.64 0.19277 4.4855-5.3792 14.706-2.7947 15.059 1.8217-0.9869 3.3097-2.4835 4.5141-4.1484z" fill="url(#a)"/><path d="m99.9 38.5c8.7537 2.0995 2.6637-11.245-0.93014-5.2426 0.31005 1.7475 0.6201 3.4951 0.93014 5.2426z" fill="#f9ddaa" stroke="#a8844a" stroke-miterlimit="10" stroke-width=".344"/><path d="m102.6 34.1c-3.0644 2.8357-5.0836 1.7889 0 0z" fill="#ad761d"/><path d="m78.3 24.8c-0.998 5.9784-1.2922 12.285-2.727 18.06-4.2082 3.413 4.7741 7.1042 4.227 11.74 5.6631-3.6923 14.692 0.22932 18.088-5.6454 2.3752-2.258 2.9441-5.1467 2.7213-8.3117 1.052-5.1832-2.1202-9.8374-1.8382-15.006-2.9744-7.5105-16.502-7.8128-20.471-0.83692z" fill="#f7ebd2" stroke="#a8844a" stroke-miterlimit="10" stroke-width=".2752"/><path d="m95.5 51.8c-4.0473 1.5052-9.4835-0.97382-5.2573-4.2696 3.82-0.65623 2.9496-4.4454 1.21-6.7968-2.8315-4.6445-1.19-10.321-1.7684-15.486-2.4837-7.5648 6.8418-4.0015 8.7523 0.337-0.32474 5.3026 2.8792 10.085 1.8734 15.387 0.26569 3.2118-0.42659 6.0752-2.8721 8.3011-0.64594 0.84253-1.2919 1.6851-1.9378 2.5276z" fill="#f9ddaa"/><path d="m84.4 46.7c1.4655 2.7307 10.577-1.9072 5.4 1-1.8076 0.40968-3.7819-0.30149-5.4-1z" fill="#ad761d"/><path d="m92.6 36.6c0.63333-0.13333 1.2667-0.26666 1.9-0.4" fill="none" stroke="#ad761d" stroke-linecap="round" stroke-miterlimit="10" stroke-width=".4128"/><path d="m85.6 36.6c-1.0333-0.13333-2.0667-0.26666-3.1-0.4" fill="none" stroke="#ad761d" stroke-linecap="round" stroke-miterlimit="10" stroke-width=".4128"/><path d="m73.5 31.4c-8.9996-6.2418-7.9413 11.943-1.3734 5.9785 0.45782-1.9928 0.91563-3.9857 1.3734-5.9785z" fill="#f7ebd2" stroke="#b58d4d" stroke-miterlimit="10" stroke-width=".2752"/><path d="m68.4 35.1c4.3053-1.8944 6.2204 0.57796 0 0z" fill="#ad761d"/><path d="m89.6 18c5.2432-3.7406 9.5294-9.304 12.2-14.7-5.8704 4.2465-12.734 8.0704-20.203 7.1-2.9323-0.62448-5.3558 0.22588-4.4968 3.5862 0.23567 3.0743-1.2396 14.069-0.8 9.9138 0.82994-4.4769 0.04036-9.2573 1.1-13.6 4.3741-0.6627 9.5596 0.90528 13.9-1.2 4.0028-0.59416 14.713-10.196 8.5-2-2.7688 4.1321-6.1374 7.9616-10.2 10.9z" fill="#f9ddaa"/><path d="m101.7 3.3c-0.18096 5.6268-2.6405 10.899-5.6 15.6 3.0131-4.6796 5.2894-9.9901 5.6-15.6z" fill="#f9ddaa"/><path d="m99.5 22.8c3.3809-4.6717 2.3929-17.853 2.4781-18.384 1.1216 6.1661 0.02763 12.69-2.4781 18.384z" fill="#f9ddaa"/><path d="m93 63c4.5518 8.7553 8.7898 17.734 13.538 26.35 3.773 2.0167 1.521 4.5658-0.42293 7.0877-2.705 4.0209-5.41 8.0419-8.115 12.063-5.4872-9.6831-7.5884-20.866-10.716-31.452-0.4368-7.039-2.4251-12.122-10.542-12.008-8.1216-0.22764 2.6434-11.667-4.3556-13.355-3.2771-0.99407-8.5356-7.2014-2.0866-6.7853 5.8855 1.9804 14.917 10.832 18.236 9.55-2.0373-6.1118 5.4543-8.043 4.2308-1.6338 0.077739 3.3946 0.15548 6.7892 0.23322 10.184z" fill="#f7ebd2" stroke="#a8844a" stroke-miterlimit="10" stroke-width=".2752"/><path d="m106.2 117.7c2.0333-6.5667 4.0667-13.133 6.1-19.7 2.4102-1.5857-1.3046-5.1861-2.2292-7.3353-1.8142-4.5443-4.0789-1.7708-3.5551 1.3428-2.1657 5.0341-7.6117 16.8-11.534 12.64-0.99477 2.9472 2.345 5.2142 3.3186 7.8526 2.0723-0.99026 3.5138 3.2236 5.3115 4.2386 0.86283 0.32048 1.7257 0.64097 2.5885 0.96145z" fill="#a2c0fc" stroke="#6199f2" stroke-miterlimit="10" stroke-width=".2752"/><path d="m78.3 105.6c3.9713 4.2354 7.6496 8.6781 10.117 13.978 2.8689 2.7978 1.2725 4.9264-1.5392 6.8728-2.2092 1.1562-5.3896 5.4604-7.0432 1.7899-4.5278-4.2682-5.6499-10.657-9.4142-15.495-3.6138-3.3854 2.1005-3.0188 4.189-4.6846 1.2303-0.82022 2.4606-1.6404 3.691-2.4606z" fill="#a2c0fc" stroke="#6199f2" stroke-miterlimit="10" stroke-width=".2752"/><path d="m70.4 110.8c1.3141-2.2324 8.2852-0.35097 5.0415 0h-5.0415z" enable-background="new" fill="#b1cefc" opacity=".32"/><path d="m76.3 121.4c0.58241 3.8914 9.9826 9.3403 6.5316 3.2812-1.4628-3.2158-3.3057-3.6513-6.5316-3.2812z" enable-background="new" fill="#b1cefc" opacity=".32"/><path d="m82.1 121.4c1.9352 2.2858 3.712 5.8335 6.3844 2.2434 1.7728-1.4394-1.9229-6.3149-4.1455-3.2486-0.74631 0.33508-1.4926 0.67015-2.2389 1.0052z" enable-background="new" fill="#b1cefc" opacity=".32"/><path d="m80.5 127.4c1.0044 3.0282 4.5922 0.36085 0 0z" enable-background="new" fill="#b1cefc" opacity=".32"/><path d="m67.6 135.3c5.1626-1.8318 10.63-8.1745 14.6-5.6527 2.4688-1.6949 6.4084-4.9174 2.873-0.37619-2.5066 5.2422-9.9882 4.8502-13.196 9.7301 0.21166 4.8137-5.3027 16.438 0.18672 17.185 5.2684 0.39571 18.168-2.2223 16.836 4.3055-8.6967-0.3857-17.673 0.14469-26.1-2.2914 3.0012-7.1105 5.9542-15.086 4.8-22.9z" enable-background="new" fill="#b1cefc" opacity=".75"/><path d="m59.7 117.4c3.3356-1.9099 6.6846-4.1164 10.5-4.9" fill="none" stroke="#6199f2" stroke-miterlimit="10" stroke-width=".2752"/><path d="m67.6 135.3c4.1286-2.2449 8.4104-4.3007 12.2-7.1" fill="none" stroke="#6199f2" stroke-miterlimit="10" stroke-width=".2752"/><path d="m76.3 130.1c-4.1613 1.1972-17.75 9.5911-11.4 1.1-3.4869 4.1384-10.042 3.5149-12.016-0.28926-0.42266 12.721 14.24 5.263 20.229 1.5447 1.1268-0.69066 2.2255-1.4434 3.1871-2.3555z" enable-background="new" fill="#b1cefc" opacity=".75"/><path d="m61.1 116.6c2.2463-4.494 5.5844-18.635 5.3037-17.871-0.77124 5.1577 5.2968 14.098-1.6726 16.03l-3.6311 1.8411z" enable-background="new" fill="#b1cefc" opacity=".75"/><path d="m90 160.4c4.0383-14.76 5.2027-30.245 4.6-45.5" fill="none" stroke="#6199f2" stroke-miterlimit="10" stroke-width=".2752"/><path d="m92.4 160.4c4.0383-14.76 5.2027-30.245 4.6-45.5" fill="none" stroke="#6199f2" stroke-miterlimit="10" stroke-width=".2752"/><path d="m62.9 66c5.1709 8.2573 5.9753 18.819 2.6 27.9 1.3127 5.2507 2.6515 17.19 2.8336 18.736 0.20663-2.3439 0.38637-4.6901 0.56641-7.0361" fill="none" stroke="#6199f2" stroke-miterlimit="10" stroke-width=".2752"/><path d="m106.1 51.7c1.4449 14.097 5.4436 27.828 6.3812 41.966l0.01875 1.2344" fill="none" stroke="#6199f2" stroke-miterlimit="10" stroke-width=".2752"/><path d="m99.8 105.8c-5.4569-12.164-10.439-25.014-10.8-38.5-3.7667-0.63333-7.5333-1.2667-11.3-1.9 11.017-0.24158 8.1515 11.692 11.495 19.171 2.5712 7.5529 3.9384 15.688 8.0053 22.629 1.377 1.6259 1.719-0.55524 2.6-1.4z" enable-background="new" fill="#a8844a" opacity=".27"/><path d="m74.3 64.8c5.3889 2.585 2.8139-4.0674 3.4-7.1786-1.0072-8.3012-5.1633 0.90707-4.1609 5.4286 0.09353 0.3688-0.0335 1.7138 0.76094 1.75z" enable-background="new" fill="#a8844a" opacity=".27"/><path d="m72.7 90.9c0.82186 5.008 17.867 5.7441 6.6334 6.068-4.0324 1.4415-8.3534-1.6225-6.6334-6.068z" enable-background="new" fill="#b1cefc" opacity=".75"/><path d="m72.9 81.2c-0.63853 4.4702 9.7188 12.6 7.9615 11.924-4.1501-2.3299-14.317-5.9023-7.9615-11.924z" enable-background="new" fill="#b1cefc" opacity=".75"/></g><linearGradient id="i" x1="192.32" x2="347.58" y1="-218" y2="-218" gradientTransform="translate(-179.94 327.7)" gradientUnits="userSpaceOnUse"><stop stop-color="#1B364A" offset="0"/><stop stop-color="#16547E" offset="1"/></linearGradient><path d="m132.4 40.3c25.685 16.795 38.773 50.132 31.461 79.93-6.9859 32.543-37.632 57.922-70.928 58.615-32.694 1.8165-64.729-20.262-74.754-51.419-9.7494-27.988-1.2913-60.85 20.921-80.526" fill="none" stroke="url(#i)" stroke-miterlimit="10" stroke-width="3.7152"/><linearGradient id="h" x1="145.21" x2="177.89" y1="-204.06" y2="-204.06" gradientTransform="translate(0 367.14)" gradientUnits="userSpaceOnUse"><stop stop-color="#1B364A" offset="0"/><stop stop-color="#16547E" offset="1"/></linearGradient><path d="m147.6 152.7c9.3 6.9333 18.6 13.867 27.9 20.8" fill="none" stroke="url(#h)" stroke-linecap="round" stroke-miterlimit="10" stroke-width="4.8161"/></svg>
