<svg xmlns="http://www.w3.org/2000/svg" viewBox="0 0 60.38 45.59"><title>Asset 1</title><g data-name="Layer 1"><path fill="none" stroke="#ccd1d7" stroke-miterlimit="10" stroke-width="2" d="M6.19 12.29h51"/><path d="M41.09 23.59a1.2 1.2 0 0 1 .37-1.66l15.49-9.86-15.49-9.86a1.2 1.2 0 0 1 1.29-2l17.07 10.85a1.2 1.2 0 0 1 0 2L42.74 24a1.2 1.2 0 0 1-1.66-.37z" fill="#ccd1d7"/><path fill="none" stroke="#ccd1d7" stroke-miterlimit="10" stroke-width="2" d="M54.19 33.29h-51"/><path d="M19.29 22a1.2 1.2 0 0 1-.37 1.66L3.43 33.51l15.49 9.86a1.2 1.2 0 0 1-1.29 2L.56 34.53a1.2 1.2 0 0 1 0-2l17.07-10.9a1.2 1.2 0 0 1 1.66.37z" fill="#ccd1d7"/></g></svg>