<?xml version="1.0" encoding="utf-8"?>
<!-- Generator: Adobe Illustrator 20.1.0, SVG Export Plug-In . SVG Version: 6.00 Build 0)  -->
<svg version="1.1" id="Layer_1" xmlns="http://www.w3.org/2000/svg" xmlns:xlink="http://www.w3.org/1999/xlink" x="0px" y="0px"
	 viewBox="0 0 21 13" style="enable-background:new 0 0 21 13;" xml:space="preserve">
<style type="text/css">
	.st0{fill:none;stroke:#788296;stroke-miterlimit:10;}
	.st1{fill:#D2D8E4;}
	.st2{fill:#788296;}
</style>
<title>Asset 1</title>
<g id="Layer_2">
	<g id="Layer_1-2">
		<line class="st0" x1="1" y1="10.5" x2="10" y2="10.5"/>
		<line class="st0" x1="5.5" y1="6" x2="5.5" y2="11"/>
		<path class="st1" d="M1,0.5h8.2c0.3,0,0.5,0.2,0.5,0.5v3.2c0,0.3-0.2,0.5-0.5,0.5H1c-0.3,0-0.5-0.2-0.5-0.5V1
			C0.5,0.7,0.7,0.5,1,0.5z"/>
		<path class="st2" d="M9,1v3H1V1H9 M9.1,0h-8C0.5,0,0.1,0.4,0,1v2.8C0,4.4,0.5,4.9,1.1,5h8C9.7,5,10,4.3,10,3.8V1
			C10.1,0.5,9.7,0,9.1,0C9.1,0,9.1,0,9.1,0L9.1,0z"/>
		<path class="st1" d="M12,8.6h8c0.3,0,0.5,0.2,0.5,0.5v3.1c0,0.3-0.2,0.5-0.5,0.5h-8c-0.3,0-0.5-0.2-0.5-0.5V9
			C11.6,8.8,11.8,8.6,12,8.6z"/>
		<path class="st2" d="M20,9v3h-8V9H20 M20.1,8h-8c-0.6,0-1,0.4-1.1,1v2.8c0,0.6,0.5,1.2,1.1,1.2h8c0.5,0,0.9-0.7,0.9-1.2V9
			C21.1,8.5,20.7,8,20.1,8C20.1,8,20.1,8,20.1,8L20.1,8z"/>
	</g>
</g>
</svg>
