<svg class="nasha-warning-icon" id="warning_icon" data-name="warning" xmlns="http://www.w3.org/2000/svg" viewBox="0 0 36 32.63"><title>warning</title><path d="M18.23,24.15a1.58,1.58,0,0,0-1.75,1.78,1.55,1.55,0,0,0,1.75,1.73A1.53,1.53,0,0,0,20,25.93,1.56,1.56,0,0,0,18.23,24.15Z" fill="#fff"/><path d="M20,1.56c-1-1.76-2.62-1.77-3.63,0L.46,29.13c-1,1.75-.19,3.18,1.83,3.18H33.57c2,0,2.87-1.45,1.88-3.21Z" fill="#d9ae00"/><path d="M18.27,24.19a1.68,1.68,0,0,0-1.87,1.89,1.65,1.65,0,0,0,1.87,1.84,1.63,1.63,0,0,0,1.84-1.84A1.66,1.66,0,0,0,18.27,24.19Z" fill="#fff"/><path d="M17,21.31c.08,0,.53,1.08,1.29,1.08s1.2-1.08,1.27-1.08h0a91.31,91.31,0,0,0,.57-9.19,18.79,18.79,0,0,0-.26-3.52s0-.12,0-.14a.93.93,0,0,0-.17-.41,1.71,1.71,0,0,0-1.41-.66,1.53,1.53,0,0,0-1.49.8,14.44,14.44,0,0,0-.37,3.8,80.91,80.91,0,0,0,.56,9.3Z" fill="#fff"/></svg>
