<?xml version="1.0" encoding="UTF-8"?>
<svg width="15px" height="14px" viewBox="0 0 15 14" version="1.1" xmlns="http://www.w3.org/2000/svg" xmlns:xlink="http://www.w3.org/1999/xlink">
    <title>icon/externalink</title>
    <g id="externalink" stroke="none" stroke-width="1" fill="none" fill-rule="evenodd">
        <g transform="translate(-895.000000, -61.000000)" fill-rule="nonzero" fill="#7991A3">
            <g transform="translate(745.000000, 44.000000)">
                <g transform="translate(0.000000, 4.000000)">
                    <g id="icon/externalink" transform="translate(147.496667, 10.000000)">
                        <path d="M15.9466667,4.70710678 L9.82070821,10.8535534 C9.62609694,11.0488155 9.31056973,11.0488155 9.11595845,10.8535534 C8.92134718,10.6582912 8.92134718,10.3417088 9.11595845,10.1464466 L15.2418902,4.00002683 L11.9601107,4.0001 C11.6848888,4.00010614 11.4617724,3.77625349 11.4617663,3.50011111 C11.4617602,3.22396874 11.6848667,3.00010614 11.9600886,3.0001 L16.4449889,3 C16.7202152,2.99999386 16.9433333,3.22385329 16.9433333,3.5 L16.9433333,8.0001 C16.9433333,8.27624237 16.7202219,8.5001 16.445,8.5001 C16.1697781,8.5001 15.9466667,8.27624237 15.9466667,8.0001 L15.9466667,4.70710678 Z M3.98666667,16 L14.95,16 L14.95,12.0001 C14.95,11.7239576 15.1731114,11.5001 15.4483333,11.5001 C15.7235552,11.5001 15.9466667,11.7239576 15.9466667,12.0001 L15.9466667,16.5 C15.9466667,16.7761424 15.7235552,17 15.4483333,17 L3.48833333,17 C3.21311143,17 2.99,16.7761424 2.99,16.5 L2.99,4.5 C2.99,4.22385762 3.21311143,4 3.48833333,4 L7.973433,4 C8.2486549,4 8.47176633,4.22385762 8.47176633,4.5 C8.47176633,4.77614237 8.2486549,5 7.973433,5 L3.98666667,5 L3.98666667,16 Z" id="Combined-Shape-Copy"></path>
                    </g>
                </g>
            </g>
        </g>
    </g>
</svg>