<?xml version="1.0" encoding="UTF-8"?>
<svg width="174px" height="48px" viewBox="0 0 174 48" version="1.1" xmlns="http://www.w3.org/2000/svg" xmlns:xlink="http://www.w3.org/1999/xlink">
    <!-- Generator: Sketch 57.1 (83088) - https://sketch.com -->
    <title>Logo OVH</title>
    <desc>Created with Sketch.</desc>
    <g id="Improve" stroke="none" stroke-width="1" fill="none" fill-rule="evenodd">
        <g id="OVH_LOGPAGE_01" transform="translate(-36.000000, -43.000000)" fill="#000E9C">
            <g id="Logos/OVH/blue" transform="translate(36.000000, 43.000000)">
                <path d="M66.5277398,17.6899518 L75.1009446,2.7913012 C78.4128,8.63053012 80.3129928,15.3753976 80.3129928,22.5680241 C80.3129928,32.0126113 77.0496123,40.6934492 71.5927033,47.5507429 L71.2488,47.9769398 L49.0931855,47.9769398 L55.9151133,36.1312048 L46.895306,36.1312048 L57.5223904,17.6899518 L66.5277398,17.6899518 L75.1009446,2.7913012 Z M58.7627133,0.144607229 L31.2331229,47.9575229 L31.2442554,47.977041 L9.06420723,47.977041 C3.40064096,41.0547759 1.44578313e-05,32.2093301 1.44578313e-05,22.5678361 C1.44578313e-05,15.5841954 1.79154713,9.02253959 4.92731637,3.30221705 L5.22521928,2.76841446 L19.5964482,27.7385349 L35.4733157,0.144607229 L58.7627133,0.144607229 Z M107.04068,8.49073735 C115.658559,8.49073735 120.900101,13.5548819 120.900101,24.0829301 C120.900101,34.5223518 115.658559,39.6308819 107.04068,39.6308819 C98.4228,39.6308819 93.1809687,34.5223518 93.1809687,24.0829301 C93.1809687,13.5548819 98.4228,8.49073735 107.04068,8.49073735 Z M146.086786,8.7578747 C146.930545,8.7578747 147.597051,9.42409157 147.597051,10.2678506 C147.597051,10.5347422 147.508135,10.8012 147.46346,10.9339229 L137.069147,38.3420675 C136.84693,38.9647663 136.225099,39.3638024 135.647508,39.3638024 C135.069918,39.3638024 134.448087,38.9647663 134.226159,38.3420675 L123.831557,10.9339229 C123.787027,10.8012 123.698255,10.5347422 123.698255,10.2678506 C123.698255,9.42409157 124.364617,8.7578747 125.208376,8.7578747 C126.052713,8.7578747 126.496713,9.37970602 126.62987,9.7352241 L135.647508,33.633441 L144.665147,9.7352241 C144.798448,9.37970602 145.242304,8.7578747 146.086786,8.7578747 Z M171.983653,8.75774458 C172.827557,8.75774458 173.493918,9.46805783 173.493918,10.2678651 L173.493918,37.8536964 C173.493918,38.653359 172.827557,39.3636723 171.983653,39.3636723 C171.139749,39.3636723 170.473243,38.653359 170.473243,37.8536964 L170.473243,25.0602506 L155.014641,25.0602506 L155.014641,37.8536964 C155.014641,38.653359 154.348424,39.3636723 153.504376,39.3636723 C152.660328,39.3636723 151.993822,38.653359 151.993822,37.8536964 L151.993822,10.2678651 C151.993822,9.46805783 152.660328,8.75774458 153.504376,8.75774458 C154.348424,8.75774458 155.014641,9.46805783 155.014641,10.2678651 L155.014641,22.3058892 L170.473243,22.3058892 L170.473243,10.2678651 C170.473243,9.46805783 171.139749,8.75774458 171.983653,8.75774458 Z M107.04068,11.245388 C100.244342,11.245388 96.2907036,15.3761349 96.2907036,24.0829301 C96.2907036,32.7453398 100.244342,36.8762313 107.04068,36.8762313 C113.837161,36.8762313 117.7908,32.7453398 117.7908,24.0829301 C117.7908,15.3761349 113.837161,11.245388 107.04068,11.245388 Z" id="Logo"></path>
            </g>
        </g>
    </g>
</svg>