<?xml version="1.0" encoding="UTF-8"?>
<svg id="Layer_1" data-name="Layer 1" xmlns="http://www.w3.org/2000/svg" viewBox="0 0 32 32">
  <g id="Color">
    <path d="M24.71,27.6H7.27c-3.28-.01-6.16-2.23-7.01-5.39-.79-2.92.31-5.99,2.72-7.76-.36-1.94.39-3.93,1.96-5.16,1.49-1.16,3.51-1.43,5.24-.73,2.12-3.25,6.01-4.82,9.83-3.92,4.12.97,7.03,4.59,7.1,8.81,3.2,1.12,5.21,4.3,4.82,7.7h0c-.42,3.67-3.53,6.45-7.23,6.45ZM8.21,9.18c-.94,0-1.88.31-2.65.9-1.35,1.05-1.95,2.8-1.53,4.46.05.21-.03.42-.21.54-2.25,1.49-3.29,4.25-2.59,6.87.73,2.73,3.22,4.64,6.04,4.65h17.44c3.19,0,5.87-2.4,6.23-5.57h0c.35-3.04-1.53-5.88-4.47-6.74-.21-.06-.36-.26-.36-.48v-.28c-.03-3.79-2.64-7.05-6.33-7.93-3.53-.83-7.14.71-8.98,3.84-.13.23-.42.31-.66.19-.61-.31-1.28-.47-1.95-.47Z"/>
  </g>
  <g>
    <path d="M23.64,23.89h-15.28c-.93,0-1.69-.76-1.69-1.7v-3.88c0-.93.76-1.69,1.69-1.69h15.28c.93,0,1.69.76,1.69,1.69v3.88c0,.93-.76,1.7-1.69,1.7ZM8.36,17.62c-.38,0-.69.31-.69.69v3.88c0,.38.31.7.69.7h15.28c.38,0,.69-.31.69-.7v-3.88c0-.38-.31-.69-.69-.69h-15.28Z"/>
    <g>
      <rect x="13.36" y="19.76" width="7.99" height="1"/>
      <path d="M10.65,20.76c-.07,0-.13-.02-.19-.04-.07-.03-.12-.06-.17-.11-.09-.09-.14-.22-.14-.35,0-.07.01-.13.04-.19.02-.07.06-.12.1-.17.05-.04.1-.08.17-.1.18-.08.4-.03.54.1.05.05.08.1.11.17.02.06.04.12.04.19,0,.13-.06.26-.15.35s-.22.15-.35.15Z"/>
    </g>
  </g>
</svg>