<svg width="32" height="32" viewBox="0 0 32 32" fill="none" xmlns="http://www.w3.org/2000/svg">
<path fill-rule="evenodd" clip-rule="evenodd" d="M31.4401 21.0901C31.251 22.7421 30.4604 24.2668 29.2192 25.3734C27.978 26.48 26.373 27.091 24.7101 27.0901H7.2701C5.81879 27.0809 4.40872 26.6063 3.24725 25.7361C2.08578 24.8658 1.23421 23.6458 0.81779 22.2555C0.401369 20.8652 0.442071 19.378 0.933911 18.0125C1.42575 16.6471 2.34277 15.4755 3.5501 14.6701C3.32027 13.7752 3.35357 12.8331 3.646 11.9567C3.93842 11.0803 4.47755 10.307 5.19867 9.72944C5.91978 9.15192 6.79225 8.79477 7.71134 8.70086C8.63043 8.60696 9.55709 8.78029 10.3801 9.20006C11.3459 7.55465 12.8246 6.27139 14.5896 5.54701C16.3547 4.82263 18.3085 4.6971 20.1517 5.18968C21.995 5.68227 23.6257 6.76576 24.7941 8.27407C25.9625 9.78237 26.6039 11.6322 26.6201 13.5401V13.8201C28.1516 14.2693 29.4751 15.2452 30.357 16.5753C31.2389 17.9055 31.6225 19.5045 31.4401 21.0901Z" stroke="#0050D7" stroke-linejoin="round"/>
<path d="M16.2062 12C12.7668 12 10 14.7502 10 18.1504C10 20.8756 11.7768 23.1757 14.239 23.9883C14.5436 24.0508 14.6578 23.8508 14.6578 23.6883C14.6578 23.5507 14.6451 23.0507 14.6451 22.5507C12.9191 22.9132 12.5637 21.8131 12.5637 21.8131C12.2845 21.1006 11.8784 20.9131 11.8784 20.9131C11.3199 20.538 11.9164 20.538 11.9164 20.538C12.5383 20.5756 12.8683 21.1756 12.8683 21.1756C13.4267 22.1132 14.3152 21.8506 14.6705 21.6881C14.7213 21.2881 14.8863 21.0131 15.064 20.8631C13.6933 20.7256 12.2464 20.188 12.2464 17.8254C12.2464 17.1503 12.4876 16.6003 12.881 16.1753C12.8175 16.0253 12.6018 15.3877 12.9445 14.5502C12.9445 14.5502 13.4648 14.3877 14.6451 15.1877C15.1401 15.0502 15.6732 14.9877 16.1935 14.9877C16.7139 14.9877 17.2469 15.0627 17.7419 15.1877C18.9222 14.3877 19.4426 14.5502 19.4426 14.5502C19.7853 15.4002 19.5695 16.0253 19.506 16.1753C19.9122 16.6003 20.1406 17.1503 20.1406 17.8254C20.1406 20.188 18.6938 20.7131 17.3104 20.8631C17.5388 21.0506 17.7292 21.4256 17.7292 22.0006C17.7292 22.8257 17.7165 23.4882 17.7165 23.6883C17.7165 23.8508 17.8307 24.0508 18.1353 23.9883C20.6102 23.1757 22.3871 20.8756 22.3871 18.1504C22.3997 14.7502 19.6203 12 16.2062 12Z" fill="#0050D7"/>
</svg>
