<svg width="16" height="16" viewBox="0 0 16 16" fill="none" xmlns="http://www.w3.org/2000/svg">
<path fill-rule="evenodd" clip-rule="evenodd" d="M8 16L8.00126 16L8.00397 16C12.4204 15.9979 16 12.417 16 8C16 4.01337 13.0839 0.707825 9.26843 0.099999C8.85674 0.0344149 8.43457 0.000240401 8.00448 3.15976e-06L8 0H7.99888L7.99568 2.95516e-06C4.61479 0.00179277 1.72439 2.10081 0.554907 5.0666C0.435521 5.36936 0.33407 5.68116 0.251862 6.00067C0.23542 6.06458 0.219748 6.12879 0.204856 6.1933C0.07083 6.7739 0 7.37868 0 8C0 12.4168 3.57931 15.9976 7.99552 16L8 16ZM1.64952 8.8C1.87985 10.6471 2.8973 12.2498 4.35562 13.2617C3.72397 12.0361 3.32053 10.4864 3.22301 8.8H1.64952ZM3.22301 7.2H1.64952C1.75091 6.38691 2.00482 5.62118 2.38173 4.93236C2.86104 4.05638 3.53925 3.30477 4.35562 2.73826C3.72398 3.96393 3.32053 5.51359 3.22301 7.2ZM4.826 8.8C4.92739 10.3482 5.3181 11.7076 5.8709 12.7027C6.2839 13.446 6.74546 13.923 7.2 14.1763L7.2 8.8H4.826ZM8.8 8.8L8.8 14.1763C9.25454 13.923 9.7161 13.446 10.1291 12.7027C10.6819 11.7076 11.0726 10.3482 11.174 8.8H8.8ZM11.174 7.2H8.8L8.8 1.82374C9.25455 2.07705 9.71611 2.55395 10.1291 3.29735C10.6819 4.29238 11.0726 5.65181 11.174 7.2ZM12.777 8.8C12.6795 10.4864 12.276 12.0361 11.6444 13.2617C13.1027 12.2498 14.1202 10.6471 14.3505 8.8H12.777ZM14.3505 7.2H12.777C12.6795 5.51359 12.276 3.96393 11.6444 2.73827C13.1027 3.75024 14.1202 5.35289 14.3505 7.2ZM7.2 7.2H4.826C4.92739 5.65181 5.3181 4.29238 5.8709 3.29734C6.2839 2.55395 6.74546 2.07705 7.2 1.82374L7.2 7.2Z" />
</svg>
