<?xml version="1.0" encoding="UTF-8"?>
<svg viewBox="0 0 20 20" fill="none" xmlns="http://www.w3.org/2000/svg">
<path fill-rule="evenodd" clip-rule="evenodd" d="M16.3198 14.9056C17.3729 13.551 18 11.8487 18 10C18 8.15129 17.3729 6.44904 16.3198 5.09435L14.1716 7.24261C14.6951 8.03304 15 8.98092 15 10C15 11.0191 14.6951 11.967 14.1716 12.7574L16.3198 14.9056ZM14.9056 16.3199L12.7573 14.1716C11.9669 14.6951 11.019 15 9.99996 15C8.98087 15 8.033 14.6951 7.24257 14.1716L5.09431 16.3199C6.44899 17.3729 8.15124 18 9.99995 18C11.8487 18 13.5509 17.3729 14.9056 16.3199ZM3.6801 14.9056L5.82835 12.7574C5.30483 11.967 4.99995 11.0191 4.99995 10C4.99995 8.98092 5.30483 8.03304 5.82835 7.24261L3.6801 5.09435C2.62704 6.44904 1.99995 8.15129 1.99995 10C1.99996 11.8487 2.62704 13.551 3.6801 14.9056ZM5.09431 3.68014L7.24257 5.8284C8.033 5.30488 8.98087 5 9.99995 5C11.019 5 11.9669 5.30488 12.7573 5.8284L14.9056 3.68014C13.5509 2.62708 11.8487 2 9.99995 2C8.15124 2 6.449 2.62708 5.09431 3.68014ZM20 10C20 15.5228 15.5228 20 9.99995 20C4.47711 20 -4.51554e-05 15.5228 -4.53643e-05 10C-4.55731e-05 4.47715 4.47711 -8.09587e-07 9.99995 -2.02992e-06C15.5228 -1.90155e-06 20 4.47715 20 10ZM9.99995 13C11.6568 13 13 11.6569 13 10C13 8.34314 11.6568 7 9.99995 7C8.3431 7 6.99995 8.34314 6.99995 10C6.99995 11.6569 8.3431 13 9.99995 13Z" />
</svg>
