<svg width="33" height="24" viewBox="0 0 33 24" fill="none" xmlns="http://www.w3.org/2000/svg">
<path fill-rule="evenodd" clip-rule="evenodd" d="M1.85617 1.00003C1.63289 0.998316 1.41789 1.08454 1.25766 1.24006C1.09861 1.39443 1.00619 1.60479 1 1.82623V6.52008H31.02V1.8262C31.0138 1.60477 30.9214 1.39443 30.7623 1.24006C30.6021 1.08454 30.3871 0.998316 30.1638 1.00003L30.16 1.00004H1.86H1.85617L1.85617 1.00003ZM1 21.878V7.52008H31.02V21.818C31.0179 22.0444 30.9266 22.2609 30.7659 22.4204C30.6048 22.5803 30.387 22.67 30.16 22.67L27.57 22.67L27.5688 22.67L1.85999 22.73H1.85967C1.63279 22.73 1.41513 22.6402 1.2541 22.4804C1.09338 22.3209 1.00209 22.1044 1 21.878ZM1.86177 3.96251e-05C1.37653 -0.00313429 0.909433 0.184474 0.561188 0.522476C0.21245 0.860957 0.0109087 1.32307 0.000123143 1.80894L0 1.80894V1.82004V21.88L1.35303e-05 21.8837C0.0036234 22.3746 0.201179 22.8442 0.549607 23.1901C0.898034 23.536 1.36907 23.7301 1.86001 23.73L1.86117 23.73L27.57 23.67L27.5712 23.67L30.16 23.67C30.6509 23.6701 31.122 23.476 31.4704 23.1301C31.8188 22.7842 32.0164 22.3146 32.02 21.8237L32.02 21.82V1.82004H32.0201L32.0199 1.80894C32.0091 1.32307 31.8076 0.860957 31.4588 0.522476C31.1106 0.184474 30.6435 -0.00313429 30.1582 3.96251e-05H1.86177ZM10.01 14.9705C10.01 11.5702 12.7768 8.82007 16.2162 8.82007C19.6303 8.82007 22.4098 11.5702 22.3971 14.9705C22.3971 17.6956 20.6202 19.9958 18.1454 20.8083C17.8408 20.8708 17.7265 20.6708 17.7265 20.5083C17.7265 20.4423 17.7279 20.326 17.7298 20.1701C17.7335 19.8534 17.7392 19.3736 17.7392 18.8207C17.7392 18.2457 17.5489 17.8707 17.3204 17.6831C18.7038 17.5331 20.1506 17.0081 20.1506 14.6454C20.1506 13.9704 19.9222 13.4204 19.5161 12.9953C19.5795 12.8453 19.7953 12.2203 19.4526 11.3702C19.4526 11.3702 18.9322 11.2077 17.7519 12.0078C17.2569 11.8828 16.7239 11.8078 16.2035 11.8078C15.6832 11.8078 15.1501 11.8703 14.6552 12.0078C13.4748 11.2077 12.9545 11.3702 12.9545 11.3702C12.6118 12.2078 12.8276 12.8453 12.891 12.9953C12.4976 13.4204 12.2564 13.9704 12.2564 14.6454C12.2564 17.0081 13.7033 17.5456 15.074 17.6831C14.8963 17.8331 14.7313 18.1082 14.6805 18.5082C14.3252 18.6707 13.4368 18.9332 12.8783 17.9957C12.8783 17.9957 12.5483 17.3956 11.9264 17.3581C11.9264 17.3581 11.3299 17.3581 11.8884 17.7331C11.8884 17.7331 12.2945 17.9207 12.5737 18.6332C12.5737 18.6332 12.9291 19.7333 14.6552 19.3707C14.6552 19.6988 14.6606 20.0268 14.6644 20.2525C14.6663 20.3708 14.6678 20.461 14.6678 20.5083C14.6678 20.6708 14.5536 20.8708 14.249 20.8083C11.7868 19.9958 10.01 17.6956 10.01 14.9705Z" fill="#0050D7"/>
</svg>
