<svg width="16" height="16" viewBox="0 0 16 16" fill="none" xmlns="http://www.w3.org/2000/svg">
<path fill-rule="evenodd" clip-rule="evenodd" d="M6.56525 0.304345C6.86992 0.169766 7.18872 0.0791549 7.51326 0.0338389C7.67443 0.0113337 7.83702 -6.50545e-08 8 -3.14458e-10C8.12256 4.83699e-08 8.24534 0.00640939 8.3679 0.0192971C8.98161 0.0838314 9.57093 0.308815 10.0837 0.674318C10.5964 1.03982 11.0167 1.53456 11.3074 2.11472C11.598 2.69488 11.7501 3.34254 11.75 4.00034V6.40034H12.5C12.8978 6.40034 13.2794 6.56892 13.5607 6.86897C13.842 7.16903 14 7.576 14 8.00035V14.4003C14 15.222 13.3575 16.0003 12.5 16.0003H3.5C2.65178 16.0003 2 15.228 2 14.4003V8.00035C2 7.576 2.15804 7.16903 2.43934 6.86897C2.72064 6.56892 3.10218 6.40034 3.5 6.40034H4.25V4.00034C4.24994 3.2091 4.46987 2.43561 4.88199 1.77771C5.29411 1.11982 5.8799 0.607075 6.56525 0.304345ZM3.5 8.00035V14.4003H12.5V8.00035H3.5ZM8 1.60034C7.40326 1.60034 6.83097 1.8532 6.40901 2.30329C5.98705 2.75338 5.75 3.36383 5.75 4.00034V6.40034H10.25V4.00034C10.25 3.36383 10.0129 2.75338 9.59099 2.30329C9.16903 1.8532 8.59674 1.60034 8 1.60034ZM8 9.60034C8.19891 9.60034 8.38968 9.68463 8.53033 9.83466C8.67098 9.98469 8.75 10.1882 8.75 10.4003V12.0003C8.75 12.2125 8.67098 12.416 8.53033 12.566C8.38968 12.7161 8.19891 12.8003 8 12.8003C7.80109 12.8003 7.61032 12.7161 7.46967 12.566C7.32902 12.416 7.25 12.2125 7.25 12.0003V10.4003C7.25 10.1882 7.32902 9.98469 7.46967 9.83466C7.61032 9.68463 7.80109 9.60034 8 9.60034Z" />
</svg>
