<svg width="16" height="16" viewBox="0 0 16 16" fill="none" xmlns="http://www.w3.org/2000/svg">
<path fill-rule="evenodd" clip-rule="evenodd" d="M0 2C0 0.895431 0.89543 0 2 0H14.0034C15.108 0 16.0034 0.89543 16.0034 2V9.62735C16.0034 10.7319 15.108 11.6273 14.0034 11.6273H10.7521V14.0034H11.5024C12.0547 14.0034 12.5024 14.4511 12.5024 15.0034C12.5024 15.5557 12.0547 16.0034 11.5024 16.0034H9.75487C9.75394 16.0034 9.75301 16.0034 9.75208 16.0034H6.25122C6.25029 16.0034 6.24936 16.0034 6.24843 16.0034H4.50073C3.94845 16.0034 3.50073 15.5557 3.50073 15.0034C3.50073 14.4511 3.94845 14.0034 4.50073 14.0034H5.25122V11.6273H2C0.895431 11.6273 0 10.7319 0 9.62735V2ZM9.7552 9.62735C9.75416 9.62735 9.75312 9.62735 9.75208 9.62735H6.25122C6.25018 9.62735 6.24914 9.62735 6.2481 9.62735H2V2H14.0034V9.62735H9.7552ZM7.25122 11.6273V14.0034H8.75208V11.6273H7.25122Z" />
</svg>
