<svg width="16" height="16" viewBox="0 0 16 16" fill="none" xmlns="http://www.w3.org/2000/svg">
<path d="M6.46624 1.6C6.46624 2.48366 7.16548 3.2 8.02803 3.2C8.89058 3.2 9.58981 2.48366 9.58981 1.6C9.58981 0.716345 8.89058 0 8.02803 0C7.16548 0 6.46624 0.716344 6.46624 1.6Z" />
<path d="M2.61785 6.4C3.4804 6.4 4.17963 5.68366 4.17963 4.8C4.17963 3.91634 3.4804 3.2 2.61785 3.2C1.7553 3.2 1.05606 3.91634 1.05606 4.8C1.05606 5.68366 1.7553 6.4 2.61785 6.4Z" />
<path d="M6.46625 8C6.46625 7.11634 7.16548 6.4 8.02803 6.4C8.89058 6.4 9.58982 7.11634 9.58982 8C9.58982 8.88366 8.89058 9.6 8.02803 9.6C7.16548 9.6 6.46625 8.88366 6.46625 8Z" />
<path d="M15 11.2C15 12.0837 14.3008 12.8 13.4382 12.8C12.5757 12.8 11.8764 12.0837 11.8764 11.2C11.8764 10.3163 12.5757 9.6 13.4382 9.6C14.3008 9.6 15 10.3163 15 11.2Z" />
<path d="M2.56178 12.8C3.42433 12.8 4.12357 12.0837 4.12357 11.2C4.12357 10.3163 3.42433 9.6 2.56178 9.6C1.69923 9.6 1 10.3163 1 11.2C1 12.0837 1.69923 12.8 2.56178 12.8Z" />
<path d="M13.4382 3.2C14.3008 3.2 15 3.91634 15 4.8C15 5.68366 14.3008 6.4 13.4382 6.4C12.5757 6.4 11.8764 5.68366 11.8764 4.8C11.8764 3.91634 12.5757 3.2 13.4382 3.2Z" />
<path d="M8.02804 16C7.16549 16 6.46625 15.2837 6.46625 14.4C6.46625 13.5163 7.16549 12.8 8.02804 12.8C8.89059 12.8 9.58982 13.5163 9.58982 14.4C9.58982 15.2837 8.89059 16 8.02804 16Z" />
<path d="M6.24622 9.04309C6.4602 9.4267 6.3301 9.91539 5.95565 10.1346L5.40903 10.4546C5.03457 10.6738 4.55756 10.5405 4.34359 10.1569C4.12962 9.7733 4.25971 9.28461 4.63416 9.06541L5.18079 8.74541C5.55524 8.5262 6.03225 8.65948 6.24622 9.04309Z" />
<path d="M5.18079 7.25459C5.55524 7.4738 6.03225 7.34053 6.24622 6.95691C6.4602 6.5733 6.3301 6.08461 5.95565 5.86541L5.40903 5.54541C5.03457 5.3262 4.55756 5.45948 4.34359 5.84309C4.12962 6.2267 4.25971 6.71539 4.63416 6.93459L5.18079 7.25459Z" />
<path d="M11.7125 10.1569C11.4985 10.5405 11.0215 10.6738 10.647 10.4546L10.1004 10.1346C9.72596 9.91539 9.59587 9.4267 9.80984 9.04309C10.0238 8.65948 10.5008 8.5262 10.8753 8.74541L11.4219 9.06541C11.7963 9.28461 11.9264 9.7733 11.7125 10.1569Z" />
<path d="M7.24714 11.52C7.24714 11.9618 7.59676 12.32 8.02803 12.32C8.45931 12.32 8.80892 11.9618 8.80892 11.52V10.88C8.80892 10.4382 8.45931 10.08 8.02803 10.08C7.59676 10.08 7.24714 10.4382 7.24714 10.88V11.52Z" />
<path d="M8.0281 5.92006C7.59683 5.92004 7.24722 5.56186 7.24724 5.12003L7.24726 4.48004C7.24727 4.03821 7.5969 3.68005 8.02818 3.68007C8.45945 3.68008 8.80906 4.03827 8.80904 4.4801L8.80902 5.12008C8.80901 5.56191 8.45938 5.92007 8.0281 5.92006Z" />
<path d="M10.1004 5.86541C9.72596 6.08461 9.59587 6.5733 9.80984 6.95691C10.0238 7.34053 10.5008 7.4738 10.8753 7.25459L11.4219 6.93459C11.7963 6.71539 11.9264 6.2267 11.7125 5.84309C11.4985 5.45948 11.0215 5.3262 10.647 5.54541L10.1004 5.86541Z" />
</svg>
