<svg width="16" height="16" viewBox="0 0 16 16" fill="none" xmlns="http://www.w3.org/2000/svg">
<path fill-rule="evenodd" clip-rule="evenodd" d="M3.12653 1.74949L1.98886 2.8782C1.98251 2.8845 1.97605 2.8907 1.96949 2.89679L1.96868 2.89753L1.93833 2.9607C1.92641 2.98551 1.91322 3.00968 1.89881 3.03313C1.49979 3.68223 1.46395 4.8099 2.02406 6.29953C2.56982 7.75099 3.62624 9.38021 5.10444 10.869C6.22269 11.9781 7.42765 12.8675 8.58015 13.476C9.74276 14.0897 10.8043 14.3928 11.6459 14.3928C11.6842 14.3928 11.7218 14.3955 11.7587 14.4007C12.2064 14.3965 12.6377 14.2796 13.0053 14.0723L13.0155 14.0666C13.0313 14.058 13.0445 14.0499 13.0627 14.0368C13.0807 14.0238 13.1071 14.0032 13.1479 13.9682L14.2938 12.8157C14.356 12.7412 14.3992 12.6316 14.3992 12.4898V12.452C14.3724 12.2732 14.2913 12.1026 14.1562 11.9625L12.1447 9.94495C11.9936 9.78978 11.7947 9.69942 11.6165 9.68316H11.5418C11.4289 9.68316 11.3183 9.72274 11.2217 9.81442L9.92271 11.1121C9.64838 11.3862 9.21681 11.4242 8.89867 11.2024C8.09334 10.6409 7.33664 10.0112 6.65374 9.32902L6.64683 9.32213C5.96942 8.62867 5.34149 7.87601 4.78778 7.08816C4.56435 6.77026 4.60193 6.33794 4.87686 6.06328L6.19805 4.7434C6.39897 4.4787 6.35558 4.10836 6.11382 3.90085C6.09811 3.88737 6.08293 3.87328 6.06831 3.85862L4.07674 1.86099C3.93788 1.71842 3.74508 1.61778 3.47946 1.5995C3.37707 1.60285 3.26517 1.63554 3.12653 1.74949ZM11.5223 15.9905C10.3632 15.963 9.08608 15.5518 7.83222 14.8899C6.52421 14.1993 5.19269 13.2104 3.97437 12.0016L3.97022 11.9975C2.36001 10.3764 1.16408 8.56017 0.525512 6.86188C0.197675 5.98999 8.18309e-05 5.09988 0 4.26608C-7.25099e-05 3.52724 0.154934 2.83262 0.511819 2.23406L0.591232 2.06878C0.634642 1.97843 0.694666 1.89704 0.768177 1.82885L0.870388 1.73403L2.02143 0.592065C2.03487 0.578723 2.04879 0.565863 2.06315 0.553508C2.48353 0.191875 2.96951 0 3.49787 0C3.51143 0 3.52498 0.000344009 3.53852 0.00103165C4.20401 0.0348366 4.7873 0.299095 5.22052 0.742071L7.183 2.71051C8.05286 3.48072 8.1769 4.80128 7.46066 5.72653L7.4525 5.73689L7.42049 5.77687C7.40204 5.79991 7.38233 5.8219 7.36145 5.84276L6.4945 6.70886C6.89386 7.22906 7.32859 7.72997 7.78914 8.20169C8.24839 8.66017 8.74694 9.09434 9.27521 9.49738L10.0954 8.67798L10.1048 8.66878C10.5036 8.28324 11.0159 8.08396 11.5418 8.08396H11.6459C11.6622 8.08396 11.6785 8.08446 11.6948 8.08545C12.2944 8.12213 12.8692 8.39732 13.2885 8.82607L15.3015 10.8451C15.6998 11.2547 15.9363 11.773 15.9953 12.3154C15.9984 12.3441 16 12.3729 16 12.4018V12.4898C16 12.9807 15.8395 13.491 15.4744 13.8962C15.4656 13.906 15.4566 13.9155 15.4473 13.9248L14.2627 15.1162C14.2496 15.1294 14.236 15.1422 14.2219 15.1545C14.0666 15.2903 13.9395 15.3842 13.7875 15.4676C13.1704 15.8145 12.4601 16 11.7339 16H11.6459C11.6038 16 11.5626 15.9968 11.5223 15.9905Z" />
</svg>
