<?xml version="1.0" encoding="UTF-8"?>
<svg id="Layer_1" data-name="Layer 1" xmlns="http://www.w3.org/2000/svg" viewBox="0 0 32 32">
  <g id="Color">
    <path d="M24.71,27.6H7.27c-3.27-.01-6.16-2.23-7.01-5.39-.78-2.92.31-5.99,2.72-7.76-.36-1.94.39-3.93,1.96-5.16,1.49-1.16,3.51-1.43,5.24-.73,2.12-3.25,6.01-4.83,9.83-3.92,4.12.97,7.03,4.59,7.1,8.81,3.2,1.12,5.21,4.3,4.82,7.7-.42,3.67-3.53,6.45-7.23,6.45ZM8.21,9.18c-.94,0-1.88.31-2.65.9-1.35,1.05-1.95,2.8-1.53,4.46.05.21-.03.42-.21.54-2.25,1.49-3.29,4.25-2.59,6.87.73,2.73,3.22,4.64,6.04,4.65h17.44c3.19,0,5.87-2.4,6.23-5.57h0c.35-3.04-1.53-5.88-4.47-6.74-.21-.06-.36-.26-.36-.48v-.28c-.03-3.79-2.64-7.05-6.33-7.93-3.54-.84-7.14.71-8.98,3.84-.13.23-.42.31-.66.19-.61-.31-1.28-.47-1.95-.47Z"/>
  </g>
  <g>
    <path d="M16,25.05c-3.96,0-7.19-3.23-7.19-7.19s3.23-7.19,7.19-7.19,7.19,3.23,7.19,7.19-3.23,7.19-7.19,7.19ZM16,11.67c-3.41,0-6.19,2.78-6.19,6.19s2.78,6.19,6.19,6.19,6.19-2.78,6.19-6.19-2.78-6.19-6.19-6.19Z"/>
    <path d="M16,25.05c-1.99,0-3.06-3.7-3.06-7.19s1.07-7.19,3.06-7.19,3.06,3.7,3.06,7.19-1.07,7.19-3.06,7.19ZM16,11.67c-.86,0-2.06,2.35-2.06,6.19s1.2,6.19,2.06,6.19,2.06-2.35,2.06-6.19-1.2-6.19-2.06-6.19Z"/>
    <g>
      <rect x="9.31" y="19.48" width="13.38" height="1"/>
      <rect x="9.31" y="15.23" width="13.38" height="1"/>
    </g>
  </g>
</svg>