<?xml version="1.0" encoding="UTF-8"?>
<svg id="Layer_1" data-name="Layer 1" xmlns="http://www.w3.org/2000/svg" viewBox="0 0 32 32">
  <g id="Color">
    <path d="M16,31.93c-.1,0-.2-.03-.29-.09C7.2,26.39,2.12,17.41,2.12,7.81c.02-.48.06-.96.13-1.43.02-.15.11-.28.23-.37.12-.08.28-.11.42-.08.55.12,1.12.21,1.69.25h1.84s.64-.07.64-.07c3.66-.5,6.8-2.65,8.38-5.76.09-.18.28-.3.48-.3h.11c.2,0,.39.11.48.3,1.59,3.12,4.74,5.28,8.42,5.76l.64.07h1.84c.56-.04,1.14-.13,1.69-.26.15-.03.31,0,.43.08.12.09.21.23.23.38.06.46.09.94.09,1.41,0,9.6-5.08,18.58-13.59,24.03-.09.06-.19.09-.29.09ZM3.25,7.12c-.02.24-.04.48-.05.72,0,9.1,4.78,17.64,12.8,22.91,8.02-5.27,12.79-13.81,12.8-22.93,0-.23-.01-.46-.03-.69-.42.07-.83.13-1.25.16h-1.61s-.38,0-.38,0l-.71-.08c-3.74-.5-6.97-2.56-8.83-5.59-1.85,3.01-5.07,5.07-8.79,5.58l-.71.08h-.99s-.95,0-.95,0c-.45-.03-.88-.09-1.3-.16Z"/>
  </g>
  <path d="M22.02,20.36h-1c0-2-1.17-2.93-3.92-3.11-.23-.01-.46-.22-.51-.45-.04-.23.1-.5.31-.6.87-.4,1.37-1.31,1.24-2.27-.12-.86-.91-1.67-1.76-1.82-.65-.11-1.28.06-1.77.48-.49.41-.77,1.01-.77,1.65,0,.84.49,1.61,1.26,1.96.21.1.35.37.31.6s-.28.43-.51.45c-2.74.17-3.91,1.1-3.91,3.11h-1c0-2.91,2.14-3.72,3.69-3.98-.52-.57-.83-1.33-.83-2.13,0-.93.41-1.81,1.12-2.42.71-.6,1.65-.86,2.59-.7,1.29.22,2.4,1.37,2.58,2.67.13.96-.17,1.9-.79,2.58,1.54.26,3.68,1.08,3.68,3.98Z"/>
  <path d="M16,23.56c-4.17,0-7.56-3.39-7.56-7.56s3.39-7.56,7.56-7.56,7.56,3.39,7.56,7.56-3.39,7.56-7.56,7.56ZM16,9.44c-3.62,0-6.56,2.94-6.56,6.56s2.94,6.56,6.56,6.56,6.56-2.94,6.56-6.56-2.94-6.56-6.56-6.56Z"/>
</svg>