<svg width="16" height="16" viewBox="0 0 16 16" fill="none" xmlns="http://www.w3.org/2000/svg">
<path fill-rule="evenodd" clip-rule="evenodd" d="M1.77778 0C0.795938 0 0 0.795938 0 1.77778V8V14.2222C0 15.2041 0.795938 16 1.77778 16H14.2222C15.2041 16 16 15.2041 16 14.2222V8V1.77778C16 0.795938 15.2041 0 14.2222 0H1.77778ZM14.2222 8.88889H1.77778V14.2222H14.2222V8.88889ZM14.2222 7.11111V1.77778H1.77778V7.11111H14.2222ZM4.44444 11.5556C4.44444 12.0465 4.04648 12.4444 3.55556 12.4444C3.06464 12.4444 2.66667 12.0465 2.66667 11.5556C2.66667 11.0646 3.06464 10.6667 3.55556 10.6667C4.04648 10.6667 4.44444 11.0646 4.44444 11.5556ZM3.55556 5.33333C4.04648 5.33333 4.44444 4.93536 4.44444 4.44444C4.44444 3.95352 4.04648 3.55556 3.55556 3.55556C3.06464 3.55556 2.66667 3.95352 2.66667 4.44444C2.66667 4.93536 3.06464 5.33333 3.55556 5.33333ZM7.11111 11.5556C7.11111 12.0465 6.71314 12.4444 6.22222 12.4444C5.7313 12.4444 5.33333 12.0465 5.33333 11.5556C5.33333 11.0646 5.7313 10.6667 6.22222 10.6667C6.71314 10.6667 7.11111 11.0646 7.11111 11.5556ZM6.22222 5.33333C6.71314 5.33333 7.11111 4.93536 7.11111 4.44444C7.11111 3.95352 6.71314 3.55556 6.22222 3.55556C5.7313 3.55556 5.33333 3.95352 5.33333 4.44444C5.33333 4.93536 5.7313 5.33333 6.22222 5.33333Z" />
</svg>
