<svg width="16" height="16" viewBox="0 0 16 16" fill="none" xmlns="http://www.w3.org/2000/svg">
<g clip-path="url(#clip0_26_20407)">
<path fill-rule="evenodd" clip-rule="evenodd" d="M8 0C8.10159 0 8.20213 0.0220158 8.2955 0.0647117L13.5455 2.46471C13.6805 2.52644 13.7955 2.62909 13.8763 2.75993C13.9571 2.89077 14.0001 3.04404 14 3.20071V7.20071C14 10.2951 12.5435 12.4927 11.135 13.8871C10.5434 14.4707 9.89609 14.9865 9.20375 15.4263C8.9405 15.5927 8.7185 15.7183 8.561 15.8023C8.48166 15.8454 8.40113 15.886 8.3195 15.9239L8.30375 15.9319L8.2985 15.9351H8.297L8.2955 15.9359C8.1065 16.0223 7.89275 16.0223 7.70375 15.9359L7.7015 15.9343L7.6955 15.9327L7.6805 15.9247L7.6265 15.8983C7.34302 15.7545 7.06597 15.5968 6.79625 15.4255C6.10394 14.986 5.45666 14.4704 4.865 13.8871C3.45725 12.4927 2 10.2951 2 7.20071V3.20071C1.99987 3.04404 2.04287 2.89077 2.12367 2.75993C2.20447 2.62909 2.3195 2.52644 2.4545 2.46471L7.7045 0.0647117C7.79788 0.0220158 7.89841 0 8 0ZM8 14.3111C8.14772 14.2287 8.29327 14.142 8.4365 14.0511C9.03812 13.6694 9.60068 13.2208 10.115 12.7143C11.3323 11.5087 12.5 9.70631 12.5 7.20071V3.72791L8 1.67111L3.5 3.72871V7.20071C3.5 9.70631 4.66775 11.5087 5.885 12.7143C6.52238 13.3418 7.23329 13.8785 8 14.3111ZM11.7407 5.60378C11.7424 5.81354 11.6668 6.01562 11.5302 6.1665L7.78019 10.1665C7.63954 10.3165 7.44881 10.4007 7.24994 10.4007C7.05107 10.4007 6.86034 10.3165 6.71969 10.1665L5.21969 8.5665C5.08307 8.41562 5.00748 8.21354 5.00918 8.00378C5.01089 7.79402 5.08977 7.59337 5.22883 7.44504C5.36788 7.29672 5.55599 7.21258 5.75264 7.21076C5.94929 7.20894 6.13874 7.28957 6.28019 7.4353L7.24994 8.4697L10.4697 5.0353C10.6111 4.88957 10.8006 4.80894 10.9972 4.81076C11.1939 4.81258 11.382 4.89672 11.5211 5.04504C11.6601 5.19337 11.739 5.39402 11.7407 5.60378Z" />
</g>
<defs>
<clipPath id="clip0_26_20407">
<rect width="16" height="16.0007" fill="white"/>
</clipPath>
</defs>
</svg>
