<svg width="16" height="16" viewBox="0 0 16 16" fill="none" xmlns="http://www.w3.org/2000/svg">
<g clip-path="url(#clip0_26_20524)">
<path fill-rule="evenodd" clip-rule="evenodd" d="M0 0.8C0 0.587827 0.0848435 0.384344 0.235866 0.234315C0.386888 0.0842858 0.591718 3.29155e-07 0.805296 3.29155e-07H1.77487C2.13921 -0.000231747 2.49287 0.122264 2.77809 0.347483C3.0633 0.572702 3.26322 0.887335 3.3452 1.24L3.79939 3.2L5.32784 9.78C5.3688 9.9562 5.46864 10.1134 5.61108 10.226C5.75352 10.3386 5.93017 10.3999 6.1122 10.4H12.4652C12.6411 10.3999 12.8121 10.3426 12.9522 10.2369C13.0922 10.1311 13.1935 9.98275 13.2407 9.8144L14.36 5.8144C14.3933 5.69552 14.3985 5.57061 14.3751 5.44942C14.3517 5.32823 14.3004 5.21406 14.2253 5.11583C14.1501 5.0176 14.0531 4.93798 13.9418 4.88319C13.8305 4.8284 13.7079 4.79993 13.5837 4.8C13.351 4.8 12.8847 4.64 12.8847 4C12.8847 3.36 13.3518 3.2 13.5845 3.2C13.9569 3.20007 14.3243 3.28566 14.6579 3.45009C14.9915 3.61452 15.2823 3.85334 15.5076 4.14789C15.7329 4.44244 15.8867 4.78476 15.9568 5.14809C15.9701 5.21703 15.9803 5.28638 15.9875 5.35593C15.9958 5.43711 16 5.51858 16 5.6C16 5.67157 15.9968 5.74311 15.9903 5.8144C15.9773 5.95868 15.9511 6.10194 15.9118 6.2424L14.7933 10.2424C14.652 10.7477 14.3479 11.1932 13.9276 11.5106C13.5073 11.828 12.9939 11.9999 12.466 12H6.1122C5.56596 12 5.03585 11.8161 4.60836 11.4783C4.18086 11.1405 3.88122 10.6687 3.75832 10.14L1.77487 1.6H0.805296C0.591718 1.6 0.386888 1.51571 0.235866 1.36569C0.0848435 1.21566 0 1.01217 0 0.8ZM4.02648 14.4C4.02648 13.9757 4.19617 13.5687 4.49821 13.2686C4.80026 12.9686 5.20992 12.8 5.63707 12.8C6.06423 12.8 6.47389 12.9686 6.77593 13.2686C7.07798 13.5687 7.24767 13.9757 7.24767 14.4C7.24767 14.8243 7.07798 15.2313 6.77593 15.5314C6.47389 15.8314 6.06423 16 5.63707 16C5.20992 16 4.80026 15.8314 4.49821 15.5314C4.19617 15.2313 4.02648 14.8243 4.02648 14.4ZM11.2741 14.4C11.2741 13.9757 11.4438 13.5687 11.7459 13.2686C12.0479 12.9686 12.4576 12.8 12.8847 12.8C13.3119 12.8 13.7216 12.9686 14.0236 13.2686C14.3256 13.5687 14.4953 13.9757 14.4953 14.4C14.4953 14.8243 14.3256 15.2313 14.0236 15.5314C13.7216 15.8314 13.3119 16 12.8847 16C12.4576 16 12.0479 15.8314 11.7459 15.5314C11.4438 15.2313 11.2741 14.8243 11.2741 14.4ZM9.66356 3.2C9.66356 2.98783 9.57871 2.78434 9.42769 2.63432C9.27667 2.48429 9.07184 2.4 8.85826 2.4C8.64468 2.4 8.43985 2.48429 8.28883 2.63432C8.13781 2.78434 8.05296 2.98783 8.05296 3.2V4.8H6.44237C6.22879 4.8 6.02396 4.88429 5.87294 5.03432C5.72192 5.18434 5.63707 5.38783 5.63707 5.6C5.63707 5.81217 5.72192 6.01566 5.87294 6.16569C6.02396 6.31571 6.22879 6.4 6.44237 6.4H8.05296V8C8.05296 8.21217 8.13781 8.41566 8.28883 8.56569C8.43985 8.71571 8.64468 8.8 8.85826 8.8C9.07184 8.8 9.27667 8.71571 9.42769 8.56569C9.57871 8.41566 9.66356 8.21217 9.66356 8V6.4H11.2741C11.4877 6.4 11.6926 6.31571 11.8436 6.16569C11.9946 6.01566 12.0794 5.81217 12.0794 5.6C12.0794 5.38783 11.9946 5.18434 11.8436 5.03432C11.6926 4.88429 11.4877 4.8 11.2741 4.8H9.66356V3.2Z" />
</g>
<defs>
<clipPath id="clip0_26_20524">
<rect width="16" height="16" fill="white"/>
</clipPath>
</defs>
</svg>
