<svg width="16" height="16" viewBox="0 0 16 16" fill="none" xmlns="http://www.w3.org/2000/svg">
<g clip-path="url(#clip0_26_20530)">
<path fill-rule="evenodd" clip-rule="evenodd" d="M7.82166 0.014248C7.88086 0.0057625 7.94045 0.00102516 8.00006 0C8.0629 -0.00108089 8.12577 0.00196492 8.18822 0.00909519C8.30666 0.0226179 8.4236 0.0508315 8.53606 0.093448L8.54406 0.096648L8.55206 0.099848C8.73667 0.174075 8.9044 0.284826 9.04517 0.425458C9.18593 0.566089 9.29685 0.733704 9.37126 0.918248L10.9473 4.81905L14.6625 4.95185L14.7105 4.95985C14.9889 5.00406 15.2498 5.12432 15.4643 5.30737C15.6788 5.49041 15.8386 5.72913 15.9261 5.99721C15.9691 6.12914 15.9938 6.26566 16 6.40299C16.0031 6.47058 16.0016 6.53837 15.9957 6.60591C15.9892 6.67998 15.9773 6.75375 15.96 6.82663C15.8947 7.10095 15.7549 7.35191 15.5561 7.55185L12.8553 10.6374L13.4857 14.1734C13.5492 14.4563 13.5294 14.7515 13.4285 15.0232C13.3275 15.295 13.1499 15.5316 12.9172 15.7044C12.6844 15.8772 12.4065 15.9787 12.1172 15.9966C12.0552 16.0005 11.9933 16.0004 11.9318 15.9966C11.8514 15.9916 11.7716 15.9802 11.6932 15.9624C11.5517 15.9303 11.4149 15.8776 11.2873 15.8054L11.2793 15.8006L8.00006 13.843L4.72006 15.8022L4.70886 15.8086C4.5798 15.8804 4.44156 15.9323 4.29874 15.9632C4.2272 15.9788 4.15451 15.989 4.08126 15.9939C4.01491 15.9984 3.94809 15.9984 3.88125 15.9939C3.59329 15.9747 3.31703 15.8726 3.08571 15.7C2.85439 15.5274 2.67786 15.2917 2.57737 15.0212C2.47688 14.7506 2.4567 14.4568 2.51926 14.175L3.14486 10.6382L0.444856 7.55105C0.246326 7.3511 0.106785 7.10027 0.0415822 6.82614C0.0263637 6.76216 0.0153325 6.69749 0.00847211 6.63253C0.00281754 6.57899 -3.45222e-06 6.52525 0 6.47154C1.03044e-05 6.31122 0.0251847 6.15115 0.0752805 5.9973C0.162522 5.72937 0.321964 5.4907 0.536071 5.30752C0.750179 5.12435 1.01066 5.00377 1.28886 4.95905L1.33846 4.95105L5.05286 4.81905L6.63366 0.907848C6.72572 0.688123 6.86991 0.494122 7.05376 0.342611C7.23761 0.1911 7.45559 0.0866365 7.68886 0.038248C7.7325 0.0271166 7.77688 0.0190965 7.82166 0.014248ZM8.00006 1.79665L9.85206 6.38065L14.3145 6.54065L11.1441 10.1622L11.8817 14.2982L8.00006 11.979L4.12246 14.2942L4.85366 10.1606L1.68566 6.53905L6.14646 6.37985L8.00006 1.79665Z" />
</g>
<defs>
<clipPath id="clip0_26_20530">
<rect width="16" height="16" fill="white"/>
</clipPath>
</defs>
</svg>
