<svg viewBox="0 0 16 16" xmlns="http://www.w3.org/2000/svg">
<g>
<path fill-rule="evenodd" clip-rule="evenodd" d="M2.66679 9.95502e-09C2.52048 -2.18838e-05 2.37644 0.0360693 2.24743 0.105071C2.11842 0.174073 2.00843 0.273852 1.92723 0.395556L0.149456 3.06222C0.0492298 3.21196 -0.00287214 3.38873 0.00012219 3.56889C0.00634441 5.36978 1.25346 7.11111 3.11123 7.11111C4.05968 7.11111 4.84812 6.65778 5.39479 5.97422C5.72717 6.33315 6.13021 6.61945 6.57857 6.8151C7.02694 7.01075 7.51093 7.11153 8.00012 7.11111C8.48947 7.11171 8.97365 7.01101 9.42218 6.81535C9.87072 6.61969 10.2739 6.33331 10.6063 5.97422C11.1521 6.65778 11.9415 7.11111 12.889 7.11111C14.7468 7.11111 15.9939 5.36889 16.0001 3.56889C16.0031 3.38873 15.951 3.21196 15.8508 3.06222L14.073 0.395556C13.9918 0.273852 13.8818 0.174073 13.7528 0.105071C13.6238 0.0360693 13.4798 -2.18838e-05 13.3335 9.95502e-09H2.66679ZM9.7779 3.55556V3.55733C9.77766 4.02883 9.59014 4.48092 9.25657 4.81415C8.92301 5.14738 8.47073 5.33446 7.99923 5.33422C7.76577 5.33411 7.53462 5.28801 7.31897 5.19856C7.10333 5.10911 6.90741 4.97806 6.74241 4.81289C6.40918 4.47933 6.22211 4.02705 6.22234 3.55556H4.44457C4.44457 4.696 3.70323 5.33333 3.11123 5.33333C2.56457 5.33333 1.8899 4.78933 1.79034 3.80622L3.14234 1.77778H12.8579L14.2099 3.80622C14.1112 4.78933 13.4366 5.33333 12.889 5.33333C12.2979 5.33333 11.5557 4.69689 11.5557 3.55733V3.55556H9.7779ZM3.55568 8.88889C3.55568 8.65314 3.46203 8.42705 3.29533 8.26035C3.12863 8.09365 2.90254 8 2.66679 8C2.43104 8 2.20495 8.09365 2.03825 8.26035C1.87155 8.42705 1.7779 8.65314 1.7779 8.88889V15.1111C1.7779 15.3469 1.87155 15.573 2.03825 15.7397C2.20495 15.9064 2.43104 16 2.66679 16H13.3335C13.5692 16 13.7953 15.9064 13.962 15.7397C14.1287 15.573 14.2223 15.3469 14.2223 15.1111V8.88889C14.2223 8.65314 14.1287 8.42705 13.962 8.26035C13.7953 8.09365 13.5692 8 13.3335 8C13.0977 8 12.8716 8.09365 12.7049 8.26035C12.5382 8.42705 12.4446 8.65314 12.4446 8.88889V14.2222H10.6668V10.6667C10.6668 10.4309 10.5731 10.2048 10.4064 10.0381C10.2397 9.87143 10.0136 9.77778 9.7779 9.77778H6.22234C5.9866 9.77778 5.7605 9.87143 5.59381 10.0381C5.42711 10.2048 5.33346 10.4309 5.33346 10.6667V14.2222H3.55568V8.88889Z"/>
</g>
</svg>
