<svg width="24" height="24" viewBox="0 0 24 24" fill="none" xmlns="http://www.w3.org/2000/svg">
<path fill-rule="evenodd" clip-rule="evenodd" d="M17.5492 3.54917C17.1975 3.19754 16.7206 3 16.2233 3H7.77665C7.27937 3 6.80246 3.19754 6.45082 3.54917L3.54918 6.45082C3.19754 6.80245 3 7.27937 3 7.77665V19.125C3 20.1605 3.83947 21 4.875 21H19.125C20.1605 21 21 20.1605 21 19.125V7.77665C21 7.27937 20.8025 6.80246 20.4508 6.45083L17.5492 3.54917ZM7.82843 5L5.82842 7L11 7V5H7.82843ZM13 5V7L18.1716 7L16.1716 5L13 5ZM5 19L5 9L19 9V19H5Z" fill="white"/>
</svg>
