<?xml version="1.0" encoding="UTF-8"?>
<svg id="Layer_1" data-name="Layer 1" xmlns="http://www.w3.org/2000/svg" viewBox="0 0 32 32">
  <path d="M29.25,31.91s-.09,0-.13,0h0c-7.78,0-15.11-3.03-20.61-8.53C3.07,17.94-.04,10.43-.03,2.76c-.04-.71.24-1.42.75-1.94C1.24.32,1.96.05,2.67.09h5.71c.74-.04,1.46.25,1.96.79.51.52.78,1.26.7,1.96.02,1.78.28,3.62.78,5.42.45.87.21,2.05-.61,2.7l-3.09,3.07c2.25,4.03,5.55,7.33,9.56,9.57l3.19-3.18c.77-.57,1.66-.74,2.55-.54,1.85.62,3.75.92,5.7.92.68-.03,1.37.23,1.88.72.02.02.05.04.07.06.52.53.78,1.27.71,1.98v5.69c.04.7-.23,1.41-.74,1.92-.47.47-1.14.75-1.8.75ZM2.53,1.09c-.41,0-.81.17-1.09.45-.32.32-.48.76-.46,1.21,0,7.43,2.99,14.68,8.24,19.93,5.31,5.31,12.39,8.24,19.94,8.24.45.01.88-.15,1.19-.45.31-.31.47-.74.45-1.18v-5.77c.04-.44-.1-.86-.38-1.17-.02-.02-.04-.03-.06-.05-.32-.33-.75-.49-1.2-.48h0c-2.08,0-4.08-.32-5.98-.96-.56-.12-1.16,0-1.64.34l-3.4,3.4c-.16.16-.4.19-.59.09-4.44-2.4-8.06-6.02-10.47-10.48-.11-.2-.07-.44.09-.59l3.4-3.37c.49-.4.62-1.06.34-1.6-.56-1.97-.83-3.9-.85-5.83.05-.46-.12-.9-.43-1.22-.31-.33-.75-.49-1.21-.48H2.64s-.07,0-.11,0Z"/>
  <path d="M17.15,14.4c-1.54-1.46-2.42-3.5-2.42-5.6s.92-4.24,2.53-5.7l.67.74c-1.38,1.26-2.21,3.12-2.21,4.97s.75,3.59,2.11,4.88l-.69.73Z"/>
  <path d="M27.75,14.4l-.69-.73c1.38-1.3,2.11-2.99,2.11-4.88s-.8-3.69-2.21-4.97l.67-.74c1.61,1.47,2.53,3.55,2.53,5.7s-.86,4.12-2.42,5.6Z"/>
  <path d="M25.66,12.04l-.7-.71c.7-.69,1.09-1.6,1.09-2.57s-.39-1.89-1.09-2.57l.7-.72c.9.87,1.39,2.04,1.39,3.29s-.49,2.41-1.39,3.29Z"/>
  <path d="M19.25,12.04c-.9-.87-1.39-2.04-1.39-3.29s.49-2.41,1.39-3.29l.7.71c-.7.69-1.09,1.6-1.09,2.57s.39,1.89,1.09,2.57l-.7.72Z"/>
  <path d="M22.54,10c-.69,0-1.25-.56-1.25-1.25s.56-1.25,1.25-1.25,1.25.56,1.25,1.25-.56,1.25-1.25,1.25ZM22.54,8.5c-.14,0-.25.11-.25.25,0,.28.5.28.5,0,0-.14-.11-.25-.25-.25Z"/>
</svg>