<svg xmlns="http://www.w3.org/2000/svg" xmlns:xlink="http://www.w3.org/1999/xlink" width="22" height="25" viewBox="0 0 22 25">
    <defs>
        <path id="a" d="M0 .029h14.27v23.447H0z"/>
    </defs>
    <g fill="none" fill-rule="evenodd">
        <g transform="translate(0 .314)">
            <mask id="b" fill="#fff">
                <use xlink:href="#a"/>
            </mask>
            <path fill="#29A9E0" d="M9.757.029c1.373 1.62 2.864 2.949 4.371 4.26.07.061.167.115.136.23-.023.09-.105.07-.169.063-1.375-.18-2.568.268-3.607 1.124-1.98 1.628-2.45 4.327-1.177 6.566.113.198.23.319-.139.39-5.017.975-7.206 6.48-4.25 10.666.022.033.04.07.06.103-.043.073-.09.042-.133.012-3.334-2.28-5.072-5.419-4.826-9.477C.226 10.61 1.88 8.102 4.9 6.542a95.89 95.89 0 0 0 2.25-1.188C8.528 4.596 9.506 3.532 9.73 1.91c.08-.584.059-1.172.028-1.881" mask="url(#b)"/>
        </g>
        <path fill="#29A9E0" d="M14.436 24.951c3.027-2.427 3.593-6.856.802-9.967.072-.116.203-.115.311-.156 2.293-.88 3.615-3.105 3.29-5.547-.009-.067-.054-.134.03-.17.088-.037.156.016.212.083.255.304.52.601.763.915.969 1.246 1.735 2.595 1.994 4.178.35 2.144-.2 4.105-1.304 5.923-1.333 2.193-3.234 3.724-5.611 4.672-.088.035-.18.066-.273.086-.05.01-.106-.007-.214-.017M14.22 19.613c-.001 2.176-1.75 3.933-3.906 3.925a3.94 3.94 0 0 1-3.916-3.928 3.937 3.937 0 0 1 3.92-3.924c2.16-.003 3.902 1.751 3.902 3.927M13.757 12.978a2.987 2.987 0 0 1-3-2.996 3.025 3.025 0 0 1 2.979-2.996c1.648-.015 3.009 1.337 3.012 2.995a2.963 2.963 0 0 1-2.99 2.997"/>
    </g>
</svg>
