<svg height="135" viewBox="0 0 275 135" width="275" xmlns="http://www.w3.org/2000/svg"><g fill="none" fill-rule="evenodd"><path d="m192.1 86.9h-105.9c-9.3 0-16.8-7.5-16.8-16.8s7.5-16.8 16.8-16.8h105.8c9.3 0 16.8 7.5 16.8 16.8.1 9.3-7.4 16.8-16.7 16.8z" stroke="#122844" stroke-width="2"/><path d="m90.2 75.9c-.6 0-1.2-.1-1.7-.4s-.9-.6-1.3-1.1-.6-1.1-.8-1.9c-.2-.7-.3-1.6-.3-2.6s.1-1.8.3-2.6c.2-.7.5-1.3.8-1.8s.8-.9 1.3-1.1 1.1-.4 1.7-.4 1.2.1 1.7.4c.5.2.9.6 1.3 1.1s.6 1.1.8 1.8.3 1.6.3 2.6-.1 1.8-.3 2.6c-.2.7-.5 1.4-.8 1.9-.4.5-.8.9-1.3 1.1-.5.3-1.1.4-1.7.4zm0-2c.2 0 .4-.1.6-.2s.4-.3.5-.6.3-.7.3-1.2c.1-.5.1-1.1.1-1.9s0-1.4-.1-1.9-.2-.9-.3-1.2-.3-.5-.5-.6-.4-.2-.6-.2-.4.1-.6.2-.4.3-.5.6-.3.7-.3 1.2-.1 1.1-.1 1.9 0 1.4.1 1.9.2.9.3 1.2.3.5.5.6.4.2.6.2zm6 1.8v-2.1h2.5v-6.6h-2.1v-1.6c.6-.1 1.2-.3 1.6-.4.4-.2.9-.4 1.3-.6h1.9v9.3h2.1v2.1h-7.3zm16.6.2c-.6 0-1.2-.1-1.7-.4s-.9-.6-1.3-1.1-.6-1.1-.8-1.9c-.2-.7-.3-1.6-.3-2.6s.1-1.8.3-2.6c.2-.7.5-1.3.8-1.8s.8-.9 1.3-1.1 1.1-.4 1.7-.4 1.2.1 1.7.4c.5.2.9.6 1.3 1.1s.6 1.1.8 1.8.3 1.6.3 2.6-.1 1.8-.3 2.6c-.2.7-.5 1.4-.8 1.9-.4.5-.8.9-1.3 1.1-.5.3-1.1.4-1.7.4zm0-2c.2 0 .4-.1.6-.2s.4-.3.5-.6.3-.7.3-1.2c.1-.5.1-1.1.1-1.9s0-1.4-.1-1.9-.2-.9-.3-1.2-.3-.5-.5-.6-.4-.2-.6-.2-.4.1-.6.2-.4.3-.5.6-.3.7-.3 1.2-.1 1.1-.1 1.9 0 1.4.1 1.9.2.9.3 1.2.3.5.5.6.4.2.6.2zm9.5 2c-.6 0-1.2-.1-1.7-.4s-.9-.6-1.3-1.1-.6-1.1-.8-1.9c-.2-.7-.3-1.6-.3-2.6s.1-1.8.3-2.6c.2-.7.5-1.3.8-1.8s.8-.9 1.3-1.1 1.1-.4 1.7-.4 1.2.1 1.7.4c.5.2.9.6 1.3 1.1s.6 1.1.8 1.8.3 1.6.3 2.6-.1 1.8-.3 2.6c-.2.7-.5 1.4-.8 1.9-.4.5-.8.9-1.3 1.1-.5.3-1.1.4-1.7.4zm0-2c.2 0 .4-.1.6-.2s.4-.3.5-.6.3-.7.3-1.2c.1-.5.1-1.1.1-1.9s0-1.4-.1-1.9-.2-.9-.3-1.2-.3-.5-.5-.6-.4-.2-.6-.2-.4.1-.6.2-.4.3-.5.6-.3.7-.3 1.2-.1 1.1-.1 1.9 0 1.4.1 1.9.2.9.3 1.2.3.5.5.6.4.2.6.2zm13.1 2c-.6 0-1.2-.1-1.7-.4s-.9-.6-1.3-1.1-.6-1.1-.8-1.9c-.2-.7-.3-1.6-.3-2.6s.1-1.8.3-2.6c.2-.7.5-1.3.8-1.8s.8-.9 1.3-1.1 1.1-.4 1.7-.4 1.2.1 1.7.4c.5.2.9.6 1.3 1.1s.6 1.1.8 1.8.3 1.6.3 2.6-.1 1.8-.3 2.6c-.2.7-.5 1.4-.8 1.9-.4.5-.8.9-1.3 1.1-.5.3-1.1.4-1.7.4zm0-2c.2 0 .4-.1.6-.2s.4-.3.5-.6.3-.7.3-1.2c.1-.5.1-1.1.1-1.9s0-1.4-.1-1.9-.2-.9-.3-1.2-.3-.5-.5-.6-.4-.2-.6-.2-.4.1-.6.2-.4.3-.5.6-.3.7-.3 1.2-.1 1.1-.1 1.9 0 1.4.1 1.9.2.9.3 1.2.3.5.5.6.4.2.6.2zm9.5 2c-.6 0-1.2-.1-1.7-.4s-.9-.6-1.3-1.1-.6-1.1-.8-1.9c-.2-.7-.3-1.6-.3-2.6s.1-1.8.3-2.6c.2-.7.5-1.3.8-1.8.4-.5.8-.9 1.3-1.1s1.1-.4 1.7-.4 1.2.1 1.7.4c.5.2.9.6 1.3 1.1s.6 1.1.8 1.8.3 1.6.3 2.6-.1 1.8-.3 2.6-.5 1.4-.8 1.9c-.4.5-.8.9-1.3 1.1-.5.3-1.1.4-1.7.4zm0-2c.2 0 .4-.1.6-.2s.4-.3.5-.6.3-.7.3-1.2c.1-.5.1-1.1.1-1.9s0-1.4-.1-1.9-.2-.9-.3-1.2-.3-.5-.5-.6-.4-.2-.6-.2-.4.1-.6.2-.4.3-.5.6-.3.7-.3 1.2-.1 1.1-.1 1.9 0 1.4.1 1.9.2.9.3 1.2.3.5.5.6.4.2.6.2zm13.1 2c-.6 0-1.2-.1-1.7-.4s-.9-.6-1.3-1.1-.6-1.1-.8-1.9-.3-1.6-.3-2.6.1-1.8.3-2.6c.2-.7.5-1.3.8-1.8.4-.5.8-.9 1.3-1.1s1.1-.4 1.7-.4 1.2.1 1.7.4c.5.2.9.6 1.3 1.1s.6 1.1.8 1.8.3 1.6.3 2.6-.1 1.8-.3 2.6c-.2.7-.5 1.4-.8 1.9-.4.5-.8.9-1.3 1.1s-1.1.4-1.7.4zm0-2c.2 0 .4-.1.6-.2s.4-.3.5-.6.3-.7.3-1.2.1-1.1.1-1.9 0-1.4-.1-1.9-.2-.9-.3-1.2-.3-.5-.5-.6-.4-.2-.6-.2-.4.1-.6.2-.4.3-.5.6-.3.7-.3 1.2-.1 1.1-.1 1.9 0 1.4.1 1.9.2.9.3 1.2.3.5.5.6.4.2.6.2zm9.5 2c-.6 0-1.2-.1-1.7-.4s-.9-.6-1.3-1.1-.6-1.1-.8-1.9-.3-1.6-.3-2.6.1-1.8.3-2.6c.2-.7.5-1.3.8-1.8.4-.5.8-.9 1.3-1.1s1.1-.4 1.7-.4 1.2.1 1.7.4c.5.2.9.6 1.3 1.1s.6 1.1.8 1.8.3 1.6.3 2.6-.1 1.8-.3 2.6c-.2.7-.5 1.4-.8 1.9-.4.5-.8.9-1.3 1.1s-1.1.4-1.7.4zm0-2c.2 0 .4-.1.6-.2s.4-.3.5-.6.3-.7.3-1.2.1-1.1.1-1.9 0-1.4-.1-1.9-.2-.9-.3-1.2-.3-.5-.5-.6-.4-.2-.6-.2-.4.1-.6.2-.4.3-.5.6-.3.7-.3 1.2-.1 1.1-.1 1.9 0 1.4.1 1.9.2.9.3 1.2.3.5.5.6.4.2.6.2zm13.1 2c-.6 0-1.2-.1-1.7-.4s-.9-.6-1.3-1.1-.6-1.1-.8-1.9c-.2-.7-.3-1.6-.3-2.6s.1-1.8.3-2.6c.2-.7.5-1.3.8-1.8.4-.5.8-.9 1.3-1.1s1.1-.4 1.7-.4 1.2.1 1.7.4c.5.2.9.6 1.3 1.1s.6 1.1.8 1.8.3 1.6.3 2.6-.1 1.8-.3 2.6-.5 1.4-.8 1.9c-.4.5-.8.9-1.3 1.1-.5.3-1.1.4-1.7.4zm0-2c.2 0 .4-.1.6-.2s.4-.3.5-.6.3-.7.3-1.2c.1-.5.1-1.1.1-1.9s0-1.4-.1-1.9-.2-.9-.3-1.2-.3-.5-.5-.6-.4-.2-.6-.2-.4.1-.6.2-.4.3-.5.6-.3.7-.3 1.2-.2 1.1-.2 1.9 0 1.4.1 1.9.2.9.3 1.2.3.5.5.6c.3.1.5.2.7.2zm9.5 2c-.6 0-1.2-.1-1.7-.4s-.9-.6-1.3-1.1-.6-1.1-.8-1.9c-.2-.7-.3-1.6-.3-2.6s.1-1.8.3-2.6c.2-.7.5-1.3.8-1.8.4-.5.8-.9 1.3-1.1s1.1-.4 1.7-.4 1.2.1 1.7.4c.5.2.9.6 1.3 1.1s.6 1.1.8 1.8.3 1.6.3 2.6-.1 1.8-.3 2.6-.5 1.4-.8 1.9c-.4.5-.8.9-1.3 1.1-.5.3-1.1.4-1.7.4zm0-2c.2 0 .4-.1.6-.2s.4-.3.5-.6.3-.7.3-1.2c.1-.5.1-1.1.1-1.9s0-1.4-.1-1.9-.2-.9-.3-1.2-.3-.5-.5-.6-.4-.2-.6-.2-.4.1-.6.2-.4.3-.5.6-.3.7-.3 1.2-.1 1.1-.1 1.9 0 1.4.1 1.9.2.9.3 1.2.3.5.5.6.4.2.6.2z" fill="#162843" fill-rule="nonzero"/><g stroke-linecap="round" stroke-linejoin="round" stroke-width="2"><g><path d="m43.2 66.1h19.6" stroke="#122844"/><path d="m58.3 60.3 5.9 5.9-5.9 5.9" stroke="#162843"/></g><g><path d="m140.7 36v11.8" stroke="#122844"/><path d="m146.5 43.3-5.9 5.9-5.9-5.9" stroke="#162843"/></g><g><path d="m69.2 37.5 10.6 10.6" stroke="#122844"/><path d="m80.7 40.8v8.4h-8.3" stroke="#162843"/></g><g><path d="m217.2 37.6-10.6 10.5" stroke="#122844"/><path d="m205.7 40.8v8.4h8.3" stroke="#162843"/></g><g><path d="m140.5 104.2v-11.8" stroke="#122844"/><path d="m134.7 96.9 5.9-5.9 5.9 5.9" stroke="#162843"/></g><g><path d="m217.2 102.7-10.7-10.7" stroke="#122844"/><path d="m205.6 99.3v-8.3h8.4" stroke="#162843"/></g><g><path d="m69.2 102.6 10.6-10.6" stroke="#122844"/><path d="m80.7 99.3v-8.3h-8.4" stroke="#162843"/></g><g><path d="m235.2 66.3h-18.7" stroke="#122844"/><path d="m221.1 72.1-5.9-5.9 5.9-5.9" stroke="#162843"/></g><path d="m2.2 62h11.3" stroke="#162843"/></g><path d="m12.7 46c.6 0 1 .4 1 1v19c0 .6-.4 1-1 1h-9.7c-.6 0-1-.4-1-1v-19c0-.6.4-1 1-1zm0-2h-9.7c-1.7 0-3 1.3-3 3v19c0 1.7 1.3 3 3 3h9.7c1.7 0 3-1.3 3-3v-19c0-1.7-1.4-3-3-3z" fill="#162843" fill-rule="nonzero"/><path d="m7 65h1.7" stroke="#162843" stroke-linecap="round" stroke-linejoin="round" stroke-width="2"/><g stroke="#162843" stroke-linecap="round" stroke-linejoin="round" stroke-width="2" transform="translate(16 45)"><circle cx="10.8" cy="6.7" r="5.9"/><path d="m21 26c0-5.5-4.7-10-10.2-10s-10.2 4.5-10.2 10v4.8h20.4z"/></g><path d="m116.2 18h11.3" stroke="#162843" stroke-linecap="round" stroke-linejoin="round" stroke-width="2"/><path d="m126.7 2c.6 0 1 .4 1 1v19c0 .6-.4 1-1 1h-9.7c-.6 0-1-.4-1-1v-19c0-.6.4-1 1-1zm0-2h-9.7c-1.7 0-3 1.3-3 3v19c0 1.7 1.3 3 3 3h9.7c1.7 0 3-1.3 3-3v-19c0-1.7-1.3-3-3-3z" fill="#162843" fill-rule="nonzero"/><path d="m121 21h1.7" stroke="#162843" stroke-linecap="round" stroke-linejoin="round" stroke-width="2"/><g stroke="#162843" stroke-linecap="round" stroke-linejoin="round" stroke-width="2" transform="translate(130 1)"><circle cx="10.8" cy="6.7" r="5.9"/><path d="m21.1 26c0-5.5-4.7-10-10.2-10s-10.2 4.5-10.2 10v4.8h20.5v-4.8z"/></g><path d="m194.2 18h11.3" stroke="#162843" stroke-linecap="round" stroke-linejoin="round" stroke-width="2"/><path d="m204.7 2c.6 0 1 .4 1 1v19c0 .6-.4 1-1 1h-9.7c-.6 0-1-.4-1-1v-19c0-.6.4-1 1-1zm0-2h-9.7c-1.7 0-3 1.3-3 3v19c0 1.7 1.3 3 3 3h9.7c1.7 0 3-1.3 3-3v-19c0-1.7-1.4-3-3-3z" fill="#162843" fill-rule="nonzero"/><path d="m199 21h1.7" stroke="#162843" stroke-linecap="round" stroke-linejoin="round" stroke-width="2"/><g stroke="#162843" stroke-linecap="round" stroke-linejoin="round" stroke-width="2" transform="translate(208 1)"><circle cx="10.8" cy="6.7" r="5.9"/><path d="m21 26c0-5.5-4.7-10-10.2-10s-10.2 4.5-10.2 10v4.8h20.4z"/></g><path d="m33.2 120h11.3" stroke="#162843" stroke-linecap="round" stroke-linejoin="round" stroke-width="2"/><path d="m43.7 104c.6 0 1 .4 1 1v19c0 .6-.4 1-1 1h-9.7c-.6 0-1-.4-1-1v-19c0-.6.4-1 1-1zm0-2h-9.7c-1.7 0-3 1.3-3 3v19c0 1.7 1.3 3 3 3h9.7c1.7 0 3-1.3 3-3v-19c0-1.7-1.4-3-3-3z" fill="#162843" fill-rule="nonzero"/><path d="m38 123h1.7" stroke="#162843" stroke-linecap="round" stroke-linejoin="round" stroke-width="2"/><g stroke="#162843" stroke-linecap="round" stroke-linejoin="round" stroke-width="2" transform="translate(47 103)"><circle cx="10.8" cy="6.7" r="5.9"/><path d="m21 26c0-5.5-4.7-10-10.2-10s-10.2 4.5-10.2 10v4.8h20.4z"/></g><g stroke="#162843" stroke-linecap="round" stroke-linejoin="round" stroke-width="2" transform="translate(57 1)"><circle cx="10.8" cy="6.7" r="5.9"/><path d="m21 26c0-5.5-4.7-10-10.2-10s-10.2 4.5-10.2 10v4.8h20.4z"/></g><g fill-rule="nonzero"><path d="m61 25.9c-.3 0-.5-.1-.8-.2-8.6-3.5-12.7-13.4-9.2-22 0 0 0-.1.1-.1.3-.6.9-1 1.6-1 .3 0 .5.1.8.2l3 1.2s.1 0 .1.1c.9.4 1.3 1.5.9 2.4-.3.9-.6 1.8-.7 2.8 0 .8-.5 1.4-1.2 1.7l-2 .8c.4 2.4 1.3 4.6 2.7 6.4l2.1-.9h.1c.2 0 .3-.1.5-.1.4 0 .9.1 1.2.4.9.7 1.8 1.3 2.7 1.7 0 0 .1 0 .2.1.4.2.8.6.9 1s.1.9-.1 1.4l-1.3 3.1c-.2.6-.9 1-1.6 1z" fill="#fff"/><path d="m52.8 3.5c.1 0 .3 0 .4.1l3 1.2h.1c.4.2.6.7.4 1.2-.4 1-.7 2.1-.8 3.2 0 .4-.2.7-.5.8l-2.7 1.1c.3 3 1.5 5.9 3.4 8.1l2.7-1.1h.3c.2 0 .5.1.7.2.9.8 1.9 1.4 2.9 1.8h.1c.4.2.6.7.4 1.2l-1.2 3v.1c-.2.3-.5.5-.8.5-.1 0-.3 0-.4-.1-8.1-3.3-12-12.6-8.7-20.8v-.1c0-.2.3-.4.7-.4zm0-1.9c-1 0-2 .6-2.5 1.5 0 .1-.1.2-.1.2-1.8 4.4-1.8 9.2.1 13.6 1.8 4.4 5.3 7.8 9.6 9.6.4.2.7.2 1.1.2 1 0 2-.6 2.5-1.5 0-.1.1-.2.1-.2l1.2-3c.3-.6.3-1.4.1-2-.2-.7-.7-1.2-1.4-1.6-.1 0-.2-.1-.2-.1-.9-.4-1.7-.9-2.4-1.5l-.1-.1c-.5-.4-1.1-.6-1.7-.6-.2 0-.5 0-.7.1-.1 0-.2.1-.3.1l-1.4.6c-.9-1.4-1.6-3-1.9-4.7l1.3-.5c1-.4 1.7-1.4 1.7-2.4.1-.9.3-1.7.7-2.6.3-.6.3-1.3.1-2s-.7-1.2-1.4-1.6c-.1 0-.2-.1-.2-.1l-3-1.2c-.5-.1-.8-.2-1.2-.2z" fill="#162843"/></g><g stroke="#162843" stroke-linecap="round" stroke-linejoin="round" stroke-width="2" transform="translate(253 49)"><circle cx="10.8" cy="6.7" r="5.9"/><path d="m21 26c0-5.5-4.7-10-10.2-10s-10.2 4.5-10.2 10v4.8h20.4z"/></g><g fill-rule="nonzero"><path d="m257 73.9c-.3 0-.5-.1-.8-.2-4.1-1.7-7.4-4.9-9.1-9.1s-1.8-8.7 0-12.9c0 0 0-.1.1-.1.3-.6.9-1 1.6-1 .3 0 .5.1.8.2l3 1.2s.1 0 .1.1c.4.2.8.6.9 1 .2.5.1.9-.1 1.4-.3.9-.6 1.8-.7 2.8 0 .8-.5 1.4-1.2 1.7l-2 .8c.4 2.4 1.3 4.6 2.7 6.4l2.1-.9h.1c.2 0 .3-.1.5-.1.4 0 .8.1 1.2.4.9.7 1.8 1.3 2.7 1.7 0 0 .1 0 .2.1.4.2.8.6.9 1 .2.5.1.9-.1 1.4 0 0-1.2 3.1-1.3 3.1-.2.6-.9 1-1.6 1z" fill="#fff"/><path d="m248.8 51.5c.1 0 .3 0 .4.1l3 1.2h.1c.4.2.6.7.4 1.2-.4 1-.7 2.1-.8 3.2 0 .4-.2.7-.5.8l-2.7 1.1c.3 3 1.5 5.9 3.4 8.1l2.7-1.1h.3c.2 0 .5.1.7.2.9.8 1.9 1.4 2.9 1.8h.1c.4.2.6.7.4 1.2l-1.2 3v.1c-.2.3-.5.5-.8.5-.1 0-.3 0-.4-.1-8.1-3.3-12-12.6-8.7-20.8v-.1c0-.2.3-.4.7-.4zm0-1.9c-1 0-2 .6-2.5 1.5 0 .1-.1.2-.1.2-3.7 9.1.7 19.4 9.7 23.1.4.2.7.2 1.1.2 1 0 2-.6 2.5-1.5 0-.1.1-.2.1-.2l1.2-3c.6-1.3 0-2.9-1.3-3.6-.1 0-.2-.1-.2-.1-.9-.4-1.7-.9-2.4-1.5l-.1-.1c-.5-.4-1.1-.6-1.7-.6-.2 0-.5 0-.7.1-.1 0-.2.1-.3.1l-1.4.6c-.9-1.4-1.6-3-1.9-4.7l1.3-.5c1-.4 1.7-1.4 1.7-2.4.1-.9.3-1.7.7-2.6.6-1.3 0-2.9-1.3-3.6-.1 0-.2-.1-.2-.1l-3-1.2c-.5 0-.8-.1-1.2-.1z" fill="#162843"/></g><g stroke="#162843" stroke-linecap="round" stroke-linejoin="round" stroke-width="2" transform="translate(224 103)"><circle cx="10.8" cy="6.7" r="5.9"/><path d="m21 26c0-5.5-4.7-10-10.2-10s-10.2 4.5-10.2 10v4.8h20.4z"/></g><g fill-rule="nonzero"><path d="m228 127.9c-.3 0-.5-.1-.8-.2-4.1-1.7-7.4-4.9-9.1-9.1s-1.8-8.7 0-12.9c0 0 0-.1.1-.1.3-.6.9-1 1.6-1 .3 0 .5.1.8.2l3 1.2s.1 0 .1.1c.4.2.8.6.9 1 .2.5.1.9-.1 1.4-.3.9-.6 1.8-.7 2.8 0 .8-.5 1.4-1.2 1.7l-2 .8c.4 2.4 1.3 4.6 2.7 6.4l2.1-.9h.1c.2 0 .3-.1.5-.1.4 0 .8.1 1.2.4.9.7 1.8 1.3 2.7 1.7 0 0 .1 0 .2.1.4.2.8.6.9 1 .2.5.1.9-.1 1.4 0 0-1.2 3.1-1.3 3.1-.2.6-.9 1-1.6 1z" fill="#fff"/><path d="m219.8 105.5c.1 0 .3 0 .4.1l3 1.2h.1c.4.2.6.7.4 1.2-.4 1-.7 2.1-.8 3.2 0 .4-.2.7-.5.8l-2.7 1.1c.3 3 1.5 5.9 3.4 8.1l2.7-1.1h.3c.2 0 .5.1.7.2.9.8 1.9 1.4 2.9 1.8h.1c.4.2.6.7.4 1.2l-1.2 3v.1c-.2.3-.5.5-.8.5-.1 0-.3 0-.4-.1-8.1-3.3-12-12.6-8.7-20.8v-.1c0-.2.3-.4.7-.4zm0-1.9c-1 0-2 .6-2.5 1.5 0 .1-.1.2-.1.2-3.7 9.1.7 19.4 9.7 23.1.4.2.7.2 1.1.2 1 0 2-.6 2.5-1.5 0-.1.1-.2.1-.2l1.2-3c.6-1.3 0-2.9-1.3-3.6-.1 0-.2-.1-.2-.1-.9-.4-1.7-.9-2.4-1.5l-.1-.1c-.5-.4-1.1-.6-1.7-.6-.2 0-.5 0-.7.1-.1 0-.2.1-.3.1l-1.4.6c-.9-1.4-1.6-3-1.9-4.7l1.3-.5c1-.4 1.7-1.4 1.7-2.4.1-.9.3-1.7.7-2.6.6-1.3 0-2.9-1.3-3.6-.1 0-.2-.1-.2-.1l-3-1.2c-.5 0-.8-.1-1.2-.1z" fill="#162843"/></g><g stroke="#162843" stroke-linecap="round" stroke-linejoin="round" stroke-width="2" transform="translate(133 103)"><circle cx="11" cy="6.7" r="5.9"/><path d="m21.2 26c0-5.5-4.7-10-10.2-10s-10.2 4.5-10.2 10v4.8h20.5v-4.8z"/></g><g fill-rule="nonzero"><path d="m137.2 127.9c-.3 0-.5-.1-.8-.2-8.6-3.5-12.7-13.4-9.2-22 0 0 0-.1.1-.1.3-.6.9-1 1.6-1 .3 0 .5.1.8.2l3 1.2s.1 0 .1.1c.9.4 1.3 1.5.9 2.4-.3.9-.6 1.8-.7 2.8 0 .8-.5 1.4-1.2 1.7l-2 .8c.4 2.4 1.3 4.6 2.7 6.4l2.1-.9h.1c.2 0 .3-.1.5-.1.4 0 .9.1 1.2.4.9.7 1.8 1.3 2.7 1.7 0 0 .1 0 .2.1.9.4 1.3 1.5.8 2.4l-1.3 3.1c-.2.6-.9 1-1.6 1z" fill="#fff"/><path d="m129 105.5c.1 0 .3 0 .4.1l3 1.2h.1c.4.2.6.7.4 1.2-.4 1-.7 2.1-.8 3.2 0 .4-.2.7-.5.8l-2.7 1.1c.3 3 1.5 5.9 3.4 8.1l2.7-1.1h.3c.2 0 .5.1.7.2.9.8 1.9 1.4 2.9 1.8h.1c.4.2.6.7.4 1.2l-1.2 3v.1c-.2.3-.5.5-.8.5-.1 0-.3 0-.4-.1-8.1-3.3-12-12.6-8.7-20.8v-.1c0-.2.3-.4.7-.4zm0-1.9c-1 0-2 .6-2.5 1.5 0 .1-.1.2-.1.2-3.7 9.1.7 19.4 9.7 23.1.4.2.7.2 1.1.2 1 0 2-.6 2.5-1.5 0-.1.1-.2.1-.2l1.2-3c.6-1.3 0-2.9-1.3-3.6-.1 0-.2-.1-.2-.1-.9-.4-1.7-.9-2.4-1.5l-.1-.1c-.5-.4-1.1-.6-1.7-.6-.2 0-.5 0-.7.1-.1 0-.2.1-.3.1l-1.4.6c-.9-1.4-1.6-3-1.9-4.7l1.3-.5c1-.4 1.7-1.4 1.7-2.4.1-.9.3-1.7.7-2.6.6-1.3 0-2.9-1.3-3.6-.1 0-.2-.1-.2-.1l-3-1.2c-.5 0-.9-.1-1.2-.1z" fill="#162843"/></g></g></svg>