<svg height="117" viewBox="0 0 366 117" width="366" xmlns="http://www.w3.org/2000/svg"><g fill="none" fill-rule="evenodd"><g stroke="#162843" stroke-linecap="round" stroke-linejoin="round" stroke-width="2" transform="translate(344 43)"><circle cx="10.6" cy="6.7" r="5.9"/><path d="m20.8 26c0-5.5-4.7-10-10.2-10s-10.2 4.5-10.2 10v4.8h20.5z"/></g><g stroke="#162843" stroke-linecap="round" stroke-linejoin="round" stroke-width="2" transform="translate(344 84)"><circle cx="10.6" cy="6.7" r="5.9"/><path d="m20.8 26c0-5.5-4.7-10-10.2-10s-10.2 4.5-10.2 10v4.8h20.5z"/></g><g stroke="#162843" stroke-linecap="round" stroke-linejoin="round" stroke-width="2" transform="translate(344 1)"><circle cx="10.6" cy="6.7" r="5.9"/><path d="m20.8 26c0-5.5-4.7-10-10.2-10s-10.2 4.5-10.2 10v4.8h20.5z"/></g><path d="m123.8 73.9h-105.8c-9.3 0-16.8-7.5-16.8-16.8s7.5-16.8 16.8-16.8h105.8c9.3 0 16.8 7.5 16.8 16.8.1 9.3-7.5 16.8-16.8 16.8z" stroke="#122844" stroke-width="2"/><path d="m21.9 62.9c-.6 0-1.2-.1-1.7-.4s-.9-.6-1.3-1.1-.6-1.1-.8-1.9c-.2-.7-.3-1.6-.3-2.6s.1-1.8.3-2.6c.2-.7.5-1.3.8-1.8s.8-.9 1.3-1.1 1.1-.4 1.7-.4 1.2.1 1.7.4c.5.2.9.6 1.3 1.1s.6 1.1.8 1.8c.2.8.3 1.7.3 2.7s-.1 1.8-.3 2.6c-.2.7-.5 1.4-.8 1.9-.4.5-.8.9-1.3 1.1s-1 .3-1.7.3zm0-2c.2 0 .4-.1.6-.2s.4-.3.5-.6.3-.7.3-1.2c.1-.5.1-1.1.1-1.9s0-1.4-.1-1.9-.2-.9-.3-1.2-.3-.5-.5-.6-.4-.2-.6-.2-.4.1-.6.2-.4.3-.5.6-.3.7-.3 1.2-.1 1.1-.1 1.9 0 1.4.1 1.9.2.9.3 1.2.3.5.5.6.4.2.6.2zm6.1 1.8v-2.1h2.5v-6.6h-2.1v-1.6c.6-.1 1.2-.3 1.6-.4.4-.2.9-.4 1.3-.6h1.9v9.3h2.1v2.1h-7.3zm16.6.2c-.6 0-1.2-.1-1.7-.4s-.9-.6-1.3-1.1-.6-1.1-.8-1.9c-.2-.7-.3-1.6-.3-2.6s.1-1.8.3-2.6c.2-.7.5-1.3.8-1.8s.8-.9 1.3-1.1 1.1-.4 1.7-.4 1.2.1 1.7.4c.5.2.9.6 1.3 1.1s.6 1.1.8 1.8.3 1.6.3 2.6-.1 1.8-.3 2.6c-.2.7-.5 1.4-.8 1.9-.4.5-.8.9-1.3 1.1-.6.3-1.1.4-1.7.4zm0-2c.2 0 .4-.1.6-.2s.4-.3.5-.6.3-.7.3-1.2c.1-.5.1-1.1.1-1.9s0-1.4-.1-1.9-.2-.9-.3-1.2-.3-.5-.5-.6-.4-.2-.6-.2-.4.1-.6.2-.4.3-.5.6-.3.7-.3 1.2-.2 1.1-.2 1.9 0 1.4.1 1.9.2.9.3 1.2.3.5.5.6.4.2.7.2zm9.5 2c-.6 0-1.2-.1-1.7-.4s-.9-.6-1.3-1.1-.6-1.1-.8-1.9c-.2-.7-.3-1.6-.3-2.5 0-1 .1-1.8.3-2.6.2-.7.5-1.3.8-1.8s.8-.9 1.3-1.1 1.1-.4 1.7-.4 1.2.1 1.7.4c.5.2.9.6 1.3 1.1s.6 1.1.8 1.8.3 1.6.3 2.6-.1 1.8-.3 2.6c-.2.7-.5 1.4-.8 1.9-.4.5-.8.9-1.3 1.1-.6.2-1.1.3-1.7.3zm0-2c.2 0 .4-.1.6-.2s.4-.3.5-.6.3-.7.3-1.2c.1-.5.1-1.1.1-1.9s0-1.4-.1-1.9-.2-.9-.3-1.2-.3-.5-.5-.6-.4-.2-.6-.2-.4.1-.6.2-.4.3-.5.6-.3.7-.3 1.2-.1 1.1-.1 1.9 0 1.4.1 1.9.2.9.3 1.2.3.5.5.6c.1.1.3.2.6.2zm13.1 2c-.6 0-1.2-.1-1.7-.4s-.9-.6-1.3-1.1-.6-1.1-.8-1.9c-.2-.7-.3-1.6-.3-2.6s.1-1.8.3-2.6c.2-.7.5-1.3.8-1.8s.8-.9 1.3-1.1 1.1-.4 1.7-.4 1.2.1 1.7.4c.5.2.9.6 1.3 1.1s.6 1.1.8 1.8.3 1.6.3 2.6-.1 1.8-.3 2.6c-.2.7-.5 1.4-.8 1.9-.4.5-.8.9-1.3 1.1-.6.3-1.1.4-1.7.4zm0-2c.2 0 .4-.1.6-.2s.4-.3.5-.6.3-.7.3-1.2c.1-.5.1-1.1.1-1.9s0-1.4-.1-1.9-.2-.9-.3-1.2-.3-.5-.5-.6-.4-.2-.6-.2-.4.1-.6.2-.4.3-.5.6-.3.7-.3 1.2-.1 1.1-.1 1.9 0 1.4.1 1.9.2.9.3 1.2.3.5.5.6c.1.1.3.2.6.2zm9.5 2c-.6 0-1.2-.1-1.7-.4s-.9-.6-1.3-1.1-.6-1.1-.8-1.9c-.2-.7-.3-1.6-.3-2.6s.1-1.8.3-2.6c.2-.7.5-1.3.8-1.8s.8-.9 1.3-1.1 1.1-.4 1.7-.4 1.2.1 1.7.4c.5.2.9.6 1.3 1.1s.6 1.1.8 1.8.3 1.6.3 2.6-.1 1.8-.3 2.6c-.2.7-.5 1.4-.8 1.9-.4.5-.8.9-1.3 1.1-.6.3-1.1.4-1.7.4zm0-2c.2 0 .4-.1.6-.2s.4-.3.5-.6.3-.7.3-1.2c.1-.5.1-1.1.1-1.9s0-1.4-.1-1.9-.2-.9-.3-1.2-.3-.5-.5-.6-.4-.2-.6-.2-.4.1-.6.2-.4.3-.5.6-.3.7-.3 1.2-.1 1.1-.1 1.9 0 1.4.1 1.9.2.9.3 1.2.3.5.5.6c.1.1.3.2.6.2zm13.1 2c-.6 0-1.2-.1-1.7-.4s-.9-.6-1.3-1.1-.6-1.1-.8-1.9c-.2-.7-.3-1.6-.3-2.6s.1-1.8.3-2.6c.2-.7.5-1.3.8-1.8s.8-.9 1.3-1.1 1.1-.4 1.7-.4 1.2.1 1.7.4c.5.2.9.6 1.3 1.1s.6 1.1.8 1.8.3 1.6.3 2.6-.1 1.8-.3 2.6c-.2.7-.5 1.4-.8 1.9-.4.5-.8.9-1.3 1.1-.6.3-1.1.4-1.7.4zm0-2c.2 0 .4-.1.6-.2s.4-.3.5-.6.3-.7.3-1.2c.1-.5.1-1.1.1-1.9s0-1.4-.1-1.9-.2-.9-.3-1.2-.3-.5-.5-.6-.4-.2-.6-.2-.4.1-.6.2-.4.3-.5.6-.3.7-.3 1.2-.1 1.1-.1 1.9 0 1.4.1 1.9.2.9.3 1.2.3.5.5.6c.1.1.4.2.6.2zm9.5 2c-.6 0-1.2-.1-1.7-.4s-.9-.6-1.3-1.1-.6-1.1-.8-1.9c-.2-.7-.3-1.6-.3-2.6s.1-1.8.3-2.6c.2-.7.5-1.3.8-1.8s.8-.9 1.3-1.1 1.1-.4 1.7-.4 1.2.1 1.7.4c.5.2.9.6 1.3 1.1s.6 1.1.8 1.8.3 1.6.3 2.6-.1 1.8-.3 2.6c-.2.7-.5 1.4-.8 1.9-.4.5-.8.9-1.3 1.1-.6.3-1.1.4-1.7.4zm0-2c.2 0 .4-.1.6-.2s.4-.3.5-.6.3-.7.3-1.2c.1-.5.1-1.1.1-1.9s0-1.4-.1-1.9-.2-.9-.3-1.2-.3-.5-.5-.6-.4-.2-.6-.2-.4.1-.6.2-.4.3-.5.6-.3.7-.3 1.2-.1 1.1-.1 1.9 0 1.4.1 1.9.2.9.3 1.2.3.5.5.6.4.2.6.2zm13.1 2c-.6 0-1.2-.1-1.7-.4s-.9-.6-1.3-1.1-.6-1.1-.8-1.9c-.2-.7-.3-1.6-.3-2.6s.1-1.8.3-2.6c.2-.7.5-1.3.8-1.8s.8-.9 1.3-1.1 1.1-.4 1.7-.4 1.2.1 1.7.4c.5.2.9.6 1.3 1.1s.6 1.1.8 1.8.3 1.6.3 2.6-.1 1.8-.3 2.6c-.2.7-.5 1.4-.8 1.9-.4.5-.8.9-1.3 1.1-.6.3-1.1.4-1.7.4zm0-2c.2 0 .4-.1.6-.2s.4-.3.5-.6.3-.7.3-1.2c.1-.5.1-1.1.1-1.9s0-1.4-.1-1.9-.2-.9-.3-1.2-.3-.5-.5-.6-.4-.2-.6-.2-.4.1-.6.2-.4.3-.5.6-.3.7-.3 1.2-.1 1.1-.1 1.9 0 1.4.1 1.9.2.9.3 1.2.3.5.5.6.4.2.6.2zm9.5 2c-.6 0-1.2-.1-1.7-.4s-.9-.6-1.3-1.1-.6-1.1-.8-1.9c-.2-.7-.3-1.6-.3-2.6s.1-1.8.3-2.6c.2-.7.5-1.3.8-1.8s.8-.9 1.3-1.1 1.1-.4 1.7-.4 1.2.1 1.7.4c.5.2.9.6 1.3 1.1s.6 1.1.8 1.8.3 1.6.3 2.6-.1 1.8-.3 2.6c-.2.7-.5 1.4-.8 1.9-.4.5-.8.9-1.3 1.1-.6.3-1.1.4-1.7.4zm0-2c.2 0 .4-.1.6-.2s.4-.3.5-.6.3-.7.3-1.2c.1-.5.1-1.1.1-1.9s0-1.4-.1-1.9-.2-.9-.3-1.2-.3-.5-.5-.6-.4-.2-.6-.2-.4.1-.6.2-.4.3-.5.6-.3.7-.3 1.2-.1 1.1-.1 1.9 0 1.4.1 1.9.2.9.3 1.2.3.5.5.6.4.2.6.2z" fill="#122844" fill-rule="nonzero"/><path d="m266.5 32h-25.1c-1.3 0-2.4-1.1-2.4-2.4v-25.2c0-1.3 1.1-2.4 2.4-2.4h25.1c1.3 0 2.4 1.1 2.4 2.4v25.1c.1 1.4-1 2.5-2.4 2.5z" stroke="#162843" stroke-linecap="round" stroke-linejoin="round" stroke-width="2"/><path d="m245.7 19h-1.4v-1.4h1.5l.3-2.3h-1.5v-1.4h1.6l.4-3.1h1.2l-.4 3.1h2.1l.4-3.1h1.2l-.4 3.1h1.4v1.4h-1.6l-.3 2.3h1.5v1.4h-1.7l-.4 3.5h-1.3l.4-3.5h-2.1l-.4 3.5h-1.3zm3.5-1.4.3-2.3h-2.1l-.3 2.3zm5 3.2h2.6v-7.5h-2.1v-1.3c1.1-.2 1.9-.5 2.6-.9h1.5v9.8h2.3v1.7h-6.9z" fill="#122844" fill-rule="nonzero"/><path d="m266.5 74.2h-25.1c-1.3 0-2.4-1.1-2.4-2.4v-25.2c0-1.3 1.1-2.4 2.4-2.4h25.1c1.3 0 2.4 1.1 2.4 2.4v25.1c.1 1.4-1 2.5-2.4 2.5z" stroke="#162843" stroke-linecap="round" stroke-linejoin="round" stroke-width="2"/><path d="m245.7 61.1h-1.4v-1.4h1.5l.3-2.3h-1.5v-1.4h1.6l.4-3.1h1.2l-.4 3.1h2.1l.4-3.1h1.2l-.4 3.1h1.4v1.4h-1.6l-.3 2.3h1.5v1.4h-1.7l-.4 3.5h-1.3l.4-3.5h-2.1l-.4 3.5h-1.3zm3.5-1.3.3-2.3h-2.1l-.3 2.3zm4.4 3.7c3.2-3.1 5.2-5.1 5.2-6.8 0-1.2-.7-2-1.9-2-.9 0-1.6.6-2.2 1.3l-1.2-1.1c1-1.1 2.1-1.8 3.7-1.8 2.2 0 3.6 1.4 3.6 3.5 0 2-1.9 4.1-4.2 6.5.6-.1 1.4-.1 1.9-.1h2.8v1.8h-7.7z" fill="#122844" fill-rule="nonzero"/><path d="m266.5 116h-25.1c-1.3 0-2.4-1.1-2.4-2.4v-25.2c0-1.3 1.1-2.4 2.4-2.4h25.1c1.3 0 2.4 1.1 2.4 2.4v25.1c.1 1.4-1 2.5-2.4 2.5z" stroke="#162843" stroke-linecap="round" stroke-linejoin="round" stroke-width="2"/><path d="m245.7 103h-1.4v-1.4h1.5l.3-2.3h-1.5v-1.4h1.6l.4-3.1h1.2l-.4 3.1h2.1l.4-3.1h1.2l-.4 3.1h1.4v1.4h-1.6l-.3 2.3h1.5v1.4h-1.7l-.4 3.5h-1.3l.4-3.5h-2.1l-.4 3.5h-1.3zm3.5-1.4.3-2.3h-2.1l-.3 2.3zm4.1 3.5 1-1.3c.7.7 1.6 1.3 2.7 1.3 1.3 0 2.1-.6 2.1-1.7 0-1.2-.8-1.9-3.4-1.9v-1.5c2.2 0 3-.8 3-1.8s-.6-1.5-1.7-1.5c-.9 0-1.6.4-2.3 1.1l-1.1-1.3c1-.9 2.1-1.4 3.5-1.4 2.2 0 3.7 1.1 3.7 3 0 1.3-.8 2.1-2 2.6v.1c1.4.4 2.4 1.3 2.4 2.9 0 2.1-1.8 3.3-4 3.3-1.8-.3-3.1-1-3.9-1.9z" fill="#122844" fill-rule="nonzero"/><g stroke-linecap="round" stroke-linejoin="round"><g stroke-width="2"><path d="m166 40 46.6-22.8" stroke="#122844"/><path d="m204.4 14.2 9 2.3-2.2 8.9" stroke="#162843"/></g><g stroke-width="2"><path d="m166 59.2h46.6" stroke="#122844"/><path d="m206.3 52.6 6.6 6.6-6.6 6.5" stroke="#162843"/></g><g stroke-width="2"><path d="m166 77 46.6 24.2" stroke="#122844"/><path d="m210.7 92.8 2.8 8.8-8.8 2.9" stroke="#162843"/></g><path d="m324.3 52.6 6.6 6.6-6.6 6.5m0-55.1 6.6 6.6-6.6 6.5m0 70.9 6.6 6.6-6.6 6.5m6.7-90.7h-40m40 42h-40m40 42h-40" stroke="#162843" stroke-width="2"/></g></g></svg>