<svg height="58" viewBox="0 0 374 58" width="374" xmlns="http://www.w3.org/2000/svg"><g fill="none" fill-rule="evenodd"><g stroke-width="2"><g stroke="#162843" stroke-linecap="round" stroke-linejoin="round" transform="translate(228 1)"><circle cx="19.5" cy="11.1" r="11.1"/><path d="m38.6 47.1c0-10.3-8.8-18.6-19.1-18.6s-19.1 8.4-19.1 18.6v8.9h38.2z"/></g><g opacity=".5" stroke="#162843" stroke-linecap="round" stroke-linejoin="round" transform="translate(281 1)"><circle cx="19.5" cy="11.1" r="11.1"/><path d="m38.6 47.1c0-10.3-8.8-18.6-19.1-18.6s-19.1 8.4-19.1 18.6v8.9h38.2z"/></g><g opacity=".5" stroke="#162843" stroke-linecap="round" stroke-linejoin="round" transform="translate(334 1)"><circle cx="19.5" cy="11.1" r="11.1"/><path d="m38.6 47.1c0-10.3-8.8-18.6-19.1-18.6s-19.1 8.4-19.1 18.6v8.9h38.2z"/></g><path d="m124 46.9h-105.8c-9.3 0-16.8-7.5-16.8-16.8s7.5-16.8 16.8-16.8h105.8c9.3 0 16.8 7.5 16.8 16.8.1 9.3-7.5 16.8-16.8 16.8z" stroke="#122844"/></g><path d="m22.2 35.9c-.6 0-1.2-.1-1.7-.4s-.9-.6-1.3-1.1-.6-1.1-.8-1.9c-.2-.7-.3-1.6-.3-2.6s.1-1.8.3-2.6c.2-.7.5-1.3.8-1.8s.8-.9 1.3-1.1 1.1-.4 1.7-.4 1.2.1 1.7.4c.5.2.9.6 1.3 1.1s.6 1.1.8 1.8.3 1.6.3 2.6-.1 1.8-.3 2.6c-.2.7-.5 1.4-.8 1.9-.4.5-.8.9-1.3 1.1-.6.3-1.1.4-1.7.4zm0-2c.2 0 .4-.1.6-.2s.4-.3.5-.6.3-.7.3-1.2c.1-.5.1-1.1.1-1.9s0-1.4-.1-1.9-.2-.9-.3-1.2-.3-.5-.5-.6-.4-.2-.6-.2-.4.1-.6.2-.4.3-.5.6-.3.7-.3 1.2-.1 1.1-.1 1.9 0 1.4.1 1.9.2.9.3 1.2.3.5.5.6c.1.1.3.2.6.2zm6 1.8v-2.1h2.5v-6.6h-2.1v-1.6c.6-.1 1.2-.3 1.6-.4.4-.2.9-.4 1.3-.6h1.9v9.3h2.1v2.1h-7.3zm16.6.2c-.6 0-1.2-.1-1.7-.4s-.9-.6-1.3-1.1-.6-1.1-.8-1.9c-.2-.7-.3-1.6-.3-2.6s.1-1.8.3-2.6c.2-.7.5-1.3.8-1.8s.8-.9 1.3-1.1 1.1-.4 1.7-.4 1.2.1 1.7.4c.5.2.9.6 1.3 1.1s.6 1.1.8 1.8.3 1.6.3 2.6-.1 1.8-.3 2.6c-.2.7-.5 1.4-.8 1.9-.4.5-.8.9-1.3 1.1-.6.3-1.1.4-1.7.4zm0-2c.2 0 .4-.1.6-.2s.4-.3.5-.6.3-.7.3-1.2c.1-.5.1-1.1.1-1.9s0-1.4-.1-1.9-.2-.9-.3-1.2-.3-.5-.5-.6-.4-.2-.6-.2-.4.1-.6.2-.4.3-.5.6-.3.7-.3 1.2-.1 1.1-.1 1.9 0 1.4.1 1.9.2.9.3 1.2.3.5.5.6c.1.1.4.2.6.2zm9.5 2c-.6 0-1.2-.1-1.7-.4s-.9-.6-1.3-1.1-.6-1.1-.8-1.9c-.2-.7-.3-1.6-.3-2.6s.1-1.8.3-2.6c.2-.7.5-1.3.8-1.8s.8-.9 1.3-1.1 1.1-.4 1.7-.4 1.2.1 1.7.4c.5.2.9.6 1.3 1.1s.6 1.1.8 1.8.3 1.6.3 2.6-.1 1.8-.3 2.6c-.2.7-.5 1.4-.8 1.9-.4.5-.8.9-1.3 1.1-.6.3-1.1.4-1.7.4zm0-2c.2 0 .4-.1.6-.2s.4-.3.5-.6.3-.7.3-1.2c.1-.5.1-1.1.1-1.9s0-1.4-.1-1.9-.2-.9-.3-1.2-.3-.5-.5-.6-.4-.2-.6-.2-.4.1-.6.2-.4.3-.5.6-.3.7-.3 1.2-.1 1.1-.1 1.9 0 1.4.1 1.9.2.9.3 1.2.3.5.5.6.4.2.6.2zm13.1 2c-.6 0-1.2-.1-1.7-.4s-.9-.6-1.3-1.1-.6-1.1-.8-1.9c-.2-.7-.3-1.6-.3-2.6s.1-1.8.3-2.6c.2-.7.5-1.3.8-1.8s.8-.9 1.3-1.1 1.1-.4 1.7-.4 1.2.1 1.7.4c.5.2.9.6 1.3 1.1s.6 1.1.8 1.8.3 1.6.3 2.6-.1 1.8-.3 2.6c-.2.7-.5 1.4-.8 1.9-.4.5-.8.9-1.3 1.1-.6.3-1.1.4-1.7.4zm0-2c.2 0 .4-.1.6-.2s.4-.3.5-.6.3-.7.3-1.2c.1-.5.1-1.1.1-1.9s0-1.4-.1-1.9-.2-.9-.3-1.2-.3-.5-.5-.6-.4-.2-.6-.2-.4.1-.6.2-.4.3-.5.6-.3.7-.3 1.2-.1 1.1-.1 1.9 0 1.4.1 1.9.2.9.3 1.2.3.5.5.6.4.2.6.2zm9.5 2c-.6 0-1.2-.1-1.7-.4s-.9-.6-1.3-1.1-.6-1.1-.8-1.9c-.2-.7-.3-1.6-.3-2.6s.1-1.8.3-2.6c.2-.7.5-1.3.8-1.8s.8-.9 1.3-1.1 1.1-.4 1.7-.4 1.2.1 1.7.4c.5.2.9.6 1.3 1.1s.6 1.1.8 1.8.3 1.6.3 2.6-.1 1.8-.3 2.6c-.2.7-.5 1.4-.8 1.9-.4.5-.8.9-1.3 1.1-.6.3-1.1.4-1.7.4zm0-2c.2 0 .4-.1.6-.2s.4-.3.5-.6.3-.7.3-1.2c.1-.5.1-1.1.1-1.9s0-1.4-.1-1.9-.2-.9-.3-1.2-.3-.5-.5-.6-.4-.2-.6-.2-.4.1-.6.2-.4.3-.5.6-.3.7-.3 1.2-.1 1.1-.1 1.9 0 1.4.1 1.9.2.9.3 1.2.3.5.5.6.4.2.6.2zm13.1 2c-.6 0-1.2-.1-1.7-.4s-.9-.6-1.3-1.1-.6-1.1-.8-1.9c-.2-.7-.3-1.6-.3-2.6s.1-1.8.3-2.6c.2-.7.5-1.3.8-1.8s.8-.9 1.3-1.1 1.1-.4 1.7-.4 1.2.1 1.7.4c.5.2.9.6 1.3 1.1s.6 1.1.8 1.8.3 1.6.3 2.6-.1 1.8-.3 2.6c-.2.7-.5 1.4-.8 1.9-.4.5-.8.9-1.3 1.1-.5.3-1.1.4-1.7.4zm0-2c.2 0 .4-.1.6-.2s.4-.3.5-.6.3-.7.3-1.2c.1-.5.1-1.1.1-1.9s0-1.4-.1-1.9-.2-.9-.3-1.2-.3-.5-.5-.6-.4-.2-.6-.2-.4.1-.6.2-.4.3-.5.6-.3.7-.3 1.2-.1 1.1-.1 1.9 0 1.4.1 1.9.2.9.3 1.2.3.5.5.6.4.2.6.2zm9.5 2c-.6 0-1.2-.1-1.7-.4s-.9-.6-1.3-1.1-.6-1.1-.8-1.9c-.2-.7-.3-1.6-.3-2.6s.1-1.8.3-2.6c.2-.7.5-1.3.8-1.8s.8-.9 1.3-1.1 1.1-.4 1.7-.4 1.2.1 1.7.4c.5.2.9.6 1.3 1.1s.6 1.1.8 1.8.3 1.6.3 2.6-.1 1.8-.3 2.6c-.2.7-.5 1.4-.8 1.9-.4.5-.8.9-1.3 1.1-.5.3-1.1.4-1.7.4zm0-2c.2 0 .4-.1.6-.2s.4-.3.5-.6.3-.7.3-1.2c.1-.5.1-1.1.1-1.9s0-1.4-.1-1.9-.2-.9-.3-1.2-.3-.5-.5-.6-.4-.2-.6-.2-.4.1-.6.2-.4.3-.5.6-.3.7-.3 1.2-.1 1.1-.1 1.9 0 1.4.1 1.9.2.9.3 1.2.3.5.5.6.4.2.6.2zm13.1 2c-.6 0-1.2-.1-1.7-.4s-.9-.6-1.3-1.1-.6-1.1-.8-1.9c-.2-.7-.3-1.6-.3-2.6s.1-1.8.3-2.6c.2-.7.5-1.3.8-1.8s.8-.9 1.3-1.1 1.1-.4 1.7-.4 1.2.1 1.7.4c.5.2.9.6 1.3 1.1s.6 1.1.8 1.8.3 1.6.3 2.6-.1 1.8-.3 2.6c-.2.7-.5 1.4-.8 1.9-.4.5-.8.9-1.3 1.1-.5.3-1.1.4-1.7.4zm0-2c.2 0 .4-.1.6-.2s.4-.3.5-.6.3-.7.3-1.2c.1-.5.1-1.1.1-1.9s0-1.4-.1-1.9-.2-.9-.3-1.2-.3-.5-.5-.6-.4-.2-.6-.2-.4.1-.6.2-.4.3-.5.6-.3.7-.3 1.2-.2 1.1-.2 1.9 0 1.4.1 1.9.2.9.3 1.2.3.5.5.6c.3.1.5.2.7.2zm9.5 2c-.6 0-1.2-.1-1.7-.4s-.9-.6-1.3-1.1-.6-1.1-.8-1.9c-.2-.7-.3-1.6-.3-2.6s.1-1.8.3-2.6c.2-.7.5-1.3.8-1.8s.8-.9 1.3-1.1 1.1-.4 1.7-.4 1.2.1 1.7.4c.5.2.9.6 1.3 1.1s.6 1.1.8 1.8.3 1.6.3 2.6-.1 1.8-.3 2.6c-.2.7-.5 1.4-.8 1.9-.4.5-.8.9-1.3 1.1-.5.3-1.1.4-1.7.4zm0-2c.2 0 .4-.1.6-.2s.4-.3.5-.6.3-.7.3-1.2c.1-.5.1-1.1.1-1.9s0-1.4-.1-1.9-.2-.9-.3-1.2-.3-.5-.5-.6-.4-.2-.6-.2-.4.1-.6.2-.4.3-.5.6-.3.7-.3 1.2-.1 1.1-.1 1.9 0 1.4.1 1.9.2.9.3 1.2.3.5.5.6.4.2.6.2z" fill="#122844" fill-rule="nonzero"/><g stroke-linecap="round" stroke-linejoin="round" stroke-width="2"><path d="m192.2 28.3h24.6" stroke="#122844"/><path d="m210.6 21.8 6.5 6.5-6.5 6.6" stroke="#162843"/></g><g stroke="#162843" stroke-linecap="round" stroke-linejoin="round" stroke-width="2"><path d="m171.6 30.6v-12.3m0 12.3h7.8m-19.3-8.4v-8.4l-8.4.1"/><path d="m171.2 10h.7c11.2 0 20.3 9.1 20.3 20.3s-9.1 20.3-20.3 20.3-20.3-9.1-20.3-20.3c0-6.2 2.8-12.1 7.7-15.9 0 0 .4-.4.6-.5"/></g><path d="m270.6 21.8 6.5 6.5-6.5 6.6m53-13.1 6.5 6.5-6.5 6.6" opacity=".5" stroke="#162843" stroke-linecap="round" stroke-linejoin="round" stroke-width="2"/></g></svg>