<svg xmlns="http://www.w3.org/2000/svg" width="64" height="64" viewBox="0 0 64 64">
  <g id="Picto" transform="translate(-621 -584)">
    <rect id="area" width="64" height="64" transform="translate(621 584)" fill="#fff" opacity="0"/>
    <g id="picto-2" data-name="picto" transform="translate(7.814 0.228)">
      <path id="Shadow" d="M50.427.035l.047.016.02.008a.835.835,0,0,1,.113.054l.01.006a.829.829,0,0,1,.409.842c0,.022-.007.042-.011.062l0,.013L39.177,53.59A.845.845,0,0,1,37.755,54L24.746,40.959,18.57,45.6a.845.845,0,0,1-1.353-.678V33.41L2.248,18.4A.849.849,0,0,1,2.561,17L49.853.067A.819.819,0,0,1,50.427.035Z" transform="translate(615.143 592.236)" fill="#bef1ff" stroke="#bef1ff" stroke-width="1" fill-rule="evenodd"/>
      <path id="blank" d="M672.217,588.253l-10.543,50.273-34.055-34.55Z" transform="translate(-1.243 -0.364)" fill="#fff"/>
      <path id="Color" d="M50.427.035l.047.016.02.008a.835.835,0,0,1,.113.054l.01.006a.829.829,0,0,1,.409.842c0,.022-.007.042-.011.062l0,.013L39.177,53.59A.845.845,0,0,1,37.755,54L24.746,40.959,18.57,45.6a.845.845,0,0,1-1.353-.678V33.41L2.248,18.4A.849.849,0,0,1,2.561,17L49.853.067A.819.819,0,0,1,50.427.035ZM48.72,3.52,19.258,33.06,37.866,51.716ZM18.908,35.105v8.126l4.631-3.482ZM46.93,2.915,4.388,18.15,18.062,31.861Z" transform="translate(622.194 585.185)" fill="#000e9c" stroke="#000e9c" stroke-width="1" fill-rule="evenodd"/>
    </g>
  </g>
</svg>
