<svg width="32" height="32" viewBox="0 0 32 32" fill="none" xmlns="http://www.w3.org/2000/svg">
<path d="M16.005 24.42C18.7112 24.42 20.905 22.2262 20.905 19.52C20.905 16.8138 18.7112 14.62 16.005 14.62C13.2988 14.62 11.105 16.8138 11.105 19.52C11.105 22.2262 13.2988 24.42 16.005 24.42Z" stroke="#000E9C" stroke-linejoin="round"/>
<path d="M16.005 24.42C17.0378 24.42 17.875 22.2262 17.875 19.52C17.875 16.8138 17.0378 14.62 16.005 14.62C14.9722 14.62 14.135 16.8138 14.135 19.52C14.135 22.2262 14.9722 24.42 16.005 24.42Z" stroke="#000E9C" stroke-linejoin="round"/>
<path d="M20.905 21.07H11.095" stroke="#000E9C" stroke-linejoin="round"/>
<path d="M11.095 17.96H20.905" stroke="#000E9C" stroke-linejoin="round"/>
<circle cx="3.91499" cy="8.02" r="0.75" fill="#000E9C"/>
<circle cx="6.875" cy="8.02" r="0.75" fill="#000E9C"/>
<circle cx="9.83499" cy="8.02" r="0.75" fill="#000E9C"/>
<path d="M1.895 27.36L30.105 27.36C30.8506 27.36 31.455 26.7556 31.455 26.01L31.455 5.99C31.455 5.24442 30.8506 4.64 30.105 4.64L1.895 4.64C1.14942 4.64 0.544998 5.24442 0.544998 5.99L0.544998 26.01C0.544998 26.7556 1.14942 27.36 1.895 27.36Z" stroke="#000E9C" stroke-linejoin="round"/>
<path d="M0.714996 11.17H31.285" stroke="#000E9C" stroke-linejoin="round"/>
</svg>
