<?xml version="1.0" encoding="UTF-8"?>
<svg width="37px" height="22px" viewBox="0 0 37 22" version="1.1" xmlns="http://www.w3.org/2000/svg" xmlns:xlink="http://www.w3.org/1999/xlink">
    <!-- Generator: Sketch 44.1 (41455) - http://www.bohemiancoding.com/sketch -->
    <title>Add new Payement</title>
    <desc>Created with Sketch.</desc>
    <defs>
        <path d="M224,38 L0,38 L0,200.992154 C0,204.867421 3.13241616,208 6.99644731,208 L768.003553,208 C771.857125,208 775,204.86248 775,200.992154 L775,45.0078464 C775,41.1325786 771.867584,38 768.003553,38 L444,38 L444,4.00718972 C444,1.79426827 442.206312,0 439.993687,0 L228.006313,0 C225.787011,0 224,1.79407995 224,4.00718972 L224,38 Z" id="path-1"></path>
        <rect id="path-2" x="0" y="0" width="175" height="75" rx="7"></rect>
        <rect id="path-3" x="0.0686881188" y="0.0576295548" width="37" height="22" rx="2"></rect>
    </defs>
    <g id="Page-1" stroke="none" stroke-width="1" fill="none" fill-rule="evenodd">
        <g id="Changes" transform="translate(-297.000000, -758.000000)">
            <g id="Payment-Methods" transform="translate(50.000000, 50.000000)">
                <g id="Add-new-Payement" transform="translate(0.000000, 571.000000)">
                    <g id="Combined-Shape">
                        <use fill="#FFFFFF" fill-rule="evenodd" xlink:href="#path-1"></use>
                        <path stroke="#E3E4DF" stroke-width="2" d="M1,39 L1,200.992154 C1,204.313685 3.68325188,207 6.99644731,207 L768.003553,207 C771.308319,207 774,204.306715 774,200.992154 L774,45.0078464 C774,41.6863147 771.316748,39 768.003553,39 L443,39 L443,4.00718972 C443,2.34643176 441.653906,1 439.993687,1 L228.006313,1 C226.341909,1 225,2.34374906 225,4.00718972 L225,39 L1,39 Z"></path>
                    </g>
                    <g id="Bloc" transform="translate(20.000000, 98.000000)">
                        <g id="PayPal" transform="translate(186.000000, 0.000000)">
                            <g id="BG">
                                <use fill="#FFFFFF" fill-rule="evenodd" xlink:href="#path-2"></use>
                                <rect stroke="#E3E4DF" stroke-width="2" x="1" y="1" width="173" height="73" rx="7"></rect>
                            </g>
                            <g id="Paypal" transform="translate(60.000000, 49.500000) scale(1, -1) translate(-60.000000, -49.500000) translate(41.000000, 38.000000)">
                                <g id="Rectangle">
                                    <use fill="#FFFFFF" fill-rule="evenodd" xlink:href="#path-3"></use>
                                    <rect stroke="#CCCCCC" stroke-width="1" x="0.568688119" y="0.557629555" width="36" height="21" rx="2"></rect>
                                </g>
                                <g id="Group-4-Copy" transform="translate(3.000000, 7.000000)">
                                    <path d="M20.6764443,5.90693961 C20.5534245,5.07556666 19.9365849,5.07556666 19.339765,5.07556666 L19.0003001,5.07556666 L19.2385058,6.62782117 C19.2527227,6.72158953 19.3313509,6.79057198 19.4236158,6.79057198 L19.5794214,6.79057198 C19.9856187,6.79057198 20.3691851,6.79057198 20.5670612,6.55256759 C20.6854387,6.4101233 20.721126,6.19869656 20.6764443,5.90693961 M20.4167682,8.07615406 L18.1664351,8.07615406 C18.0123703,8.07615406 17.8815167,7.96088468 17.857435,7.804405 L16.947553,1.86534428 C16.9295643,1.74828315 17.0177671,1.64227116 17.1326629,1.64227116 L18.2874239,1.64227116 C18.3950661,1.64227116 18.4867507,1.7229 18.5035789,1.83219687 L18.7618043,3.51614515 C18.7855958,3.67262483 18.9167395,3.78789421 19.0705142,3.78789421 L19.7825201,3.78789421 C21.2648501,3.78789421 22.1204757,4.52609604 22.3438842,5.98965882 C22.4445631,6.6293143 22.3479462,7.13219937 22.0569349,7.48427864 C21.7369094,7.87129708 21.1696839,8.07615406 20.4167682,8.07615406" id="Shape" fill="#0079C1"></path>
                                    <path d="M4.62593493,5.90693961 C4.50291517,5.07556666 3.88607555,5.07556666 3.28925565,5.07556666 L2.94979076,5.07556666 L3.18799647,6.62782117 C3.20221337,6.72158953 3.28084156,6.79057198 3.37310638,6.79057198 L3.52891206,6.79057198 C3.93510937,6.79057198 4.31867568,6.79057198 4.5165518,6.55256759 C4.6349293,6.4101233 4.67061663,6.19869656 4.62593493,5.90693961 M4.36625879,8.07615406 L2.11592572,8.07615406 C1.96186088,8.07615406 1.83100732,7.96088468 1.80692563,7.804405 L0.897043659,1.86534428 C0.879054922,1.74828315 0.966967624,1.64227116 1.08215357,1.64227116 L2.15683559,1.64227116 C2.31061028,1.64227116 2.44146385,1.75754054 2.46554554,1.91372159 L2.71129491,3.51614515 C2.73508647,3.67262483 2.86623017,3.78789421 3.02000487,3.78789421 L3.73201072,3.78789421 C5.21434074,3.78789421 6.06996635,4.52609604 6.29337487,5.98965882 C6.39405378,6.6293143 6.29743684,7.13219937 6.00642549,7.48427864 C5.68640004,7.87129708 5.11917452,8.07615406 4.36625879,8.07615406" id="Shape" fill="#00457C"></path>
                                    <path d="M9.59062348,3.77481442 C9.48646288,3.14113145 8.99786555,2.71559035 8.37435269,2.71559035 C8.0618709,2.71559035 7.81147928,2.81921334 7.6507412,3.01511156 C7.49145383,3.20921803 7.43139465,3.48604372 7.48187918,3.79392644 C7.57878625,4.42223415 8.07550752,4.8612134 8.68944574,4.8612134 C8.99554442,4.8612134 9.24390506,4.75669453 9.40783469,4.55900456 C9.57292488,4.35982146 9.63791645,4.08150264 9.59062348,3.77481442 M11.0923929,5.93357699 L10.0148095,5.93357699 C9.9225447,5.93357699 9.84391651,5.86459453 9.82940946,5.77052755 L9.78211649,5.46055445 L9.70696999,5.57283758 C9.47340654,5.92133335 8.95318385,6.03809585 8.43383158,6.03809585 C7.24338333,6.03809585 6.22643936,5.10937105 6.02856324,3.80706596 C5.92556321,3.15725722 6.07179424,2.53641514 6.42982815,2.10310978 C6.75855783,1.7050422 7.22771572,1.53930514 7.7868173,1.53930514 C8.7466035,1.53930514 9.27872197,2.17358536 9.27872197,2.17358536 L9.23055858,1.86540401 C9.21256984,1.74834288 9.30048254,1.64233088 9.41595863,1.64233088 L10.3861899,1.64233088 C10.5402547,1.64233088 10.6711083,1.75730164 10.69519,1.91378131 L11.277793,5.71050386 C11.2957817,5.82756499 11.2075789,5.93357699 11.0923929,5.93357699" id="Shape" fill="#00457C"></path>
                                    <path d="M25.6411619,3.77481442 C25.5370013,3.14113145 25.0484039,2.71559035 24.4248911,2.71559035 C24.1124093,2.71559035 23.8620177,2.81921334 23.7012796,3.01511156 C23.5417021,3.20921803 23.481933,3.48604372 23.5324176,3.79392644 C23.6293246,4.42223415 24.1260459,4.8612134 24.7399841,4.8612134 C25.0460828,4.8612134 25.2944434,4.75669453 25.4583731,4.55900456 C25.6234633,4.35982146 25.6884548,4.08150264 25.6411619,3.77481442 M27.1429313,5.93357699 L26.0653479,5.93357699 C25.9730831,5.93357699 25.8944549,5.86459453 25.8799478,5.77052755 L25.8326549,5.46055445 L25.7572182,5.57283758 C25.5239449,5.92133335 25.0037222,6.03809585 24.48437,6.03809585 C23.2939217,6.03809585 22.2769777,5.10937105 22.0791016,3.80706596 C21.9761016,3.15725722 22.1223326,2.53641514 22.4803665,2.10310978 C22.8090962,1.7050422 23.2782541,1.53930514 23.8373557,1.53930514 C24.7971419,1.53930514 25.3292604,2.17358536 25.3292604,2.17358536 L25.281097,1.86540401 C25.2631082,1.74834288 25.3510209,1.64233088 25.466497,1.64233088 L26.4367283,1.64233088 C26.5907931,1.64233088 26.7216467,1.75730164 26.7457284,1.91378131 L27.3283314,5.71050386 C27.3463201,5.82756499 27.2581173,5.93357699 27.1429313,5.93357699" id="Shape" fill="#0079C1"></path>
                                    <path d="M16.8315837,5.93354712 L15.7484876,5.93354712 C15.6449073,5.93354712 15.5480002,5.88069044 15.489972,5.79229734 L13.9957462,3.52752278 L13.3626587,5.70390424 C13.3229094,5.84007739 13.2010502,5.93354712 13.0629431,5.93354712 L11.998416,5.93354712 C11.8698836,5.93354712 11.7793596,5.80334648 11.8208498,5.67822246 L13.013329,2.07500913 L11.8916442,0.446007916 C11.8037315,0.318196272 11.8925146,0.141410072 12.0448386,0.141410072 L13.1267741,0.141410072 C13.2291939,0.141410072 13.3252305,0.193072255 13.383839,0.279673603 L16.9856485,5.6304424 C17.0718204,5.75855267 16.9830373,5.93354712 16.8315837,5.93354712" id="Shape" fill="#00457C"></path>
                                    <path d="M28.4129942,7.91295531 L27.4894757,1.86519497 C27.4714869,1.74813384 27.5593996,1.64212184 27.6745856,1.64212184 L28.6036168,1.64212184 C28.7573915,1.64212184 28.8885352,1.75739122 28.9123268,1.9138709 L29.8230792,7.85293162 C29.8410679,7.96999275 29.7531552,8.07600475 29.6376791,8.07600475 L28.5983943,8.07600475 C28.5058393,8.07600475 28.4272112,8.00702229 28.4129942,7.91295531" id="Shape" fill="#0079C1"></path>
                                </g>
                            </g>
                        </g>
                    </g>
                </g>
            </g>
        </g>
    </g>
</svg>