<?xml version="1.0" encoding="UTF-8"?>
<svg width="37px" height="22px" viewBox="0 0 37 22" version="1.1" xmlns="http://www.w3.org/2000/svg" xmlns:xlink="http://www.w3.org/1999/xlink">
    <!-- Generator: Sketch 44.1 (41455) - http://www.bohemiancoding.com/sketch -->
    <title>Add new Payement</title>
    <desc>Created with Sketch.</desc>
    <defs>
        <path d="M224,38 L0,38 L0,200.992154 C0,204.867421 3.13241616,208 6.99644731,208 L768.003553,208 C771.857125,208 775,204.86248 775,200.992154 L775,45.0078464 C775,41.1325786 771.867584,38 768.003553,38 L444,38 L444,4.00718972 C444,1.79426827 442.206312,0 439.993687,0 L228.006313,0 C225.787011,0 224,1.79407995 224,4.00718972 L224,38 Z" id="path-1"></path>
        <rect id="path-2" x="0" y="0" width="175" height="75" rx="7"></rect>
    </defs>
    <g id="Page-1" stroke="none" stroke-width="1" fill="none" fill-rule="evenodd">
        <g id="Changes" transform="translate(-190.000000, -758.000000)">
            <g id="Payment-Methods" transform="translate(50.000000, 50.000000)">
                <g id="Add-new-Payement" transform="translate(0.000000, 571.000000)">
                    <g id="Combined-Shape">
                        <use fill="#FFFFFF" fill-rule="evenodd" xlink:href="#path-1"></use>
                        <path stroke="#E3E4DF" stroke-width="2" d="M1,39 L1,200.992154 C1,204.313685 3.68325188,207 6.99644731,207 L768.003553,207 C771.308319,207 774,204.306715 774,200.992154 L774,45.0078464 C774,41.6863147 771.316748,39 768.003553,39 L443,39 L443,4.00718972 C443,2.34643176 441.653906,1 439.993687,1 L228.006313,1 C226.341909,1 225,2.34374906 225,4.00718972 L225,39 L1,39 Z"></path>
                    </g>
                    <g id="Bloc" transform="translate(20.000000, 98.000000)">
                        <g id="Credit-Card">
                            <g id="BG">
                                <use fill="#FFFFFF" fill-rule="evenodd" xlink:href="#path-2"></use>
                                <rect stroke="#E3E4DF" stroke-width="2" x="1" y="1" width="173" height="73" rx="7"></rect>
                            </g>
                            <g id="Amex" transform="translate(120.000000, 39.000000)">
                                <rect id="Rectangle" fill="#0072CE" x="0" y="0" width="37" height="22" rx="2"></rect>
                                <path d="M34.0859375,13.5948896 L32.4946261,13.5948896 C32.3357483,13.5948896 32.2301971,13.6008214 32.1412829,13.6606882 C32.0491734,13.7196762 32.0136959,13.8072246 32.0136959,13.922784 C32.0136959,14.0602031 32.0914821,14.1536832 32.2046356,14.194107 C32.2967451,14.2260726 32.3956856,14.2354096 32.5411215,14.2354096 L33.0143391,14.2480421 C33.4918538,14.2597957 33.8106008,14.341632 34.0049561,14.5412247 C34.0403235,14.5690161 34.061588,14.6002127 34.0859375,14.6314094 L34.0859375,13.5948896 Z M34.0859375,15.9964826 C33.8738434,16.305703 33.460563,16.4624552 32.9010754,16.4624552 L31.2149001,16.4624552 L31.2149001,15.6813305 L32.8942443,15.6813305 C33.0608346,15.6813305 33.1774037,15.6594709 33.2475875,15.5911459 C33.3084062,15.5347942 33.350825,15.4529579 33.350825,15.353546 C33.350825,15.2474334 33.3084062,15.1631805 33.244172,15.1126507 C33.1808192,15.0570679 33.0885996,15.0318031 32.936553,15.0318031 C32.116713,15.0040117 31.0939238,15.0570679 31.0939238,13.9043297 C31.0939238,13.3759638 31.4304097,12.8198066 32.346656,12.8198066 L34.0858273,12.8198066 L34.0858273,12.0950337 L32.469946,12.0950337 C31.9822949,12.0950337 31.6280703,12.2114719 31.3771933,12.3925003 L31.3771933,12.0950337 L28.9870861,12.0950337 C28.6048761,12.0950337 28.1562283,12.1895024 27.944024,12.3925003 L27.944024,12.0950337 L23.6759202,12.0950337 L23.6759202,12.3925003 C23.3362392,12.1481998 22.7630894,12.0950337 22.4985503,12.0950337 L19.6832633,12.0950337 L19.6832633,12.3925003 C19.4145374,12.1330408 18.8169279,12.0950337 18.452677,12.0950337 L15.3018958,12.0950337 L14.5808862,12.8729727 L13.9056007,12.0950337 L9.19898559,12.0950337 L9.19898559,17.1778911 L13.817017,17.1778911 L14.5599522,16.3876491 L15.2598075,17.1778911 L18.1063853,17.1804176 L18.1063853,15.984729 L18.3862393,15.984729 C18.763932,15.9905509 19.2093846,15.9753919 19.6023921,15.8060073 L19.6023921,17.1777812 L21.9503009,17.1777812 L21.9503009,15.853022 L22.0635647,15.853022 C22.2081192,15.853022 22.2223322,15.8589537 22.2223322,16.0029636 L22.2223322,17.1776714 L29.3548627,17.1776714 C29.8076973,17.1776714 30.2810251,17.062112 30.5431403,16.8524133 L30.5431403,17.1776714 L32.8055504,17.1776714 C33.2763442,17.1776714 33.73612,17.1118728 34.0859375,16.943367 L34.0859375,15.9964826 L34.0859375,15.9964826 Z M30.6030776,14.5412247 C30.7730833,14.716651 30.8642012,14.9381032 30.8642012,15.3130123 C30.8642012,16.0966634 30.3731345,16.4624552 29.4925861,16.4624552 L27.7919774,16.4624552 L27.7919774,15.6813305 L29.485755,15.6813305 C29.6513537,15.6813305 29.7688042,15.6594709 29.8424036,15.5911459 C29.902451,15.5347942 29.9455309,15.4529579 29.9455309,15.353546 C29.9455309,15.2474334 29.8989253,15.1631805 29.838988,15.1126507 C29.7722197,15.0570679 29.6801103,15.0318031 29.5280637,15.0318031 C28.7115291,15.0040117 27.6889602,15.0570679 27.6889602,13.9043297 C27.6889602,13.3759638 28.0219204,12.8198066 28.9372853,12.8198066 L30.6876948,12.8198066 L30.6876948,13.5951093 L29.0860266,13.5951093 C28.927259,13.5951093 28.8240216,13.6010411 28.7362091,13.6609079 C28.640574,13.7198959 28.6050964,13.8074443 28.6050964,13.9230037 C28.6050964,14.0604228 28.6862981,14.1539029 28.7961463,14.1943267 C28.8882558,14.2262923 28.9871963,14.2356293 29.1359376,14.2356293 L29.60596,14.2482618 C30.0799489,14.2597957 30.4053067,14.3415222 30.6030776,14.5412247 L30.6030776,14.5412247 Z M22.7244167,14.3162573 C22.6076272,14.3853513 22.4631829,14.391283 22.2932873,14.391283 L21.2325967,14.391283 L21.2325967,13.5731398 L22.3077207,13.5731398 C22.4631829,13.5731398 22.6187553,13.5764353 22.7244167,13.6389384 C22.8375703,13.6979265 22.90522,13.8107397 22.90522,13.9666131 C22.90522,14.1224865 22.8375703,14.2480421 22.7244167,14.3162573 L22.7244167,14.3162573 Z M23.2517321,14.7695974 C23.4460874,14.841108 23.6049651,14.9692999 23.679446,15.0754125 C23.802736,15.2532553 23.8205849,15.4192347 23.8241106,15.7403186 L23.8241106,16.4624552 L22.9475286,16.4624552 L22.9475286,16.0066984 C22.9475286,15.7875529 22.968683,15.4630638 22.8063897,15.2936792 C22.6788027,15.1631805 22.4843372,15.1319839 22.1658105,15.1319839 L21.2327068,15.1319839 L21.2327068,16.4624552 L20.3553536,16.4624552 L20.3553536,12.8196967 L22.3711837,12.8196967 C22.8132208,12.8196967 23.135163,12.8391397 23.4217379,12.9916079 C23.6972949,13.1575872 23.8706061,13.3849713 23.8706061,13.8005239 C23.8704959,14.381946 23.481565,14.6786438 23.2517321,14.7695974 L23.2517321,14.7695974 Z M24.3547314,12.8196967 L27.2688487,12.8196967 L27.2688487,13.57303 L25.224262,13.57303 L25.224262,14.2352998 L27.2189378,14.2352998 L27.2189378,14.9785271 L25.224262,14.9785271 L25.224262,15.7033 L27.2688487,15.7065954 L27.2688487,16.4624552 L24.3547314,16.4624552 L24.3547314,12.8196967 L24.3547314,12.8196967 Z M18.4638051,14.5008009 L17.3354647,14.5008009 L17.3354647,13.5731398 L18.4739415,13.5731398 C18.7891629,13.5731398 19.0079779,13.7012219 19.0079779,14.0197792 C19.0079779,14.3348215 18.7992993,14.5008009 18.4638051,14.5008009 L18.4638051,14.5008009 Z M16.4658239,16.1311555 L15.1252793,14.6473373 L16.4658239,13.2106435 L16.4658239,16.1311555 L16.4658239,16.1311555 Z M13.003898,15.7033 L10.8571755,15.7033 L10.8571755,14.9785271 L12.7740651,14.9785271 L12.7740651,14.2352998 L10.8571755,14.2352998 L10.8571755,13.57303 L13.0462066,13.57303 L14.0012359,14.634595 L13.003898,15.7033 L13.003898,15.7033 Z M19.9453785,14.0197792 C19.9453785,15.0316932 19.1881201,15.2406229 18.424912,15.2406229 L17.3354647,15.2406229 L17.3354647,16.4624552 L15.6383817,16.4624552 L14.5632576,15.2565508 L13.445935,16.4624552 L9.98742461,16.4624552 L9.98742461,12.8196967 L13.4991514,12.8196967 L14.573394,14.0137376 L15.6839957,12.8196967 L18.4739415,12.8196967 C19.1668556,12.8196967 19.9453785,13.010941 19.9453785,14.0197792 L19.9453785,14.0197792 Z" id="EXPRESS" fill="#FFFFFF"></path>
                                <path d="M5.82167688,8.6217697 L5.22406743,7.16991703 L4.62987352,8.6217697 L5.82167688,8.6217697 Z M18.9869337,8.043643 C18.8669491,8.11625211 18.7250389,8.11866876 18.5550331,8.11866876 L17.4943424,8.11866876 L17.4943424,7.30975273 L18.5694665,7.30975273 C18.7216233,7.30975273 18.8803909,7.31656327 18.9835182,7.37544146 C19.0967819,7.42849774 19.1668556,7.54142083 19.1668556,7.6974041 C19.1668556,7.85657293 19.1001975,7.98465497 18.9869337,8.043643 L18.9869337,8.043643 Z M26.5537888,8.6217697 L25.9495686,7.16991703 L25.3486538,8.6217697 L26.5537888,8.6217697 L26.5537888,8.6217697 Z M12.4487073,10.1932462 L11.5536153,10.1932462 L11.5503099,7.34094939 L10.2842461,10.1932462 L9.51762249,10.1932462 L8.2482533,7.3384229 L8.2482533,10.1932462 L6.47239248,10.1932462 L6.13689824,9.38092487 L4.31894914,9.38092487 L3.98003935,10.1932462 L3.031731,10.1932462 L4.5952774,6.5513665 L5.89252181,6.5513665 L7.37751077,9.9994754 L7.37751077,6.5513665 L8.80256251,6.5513665 L9.94522615,9.02194367 L10.9948989,6.5513665 L12.4485971,6.5513665 L12.4485971,10.1932462 L12.4487073,10.1932462 Z M16.0161845,10.1932462 L13.0994229,10.1932462 L13.0994229,6.5513665 L16.0161845,6.5513665 L16.0161845,7.30975273 L13.9725894,7.30975273 L13.9725894,7.96620061 L15.967155,7.96620061 L15.967155,8.71272332 L13.9725894,8.71272332 L13.9725894,9.44002275 L16.0161845,9.44002275 L16.0161845,10.1932462 L16.0161845,10.1932462 Z M20.1287159,7.53219365 C20.1287159,8.11284684 19.7400054,8.41284001 19.5134779,8.50291485 C19.7045278,8.57541411 19.8677025,8.70349615 19.9453785,8.8096087 C20.0686685,8.99074701 20.089933,9.15255219 20.089933,9.47781025 L20.089933,10.1932462 L19.2092744,10.1932462 L19.205969,9.73397431 C19.205969,9.51482881 19.2270132,9.19967671 19.0681354,9.02447016 C18.9405485,8.89638813 18.746083,8.86859674 18.4317431,8.86859674 L17.4944526,8.86859674 L17.4944526,10.1932462 L16.6213963,10.1932462 L16.6213963,6.5513665 L18.6296241,6.5513665 C19.075848,6.5513665 19.4046213,6.56312017 19.6868992,6.72580412 C19.9631173,6.88848807 20.1287159,7.12597808 20.1287159,7.53219365 L20.1287159,7.53219365 Z M21.5260026,10.1932462 L20.6350974,10.1932462 L20.6350974,6.5513665 L21.5260026,6.5513665 L21.5260026,10.1932462 L21.5260026,10.1932462 Z M31.8616492,10.1932462 L30.6243421,10.1932462 L28.9693473,7.45980424 L28.9693473,10.1932462 L27.1911727,10.1932462 L26.8513815,9.38092487 L25.0376192,9.38092487 L24.7079644,10.1932462 L23.686277,10.1932462 C23.2618686,10.1932462 22.7245269,10.0996562 22.4202132,9.79043586 C22.1133655,9.48121552 21.9537165,9.0623675 21.9537165,8.40009771 C21.9537165,7.8599782 22.0491312,7.36621428 22.4244,6.97603643 C22.7066779,6.68538029 23.148715,6.5513665 23.7504011,6.5513665 L24.5956923,6.5513665 L24.5956923,7.33172221 L23.7681398,7.33172221 C23.4495029,7.33172221 23.2695811,7.37895657 23.0962699,7.54746244 C22.9474185,7.70080936 22.8452828,7.99069657 22.8452828,8.37241618 C22.8452828,8.76259403 22.923069,9.04391314 23.0853622,9.22768779 C23.2197803,9.37180754 23.4640465,9.41552679 23.6938794,9.41552679 L24.0860055,9.41552679 L25.3165918,6.55147635 L26.624854,6.55147635 L28.1031221,9.99617998 L28.1031221,6.55147635 L29.4325387,6.55147635 L30.9673285,9.08785209 L30.9673285,6.55147635 L31.8616492,6.55147635 L31.8616492,10.1932462 L31.8616492,10.1932462 Z M3.02159455,10.9085722 L4.5134146,10.9085722 L4.84979027,10.0996562 L5.60286192,10.0996562 L5.93835616,10.9085722 L8.87362779,10.9085722 L8.87362779,10.2901315 L9.13563282,10.9112086 L10.6594047,10.9112086 L10.9214097,10.2809044 L10.9214097,10.9085722 L18.2161233,10.9085722 L18.2127078,9.58073723 L18.3538467,9.58073723 C18.452677,9.5841425 18.4815439,9.59325983 18.4815439,9.75594378 L18.4815439,10.9085722 L22.2543942,10.9085722 L22.2543942,10.5994617 C22.5587079,10.7620358 23.0320357,10.9085722 23.6548761,10.9085722 L25.2421109,10.9085722 L25.581792,10.0996562 L26.3348636,10.0996562 L26.6670525,10.9085722 L29.7257243,10.9085722 L29.7257243,10.1401899 L30.1889157,10.9085722 L32.6399518,10.9085722 L32.6399518,5.8292299 L30.2142568,5.8292299 L30.2142568,6.42910638 L29.8745758,5.8292299 L27.385528,5.8292299 L27.385528,6.42910638 L27.073612,5.8292299 L23.711508,5.8292299 C23.148715,5.8292299 22.6540125,5.90755107 22.2543942,6.12581779 L22.2543942,5.8292299 L19.9342505,5.8292299 L19.9342505,6.12581779 C19.6799579,5.90085038 19.3334458,5.8292299 18.9481508,5.8292299 L10.4717703,5.8292299 L9.9030277,7.14113702 L9.31897023,5.8292299 L6.64911917,5.8292299 L6.64911917,6.42910638 L6.35582338,5.8292299 L4.07886968,5.8292299 L3.02148437,8.2442243 L3.02148437,10.9085722 L3.02159455,10.9085722 Z" id="AMERICAN" fill="#FFFFFF"></path>
                            </g>
                        </g>
                    </g>
                </g>
            </g>
        </g>
    </g>
</svg>