<?xml version="1.0" encoding="UTF-8"?>
<svg width="37px" height="22px" viewBox="0 0 37 22" version="1.1" xmlns="http://www.w3.org/2000/svg" xmlns:xlink="http://www.w3.org/1999/xlink">
    <!-- Generator: Sketch 44.1 (41455) - http://www.bohemiancoding.com/sketch -->
    <title>Add new Payement</title>
    <desc>Created with Sketch.</desc>
    <defs>
        <path d="M224,38 L0,38 L0,200.992154 C0,204.867421 3.13241616,208 6.99644731,208 L768.003553,208 C771.857125,208 775,204.86248 775,200.992154 L775,45.0078464 C775,41.1325786 771.867584,38 768.003553,38 L444,38 L444,4.00718972 C444,1.79426827 442.206312,0 439.993687,0 L228.006313,0 C225.787011,0 224,1.79407995 224,4.00718972 L224,38 Z" id="path-1"></path>
        <rect id="path-2" x="0" y="0" width="175" height="75" rx="7"></rect>
    </defs>
    <g id="Page-1" stroke="none" stroke-width="1" fill="none" fill-rule="evenodd">
        <g id="Changes" transform="translate(-110.000000, -758.000000)">
            <g id="Payment-Methods" transform="translate(50.000000, 50.000000)">
                <g id="Add-new-Payement" transform="translate(0.000000, 571.000000)">
                    <g id="Combined-Shape">
                        <use fill="#FFFFFF" fill-rule="evenodd" xlink:href="#path-1"></use>
                        <path stroke="#E3E4DF" stroke-width="2" d="M1,39 L1,200.992154 C1,204.313685 3.68325188,207 6.99644731,207 L768.003553,207 C771.308319,207 774,204.306715 774,200.992154 L774,45.0078464 C774,41.6863147 771.316748,39 768.003553,39 L443,39 L443,4.00718972 C443,2.34643176 441.653906,1 439.993687,1 L228.006313,1 C226.341909,1 225,2.34374906 225,4.00718972 L225,39 L1,39 Z"></path>
                    </g>
                    <g id="Bloc" transform="translate(20.000000, 98.000000)">
                        <g id="Credit-Card">
                            <g id="BG">
                                <use fill="#FFFFFF" fill-rule="evenodd" xlink:href="#path-2"></use>
                                <rect stroke="#E3E4DF" stroke-width="2" x="1" y="1" width="173" height="73" rx="7"></rect>
                            </g>
                            <g id="Visa" transform="translate(40.000000, 39.000000)">
                                <rect id="Rectangle" fill="#26337A" x="0" y="0" width="37" height="22" rx="2"></rect>
                                <g id="Group-6" transform="translate(2.000000, 6.000000)">
                                    <polyline id="Fill-3" fill="#FFFFFF" points="10.8929956 9.86935527 12.3768905 0.743392424 14.7488433 0.743392424 13.265084 9.86935527 10.8929956 9.86935527"></polyline>
                                    <path d="M21.8689073,0.967387081 C21.3999162,0.784228995 20.6623099,0.584493686 19.7434563,0.584493686 C17.3983651,0.584493686 15.7476031,1.82293346 15.733901,3.59629189 C15.718978,4.90804881 16.9118733,5.63960296 17.8111912,6.07559738 C18.7354714,6.5225085 19.0460067,6.80849927 19.0423438,7.20810466 C19.0359676,7.81930549 18.3046019,8.0993662 17.622618,8.0993662 C16.6729686,8.0993662 16.1684335,7.96149223 15.3883643,7.62078315 L15.0832556,7.4754966 L14.7515566,9.51826858 C15.3046595,9.77245265 16.3300095,9.99307795 17.3941595,10.0046685 C19.8864464,10.0046685 21.5058699,8.78118868 21.5248629,6.88747693 C21.5334097,5.84728995 20.9013503,5.0588611 19.5324985,4.40790189 C18.7035903,3.98471102 18.1948495,3.70438077 18.2006831,3.27606848 C18.2012258,2.89681399 18.6304673,2.49073944 19.5594957,2.49073944 C20.3353592,2.47834021 20.897009,2.65597256 21.3346617,2.84142181 L21.5476545,2.94573701 L21.8689073,0.967387081" id="Fill-4" fill="#FFFFFF"></path>
                                    <path d="M25.0273054,6.63383196 C25.2238828,6.10929092 25.9722066,4.08296139 25.9722066,4.08296139 C25.9583688,4.10708596 26.1676987,3.55437712 26.2874901,3.2123203 L26.4475739,3.99940141 C26.4475739,3.99940141 26.9027273,6.17762142 26.9964712,6.63383196 L25.0273054,6.63383196 L25.0273054,6.63383196 Z M27.9535821,0.752691841 L26.1204875,0.752691841 C25.5519189,0.752691841 25.1263403,0.914151287 24.8772608,1.50917921 L21.35474,9.87258985 L23.8460773,9.87258985 C23.8460773,9.87258985 24.2525272,8.74749514 24.3447789,8.50058888 C24.6165142,8.50058888 27.0373062,8.50530597 27.3828429,8.50530597 C27.4539309,8.82377732 27.6716719,9.87258985 27.6716719,9.87258985 L29.8732305,9.87258985 L27.9535821,0.752691841 L27.9535821,0.752691841 Z" id="Fill-5" fill="#FFFFFF"></path>
                                    <path d="M8.90307313,0.751074551 L6.58145175,6.97278898 L6.33277928,5.70806824 C5.90014616,4.25089 4.55340769,2.67147159 3.04699247,1.88007771 L5.17095111,9.86140359 L7.68128139,9.85992108 L11.4166593,0.751074551 L8.90307313,0.751074551" id="Fill-6" fill="#FFFFFF"></path>
                                    <path d="M4.42629034,0.744874939 L0.601238349,0.744874939 L0.569764256,0.933963089 C3.54610104,1.68991136 5.5154025,3.51461875 6.33277928,5.70806824 L5.50156476,1.51483973 C5.3581677,0.936523798 4.94140729,0.765091064 4.42629034,0.744874939" id="Fill-7" fill="#ED982D"></path>
                                </g>
                            </g>
                        </g>
                    </g>
                </g>
            </g>
        </g>
    </g>
</svg>