<?xml version="1.0" encoding="utf-8"?>
<!-- Generator: Adobe Illustrator 24.0.1, SVG Export Plug-In . SVG Version: 6.00 Build 0)  -->
<svg version="1.1" id="Calque_1" xmlns="http://www.w3.org/2000/svg" xmlns:xlink="http://www.w3.org/1999/xlink" x="0px" y="0px"
	 viewBox="0 0 320 241" style="enable-background:new 0 0 320 241;" xml:space="preserve">
<style type="text/css">
	.st0{fill:none;stroke:#C9C9C9;stroke-width:0.5369;}
	.st1{fill:none;stroke:#B0CA67;stroke-width:0.5369;}
	.st2{opacity:0.15;fill-rule:evenodd;clip-rule:evenodd;fill:#122844;enable-background:new    ;}
	.st3{fill:none;stroke:#B90B24;stroke-width:0.5369;stroke-linejoin:round;}
	.st4{fill-rule:evenodd;clip-rule:evenodd;fill:#FF4915;}
	.st5{opacity:0.25;fill-rule:evenodd;clip-rule:evenodd;fill:#E9EBE7;enable-background:new    ;}
	.st6{fill:none;stroke:#B90B24;stroke-width:0.5369;}
	.st7{fill-rule:evenodd;clip-rule:evenodd;fill:#B90B24;}
	.st8{fill:none;}
	.st9{fill:#B90B24;}
	.st10{font-family:'Helvetica';}
	.st11{font-size:8.6914px;}
	.st12{fill:#B0CA67;}
	.st13{fill-rule:evenodd;clip-rule:evenodd;fill:#E0EAC2;}
	.st14{fill-rule:evenodd;clip-rule:evenodd;fill:#E0EAC2;stroke:#B0CA67;stroke-width:0.5369;}
	.st15{opacity:0.4;}
	.st16{fill-rule:evenodd;clip-rule:evenodd;fill:#E3CD4D;}
	.st17{fill:#57710E;}
	.st18{font-size:9.1275px;}
	.st19{fill-rule:evenodd;clip-rule:evenodd;fill:#B0CA67;}
	.st20{fill-rule:evenodd;clip-rule:evenodd;fill:#FFFFFF;}
	.st21{fill:#FFFFFF;}
	.st22{font-size:10.7383px;}
	.st23{enable-background:new    ;}
	.st24{fill:#122844;}
	.st25{opacity:0.1;}
	.st26{fill-rule:evenodd;clip-rule:evenodd;fill:#13C4E4;}
	.st27{fill:none;stroke:#122844;stroke-width:0.5369;stroke-linecap:round;stroke-linejoin:round;}
	.st28{fill:none;stroke:#13C4E4;stroke-width:0.5369;stroke-linecap:round;stroke-linejoin:round;}
	.st29{fill:none;stroke:#E3CD4D;stroke-width:1.0738;stroke-dasharray:2.1477,3.2215;}
	.st30{fill:none;stroke:#B0CA67;stroke-width:1.0738;}
	.st31{opacity:0.1;fill-rule:evenodd;clip-rule:evenodd;fill:#13C4E4;enable-background:new    ;}
	.st32{fill-rule:evenodd;clip-rule:evenodd;fill:#E7DCA1;}
	.st33{fill:#E3CD4D;}
	.st34{fill:#8A5300;}
	.st35{fill-rule:evenodd;clip-rule:evenodd;fill:#D9AE00;}
</style>
<title>zerto-one-and-one-pcc</title>
<desc>Created with Sketch.</desc>
<g id="Page-1">
	<g id="zerto-0A" transform="translate(-847.000000, -656.000000)">
		<g id="zerto-one-and-one-pcc" transform="translate(848.000000, 656.000000)">
			<g id="Group-13" transform="translate(34.000000, 0.000000)">
				<g id="Group-6">
					<g id="schema-zerto-copy">
						<path id="Path" class="st0" d="M66.3,117.7c0-14.8,23.9-17.9,36.8-17.9"/>
						<path id="Path_1_" class="st1" d="M184.9,117.7c0-14.8-23.9-17.9-36.8-17.9"/>
						<g id="Group" transform="translate(98.543624, 67.651007)">
							<path id="Path_2_" class="st2" d="M50.4,37.5h-0.2c-0.1,1.3-1.1,2.1-2.5,2.1H6.5c-1.3,0-2.4-0.9-2.5-2.1l0,0
								c-0.4,0-0.8,0.2-1,0.4l-2.9,2.7c-0.3,0.3-0.1,0.8,0.3,0.8h53.1c0.4,0,0.6-0.5,0.3-0.8L51.4,38C51.2,37.6,50.8,37.5,50.4,37.5
								z"/>
							<path id="Path_3_" class="st3" d="M47.8,39.6H6.5c-1.5,0-2.6-1.3-2.4-2.8l1.1-7.4h43.9l1.1,7.4
								C50.5,38.2,49.3,39.6,47.8,39.6z"/>
							<polyline id="Path_4_" class="st3" points="15,24.1 12.6,24.1 5.2,29.4 49.1,29.4 41.8,24.1 39,24.1 							"/>
							<ellipse id="Oval" class="st2" cx="27.2" cy="26.6" rx="12.3" ry="1.2"/>
							<path id="Path_5_" class="st4" d="M39.5,24.6c0,0.8-5.5,1.5-12.3,1.5s-12.3-0.6-12.3-1.5s0-10.4,12.3-10.4
								S39.5,23.8,39.5,24.6z"/>
							<path id="Path_6_" class="st5" d="M27.2,14.2c-2.4,0-4.2,0.4-5.8,0.9c-0.1,2.7,3.3,5.8,8.2,7.2c3.9,1.1,7.6,0.8,9.6-0.5
								C38.2,18.7,35.5,14.2,27.2,14.2z"/>
							<path id="Path_7_" class="st6" d="M39.5,24.6c0,0.8-5.5,1.5-12.3,1.5s-12.3-0.6-12.3-1.5"/>
							<path id="Path_8_" class="st6" d="M14.9,24.6c0-0.8,0-10.4,12.3-10.4s12.3,9.6,12.3,10.4"/>
							<path id="Path_9_" class="st7" d="M30.2,26.8c0,0.1-1.3,0.2-2.9,0.2s-2.9-0.1-2.9-0.2s0-0.8,0-0.8l5.7-0.1
								C30.2,26,30.2,26.7,30.2,26.8z"/>
							<rect id="Rectangle" x="4.5" y="31.6" class="st8" width="45.3" height="7.5"/>
							<text transform="matrix(1 0 0 1 11.9198 38.6791)" class="st9 st10 st11">FailOver</text>
							<g transform="translate(7.516779, 0.000000)">
								<path id="Shape" class="st9" d="M12.3,4.2c0.6,0,1.1,0.3,1.1,1.6H11C11.2,4.6,11.7,4.2,12.3,4.2 M15.7,10.1l-0.5-1.5
									c-1,0.4-1.7,0.5-2.3,0.5c-1.2,0-1.7-0.7-1.8-1.8h4.7c0-0.3,0.1-0.9,0.1-1c0-2.6-1.3-3.7-3.3-3.7c-2.1,0-3.8,1.3-3.8,4.1
									c0,2.4,1,4.2,3.9,4.2C13.7,10.9,14.7,10.6,15.7,10.1"/>
								<path id="Shape_1_" class="st9" d="M33.1,4.2c0.2,0,0.4,0.1,0.6,0.1l-2.2,3.4c-0.1-0.3-0.1-0.6-0.1-1.1
									C31.5,4.9,32.2,4.2,33.1,4.2L33.1,4.2z M32.4,9.1c-0.2,0-0.3-0.1-0.4-0.3L32.4,9.1z M34.7,6.7c0,1.9-0.6,2.6-1.6,2.6
									c-0.3,0-0.5-0.1-0.7-0.2l2.2-3.5C34.6,6,34.7,6.3,34.7,6.7L34.7,6.7z M37.1,6.6c0-2.3-1.1-4-3.9-4c-2.8,0-4.1,1.7-4.1,4.2
									c0,2.4,1.1,4.1,3.9,4.1C35.8,10.9,37.1,9.2,37.1,6.6L37.1,6.6z"/>
								<path id="Path_10_" class="st7" d="M29.4,10.3c0,0-0.5-1.3-0.6-1.3c-0.1,0-0.3,0-0.4,0.1c0,0,0,0-0.1,0
									c-0.2,0.1-0.4,0.1-0.7,0.1c-0.8,0-1.1-0.4-1.1-1.3V7.7V4.1V4l0,0h2.3V2.5h-2.1c-0.1,0-0.1-0.1-0.1-0.2V0.5l0,0V0.4h-1.5
									C25.1,0.7,25,1,25,1.2c-0.3,0.8-0.9,1.1-1.9,1.2v0.2l0,0v1v0.3l0,0h0.1h0.3h0.7c0.1,0,0.1,0.1,0.1,0.2v0.1v3.9l0,0v0.1
									c0,1.7,0.7,2.5,2.5,2.5C27.7,10.9,28.7,10.6,29.4,10.3"/>
								<path id="Path_11_" class="st7" d="M8.1,10.1V10V7.5H6.5L6.2,9c0,0.2,0,0.2-0.2,0.2H2.8l5.3-7.3V0.5H2.7H0.4H0.2H0.1v3.3
									h0.1h0.3h1.3L2,2.3c0-0.2,0-0.2,0.2-0.2h3L0.1,9.3v1v0.4h8.1L8.1,10.1L8.1,10.1z"/>
								<path id="Path_12_" class="st7" d="M20.6,10.3V9.4l0,0l-0.7-0.1c-0.1,0-0.2-0.1-0.2-0.1c-0.1-0.1-0.1-0.1-0.1-0.2l0,0l0,0
									l0,0l0,0V5c0,0,0.1-0.1,0.2-0.2c0.3-0.3,1.1-0.7,2.5-0.7h0.1V3.8c0-0.4,0-0.9,0-0.9V2.6l0,0l0,0c-0.3-0.1-0.6-0.1-0.9-0.1
									c-1,0-1.7,0.6-2.1,1.4h-0.1l-0.2-1.2h-2.7l-0.2,1.2l0.9,0.3c0.2,0.1,0.2,0.2,0.2,0.3V9c0,0.2-0.1,0.3-0.3,0.3l-0.7,0.1v1.2
									h4.2v-0.3H20.6z"/>
							</g>
						</g>
						<g id="Group_4_" transform="translate(0.000000, 117.000000)">
							<g id="Group-21">
								<path id="Shape_2_" class="st12" d="M283.6,1v121h-153V1H283.6L283.6,1z M284.1,0.4H130v122.1h154.1V0.4L284.1,0.4z"/>
								<g id="Group_1_" transform="translate(179.181208, 47.751678)">
									<g>
										<polygon id="Path_13_" class="st13" points="0.4,48.2 0.4,16.5 27.9,0.6 55.3,16.5 55.3,48.2 27.8,48.2 27.9,48.2 
																					"/>
										<path id="Shape_3_" class="st12" d="M27.9,1l27.2,15.7v31.2L27.9,48L0.6,47.9V16.6L27.9,1L27.9,1z M27.9,0.3l-27.8,16
											v32.1l27.8,0.1l27.8-0.1V16.3L27.9,0.3L27.9,0.3z"/>
									</g>
									<g>
										<polygon id="Path_14_" class="st13" points="0.4,48.2 0.4,16.5 27.9,0.6 55.3,16.5 55.3,48.2 27.8,48.2 27.9,48.2 
																					"/>
										<path id="Shape_4_" class="st12" d="M27.9,1l27.2,15.7v31.2L27.9,48L0.6,47.9V16.6L27.9,1L27.9,1z M27.9,0.3l-27.8,16
											v32.1l27.8,0.1l27.8-0.1V16.3L27.9,0.3L27.9,0.3z"/>
									</g>
									<polyline id="Path_15_" class="st14" points="27.9,48.7 27.6,32.5 55.3,16.8 									"/>
									<path id="Path_16_" class="st14" d="M0.1,16.6l27.5,15.8"/>
									<g transform="translate(10.201342, 6.442953)">
										<polygon id="Path_17_" class="st13" points="1,10.1 17.6,0.5 34,10.3 17.3,19.7 										"/>
										<path id="Shape_5_" class="st12" d="M17.6,0.9l15.9,9.3l-16.2,9.1L1.4,10.1L17.6,0.9L17.6,0.9z M17.6,0.2L0.4,10.1
											L17.3,20l17.3-9.7L17.6,0.2L17.6,0.2z"/>
									</g>
								</g>
								<g id="Group_2_" transform="translate(133.543624, 86.979866)">
									<g>
										<g>
											<g id="Rectangle_1_" class="st15">
												<rect x="0.5" y="0.4" class="st16" width="24.3" height="24.3"/>
											</g>
											<g>
												<rect id="Rectangle_2_" x="0.8" y="0.7" class="st13" width="23.8" height="23.8"/>
												<path id="Shape_6_" class="st12" d="M24.3,1v23.2H1V1H24.3L24.3,1z M24.8,0.4H0.5v24.3h24.3V0.4L24.8,0.4z"/>
											</g>
											<rect id="Rectangle_3_" x="0.5" y="9.2" class="st8" width="24.3" height="15.6"/>
											<text transform="matrix(1 0 0 1 6.4438 16.0891)" class="st17 st10 st18">VM</text>
										</g>
										<g transform="translate(16.644295, 16.107383)">
											<circle id="Oval_1_" class="st19" cx="4.9" cy="5" r="4.9"/>
											<path id="Path_18_" class="st20" d="M7.7,3.5L7.4,3.1C7.2,3,7,3,6.9,3.1L6.6,3.3c-0.5,0.4-1,0.9-1.4,1.3l-1,0.9l0,0
												C4.1,5.7,4,5.7,3.9,5.9C3.6,5.5,3.3,5.2,3,4.8c-0.2-0.2-0.4-0.2-0.5,0v0.1C2.4,5,2.3,5,2.2,5.2C2,5.3,2,5.5,2.2,5.6
												l1.2,1.3C3.5,7,3.7,7.1,3.8,7.2c0.2,0.2,0.4,0.2,0.5,0l1.5-1.4c0.7-0.6,1.3-1.3,2-1.9C7.8,3.9,7.8,3.7,7.7,3.5z"/>
										</g>
									</g>
									<g transform="translate(30.067114, 0.000000)">
										<g>
											<g id="Rectangle_4_" class="st15">
												<rect x="0.5" y="0.4" class="st16" width="24.3" height="24.3"/>
											</g>
											<g>
												<rect id="Rectangle_5_" x="0.8" y="0.7" class="st13" width="23.8" height="23.8"/>
												<path id="Shape_7_" class="st12" d="M24.3,1v23.2H1V1H24.3L24.3,1z M24.8,0.4H0.5v24.3h24.3V0.4L24.8,0.4z"/>
											</g>
											<rect id="Rectangle_6_" x="0.5" y="9.2" class="st8" width="24.3" height="15.6"/>
											<text transform="matrix(1 0 0 1 6.4438 16.0891)" class="st17 st10 st18">VM</text>
										</g>
										<g transform="translate(16.644295, 16.107383)">
											<circle id="Oval_2_" class="st19" cx="4.9" cy="5" r="4.9"/>
											<path id="Path_19_" class="st20" d="M7.7,3.5L7.4,3.1C7.2,3,7,3,6.9,3.1L6.6,3.3c-0.5,0.4-1,0.9-1.4,1.3l-1,0.9l0,0
												C4.1,5.7,4,5.7,3.9,5.9C3.6,5.5,3.3,5.2,3,4.8c-0.2-0.2-0.4-0.2-0.5,0v0.1C2.4,5,2.3,5,2.2,5.2C2,5.3,2,5.5,2.2,5.6
												l1.2,1.3C3.5,7,3.7,7.1,3.8,7.2c0.2,0.2,0.4,0.2,0.5,0l1.5-1.4c0.7-0.6,1.3-1.3,2-1.9C7.8,3.9,7.8,3.7,7.7,3.5z"/>
										</g>
									</g>
									<g transform="translate(60.134228, 0.000000)">
										<g>
											<g id="Rectangle_7_" class="st15">
												<rect x="0.5" y="0.4" class="st16" width="24.3" height="24.3"/>
											</g>
											<g>
												<rect id="Rectangle_8_" x="0.8" y="0.7" class="st13" width="23.8" height="23.8"/>
												<path id="Shape_8_" class="st12" d="M24.3,1v23.2H1V1H24.3L24.3,1z M24.8,0.4H0.5v24.3h24.3V0.4L24.8,0.4z"/>
											</g>
											<rect id="Rectangle_9_" x="0.5" y="9.2" class="st8" width="24.3" height="15.6"/>
											<text transform="matrix(1 0 0 1 6.4438 16.0891)" class="st17 st10 st18">VM</text>
										</g>
										<g transform="translate(16.644295, 16.107383)">
											<circle id="Oval_3_" class="st19" cx="4.9" cy="5" r="4.9"/>
											<path id="Path_20_" class="st20" d="M7.7,3.5L7.4,3.1C7.2,3,7,3,6.9,3.1L6.6,3.3c-0.5,0.4-1,0.9-1.4,1.3l-1,0.9l0,0
												C4.1,5.7,4,5.7,3.9,5.9C3.6,5.5,3.3,5.2,3,4.8c-0.2-0.2-0.4-0.2-0.5,0v0.1C2.4,5,2.3,5,2.2,5.2C2,5.3,2,5.5,2.2,5.6
												l1.2,1.3C3.5,7,3.7,7.1,3.8,7.2c0.2,0.2,0.4,0.2,0.5,0l1.5-1.4c0.7-0.6,1.3-1.3,2-1.9C7.8,3.9,7.8,3.7,7.7,3.5z"/>
										</g>
									</g>
									<g transform="translate(90.201342, 0.000000)">
										<g>
											<g id="Rectangle_10_" class="st15">
												<rect x="0.5" y="0.4" class="st16" width="24.3" height="24.3"/>
											</g>
											<g>
												<rect id="Rectangle_11_" x="0.8" y="0.7" class="st13" width="23.8" height="23.8"/>
												<path id="Shape_9_" class="st12" d="M24.3,1v23.2H1V1H24.3L24.3,1z M24.8,0.4H0.5v24.3h24.3V0.4L24.8,0.4z"/>
											</g>
											<rect id="Rectangle_12_" x="0.5" y="9.2" class="st8" width="24.3" height="15.6"/>
											<text transform="matrix(1 0 0 1 6.4438 16.0891)" class="st17 st10 st18">VM</text>
										</g>
										<g transform="translate(16.644295, 16.107383)">
											<circle id="Oval_4_" class="st19" cx="4.9" cy="5" r="4.9"/>
											<path id="Path_21_" class="st20" d="M7.7,3.5L7.4,3.1C7.2,3,7,3,6.9,3.1L6.6,3.3c-0.5,0.4-1,0.9-1.4,1.3l-1,0.9l0,0
												C4.1,5.7,4,5.7,3.9,5.9C3.6,5.5,3.3,5.2,3,4.8c-0.2-0.2-0.4-0.2-0.5,0v0.1C2.4,5,2.3,5,2.2,5.2C2,5.3,2,5.5,2.2,5.6
												l1.2,1.3C3.5,7,3.7,7.1,3.8,7.2c0.2,0.2,0.4,0.2,0.5,0l1.5-1.4c0.7-0.6,1.3-1.3,2-1.9C7.8,3.9,7.8,3.7,7.7,3.5z"/>
										</g>
									</g>
									<g transform="translate(120.268456, 0.000000)">
										<g>
											<g id="Rectangle_13_" class="st15">
												<rect x="0.5" y="0.4" class="st16" width="24.3" height="24.3"/>
											</g>
											<g>
												<rect id="Rectangle_14_" x="0.8" y="0.7" class="st13" width="23.8" height="23.8"/>
												<path id="Shape_10_" class="st12" d="M24.3,1v23.2H1V1H24.3L24.3,1z M24.8,0.4H0.5v24.3h24.3V0.4L24.8,0.4z"/>
											</g>
											<rect id="Rectangle_15_" x="0.5" y="9.2" class="st8" width="24.3" height="15.6"/>
											<text transform="matrix(1 0 0 1 6.4438 16.0891)" class="st17 st10 st18">VM</text>
										</g>
										<g transform="translate(16.644295, 16.107383)">
											<circle id="Oval_5_" class="st19" cx="4.9" cy="5" r="4.9"/>
											<path id="Path_22_" class="st20" d="M7.7,3.5L7.4,3.1C7.2,3,7,3,6.9,3.1L6.6,3.3c-0.5,0.4-1,0.9-1.4,1.3l-1,0.9l0,0
												C4.1,5.7,4,5.7,3.9,5.9C3.6,5.5,3.3,5.2,3,4.8c-0.2-0.2-0.4-0.2-0.5,0v0.1C2.4,5,2.3,5,2.2,5.2C2,5.3,2,5.5,2.2,5.6
												l1.2,1.3C3.5,7,3.7,7.1,3.8,7.2c0.2,0.2,0.4,0.2,0.5,0l1.5-1.4c0.7-0.6,1.3-1.3,2-1.9C7.8,3.9,7.8,3.7,7.7,3.5z"/>
										</g>
									</g>
								</g>
								<g id="Group_3_" transform="translate(197.436242, 43.456376)">
									<circle id="Oval_6_" class="st19" cx="9.6" cy="9.9" r="9.6"/>
									<rect id="Rectangle_16_" x="0.1" y="6.1" class="st8" width="19.1" height="13.4"/>
									<text transform="matrix(1 0 0 1 6.6741 13.5174)" class="st21 st10 st22">B</text>
								</g>
								<g class="st23">
									<path class="st24" d="M7.8,22.1c-0.6,0-1.2-0.1-1.8-0.4c-0.5-0.2-1-0.6-1.4-1.1c-0.4-0.5-0.7-1-0.9-1.7s-0.3-1.4-0.3-2.2
										c0-0.8,0.1-1.5,0.3-2.2C3.9,14,4.2,13.4,4.6,13C5,12.5,5.5,12.2,6,12c0.5-0.2,1.1-0.4,1.8-0.4S9,11.7,9.5,12
										c0.5,0.2,1,0.6,1.4,1c0.4,0.4,0.7,1,0.9,1.6c0.2,0.6,0.3,1.4,0.3,2.2c0,0.8-0.1,1.6-0.3,2.2s-0.5,1.2-0.9,1.7
										c-0.4,0.5-0.8,0.8-1.4,1.1C9,22,8.4,22.1,7.8,22.1z M7.8,21c0.5,0,0.9-0.1,1.2-0.3c0.4-0.2,0.7-0.5,0.9-0.8
										c0.3-0.4,0.5-0.8,0.6-1.3c0.1-0.5,0.2-1.1,0.2-1.7c0-0.6-0.1-1.2-0.2-1.7c-0.1-0.5-0.3-0.9-0.6-1.3S9.4,13.2,9,13
										c-0.4-0.2-0.8-0.3-1.2-0.3S6.9,12.8,6.5,13s-0.7,0.5-0.9,0.8S5.1,14.6,5,15.1c-0.1,0.5-0.2,1.1-0.2,1.7
										c0,0.6,0.1,1.2,0.2,1.7c0.1,0.5,0.3,1,0.6,1.3c0.3,0.4,0.6,0.6,0.9,0.8S7.3,21,7.8,21z"/>
									<path class="st24" d="M14.2,22v-7.5h1.1l0.1,1.1h0c0.4-0.4,0.7-0.7,1.1-0.9c0.4-0.2,0.9-0.4,1.4-0.4c0.8,0,1.4,0.2,1.7,0.7
										c0.4,0.5,0.5,1.2,0.5,2.2V22h-1.3v-4.6c0-0.7-0.1-1.2-0.3-1.5c-0.2-0.3-0.6-0.5-1.1-0.5c-0.4,0-0.7,0.1-1,0.3
										s-0.6,0.5-1,0.9V22H14.2z"/>
									<path class="st24" d="M25.8,25.1V14.4h1.1l0.1,0.9h0c0.3-0.3,0.7-0.5,1.1-0.7c0.4-0.2,0.8-0.3,1.3-0.3
										c0.5,0,0.9,0.1,1.3,0.3c0.4,0.2,0.7,0.4,0.9,0.8s0.4,0.7,0.6,1.2c0.1,0.5,0.2,1,0.2,1.6c0,0.6-0.1,1.2-0.3,1.7
										c-0.2,0.5-0.4,0.9-0.7,1.3c-0.3,0.4-0.6,0.6-1,0.8c-0.4,0.2-0.8,0.3-1.2,0.3c-0.4,0-0.7-0.1-1-0.2c-0.3-0.2-0.7-0.4-1-0.6
										l0,1.3v2.5H25.8z M28.9,21.1c0.3,0,0.6-0.1,0.9-0.2c0.3-0.1,0.5-0.3,0.7-0.6c0.2-0.3,0.3-0.6,0.4-0.9
										C31,19,31,18.5,31,18.1c0-0.4,0-0.8-0.1-1.1c-0.1-0.3-0.2-0.6-0.3-0.9c-0.2-0.2-0.4-0.4-0.6-0.6c-0.3-0.1-0.6-0.2-0.9-0.2
										c-0.3,0-0.6,0.1-1,0.3c-0.3,0.2-0.7,0.4-1,0.8v4c0.3,0.3,0.7,0.5,1,0.6C28.3,21,28.6,21.1,28.9,21.1z"/>
									<path class="st24" d="M34.4,22v-7.5h1.1l0.1,1.4h0c0.3-0.5,0.6-0.9,0.9-1.1c0.4-0.3,0.8-0.4,1.2-0.4c0.3,0,0.6,0.1,0.8,0.2
										l-0.2,1.1c-0.1,0-0.2-0.1-0.3-0.1c-0.1,0-0.2,0-0.4,0c-0.3,0-0.7,0.1-1,0.4c-0.3,0.3-0.6,0.7-0.9,1.3V22H34.4z"/>
									<path class="st24" d="M42.6,22.1c-0.5,0-1-0.1-1.4-0.3c-0.4-0.2-0.8-0.4-1.1-0.8s-0.6-0.7-0.8-1.2c-0.2-0.5-0.3-1-0.3-1.7
										s0.1-1.2,0.3-1.7c0.2-0.5,0.4-0.9,0.8-1.2c0.3-0.3,0.7-0.6,1.1-0.8c0.4-0.2,0.8-0.3,1.3-0.3c0.5,0,0.9,0.1,1.3,0.2
										c0.4,0.2,0.7,0.4,0.9,0.7c0.3,0.3,0.4,0.7,0.6,1.1c0.1,0.4,0.2,0.9,0.2,1.5c0,0.1,0,0.3,0,0.4c0,0.1,0,0.2,0,0.3h-5.1
										c0.1,0.8,0.3,1.4,0.8,1.9c0.4,0.5,1,0.7,1.8,0.7c0.4,0,0.7-0.1,1-0.2c0.3-0.1,0.6-0.2,0.9-0.4l0.4,0.8
										c-0.3,0.2-0.7,0.4-1.1,0.5C43.6,22.1,43.1,22.1,42.6,22.1z M40.3,17.6h4c0-0.8-0.2-1.3-0.5-1.7c-0.3-0.4-0.8-0.6-1.4-0.6
										c-0.3,0-0.5,0.1-0.8,0.2c-0.2,0.1-0.5,0.3-0.7,0.5c-0.2,0.2-0.4,0.4-0.5,0.7C40.4,16.9,40.3,17.2,40.3,17.6z"/>
									<path class="st24" d="M47.3,22v-7.5h1.1l0.1,1.1h0c0.3-0.4,0.7-0.7,1.1-0.9c0.4-0.2,0.8-0.4,1.3-0.4c0.6,0,1,0.1,1.4,0.4
										c0.3,0.3,0.6,0.6,0.7,1.1c0.4-0.4,0.8-0.8,1.2-1c0.4-0.3,0.8-0.4,1.3-0.4c0.8,0,1.4,0.2,1.7,0.7c0.4,0.5,0.6,1.2,0.6,2.2
										V22h-1.3v-4.6c0-0.7-0.1-1.2-0.3-1.5c-0.2-0.3-0.6-0.5-1.1-0.5c-0.6,0-1.2,0.4-1.9,1.2V22h-1.3v-4.6c0-0.7-0.1-1.2-0.3-1.5
										c-0.2-0.3-0.6-0.5-1.1-0.5c-0.6,0-1.2,0.4-1.9,1.2V22H47.3z"/>
									<path class="st24" d="M60.8,12.9c-0.2,0-0.5-0.1-0.6-0.2c-0.2-0.2-0.3-0.4-0.3-0.6c0-0.2,0.1-0.4,0.3-0.6
										c0.2-0.2,0.4-0.2,0.6-0.2s0.5,0.1,0.6,0.2c0.2,0.1,0.3,0.3,0.3,0.6c0,0.2-0.1,0.4-0.3,0.6S61,12.9,60.8,12.9z M60.1,22
										v-7.5h1.3V22H60.1z"/>
									<path class="st24" d="M65.9,22.1c-0.5,0-1-0.1-1.5-0.3c-0.5-0.2-0.9-0.4-1.3-0.7l0.6-0.9c0.3,0.3,0.7,0.5,1,0.7
										c0.3,0.2,0.7,0.2,1.2,0.2c0.5,0,0.9-0.1,1.1-0.3c0.2-0.2,0.4-0.5,0.4-0.8c0-0.2-0.1-0.4-0.2-0.5c-0.1-0.1-0.2-0.3-0.4-0.4
										s-0.3-0.2-0.6-0.3c-0.2-0.1-0.4-0.2-0.6-0.2c-0.3-0.1-0.5-0.2-0.8-0.3c-0.3-0.1-0.5-0.3-0.7-0.4c-0.2-0.2-0.4-0.4-0.5-0.6
										c-0.1-0.2-0.2-0.5-0.2-0.8c0-0.3,0.1-0.6,0.2-0.8c0.1-0.3,0.3-0.5,0.5-0.7s0.5-0.3,0.8-0.5c0.3-0.1,0.7-0.2,1.1-0.2
										c0.5,0,0.9,0.1,1.3,0.2s0.7,0.4,1,0.6l-0.6,0.8c-0.3-0.2-0.5-0.4-0.8-0.5c-0.3-0.1-0.6-0.2-0.9-0.2c-0.5,0-0.8,0.1-1,0.3
										s-0.3,0.5-0.3,0.8c0,0.2,0,0.3,0.1,0.5c0.1,0.1,0.2,0.2,0.4,0.3c0.2,0.1,0.3,0.2,0.5,0.3c0.2,0.1,0.4,0.2,0.6,0.2
										c0.3,0.1,0.5,0.2,0.8,0.3c0.3,0.1,0.5,0.3,0.7,0.4c0.2,0.2,0.4,0.4,0.5,0.6c0.1,0.2,0.2,0.5,0.2,0.9c0,0.3-0.1,0.6-0.2,0.9
										c-0.1,0.3-0.3,0.5-0.5,0.7c-0.2,0.2-0.5,0.4-0.9,0.5C66.7,22.1,66.3,22.1,65.9,22.1z"/>
									<path class="st24" d="M73.5,22.1c-0.5,0-1-0.1-1.4-0.3c-0.4-0.2-0.8-0.4-1.1-0.8s-0.6-0.7-0.8-1.2c-0.2-0.5-0.3-1-0.3-1.7
										s0.1-1.2,0.3-1.7c0.2-0.5,0.4-0.9,0.8-1.2c0.3-0.3,0.7-0.6,1.1-0.8c0.4-0.2,0.8-0.3,1.3-0.3c0.5,0,0.9,0.1,1.3,0.2
										c0.4,0.2,0.7,0.4,0.9,0.7c0.3,0.3,0.4,0.7,0.6,1.1c0.1,0.4,0.2,0.9,0.2,1.5c0,0.1,0,0.3,0,0.4c0,0.1,0,0.2,0,0.3h-5.1
										c0.1,0.8,0.3,1.4,0.8,1.9c0.4,0.5,1,0.7,1.8,0.7c0.4,0,0.7-0.1,1-0.2c0.3-0.1,0.6-0.2,0.9-0.4l0.4,0.8
										c-0.3,0.2-0.7,0.4-1.1,0.5C74.4,22.1,74,22.1,73.5,22.1z M71.1,17.6h4c0-0.8-0.2-1.3-0.5-1.7c-0.3-0.4-0.8-0.6-1.4-0.6
										c-0.3,0-0.5,0.1-0.8,0.2c-0.2,0.1-0.5,0.3-0.7,0.5c-0.2,0.2-0.4,0.4-0.5,0.7C71.2,16.9,71.1,17.2,71.1,17.6z"/>
									<path class="st24" d="M80.1,22.1c-0.5,0-1-0.1-1.5-0.3c-0.5-0.2-0.9-0.4-1.3-0.7l0.6-0.9c0.3,0.3,0.7,0.5,1,0.7
										c0.3,0.2,0.7,0.2,1.2,0.2c0.5,0,0.9-0.1,1.1-0.3c0.2-0.2,0.4-0.5,0.4-0.8c0-0.2-0.1-0.4-0.2-0.5c-0.1-0.1-0.2-0.3-0.4-0.4
										s-0.3-0.2-0.6-0.3c-0.2-0.1-0.4-0.2-0.6-0.2c-0.3-0.1-0.5-0.2-0.8-0.3c-0.3-0.1-0.5-0.3-0.7-0.4c-0.2-0.2-0.4-0.4-0.5-0.6
										c-0.1-0.2-0.2-0.5-0.2-0.8c0-0.3,0.1-0.6,0.2-0.8c0.1-0.3,0.3-0.5,0.5-0.7s0.5-0.3,0.8-0.5c0.3-0.1,0.7-0.2,1.1-0.2
										c0.5,0,0.9,0.1,1.3,0.2s0.7,0.4,1,0.6L82,15.9c-0.3-0.2-0.5-0.4-0.8-0.5c-0.3-0.1-0.6-0.2-0.9-0.2c-0.5,0-0.8,0.1-1,0.3
										s-0.3,0.5-0.3,0.8c0,0.2,0,0.3,0.1,0.5c0.1,0.1,0.2,0.2,0.4,0.3c0.2,0.1,0.3,0.2,0.5,0.3c0.2,0.1,0.4,0.2,0.6,0.2
										c0.3,0.1,0.5,0.2,0.8,0.3c0.3,0.1,0.5,0.3,0.7,0.4c0.2,0.2,0.4,0.4,0.5,0.6c0.1,0.2,0.2,0.5,0.2,0.9c0,0.3-0.1,0.6-0.2,0.9
										c-0.1,0.3-0.3,0.5-0.5,0.7c-0.2,0.2-0.5,0.4-0.9,0.5C80.9,22.1,80.5,22.1,80.1,22.1z"/>
								</g>
								<g class="st23">
									<path class="st24" d="M8.5,39V28.8H11c1.6,0,2.8,0.4,3.6,1.3c0.8,0.9,1.2,2.1,1.2,3.7c0,0.8-0.1,1.5-0.3,2.2
										c-0.2,0.6-0.5,1.2-0.9,1.6c-0.4,0.4-0.9,0.8-1.5,1c-0.6,0.2-1.3,0.3-2,0.3H8.5z M9.8,37.9H11c1.2,0,2.1-0.4,2.7-1.1
										c0.6-0.7,0.9-1.7,0.9-3c0-1.3-0.3-2.3-0.9-3c-0.6-0.7-1.5-1-2.7-1H9.8V37.9z"/>
									<path class="st24" d="M19.6,39.1c-0.6,0-1.2-0.2-1.6-0.6s-0.6-0.9-0.6-1.6c0-0.8,0.4-1.5,1.1-1.9c0.7-0.4,1.9-0.7,3.5-0.9
										c0-0.2,0-0.5-0.1-0.7c0-0.2-0.1-0.4-0.2-0.6c-0.1-0.2-0.3-0.3-0.5-0.4c-0.2-0.1-0.5-0.2-0.8-0.2c-0.4,0-0.8,0.1-1.2,0.2
										s-0.7,0.4-1,0.6l-0.5-0.9c0.4-0.2,0.8-0.4,1.3-0.7s1.1-0.3,1.7-0.3c0.9,0,1.6,0.3,2,0.8c0.4,0.6,0.6,1.3,0.6,2.3V39h-1.1
										l-0.1-0.9h0c-0.4,0.3-0.7,0.6-1.2,0.8S20.1,39.1,19.6,39.1z M20,38.1c0.4,0,0.7-0.1,1-0.3s0.7-0.4,1-0.8V35
										c-0.6,0.1-1.2,0.2-1.6,0.3c-0.4,0.1-0.8,0.2-1,0.4c-0.3,0.2-0.5,0.3-0.6,0.5c-0.1,0.2-0.2,0.4-0.2,0.7
										c0,0.4,0.1,0.7,0.4,0.9C19.3,38,19.6,38.1,20,38.1z"/>
									<path class="st24" d="M27.9,39.1c-0.4,0-0.7-0.1-1-0.2c-0.3-0.1-0.5-0.3-0.7-0.5c-0.2-0.2-0.3-0.5-0.4-0.8
										c-0.1-0.3-0.1-0.7-0.1-1v-4.2h-1.1v-1l1.2-0.1l0.2-2.1H27v2.1h2v1h-2v4.2c0,0.5,0.1,0.8,0.3,1.1c0.2,0.3,0.5,0.4,0.9,0.4
										c0.1,0,0.3,0,0.4-0.1c0.2,0,0.3-0.1,0.4-0.1l0.2,1c-0.2,0.1-0.4,0.1-0.7,0.2C28.4,39.1,28.1,39.1,27.9,39.1z"/>
									<path class="st24" d="M32.2,39.1c-0.6,0-1.2-0.2-1.6-0.6S30,37.7,30,37c0-0.8,0.4-1.5,1.1-1.9c0.7-0.4,1.9-0.7,3.5-0.9
										c0-0.2,0-0.5-0.1-0.7c0-0.2-0.1-0.4-0.2-0.6c-0.1-0.2-0.3-0.3-0.5-0.4c-0.2-0.1-0.5-0.2-0.8-0.2c-0.4,0-0.8,0.1-1.2,0.2
										s-0.7,0.4-1,0.6l-0.5-0.9c0.4-0.2,0.8-0.4,1.3-0.7s1.1-0.3,1.7-0.3c0.9,0,1.6,0.3,2,0.8c0.4,0.6,0.6,1.3,0.6,2.3V39h-1.1
										l-0.1-0.9h0c-0.4,0.3-0.7,0.6-1.2,0.8S32.6,39.1,32.2,39.1z M32.5,38.1c0.4,0,0.7-0.1,1-0.3s0.7-0.4,1-0.8V35
										c-0.6,0.1-1.2,0.2-1.6,0.3c-0.4,0.1-0.8,0.2-1,0.4c-0.3,0.2-0.5,0.3-0.6,0.5c-0.1,0.2-0.2,0.4-0.2,0.7
										c0,0.4,0.1,0.7,0.4,0.9C31.8,38,32.2,38.1,32.5,38.1z"/>
									<path class="st24" d="M41.2,39.1c-0.5,0-1-0.1-1.4-0.3c-0.4-0.2-0.8-0.4-1.1-0.8c-0.3-0.3-0.6-0.7-0.7-1.2
										c-0.2-0.5-0.3-1-0.3-1.7c0-0.6,0.1-1.2,0.3-1.7s0.5-0.9,0.8-1.2s0.7-0.6,1.2-0.8c0.4-0.2,0.9-0.3,1.4-0.3
										c0.5,0,0.9,0.1,1.3,0.3c0.4,0.2,0.7,0.4,0.9,0.6L42.9,33c-0.2-0.2-0.4-0.4-0.7-0.5c-0.2-0.1-0.5-0.2-0.8-0.2
										c-0.3,0-0.7,0.1-0.9,0.2c-0.3,0.1-0.5,0.3-0.7,0.6c-0.2,0.3-0.4,0.6-0.5,0.9c-0.1,0.4-0.2,0.8-0.2,1.2s0.1,0.8,0.2,1.2
										c0.1,0.4,0.3,0.7,0.5,0.9s0.4,0.4,0.7,0.6c0.3,0.1,0.6,0.2,0.9,0.2c0.4,0,0.7-0.1,1-0.2c0.3-0.1,0.6-0.3,0.8-0.5l0.6,0.9
										c-0.3,0.3-0.7,0.5-1.1,0.7C42.1,39.1,41.7,39.1,41.2,39.1z"/>
									<path class="st24" d="M48,39.1c-0.5,0-1-0.1-1.4-0.3c-0.4-0.2-0.8-0.4-1.1-0.8s-0.6-0.7-0.8-1.2c-0.2-0.5-0.3-1-0.3-1.7
										s0.1-1.2,0.3-1.7c0.2-0.5,0.4-0.9,0.8-1.2c0.3-0.3,0.7-0.6,1.1-0.8c0.4-0.2,0.8-0.3,1.3-0.3c0.5,0,0.9,0.1,1.3,0.2
										c0.4,0.2,0.7,0.4,0.9,0.7c0.3,0.3,0.4,0.7,0.6,1.1c0.1,0.4,0.2,0.9,0.2,1.5c0,0.1,0,0.3,0,0.4c0,0.1,0,0.2,0,0.3h-5.1
										c0.1,0.8,0.3,1.4,0.8,1.9c0.4,0.5,1,0.7,1.8,0.7c0.4,0,0.7-0.1,1-0.2c0.3-0.1,0.6-0.2,0.9-0.4l0.4,0.8
										c-0.3,0.2-0.7,0.4-1.1,0.5C49,39.1,48.5,39.1,48,39.1z M45.7,34.6h4c0-0.8-0.2-1.3-0.5-1.7c-0.3-0.4-0.8-0.6-1.4-0.6
										c-0.3,0-0.5,0.1-0.8,0.2c-0.2,0.1-0.5,0.3-0.7,0.5c-0.2,0.2-0.4,0.4-0.5,0.7C45.8,33.9,45.7,34.2,45.7,34.6z"/>
									<path class="st24" d="M52.7,39v-7.5h1.1l0.1,1.1h0c0.4-0.4,0.7-0.7,1.1-0.9c0.4-0.2,0.9-0.4,1.4-0.4c0.8,0,1.4,0.2,1.7,0.7
										c0.4,0.5,0.5,1.2,0.5,2.2V39h-1.3v-4.6c0-0.7-0.1-1.2-0.3-1.5c-0.2-0.3-0.6-0.5-1.1-0.5c-0.4,0-0.7,0.1-1,0.3
										s-0.6,0.5-1,0.9V39H52.7z"/>
									<path class="st24" d="M63.5,39.1c-0.4,0-0.7-0.1-1-0.2c-0.3-0.1-0.5-0.3-0.7-0.5c-0.2-0.2-0.3-0.5-0.4-0.8
										c-0.1-0.3-0.1-0.7-0.1-1v-4.2h-1.1v-1l1.2-0.1l0.2-2.1h1.1v2.1h2v1h-2v4.2c0,0.5,0.1,0.8,0.3,1.1c0.2,0.3,0.5,0.4,0.9,0.4
										c0.1,0,0.3,0,0.4-0.1c0.2,0,0.3-0.1,0.4-0.1l0.2,1c-0.2,0.1-0.4,0.1-0.7,0.2C64,39.1,63.8,39.1,63.5,39.1z"/>
									<path class="st24" d="M69.2,39.1c-0.5,0-1-0.1-1.4-0.3c-0.4-0.2-0.8-0.4-1.1-0.8s-0.6-0.7-0.8-1.2c-0.2-0.5-0.3-1-0.3-1.7
										s0.1-1.2,0.3-1.7c0.2-0.5,0.4-0.9,0.8-1.2c0.3-0.3,0.7-0.6,1.1-0.8c0.4-0.2,0.8-0.3,1.3-0.3c0.5,0,0.9,0.1,1.3,0.2
										c0.4,0.2,0.7,0.4,0.9,0.7c0.3,0.3,0.4,0.7,0.6,1.1c0.1,0.4,0.2,0.9,0.2,1.5c0,0.1,0,0.3,0,0.4c0,0.1,0,0.2,0,0.3h-5.1
										c0.1,0.8,0.3,1.4,0.8,1.9c0.4,0.5,1,0.7,1.8,0.7c0.4,0,0.7-0.1,1-0.2c0.3-0.1,0.6-0.2,0.9-0.4l0.4,0.8
										c-0.3,0.2-0.7,0.4-1.1,0.5C70.2,39.1,69.7,39.1,69.2,39.1z M66.8,34.6h4c0-0.8-0.2-1.3-0.5-1.7c-0.3-0.4-0.8-0.6-1.4-0.6
										c-0.3,0-0.5,0.1-0.8,0.2c-0.2,0.1-0.5,0.3-0.7,0.5c-0.2,0.2-0.4,0.4-0.5,0.7C67,33.9,66.9,34.2,66.8,34.6z"/>
									<path class="st24" d="M73.9,39v-7.5h1.1l0.1,1.4h0c0.3-0.5,0.6-0.9,0.9-1.1c0.4-0.3,0.8-0.4,1.2-0.4c0.3,0,0.6,0.1,0.8,0.2
										l-0.2,1.1c-0.1,0-0.2-0.1-0.3-0.1c-0.1,0-0.2,0-0.4,0c-0.3,0-0.7,0.1-1,0.4c-0.3,0.3-0.6,0.7-0.9,1.3V39H73.9z"/>
								</g>
							</g>
						</g>
						<g id="Group_5_" transform="translate(101.765101, 0.000000)">
							<g id="Path_23_" class="st25">
								<g>
									<path class="st26" d="M48.2,22.1c0,6.4-6.6,11-11.4,11H10c-3.4,0-9.8-3.4-9.8-10.3c0-3.1,1.8-5.9,4.6-7.7
										C1.8,8.6,9.5,4,13.9,7l0,0c5.3-6.8,11.2-7.5,15.9-6.2c4.4,1.2,8.5,4.3,9.8,11.3C44.6,13.4,48.3,17.1,48.2,22.1z"/>
								</g>
								<g>
									<path class="st27" d="M48.2,22.1c0,6.4-6.6,11-11.4,11H10c-3.4,0-9.8-3.4-9.8-10.3c0-3.1,1.8-5.9,4.6-7.7
										C1.8,8.6,9.5,4,13.9,7l0,0c5.3-6.8,11.2-7.5,15.9-6.2c4.4,1.2,8.5,4.3,9.8,11.3C44.6,13.4,48.3,17.1,48.2,22.1z"/>
								</g>
							</g>
							<g id="Path_24_">
								<path class="st27" d="M48.2,22.1c0,6.4-6.6,11-11.4,11H10c-3.4,0-9.8-3.4-9.8-10.3c0-3.1,1.8-5.9,4.6-7.7
									C1.8,8.6,9.5,4,13.9,7l0,0c5.3-6.8,11.2-7.5,15.9-6.2c4.4,1.2,8.5,4.3,9.8,11.3C44.6,13.4,48.3,17.1,48.2,22.1z"/>
								<path class="st28" d="M48.2,22.1c0,6.4-6.6,11-11.4,11H10c-3.4,0-9.8-3.4-9.8-10.3c0-3.1,1.8-5.9,4.6-7.7
									C1.8,8.6,9.5,4,13.9,7l0,0c5.3-6.8,11.2-7.5,15.9-6.2c4.4,1.2,8.5,4.3,9.8,11.3C44.6,13.4,48.3,17.1,48.2,22.1z"/>
							</g>
						</g>
						<path id="Path_25_" class="st29" d="M44.1,117.6c0-52.6,77.2-44.7,77.2-84.6"/>
						<path id="Path_26_" class="st30" d="M207.8,117.6c0-52.6-77.2-44.7-77.2-84.6"/>
					</g>
				</g>
			</g>
			<g id="Group_6_" transform="translate(49.181208, 165.335570)">
				<polygon id="Path_27_" class="st31" points="27.9,48.2 0.1,48.2 0.1,16.1 27.9,0.1 55.6,16.1 55.6,48.2 				"/>
				<polygon id="Path_28_" class="st28" points="27.9,48.2 0.1,48.2 0.1,16.1 27.9,0.1 55.6,16.1 55.6,48.2 				"/>
				<polyline id="Path_29_" class="st28" points="27.9,48.2 27.6,31.9 55.3,16.2 				"/>
				<path id="Path_30_" class="st28" d="M0.1,16.1l27.5,15.8"/>
				<polygon id="Path_31_" class="st28" points="27.8,6.1 10.6,16.1 27.5,25.9 44.8,16.2 				"/>
			</g>
			<rect id="Rectangle_17_" x="0" y="117.7" class="st28" width="154.1" height="122.1"/>
			<g id="Group_7_" transform="translate(67.436242, 161.040268)">
				<circle id="Oval_7_" class="st26" cx="9.6" cy="9.7" r="9.6"/>
				<rect id="Rectangle_18_" x="0.1" y="5.9" class="st8" width="19.1" height="13.4"/>
				<text transform="matrix(1 0 0 1 6.2981 13.2489)" class="st21 st10 st22">A</text>
			</g>
			<g id="Group_8_" transform="translate(3.543624, 204.563758)">
				<g>
					<g>
						<g id="Rectangle_19_" class="st15">
							<rect x="0.5" y="0.2" class="st16" width="24.3" height="24.3"/>
						</g>
						<rect id="Rectangle_20_" x="0.5" y="0.2" class="st32" width="24.3" height="24.3"/>
						<path id="Shape_11_" class="st33" d="M24.3,0.7v23.2H1V0.7H24.3L24.3,0.7z M24.8,0.2H0.5v24.3h24.3V0.2L24.8,0.2z"/>
						<text transform="matrix(1 0 0 1 6.4438 15.8206)" class="st34 st10 st18">VM</text>
					</g>
					<g id="Path_32_" transform="translate(15.570470, 15.570470)">
						<path class="st35" d="M6.1,0.9C5.8,0.4,5.3,0.4,5,0.9L0.4,9.1c-0.3,0.5-0.1,1.1,0.5,1.1h9c0.6,0,0.8-0.6,0.5-1.1L6.1,0.9z"/>
						<path class="st20" d="M5.5,7.5C5.2,7.5,5,7.7,5,8.1c0,0.3,0.2,0.5,0.5,0.5C5.9,8.5,6,8.4,6,8.1C6,7.7,5.9,7.5,5.5,7.5z"/>
						<path class="st20" d="M6.1,4.3c0-0.6-0.1-1-0.1-1c0-0.1-0.2-0.2-0.4-0.2c0,0-0.1-0.1-0.1,0l0,0c-0.2,0-0.3,0-0.5,0.2
							c0,0-0.1,0.5-0.1,1.1C4.9,5.5,5.1,7,5.1,7l0,0c0,0,0.2,0.1,0.4,0.1V7l0.1,0.2C5.8,7.1,5.9,7,6,7l0,0C6,7,6.2,5.4,6.1,4.3z"/>
					</g>
				</g>
				<g transform="translate(30.067114, 0.000000)">
					<g>
						<g id="Rectangle_21_" class="st15">
							<rect x="0.5" y="0.2" class="st16" width="24.3" height="24.3"/>
						</g>
						<rect id="Rectangle_22_" x="0.5" y="0.2" class="st32" width="24.3" height="24.3"/>
						<path id="Shape_12_" class="st33" d="M24.3,0.7v23.2H1V0.7H24.3L24.3,0.7z M24.8,0.2H0.5v24.3h24.3V0.2L24.8,0.2z"/>
						<text transform="matrix(1 0 0 1 6.4438 15.8206)" class="st34 st10 st18">VM</text>
					</g>
					<g id="Path_33_" transform="translate(15.570470, 15.570470)">
						<path class="st35" d="M6.1,0.9C5.8,0.4,5.3,0.4,5,0.9L0.4,9.1c-0.3,0.5-0.1,1.1,0.5,1.1h9c0.6,0,0.8-0.6,0.5-1.1L6.1,0.9z"/>
						<path class="st20" d="M5.5,7.5C5.2,7.5,5,7.7,5,8.1c0,0.3,0.2,0.5,0.5,0.5C5.9,8.5,6,8.4,6,8.1C6,7.7,5.9,7.5,5.5,7.5z"/>
						<path class="st20" d="M6.1,4.3c0-0.6-0.1-1-0.1-1c0-0.1-0.2-0.2-0.4-0.2c0,0-0.1-0.1-0.1,0l0,0c-0.2,0-0.3,0-0.5,0.2
							c0,0-0.1,0.5-0.1,1.1C4.9,5.5,5.1,7,5.1,7l0,0c0,0,0.2,0.1,0.4,0.1V7l0.1,0.2C5.8,7.1,5.9,7,6,7l0,0C6,7,6.2,5.4,6.1,4.3z"/>
					</g>
				</g>
				<g transform="translate(60.134228, 0.000000)">
					<g>
						<g id="Rectangle_23_" class="st15">
							<rect x="0.5" y="0.2" class="st16" width="24.3" height="24.3"/>
						</g>
						<rect id="Rectangle_24_" x="0.5" y="0.2" class="st32" width="24.3" height="24.3"/>
						<path id="Shape_13_" class="st33" d="M24.3,0.7v23.2H1V0.7H24.3L24.3,0.7z M24.8,0.2H0.5v24.3h24.3V0.2L24.8,0.2z"/>
						<text transform="matrix(1 0 0 1 6.4438 15.8206)" class="st34 st10 st18">VM</text>
					</g>
					<g id="Path_34_" transform="translate(15.570470, 15.570470)">
						<path class="st35" d="M6.1,0.9C5.8,0.4,5.3,0.4,5,0.9L0.4,9.1c-0.3,0.5-0.1,1.1,0.5,1.1h9c0.6,0,0.8-0.6,0.5-1.1L6.1,0.9z"/>
						<path class="st20" d="M5.5,7.5C5.2,7.5,5,7.7,5,8.1c0,0.3,0.2,0.5,0.5,0.5C5.9,8.5,6,8.4,6,8.1C6,7.7,5.9,7.5,5.5,7.5z"/>
						<path class="st20" d="M6.1,4.3c0-0.6-0.1-1-0.1-1c0-0.1-0.2-0.2-0.4-0.2c0,0-0.1-0.1-0.1,0l0,0c-0.2,0-0.3,0-0.5,0.2
							c0,0-0.1,0.5-0.1,1.1C4.9,5.5,5.1,7,5.1,7l0,0c0,0,0.2,0.1,0.4,0.1V7l0.1,0.2C5.8,7.1,5.9,7,6,7l0,0C6,7,6.2,5.4,6.1,4.3z"/>
					</g>
				</g>
				<g transform="translate(90.201342, 0.000000)">
					<g>
						<g id="Rectangle_25_" class="st15">
							<rect x="0.5" y="0.2" class="st16" width="24.3" height="24.3"/>
						</g>
						<rect id="Rectangle_26_" x="0.5" y="0.2" class="st32" width="24.3" height="24.3"/>
						<path id="Shape_14_" class="st33" d="M24.3,0.7v23.2H1V0.7H24.3L24.3,0.7z M24.8,0.2H0.5v24.3h24.3V0.2L24.8,0.2z"/>
						<text transform="matrix(1 0 0 1 6.4438 15.8206)" class="st34 st10 st18">VM</text>
					</g>
					<g id="Path_35_" transform="translate(15.570470, 15.570470)">
						<path class="st35" d="M6.1,0.9C5.8,0.4,5.3,0.4,5,0.9L0.4,9.1c-0.3,0.5-0.1,1.1,0.5,1.1h9c0.6,0,0.8-0.6,0.5-1.1L6.1,0.9z"/>
						<path class="st20" d="M5.5,7.5C5.2,7.5,5,7.7,5,8.1c0,0.3,0.2,0.5,0.5,0.5C5.9,8.5,6,8.4,6,8.1C6,7.7,5.9,7.5,5.5,7.5z"/>
						<path class="st20" d="M6.1,4.3c0-0.6-0.1-1-0.1-1c0-0.1-0.2-0.2-0.4-0.2c0,0-0.1-0.1-0.1,0l0,0c-0.2,0-0.3,0-0.5,0.2
							c0,0-0.1,0.5-0.1,1.1C4.9,5.5,5.1,7,5.1,7l0,0c0,0,0.2,0.1,0.4,0.1V7l0.1,0.2C5.8,7.1,5.9,7,6,7l0,0C6,7,6.2,5.4,6.1,4.3z"/>
					</g>
				</g>
				<g transform="translate(120.268456, 0.000000)">
					<g>
						<g id="Rectangle_27_" class="st15">
							<rect x="0.5" y="0.2" class="st16" width="24.3" height="24.3"/>
						</g>
						<rect id="Rectangle_28_" x="0.5" y="0.2" class="st32" width="24.3" height="24.3"/>
						<path id="Shape_15_" class="st33" d="M24.3,0.7v23.2H1V0.7H24.3L24.3,0.7z M24.8,0.2H0.5v24.3h24.3V0.2L24.8,0.2z"/>
						<text transform="matrix(1 0 0 1 6.4438 15.8206)" class="st34 st10 st18">VM</text>
					</g>
					<g id="Path_36_" transform="translate(15.570470, 15.570470)">
						<path class="st35" d="M6.1,0.9C5.8,0.4,5.3,0.4,5,0.9L0.4,9.1c-0.3,0.5-0.1,1.1,0.5,1.1h9c0.6,0,0.8-0.6,0.5-1.1L6.1,0.9z"/>
						<path class="st20" d="M5.5,7.5C5.2,7.5,5,7.7,5,8.1c0,0.3,0.2,0.5,0.5,0.5C5.9,8.5,6,8.4,6,8.1C6,7.7,5.9,7.5,5.5,7.5z"/>
						<path class="st20" d="M6.1,4.3c0-0.6-0.1-1-0.1-1c0-0.1-0.2-0.2-0.4-0.2c0,0-0.1-0.1-0.1,0l0,0c-0.2,0-0.3,0-0.5,0.2
							c0,0-0.1,0.5-0.1,1.1C4.9,5.5,5.1,7,5.1,7l0,0c0,0,0.2,0.1,0.4,0.1V7l0.1,0.2C5.8,7.1,5.9,7,6,7l0,0C6,7,6.2,5.4,6.1,4.3z"/>
					</g>
				</g>
			</g>
		</g>
	</g>
</g>
<g>
	<path class="st24" d="M214.1,139.1c-0.6,0-1.2-0.1-1.8-0.4s-1-0.6-1.4-1.1s-0.7-1-0.9-1.7s-0.3-1.4-0.3-2.2s0.1-1.5,0.3-2.2
		s0.5-1.2,0.9-1.6c0.4-0.4,0.8-0.8,1.4-1s1.1-0.4,1.8-0.4s1.2,0.1,1.8,0.4c0.5,0.2,1,0.6,1.4,1s0.7,1,0.9,1.6s0.3,1.4,0.3,2.2
		s-0.1,1.6-0.3,2.2c-0.2,0.7-0.5,1.2-0.9,1.7s-0.8,0.8-1.4,1.1S214.8,139.1,214.1,139.1z M214.1,138c0.5,0,0.9-0.1,1.2-0.3
		c0.4-0.2,0.7-0.5,0.9-0.8c0.3-0.4,0.5-0.8,0.6-1.3s0.2-1.1,0.2-1.7c0-0.6-0.1-1.2-0.2-1.7c-0.1-0.5-0.3-0.9-0.6-1.3
		c-0.3-0.4-0.6-0.6-0.9-0.8s-0.8-0.3-1.2-0.3c-0.5,0-0.9,0.1-1.2,0.3c-0.4,0.2-0.7,0.5-0.9,0.8c-0.3,0.4-0.5,0.8-0.6,1.3
		s-0.2,1.1-0.2,1.7c0,0.6,0.1,1.2,0.2,1.7c0.1,0.5,0.3,1,0.6,1.3c0.3,0.4,0.6,0.6,0.9,0.8C213.3,137.9,213.7,138,214.1,138z"/>
	<path class="st24" d="M222.4,139l-3.3-10.2h1.4l1.6,5.5c0.2,0.6,0.3,1.2,0.5,1.7s0.3,1.1,0.5,1.7h0.1c0.2-0.6,0.4-1.2,0.5-1.7
		s0.3-1.1,0.5-1.7l1.6-5.5h1.3l-3.2,10.2H222.4z"/>
	<path class="st24" d="M228.5,139v-10.2h1.3v4.3h4.7v-4.3h1.3V139h-1.3v-4.8h-4.7v4.8H228.5z"/>
	<path class="st24" d="M241.5,139.1c-0.5,0-1-0.1-1.4-0.3s-0.8-0.4-1.1-0.8s-0.6-0.7-0.7-1.2c-0.2-0.5-0.3-1-0.3-1.7
		c0-0.6,0.1-1.2,0.3-1.7s0.5-0.9,0.8-1.2s0.7-0.6,1.2-0.8c0.4-0.2,0.9-0.3,1.4-0.3s0.9,0.1,1.3,0.3s0.7,0.4,0.9,0.6l-0.7,0.8
		c-0.2-0.2-0.4-0.4-0.7-0.5c-0.2-0.1-0.5-0.2-0.8-0.2s-0.7,0.1-0.9,0.2c-0.3,0.1-0.5,0.3-0.7,0.6s-0.4,0.6-0.5,0.9s-0.2,0.8-0.2,1.2
		s0.1,0.8,0.2,1.2c0.1,0.4,0.3,0.7,0.5,0.9c0.2,0.3,0.4,0.4,0.7,0.6s0.6,0.2,0.9,0.2c0.4,0,0.7-0.1,1-0.2c0.3-0.1,0.6-0.3,0.8-0.5
		l0.6,0.9c-0.3,0.3-0.7,0.5-1.1,0.7C242.3,139.1,241.9,139.1,241.5,139.1z"/>
	<path class="st24" d="M246.9,139.1c-0.5,0-0.8-0.1-1-0.4c-0.2-0.3-0.3-0.7-0.3-1.3v-9.5h1.3v9.6c0,0.2,0,0.4,0.1,0.4
		c0.1,0.1,0.2,0.1,0.2,0.1h0.1c0,0,0.1,0,0.2,0l0.2,1c-0.1,0-0.2,0.1-0.3,0.1C247.2,139.1,247.1,139.1,246.9,139.1z"/>
	<path class="st24" d="M252.4,139.1c-0.5,0-0.9-0.1-1.3-0.3c-0.4-0.2-0.8-0.4-1.1-0.8s-0.6-0.7-0.8-1.2s-0.3-1-0.3-1.7
		c0-0.6,0.1-1.2,0.3-1.7s0.4-0.9,0.8-1.2c0.3-0.3,0.7-0.6,1.1-0.8c0.4-0.2,0.9-0.3,1.3-0.3c0.5,0,0.9,0.1,1.3,0.3
		c0.4,0.2,0.8,0.4,1.1,0.8c0.3,0.3,0.6,0.8,0.8,1.2c0.2,0.5,0.3,1.1,0.3,1.7c0,0.6-0.1,1.2-0.3,1.7s-0.4,0.9-0.8,1.2
		s-0.7,0.6-1.1,0.8C253.3,139.1,252.9,139.1,252.4,139.1z M252.4,138.1c0.3,0,0.6-0.1,0.9-0.2s0.5-0.3,0.7-0.6s0.3-0.6,0.4-0.9
		c0.1-0.4,0.2-0.7,0.2-1.2c0-0.4-0.1-0.8-0.2-1.2s-0.3-0.7-0.4-0.9c-0.2-0.3-0.4-0.5-0.7-0.6s-0.6-0.2-0.9-0.2
		c-0.3,0-0.6,0.1-0.9,0.2c-0.3,0.1-0.5,0.3-0.7,0.6s-0.3,0.6-0.4,0.9s-0.2,0.8-0.2,1.2s0.1,0.8,0.2,1.2c0.1,0.4,0.3,0.7,0.4,0.9
		c0.2,0.3,0.4,0.4,0.7,0.6S252.1,138.1,252.4,138.1z"/>
	<path class="st24" d="M260.1,139.1c-0.8,0-1.4-0.2-1.8-0.7s-0.6-1.2-0.6-2.2v-4.8h1.3v4.6c0,0.7,0.1,1.2,0.3,1.5
		c0.2,0.3,0.6,0.5,1.1,0.5c0.4,0,0.7-0.1,1-0.3s0.6-0.5,1-1v-5.3h1.3v7.5h-1.1l-0.1-1.2l0,0c-0.4,0.4-0.7,0.7-1.1,1
		S260.6,139.1,260.1,139.1z"/>
	<path class="st24" d="M268.9,139.1c-1,0-1.7-0.3-2.3-1c-0.6-0.7-0.8-1.7-0.8-2.9c0-0.6,0.1-1.2,0.3-1.7c0.2-0.5,0.4-0.9,0.7-1.2
		c0.3-0.3,0.6-0.6,1-0.8s0.8-0.3,1.2-0.3c0.4,0,0.8,0.1,1.1,0.2s0.6,0.4,1,0.6l-0.1-1.3v-2.9h1.3v11h-1.1l-0.1-0.9l0,0
		c-0.3,0.3-0.6,0.5-1,0.8C269.8,139,269.3,139.1,268.9,139.1z M269.2,138.1c0.4,0,0.7-0.1,1-0.3s0.6-0.4,0.9-0.8v-3.9
		c-0.3-0.3-0.6-0.5-0.9-0.6s-0.6-0.2-0.9-0.2s-0.6,0.1-0.8,0.2c-0.3,0.1-0.5,0.3-0.7,0.6s-0.4,0.6-0.5,0.9c-0.1,0.4-0.2,0.7-0.2,1.2
		c0,0.9,0.2,1.6,0.5,2.1C268,137.8,268.5,138.1,269.2,138.1z"/>
	<path class="st24" d="M207.3,156v-10.2h2.5c1.6,0,2.8,0.4,3.6,1.3c0.8,0.9,1.2,2.1,1.2,3.7c0,0.8-0.1,1.5-0.3,2.2
		c-0.2,0.6-0.5,1.2-0.9,1.6c-0.4,0.4-0.9,0.8-1.5,1s-1.3,0.3-2,0.3L207.3,156L207.3,156z M208.6,154.9h1.2c1.2,0,2.1-0.4,2.7-1.1
		c0.6-0.7,0.9-1.7,0.9-3s-0.3-2.3-0.9-3c-0.6-0.7-1.5-1-2.7-1h-1.2V154.9z"/>
	<path class="st24" d="M218.4,156.1c-0.6,0-1.2-0.2-1.6-0.6c-0.4-0.4-0.6-0.9-0.6-1.6c0-0.8,0.4-1.5,1.1-1.9
		c0.7-0.4,1.9-0.7,3.5-0.9c0-0.2,0-0.5-0.1-0.7c0-0.2-0.1-0.4-0.2-0.6c-0.1-0.2-0.3-0.3-0.5-0.4s-0.5-0.2-0.8-0.2
		c-0.4,0-0.8,0.1-1.2,0.2c-0.4,0.2-0.7,0.4-1,0.6l-0.5-0.9c0.4-0.2,0.8-0.4,1.3-0.7c0.5-0.2,1.1-0.3,1.7-0.3c0.9,0,1.6,0.3,2,0.8
		s0.6,1.3,0.6,2.3v4.6H221l-0.1-0.9l0,0c-0.4,0.3-0.8,0.6-1.2,0.8C219.4,156,218.9,156.1,218.4,156.1z M218.8,155.1
		c0.4,0,0.7-0.1,1-0.3s0.7-0.4,1-0.8v-2c-0.6,0.1-1.2,0.2-1.6,0.3c-0.4,0.1-0.8,0.2-1,0.4s-0.5,0.3-0.6,0.5s-0.2,0.4-0.2,0.7
		c0,0.4,0.1,0.7,0.4,0.9C218.1,155,218.4,155.1,218.8,155.1z"/>
	<path class="st24" d="M226.7,156.1c-0.4,0-0.7-0.1-1-0.2s-0.5-0.3-0.7-0.5s-0.3-0.5-0.4-0.8c-0.1-0.3-0.1-0.7-0.1-1v-4.2h-1.1v-1
		l1.2-0.1l0.2-2.1h1.1v2.1h2v1h-2v4.2c0,0.5,0.1,0.8,0.3,1.1s0.5,0.4,0.9,0.4c0.1,0,0.3,0,0.4-0.1c0.2,0,0.3-0.1,0.4-0.1l0.2,1
		c-0.2,0.1-0.4,0.1-0.7,0.2C227.1,156.1,226.9,156.1,226.7,156.1z"/>
	<path class="st24" d="M230.9,156.1c-0.6,0-1.2-0.2-1.6-0.6c-0.4-0.4-0.6-0.9-0.6-1.6c0-0.8,0.4-1.5,1.1-1.9
		c0.7-0.4,1.9-0.7,3.5-0.9c0-0.2,0-0.5-0.1-0.7c0-0.2-0.1-0.4-0.2-0.6c-0.1-0.2-0.3-0.3-0.5-0.4s-0.5-0.2-0.8-0.2
		c-0.4,0-0.8,0.1-1.2,0.2c-0.4,0.2-0.7,0.4-1,0.6l-0.5-0.9c0.4-0.2,0.8-0.4,1.3-0.7c0.5-0.2,1.1-0.3,1.7-0.3c0.9,0,1.6,0.3,2,0.8
		s0.6,1.3,0.6,2.3v4.6h-1.1l-0.1-0.9l0,0c-0.4,0.3-0.8,0.6-1.2,0.8C231.9,156,231.4,156.1,230.9,156.1z M231.3,155.1
		c0.4,0,0.7-0.1,1-0.3s0.7-0.4,1-0.8v-2c-0.6,0.1-1.2,0.2-1.6,0.3c-0.4,0.1-0.8,0.2-1,0.4s-0.5,0.3-0.6,0.5s-0.2,0.4-0.2,0.7
		c0,0.4,0.1,0.7,0.4,0.9C230.6,155,230.9,155.1,231.3,155.1z"/>
	<path class="st24" d="M240,156.1c-0.5,0-1-0.1-1.4-0.3s-0.8-0.4-1.1-0.8c-0.3-0.3-0.6-0.7-0.7-1.2c-0.2-0.5-0.3-1-0.3-1.7
		c0-0.6,0.1-1.2,0.3-1.7s0.5-0.9,0.8-1.2s0.7-0.6,1.2-0.8s0.9-0.3,1.4-0.3s0.9,0.1,1.3,0.3c0.4,0.2,0.7,0.4,0.9,0.6l-0.7,0.8
		c-0.2-0.2-0.4-0.4-0.7-0.5c-0.2-0.1-0.5-0.2-0.8-0.2s-0.7,0.1-0.9,0.2c-0.3,0.1-0.5,0.3-0.7,0.6s-0.4,0.6-0.5,0.9
		c-0.1,0.4-0.2,0.8-0.2,1.2s0.1,0.8,0.2,1.2c0.1,0.4,0.3,0.7,0.5,0.9c0.2,0.3,0.4,0.4,0.7,0.6c0.3,0.1,0.6,0.2,0.9,0.2
		c0.4,0,0.7-0.1,1-0.2c0.3-0.1,0.6-0.3,0.8-0.5l0.6,0.9c-0.3,0.3-0.7,0.5-1.1,0.7C240.9,156.1,240.5,156.1,240,156.1z"/>
	<path class="st24" d="M246.8,156.1c-0.5,0-1-0.1-1.4-0.3s-0.8-0.4-1.1-0.8c-0.3-0.3-0.6-0.7-0.8-1.2s-0.3-1-0.3-1.7
		s0.1-1.2,0.3-1.7s0.4-0.9,0.8-1.2s0.7-0.6,1.1-0.8c0.4-0.2,0.8-0.3,1.3-0.3s0.9,0.1,1.3,0.2c0.4,0.2,0.7,0.4,0.9,0.7
		c0.3,0.3,0.4,0.7,0.6,1.1c0.1,0.4,0.2,0.9,0.2,1.5c0,0.1,0,0.3,0,0.4c0,0.1,0,0.2,0,0.3h-5.1c0.1,0.8,0.3,1.4,0.8,1.9
		s1,0.7,1.8,0.7c0.4,0,0.7-0.1,1-0.2c0.3-0.1,0.6-0.3,0.9-0.4l0.5,0.8c-0.3,0.2-0.7,0.4-1.1,0.5
		C247.8,156.1,247.3,156.1,246.8,156.1z M244.4,151.6h4c0-0.8-0.2-1.3-0.5-1.7s-0.8-0.6-1.4-0.6c-0.3,0-0.5,0.1-0.8,0.2
		c-0.2,0.1-0.5,0.3-0.7,0.5s-0.4,0.4-0.5,0.7C244.6,150.9,244.5,151.2,244.4,151.6z"/>
	<path class="st24" d="M251.5,156v-7.5h1.1l0.1,1.1l0,0c0.4-0.4,0.7-0.7,1.1-0.9c0.4-0.2,0.9-0.4,1.4-0.4c0.8,0,1.4,0.2,1.7,0.7
		c0.4,0.5,0.5,1.2,0.5,2.2v4.8h-1.3v-4.6c0-0.7-0.1-1.2-0.3-1.5s-0.6-0.5-1.1-0.5c-0.4,0-0.7,0.1-1,0.3s-0.6,0.5-1,0.9v5.5h-1.2V156
		z"/>
	<path class="st24" d="M262.3,156.1c-0.4,0-0.7-0.1-1-0.2c-0.3-0.1-0.5-0.3-0.7-0.5s-0.3-0.5-0.4-0.8s-0.1-0.7-0.1-1v-4.2H259v-1
		l1.2-0.1l0.2-2.1h1.1v2.1h2v1h-2v4.2c0,0.5,0.1,0.8,0.3,1.1c0.2,0.3,0.5,0.4,0.9,0.4c0.1,0,0.3,0,0.4-0.1s0.3-0.1,0.4-0.1l0.2,1
		c-0.2,0.1-0.4,0.1-0.7,0.2S262.5,156.1,262.3,156.1z"/>
	<path class="st24" d="M268,156.1c-0.5,0-1-0.1-1.4-0.3s-0.8-0.4-1.1-0.8c-0.3-0.3-0.6-0.7-0.8-1.2c-0.2-0.5-0.3-1-0.3-1.7
		s0.1-1.2,0.3-1.7c0.2-0.5,0.4-0.9,0.8-1.2s0.7-0.6,1.1-0.8s0.8-0.3,1.3-0.3s0.9,0.1,1.3,0.2c0.4,0.2,0.7,0.4,0.9,0.7
		c0.3,0.3,0.4,0.7,0.6,1.1c0.1,0.4,0.2,0.9,0.2,1.5c0,0.1,0,0.3,0,0.4c0,0.1,0,0.2,0,0.3h-5.1c0.1,0.8,0.3,1.4,0.8,1.9
		s1,0.7,1.8,0.7c0.4,0,0.7-0.1,1-0.2c0.3-0.1,0.6-0.3,0.9-0.4l0.5,0.8c-0.3,0.2-0.7,0.4-1.1,0.5C269,156.1,268.5,156.1,268,156.1z
		 M265.6,151.6h4c0-0.8-0.2-1.3-0.5-1.7s-0.8-0.6-1.4-0.6c-0.3,0-0.5,0.1-0.8,0.2c-0.2,0.1-0.5,0.3-0.7,0.5s-0.4,0.4-0.5,0.7
		C265.8,150.9,265.7,151.2,265.6,151.6z"/>
	<path class="st24" d="M272.6,156v-7.5h1.1l0.1,1.4l0,0c0.3-0.5,0.6-0.9,0.9-1.1c0.4-0.3,0.8-0.4,1.2-0.4c0.3,0,0.6,0.1,0.8,0.2
		l-0.2,1.1c-0.1,0-0.2-0.1-0.3-0.1c-0.1,0-0.2,0-0.4,0c-0.3,0-0.7,0.1-1,0.4c-0.3,0.3-0.6,0.7-0.9,1.3v4.8L272.6,156L272.6,156z"/>
</g>
</svg>
