<?xml version="1.0" encoding="utf-8"?>
<!-- Generator: Adobe Illustrator 24.0.1, SVG Export Plug-In . SVG Version: 6.00 Build 0)  -->
<svg version="1.1" id="Calque_1" xmlns="http://www.w3.org/2000/svg" xmlns:xlink="http://www.w3.org/1999/xlink" x="0px" y="0px"
	 viewBox="0 0 321 241" style="enable-background:new 0 0 321 241;" xml:space="preserve">
<style type="text/css">
	.st0{fill:none;stroke:#13C4E4;stroke-width:0.5369;stroke-linecap:round;stroke-linejoin:round;}
	.st1{opacity:0.1;fill-rule:evenodd;clip-rule:evenodd;fill:#13C4E4;enable-background:new    ;}
	.st2{fill-rule:evenodd;clip-rule:evenodd;fill:#13C4E4;}
	.st3{fill:none;}
	.st4{fill:#FFFFFF;}
	.st5{font-family:'Helvetica';}
	.st6{font-size:10.7383px;}
	.st7{opacity:0.4;}
	.st8{fill-rule:evenodd;clip-rule:evenodd;fill:#E3CD4D;}
	.st9{fill-rule:evenodd;clip-rule:evenodd;fill:#E7DCA1;}
	.st10{fill:#E3CD4D;}
	.st11{fill:#8A5300;}
	.st12{font-size:9.1275px;}
	.st13{fill-rule:evenodd;clip-rule:evenodd;fill:#D9AE00;}
	.st14{fill-rule:evenodd;clip-rule:evenodd;fill:#FFFFFF;}
	.st15{fill:none;stroke:#C9C9C9;stroke-width:0.5369;}
	.st16{fill:none;stroke:#B0CA67;stroke-width:0.5369;}
	.st17{opacity:0.15;fill-rule:evenodd;clip-rule:evenodd;fill:#122844;enable-background:new    ;}
	.st18{fill:none;stroke:#B90B24;stroke-width:0.5369;stroke-linejoin:round;}
	.st19{fill-rule:evenodd;clip-rule:evenodd;fill:#FF4915;}
	.st20{opacity:0.25;fill-rule:evenodd;clip-rule:evenodd;fill:#E9EBE7;enable-background:new    ;}
	.st21{fill:none;stroke:#B90B24;stroke-width:0.5369;}
	.st22{fill-rule:evenodd;clip-rule:evenodd;fill:#B90B24;}
	.st23{fill:#B90B24;}
	.st24{font-size:8.6914px;}
	.st25{opacity:0.1;}
	.st26{fill:none;stroke:#122844;stroke-width:0.5369;stroke-linecap:round;stroke-linejoin:round;}
	.st27{fill:none;stroke:#E3CD4D;stroke-width:1.0738;stroke-dasharray:2.1477,3.2215;}
	.st28{fill:none;stroke:#B0CA67;stroke-width:1.0738;}
	.st29{fill:#B0CA67;}
	.st30{fill-rule:evenodd;clip-rule:evenodd;fill:#E0EAC2;}
	.st31{fill-rule:evenodd;clip-rule:evenodd;fill:#E0EAC2;stroke:#B0CA67;stroke-width:0.5369;}
	.st32{fill:#57710E;}
	.st33{fill-rule:evenodd;clip-rule:evenodd;fill:#B0CA67;}
	.st34{fill:#122844;}
</style>
<title>zerto-two-pcc</title>
<desc>Created with Sketch.</desc>
<g id="Page-1">
	<g id="zerto-0A" transform="translate(-373.000000, -656.000000)">
		<g id="zerto-two-pcc" transform="translate(374.000000, 656.000000)">
			<g id="schema-zerto-copy">
				<g id="Group-17" transform="translate(0.000000, 117.000000)">
					<g id="Group-16">
						<rect id="Rectangle" x="0.2" y="0.7" class="st0" width="154.1" height="122.1"/>
						<g id="Group" transform="translate(49.395973, 48.335570)">
							<polygon id="Path" class="st1" points="27.9,48.2 0.1,48.2 0.1,16.1 27.9,0.1 55.6,16.1 55.6,48.2 							"/>
							<polygon id="Path_1_" class="st0" points="27.9,48.2 0.1,48.2 0.1,16.1 27.9,0.1 55.6,16.1 55.6,48.2 							"/>
							<polyline id="Path_2_" class="st0" points="27.9,48.2 27.6,31.9 55.3,16.2 							"/>
							<path id="Path_3_" class="st0" d="M0.1,16.1l27.5,15.8"/>
							<polygon id="Path_4_" class="st0" points="27.8,6.1 10.6,16.1 27.5,25.9 44.8,16.2 							"/>
						</g>
						<g id="Group_1_" transform="translate(67.000000, 43.583893)">
							<g transform="translate(0.651007, 0.456376)">
								<circle id="Oval" class="st2" cx="9.6" cy="9.7" r="9.6"/>
								<rect id="Rectangle_1_" x="0.1" y="5.9" class="st3" width="19.1" height="13.4"/>
								<text transform="matrix(1 0 0 1 3.2982 13.2489)" class="st4 st5 st6">B1</text>
							</g>
						</g>
						<g id="Group_2_" transform="translate(3.758389, 87.563758)">
							<g id="Rectangle_2_" class="st7">
								<rect x="0.5" y="0.2" class="st8" width="24.3" height="24.3"/>
							</g>
							<rect id="Rectangle_3_" x="0.5" y="0.2" class="st9" width="24.3" height="24.3"/>
							<path id="Shape" class="st10" d="M24.3,0.7v23.2H1V0.7H24.3L24.3,0.7z M24.8,0.2H0.5v24.3h24.3V0.2L24.8,0.2z"/>
							<text transform="matrix(1 0 0 1 6.4438 15.8206)" class="st11 st5 st12">VM</text>
						</g>
						<g id="Group_3_" transform="translate(19.328859, 103.134228)">
							<path id="Path_5_" class="st13" d="M6.1,0.9C5.8,0.4,5.3,0.4,5,0.9L0.4,9.1c-0.3,0.5-0.1,1.1,0.5,1.1h9
								c0.6,0,0.8-0.6,0.5-1.1L6.1,0.9z"/>
							<path id="Path_6_" class="st14" d="M5.5,7.5C5.2,7.5,5,7.7,5,8.1c0,0.3,0.2,0.5,0.5,0.5C5.9,8.5,6,8.4,6,8.1
								C6,7.7,5.9,7.5,5.5,7.5z"/>
							<path id="Path_7_" class="st14" d="M6.1,4.3c0-0.6-0.1-1-0.1-1C6,3.2,5.8,3.1,5.6,3.1c0,0-0.1-0.1-0.1,0H5.5
								C5.3,3.1,5.2,3.1,5,3.3C5,3.3,4.9,3.8,4.9,4.4C4.9,5.5,5.1,7,5.1,7l0,0c0,0,0.2,0.1,0.4,0.1L5.5,7l0.1,0.2C5.8,7.1,5.9,7,6,7
								l0,0C6,7,6.2,5.4,6.1,4.3z"/>
						</g>
					</g>
					<g id="Group_4_" transform="translate(3.758389, 87.563758)">
						<g transform="translate(30.067114, 0.000000)">
							<g>
								<g id="Rectangle_4_" class="st7">
									<rect x="0.5" y="0.2" class="st8" width="24.3" height="24.3"/>
								</g>
								<rect id="Rectangle_5_" x="0.5" y="0.2" class="st9" width="24.3" height="24.3"/>
								<path id="Shape_1_" class="st10" d="M24.3,0.7v23.2H1V0.7H24.3L24.3,0.7z M24.8,0.2H0.5v24.3h24.3V0.2L24.8,0.2z"/>
								<text transform="matrix(1 0 0 1 6.4438 15.8206)" class="st11 st5 st12">VM</text>
							</g>
							<g id="Path_8_" transform="translate(15.570470, 15.570470)">
								<path class="st13" d="M6.1,0.9C5.8,0.4,5.3,0.4,5,0.9L0.4,9.1c-0.3,0.5-0.1,1.1,0.5,1.1h9c0.6,0,0.8-0.6,0.5-1.1L6.1,0.9z"
									/>
								<path class="st14" d="M5.5,7.5C5.2,7.5,5,7.7,5,8.1c0,0.3,0.2,0.5,0.5,0.5C5.9,8.5,6,8.4,6,8.1C6,7.7,5.9,7.5,5.5,7.5z"/>
								<path class="st14" d="M6.1,4.3c0-0.6-0.1-1-0.1-1C6,3.2,5.8,3.1,5.6,3.1c0,0-0.1-0.1-0.1,0H5.5C5.3,3.1,5.2,3.1,5,3.3
									C5,3.3,4.9,3.8,4.9,4.4C4.9,5.5,5.1,7,5.1,7l0,0c0,0,0.2,0.1,0.4,0.1L5.5,7l0.1,0.2C5.8,7.1,5.9,7,6,7l0,0
									C6,7,6.2,5.4,6.1,4.3z"/>
							</g>
						</g>
						<g transform="translate(60.134228, 0.000000)">
							<g>
								<g id="Rectangle_6_" class="st7">
									<rect x="0.5" y="0.2" class="st8" width="24.3" height="24.3"/>
								</g>
								<rect id="Rectangle_7_" x="0.5" y="0.2" class="st9" width="24.3" height="24.3"/>
								<path id="Shape_2_" class="st10" d="M24.3,0.7v23.2H1V0.7H24.3L24.3,0.7z M24.8,0.2H0.5v24.3h24.3V0.2L24.8,0.2z"/>
								<text transform="matrix(1 0 0 1 6.4438 15.8206)" class="st11 st5 st12">VM</text>
							</g>
							<g id="Path_9_" transform="translate(15.570470, 15.570470)">
								<path class="st13" d="M6.1,0.9C5.8,0.4,5.3,0.4,5,0.9L0.4,9.1c-0.3,0.5-0.1,1.1,0.5,1.1h9c0.6,0,0.8-0.6,0.5-1.1L6.1,0.9z"
									/>
								<path class="st14" d="M5.5,7.5C5.2,7.5,5,7.7,5,8.1c0,0.3,0.2,0.5,0.5,0.5C5.9,8.5,6,8.4,6,8.1C6,7.7,5.9,7.5,5.5,7.5z"/>
								<path class="st14" d="M6.1,4.3c0-0.6-0.1-1-0.1-1C6,3.2,5.8,3.1,5.6,3.1c0,0-0.1-0.1-0.1,0H5.5C5.3,3.1,5.2,3.1,5,3.3
									C5,3.3,4.9,3.8,4.9,4.4C4.9,5.5,5.1,7,5.1,7l0,0c0,0,0.2,0.1,0.4,0.1L5.5,7l0.1,0.2C5.8,7.1,5.9,7,6,7l0,0
									C6,7,6.2,5.4,6.1,4.3z"/>
							</g>
						</g>
						<g transform="translate(90.201342, 0.000000)">
							<g>
								<g id="Rectangle_8_" class="st7">
									<rect x="0.5" y="0.2" class="st8" width="24.3" height="24.3"/>
								</g>
								<rect id="Rectangle_9_" x="0.5" y="0.2" class="st9" width="24.3" height="24.3"/>
								<path id="Shape_3_" class="st10" d="M24.3,0.7v23.2H1V0.7H24.3L24.3,0.7z M24.8,0.2H0.5v24.3h24.3V0.2L24.8,0.2z"/>
								<text transform="matrix(1 0 0 1 6.4438 15.8206)" class="st11 st5 st12">VM</text>
							</g>
							<g id="Path_10_" transform="translate(15.570470, 15.570470)">
								<path class="st13" d="M6.1,0.9C5.8,0.4,5.3,0.4,5,0.9L0.4,9.1c-0.3,0.5-0.1,1.1,0.5,1.1h9c0.6,0,0.8-0.6,0.5-1.1L6.1,0.9z"
									/>
								<path class="st14" d="M5.5,7.5C5.2,7.5,5,7.7,5,8.1c0,0.3,0.2,0.5,0.5,0.5C5.9,8.5,6,8.4,6,8.1C6,7.7,5.9,7.5,5.5,7.5z"/>
								<path class="st14" d="M6.1,4.3c0-0.6-0.1-1-0.1-1C6,3.2,5.8,3.1,5.6,3.1c0,0-0.1-0.1-0.1,0H5.5C5.3,3.1,5.2,3.1,5,3.3
									C5,3.3,4.9,3.8,4.9,4.4C4.9,5.5,5.1,7,5.1,7l0,0c0,0,0.2,0.1,0.4,0.1L5.5,7l0.1,0.2C5.8,7.1,5.9,7,6,7l0,0
									C6,7,6.2,5.4,6.1,4.3z"/>
							</g>
						</g>
						<g transform="translate(120.268456, 0.000000)">
							<g>
								<g id="Rectangle_10_" class="st7">
									<rect x="0.5" y="0.2" class="st8" width="24.3" height="24.3"/>
								</g>
								<rect id="Rectangle_11_" x="0.5" y="0.2" class="st9" width="24.3" height="24.3"/>
								<path id="Shape_4_" class="st10" d="M24.3,0.7v23.2H1V0.7H24.3L24.3,0.7z M24.8,0.2H0.5v24.3h24.3V0.2L24.8,0.2z"/>
								<text transform="matrix(1 0 0 1 6.4438 15.8206)" class="st11 st5 st12">VM</text>
							</g>
							<g id="Path_11_" transform="translate(15.570470, 15.570470)">
								<path class="st13" d="M6.1,0.9C5.8,0.4,5.3,0.4,5,0.9L0.4,9.1c-0.3,0.5-0.1,1.1,0.5,1.1h9c0.6,0,0.8-0.6,0.5-1.1L6.1,0.9z"
									/>
								<path class="st14" d="M5.5,7.5C5.2,7.5,5,7.7,5,8.1c0,0.3,0.2,0.5,0.5,0.5C5.9,8.5,6,8.4,6,8.1C6,7.7,5.9,7.5,5.5,7.5z"/>
								<path class="st14" d="M6.1,4.3c0-0.6-0.1-1-0.1-1C6,3.2,5.8,3.1,5.6,3.1c0,0-0.1-0.1-0.1,0H5.5C5.3,3.1,5.2,3.1,5,3.3
									C5,3.3,4.9,3.8,4.9,4.4C4.9,5.5,5.1,7,5.1,7l0,0c0,0,0.2,0.1,0.4,0.1L5.5,7l0.1,0.2C5.8,7.1,5.9,7,6,7l0,0
									C6,7,6.2,5.4,6.1,4.3z"/>
							</g>
						</g>
					</g>
				</g>
				<g id="Group-17-Copy" transform="translate(229.000000, 165.000000)">
					<g id="Group-16_1_">
						<g id="Group_5_" transform="translate(0.000000, 0.583893)">
							<g id="Rectangle_12_" transform="translate(0.651007, 0.456376)">
								<rect x="0.1" y="0.9" class="st3" width="19.1" height="13.4"/>
							</g>
						</g>
					</g>
				</g>
				<path id="Path_12_" class="st15" d="M99.3,117.7c0-14.8,23.9-17.9,36.8-17.9"/>
				<path id="Path_13_" class="st16" d="M217.9,117.7c0-14.8-23.9-17.9-36.8-17.9"/>
				<g id="Group_6_" transform="translate(131.543624, 67.651007)">
					<path id="Path_14_" class="st17" d="M50.4,37.5h-0.2c-0.1,1.3-1.1,2.1-2.5,2.1H6.5c-1.3,0-2.4-0.9-2.5-2.1l0,0
						c-0.4,0-0.8,0.2-1,0.4l-2.9,2.7c-0.3,0.3-0.1,0.8,0.3,0.8h53.1c0.4,0,0.6-0.5,0.3-0.8L51.4,38C51.2,37.6,50.8,37.5,50.4,37.5z"
						/>
					<path id="Path_15_" class="st18" d="M47.8,39.6H6.5c-1.5,0-2.6-1.3-2.4-2.8l1.1-7.4h43.9l1.1,7.4
						C50.5,38.2,49.3,39.6,47.8,39.6z"/>
					<polyline id="Path_16_" class="st18" points="15,24.1 12.6,24.1 5.2,29.4 49.1,29.4 41.8,24.1 39,24.1 					"/>
					<ellipse id="Oval_1_" class="st17" cx="27.2" cy="26.6" rx="12.3" ry="1.2"/>
					<path id="Path_17_" class="st19" d="M39.5,24.6c0,0.8-5.5,1.5-12.3,1.5s-12.3-0.6-12.3-1.5s0-10.4,12.3-10.4
						S39.5,23.8,39.5,24.6z"/>
					<path id="Path_18_" class="st20" d="M27.2,14.2c-2.4,0-4.2,0.4-5.8,0.9c-0.1,2.7,3.3,5.8,8.2,7.2c3.9,1.1,7.6,0.8,9.6-0.5
						C38.2,18.7,35.5,14.2,27.2,14.2z"/>
					<path id="Path_19_" class="st21" d="M39.5,24.6c0,0.8-5.5,1.5-12.3,1.5s-12.3-0.6-12.3-1.5"/>
					<path id="Path_20_" class="st21" d="M14.9,24.6c0-0.8,0-10.4,12.3-10.4s12.3,9.6,12.3,10.4"/>
					<path id="Path_21_" class="st22" d="M30.2,26.8c0,0.1-1.3,0.2-2.9,0.2s-2.9-0.1-2.9-0.2c0-0.1,0-0.8,0-0.8l5.7-0.1
						C30.2,26,30.2,26.7,30.2,26.8z"/>
					<rect id="Rectangle_13_" x="4.5" y="31.6" class="st3" width="45.3" height="7.5"/>
					<text transform="matrix(1 0 0 1 11.9198 38.6791)" class="st23 st5 st24">FailOver</text>
					<g transform="translate(7.516779, 0.000000)">
						<path id="Shape_5_" class="st23" d="M12.3,4.2c0.6,0,1.1,0.3,1.1,1.6h-2.4C11.2,4.6,11.7,4.2,12.3,4.2 M15.7,10.1l-0.5-1.5
							c-1,0.4-1.7,0.5-2.3,0.5c-1.2,0-1.7-0.7-1.8-1.8h4.7c0-0.3,0.1-0.9,0.1-1c0-2.6-1.3-3.7-3.3-3.7c-2.1,0-3.8,1.3-3.8,4.1
							c0,2.4,1,4.2,3.9,4.2C13.7,10.9,14.7,10.6,15.7,10.1"/>
						<path id="Shape_6_" class="st23" d="M33.1,4.2c0.2,0,0.4,0.1,0.6,0.1l-2.2,3.4c-0.1-0.3-0.1-0.6-0.1-1.1
							C31.5,4.9,32.2,4.2,33.1,4.2L33.1,4.2z M32.4,9.1C32.2,9.1,32.1,9,32,8.8L32.4,9.1z M34.7,6.7c0,1.9-0.6,2.6-1.6,2.6
							c-0.3,0-0.5-0.1-0.7-0.2l2.2-3.5C34.6,6,34.7,6.3,34.7,6.7L34.7,6.7z M37.1,6.6c0-2.3-1.1-4-3.9-4c-2.8,0-4.1,1.7-4.1,4.2
							c0,2.4,1.1,4.1,3.9,4.1C35.8,10.9,37.1,9.2,37.1,6.6L37.1,6.6z"/>
						<path id="Path_22_" class="st22" d="M29.4,10.3c0,0-0.5-1.3-0.6-1.3C28.7,9,28.5,9,28.4,9.1c0,0,0,0-0.1,0
							c-0.2,0.1-0.4,0.1-0.7,0.1c-0.8,0-1.1-0.4-1.1-1.3V7.7V4.1V4l0,0h2.3V2.5h-2.1c-0.1,0-0.1-0.1-0.1-0.2V0.5V0.5V0.4h-1.5
							C25.1,0.7,25,1,25,1.2c-0.3,0.8-0.9,1.1-1.9,1.2v0.2l0,0v1v0.3l0,0h0.1h0.3h0.7c0.1,0,0.1,0.1,0.1,0.2v0.1v3.9l0,0v0.1
							c0,1.7,0.7,2.5,2.5,2.5C27.7,10.9,28.7,10.6,29.4,10.3"/>
						<path id="Path_23_" class="st22" d="M8.1,10.1V10V7.5H6.5L6.2,9C6.2,9.2,6.2,9.2,6,9.2H2.8l5.3-7.3V0.5H2.7H0.4H0.2H0.1v3.3
							h0.1h0.3h1.3L2,2.3C2,2.1,2,2.1,2.2,2.1h3L0.1,9.3v1v0.4h8.1L8.1,10.1L8.1,10.1z"/>
						<path id="Path_24_" class="st22" d="M20.6,10.3V9.4l0,0l-0.7-0.1c-0.1,0-0.2-0.1-0.2-0.1c-0.1-0.1-0.1-0.1-0.1-0.2l0,0l0,0
							l0,0l0,0V5c0,0,0.1-0.1,0.2-0.2c0.3-0.3,1.1-0.7,2.5-0.7h0.1V3.8c0-0.4,0-0.9,0-0.9V2.6l0,0l0,0c-0.3-0.1-0.6-0.1-0.9-0.1
							c-1,0-1.7,0.6-2.1,1.4h-0.1l-0.2-1.2h-2.7l-0.2,1.2l0.9,0.3c0.2,0.1,0.2,0.2,0.2,0.3V9c0,0.2-0.1,0.3-0.3,0.3l-0.7,0.1v1.2
							h4.2V10.3L20.6,10.3z"/>
					</g>
				</g>
				<g id="Group_7_" transform="translate(134.765101, 0.000000)">
					<g id="Path_25_" class="st25">
						<g>
							<path class="st2" d="M48.2,22.1c0,6.4-6.6,11-11.4,11H10c-3.4,0-9.8-3.4-9.8-10.3c0-3.1,1.8-5.9,4.6-7.7
								C1.8,8.6,9.5,4,13.9,7l0,0c5.3-6.8,11.2-7.5,15.9-6.2c4.4,1.2,8.5,4.3,9.8,11.3C44.6,13.4,48.3,17.1,48.2,22.1z"/>
						</g>
						<g>
							<path class="st26" d="M48.2,22.1c0,6.4-6.6,11-11.4,11H10c-3.4,0-9.8-3.4-9.8-10.3c0-3.1,1.8-5.9,4.6-7.7
								C1.8,8.6,9.5,4,13.9,7l0,0c5.3-6.8,11.2-7.5,15.9-6.2c4.4,1.2,8.5,4.3,9.8,11.3C44.6,13.4,48.3,17.1,48.2,22.1z"/>
						</g>
					</g>
					<g id="Path_26_">
						<path class="st26" d="M48.2,22.1c0,6.4-6.6,11-11.4,11H10c-3.4,0-9.8-3.4-9.8-10.3c0-3.1,1.8-5.9,4.6-7.7
							C1.8,8.6,9.5,4,13.9,7l0,0c5.3-6.8,11.2-7.5,15.9-6.2c4.4,1.2,8.5,4.3,9.8,11.3C44.6,13.4,48.3,17.1,48.2,22.1z"/>
						<path class="st0" d="M48.2,22.1c0,6.4-6.6,11-11.4,11H10c-3.4,0-9.8-3.4-9.8-10.3c0-3.1,1.8-5.9,4.6-7.7C1.8,8.6,9.5,4,13.9,7
							l0,0c5.3-6.8,11.2-7.5,15.9-6.2c4.4,1.2,8.5,4.3,9.8,11.3C44.6,13.4,48.3,17.1,48.2,22.1z"/>
					</g>
				</g>
				<path id="Path_27_" class="st27" d="M77.1,117.6c0-52.6,77.2-44.7,77.2-84.6"/>
				<path id="Path_28_" class="st28" d="M240.8,117.6c0-52.6-77.2-44.7-77.2-84.6"/>
			</g>
			<path id="Shape_7_" class="st29" d="M318.6,118.5v121.1h-153V118.5H318.6L318.6,118.5z M319.1,118H165v122.1h154.1V118L319.1,118
				z"/>
			<g id="Group_8_" transform="translate(214.181208, 165.322148)">
				<g>
					<polygon id="Path_29_" class="st30" points="0.4,48.2 0.4,16.5 27.9,0.6 55.3,16.5 55.3,48.2 27.8,48.2 27.9,48.2 					"/>
					<path id="Shape_8_" class="st29" d="M27.9,1l27.2,15.7v31.2l-27.2,0.1L0.6,47.9V16.6L27.9,1L27.9,1z M27.9,0.3l-27.8,16v32.1
						l27.8,0.1l27.8-0.1V16.3L27.9,0.3L27.9,0.3z"/>
				</g>
				<g>
					<polygon id="Path_30_" class="st30" points="0.4,48.2 0.4,16.5 27.9,0.6 55.3,16.5 55.3,48.2 27.8,48.2 27.9,48.2 					"/>
					<path id="Shape_9_" class="st29" d="M27.9,1l27.2,15.7v31.2l-27.2,0.1L0.6,47.9V16.6L27.9,1L27.9,1z M27.9,0.3l-27.8,16v32.1
						l27.8,0.1l27.8-0.1V16.3L27.9,0.3L27.9,0.3z"/>
				</g>
				<polyline id="Path_31_" class="st31" points="27.9,48.7 27.6,32.5 55.3,16.8 				"/>
				<path id="Path_32_" class="st31" d="M0.1,16.6l27.5,15.8"/>
				<g transform="translate(10.201342, 6.442953)">
					<polygon id="Path_33_" class="st30" points="1,10.1 17.6,0.5 34,10.3 17.3,19.7 					"/>
					<path id="Shape_10_" class="st29" d="M17.6,0.9l15.9,9.3l-16.2,9.1L1.4,10.1L17.6,0.9L17.6,0.9z M17.6,0.2L0.4,10.1L17.3,20
						l17.3-9.7L17.6,0.2L17.6,0.2z"/>
				</g>
			</g>
			<g id="Group_9_" transform="translate(168.543624, 204.550336)">
				<g>
					<g>
						<g id="Rectangle_14_" class="st7">
							<rect x="0.5" y="0.4" class="st8" width="24.3" height="24.3"/>
						</g>
						<g>
							<rect id="Rectangle_15_" x="0.8" y="0.7" class="st30" width="23.8" height="23.8"/>
							<path id="Shape_11_" class="st29" d="M24.3,1v23.2H1V1H24.3L24.3,1z M24.8,0.4H0.5v24.3h24.3V0.4L24.8,0.4z"/>
						</g>
						<rect id="Rectangle_16_" x="0.5" y="9.2" class="st3" width="24.3" height="15.6"/>
						<text transform="matrix(1 0 0 1 6.4438 16.0891)" class="st32 st5 st12">VM</text>
					</g>
					<g transform="translate(16.644295, 16.107383)">
						<circle id="Oval_2_" class="st33" cx="4.9" cy="5" r="4.9"/>
						<path id="Path_34_" class="st14" d="M7.7,3.5L7.4,3.1C7.2,3,7,3,6.9,3.1L6.6,3.3c-0.5,0.4-1,0.9-1.4,1.3l-1,0.9l0,0
							C4.1,5.7,4,5.7,3.9,5.9C3.6,5.5,3.3,5.2,3,4.8c-0.2-0.2-0.4-0.2-0.5,0L2.5,4.9C2.4,5,2.3,5,2.2,5.2C2,5.3,2,5.5,2.2,5.6
							l1.2,1.3C3.5,7,3.7,7.1,3.8,7.2c0.2,0.2,0.4,0.2,0.5,0l1.5-1.4c0.7-0.6,1.3-1.3,2-1.9C7.8,3.9,7.8,3.7,7.7,3.5z"/>
					</g>
				</g>
				<g transform="translate(30.067114, 0.000000)">
					<g>
						<g id="Rectangle_17_" class="st7">
							<rect x="0.5" y="0.4" class="st8" width="24.3" height="24.3"/>
						</g>
						<g>
							<rect id="Rectangle_18_" x="0.8" y="0.7" class="st30" width="23.8" height="23.8"/>
							<path id="Shape_12_" class="st29" d="M24.3,1v23.2H1V1H24.3L24.3,1z M24.8,0.4H0.5v24.3h24.3V0.4L24.8,0.4z"/>
						</g>
						<rect id="Rectangle_19_" x="0.5" y="9.2" class="st3" width="24.3" height="15.6"/>
						<text transform="matrix(1 0 0 1 6.4438 16.0891)" class="st32 st5 st12">VM</text>
					</g>
					<g transform="translate(16.644295, 16.107383)">
						<circle id="Oval_3_" class="st33" cx="4.9" cy="5" r="4.9"/>
						<path id="Path_35_" class="st14" d="M7.7,3.5L7.4,3.1C7.2,3,7,3,6.9,3.1L6.6,3.3c-0.5,0.4-1,0.9-1.4,1.3l-1,0.9l0,0
							C4.1,5.7,4,5.7,3.9,5.9C3.6,5.5,3.3,5.2,3,4.8c-0.2-0.2-0.4-0.2-0.5,0L2.5,4.9C2.4,5,2.3,5,2.2,5.2C2,5.3,2,5.5,2.2,5.6
							l1.2,1.3C3.5,7,3.7,7.1,3.8,7.2c0.2,0.2,0.4,0.2,0.5,0l1.5-1.4c0.7-0.6,1.3-1.3,2-1.9C7.8,3.9,7.8,3.7,7.7,3.5z"/>
					</g>
				</g>
				<g transform="translate(60.134228, 0.000000)">
					<g>
						<g id="Rectangle_20_" class="st7">
							<rect x="0.5" y="0.4" class="st8" width="24.3" height="24.3"/>
						</g>
						<g>
							<rect id="Rectangle_21_" x="0.8" y="0.7" class="st30" width="23.8" height="23.8"/>
							<path id="Shape_13_" class="st29" d="M24.3,1v23.2H1V1H24.3L24.3,1z M24.8,0.4H0.5v24.3h24.3V0.4L24.8,0.4z"/>
						</g>
						<rect id="Rectangle_22_" x="0.5" y="9.2" class="st3" width="24.3" height="15.6"/>
						<text transform="matrix(1 0 0 1 6.4438 16.0891)" class="st32 st5 st12">VM</text>
					</g>
					<g transform="translate(16.644295, 16.107383)">
						<circle id="Oval_4_" class="st33" cx="4.9" cy="5" r="4.9"/>
						<path id="Path_36_" class="st14" d="M7.7,3.5L7.4,3.1C7.2,3,7,3,6.9,3.1L6.6,3.3c-0.5,0.4-1,0.9-1.4,1.3l-1,0.9l0,0
							C4.1,5.7,4,5.7,3.9,5.9C3.6,5.5,3.3,5.2,3,4.8c-0.2-0.2-0.4-0.2-0.5,0L2.5,4.9C2.4,5,2.3,5,2.2,5.2C2,5.3,2,5.5,2.2,5.6
							l1.2,1.3C3.5,7,3.7,7.1,3.8,7.2c0.2,0.2,0.4,0.2,0.5,0l1.5-1.4c0.7-0.6,1.3-1.3,2-1.9C7.8,3.9,7.8,3.7,7.7,3.5z"/>
					</g>
				</g>
				<g transform="translate(90.201342, 0.000000)">
					<g>
						<g id="Rectangle_23_" class="st7">
							<rect x="0.5" y="0.4" class="st8" width="24.3" height="24.3"/>
						</g>
						<g>
							<rect id="Rectangle_24_" x="0.8" y="0.7" class="st30" width="23.8" height="23.8"/>
							<path id="Shape_14_" class="st29" d="M24.3,1v23.2H1V1H24.3L24.3,1z M24.8,0.4H0.5v24.3h24.3V0.4L24.8,0.4z"/>
						</g>
						<rect id="Rectangle_25_" x="0.5" y="9.2" class="st3" width="24.3" height="15.6"/>
						<text transform="matrix(1 0 0 1 6.4438 16.0891)" class="st32 st5 st12">VM</text>
					</g>
					<g transform="translate(16.644295, 16.107383)">
						<circle id="Oval_5_" class="st33" cx="4.9" cy="5" r="4.9"/>
						<path id="Path_37_" class="st14" d="M7.7,3.5L7.4,3.1C7.2,3,7,3,6.9,3.1L6.6,3.3c-0.5,0.4-1,0.9-1.4,1.3l-1,0.9l0,0
							C4.1,5.7,4,5.7,3.9,5.9C3.6,5.5,3.3,5.2,3,4.8c-0.2-0.2-0.4-0.2-0.5,0L2.5,4.9C2.4,5,2.3,5,2.2,5.2C2,5.3,2,5.5,2.2,5.6
							l1.2,1.3C3.5,7,3.7,7.1,3.8,7.2c0.2,0.2,0.4,0.2,0.5,0l1.5-1.4c0.7-0.6,1.3-1.3,2-1.9C7.8,3.9,7.8,3.7,7.7,3.5z"/>
					</g>
				</g>
				<g transform="translate(120.268456, 0.000000)">
					<g>
						<g id="Rectangle_26_" class="st7">
							<rect x="0.5" y="0.4" class="st8" width="24.3" height="24.3"/>
						</g>
						<g>
							<rect id="Rectangle_27_" x="0.8" y="0.7" class="st30" width="23.8" height="23.8"/>
							<path id="Shape_15_" class="st29" d="M24.3,1v23.2H1V1H24.3L24.3,1z M24.8,0.4H0.5v24.3h24.3V0.4L24.8,0.4z"/>
						</g>
						<rect id="Rectangle_28_" x="0.5" y="9.2" class="st3" width="24.3" height="15.6"/>
						<text transform="matrix(1 0 0 1 6.4438 16.0891)" class="st32 st5 st12">VM</text>
					</g>
					<g transform="translate(16.644295, 16.107383)">
						<circle id="Oval_6_" class="st33" cx="4.9" cy="5" r="4.9"/>
						<path id="Path_38_" class="st14" d="M7.7,3.5L7.4,3.1C7.2,3,7,3,6.9,3.1L6.6,3.3c-0.5,0.4-1,0.9-1.4,1.3l-1,0.9l0,0
							C4.1,5.7,4,5.7,3.9,5.9C3.6,5.5,3.3,5.2,3,4.8c-0.2-0.2-0.4-0.2-0.5,0L2.5,4.9C2.4,5,2.3,5,2.2,5.2C2,5.3,2,5.5,2.2,5.6
							l1.2,1.3C3.5,7,3.7,7.1,3.8,7.2c0.2,0.2,0.4,0.2,0.5,0l1.5-1.4c0.7-0.6,1.3-1.3,2-1.9C7.8,3.9,7.8,3.7,7.7,3.5z"/>
					</g>
				</g>
			</g>
			<g id="Group_10_" transform="translate(232.436242, 161.026846)">
				<circle id="Oval_7_" class="st33" cx="9.6" cy="9.6" r="9.6"/>
				<rect id="Rectangle_29_" x="0.1" y="6.1" class="st3" width="19.1" height="13.4"/>
				<text transform="matrix(1 0 0 1 3 14)" class="st4 st5 st6">B2</text>
			</g>
			<g>
				<path class="st34" d="M19,137v-10.2h2.9c0.6,0,1.1,0.1,1.6,0.2c0.5,0.1,0.9,0.3,1.2,0.5c0.3,0.2,0.6,0.5,0.8,0.9
					c0.2,0.4,0.3,0.9,0.3,1.4c0,0.5-0.1,1-0.3,1.4c-0.2,0.4-0.4,0.7-0.8,1c-0.3,0.3-0.7,0.5-1.2,0.6c-0.5,0.1-1,0.2-1.5,0.2h-1.7v4
					H19z M20.2,131.9h1.5c0.9,0,1.5-0.2,2-0.5s0.6-0.9,0.6-1.6c0-0.7-0.2-1.2-0.7-1.5c-0.4-0.3-1.1-0.4-2-0.4h-1.5V131.9z"/>
				<path class="st34" d="M27.6,137v-7.5h1.1l0.1,1.4h0c0.3-0.5,0.6-0.9,0.9-1.1c0.4-0.3,0.8-0.4,1.2-0.4c0.3,0,0.6,0.1,0.8,0.2
					l-0.2,1.1c-0.1,0-0.2-0.1-0.3-0.1c-0.1,0-0.2,0-0.4,0c-0.3,0-0.7,0.1-1,0.4c-0.3,0.3-0.6,0.7-0.9,1.3v4.8H27.6z"/>
				<path class="st34" d="M33.6,127.9c-0.2,0-0.5-0.1-0.6-0.2c-0.2-0.2-0.3-0.4-0.3-0.6c0-0.2,0.1-0.4,0.3-0.6
					c0.2-0.1,0.4-0.2,0.6-0.2s0.5,0.1,0.6,0.2c0.2,0.2,0.3,0.3,0.3,0.6c0,0.2-0.1,0.4-0.3,0.6C34.1,127.9,33.9,127.9,33.6,127.9z
					 M33,137v-7.5h1.3v7.5H33z"/>
				<path class="st34" d="M36.8,137v-7.5h1.1l0.1,1.1h0c0.3-0.4,0.7-0.7,1.1-0.9c0.4-0.2,0.8-0.4,1.3-0.4c0.6,0,1,0.1,1.4,0.4
					c0.3,0.3,0.6,0.6,0.7,1.1c0.4-0.4,0.8-0.8,1.2-1c0.4-0.3,0.8-0.4,1.3-0.4c0.8,0,1.4,0.2,1.7,0.7c0.4,0.5,0.6,1.2,0.6,2.2v4.8
					h-1.3v-4.6c0-0.7-0.1-1.2-0.3-1.5c-0.2-0.3-0.6-0.5-1.1-0.5c-0.6,0-1.2,0.4-1.9,1.2v5.5h-1.3v-4.6c0-0.7-0.1-1.2-0.3-1.5
					c-0.2-0.3-0.6-0.5-1.1-0.5c-0.6,0-1.2,0.4-1.9,1.2v5.5H36.8z"/>
				<path class="st34" d="M51.4,137.2c-0.6,0-1.2-0.2-1.6-0.6s-0.6-0.9-0.6-1.6c0-0.8,0.4-1.5,1.1-1.9c0.7-0.4,1.9-0.7,3.5-0.9
					c0-0.2,0-0.5-0.1-0.7c0-0.2-0.1-0.4-0.2-0.6c-0.1-0.2-0.3-0.3-0.5-0.4c-0.2-0.1-0.5-0.2-0.8-0.2c-0.4,0-0.8,0.1-1.2,0.2
					s-0.7,0.4-1,0.6l-0.5-0.9c0.4-0.2,0.8-0.4,1.3-0.7s1.1-0.3,1.7-0.3c0.9,0,1.6,0.3,2,0.8c0.4,0.6,0.6,1.3,0.6,2.3v4.6H54
					l-0.1-0.9h0c-0.4,0.3-0.7,0.6-1.2,0.8S51.9,137.2,51.4,137.2z M51.7,136.2c0.4,0,0.7-0.1,1-0.3c0.3-0.2,0.7-0.4,1-0.8v-2.1
					c-0.6,0.1-1.2,0.2-1.6,0.3c-0.4,0.1-0.8,0.2-1,0.4c-0.3,0.2-0.5,0.3-0.6,0.5s-0.2,0.4-0.2,0.7c0,0.4,0.1,0.7,0.4,0.9
					S51.4,136.2,51.7,136.2z"/>
				<path class="st34" d="M57.5,137v-7.5h1.1l0.1,1.4h0c0.3-0.5,0.6-0.9,0.9-1.1c0.4-0.3,0.8-0.4,1.2-0.4c0.3,0,0.6,0.1,0.8,0.2
					l-0.2,1.1c-0.1,0-0.2-0.1-0.3-0.1c-0.1,0-0.2,0-0.4,0c-0.3,0-0.7,0.1-1,0.4c-0.3,0.3-0.6,0.7-0.9,1.3v4.8H57.5z"/>
				<path class="st34" d="M63.3,140.3c-0.2,0-0.3,0-0.5,0c-0.1,0-0.3-0.1-0.4-0.1l0.2-1c0.1,0,0.2,0,0.3,0.1c0.1,0,0.2,0,0.3,0
					c0.4,0,0.8-0.2,1.1-0.5s0.5-0.7,0.6-1.2l0.2-0.6l-3-7.5h1.3l1.5,4.2c0.1,0.3,0.2,0.7,0.4,1c0.1,0.4,0.3,0.7,0.4,1.1h0.1
					c0.1-0.3,0.2-0.7,0.3-1.1c0.1-0.4,0.2-0.7,0.3-1.1l1.3-4.2H69l-2.8,8.2c-0.1,0.4-0.3,0.7-0.4,1c-0.2,0.3-0.4,0.6-0.6,0.8
					c-0.2,0.2-0.5,0.4-0.8,0.6C64.1,140.2,63.7,140.3,63.3,140.3z"/>
				<path class="st34" d="M77.4,137.2c-0.6,0-1.2-0.1-1.8-0.4s-1-0.6-1.4-1.1c-0.4-0.5-0.7-1-0.9-1.7s-0.3-1.4-0.3-2.2
					s0.1-1.5,0.3-2.2c0.2-0.6,0.5-1.2,0.9-1.6c0.4-0.4,0.8-0.8,1.4-1c0.5-0.2,1.1-0.4,1.8-0.4s1.2,0.1,1.8,0.4c0.5,0.2,1,0.6,1.4,1
					c0.4,0.4,0.7,1,0.9,1.6c0.2,0.6,0.3,1.4,0.3,2.2c0,0.8-0.1,1.6-0.3,2.2s-0.5,1.2-0.9,1.7c-0.4,0.5-0.8,0.8-1.4,1.1
					S78.1,137.2,77.4,137.2z M77.4,136.1c0.5,0,0.9-0.1,1.2-0.3c0.4-0.2,0.7-0.5,0.9-0.8s0.5-0.8,0.6-1.3c0.1-0.5,0.2-1.1,0.2-1.7
					c0-0.6-0.1-1.2-0.2-1.7c-0.1-0.5-0.3-0.9-0.6-1.3s-0.6-0.6-0.9-0.8c-0.4-0.2-0.8-0.3-1.2-0.3s-0.9,0.1-1.2,0.3
					c-0.4,0.2-0.7,0.5-0.9,0.8s-0.5,0.8-0.6,1.3c-0.1,0.5-0.2,1.1-0.2,1.7c0,0.6,0.1,1.2,0.2,1.7c0.1,0.5,0.3,1,0.6,1.3
					s0.6,0.6,0.9,0.8S77,136.1,77.4,136.1z"/>
				<path class="st34" d="M85.7,137l-3.3-10.2h1.4l1.6,5.5c0.2,0.6,0.3,1.2,0.5,1.7c0.1,0.5,0.3,1.1,0.5,1.7h0.1
					c0.2-0.6,0.4-1.2,0.5-1.7c0.1-0.5,0.3-1.1,0.5-1.7l1.6-5.5h1.3L87.2,137H85.7z"/>
				<path class="st34" d="M91.8,137v-10.2h1.3v4.3h4.7v-4.3h1.3V137h-1.3v-4.8h-4.7v4.8H91.8z"/>
				<path class="st34" d="M104.8,137.2c-0.5,0-1-0.1-1.4-0.3c-0.4-0.2-0.8-0.4-1.1-0.8c-0.3-0.3-0.6-0.7-0.7-1.2
					c-0.2-0.5-0.3-1-0.3-1.7c0-0.6,0.1-1.2,0.3-1.7c0.2-0.5,0.5-0.9,0.8-1.2s0.7-0.6,1.2-0.8c0.4-0.2,0.9-0.3,1.4-0.3
					c0.5,0,0.9,0.1,1.3,0.3c0.4,0.2,0.7,0.4,0.9,0.6l-0.7,0.8c-0.2-0.2-0.4-0.4-0.7-0.5s-0.5-0.2-0.8-0.2c-0.3,0-0.7,0.1-0.9,0.2
					c-0.3,0.1-0.5,0.3-0.7,0.6c-0.2,0.3-0.4,0.6-0.5,0.9c-0.1,0.4-0.2,0.8-0.2,1.2c0,0.4,0.1,0.8,0.2,1.2c0.1,0.4,0.3,0.7,0.5,0.9
					c0.2,0.3,0.4,0.4,0.7,0.6c0.3,0.1,0.6,0.2,0.9,0.2c0.4,0,0.7-0.1,1-0.2s0.6-0.3,0.8-0.5l0.6,0.9c-0.3,0.3-0.7,0.5-1.1,0.7
					C105.6,137.1,105.2,137.2,104.8,137.2z"/>
				<path class="st34" d="M110.2,137.2c-0.5,0-0.8-0.1-1-0.4c-0.2-0.3-0.3-0.7-0.3-1.3V126h1.3v9.6c0,0.2,0,0.4,0.1,0.4
					s0.2,0.1,0.2,0.1c0,0,0.1,0,0.1,0s0.1,0,0.2,0l0.2,1c-0.1,0-0.2,0.1-0.3,0.1C110.5,137.2,110.4,137.2,110.2,137.2z"/>
				<path class="st34" d="M115.7,137.2c-0.5,0-0.9-0.1-1.3-0.3c-0.4-0.2-0.8-0.4-1.1-0.8s-0.6-0.7-0.8-1.2c-0.2-0.5-0.3-1-0.3-1.7
					c0-0.6,0.1-1.2,0.3-1.7c0.2-0.5,0.4-0.9,0.8-1.2s0.7-0.6,1.1-0.8c0.4-0.2,0.9-0.3,1.3-0.3c0.5,0,0.9,0.1,1.3,0.3
					c0.4,0.2,0.8,0.4,1.1,0.8s0.6,0.8,0.8,1.2c0.2,0.5,0.3,1.1,0.3,1.7c0,0.6-0.1,1.2-0.3,1.7c-0.2,0.5-0.4,0.9-0.8,1.2
					s-0.7,0.6-1.1,0.8C116.6,137.1,116.2,137.2,115.7,137.2z M115.7,136.2c0.3,0,0.6-0.1,0.9-0.2c0.3-0.1,0.5-0.3,0.7-0.6
					c0.2-0.3,0.3-0.6,0.4-0.9c0.1-0.4,0.2-0.7,0.2-1.2c0-0.4-0.1-0.8-0.2-1.2c-0.1-0.4-0.3-0.7-0.4-0.9c-0.2-0.3-0.4-0.5-0.7-0.6
					c-0.3-0.1-0.6-0.2-0.9-0.2c-0.3,0-0.6,0.1-0.9,0.2s-0.5,0.3-0.7,0.6c-0.2,0.3-0.3,0.6-0.4,0.9c-0.1,0.4-0.2,0.8-0.2,1.2
					c0,0.4,0.1,0.8,0.2,1.2c0.1,0.4,0.3,0.7,0.4,0.9c0.2,0.3,0.4,0.4,0.7,0.6C115.1,136.1,115.4,136.2,115.7,136.2z"/>
				<path class="st34" d="M123.4,137.2c-0.8,0-1.4-0.2-1.8-0.7c-0.4-0.5-0.6-1.2-0.6-2.2v-4.8h1.3v4.6c0,0.7,0.1,1.2,0.3,1.5
					c0.2,0.3,0.6,0.5,1.1,0.5c0.4,0,0.7-0.1,1-0.3c0.3-0.2,0.6-0.5,1-1v-5.3h1.3v7.5H126l-0.1-1.2h0c-0.4,0.4-0.7,0.7-1.1,1
					S123.9,137.2,123.4,137.2z"/>
				<path class="st34" d="M132.2,137.2c-1,0-1.7-0.3-2.3-1c-0.6-0.7-0.8-1.7-0.8-2.9c0-0.6,0.1-1.2,0.3-1.7c0.2-0.5,0.4-0.9,0.7-1.2
					c0.3-0.3,0.6-0.6,1-0.8c0.4-0.2,0.8-0.3,1.2-0.3s0.8,0.1,1.1,0.2c0.3,0.2,0.6,0.4,1,0.6l-0.1-1.3V126h1.3v11h-1.1l-0.1-0.9h0
					c-0.3,0.3-0.6,0.5-1,0.8S132.7,137.2,132.2,137.2z M132.5,136.1c0.4,0,0.7-0.1,1-0.3c0.3-0.2,0.6-0.4,0.9-0.8v-3.9
					c-0.3-0.3-0.6-0.5-0.9-0.6c-0.3-0.1-0.6-0.2-0.9-0.2c-0.3,0-0.6,0.1-0.8,0.2c-0.3,0.1-0.5,0.3-0.7,0.6c-0.2,0.3-0.4,0.6-0.5,0.9
					c-0.1,0.4-0.2,0.7-0.2,1.2c0,0.9,0.2,1.6,0.5,2.1C131.3,135.9,131.8,136.1,132.5,136.1z"/>
				<path class="st34" d="M43.2,154v-10.2h2.5c1.6,0,2.8,0.4,3.6,1.3c0.8,0.9,1.2,2.1,1.2,3.7c0,0.8-0.1,1.5-0.3,2.2
					c-0.2,0.6-0.5,1.2-0.9,1.6c-0.4,0.4-0.9,0.8-1.5,1c-0.6,0.2-1.3,0.3-2,0.3H43.2z M44.5,153h1.2c1.2,0,2.1-0.4,2.7-1.1
					s0.9-1.7,0.9-3c0-1.3-0.3-2.3-0.9-3c-0.6-0.7-1.5-1-2.7-1h-1.2V153z"/>
				<path class="st34" d="M54.4,154.2c-0.6,0-1.2-0.2-1.6-0.6s-0.6-0.9-0.6-1.6c0-0.8,0.4-1.5,1.1-1.9c0.7-0.4,1.9-0.7,3.5-0.9
					c0-0.2,0-0.5-0.1-0.7c0-0.2-0.1-0.4-0.2-0.6c-0.1-0.2-0.3-0.3-0.5-0.4c-0.2-0.1-0.5-0.2-0.8-0.2c-0.4,0-0.8,0.1-1.2,0.2
					s-0.7,0.4-1,0.6l-0.5-0.9c0.4-0.2,0.8-0.4,1.3-0.7s1.1-0.3,1.7-0.3c0.9,0,1.6,0.3,2,0.8c0.4,0.6,0.6,1.3,0.6,2.3v4.6H57
					l-0.1-0.9h0c-0.4,0.3-0.7,0.6-1.2,0.8S54.9,154.2,54.4,154.2z M54.7,153.2c0.4,0,0.7-0.1,1-0.3c0.3-0.2,0.7-0.4,1-0.8v-2.1
					c-0.6,0.1-1.2,0.2-1.6,0.3c-0.4,0.1-0.8,0.2-1,0.4c-0.3,0.2-0.5,0.3-0.6,0.5s-0.2,0.4-0.2,0.7c0,0.4,0.1,0.7,0.4,0.9
					S54.4,153.2,54.7,153.2z"/>
				<path class="st34" d="M62.6,154.2c-0.4,0-0.7-0.1-1-0.2c-0.3-0.1-0.5-0.3-0.7-0.5c-0.2-0.2-0.3-0.5-0.4-0.8
					c-0.1-0.3-0.1-0.7-0.1-1v-4.2h-1.1v-1l1.2-0.1l0.2-2.1h1.1v2.1h2v1h-2v4.2c0,0.5,0.1,0.8,0.3,1.1s0.5,0.4,0.9,0.4
					c0.1,0,0.3,0,0.4-0.1c0.2,0,0.3-0.1,0.4-0.1l0.2,1c-0.2,0.1-0.4,0.1-0.7,0.2C63.1,154.2,62.8,154.2,62.6,154.2z"/>
				<path class="st34" d="M66.9,154.2c-0.6,0-1.2-0.2-1.6-0.6s-0.6-0.9-0.6-1.6c0-0.8,0.4-1.5,1.1-1.9c0.7-0.4,1.9-0.7,3.5-0.9
					c0-0.2,0-0.5-0.1-0.7c0-0.2-0.1-0.4-0.2-0.6c-0.1-0.2-0.3-0.3-0.5-0.4c-0.2-0.1-0.5-0.2-0.8-0.2c-0.4,0-0.8,0.1-1.2,0.2
					s-0.7,0.4-1,0.6l-0.5-0.9c0.4-0.2,0.8-0.4,1.3-0.7s1.1-0.3,1.7-0.3c0.9,0,1.6,0.3,2,0.8c0.4,0.6,0.6,1.3,0.6,2.3v4.6h-1.1
					l-0.1-0.9h0c-0.4,0.3-0.7,0.6-1.2,0.8S67.4,154.2,66.9,154.2z M67.3,153.2c0.4,0,0.7-0.1,1-0.3c0.3-0.2,0.7-0.4,1-0.8v-2.1
					c-0.6,0.1-1.2,0.2-1.6,0.3c-0.4,0.1-0.8,0.2-1,0.4c-0.3,0.2-0.5,0.3-0.6,0.5s-0.2,0.4-0.2,0.7c0,0.4,0.1,0.7,0.4,0.9
					S66.9,153.2,67.3,153.2z"/>
				<path class="st34" d="M75.9,154.2c-0.5,0-1-0.1-1.4-0.3c-0.4-0.2-0.8-0.4-1.1-0.8c-0.3-0.3-0.6-0.7-0.7-1.2
					c-0.2-0.5-0.3-1-0.3-1.7c0-0.6,0.1-1.2,0.3-1.7c0.2-0.5,0.5-0.9,0.8-1.2s0.7-0.6,1.2-0.8c0.4-0.2,0.9-0.3,1.4-0.3
					c0.5,0,0.9,0.1,1.3,0.3c0.4,0.2,0.7,0.4,0.9,0.6l-0.7,0.8c-0.2-0.2-0.4-0.4-0.7-0.5s-0.5-0.2-0.8-0.2c-0.3,0-0.7,0.1-0.9,0.2
					c-0.3,0.1-0.5,0.3-0.7,0.6c-0.2,0.3-0.4,0.6-0.5,0.9c-0.1,0.4-0.2,0.8-0.2,1.2c0,0.4,0.1,0.8,0.2,1.2c0.1,0.4,0.3,0.7,0.5,0.9
					c0.2,0.3,0.4,0.4,0.7,0.6c0.3,0.1,0.6,0.2,0.9,0.2c0.4,0,0.7-0.1,1-0.2s0.6-0.3,0.8-0.5l0.6,0.9c-0.3,0.3-0.7,0.5-1.1,0.7
					C76.8,154.1,76.4,154.2,75.9,154.2z"/>
				<path class="st34" d="M82.8,154.2c-0.5,0-1-0.1-1.4-0.3c-0.4-0.2-0.8-0.4-1.1-0.8s-0.6-0.7-0.8-1.2c-0.2-0.5-0.3-1-0.3-1.7
					s0.1-1.2,0.3-1.7c0.2-0.5,0.4-0.9,0.8-1.2c0.3-0.3,0.7-0.6,1.1-0.8c0.4-0.2,0.8-0.3,1.3-0.3c0.5,0,0.9,0.1,1.3,0.2
					c0.4,0.2,0.7,0.4,0.9,0.7c0.3,0.3,0.4,0.7,0.6,1.1c0.1,0.4,0.2,0.9,0.2,1.5c0,0.1,0,0.3,0,0.4c0,0.1,0,0.2,0,0.3h-5.1
					c0.1,0.8,0.3,1.4,0.8,1.9c0.4,0.5,1,0.7,1.8,0.7c0.4,0,0.7-0.1,1-0.2c0.3-0.1,0.6-0.2,0.9-0.4l0.4,0.8c-0.3,0.2-0.7,0.4-1.1,0.5
					C83.7,154.1,83.3,154.2,82.8,154.2z M80.4,149.7h4c0-0.8-0.2-1.3-0.5-1.7c-0.3-0.4-0.8-0.6-1.4-0.6c-0.3,0-0.5,0.1-0.8,0.2
					c-0.2,0.1-0.5,0.3-0.7,0.5s-0.4,0.4-0.5,0.7C80.5,149,80.4,149.3,80.4,149.7z"/>
				<path class="st34" d="M87.4,154v-7.5h1.1l0.1,1.1h0c0.4-0.4,0.7-0.7,1.1-0.9c0.4-0.2,0.9-0.4,1.4-0.4c0.8,0,1.4,0.2,1.7,0.7
					c0.4,0.5,0.5,1.2,0.5,2.2v4.8h-1.3v-4.6c0-0.7-0.1-1.2-0.3-1.5c-0.2-0.3-0.6-0.5-1.1-0.5c-0.4,0-0.7,0.1-1,0.3s-0.6,0.5-1,0.9
					v5.5H87.4z"/>
				<path class="st34" d="M98.2,154.2c-0.4,0-0.7-0.1-1-0.2c-0.3-0.1-0.5-0.3-0.7-0.5c-0.2-0.2-0.3-0.5-0.4-0.8
					c-0.1-0.3-0.1-0.7-0.1-1v-4.2H95v-1l1.2-0.1l0.2-2.1h1.1v2.1h2v1h-2v4.2c0,0.5,0.1,0.8,0.3,1.1s0.5,0.4,0.9,0.4
					c0.1,0,0.3,0,0.4-0.1c0.2,0,0.3-0.1,0.4-0.1l0.2,1c-0.2,0.1-0.4,0.1-0.7,0.2C98.7,154.2,98.5,154.2,98.2,154.2z"/>
				<path class="st34" d="M103.9,154.2c-0.5,0-1-0.1-1.4-0.3c-0.4-0.2-0.8-0.4-1.1-0.8s-0.6-0.7-0.8-1.2c-0.2-0.5-0.3-1-0.3-1.7
					s0.1-1.2,0.3-1.7c0.2-0.5,0.4-0.9,0.8-1.2c0.3-0.3,0.7-0.6,1.1-0.8c0.4-0.2,0.8-0.3,1.3-0.3c0.5,0,0.9,0.1,1.3,0.2
					c0.4,0.2,0.7,0.4,0.9,0.7c0.3,0.3,0.4,0.7,0.6,1.1c0.1,0.4,0.2,0.9,0.2,1.5c0,0.1,0,0.3,0,0.4c0,0.1,0,0.2,0,0.3h-5.1
					c0.1,0.8,0.3,1.4,0.8,1.9c0.4,0.5,1,0.7,1.8,0.7c0.4,0,0.7-0.1,1-0.2c0.3-0.1,0.6-0.2,0.9-0.4l0.4,0.8c-0.3,0.2-0.7,0.4-1.1,0.5
					C104.9,154.1,104.5,154.2,103.9,154.2z M101.6,149.7h4c0-0.8-0.2-1.3-0.5-1.7c-0.3-0.4-0.8-0.6-1.4-0.6c-0.3,0-0.5,0.1-0.8,0.2
					c-0.2,0.1-0.5,0.3-0.7,0.5s-0.4,0.4-0.5,0.7C101.7,149,101.6,149.3,101.6,149.7z"/>
				<path class="st34" d="M108.6,154v-7.5h1.1l0.1,1.4h0c0.3-0.5,0.6-0.9,0.9-1.1c0.4-0.3,0.8-0.4,1.2-0.4c0.3,0,0.6,0.1,0.8,0.2
					l-0.2,1.1c-0.1,0-0.2-0.1-0.3-0.1c-0.1,0-0.2,0-0.4,0c-0.3,0-0.7,0.1-1,0.4c-0.3,0.3-0.6,0.7-0.9,1.3v4.8H108.6z"/>
			</g>
			<g>
				<path class="st34" d="M177.9,137.2c-0.7,0-1.4-0.1-2-0.4c-0.6-0.3-1.1-0.6-1.6-1.1l0.8-0.9c0.4,0.4,0.8,0.7,1.3,0.9
					c0.5,0.2,1,0.3,1.5,0.3c0.7,0,1.2-0.2,1.6-0.5c0.4-0.3,0.6-0.7,0.6-1.2c0-0.3,0-0.5-0.1-0.7s-0.2-0.3-0.4-0.5
					c-0.2-0.1-0.3-0.2-0.5-0.3c-0.2-0.1-0.4-0.2-0.7-0.3l-1.5-0.6c-0.2-0.1-0.5-0.2-0.7-0.4c-0.2-0.1-0.5-0.3-0.7-0.5
					s-0.4-0.5-0.5-0.7s-0.2-0.6-0.2-1c0-0.4,0.1-0.7,0.2-1.1s0.4-0.6,0.7-0.9s0.6-0.4,1-0.6c0.4-0.1,0.8-0.2,1.3-0.2
					c0.6,0,1.2,0.1,1.7,0.3s1,0.5,1.3,0.9l-0.7,0.8c-0.3-0.3-0.7-0.5-1-0.7c-0.4-0.2-0.8-0.3-1.3-0.3c-0.6,0-1,0.1-1.4,0.4
					c-0.3,0.3-0.5,0.6-0.5,1.1c0,0.2,0,0.5,0.1,0.6c0.1,0.2,0.2,0.3,0.4,0.5c0.2,0.1,0.3,0.2,0.5,0.3s0.4,0.2,0.6,0.3l1.4,0.6
					c0.3,0.1,0.6,0.3,0.8,0.4c0.3,0.2,0.5,0.3,0.7,0.6c0.2,0.2,0.3,0.5,0.4,0.7s0.2,0.6,0.2,1c0,0.4-0.1,0.8-0.2,1.1
					s-0.4,0.7-0.7,0.9c-0.3,0.3-0.7,0.5-1.1,0.6C178.9,137.1,178.4,137.2,177.9,137.2z"/>
				<path class="st34" d="M186.3,137.2c-0.5,0-1-0.1-1.4-0.3c-0.4-0.2-0.8-0.4-1.1-0.8c-0.3-0.3-0.6-0.7-0.8-1.2
					c-0.2-0.5-0.3-1-0.3-1.7s0.1-1.2,0.3-1.7c0.2-0.5,0.4-0.9,0.8-1.2s0.7-0.6,1.1-0.8c0.4-0.2,0.8-0.3,1.3-0.3
					c0.5,0,0.9,0.1,1.3,0.2c0.4,0.2,0.7,0.4,0.9,0.7c0.3,0.3,0.4,0.7,0.6,1.1c0.1,0.4,0.2,0.9,0.2,1.5c0,0.1,0,0.3,0,0.4
					s0,0.2,0,0.3h-5.1c0.1,0.8,0.3,1.4,0.8,1.9c0.5,0.5,1,0.7,1.8,0.7c0.4,0,0.7-0.1,1-0.2c0.3-0.1,0.6-0.2,0.9-0.4l0.5,0.8
					c-0.3,0.2-0.7,0.4-1.1,0.5C187.2,137.1,186.8,137.2,186.3,137.2z M183.9,132.7h4c0-0.8-0.2-1.3-0.5-1.7
					c-0.3-0.4-0.8-0.6-1.4-0.6c-0.3,0-0.5,0.1-0.8,0.2s-0.5,0.3-0.7,0.5s-0.4,0.4-0.5,0.7C184,132,183.9,132.3,183.9,132.7z"/>
				<path class="st34" d="M193.9,137.2c-0.5,0-1-0.1-1.4-0.3c-0.4-0.2-0.8-0.4-1.1-0.8s-0.6-0.7-0.7-1.2c-0.2-0.5-0.3-1-0.3-1.7
					c0-0.6,0.1-1.2,0.3-1.7c0.2-0.5,0.5-0.9,0.8-1.2c0.3-0.3,0.7-0.6,1.2-0.8c0.4-0.2,0.9-0.3,1.4-0.3c0.5,0,0.9,0.1,1.3,0.3
					c0.4,0.2,0.7,0.4,0.9,0.6l-0.7,0.8c-0.2-0.2-0.4-0.4-0.7-0.5c-0.2-0.1-0.5-0.2-0.8-0.2c-0.3,0-0.7,0.1-0.9,0.2
					c-0.3,0.1-0.5,0.3-0.7,0.6c-0.2,0.3-0.4,0.6-0.5,0.9c-0.1,0.4-0.2,0.8-0.2,1.2c0,0.4,0.1,0.8,0.2,1.2s0.3,0.7,0.5,0.9
					c0.2,0.3,0.4,0.4,0.7,0.6c0.3,0.1,0.6,0.2,0.9,0.2c0.4,0,0.7-0.1,1-0.2c0.3-0.1,0.6-0.3,0.8-0.5l0.6,0.9
					c-0.3,0.3-0.7,0.5-1.1,0.7C194.8,137.1,194.3,137.2,193.9,137.2z"/>
				<path class="st34" d="M200.6,137.2c-0.5,0-0.9-0.1-1.3-0.3c-0.4-0.2-0.8-0.4-1.1-0.8s-0.6-0.7-0.8-1.2c-0.2-0.5-0.3-1-0.3-1.7
					c0-0.6,0.1-1.2,0.3-1.7c0.2-0.5,0.4-0.9,0.8-1.2s0.7-0.6,1.1-0.8c0.4-0.2,0.9-0.3,1.3-0.3c0.5,0,0.9,0.1,1.3,0.3
					c0.4,0.2,0.8,0.4,1.1,0.8s0.6,0.8,0.8,1.2c0.2,0.5,0.3,1.1,0.3,1.7c0,0.6-0.1,1.2-0.3,1.7c-0.2,0.5-0.4,0.9-0.8,1.2
					s-0.7,0.6-1.1,0.8C201.5,137.1,201,137.2,200.6,137.2z M200.6,136.2c0.3,0,0.6-0.1,0.9-0.2c0.3-0.1,0.5-0.3,0.7-0.6
					c0.2-0.3,0.3-0.6,0.4-0.9s0.2-0.7,0.2-1.2c0-0.4-0.1-0.8-0.2-1.2c-0.1-0.4-0.3-0.7-0.4-0.9c-0.2-0.3-0.4-0.5-0.7-0.6
					s-0.6-0.2-0.9-0.2c-0.3,0-0.6,0.1-0.9,0.2s-0.5,0.3-0.7,0.6c-0.2,0.3-0.3,0.6-0.4,0.9c-0.1,0.4-0.2,0.8-0.2,1.2
					c0,0.4,0.1,0.8,0.2,1.2s0.3,0.7,0.4,0.9c0.2,0.3,0.4,0.4,0.7,0.6C199.9,136.1,200.2,136.2,200.6,136.2z"/>
				<path class="st34" d="M206,137v-7.5h1.1l0.1,1.1h0c0.4-0.4,0.7-0.7,1.1-0.9c0.4-0.2,0.9-0.4,1.4-0.4c0.8,0,1.4,0.2,1.7,0.7
					c0.4,0.5,0.5,1.2,0.5,2.2v4.8h-1.3v-4.6c0-0.7-0.1-1.2-0.3-1.5c-0.2-0.3-0.6-0.5-1.1-0.5c-0.4,0-0.7,0.1-1,0.3s-0.6,0.5-1,0.9
					v5.5H206z"/>
				<path class="st34" d="M217.1,137.2c-1,0-1.7-0.3-2.3-1c-0.6-0.7-0.8-1.7-0.8-2.9c0-0.6,0.1-1.2,0.3-1.7c0.2-0.5,0.4-0.9,0.7-1.2
					c0.3-0.3,0.6-0.6,1-0.8c0.4-0.2,0.8-0.3,1.2-0.3c0.4,0,0.8,0.1,1.1,0.2c0.3,0.2,0.6,0.4,1,0.6l-0.1-1.3V126h1.3v11h-1.1
					l-0.1-0.9h0c-0.3,0.3-0.6,0.5-1,0.8S217.5,137.2,217.1,137.2z M217.4,136.1c0.4,0,0.7-0.1,1-0.3c0.3-0.2,0.6-0.4,0.9-0.8v-3.9
					c-0.3-0.3-0.6-0.5-0.9-0.6c-0.3-0.1-0.6-0.2-0.9-0.2c-0.3,0-0.6,0.1-0.8,0.2s-0.5,0.3-0.7,0.6c-0.2,0.3-0.4,0.6-0.5,0.9
					c-0.1,0.4-0.2,0.7-0.2,1.2c0,0.9,0.2,1.6,0.5,2.1C216.2,135.9,216.7,136.1,217.4,136.1z"/>
				<path class="st34" d="M224.9,137.2c-0.6,0-1.2-0.2-1.6-0.6c-0.4-0.4-0.6-0.9-0.6-1.6c0-0.8,0.4-1.5,1.1-1.9
					c0.7-0.4,1.9-0.7,3.5-0.9c0-0.2,0-0.5-0.1-0.7c0-0.2-0.1-0.4-0.2-0.6c-0.1-0.2-0.3-0.3-0.5-0.4c-0.2-0.1-0.5-0.2-0.8-0.2
					c-0.4,0-0.8,0.1-1.2,0.2c-0.4,0.2-0.7,0.4-1,0.6l-0.5-0.9c0.4-0.2,0.8-0.4,1.3-0.7c0.5-0.2,1.1-0.3,1.7-0.3c0.9,0,1.6,0.3,2,0.8
					c0.4,0.6,0.6,1.3,0.6,2.3v4.6h-1.1l-0.1-0.9h0c-0.4,0.3-0.7,0.6-1.2,0.8S225.3,137.2,224.9,137.2z M225.2,136.2
					c0.4,0,0.7-0.1,1-0.3c0.3-0.2,0.7-0.4,1-0.8v-2.1c-0.6,0.1-1.2,0.2-1.6,0.3s-0.8,0.2-1,0.4c-0.3,0.2-0.5,0.3-0.6,0.5
					c-0.1,0.2-0.2,0.4-0.2,0.7c0,0.4,0.1,0.7,0.4,0.9C224.5,136.1,224.9,136.2,225.2,136.2z"/>
				<path class="st34" d="M230.9,137v-7.5h1.1l0.1,1.4h0c0.3-0.5,0.6-0.9,0.9-1.1c0.4-0.3,0.8-0.4,1.2-0.4c0.3,0,0.6,0.1,0.8,0.2
					l-0.2,1.1c-0.1,0-0.2-0.1-0.3-0.1s-0.2,0-0.4,0c-0.3,0-0.7,0.1-1,0.4c-0.3,0.3-0.6,0.7-0.9,1.3v4.8H230.9z"/>
				<path class="st34" d="M236.8,140.3c-0.2,0-0.3,0-0.5,0c-0.1,0-0.3-0.1-0.4-0.1l0.2-1c0.1,0,0.2,0,0.3,0.1c0.1,0,0.2,0,0.3,0
					c0.4,0,0.8-0.2,1.1-0.5c0.3-0.3,0.5-0.7,0.6-1.2l0.2-0.6l-3-7.5h1.3l1.5,4.2c0.1,0.3,0.2,0.7,0.4,1s0.3,0.7,0.4,1.1h0.1
					c0.1-0.3,0.2-0.7,0.3-1.1s0.2-0.7,0.3-1.1l1.3-4.2h1.2l-2.8,8.2c-0.1,0.4-0.3,0.7-0.4,1s-0.4,0.6-0.6,0.8s-0.5,0.4-0.8,0.6
					C237.5,140.2,237.2,140.3,236.8,140.3z"/>
				<path class="st34" d="M250.9,137.2c-0.6,0-1.2-0.1-1.8-0.4s-1-0.6-1.4-1.1s-0.7-1-0.9-1.7s-0.3-1.4-0.3-2.2s0.1-1.5,0.3-2.2
					c0.2-0.6,0.5-1.2,0.9-1.6s0.8-0.8,1.4-1c0.5-0.2,1.1-0.4,1.8-0.4s1.2,0.1,1.8,0.4c0.5,0.2,1,0.6,1.4,1c0.4,0.4,0.7,1,0.9,1.6
					c0.2,0.6,0.3,1.4,0.3,2.2c0,0.8-0.1,1.6-0.3,2.2s-0.5,1.2-0.9,1.7c-0.4,0.5-0.8,0.8-1.4,1.1S251.5,137.2,250.9,137.2z
					 M250.9,136.1c0.5,0,0.9-0.1,1.2-0.3s0.7-0.5,0.9-0.8s0.5-0.8,0.6-1.3s0.2-1.1,0.2-1.7c0-0.6-0.1-1.2-0.2-1.7
					c-0.1-0.5-0.3-0.9-0.6-1.3s-0.6-0.6-0.9-0.8c-0.4-0.2-0.8-0.3-1.2-0.3c-0.5,0-0.9,0.1-1.2,0.3c-0.4,0.2-0.7,0.5-0.9,0.8
					s-0.5,0.8-0.6,1.3c-0.1,0.5-0.2,1.1-0.2,1.7c0,0.6,0.1,1.2,0.2,1.7s0.3,1,0.6,1.3s0.6,0.6,0.9,0.8
					C250,136,250.5,136.1,250.9,136.1z"/>
				<path class="st34" d="M259.2,137l-3.3-10.2h1.4l1.6,5.5c0.2,0.6,0.3,1.2,0.5,1.7c0.1,0.5,0.3,1.1,0.5,1.7h0.1
					c0.2-0.6,0.4-1.2,0.5-1.7c0.1-0.5,0.3-1.1,0.5-1.7l1.6-5.5h1.3l-3.2,10.2H259.2z"/>
				<path class="st34" d="M265.3,137v-10.2h1.3v4.3h4.7v-4.3h1.3V137h-1.3v-4.8h-4.7v4.8H265.3z"/>
				<path class="st34" d="M278.2,137.2c-0.5,0-1-0.1-1.4-0.3c-0.4-0.2-0.8-0.4-1.1-0.8s-0.6-0.7-0.7-1.2c-0.2-0.5-0.3-1-0.3-1.7
					c0-0.6,0.1-1.2,0.3-1.7c0.2-0.5,0.5-0.9,0.8-1.2c0.3-0.3,0.7-0.6,1.2-0.8c0.4-0.2,0.9-0.3,1.4-0.3c0.5,0,0.9,0.1,1.3,0.3
					c0.4,0.2,0.7,0.4,0.9,0.6l-0.7,0.8c-0.2-0.2-0.4-0.4-0.7-0.5c-0.2-0.1-0.5-0.2-0.8-0.2c-0.3,0-0.7,0.1-0.9,0.2
					c-0.3,0.1-0.5,0.3-0.7,0.6c-0.2,0.3-0.4,0.6-0.5,0.9c-0.1,0.4-0.2,0.8-0.2,1.2c0,0.4,0.1,0.8,0.2,1.2s0.3,0.7,0.5,0.9
					c0.2,0.3,0.4,0.4,0.7,0.6c0.3,0.1,0.6,0.2,0.9,0.2c0.4,0,0.7-0.1,1-0.2c0.3-0.1,0.6-0.3,0.8-0.5l0.6,0.9
					c-0.3,0.3-0.7,0.5-1.1,0.7C279.1,137.1,278.7,137.2,278.2,137.2z"/>
				<path class="st34" d="M283.7,137.2c-0.5,0-0.8-0.1-1-0.4c-0.2-0.3-0.3-0.7-0.3-1.3V126h1.3v9.6c0,0.2,0,0.4,0.1,0.4
					s0.2,0.1,0.2,0.1c0,0,0.1,0,0.1,0s0.1,0,0.2,0l0.2,1c-0.1,0-0.2,0.1-0.3,0.1C284,137.2,283.8,137.2,283.7,137.2z"/>
				<path class="st34" d="M289.2,137.2c-0.5,0-0.9-0.1-1.3-0.3c-0.4-0.2-0.8-0.4-1.1-0.8s-0.6-0.7-0.8-1.2c-0.2-0.5-0.3-1-0.3-1.7
					c0-0.6,0.1-1.2,0.3-1.7c0.2-0.5,0.4-0.9,0.8-1.2s0.7-0.6,1.1-0.8c0.4-0.2,0.9-0.3,1.3-0.3c0.5,0,0.9,0.1,1.3,0.3
					c0.4,0.2,0.8,0.4,1.1,0.8s0.6,0.8,0.8,1.2c0.2,0.5,0.3,1.1,0.3,1.7c0,0.6-0.1,1.2-0.3,1.7c-0.2,0.5-0.4,0.9-0.8,1.2
					s-0.7,0.6-1.1,0.8C290.1,137.1,289.7,137.2,289.2,137.2z M289.2,136.2c0.3,0,0.6-0.1,0.9-0.2c0.3-0.1,0.5-0.3,0.7-0.6
					c0.2-0.3,0.3-0.6,0.4-0.9s0.2-0.7,0.2-1.2c0-0.4-0.1-0.8-0.2-1.2c-0.1-0.4-0.3-0.7-0.4-0.9c-0.2-0.3-0.4-0.5-0.7-0.6
					s-0.6-0.2-0.9-0.2c-0.3,0-0.6,0.1-0.9,0.2s-0.5,0.3-0.7,0.6c-0.2,0.3-0.3,0.6-0.4,0.9c-0.1,0.4-0.2,0.8-0.2,1.2
					c0,0.4,0.1,0.8,0.2,1.2s0.3,0.7,0.4,0.9c0.2,0.3,0.4,0.4,0.7,0.6C288.6,136.1,288.9,136.2,289.2,136.2z"/>
				<path class="st34" d="M296.9,137.2c-0.8,0-1.4-0.2-1.8-0.7c-0.4-0.5-0.6-1.2-0.6-2.2v-4.8h1.3v4.6c0,0.7,0.1,1.2,0.3,1.5
					c0.2,0.3,0.6,0.5,1.1,0.5c0.4,0,0.7-0.1,1-0.3c0.3-0.2,0.6-0.5,1-1v-5.3h1.3v7.5h-1.1l-0.1-1.2h0c-0.4,0.4-0.7,0.7-1.1,1
					S297.4,137.2,296.9,137.2z"/>
				<path class="st34" d="M305.7,137.2c-1,0-1.7-0.3-2.3-1c-0.6-0.7-0.8-1.7-0.8-2.9c0-0.6,0.1-1.2,0.3-1.7c0.2-0.5,0.4-0.9,0.7-1.2
					c0.3-0.3,0.6-0.6,1-0.8c0.4-0.2,0.8-0.3,1.2-0.3c0.4,0,0.8,0.1,1.1,0.2c0.3,0.2,0.6,0.4,1,0.6l-0.1-1.3V126h1.3v11h-1.1
					l-0.1-0.9h0c-0.3,0.3-0.6,0.5-1,0.8S306.1,137.2,305.7,137.2z M306,136.1c0.4,0,0.7-0.1,1-0.3c0.3-0.2,0.6-0.4,0.9-0.8v-3.9
					c-0.3-0.3-0.6-0.5-0.9-0.6c-0.3-0.1-0.6-0.2-0.9-0.2c-0.3,0-0.6,0.1-0.8,0.2s-0.5,0.3-0.7,0.6c-0.2,0.3-0.4,0.6-0.5,0.9
					c-0.1,0.4-0.2,0.7-0.2,1.2c0,0.9,0.2,1.6,0.5,2.1C304.8,135.9,305.3,136.1,306,136.1z"/>
				<path class="st34" d="M208,154v-10.2h2.5c1.6,0,2.8,0.4,3.6,1.3s1.2,2.1,1.2,3.7c0,0.8-0.1,1.5-0.3,2.2
					c-0.2,0.6-0.5,1.2-0.9,1.6s-0.9,0.8-1.5,1c-0.6,0.2-1.3,0.3-2,0.3H208z M209.3,153h1.2c1.2,0,2.1-0.4,2.7-1.1
					c0.6-0.7,0.9-1.7,0.9-3c0-1.3-0.3-2.3-0.9-3c-0.6-0.7-1.5-1-2.7-1h-1.2V153z"/>
				<path class="st34" d="M219.2,154.2c-0.6,0-1.2-0.2-1.6-0.6c-0.4-0.4-0.6-0.9-0.6-1.6c0-0.8,0.4-1.5,1.1-1.9
					c0.7-0.4,1.9-0.7,3.5-0.9c0-0.2,0-0.5-0.1-0.7s-0.1-0.4-0.2-0.6c-0.1-0.2-0.3-0.3-0.5-0.4c-0.2-0.1-0.5-0.2-0.8-0.2
					c-0.4,0-0.8,0.1-1.2,0.2c-0.4,0.2-0.7,0.4-1,0.6l-0.5-0.9c0.4-0.2,0.8-0.4,1.3-0.7c0.5-0.2,1.1-0.3,1.7-0.3c0.9,0,1.6,0.3,2,0.8
					c0.4,0.6,0.6,1.3,0.6,2.3v4.6h-1.1l-0.1-0.9h0c-0.4,0.3-0.8,0.6-1.2,0.8S219.6,154.2,219.2,154.2z M219.5,153.2
					c0.4,0,0.7-0.1,1-0.3c0.3-0.2,0.7-0.4,1-0.8v-2.1c-0.6,0.1-1.2,0.2-1.6,0.3c-0.4,0.1-0.8,0.2-1,0.4c-0.3,0.2-0.5,0.3-0.6,0.5
					c-0.1,0.2-0.2,0.4-0.2,0.7c0,0.4,0.1,0.7,0.4,0.9C218.8,153.1,219.2,153.2,219.5,153.2z"/>
				<path class="st34" d="M227.4,154.2c-0.4,0-0.7-0.1-1-0.2s-0.5-0.3-0.7-0.5c-0.2-0.2-0.3-0.5-0.4-0.8c-0.1-0.3-0.1-0.7-0.1-1
					v-4.2h-1.1v-1l1.2-0.1l0.2-2.1h1.1v2.1h2v1h-2v4.2c0,0.5,0.1,0.8,0.3,1.1c0.2,0.3,0.5,0.4,0.9,0.4c0.1,0,0.3,0,0.4-0.1
					c0.2,0,0.3-0.1,0.4-0.1l0.2,1c-0.2,0.1-0.4,0.1-0.7,0.2C227.9,154.2,227.6,154.2,227.4,154.2z"/>
				<path class="st34" d="M231.7,154.2c-0.6,0-1.2-0.2-1.6-0.6c-0.4-0.4-0.6-0.9-0.6-1.6c0-0.8,0.4-1.5,1.1-1.9
					c0.7-0.4,1.9-0.7,3.5-0.9c0-0.2,0-0.5-0.1-0.7s-0.1-0.4-0.2-0.6c-0.1-0.2-0.3-0.3-0.5-0.4c-0.2-0.1-0.5-0.2-0.8-0.2
					c-0.4,0-0.8,0.1-1.2,0.2c-0.4,0.2-0.7,0.4-1,0.6l-0.5-0.9c0.4-0.2,0.8-0.4,1.3-0.7c0.5-0.2,1.1-0.3,1.7-0.3c0.9,0,1.6,0.3,2,0.8
					c0.4,0.6,0.6,1.3,0.6,2.3v4.6h-1.1l-0.1-0.9h0c-0.4,0.3-0.8,0.6-1.2,0.8S232.1,154.2,231.7,154.2z M232,153.2
					c0.4,0,0.7-0.1,1-0.3c0.3-0.2,0.7-0.4,1-0.8v-2.1c-0.6,0.1-1.2,0.2-1.6,0.3c-0.4,0.1-0.8,0.2-1,0.4c-0.3,0.2-0.5,0.3-0.6,0.5
					c-0.1,0.2-0.2,0.4-0.2,0.7c0,0.4,0.1,0.7,0.4,0.9C231.4,153.1,231.7,153.2,232,153.2z"/>
				<path class="st34" d="M240.7,154.2c-0.5,0-1-0.1-1.4-0.3c-0.4-0.2-0.8-0.4-1.1-0.8c-0.3-0.3-0.6-0.7-0.7-1.2
					c-0.2-0.5-0.3-1-0.3-1.7c0-0.6,0.1-1.2,0.3-1.7c0.2-0.5,0.5-0.9,0.8-1.2c0.3-0.3,0.7-0.6,1.2-0.8c0.4-0.2,0.9-0.3,1.4-0.3
					c0.5,0,0.9,0.1,1.3,0.3c0.4,0.2,0.7,0.4,0.9,0.6l-0.7,0.8c-0.2-0.2-0.4-0.4-0.7-0.5c-0.2-0.1-0.5-0.2-0.8-0.2
					c-0.3,0-0.7,0.1-0.9,0.2s-0.5,0.3-0.7,0.6c-0.2,0.3-0.4,0.6-0.5,0.9c-0.1,0.4-0.2,0.8-0.2,1.2c0,0.4,0.1,0.8,0.2,1.2
					c0.1,0.4,0.3,0.7,0.5,0.9c0.2,0.3,0.4,0.4,0.7,0.6c0.3,0.1,0.6,0.2,0.9,0.2c0.4,0,0.7-0.1,1-0.2c0.3-0.1,0.6-0.3,0.8-0.5
					l0.6,0.9c-0.3,0.3-0.7,0.5-1.1,0.7C241.6,154.1,241.2,154.2,240.7,154.2z"/>
				<path class="st34" d="M247.5,154.2c-0.5,0-1-0.1-1.4-0.3c-0.4-0.2-0.8-0.4-1.1-0.8c-0.3-0.3-0.6-0.7-0.8-1.2
					c-0.2-0.5-0.3-1-0.3-1.7s0.1-1.2,0.3-1.7c0.2-0.5,0.4-0.9,0.8-1.2s0.7-0.6,1.1-0.8c0.4-0.2,0.8-0.3,1.3-0.3
					c0.5,0,0.9,0.1,1.3,0.2c0.4,0.2,0.7,0.4,0.9,0.7c0.3,0.3,0.4,0.7,0.6,1.1c0.1,0.4,0.2,0.9,0.2,1.5c0,0.1,0,0.3,0,0.4
					s0,0.2,0,0.3h-5.1c0.1,0.8,0.3,1.4,0.8,1.9c0.5,0.5,1,0.7,1.8,0.7c0.4,0,0.7-0.1,1-0.2c0.3-0.1,0.6-0.2,0.9-0.4l0.5,0.8
					c-0.3,0.2-0.7,0.4-1.1,0.5C248.5,154.1,248.1,154.2,247.5,154.2z M245.2,149.7h4c0-0.8-0.2-1.3-0.5-1.7
					c-0.3-0.4-0.8-0.6-1.4-0.6c-0.3,0-0.5,0.1-0.8,0.2s-0.5,0.3-0.7,0.5s-0.4,0.4-0.5,0.7C245.3,149,245.2,149.3,245.2,149.7z"/>
				<path class="st34" d="M252.2,154v-7.5h1.1l0.1,1.1h0c0.4-0.4,0.7-0.7,1.1-0.9c0.4-0.2,0.9-0.4,1.4-0.4c0.8,0,1.4,0.2,1.7,0.7
					c0.4,0.5,0.5,1.2,0.5,2.2v4.8h-1.3v-4.6c0-0.7-0.1-1.2-0.3-1.5c-0.2-0.3-0.6-0.5-1.1-0.5c-0.4,0-0.7,0.1-1,0.3s-0.6,0.5-1,0.9
					v5.5H252.2z"/>
				<path class="st34" d="M263,154.2c-0.4,0-0.7-0.1-1-0.2c-0.3-0.1-0.5-0.3-0.7-0.5s-0.3-0.5-0.4-0.8c-0.1-0.3-0.1-0.7-0.1-1v-4.2
					h-1.1v-1l1.2-0.1l0.2-2.1h1.1v2.1h2v1h-2v4.2c0,0.5,0.1,0.8,0.3,1.1c0.2,0.3,0.5,0.4,0.9,0.4c0.1,0,0.3,0,0.4-0.1
					c0.2,0,0.3-0.1,0.4-0.1l0.2,1c-0.2,0.1-0.4,0.1-0.7,0.2S263.3,154.2,263,154.2z"/>
				<path class="st34" d="M268.7,154.2c-0.5,0-1-0.1-1.4-0.3c-0.4-0.2-0.8-0.4-1.1-0.8c-0.3-0.3-0.6-0.7-0.8-1.2
					c-0.2-0.5-0.3-1-0.3-1.7s0.1-1.2,0.3-1.7c0.2-0.5,0.4-0.9,0.8-1.2s0.7-0.6,1.1-0.8c0.4-0.2,0.8-0.3,1.3-0.3
					c0.5,0,0.9,0.1,1.3,0.2c0.4,0.2,0.7,0.4,0.9,0.7c0.3,0.3,0.4,0.7,0.6,1.1c0.1,0.4,0.2,0.9,0.2,1.5c0,0.1,0,0.3,0,0.4
					s0,0.2,0,0.3h-5.1c0.1,0.8,0.3,1.4,0.8,1.9c0.5,0.5,1,0.7,1.8,0.7c0.4,0,0.7-0.1,1-0.2c0.3-0.1,0.6-0.2,0.9-0.4l0.5,0.8
					c-0.3,0.2-0.7,0.4-1.1,0.5C269.7,154.1,269.2,154.2,268.7,154.2z M266.4,149.7h4c0-0.8-0.2-1.3-0.5-1.7
					c-0.3-0.4-0.8-0.6-1.4-0.6c-0.3,0-0.5,0.1-0.8,0.2s-0.5,0.3-0.7,0.5s-0.4,0.4-0.5,0.7C266.5,149,266.4,149.3,266.4,149.7z"/>
				<path class="st34" d="M273.4,154v-7.5h1.1l0.1,1.4h0c0.3-0.5,0.6-0.9,0.9-1.1c0.4-0.3,0.8-0.4,1.2-0.4c0.3,0,0.6,0.1,0.8,0.2
					l-0.2,1.1c-0.1,0-0.2-0.1-0.3-0.1s-0.2,0-0.4,0c-0.3,0-0.7,0.1-1,0.4c-0.3,0.3-0.6,0.7-0.9,1.3v4.8H273.4z"/>
			</g>
		</g>
	</g>
</g>
</svg>
