<svg id="Layer_1" data-name="Layer 1" xmlns="http://www.w3.org/2000/svg" viewBox="0 0 30 30"><defs><style>.cls-1{fill:#59697d;}.cls-2{fill:#7991a3;}</style></defs><title>icon_assistance_1</title><path class="cls-1" d="M15,2A13,13,0,1,1,2,15,13,13,0,0,1,15,2m0-2A15,15,0,1,0,30,15,15,15,0,0,0,15,0Z"/><path class="cls-2" d="M14.38,19.44a1.62,1.62,0,0,0-1.23.5,1.77,1.77,0,0,0-.49,1.3,1.74,1.74,0,0,0,.49,1.27,1.62,1.62,0,0,0,1.23.5,1.66,1.66,0,0,0,1.24-.5,1.71,1.71,0,0,0,.5-1.27,1.74,1.74,0,0,0-.5-1.29A1.66,1.66,0,0,0,14.38,19.44Z"/><path class="cls-2" d="M17.76,7.9a4,4,0,0,0-1.41-.67A7.21,7.21,0,0,0,14.51,7a4.94,4.94,0,0,0-2.33.55,6.33,6.33,0,0,0-.88.56.74.74,0,0,0,0,1.15l.23.21a.8.8,0,0,0,1,.05l.3-.19a2.92,2.92,0,0,1,1.5-.39,2.33,2.33,0,0,1,1.54.51A1.87,1.87,0,0,1,16.44,11a2.14,2.14,0,0,1-.34,1.14,6.8,6.8,0,0,1-.72.95l-.84.94a6.47,6.47,0,0,0-.74,1,4.62,4.62,0,0,0-.49,1.15h0a.75.75,0,0,0,.76.9h.76a.76.76,0,0,0,.75-.58,2.78,2.78,0,0,1,.13-.42,5.05,5.05,0,0,1,.68-1.2,11.07,11.07,0,0,1,.9-1c.3-.3.58-.63.85-1a4.84,4.84,0,0,0,.63-1A2.75,2.75,0,0,0,19,10.7,3.88,3.88,0,0,0,18.67,9,3.08,3.08,0,0,0,17.76,7.9Z"/></svg>